ISO-10303-21;
HEADER;
/* Generated by software containing ST-Developer
 * from STEP Tools, Inc. (www.steptools.com) 
 */

FILE_DESCRIPTION(
/* description */ (''),
/* implementation_level */ '2;1');

FILE_NAME(
/* name */ 'ensamble-brazo-impreso.stp',
/* time_stamp */ '2026-10-06T10:20:25-06:00',
/* author */ ('231526'),
/* organization */ (''),
/* preprocessor_version */ 'ST-DEVELOPER v20.1',
/* originating_system */ 'Autodesk Inventor 2026',
/* authorisation */ '');

FILE_SCHEMA (('AUTOMOTIVE_DESIGN { 1 0 10303 214 3 1 1 }'));
ENDSEC;

DATA;
#10=MECHANICAL_DESIGN_GEOMETRIC_PRESENTATION_REPRESENTATION('',(#20),#377);
#11=CONTEXT_DEPENDENT_OVER_RIDING_STYLED_ITEM('',(#481),#425,#20,(#39));
#12=CONTEXT_DEPENDENT_OVER_RIDING_STYLED_ITEM('',(#480),#427,#20,(#41));
#13=CONTEXT_DEPENDENT_OVER_RIDING_STYLED_ITEM('',(#480),#422,#20,(#36));
#14=CONTEXT_DEPENDENT_OVER_RIDING_STYLED_ITEM('',(#480),#426,#20,(#40));
#15=CONTEXT_DEPENDENT_OVER_RIDING_STYLED_ITEM('',(#482),#430,#20,(#44));
#16=CONTEXT_DEPENDENT_OVER_RIDING_STYLED_ITEM('',(#480),#423,#20,(#37));
#17=CONTEXT_DEPENDENT_OVER_RIDING_STYLED_ITEM('',(#481),#428,#20,(#42));
#18=CONTEXT_DEPENDENT_OVER_RIDING_STYLED_ITEM('',(#481),#424,#20,(#38));
#19=CONTEXT_DEPENDENT_OVER_RIDING_STYLED_ITEM('',(#480),#429,#20,(#43));
#20=STYLED_ITEM('',(#500),#21);
#21=MAPPED_ITEM('',#22,#278);
#22=REPRESENTATION_MAP(#278,#421);
#23=ITEM_DEFINED_TRANSFORMATION($,$,#255,#265);
#24=ITEM_DEFINED_TRANSFORMATION($,$,#256,#266);
#25=ITEM_DEFINED_TRANSFORMATION($,$,#257,#267);
#26=ITEM_DEFINED_TRANSFORMATION($,$,#258,#268);
#27=ITEM_DEFINED_TRANSFORMATION($,$,#259,#269);
#28=ITEM_DEFINED_TRANSFORMATION($,$,#260,#270);
#29=ITEM_DEFINED_TRANSFORMATION($,$,#261,#271);
#30=ITEM_DEFINED_TRANSFORMATION($,$,#262,#272);
#31=ITEM_DEFINED_TRANSFORMATION($,$,#263,#273);
#32=ITEM_DEFINED_TRANSFORMATION($,$,#264,#274);
#33=ITEM_DEFINED_TRANSFORMATION($,$,#264,#275);
#34=ITEM_DEFINED_TRANSFORMATION($,$,#264,#276);
#35=ITEM_DEFINED_TRANSFORMATION($,$,#264,#277);
#36=(
REPRESENTATION_RELATIONSHIP($,$,#422,#421)
REPRESENTATION_RELATIONSHIP_WITH_TRANSFORMATION(#23)
SHAPE_REPRESENTATION_RELATIONSHIP()
);
#37=(
REPRESENTATION_RELATIONSHIP($,$,#423,#421)
REPRESENTATION_RELATIONSHIP_WITH_TRANSFORMATION(#24)
SHAPE_REPRESENTATION_RELATIONSHIP()
);
#38=(
REPRESENTATION_RELATIONSHIP($,$,#424,#421)
REPRESENTATION_RELATIONSHIP_WITH_TRANSFORMATION(#25)
SHAPE_REPRESENTATION_RELATIONSHIP()
);
#39=(
REPRESENTATION_RELATIONSHIP($,$,#425,#421)
REPRESENTATION_RELATIONSHIP_WITH_TRANSFORMATION(#26)
SHAPE_REPRESENTATION_RELATIONSHIP()
);
#40=(
REPRESENTATION_RELATIONSHIP($,$,#426,#421)
REPRESENTATION_RELATIONSHIP_WITH_TRANSFORMATION(#27)
SHAPE_REPRESENTATION_RELATIONSHIP()
);
#41=(
REPRESENTATION_RELATIONSHIP($,$,#427,#421)
REPRESENTATION_RELATIONSHIP_WITH_TRANSFORMATION(#28)
SHAPE_REPRESENTATION_RELATIONSHIP()
);
#42=(
REPRESENTATION_RELATIONSHIP($,$,#428,#421)
REPRESENTATION_RELATIONSHIP_WITH_TRANSFORMATION(#29)
SHAPE_REPRESENTATION_RELATIONSHIP()
);
#43=(
REPRESENTATION_RELATIONSHIP($,$,#429,#421)
REPRESENTATION_RELATIONSHIP_WITH_TRANSFORMATION(#30)
SHAPE_REPRESENTATION_RELATIONSHIP()
);
#44=(
REPRESENTATION_RELATIONSHIP($,$,#430,#421)
REPRESENTATION_RELATIONSHIP_WITH_TRANSFORMATION(#31)
SHAPE_REPRESENTATION_RELATIONSHIP()
);
#45=(
REPRESENTATION_RELATIONSHIP($,$,#431,#421)
REPRESENTATION_RELATIONSHIP_WITH_TRANSFORMATION(#32)
SHAPE_REPRESENTATION_RELATIONSHIP()
);
#46=(
REPRESENTATION_RELATIONSHIP($,$,#431,#421)
REPRESENTATION_RELATIONSHIP_WITH_TRANSFORMATION(#33)
SHAPE_REPRESENTATION_RELATIONSHIP()
);
#47=(
REPRESENTATION_RELATIONSHIP($,$,#431,#421)
REPRESENTATION_RELATIONSHIP_WITH_TRANSFORMATION(#34)
SHAPE_REPRESENTATION_RELATIONSHIP()
);
#48=(
REPRESENTATION_RELATIONSHIP($,$,#431,#421)
REPRESENTATION_RELATIONSHIP_WITH_TRANSFORMATION(#35)
SHAPE_REPRESENTATION_RELATIONSHIP()
);
#49=CONTEXT_DEPENDENT_SHAPE_REPRESENTATION(#36,#408);
#50=CONTEXT_DEPENDENT_SHAPE_REPRESENTATION(#37,#409);
#51=CONTEXT_DEPENDENT_SHAPE_REPRESENTATION(#38,#410);
#52=CONTEXT_DEPENDENT_SHAPE_REPRESENTATION(#39,#411);
#53=CONTEXT_DEPENDENT_SHAPE_REPRESENTATION(#40,#412);
#54=CONTEXT_DEPENDENT_SHAPE_REPRESENTATION(#41,#413);
#55=CONTEXT_DEPENDENT_SHAPE_REPRESENTATION(#42,#414);
#56=CONTEXT_DEPENDENT_SHAPE_REPRESENTATION(#43,#415);
#57=CONTEXT_DEPENDENT_SHAPE_REPRESENTATION(#44,#416);
#58=CONTEXT_DEPENDENT_SHAPE_REPRESENTATION(#45,#417);
#59=CONTEXT_DEPENDENT_SHAPE_REPRESENTATION(#46,#418);
#60=CONTEXT_DEPENDENT_SHAPE_REPRESENTATION(#47,#419);
#61=CONTEXT_DEPENDENT_SHAPE_REPRESENTATION(#48,#420);
#62=NEXT_ASSEMBLY_USAGE_OCCURRENCE('Brazo 1 v1:1','Brazo 1 v1:1',
'Brazo 1 v1:1',#433,#434,'Brazo 1 v1:1');
#63=NEXT_ASSEMBLY_USAGE_OCCURRENCE('Brazo 2 v1_FINAL_FInal:1',
'Brazo 2 v1_FINAL_FInal:1','Brazo 2 v1_FINAL_FInal:1',#433,#435,
'Brazo 2 v1_FINAL_FInal:1');
#64=NEXT_ASSEMBLY_USAGE_OCCURRENCE('Pi\X\F1on pinza 1 v1:1',
'Pi\X\F1on pinza 1 v1:1','Pi\X\F1on pinza 1 v1:1',#433,#436,
'Pi\X\F1on pinza 1 v1:1');
#65=NEXT_ASSEMBLY_USAGE_OCCURRENCE('Pi\X\F1on Servo v1:1',
'Pi\X\F1on Servo v1:1','Pi\X\F1on Servo v1:1',#433,#437,
'Pi\X\F1on Servo v1:1');
#66=NEXT_ASSEMBLY_USAGE_OCCURRENCE('Pinza derecha v1:1',
'Pinza derecha v1:1','Pinza derecha v1:1',#433,#438,
'Pinza derecha v1:1');
#67=NEXT_ASSEMBLY_USAGE_OCCURRENCE('Pinza izquierda v1_MIR_MIR3:1',
'Pinza izquierda v1_MIR_MIR3:1','Pinza izquierda v1_MIR_MIR3:1',#433,#439,
'Pinza izquierda v1_MIR_MIR3:1');
#68=NEXT_ASSEMBLY_USAGE_OCCURRENCE('Soporte Pinza v1:1',
'Soporte Pinza v1:1','Soporte Pinza v1:1',#433,#440,
'Soporte Pinza v1:1');
#69=NEXT_ASSEMBLY_USAGE_OCCURRENCE('Tapa v2:1','Tapa v2:1','Tapa v2:1',
#433,#441,'Tapa v2:1');
#70=NEXT_ASSEMBLY_USAGE_OCCURRENCE('Base 2 v2:1','Base 2 v2:1',
'Base 2 v2:1',#433,#442,'Base 2 v2:1');
#71=NEXT_ASSEMBLY_USAGE_OCCURRENCE('SERVO_SG90_mm:1','SERVO_SG90_mm:1',
'SERVO_SG90_mm:1',#433,#443,'SERVO_SG90_mm:1');
#72=NEXT_ASSEMBLY_USAGE_OCCURRENCE('SERVO_SG90_mm:2','SERVO_SG90_mm:2',
'SERVO_SG90_mm:2',#433,#443,'SERVO_SG90_mm:2');
#73=NEXT_ASSEMBLY_USAGE_OCCURRENCE('SERVO_SG90_mm:3','SERVO_SG90_mm:3',
'SERVO_SG90_mm:3',#433,#443,'SERVO_SG90_mm:3');
#74=NEXT_ASSEMBLY_USAGE_OCCURRENCE('SERVO_SG90_mm:4','SERVO_SG90_mm:4',
'SERVO_SG90_mm:4',#433,#443,'SERVO_SG90_mm:4');
#75=DERIVED_UNIT_ELEMENT(#95,1.);
#76=DERIVED_UNIT_ELEMENT(#382,-3.);
#77=DERIVED_UNIT_ELEMENT(#95,1.);
#78=DERIVED_UNIT_ELEMENT(#382,-3.);
#79=DERIVED_UNIT_ELEMENT(#95,1.);
#80=DERIVED_UNIT_ELEMENT(#382,-3.);
#81=DERIVED_UNIT_ELEMENT(#95,1.);
#82=DERIVED_UNIT_ELEMENT(#382,-3.);
#83=DERIVED_UNIT_ELEMENT(#95,1.);
#84=DERIVED_UNIT_ELEMENT(#382,-3.);
#85=DERIVED_UNIT_ELEMENT(#95,1.);
#86=DERIVED_UNIT_ELEMENT(#382,-3.);
#87=DERIVED_UNIT_ELEMENT(#95,1.);
#88=DERIVED_UNIT_ELEMENT(#382,-3.);
#89=DERIVED_UNIT_ELEMENT(#95,1.);
#90=DERIVED_UNIT_ELEMENT(#382,-3.);
#91=DERIVED_UNIT_ELEMENT(#95,1.);
#92=DERIVED_UNIT_ELEMENT(#382,-3.);
#93=DERIVED_UNIT_ELEMENT(#95,1.);
#94=DERIVED_UNIT_ELEMENT(#382,-3.);
#95=(
CONVERSION_BASED_UNIT('gram',#97)
MASS_UNIT()
NAMED_UNIT(#379)
);
#96=(
MASS_UNIT()
NAMED_UNIT(*)
SI_UNIT(.KILO.,.GRAM.)
);
#97=MASS_MEASURE_WITH_UNIT(MASS_MEASURE(0.001),#96);
#98=DERIVED_UNIT((#75,#76));
#99=DERIVED_UNIT((#77,#78));
#100=DERIVED_UNIT((#79,#80));
#101=DERIVED_UNIT((#81,#82));
#102=DERIVED_UNIT((#83,#84));
#103=DERIVED_UNIT((#85,#86));
#104=DERIVED_UNIT((#87,#88));
#105=DERIVED_UNIT((#89,#90));
#106=DERIVED_UNIT((#91,#92));
#107=DERIVED_UNIT((#93,#94));
#108=MEASURE_REPRESENTATION_ITEM('density measure',
POSITIVE_RATIO_MEASURE(1.),#98);
#109=MEASURE_REPRESENTATION_ITEM('density measure',
POSITIVE_RATIO_MEASURE(1.),#99);
#110=MEASURE_REPRESENTATION_ITEM('density measure',
POSITIVE_RATIO_MEASURE(1.),#100);
#111=MEASURE_REPRESENTATION_ITEM('density measure',
POSITIVE_RATIO_MEASURE(1.),#101);
#112=MEASURE_REPRESENTATION_ITEM('density measure',
POSITIVE_RATIO_MEASURE(1.),#102);
#113=MEASURE_REPRESENTATION_ITEM('density measure',
POSITIVE_RATIO_MEASURE(1.),#103);
#114=MEASURE_REPRESENTATION_ITEM('density measure',
POSITIVE_RATIO_MEASURE(1.),#104);
#115=MEASURE_REPRESENTATION_ITEM('density measure',
POSITIVE_RATIO_MEASURE(1.),#105);
#116=MEASURE_REPRESENTATION_ITEM('density measure',
POSITIVE_RATIO_MEASURE(1.),#106);
#117=MEASURE_REPRESENTATION_ITEM('density measure',
POSITIVE_RATIO_MEASURE(1.),#107);
#118=PROPERTY_DEFINITION_REPRESENTATION(#168,#138);
#119=PROPERTY_DEFINITION_REPRESENTATION(#169,#139);
#120=PROPERTY_DEFINITION_REPRESENTATION(#170,#140);
#121=PROPERTY_DEFINITION_REPRESENTATION(#171,#141);
#122=PROPERTY_DEFINITION_REPRESENTATION(#172,#142);
#123=PROPERTY_DEFINITION_REPRESENTATION(#173,#143);
#124=PROPERTY_DEFINITION_REPRESENTATION(#174,#144);
#125=PROPERTY_DEFINITION_REPRESENTATION(#175,#145);
#126=PROPERTY_DEFINITION_REPRESENTATION(#176,#146);
#127=PROPERTY_DEFINITION_REPRESENTATION(#177,#147);
#128=PROPERTY_DEFINITION_REPRESENTATION(#178,#148);
#129=PROPERTY_DEFINITION_REPRESENTATION(#179,#149);
#130=PROPERTY_DEFINITION_REPRESENTATION(#180,#150);
#131=PROPERTY_DEFINITION_REPRESENTATION(#181,#151);
#132=PROPERTY_DEFINITION_REPRESENTATION(#182,#152);
#133=PROPERTY_DEFINITION_REPRESENTATION(#183,#153);
#134=PROPERTY_DEFINITION_REPRESENTATION(#184,#154);
#135=PROPERTY_DEFINITION_REPRESENTATION(#185,#155);
#136=PROPERTY_DEFINITION_REPRESENTATION(#186,#156);
#137=PROPERTY_DEFINITION_REPRESENTATION(#187,#157);
#138=REPRESENTATION('material name',(#158),#367);
#139=REPRESENTATION('density',(#108),#367);
#140=REPRESENTATION('material name',(#159),#368);
#141=REPRESENTATION('density',(#109),#368);
#142=REPRESENTATION('material name',(#160),#369);
#143=REPRESENTATION('density',(#110),#369);
#144=REPRESENTATION('material name',(#161),#370);
#145=REPRESENTATION('density',(#111),#370);
#146=REPRESENTATION('material name',(#162),#371);
#147=REPRESENTATION('density',(#112),#371);
#148=REPRESENTATION('material name',(#163),#372);
#149=REPRESENTATION('density',(#113),#372);
#150=REPRESENTATION('material name',(#164),#373);
#151=REPRESENTATION('density',(#114),#373);
#152=REPRESENTATION('material name',(#165),#374);
#153=REPRESENTATION('density',(#115),#374);
#154=REPRESENTATION('material name',(#166),#375);
#155=REPRESENTATION('density',(#116),#375);
#156=REPRESENTATION('material name',(#167),#376);
#157=REPRESENTATION('density',(#117),#376);
#158=DESCRIPTIVE_REPRESENTATION_ITEM('Generic','Generic');
#159=DESCRIPTIVE_REPRESENTATION_ITEM('Generic','Generic');
#160=DESCRIPTIVE_REPRESENTATION_ITEM('Generic','Generic');
#161=DESCRIPTIVE_REPRESENTATION_ITEM('Generic','Generic');
#162=DESCRIPTIVE_REPRESENTATION_ITEM('Generic','Generic');
#163=DESCRIPTIVE_REPRESENTATION_ITEM('Generic','Generic');
#164=DESCRIPTIVE_REPRESENTATION_ITEM('Generic','Generic');
#165=DESCRIPTIVE_REPRESENTATION_ITEM('Generic','Generic');
#166=DESCRIPTIVE_REPRESENTATION_ITEM('Generic','Generic');
#167=DESCRIPTIVE_REPRESENTATION_ITEM('Generic','Generic');
#168=PROPERTY_DEFINITION('material property','material name',#434);
#169=PROPERTY_DEFINITION('material property','density of part',#434);
#170=PROPERTY_DEFINITION('material property','material name',#435);
#171=PROPERTY_DEFINITION('material property','density of part',#435);
#172=PROPERTY_DEFINITION('material property','material name',#436);
#173=PROPERTY_DEFINITION('material property','density of part',#436);
#174=PROPERTY_DEFINITION('material property','material name',#437);
#175=PROPERTY_DEFINITION('material property','density of part',#437);
#176=PROPERTY_DEFINITION('material property','material name',#438);
#177=PROPERTY_DEFINITION('material property','density of part',#438);
#178=PROPERTY_DEFINITION('material property','material name',#439);
#179=PROPERTY_DEFINITION('material property','density of part',#439);
#180=PROPERTY_DEFINITION('material property','material name',#440);
#181=PROPERTY_DEFINITION('material property','density of part',#440);
#182=PROPERTY_DEFINITION('material property','material name',#441);
#183=PROPERTY_DEFINITION('material property','density of part',#441);
#184=PROPERTY_DEFINITION('material property','material name',#442);
#185=PROPERTY_DEFINITION('material property','density of part',#442);
#186=PROPERTY_DEFINITION('material property','material name',#443);
#187=PROPERTY_DEFINITION('material property','density of part',#443);
#188=DATE_TIME_ROLE('creation_date');
#189=DATE_TIME_ROLE('creation_date');
#190=DATE_TIME_ROLE('creation_date');
#191=DATE_TIME_ROLE('creation_date');
#192=DATE_TIME_ROLE('creation_date');
#193=DATE_TIME_ROLE('creation_date');
#194=DATE_TIME_ROLE('creation_date');
#195=DATE_TIME_ROLE('creation_date');
#196=DATE_TIME_ROLE('creation_date');
#197=DATE_TIME_ROLE('creation_date');
#198=DATE_TIME_ROLE('creation_date');
#199=APPLIED_DATE_AND_TIME_ASSIGNMENT(#210,#188,(#433));
#200=APPLIED_DATE_AND_TIME_ASSIGNMENT(#211,#189,(#434));
#201=APPLIED_DATE_AND_TIME_ASSIGNMENT(#212,#190,(#435));
#202=APPLIED_DATE_AND_TIME_ASSIGNMENT(#213,#191,(#436));
#203=APPLIED_DATE_AND_TIME_ASSIGNMENT(#214,#192,(#437));
#204=APPLIED_DATE_AND_TIME_ASSIGNMENT(#215,#193,(#438));
#205=APPLIED_DATE_AND_TIME_ASSIGNMENT(#216,#194,(#439));
#206=APPLIED_DATE_AND_TIME_ASSIGNMENT(#217,#195,(#440));
#207=APPLIED_DATE_AND_TIME_ASSIGNMENT(#218,#196,(#441));
#208=APPLIED_DATE_AND_TIME_ASSIGNMENT(#219,#197,(#442));
#209=APPLIED_DATE_AND_TIME_ASSIGNMENT(#220,#198,(#443));
#210=DATE_AND_TIME(#221,#232);
#211=DATE_AND_TIME(#222,#233);
#212=DATE_AND_TIME(#223,#234);
#213=DATE_AND_TIME(#224,#235);
#214=DATE_AND_TIME(#225,#236);
#215=DATE_AND_TIME(#226,#237);
#216=DATE_AND_TIME(#227,#238);
#217=DATE_AND_TIME(#228,#239);
#218=DATE_AND_TIME(#229,#240);
#219=DATE_AND_TIME(#230,#241);
#220=DATE_AND_TIME(#231,#242);
#221=CALENDAR_DATE(2026,30,9);
#222=CALENDAR_DATE(2026,30,9);
#223=CALENDAR_DATE(2026,30,9);
#224=CALENDAR_DATE(2026,30,9);
#225=CALENDAR_DATE(2026,30,9);
#226=CALENDAR_DATE(2026,30,9);
#227=CALENDAR_DATE(2026,30,9);
#228=CALENDAR_DATE(2026,30,9);
#229=CALENDAR_DATE(2026,30,9);
#230=CALENDAR_DATE(2026,30,9);
#231=CALENDAR_DATE(2026,30,9);
#232=LOCAL_TIME(0,0,0.,#243);
#233=LOCAL_TIME(0,0,0.,#244);
#234=LOCAL_TIME(0,0,0.,#245);
#235=LOCAL_TIME(0,0,0.,#246);
#236=LOCAL_TIME(0,0,0.,#247);
#237=LOCAL_TIME(0,0,0.,#248);
#238=LOCAL_TIME(0,0,0.,#249);
#239=LOCAL_TIME(0,0,0.,#250);
#240=LOCAL_TIME(0,0,0.,#251);
#241=LOCAL_TIME(0,0,0.,#252);
#242=LOCAL_TIME(0,0,0.,#253);
#243=COORDINATED_UNIVERSAL_TIME_OFFSET(0,0,.BEHIND.);
#244=COORDINATED_UNIVERSAL_TIME_OFFSET(0,0,.BEHIND.);
#245=COORDINATED_UNIVERSAL_TIME_OFFSET(0,0,.BEHIND.);
#246=COORDINATED_UNIVERSAL_TIME_OFFSET(0,0,.BEHIND.);
#247=COORDINATED_UNIVERSAL_TIME_OFFSET(0,0,.BEHIND.);
#248=COORDINATED_UNIVERSAL_TIME_OFFSET(0,0,.BEHIND.);
#249=COORDINATED_UNIVERSAL_TIME_OFFSET(0,0,.BEHIND.);
#250=COORDINATED_UNIVERSAL_TIME_OFFSET(0,0,.BEHIND.);
#251=COORDINATED_UNIVERSAL_TIME_OFFSET(0,0,.BEHIND.);
#252=COORDINATED_UNIVERSAL_TIME_OFFSET(0,0,.BEHIND.);
#253=COORDINATED_UNIVERSAL_TIME_OFFSET(0,0,.BEHIND.);
#254=AXIS2_PLACEMENT_3D('',#329,#279,#280);
#255=AXIS2_PLACEMENT_3D('',#330,#281,#282);
#256=AXIS2_PLACEMENT_3D('',#331,#283,#284);
#257=AXIS2_PLACEMENT_3D('',#332,#285,#286);
#258=AXIS2_PLACEMENT_3D('',#333,#287,#288);
#259=AXIS2_PLACEMENT_3D('',#334,#289,#290);
#260=AXIS2_PLACEMENT_3D('',#335,#291,#292);
#261=AXIS2_PLACEMENT_3D('',#336,#293,#294);
#262=AXIS2_PLACEMENT_3D('',#337,#295,#296);
#263=AXIS2_PLACEMENT_3D('',#338,#297,#298);
#264=AXIS2_PLACEMENT_3D('',#339,#299,#300);
#265=AXIS2_PLACEMENT_3D('',#340,#301,#302);
#266=AXIS2_PLACEMENT_3D('',#341,#303,#304);
#267=AXIS2_PLACEMENT_3D('',#342,#305,#306);
#268=AXIS2_PLACEMENT_3D('',#343,#307,#308);
#269=AXIS2_PLACEMENT_3D('',#344,#309,#310);
#270=AXIS2_PLACEMENT_3D('',#345,#311,#312);
#271=AXIS2_PLACEMENT_3D('',#346,#313,#314);
#272=AXIS2_PLACEMENT_3D('',#347,#315,#316);
#273=AXIS2_PLACEMENT_3D('',#348,#317,#318);
#274=AXIS2_PLACEMENT_3D('',#349,#319,#320);
#275=AXIS2_PLACEMENT_3D('',#350,#321,#322);
#276=AXIS2_PLACEMENT_3D('',#351,#323,#324);
#277=AXIS2_PLACEMENT_3D('',#352,#325,#326);
#278=AXIS2_PLACEMENT_3D('',#353,#327,#328);
#279=DIRECTION('axis',(0.,0.,1.));
#280=DIRECTION('refdir',(1.,0.,0.));
#281=DIRECTION('axis',(0.,0.,1.));
#282=DIRECTION('refdir',(1.,0.,0.));
#283=DIRECTION('axis',(0.,0.,1.));
#284=DIRECTION('refdir',(1.,0.,0.));
#285=DIRECTION('axis',(0.,0.,1.));
#286=DIRECTION('refdir',(1.,0.,0.));
#287=DIRECTION('axis',(0.,0.,1.));
#288=DIRECTION('refdir',(1.,0.,0.));
#289=DIRECTION('axis',(0.,0.,1.));
#290=DIRECTION('refdir',(1.,0.,0.));
#291=DIRECTION('axis',(0.,0.,1.));
#292=DIRECTION('refdir',(1.,0.,0.));
#293=DIRECTION('axis',(0.,0.,1.));
#294=DIRECTION('refdir',(1.,0.,0.));
#295=DIRECTION('axis',(0.,0.,1.));
#296=DIRECTION('refdir',(1.,0.,0.));
#297=DIRECTION('axis',(0.,0.,1.));
#298=DIRECTION('refdir',(1.,0.,0.));
#299=DIRECTION('axis',(0.,0.,1.));
#300=DIRECTION('refdir',(1.,0.,0.));
#301=DIRECTION('',(-0.039207807804042,0.999231078283298,8.87076653452445E-10));
#302=DIRECTION('',(-0.907699302217225,-0.0356162855497305,-0.418106992237637));
#303=DIRECTION('',(0.0690619988028503,0.00270981115676723,-0.997608689439326));
#304=DIRECTION('',(0.0392078758977478,-0.999231075611435,4.68735213260223E-8));
#305=DIRECTION('',(-0.0633589579094562,-0.000447087391949041,0.997990702644815));
#306=DIRECTION('',(0.99205625882998,-0.108920915291295,0.0629334055043076));
#307=DIRECTION('',(0.0690620247758845,0.002709811520149,-0.997608687640289));
#308=DIRECTION('',(-0.969091644632865,-0.237220846794388,-0.0677322238592659));
#309=DIRECTION('',(-0.0690619988028504,-0.00270981115676554,0.997608689439326));
#310=DIRECTION('',(0.996364193133322,-0.0501947980925784,0.0688395009150233));
#311=DIRECTION('',(-0.0691939119948431,-0.00250427685036052,0.997600085776012));
#312=DIRECTION('',(0.992934260643732,-0.0968083249256237,0.0686272705633921));
#313=DIRECTION('',(-0.0690619988028505,-0.00270981115676481,0.997608689439326));
#314=DIRECTION('',(-0.0392078758977338,0.999231075611435,-4.68735227834954E-8));
#315=DIRECTION('',(-1.11388713227385E-9,1.32758381210126E-9,1.));
#316=DIRECTION('',(0.0392078148678477,-0.999231078006128,1.3702360841753E-9));
#317=DIRECTION('',(0.,0.,1.));
#318=DIRECTION('',(1.,0.,0.));
#319=DIRECTION('',(0.,-1.,-3.74939945665464E-33));
#320=DIRECTION('',(1.,2.29584502165847E-49,-6.12323399573677E-17));
#321=DIRECTION('',(-0.41778550065981,-0.0163930593983798,0.90839778899004));
#322=DIRECTION('',(-0.907699302217223,-0.03561628554973,-0.418106992237641));
#323=DIRECTION('',(-0.999231078006128,-0.0392078148678437,-1.0609789388999E-9));
#324=DIRECTION('',(-1.11388709157229E-9,1.32758381369746E-9,1.));
#325=DIRECTION('',(0.996841603660753,0.039114120927231,0.0691151412871844));
#326=DIRECTION('',(0.0392078758977477,-0.999231075611435,4.68735228844504E-8));
#327=DIRECTION('center_axis',(0.,0.,1.));
#328=DIRECTION('ref_axis',(1.,0.,0.));
#329=CARTESIAN_POINT('',(0.,0.,0.));
#330=CARTESIAN_POINT('',(0.,0.,0.));
#331=CARTESIAN_POINT('',(0.,0.,0.));
#332=CARTESIAN_POINT('',(0.,0.,0.));
#333=CARTESIAN_POINT('',(0.,0.,0.));
#334=CARTESIAN_POINT('',(0.,0.,0.));
#335=CARTESIAN_POINT('',(0.,0.,0.));
#336=CARTESIAN_POINT('',(0.,0.,0.));
#337=CARTESIAN_POINT('',(0.,0.,0.));
#338=CARTESIAN_POINT('',(0.,0.,0.));
#339=CARTESIAN_POINT('',(0.,0.,0.));
#340=CARTESIAN_POINT('',(301.78108711238,347.672632564115,150.706394423199));
#341=CARTESIAN_POINT('',(260.272137519361,332.133207397439,170.588739935326));
#342=CARTESIAN_POINT('',(163.927799305827,314.091235623606,137.452401036181));
#343=CARTESIAN_POINT('',(282.016866258997,361.347189489097,148.717339753786));
#344=CARTESIAN_POINT('',(200.636454409918,326.411336779565,144.691748780729));
#345=CARTESIAN_POINT('',(203.611170462104,337.901725276622,144.924213369228));
#346=CARTESIAN_POINT('',(232.87859554812,383.34854463847,150.387364780828));
#347=CARTESIAN_POINT('',(311.211447201469,329.628502206329,96.8208697420347));
#348=CARTESIAN_POINT('',(310.961444839351,329.128502608232,72.3208699157731));
#349=CARTESIAN_POINT('',(311.211444929462,324.128503058787,74.3208698857361));
#350=CARTESIAN_POINT('',(291.065749622276,364.365343797521,171.949215202774));
#351=CARTESIAN_POINT('',(311.607446125094,319.536267862772,119.820869785932));
#352=CARTESIAN_POINT('',(236.503946086184,330.950397678414,174.052339415217));
#353=CARTESIAN_POINT('Origin',(0.,0.,0.));
#354=UNCERTAINTY_MEASURE_WITH_UNIT(LENGTH_MEASURE(0.000393700787401575),
#380,'DISTANCE_ACCURACY_VALUE',
'Maximum model space distance between geometric entities at asserted c
onnectivities');
#355=UNCERTAINTY_MEASURE_WITH_UNIT(LENGTH_MEASURE(0.000393700787401575),
#380,'DISTANCE_ACCURACY_VALUE',
'Maximum model space distance between geometric entities at asserted c
onnectivities');
#356=UNCERTAINTY_MEASURE_WITH_UNIT(LENGTH_MEASURE(0.000393700787401575),
#380,'DISTANCE_ACCURACY_VALUE',
'Maximum model space distance between geometric entities at asserted c
onnectivities');
#357=UNCERTAINTY_MEASURE_WITH_UNIT(LENGTH_MEASURE(0.000393700787401575),
#380,'DISTANCE_ACCURACY_VALUE',
'Maximum model space distance between geometric entities at asserted c
onnectivities');
#358=UNCERTAINTY_MEASURE_WITH_UNIT(LENGTH_MEASURE(0.000393700787401575),
#380,'DISTANCE_ACCURACY_VALUE',
'Maximum model space distance between geometric entities at asserted c
onnectivities');
#359=UNCERTAINTY_MEASURE_WITH_UNIT(LENGTH_MEASURE(0.000393700787401575),
#380,'DISTANCE_ACCURACY_VALUE',
'Maximum model space distance between geometric entities at asserted c
onnectivities');
#360=UNCERTAINTY_MEASURE_WITH_UNIT(LENGTH_MEASURE(0.000393700787401575),
#380,'DISTANCE_ACCURACY_VALUE',
'Maximum model space distance between geometric entities at asserted c
onnectivities');
#361=UNCERTAINTY_MEASURE_WITH_UNIT(LENGTH_MEASURE(0.000393700787401575),
#380,'DISTANCE_ACCURACY_VALUE',
'Maximum model space distance between geometric entities at asserted c
onnectivities');
#362=UNCERTAINTY_MEASURE_WITH_UNIT(LENGTH_MEASURE(0.000393700787401575),
#380,'DISTANCE_ACCURACY_VALUE',
'Maximum model space distance between geometric entities at asserted c
onnectivities');
#363=UNCERTAINTY_MEASURE_WITH_UNIT(LENGTH_MEASURE(0.000393700787401575),
#380,'DISTANCE_ACCURACY_VALUE',
'Maximum model space distance between geometric entities at asserted c
onnectivities');
#364=UNCERTAINTY_MEASURE_WITH_UNIT(LENGTH_MEASURE(0.000393700787401575),
#380,'DISTANCE_ACCURACY_VALUE',
'Maximum model space distance between geometric entities at asserted c
onnectivities');
#365=UNCERTAINTY_MEASURE_WITH_UNIT(LENGTH_MEASURE(0.000393700787401575),
#380,'DISTANCE_ACCURACY_VALUE',
'Maximum model space distance between geometric entities at asserted c
onnectivities');
#366=(
GEOMETRIC_REPRESENTATION_CONTEXT(3)
GLOBAL_UNCERTAINTY_ASSIGNED_CONTEXT((#354))
GLOBAL_UNIT_ASSIGNED_CONTEXT((#380,#384,#385))
REPRESENTATION_CONTEXT('','3D')
);
#367=(
GEOMETRIC_REPRESENTATION_CONTEXT(3)
GLOBAL_UNCERTAINTY_ASSIGNED_CONTEXT((#355))
GLOBAL_UNIT_ASSIGNED_CONTEXT((#380,#384,#385))
REPRESENTATION_CONTEXT('','3D')
);
#368=(
GEOMETRIC_REPRESENTATION_CONTEXT(3)
GLOBAL_UNCERTAINTY_ASSIGNED_CONTEXT((#356))
GLOBAL_UNIT_ASSIGNED_CONTEXT((#380,#384,#385))
REPRESENTATION_CONTEXT('','3D')
);
#369=(
GEOMETRIC_REPRESENTATION_CONTEXT(3)
GLOBAL_UNCERTAINTY_ASSIGNED_CONTEXT((#357))
GLOBAL_UNIT_ASSIGNED_CONTEXT((#380,#384,#385))
REPRESENTATION_CONTEXT('','3D')
);
#370=(
GEOMETRIC_REPRESENTATION_CONTEXT(3)
GLOBAL_UNCERTAINTY_ASSIGNED_CONTEXT((#358))
GLOBAL_UNIT_ASSIGNED_CONTEXT((#380,#384,#385))
REPRESENTATION_CONTEXT('','3D')
);
#371=(
GEOMETRIC_REPRESENTATION_CONTEXT(3)
GLOBAL_UNCERTAINTY_ASSIGNED_CONTEXT((#359))
GLOBAL_UNIT_ASSIGNED_CONTEXT((#380,#384,#385))
REPRESENTATION_CONTEXT('','3D')
);
#372=(
GEOMETRIC_REPRESENTATION_CONTEXT(3)
GLOBAL_UNCERTAINTY_ASSIGNED_CONTEXT((#360))
GLOBAL_UNIT_ASSIGNED_CONTEXT((#380,#384,#385))
REPRESENTATION_CONTEXT('','3D')
);
#373=(
GEOMETRIC_REPRESENTATION_CONTEXT(3)
GLOBAL_UNCERTAINTY_ASSIGNED_CONTEXT((#361))
GLOBAL_UNIT_ASSIGNED_CONTEXT((#380,#384,#385))
REPRESENTATION_CONTEXT('','3D')
);
#374=(
GEOMETRIC_REPRESENTATION_CONTEXT(3)
GLOBAL_UNCERTAINTY_ASSIGNED_CONTEXT((#362))
GLOBAL_UNIT_ASSIGNED_CONTEXT((#380,#384,#385))
REPRESENTATION_CONTEXT('','3D')
);
#375=(
GEOMETRIC_REPRESENTATION_CONTEXT(3)
GLOBAL_UNCERTAINTY_ASSIGNED_CONTEXT((#363))
GLOBAL_UNIT_ASSIGNED_CONTEXT((#380,#384,#385))
REPRESENTATION_CONTEXT('','3D')
);
#376=(
GEOMETRIC_REPRESENTATION_CONTEXT(3)
GLOBAL_UNCERTAINTY_ASSIGNED_CONTEXT((#364))
GLOBAL_UNIT_ASSIGNED_CONTEXT((#380,#384,#385))
REPRESENTATION_CONTEXT('','3D')
);
#377=(
GEOMETRIC_REPRESENTATION_CONTEXT(3)
GLOBAL_UNCERTAINTY_ASSIGNED_CONTEXT((#365))
GLOBAL_UNIT_ASSIGNED_CONTEXT((#380,#384,#385))
REPRESENTATION_CONTEXT('','3D')
);
#378=DIMENSIONAL_EXPONENTS(1.,0.,0.,0.,0.,0.,0.);
#379=DIMENSIONAL_EXPONENTS(0.,1.,0.,0.,0.,0.,0.);
#380=(
CONVERSION_BASED_UNIT('inch',#383)
LENGTH_UNIT()
NAMED_UNIT(#378)
);
#381=(
LENGTH_UNIT()
NAMED_UNIT(*)
SI_UNIT(.MILLI.,.METRE.)
);
#382=(
LENGTH_UNIT()
NAMED_UNIT(*)
SI_UNIT(.CENTI.,.METRE.)
);
#383=LENGTH_MEASURE_WITH_UNIT(LENGTH_MEASURE(25.4),#381);
#384=(
NAMED_UNIT(*)
PLANE_ANGLE_UNIT()
SI_UNIT($,.RADIAN.)
);
#385=(
NAMED_UNIT(*)
SI_UNIT($,.STERADIAN.)
SOLID_ANGLE_UNIT()
);
#386=SHAPE_DEFINITION_REPRESENTATION(#397,#421);
#387=SHAPE_DEFINITION_REPRESENTATION(#398,#422);
#388=SHAPE_DEFINITION_REPRESENTATION(#399,#423);
#389=SHAPE_DEFINITION_REPRESENTATION(#400,#424);
#390=SHAPE_DEFINITION_REPRESENTATION(#401,#425);
#391=SHAPE_DEFINITION_REPRESENTATION(#402,#426);
#392=SHAPE_DEFINITION_REPRESENTATION(#403,#427);
#393=SHAPE_DEFINITION_REPRESENTATION(#404,#428);
#394=SHAPE_DEFINITION_REPRESENTATION(#405,#429);
#395=SHAPE_DEFINITION_REPRESENTATION(#406,#430);
#396=SHAPE_DEFINITION_REPRESENTATION(#407,#431);
#397=PRODUCT_DEFINITION_SHAPE('',$,#433);
#398=PRODUCT_DEFINITION_SHAPE('',$,#434);
#399=PRODUCT_DEFINITION_SHAPE('',$,#435);
#400=PRODUCT_DEFINITION_SHAPE('',$,#436);
#401=PRODUCT_DEFINITION_SHAPE('',$,#437);
#402=PRODUCT_DEFINITION_SHAPE('',$,#438);
#403=PRODUCT_DEFINITION_SHAPE('',$,#439);
#404=PRODUCT_DEFINITION_SHAPE('',$,#440);
#405=PRODUCT_DEFINITION_SHAPE('',$,#441);
#406=PRODUCT_DEFINITION_SHAPE('',$,#442);
#407=PRODUCT_DEFINITION_SHAPE('',$,#443);
#408=PRODUCT_DEFINITION_SHAPE($,$,#62);
#409=PRODUCT_DEFINITION_SHAPE($,$,#63);
#410=PRODUCT_DEFINITION_SHAPE($,$,#64);
#411=PRODUCT_DEFINITION_SHAPE($,$,#65);
#412=PRODUCT_DEFINITION_SHAPE($,$,#66);
#413=PRODUCT_DEFINITION_SHAPE($,$,#67);
#414=PRODUCT_DEFINITION_SHAPE($,$,#68);
#415=PRODUCT_DEFINITION_SHAPE($,$,#69);
#416=PRODUCT_DEFINITION_SHAPE($,$,#70);
#417=PRODUCT_DEFINITION_SHAPE($,$,#71);
#418=PRODUCT_DEFINITION_SHAPE($,$,#72);
#419=PRODUCT_DEFINITION_SHAPE($,$,#73);
#420=PRODUCT_DEFINITION_SHAPE($,$,#74);
#421=SHAPE_REPRESENTATION('',(#254,#265,#266,#267,#268,#269,#270,#271,#272,
#273,#274,#275,#276,#277),#366);
#422=SHAPE_REPRESENTATION('',(#255),#367);
#423=SHAPE_REPRESENTATION('',(#256),#368);
#424=SHAPE_REPRESENTATION('',(#257),#369);
#425=SHAPE_REPRESENTATION('',(#258),#370);
#426=SHAPE_REPRESENTATION('',(#259),#371);
#427=SHAPE_REPRESENTATION('',(#260),#372);
#428=SHAPE_REPRESENTATION('',(#261),#373);
#429=SHAPE_REPRESENTATION('',(#262),#374);
#430=SHAPE_REPRESENTATION('',(#263),#375);
#431=SHAPE_REPRESENTATION('',(#264),#376);
#432=PRODUCT_DEFINITION_CONTEXT('part definition',#467,'design');
#433=PRODUCT_DEFINITION('Assembly_PLA','Assembly_PLA',#444,#432);
#434=PRODUCT_DEFINITION('Brazo 1 v1','Brazo 1 v1',#445,#432);
#435=PRODUCT_DEFINITION('Brazo 2 v1_FINAL_FInal',
'Brazo 2 v1_FINAL_FInal',#446,#432);
#436=PRODUCT_DEFINITION('Pi\X\F1on pinza 1 v1','Pi\X\F1on pinza 1 v1',#447,
#432);
#437=PRODUCT_DEFINITION('Pi\X\F1on Servo v1','Pi\X\F1on Servo v1',#448,
#432);
#438=PRODUCT_DEFINITION('Pinza derecha v1','Pinza derecha v1',#449,#432);
#439=PRODUCT_DEFINITION('Pinza izquierda v1_MIR_MIR3',
'Pinza izquierda v1_MIR_MIR3',#450,#432);
#440=PRODUCT_DEFINITION('Soporte Pinza v1','Soporte Pinza v1',#451,#432);
#441=PRODUCT_DEFINITION('Tapa v2','Tapa v2',#452,#432);
#442=PRODUCT_DEFINITION('Base 2 v2','Base 2 v2',#453,#432);
#443=PRODUCT_DEFINITION('SERVO_SG90_mm','SERVO_SG90_mm',#454,#432);
#444=PRODUCT_DEFINITION_FORMATION('',$,#469);
#445=PRODUCT_DEFINITION_FORMATION('',$,#470);
#446=PRODUCT_DEFINITION_FORMATION('',$,#471);
#447=PRODUCT_DEFINITION_FORMATION('',$,#472);
#448=PRODUCT_DEFINITION_FORMATION('',$,#473);
#449=PRODUCT_DEFINITION_FORMATION('',$,#474);
#450=PRODUCT_DEFINITION_FORMATION('',$,#475);
#451=PRODUCT_DEFINITION_FORMATION('',$,#476);
#452=PRODUCT_DEFINITION_FORMATION('',$,#477);
#453=PRODUCT_DEFINITION_FORMATION('',$,#478);
#454=PRODUCT_DEFINITION_FORMATION('',$,#479);
#455=PRODUCT_RELATED_PRODUCT_CATEGORY('Assembly_PLA','Assembly_PLA',(#469));
#456=PRODUCT_RELATED_PRODUCT_CATEGORY('Brazo 1 v1','Brazo 1 v1',(#470));
#457=PRODUCT_RELATED_PRODUCT_CATEGORY('Brazo 2 v1_FINAL_FInal',
'Brazo 2 v1_FINAL_FInal',(#471));
#458=PRODUCT_RELATED_PRODUCT_CATEGORY('Pi\X\F1on pinza 1 v1',
'Pi\X\F1on pinza 1 v1',(#472));
#459=PRODUCT_RELATED_PRODUCT_CATEGORY('Pi\X\F1on Servo v1',
'Pi\X\F1on Servo v1',(#473));
#460=PRODUCT_RELATED_PRODUCT_CATEGORY('Pinza derecha v1',
'Pinza derecha v1',(#474));
#461=PRODUCT_RELATED_PRODUCT_CATEGORY('Pinza izquierda v1_MIR_MIR3',
'Pinza izquierda v1_MIR_MIR3',(#475));
#462=PRODUCT_RELATED_PRODUCT_CATEGORY('Soporte Pinza v1',
'Soporte Pinza v1',(#476));
#463=PRODUCT_RELATED_PRODUCT_CATEGORY('Tapa v2','Tapa v2',(#477));
#464=PRODUCT_RELATED_PRODUCT_CATEGORY('Base 2 v2','Base 2 v2',(#478));
#465=PRODUCT_RELATED_PRODUCT_CATEGORY('SERVO_SG90_mm','SERVO_SG90_mm',(#479));
#466=APPLICATION_PROTOCOL_DEFINITION('international standard',
'automotive_design',2009,#467);
#467=APPLICATION_CONTEXT(
'Core Data for Automotive Mechanical Design Process');
#468=PRODUCT_CONTEXT('part definition',#467,'mechanical');
#469=PRODUCT('Assembly_PLA','Assembly_PLA',$,(#468));
#470=PRODUCT('Brazo 1 v1','Brazo 1 v1',$,(#468));
#471=PRODUCT('Brazo 2 v1_FINAL_FInal','Brazo 2 v1_FINAL_FInal',$,(#468));
#472=PRODUCT('Pi\X\F1on pinza 1 v1','Pi\X\F1on pinza 1 v1',$,(#468));
#473=PRODUCT('Pi\X\F1on Servo v1','Pi\X\F1on Servo v1',$,(#468));
#474=PRODUCT('Pinza derecha v1','Pinza derecha v1',$,(#468));
#475=PRODUCT('Pinza izquierda v1_MIR_MIR3',
'Pinza izquierda v1_MIR_MIR3',$,(#468));
#476=PRODUCT('Soporte Pinza v1','Soporte Pinza v1',$,(#468));
#477=PRODUCT('Tapa v2','Tapa v2',$,(#468));
#478=PRODUCT('Base 2 v2','Base 2 v2',$,(#468));
#479=PRODUCT('SERVO_SG90_mm','SERVO_SG90_mm',$,(#468));
#480=PRESENTATION_STYLE_ASSIGNMENT((#501));
#481=PRESENTATION_STYLE_ASSIGNMENT((#502));
#482=PRESENTATION_STYLE_ASSIGNMENT((#503));
#483=PRESENTATION_STYLE_ASSIGNMENT((#504));
#484=PRESENTATION_STYLE_ASSIGNMENT((#505));
#485=PRESENTATION_STYLE_ASSIGNMENT((#506));
#486=PRESENTATION_STYLE_ASSIGNMENT((#507));
#487=PRESENTATION_STYLE_ASSIGNMENT((#508));
#488=PRESENTATION_STYLE_ASSIGNMENT((#509));
#489=PRESENTATION_STYLE_ASSIGNMENT((#510));
#490=PRESENTATION_STYLE_ASSIGNMENT((#511));
#491=PRESENTATION_STYLE_ASSIGNMENT((#512));
#492=PRESENTATION_STYLE_ASSIGNMENT((#513));
#493=PRESENTATION_STYLE_ASSIGNMENT((#514));
#494=PRESENTATION_STYLE_ASSIGNMENT((#515));
#495=PRESENTATION_STYLE_ASSIGNMENT((#516));
#496=PRESENTATION_STYLE_ASSIGNMENT((#517));
#497=PRESENTATION_STYLE_ASSIGNMENT((#518));
#498=PRESENTATION_STYLE_ASSIGNMENT((#519));
#499=PRESENTATION_STYLE_ASSIGNMENT((#520));
#500=PRESENTATION_STYLE_ASSIGNMENT((NULL_STYLE(.NULL.)));
#501=SURFACE_STYLE_USAGE(.BOTH.,#545);
#502=SURFACE_STYLE_USAGE(.BOTH.,#546);
#503=SURFACE_STYLE_USAGE(.BOTH.,#547);
#504=SURFACE_STYLE_USAGE(.BOTH.,#548);
#505=SURFACE_STYLE_USAGE(.BOTH.,#549);
#506=SURFACE_STYLE_USAGE(.BOTH.,#550);
#507=SURFACE_STYLE_USAGE(.BOTH.,#551);
#508=SURFACE_STYLE_USAGE(.BOTH.,#552);
#509=SURFACE_STYLE_USAGE(.BOTH.,#553);
#510=SURFACE_STYLE_USAGE(.BOTH.,#554);
#511=SURFACE_STYLE_USAGE(.BOTH.,#555);
#512=SURFACE_STYLE_USAGE(.BOTH.,#556);
#513=SURFACE_STYLE_USAGE(.BOTH.,#557);
#514=SURFACE_STYLE_USAGE(.BOTH.,#558);
#515=SURFACE_STYLE_USAGE(.BOTH.,#559);
#516=SURFACE_STYLE_USAGE(.BOTH.,#560);
#517=SURFACE_STYLE_USAGE(.BOTH.,#561);
#518=SURFACE_STYLE_USAGE(.BOTH.,#562);
#519=SURFACE_STYLE_USAGE(.BOTH.,#563);
#520=SURFACE_STYLE_USAGE(.BOTH.,#564);
#521=SURFACE_STYLE_RENDERING_WITH_PROPERTIES($,#625,(#533));
#522=SURFACE_STYLE_RENDERING_WITH_PROPERTIES($,#626,(#534));
#523=SURFACE_STYLE_RENDERING_WITH_PROPERTIES($,#627,(#535));
#524=SURFACE_STYLE_RENDERING_WITH_PROPERTIES($,#628,(#536));
#525=SURFACE_STYLE_RENDERING_WITH_PROPERTIES($,#629,(#537));
#526=SURFACE_STYLE_RENDERING_WITH_PROPERTIES($,#630,(#538));
#527=SURFACE_STYLE_RENDERING_WITH_PROPERTIES($,#631,(#539));
#528=SURFACE_STYLE_RENDERING_WITH_PROPERTIES($,#632,(#540));
#529=SURFACE_STYLE_RENDERING_WITH_PROPERTIES($,#633,(#541));
#530=SURFACE_STYLE_RENDERING_WITH_PROPERTIES($,#636,(#542));
#531=SURFACE_STYLE_RENDERING_WITH_PROPERTIES($,#637,(#543));
#532=SURFACE_STYLE_RENDERING_WITH_PROPERTIES($,#638,(#544));
#533=SURFACE_STYLE_TRANSPARENT(0.);
#534=SURFACE_STYLE_TRANSPARENT(0.);
#535=SURFACE_STYLE_TRANSPARENT(0.);
#536=SURFACE_STYLE_TRANSPARENT(0.);
#537=SURFACE_STYLE_TRANSPARENT(0.);
#538=SURFACE_STYLE_TRANSPARENT(0.);
#539=SURFACE_STYLE_TRANSPARENT(0.);
#540=SURFACE_STYLE_TRANSPARENT(0.);
#541=SURFACE_STYLE_TRANSPARENT(0.);
#542=SURFACE_STYLE_TRANSPARENT(0.);
#543=SURFACE_STYLE_TRANSPARENT(0.);
#544=SURFACE_STYLE_TRANSPARENT(0.);
#545=SURFACE_SIDE_STYLE('',(#565,#521));
#546=SURFACE_SIDE_STYLE('',(#566,#522));
#547=SURFACE_SIDE_STYLE('',(#567,#523));
#548=SURFACE_SIDE_STYLE('',(#568,#524));
#549=SURFACE_SIDE_STYLE('',(#569,#525));
#550=SURFACE_SIDE_STYLE('',(#570,#526));
#551=SURFACE_SIDE_STYLE('',(#571,#527));
#552=SURFACE_SIDE_STYLE('',(#572,#528));
#553=SURFACE_SIDE_STYLE('',(#573,#529));
#554=SURFACE_SIDE_STYLE('',(#574));
#555=SURFACE_SIDE_STYLE('',(#575));
#556=SURFACE_SIDE_STYLE('',(#576,#530));
#557=SURFACE_SIDE_STYLE('',(#577,#531));
#558=SURFACE_SIDE_STYLE('',(#578,#532));
#559=SURFACE_SIDE_STYLE('',(#579));
#560=SURFACE_SIDE_STYLE('',(#580));
#561=SURFACE_SIDE_STYLE('',(#581));
#562=SURFACE_SIDE_STYLE('',(#582));
#563=SURFACE_SIDE_STYLE('',(#583));
#564=SURFACE_SIDE_STYLE('',(#584));
#565=SURFACE_STYLE_FILL_AREA(#585);
#566=SURFACE_STYLE_FILL_AREA(#586);
#567=SURFACE_STYLE_FILL_AREA(#587);
#568=SURFACE_STYLE_FILL_AREA(#588);
#569=SURFACE_STYLE_FILL_AREA(#589);
#570=SURFACE_STYLE_FILL_AREA(#590);
#571=SURFACE_STYLE_FILL_AREA(#591);
#572=SURFACE_STYLE_FILL_AREA(#592);
#573=SURFACE_STYLE_FILL_AREA(#593);
#574=SURFACE_STYLE_FILL_AREA(#594);
#575=SURFACE_STYLE_FILL_AREA(#595);
#576=SURFACE_STYLE_FILL_AREA(#596);
#577=SURFACE_STYLE_FILL_AREA(#597);
#578=SURFACE_STYLE_FILL_AREA(#598);
#579=SURFACE_STYLE_FILL_AREA(#599);
#580=SURFACE_STYLE_FILL_AREA(#600);
#581=SURFACE_STYLE_FILL_AREA(#601);
#582=SURFACE_STYLE_FILL_AREA(#602);
#583=SURFACE_STYLE_FILL_AREA(#603);
#584=SURFACE_STYLE_FILL_AREA(#604);
#585=FILL_AREA_STYLE('',(#605));
#586=FILL_AREA_STYLE('',(#606));
#587=FILL_AREA_STYLE('',(#607));
#588=FILL_AREA_STYLE('',(#608));
#589=FILL_AREA_STYLE('',(#609));
#590=FILL_AREA_STYLE('',(#610));
#591=FILL_AREA_STYLE('',(#611));
#592=FILL_AREA_STYLE('',(#612));
#593=FILL_AREA_STYLE('',(#613));
#594=FILL_AREA_STYLE('',(#614));
#595=FILL_AREA_STYLE('',(#615));
#596=FILL_AREA_STYLE('',(#616));
#597=FILL_AREA_STYLE('',(#617));
#598=FILL_AREA_STYLE('',(#618));
#599=FILL_AREA_STYLE('',(#619));
#600=FILL_AREA_STYLE('',(#620));
#601=FILL_AREA_STYLE('',(#621));
#602=FILL_AREA_STYLE('',(#622));
#603=FILL_AREA_STYLE('',(#623));
#604=FILL_AREA_STYLE('',(#624));
#605=FILL_AREA_STYLE_COLOUR('',#625);
#606=FILL_AREA_STYLE_COLOUR('',#626);
#607=FILL_AREA_STYLE_COLOUR('',#627);
#608=FILL_AREA_STYLE_COLOUR('',#628);
#609=FILL_AREA_STYLE_COLOUR('',#629);
#610=FILL_AREA_STYLE_COLOUR('',#630);
#611=FILL_AREA_STYLE_COLOUR('',#631);
#612=FILL_AREA_STYLE_COLOUR('',#632);
#613=FILL_AREA_STYLE_COLOUR('',#633);
#614=FILL_AREA_STYLE_COLOUR('',#634);
#615=FILL_AREA_STYLE_COLOUR('',#635);
#616=FILL_AREA_STYLE_COLOUR('',#636);
#617=FILL_AREA_STYLE_COLOUR('',#637);
#618=FILL_AREA_STYLE_COLOUR('',#638);
#619=FILL_AREA_STYLE_COLOUR('',#639);
#620=FILL_AREA_STYLE_COLOUR('',#640);
#621=FILL_AREA_STYLE_COLOUR('',#641);
#622=FILL_AREA_STYLE_COLOUR('',#642);
#623=FILL_AREA_STYLE_COLOUR('',#643);
#624=FILL_AREA_STYLE_COLOUR('',#644);
#625=COLOUR_RGB('',0.701960784313725,0.552941176470588,0.00392156862745098);
#626=COLOUR_RGB('',0.0941176470588235,0.145098039215686,0.972549019607843);
#627=COLOUR_RGB('',0.,0.,0.);
#628=COLOUR_RGB('',0.749019607843137,0.749019607843137,0.749019607843137);
#629=COLOUR_RGB('',0.611764705882353,0.611764705882353,0.611764705882353);
#630=COLOUR_RGB('',0.580392156862745,0.580392156862745,0.580392156862745);
#631=COLOUR_RGB('',0.,0.,0.);
#632=COLOUR_RGB('',0.,0.,0.);
#633=COLOUR_RGB('',0.,0.,0.);
#634=COLOUR_RGB('',0.741176470588235,0.741176470588235,0.741176470588235);
#635=COLOUR_RGB('',0.,0.,0.);
#636=COLOUR_RGB('',0.,0.,0.);
#637=COLOUR_RGB('',0.611764705882353,0.611764705882353,0.611764705882353);
#638=COLOUR_RGB('',0.611764705882353,0.611764705882353,0.611764705882353);
#639=COLOUR_RGB('',0.705882352941177,0.290196078431373,0.);
#640=COLOUR_RGB('',1.,1.,1.);
#641=COLOUR_RGB('',0.901960784313726,0.901960784313726,0.901960784313726);
#642=COLOUR_RGB('',0.674509803921569,0.0627450980392157,0.0627450980392157);
#643=COLOUR_RGB('',0.450980392156863,0.290196078431373,0.192156862745098);
#644=COLOUR_RGB('',0.0941176470588235,0.192156862745098,0.643137254901961);
ENDSEC;
END-ISO-10303-21;
