  0
SECTION
  2
HEADER
  9
$ACADVER
  1
AC1015
  9
$ACADMAINTVER
 70
6
  9
$DWGCODEPAGE
  3
ANSI_1252
  9
$INSBASE
 10
0.0
 20
0.0
 30
0.0
  9
$EXTMIN
 10
1e+20
 20
1e+20
 30
1e+20
  9
$EXTMAX
 10
-1e+20
 20
-1e+20
 30
-1e+20
  9
$LIMMIN
 10
0.0
 20
0.0
  9
$LIMMAX
 10
420.0
 20
297.0
  9
$ORTHOMODE
 70
0
  9
$REGENMODE
 70
1
  9
$FILLMODE
 70
1
  9
$QTEXTMODE
 70
0
  9
$MIRRTEXT
 70
1
  9
$LTSCALE
 40
1.0
  9
$ATTMODE
 70
1
  9
$TEXTSIZE
 40
2.5
  9
$TRACEWID
 40
1.0
  9
$TEXTSTYLE
  7
Standard
  9
$CLAYER
  8
0
  9
$CELTYPE
  6
ByLayer
  9
$CECOLOR
 62
256
  9
$CELTSCALE
 40
1.0
  9
$DISPSILH
 70
0
  9
$DIMSCALE
 40
1.0
  9
$DIMASZ
 40
2.5
  9
$DIMEXO
 40
0.625
  9
$DIMDLI
 40
3.75
  9
$DIMRND
 40
0.0
  9
$DIMDLE
 40
0.0
  9
$DIMEXE
 40
1.25
  9
$DIMTP
 40
0.0
  9
$DIMTM
 40
0.0
  9
$DIMTXT
 40
2.5
  9
$DIMCEN
 40
2.5
  9
$DIMTSZ
 40
0.0
  9
$DIMTOL
 70
0
  9
$DIMLIM
 70
0
  9
$DIMTIH
 70
0
  9
$DIMTOH
 70
0
  9
$DIMSE1
 70
0
  9
$DIMSE2
 70
0
  9
$DIMTAD
 70
1
  9
$DIMZIN
 70
8
  9
$DIMBLK
  1

  9
$DIMASO
 70
1
  9
$DIMSHO
 70
1
  9
$DIMPOST
  1

  9
$DIMAPOST
  1

  9
$DIMALT
 70
0
  9
$DIMALTD
 70
3
  9
$DIMALTF
 40
0.03937007874
  9
$DIMLFAC
 40
1.0
  9
$DIMTOFL
 70
1
  9
$DIMTVP
 40
0.0
  9
$DIMTIX
 70
0
  9
$DIMSOXD
 70
0
  9
$DIMSAH
 70
0
  9
$DIMBLK1
  1

  9
$DIMBLK2
  1

  9
$DIMSTYLE
  2
ISO-25
  9
$DIMCLRD
 70
0
  9
$DIMCLRE
 70
0
  9
$DIMCLRT
 70
0
  9
$DIMTFAC
 40
1.0
  9
$DIMGAP
 40
0.625
  9
$DIMJUST
 70
0
  9
$DIMSD1
 70
0
  9
$DIMSD2
 70
0
  9
$DIMTOLJ
 70
0
  9
$DIMTZIN
 70
8
  9
$DIMALTZ
 70
0
  9
$DIMALTTZ
 70
0
  9
$DIMUPT
 70
0
  9
$DIMDEC
 70
2
  9
$DIMTDEC
 70
2
  9
$DIMALTU
 70
2
  9
$DIMALTTD
 70
3
  9
$DIMTXSTY
  7
Standard
  9
$DIMAUNIT
 70
0
  9
$DIMADEC
 70
0
  9
$DIMALTRND
 40
0.0
  9
$DIMAZIN
 70
0
  9
$DIMDSEP
 70
44
  9
$DIMATFIT
 70
3
  9
$DIMFRAC
 70
0
  9
$DIMLDRBLK
  1

  9
$DIMLUNIT
 70
2
  9
$DIMLWD
 70
-2
  9
$DIMLWE
 70
-2
  9
$DIMTMOVE
 70
0
  9
$LUNITS
 70
2
  9
$LUPREC
 70
4
  9
$SKETCHINC
 40
1.0
  9
$FILLETRAD
 40
10.0
  9
$AUNITS
 70
0
  9
$AUPREC
 70
2
  9
$MENU
  1
.
  9
$ELEVATION
 40
0.0
  9
$PELEVATION
 40
0.0
  9
$THICKNESS
 40
0.0
  9
$LIMCHECK
 70
0
  9
$CHAMFERA
 40
0.0
  9
$CHAMFERB
 40
0.0
  9
$CHAMFERC
 40
0.0
  9
$CHAMFERD
 40
0.0
  9
$SKPOLY
 70
0
  9
$TDCREATE
 40
2461320.705949074
  9
$TDUCREATE
 40
2458532.153996898
  9
$TDUPDATE
 40
2461320.705949074
  9
$TDUUPDATE
 40
2458532.1544311
  9
$TDINDWG
 40
0.0
  9
$TDUSRTIMER
 40
0.0
  9
$USRTIMER
 70
1
  9
$ANGBASE
 50
0.0
  9
$ANGDIR
 70
0
  9
$PDMODE
 70
0
  9
$PDSIZE
 40
0.0
  9
$PLINEWID
 40
0.0
  9
$SPLFRAME
 70
0
  9
$SPLINETYPE
 70
6
  9
$SPLINESEGS
 70
8
  9
$HANDSEED
  5
36
  9
$SURFTAB1
 70
6
  9
$SURFTAB2
 70
6
  9
$SURFTYPE
 70
6
  9
$SURFU
 70
6
  9
$SURFV
 70
6
  9
$UCSBASE
  2

  9
$UCSNAME
  2

  9
$UCSORG
 10
0.0
 20
0.0
 30
0.0
  9
$UCSXDIR
 10
1.0
 20
0.0
 30
0.0
  9
$UCSYDIR
 10
0.0
 20
1.0
 30
0.0
  9
$UCSORTHOREF
  2

  9
$UCSORTHOVIEW
 70
0
  9
$UCSORGTOP
 10
0.0
 20
0.0
 30
0.0
  9
$UCSORGBOTTOM
 10
0.0
 20
0.0
 30
0.0
  9
$UCSORGLEFT
 10
0.0
 20
0.0
 30
0.0
  9
$UCSORGRIGHT
 10
0.0
 20
0.0
 30
0.0
  9
$UCSORGFRONT
 10
0.0
 20
0.0
 30
0.0
  9
$UCSORGBACK
 10
0.0
 20
0.0
 30
0.0
  9
$PUCSBASE
  2

  9
$PUCSNAME
  2

  9
$PUCSORG
 10
0.0
 20
0.0
 30
0.0
  9
$PUCSXDIR
 10
1.0
 20
0.0
 30
0.0
  9
$PUCSYDIR
 10
0.0
 20
1.0
 30
0.0
  9
$PUCSORTHOREF
  2

  9
$PUCSORTHOVIEW
 70
0
  9
$PUCSORGTOP
 10
0.0
 20
0.0
 30
0.0
  9
$PUCSORGBOTTOM
 10
0.0
 20
0.0
 30
0.0
  9
$PUCSORGLEFT
 10
0.0
 20
0.0
 30
0.0
  9
$PUCSORGRIGHT
 10
0.0
 20
0.0
 30
0.0
  9
$PUCSORGFRONT
 10
0.0
 20
0.0
 30
0.0
  9
$PUCSORGBACK
 10
0.0
 20
0.0
 30
0.0
  9
$USERI1
 70
0
  9
$USERI2
 70
0
  9
$USERI3
 70
0
  9
$USERI4
 70
0
  9
$USERI5
 70
0
  9
$USERR1
 40
0.0
  9
$USERR2
 40
0.0
  9
$USERR3
 40
0.0
  9
$USERR4
 40
0.0
  9
$USERR5
 40
0.0
  9
$WORLDVIEW
 70
1
  9
$SHADEDGE
 70
3
  9
$SHADEDIF
 70
70
  9
$TILEMODE
 70
1
  9
$MAXACTVP
 70
64
  9
$PINSBASE
 10
0.0
 20
0.0
 30
0.0
  9
$PLIMCHECK
 70
0
  9
$PEXTMIN
 10
1e+20
 20
1e+20
 30
1e+20
  9
$PEXTMAX
 10
-1e+20
 20
-1e+20
 30
-1e+20
  9
$PLIMMIN
 10
0.0
 20
0.0
  9
$PLIMMAX
 10
420.0
 20
297.0
  9
$UNITMODE
 70
0
  9
$VISRETAIN
 70
1
  9
$PLINEGEN
 70
0
  9
$PSLTSCALE
 70
1
  9
$TREEDEPTH
 70
3020
  9
$CMLSTYLE
  2
Standard
  9
$CMLJUST
 70
0
  9
$CMLSCALE
 40
20.0
  9
$PROXYGRAPHICS
 70
1
  9
$MEASUREMENT
 70
1
  9
$CELWEIGHT
370
-1
  9
$ENDCAPS
280
0
  9
$JOINSTYLE
280
0
  9
$LWDISPLAY
290
0
  9
$INSUNITS
 70
4
  9
$HYPERLINKBASE
  1

  9
$STYLESHEET
  1

  9
$XEDIT
290
1
  9
$CEPSNTYPE
380
0
  9
$PSTYLEMODE
290
1
  9
$FINGERPRINTGUID
  2
{6410AE0F-18CB-4207-897C-D61BDE2585B4}
  9
$VERSIONGUID
  2
{C28317C9-C043-4449-B210-82333D98818D}
  9
$EXTNAMES
290
1
  9
$PSVPSCALE
 40
0.0
  9
$OLESTARTUP
290
0
  0
ENDSEC
  0
SECTION
  2
CLASSES
  0
CLASS
  1
ACDBDICTIONARYWDFLT
  2
AcDbDictionaryWithDefault
  3
ObjectDBX Classes
 90
0
280
0
281
0
  0
CLASS
  1
SUN
  2
AcDbSun
  3
SCENEOE
 90
1153
280
0
281
0
  0
CLASS
  1
VISUALSTYLE
  2
AcDbVisualStyle
  3
ObjectDBX Classes
 90
4095
280
0
281
0
  0
CLASS
  1
MATERIAL
  2
AcDbMaterial
  3
ObjectDBX Classes
 90
1153
280
0
281
0
  0
CLASS
  1
SCALE
  2
AcDbScale
  3
ObjectDBX Classes
 90
1153
280
0
281
0
  0
CLASS
  1
TABLESTYLE
  2
AcDbTableStyle
  3
ObjectDBX Classes
 90
4095
280
0
281
0
  0
CLASS
  1
MLEADERSTYLE
  2
AcDbMLeaderStyle
  3
ACDB_MLEADERSTYLE_CLASS
 90
4095
280
0
281
0
  0
CLASS
  1
DICTIONARYVAR
  2
AcDbDictionaryVar
  3
ObjectDBX Classes
 90
0
280
0
281
0
  0
CLASS
  1
CELLSTYLEMAP
  2
AcDbCellStyleMap
  3
ObjectDBX Classes
 90
1152
280
0
281
0
  0
CLASS
  1
MENTALRAYRENDERSETTINGS
  2
AcDbMentalRayRenderSettings
  3
SCENEOE
 90
1024
280
0
281
0
  0
CLASS
  1
ACDBDETAILVIEWSTYLE
  2
AcDbDetailViewStyle
  3
ObjectDBX Classes
 90
1025
280
0
281
0
  0
CLASS
  1
ACDBSECTIONVIEWSTYLE
  2
AcDbSectionViewStyle
  3
ObjectDBX Classes
 90
1025
280
0
281
0
  0
CLASS
  1
RASTERVARIABLES
  2
AcDbRasterVariables
  3
ISM
 90
0
280
0
281
0
  0
CLASS
  1
ACDBPLACEHOLDER
  2
AcDbPlaceHolder
  3
ObjectDBX Classes
 90
0
280
0
281
0
  0
CLASS
  1
LAYOUT
  2
AcDbLayout
  3
ObjectDBX Classes
 90
0
280
0
281
0
  0
ENDSEC
  0
SECTION
  2
TABLES
  0
TABLE
  2
VPORT
  5
8
330
0
100
AcDbSymbolTable
 70
1
  0
VPORT
  5
23
330
8
100
AcDbSymbolTableRecord
100
AcDbViewportTableRecord
  2
*Active
 70
0
 10
0.0
 20
0.0
 11
1.0
 21
1.0
 12
0.0
 22
0.0
 13
0.0
 23
0.0
 14
0.5
 24
0.5
 15
0.5
 25
0.5
 16
0.0
 26
0.0
 36
1.0
 17
0.0
 27
0.0
 37
0.0
 40
1000.0
 41
1.34
 42
50.0
 43
0.0
 44
0.0
 50
0.0
 51
0.0
 71
0
 72
1000
 73
1
 74
3
 75
0
 76
0
 77
0
 78
0
281
0
 65
0
146
0.0
  0
ENDTAB
  0
TABLE
  2
LTYPE
  5
2
330
0
100
AcDbSymbolTable
 70
3
  0
LTYPE
  5
24
330
2
100
AcDbSymbolTableRecord
100
AcDbLinetypeTableRecord
  2
ByBlock
 70
0
  3

 72
65
 73
0
 40
0.0
  0
LTYPE
  5
25
330
2
100
AcDbSymbolTableRecord
100
AcDbLinetypeTableRecord
  2
ByLayer
 70
0
  3

 72
65
 73
0
 40
0.0
  0
LTYPE
  5
26
330
2
100
AcDbSymbolTableRecord
100
AcDbLinetypeTableRecord
  2
Continuous
 70
0
  3

 72
65
 73
0
 40
0.0
  0
ENDTAB
  0
TABLE
  2
LAYER
  5
1
330
0
100
AcDbSymbolTable
 70
3
  0
LAYER
  5
27
330
1
100
AcDbSymbolTableRecord
100
AcDbLayerTableRecord
  2
0
 70
0
 62
7
  6
Continuous
370
-3
390
13
  0
LAYER
  5
28
330
1
100
AcDbSymbolTableRecord
100
AcDbLayerTableRecord
  2
Defpoints
 70
0
 62
7
  6
Continuous
290
0
370
-3
390
13
  0
LAYER
  5
2F
330
1
100
AcDbSymbolTableRecord
100
AcDbLayerTableRecord
  2
CORTE
 70
0
 62
7
  6
Continuous
370
-3
390
13
  0
ENDTAB
  0
TABLE
  2
STYLE
  5
5
330
0
100
AcDbSymbolTable
 70
1
  0
STYLE
  5
29
330
5
100
AcDbSymbolTableRecord
100
AcDbTextStyleTableRecord
  2
Standard
 70
0
 40
0.0
 41
1.0
 50
0.0
 71
0
 42
2.5
  3
txt
  4

  0
ENDTAB
  0
TABLE
  2
VIEW
  5
7
330
0
100
AcDbSymbolTable
 70
0
  0
ENDTAB
  0
TABLE
  2
UCS
  5
6
330
0
100
AcDbSymbolTable
 70
0
  0
ENDTAB
  0
TABLE
  2
APPID
  5
3
330
0
100
AcDbSymbolTable
 70
3
  0
APPID
  5
2A
330
3
100
AcDbSymbolTableRecord
100
AcDbRegAppTableRecord
  2
ACAD
 70
0
  0
APPID
  5
33
330
3
100
AcDbSymbolTableRecord
100
AcDbRegAppTableRecord
  2
HATCHBACKGROUNDCOLOR
 70
0
  0
APPID
  5
34
330
3
100
AcDbSymbolTableRecord
100
AcDbRegAppTableRecord
  2
EZDXF
 70
0
  0
ENDTAB
  0
TABLE
  2
DIMSTYLE
  5
4
330
0
100
AcDbSymbolTable
 70
1
100
AcDbDimStyleTable
  0
DIMSTYLE
105
2B
330
4
100
AcDbSymbolTableRecord
100
AcDbDimStyleTableRecord
  2
Standard
 70
0
  3

  4

 40
1.0
 41
2.5
 42
0.625
 43
3.75
 44
1.25
 45
0.0
 46
0.0
 47
0.0
 48
0.0
140
2.5
141
2.5
142
0.0
143
0.03937007874
144
1.0
145
0.0
146
1.0
147
0.625
148
0.0
 71
0
 72
0
 73
0
 74
0
 75
0
 76
0
 77
1
 78
8
 79
3
170
0
171
3
172
1
173
0
174
0
175
0
176
0
177
0
178
0
179
2
271
2
272
2
273
2
274
3
275
0
276
0
277
2
278
44
279
0
280
0
281
0
282
0
283
0
284
8
285
0
286
0
288
0
289
3
371
-2
372
-2
  0
ENDTAB
  0
TABLE
  2
BLOCK_RECORD
  5
9
330
0
100
AcDbSymbolTable
 70
2
  0
BLOCK_RECORD
  5
17
330
9
100
AcDbSymbolTableRecord
100
AcDbBlockTableRecord
  2
*Model_Space
340
1A
  0
BLOCK_RECORD
  5
1B
330
9
100
AcDbSymbolTableRecord
100
AcDbBlockTableRecord
  2
*Paper_Space
340
1E
  0
ENDTAB
  0
ENDSEC
  0
SECTION
  2
BLOCKS
  0
BLOCK
  5
18
330
17
100
AcDbEntity
  8
0
100
AcDbBlockBegin
  2
*Model_Space
 70
0
 10
0.0
 20
0.0
 30
0.0
  3
*Model_Space
  1

  0
ENDBLK
  5
19
330
17
100
AcDbEntity
  8
0
100
AcDbBlockEnd
  0
BLOCK
  5
1C
330
1B
100
AcDbEntity
  8
0
100
AcDbBlockBegin
  2
*Paper_Space
 70
0
 10
0.0
 20
0.0
 30
0.0
  3
*Paper_Space
  1

  0
ENDBLK
  5
1D
330
1B
100
AcDbEntity
  8
0
100
AcDbBlockEnd
  0
ENDSEC
  0
SECTION
  2
ENTITIES
  0
LWPOLYLINE
  5
30
330
17
100
AcDbEntity
  8
CORTE
100
AcDbPolyline
 90
1044
 70
1
 10
4.039999999999999
 20
0.0
 10
4.02
 20
0.0
 10
4.0
 20
0.0
 10
3.9800000000000004
 20
0.0
 10
3.960000000000001
 20
0.0
 10
3.9400000000000013
 20
0.0
 10
3.9200000000000017
 20
0.0
 10
3.900000000000002
 20
0.0
 10
3.879999999999999
 20
0.0
 10
3.8599999999999994
 20
0.0
 10
3.84
 20
0.0
 10
3.8200000000000003
 20
0.0
 10
3.8000000000000007
 20
0.0
 10
3.780000000000001
 20
0.0
 10
3.7600000000000016
 20
0.0
 10
3.740000000000002
 20
0.0
 10
3.719999999999999
 20
0.0
 10
3.6999999999999993
 20
0.0
 10
3.6799999999999997
 20
0.0
 10
3.66
 20
0.0
 10
3.6400000000000006
 20
0.0
 10
3.620000000000001
 20
0.0
 10
3.6000000000000014
 20
0.0
 10
3.580000000000002
 20
0.020000000000010232
 10
3.5599999999999987
 20
0.020000000000010232
 10
3.539999999999999
 20
0.020000000000010232
 10
3.5199999999999996
 20
0.020000000000010232
 10
3.5
 20
0.020000000000010232
 10
3.4800000000000004
 20
0.020000000000010232
 10
3.460000000000001
 20
0.020000000000010232
 10
3.4400000000000013
 20
0.020000000000010232
 10
3.4200000000000017
 20
0.020000000000010232
 10
3.400000000000002
 20
0.020000000000010232
 10
3.379999999999999
 20
0.020000000000010232
 10
3.3599999999999994
 20
0.020000000000010232
 10
3.34
 20
0.020000000000010232
 10
3.3200000000000003
 20
0.040000000000020464
 10
3.3000000000000007
 20
0.040000000000020464
 10
3.280000000000001
 20
0.040000000000020464
 10
3.2600000000000016
 20
0.040000000000020464
 10
3.240000000000002
 20
0.040000000000020464
 10
3.219999999999999
 20
0.040000000000020464
 10
3.1999999999999993
 20
0.040000000000020464
 10
3.1799999999999997
 20
0.040000000000020464
 10
3.16
 20
0.060000000000002274
 10
3.1400000000000006
 20
0.060000000000002274
 10
3.120000000000001
 20
0.060000000000002274
 10
3.1000000000000014
 20
0.060000000000002274
 10
3.080000000000002
 20
0.060000000000002274
 10
3.0599999999999987
 20
0.060000000000002274
 10
3.039999999999999
 20
0.060000000000002274
 10
3.0199999999999996
 20
0.0800000000000125
 10
3.0
 20
0.0800000000000125
 10
2.9800000000000004
 20
0.0800000000000125
 10
2.960000000000001
 20
0.0800000000000125
 10
2.9400000000000013
 20
0.0800000000000125
 10
2.9200000000000017
 20
0.0800000000000125
 10
2.900000000000002
 20
0.09999999999999432
 10
2.879999999999999
 20
0.09999999999999432
 10
2.8599999999999994
 20
0.09999999999999432
 10
2.84
 20
0.09999999999999432
 10
2.8200000000000003
 20
0.09999999999999432
 10
2.8000000000000007
 20
0.12000000000000455
 10
2.780000000000001
 20
0.12000000000000455
 10
2.7600000000000016
 20
0.12000000000000455
 10
2.740000000000002
 20
0.12000000000000455
 10
2.719999999999999
 20
0.12000000000000455
 10
2.6999999999999993
 20
0.14000000000001478
 10
2.6799999999999997
 20
0.14000000000001478
 10
2.66
 20
0.14000000000001478
 10
2.6400000000000006
 20
0.14000000000001478
 10
2.620000000000001
 20
0.1599999999999966
 10
2.6000000000000014
 20
0.1599999999999966
 10
2.580000000000002
 20
0.1599999999999966
 10
2.5599999999999987
 20
0.1599999999999966
 10
2.539999999999999
 20
0.18000000000000682
 10
2.5199999999999996
 20
0.18000000000000682
 10
2.5
 20
0.18000000000000682
 10
2.4800000000000004
 20
0.18000000000000682
 10
2.460000000000001
 20
0.20000000000001705
 10
2.4400000000000013
 20
0.20000000000001705
 10
2.4200000000000017
 20
0.20000000000001705
 10
2.400000000000002
 20
0.21999999999999886
 10
2.379999999999999
 20
0.21999999999999886
 10
2.3599999999999994
 20
0.21999999999999886
 10
2.34
 20
0.2400000000000091
 10
2.3200000000000003
 20
0.2400000000000091
 10
2.3000000000000007
 20
0.2400000000000091
 10
2.280000000000001
 20
0.2400000000000091
 10
2.2600000000000016
 20
0.2600000000000193
 10
2.240000000000002
 20
0.2600000000000193
 10
2.219999999999999
 20
0.28000000000000114
 10
2.1999999999999993
 20
0.28000000000000114
 10
2.1799999999999997
 20
0.28000000000000114
 10
2.16
 20
0.30000000000001137
 10
2.1400000000000006
 20
0.30000000000001137
 10
2.120000000000001
 20
0.3200000000000216
 10
2.1000000000000014
 20
0.3200000000000216
 10
2.080000000000002
 20
0.3200000000000216
 10
2.0599999999999987
 20
0.3400000000000034
 10
2.039999999999999
 20
0.3400000000000034
 10
2.0199999999999996
 20
0.36000000000001364
 10
2.0
 20
0.36000000000001364
 10
1.9800000000000004
 20
0.37999999999999545
 10
1.9600000000000009
 20
0.37999999999999545
 10
1.9400000000000013
 20
0.37999999999999545
 10
1.9200000000000017
 20
0.4000000000000057
 10
1.9000000000000021
 20
0.4200000000000159
 10
1.879999999999999
 20
0.4200000000000159
 10
1.8599999999999994
 20
0.4399999999999977
 10
1.8399999999999999
 20
0.4399999999999977
 10
1.8200000000000003
 20
0.46000000000000796
 10
1.8000000000000007
 20
0.46000000000000796
 10
1.7800000000000011
 20
0.4800000000000182
 10
1.7600000000000016
 20
0.4800000000000182
 10
1.740000000000002
 20
0.5
 10
1.7199999999999989
 20
0.5200000000000102
 10
1.6999999999999993
 20
0.5200000000000102
 10
1.6799999999999997
 20
0.5400000000000205
 10
1.6600000000000001
 20
0.5400000000000205
 10
1.6400000000000006
 20
0.5600000000000023
 10
1.620000000000001
 20
0.5600000000000023
 10
1.620000000000001
 20
0.5800000000000125
 10
1.6000000000000014
 20
0.5999999999999943
 10
1.5800000000000018
 20
0.5999999999999943
 10
1.5599999999999987
 20
0.6200000000000045
 10
1.5399999999999991
 20
0.6200000000000045
 10
1.5199999999999996
 20
0.6400000000000148
 10
1.5
 20
0.6599999999999966
 10
1.4800000000000004
 20
0.6800000000000068
 10
1.4600000000000009
 20
0.700000000000017
 10
1.4400000000000013
 20
0.700000000000017
 10
1.4200000000000017
 20
0.7199999999999989
 10
1.4000000000000021
 20
0.7199999999999989
 10
1.4000000000000021
 20
0.7400000000000091
 10
1.379999999999999
 20
0.7600000000000193
 10
1.3599999999999994
 20
0.7600000000000193
 10
1.3399999999999999
 20
0.7800000000000011
 10
1.3200000000000003
 20
0.8000000000000114
 10
1.3200000000000003
 20
0.8200000000000216
 10
1.3000000000000007
 20
0.8200000000000216
 10
1.2800000000000011
 20
0.8400000000000034
 10
1.2600000000000016
 20
0.8600000000000136
 10
1.240000000000002
 20
0.8600000000000136
 10
1.240000000000002
 20
0.8799999999999955
 10
1.2199999999999989
 20
0.9000000000000057
 10
1.1999999999999993
 20
0.9200000000000159
 10
1.1799999999999997
 20
0.9200000000000159
 10
1.1799999999999997
 20
0.9399999999999977
 10
1.1600000000000001
 20
0.960000000000008
 10
1.1400000000000006
 20
0.9800000000000182
 10
1.120000000000001
 20
1.0
 10
1.1000000000000014
 20
1.0200000000000102
 10
1.0800000000000018
 20
1.0400000000000205
 10
1.0800000000000018
 20
1.0600000000000023
 10
1.0599999999999987
 20
1.0800000000000125
 10
1.0399999999999991
 20
1.0999999999999943
 10
1.0199999999999996
 20
1.1200000000000045
 10
1.0
 20
1.1400000000000148
 10
1.0
 20
1.1599999999999966
 10
0.9800000000000004
 20
1.1800000000000068
 10
0.9600000000000009
 20
1.200000000000017
 10
0.9400000000000013
 20
1.2199999999999989
 10
0.9200000000000017
 20
1.240000000000009
 10
0.9200000000000017
 20
1.2600000000000193
 10
0.9000000000000021
 20
1.2800000000000011
 10
0.879999999999999
 20
1.3000000000000114
 10
0.879999999999999
 20
1.3200000000000216
 10
0.8599999999999994
 20
1.3400000000000034
 10
0.8399999999999999
 20
1.3600000000000136
 10
0.8200000000000003
 20
1.3799999999999955
 10
0.8200000000000003
 20
1.4000000000000057
 10
0.8000000000000007
 20
1.420000000000016
 10
0.7800000000000011
 20
1.460000000000008
 10
0.7800000000000011
 20
1.4800000000000182
 10
0.7600000000000016
 20
1.5
 10
0.740000000000002
 20
1.5200000000000102
 10
0.740000000000002
 20
1.5400000000000205
 10
0.7199999999999989
 20
1.5600000000000023
 10
0.6999999999999993
 20
1.5800000000000125
 10
0.6999999999999993
 20
1.6200000000000045
 10
0.6799999999999997
 20
1.6400000000000148
 10
0.6799999999999997
 20
1.6599999999999966
 10
0.6600000000000001
 20
1.6800000000000068
 10
0.6400000000000006
 20
1.700000000000017
 10
0.6400000000000006
 20
1.740000000000009
 10
0.620000000000001
 20
1.7600000000000193
 10
0.6000000000000014
 20
1.8000000000000114
 10
0.6000000000000014
 20
1.8200000000000216
 10
0.5800000000000018
 20
1.8600000000000136
 10
0.5599999999999987
 20
1.8799999999999955
 10
0.5599999999999987
 20
1.920000000000016
 10
0.5399999999999991
 20
1.9399999999999977
 10
0.5399999999999991
 20
1.9800000000000182
 10
0.5199999999999996
 20
2.0
 10
0.5
 20
2.0400000000000205
 10
0.5
 20
2.0600000000000023
 10
0.4800000000000004
 20
2.0999999999999943
 10
0.4800000000000004
 20
2.140000000000015
 10
0.46000000000000085
 20
2.1599999999999966
 10
0.4400000000000013
 20
2.200000000000017
 10
0.4400000000000013
 20
2.240000000000009
 10
0.4200000000000017
 20
2.2600000000000193
 10
0.4200000000000017
 20
2.3000000000000114
 10
0.40000000000000213
 20
2.3200000000000216
 10
0.40000000000000213
 20
2.3600000000000136
 10
0.379999999999999
 20
2.4000000000000057
 10
0.379999999999999
 20
2.4399999999999977
 10
0.35999999999999943
 20
2.460000000000008
 10
0.35999999999999943
 20
2.5
 10
0.33999999999999986
 20
2.5400000000000205
 10
0.33999999999999986
 20
2.5600000000000023
 10
0.3200000000000003
 20
2.5999999999999943
 10
0.3200000000000003
 20
2.640000000000015
 10
0.3200000000000003
 20
2.680000000000007
 10
0.3000000000000007
 20
2.700000000000017
 10
0.3000000000000007
 20
2.740000000000009
 10
0.28000000000000114
 20
2.780000000000001
 10
0.28000000000000114
 20
2.8200000000000216
 10
0.26000000000000156
 20
2.8600000000000136
 10
0.26000000000000156
 20
2.9000000000000057
 10
0.240000000000002
 20
2.960000000000008
 10
0.240000000000002
 20
3.0
 10
0.240000000000002
 20
3.0400000000000205
 10
0.21999999999999886
 20
3.0800000000000125
 10
0.21999999999999886
 20
3.1200000000000045
 10
0.1999999999999993
 20
3.1599999999999966
 10
0.1999999999999993
 20
3.200000000000017
 10
0.1999999999999993
 20
3.240000000000009
 10
0.17999999999999972
 20
3.280000000000001
 10
0.17999999999999972
 20
3.3400000000000034
 10
0.17999999999999972
 20
3.3799999999999955
 10
0.16000000000000014
 20
3.420000000000016
 10
0.16000000000000014
 20
3.460000000000008
 10
0.16000000000000014
 20
3.5
 10
0.14000000000000057
 20
3.5600000000000023
 10
0.14000000000000057
 20
3.5999999999999943
 10
0.14000000000000057
 20
3.640000000000015
 10
0.120000000000001
 20
3.680000000000007
 10
0.120000000000001
 20
3.740000000000009
 10
0.120000000000001
 20
3.780000000000001
 10
0.120000000000001
 20
3.8200000000000216
 10
0.10000000000000142
 20
3.8799999999999955
 10
0.10000000000000142
 20
3.920000000000016
 10
0.10000000000000142
 20
3.960000000000008
 10
0.10000000000000142
 20
4.02000000000001
 10
0.08000000000000185
 20
4.060000000000002
 10
0.08000000000000185
 20
4.099999999999994
 10
0.08000000000000185
 20
4.159999999999997
 10
0.08000000000000185
 20
4.200000000000017
 10
0.08000000000000185
 20
4.260000000000019
 10
0.05999999999999872
 20
4.300000000000011
 10
0.05999999999999872
 20
4.360000000000014
 10
0.05999999999999872
 20
4.400000000000006
 10
0.05999999999999872
 20
4.460000000000008
 10
0.05999999999999872
 20
4.5
 10
0.03999999999999915
 20
4.560000000000002
 10
0.03999999999999915
 20
4.599999999999994
 10
0.03999999999999915
 20
4.659999999999997
 10
0.03999999999999915
 20
4.700000000000017
 10
0.03999999999999915
 20
4.760000000000019
 10
0.03999999999999915
 20
4.820000000000022
 10
0.03999999999999915
 20
4.860000000000014
 10
0.019999999999999574
 20
4.920000000000016
 10
0.019999999999999574
 20
4.960000000000008
 10
0.019999999999999574
 20
5.02000000000001
 10
0.019999999999999574
 20
5.0800000000000125
 10
0.019999999999999574
 20
5.1200000000000045
 10
0.019999999999999574
 20
5.180000000000007
 10
0.019999999999999574
 20
5.240000000000009
 10
0.019999999999999574
 20
5.280000000000001
 10
0.019999999999999574
 20
5.340000000000003
 10
0.019999999999999574
 20
5.400000000000006
 10
0.019999999999999574
 20
5.439999999999998
 10
0.0
 20
5.5
 10
0.0
 20
5.560000000000002
 10
0.0
 20
5.599999999999994
 10
0.0
 20
5.659999999999997
 10
0.0
 20
5.719999999999999
 10
0.0
 20
5.760000000000019
 10
0.0
 20
5.820000000000022
 10
0.0
 20
5.8799999999999955
 10
0.0
 20
5.920000000000016
 10
0.0
 20
5.980000000000018
 10
0.0
 20
6.0400000000000205
 10
0.0
 20
6.0800000000000125
 10
0.0
 20
6.140000000000015
 10
0.0
 20
6.200000000000017
 10
0.0
 20
6.240000000000009
 10
0.0
 20
6.300000000000011
 10
0.0
 20
6.360000000000014
 10
0.0
 20
6.420000000000016
 10
0.0
 20
6.460000000000008
 10
0.0
 20
6.52000000000001
 10
0.0
 20
6.5800000000000125
 10
0.0
 20
6.6200000000000045
 10
0.0
 20
6.680000000000007
 10
0.0
 20
6.740000000000009
 10
0.0
 20
6.780000000000001
 10
0.0
 20
6.840000000000003
 10
0.0
 20
6.900000000000006
 10
0.0
 20
6.960000000000008
 10
0.0
 20
7.0
 10
0.0
 20
7.060000000000002
 10
0.0
 20
7.1200000000000045
 10
0.0
 20
7.159999999999997
 10
0.019999999999999574
 20
7.219999999999999
 10
0.019999999999999574
 20
7.280000000000001
 10
0.019999999999999574
 20
7.320000000000022
 10
0.019999999999999574
 20
7.3799999999999955
 10
0.019999999999999574
 20
7.439999999999998
 10
0.019999999999999574
 20
7.5
 10
0.019999999999999574
 20
7.5400000000000205
 10
0.019999999999999574
 20
7.599999999999994
 10
0.019999999999999574
 20
7.640000000000015
 10
0.019999999999999574
 20
7.700000000000017
 10
0.019999999999999574
 20
7.740000000000009
 10
0.019999999999999574
 20
7.800000000000011
 10
0.019999999999999574
 20
7.840000000000003
 10
0.019999999999999574
 20
7.900000000000006
 10
0.03999999999999915
 20
7.939999999999998
 10
0.03999999999999915
 20
8.0
 10
0.03999999999999915
 20
8.04000000000002
 10
0.03999999999999915
 20
8.099999999999994
 10
0.03999999999999915
 20
8.140000000000015
 10
0.03999999999999915
 20
8.180000000000007
 10
0.03999999999999915
 20
8.240000000000009
 10
0.03999999999999915
 20
8.280000000000001
 10
0.03999999999999915
 20
8.340000000000003
 10
0.03999999999999915
 20
8.379999999999995
 10
0.05999999999999872
 20
8.439999999999998
 10
0.05999999999999872
 20
8.480000000000018
 10
0.05999999999999872
 20
8.54000000000002
 10
0.05999999999999872
 20
8.580000000000013
 10
0.05999999999999872
 20
8.620000000000005
 10
0.05999999999999872
 20
8.680000000000007
 10
0.05999999999999872
 20
8.719999999999999
 10
0.05999999999999872
 20
8.780000000000001
 10
0.08000000000000185
 20
8.820000000000022
 10
0.08000000000000185
 20
8.860000000000014
 10
0.08000000000000185
 20
8.920000000000016
 10
0.08000000000000185
 20
8.960000000000008
 10
0.08000000000000185
 20
9.02000000000001
 10
0.08000000000000185
 20
9.060000000000002
 10
0.08000000000000185
 20
9.099999999999994
 10
0.10000000000000142
 20
9.159999999999997
 10
0.10000000000000142
 20
9.200000000000017
 10
0.10000000000000142
 20
9.240000000000009
 10
0.10000000000000142
 20
9.280000000000001
 10
0.10000000000000142
 20
9.320000000000022
 10
0.10000000000000142
 20
9.360000000000014
 10
0.10000000000000142
 20
9.400000000000006
 10
0.120000000000001
 20
9.439999999999998
 10
0.120000000000001
 20
9.480000000000018
 10
0.120000000000001
 20
9.52000000000001
 10
0.120000000000001
 20
9.560000000000002
 10
0.120000000000001
 20
9.599999999999994
 10
0.120000000000001
 20
9.640000000000015
 10
0.14000000000000057
 20
9.680000000000007
 10
0.14000000000000057
 20
9.719999999999999
 10
0.14000000000000057
 20
9.76000000000002
 10
0.14000000000000057
 20
9.800000000000011
 10
0.14000000000000057
 20
9.840000000000003
 10
0.16000000000000014
 20
9.879999999999995
 10
0.16000000000000014
 20
9.920000000000016
 10
0.16000000000000014
 20
9.960000000000008
 10
0.16000000000000014
 20
10.0
 10
0.16000000000000014
 20
10.04000000000002
 10
0.17999999999999972
 20
10.080000000000013
 10
0.17999999999999972
 20
10.120000000000005
 10
0.17999999999999972
 20
10.159999999999997
 10
0.17999999999999972
 20
10.200000000000017
 10
0.17999999999999972
 20
10.240000000000009
 10
0.1999999999999993
 20
10.280000000000001
 10
0.1999999999999993
 20
10.320000000000022
 10
0.1999999999999993
 20
10.360000000000014
 10
0.1999999999999993
 20
10.400000000000006
 10
0.21999999999999886
 20
10.439999999999998
 10
0.21999999999999886
 20
10.460000000000008
 10
0.21999999999999886
 20
10.5
 10
0.21999999999999886
 20
10.52000000000001
 10
0.240000000000002
 20
10.560000000000002
 10
0.240000000000002
 20
10.599999999999994
 10
0.240000000000002
 20
10.620000000000005
 10
0.240000000000002
 20
10.659999999999997
 10
0.26000000000000156
 20
10.700000000000017
 10
0.26000000000000156
 20
10.719999999999999
 10
0.26000000000000156
 20
10.76000000000002
 10
0.26000000000000156
 20
10.800000000000011
 10
0.28000000000000114
 20
10.820000000000022
 10
0.28000000000000114
 20
10.860000000000014
 10
0.28000000000000114
 20
10.879999999999995
 10
0.3000000000000007
 20
10.920000000000016
 10
0.3000000000000007
 20
10.960000000000008
 10
0.3000000000000007
 20
10.980000000000018
 10
0.3200000000000003
 20
11.02000000000001
 10
0.3200000000000003
 20
11.04000000000002
 10
0.3200000000000003
 20
11.080000000000013
 10
0.3200000000000003
 20
11.099999999999994
 10
0.33999999999999986
 20
11.140000000000015
 10
0.33999999999999986
 20
11.159999999999997
 10
0.35999999999999943
 20
11.200000000000017
 10
0.35999999999999943
 20
11.240000000000009
 10
0.35999999999999943
 20
11.26000000000002
 10
0.379999999999999
 20
11.300000000000011
 10
0.379999999999999
 20
11.320000000000022
 10
0.379999999999999
 20
11.360000000000014
 10
0.40000000000000213
 20
11.379999999999995
 10
0.40000000000000213
 20
11.420000000000016
 10
0.40000000000000213
 20
11.439999999999998
 10
0.4200000000000017
 20
11.460000000000008
 10
0.4200000000000017
 20
11.5
 10
0.4400000000000013
 20
11.52000000000001
 10
0.4400000000000013
 20
11.560000000000002
 10
0.4400000000000013
 20
11.580000000000013
 10
0.46000000000000085
 20
11.599999999999994
 10
0.46000000000000085
 20
11.640000000000015
 10
0.4800000000000004
 20
11.659999999999997
 10
0.4800000000000004
 20
11.680000000000007
 10
0.4800000000000004
 20
11.719999999999999
 10
0.5
 20
11.740000000000009
 10
0.5
 20
11.76000000000002
 10
0.5199999999999996
 20
11.800000000000011
 10
0.5199999999999996
 20
11.820000000000022
 10
0.5399999999999991
 20
11.840000000000003
 10
0.5399999999999991
 20
11.879999999999995
 10
0.5599999999999987
 20
11.900000000000006
 10
0.5599999999999987
 20
11.920000000000016
 10
0.5800000000000018
 20
11.960000000000008
 10
0.5800000000000018
 20
11.980000000000018
 10
0.6000000000000014
 20
12.0
 10
0.6000000000000014
 20
12.02000000000001
 10
0.620000000000001
 20
12.060000000000002
 10
0.620000000000001
 20
12.080000000000013
 10
0.6400000000000006
 20
12.099999999999994
 10
0.6400000000000006
 20
12.140000000000015
 10
0.6600000000000001
 20
12.159999999999997
 10
0.6600000000000001
 20
12.180000000000007
 10
0.6799999999999997
 20
12.200000000000017
 10
0.6799999999999997
 20
12.219999999999999
 10
0.6999999999999993
 20
12.26000000000002
 10
0.7199999999999989
 20
12.280000000000001
 10
0.7199999999999989
 20
12.300000000000011
 10
0.740000000000002
 20
12.340000000000003
 10
0.7600000000000016
 20
12.360000000000014
 10
0.7600000000000016
 20
12.379999999999995
 10
0.7800000000000011
 20
12.420000000000016
 10
0.8000000000000007
 20
12.439999999999998
 10
0.8200000000000003
 20
12.460000000000008
 10
0.8200000000000003
 20
12.5
 10
0.8399999999999999
 20
12.52000000000001
 10
0.8599999999999994
 20
12.54000000000002
 10
0.879999999999999
 20
12.560000000000002
 10
0.879999999999999
 20
12.599999999999994
 10
0.9000000000000021
 20
12.620000000000005
 10
0.9200000000000017
 20
12.640000000000015
 10
0.9400000000000013
 20
12.659999999999997
 10
0.9400000000000013
 20
12.700000000000017
 10
0.9600000000000009
 20
12.719999999999999
 10
0.9800000000000004
 20
12.740000000000009
 10
1.0
 20
12.76000000000002
 10
1.0199999999999996
 20
12.780000000000001
 10
1.0399999999999991
 20
12.820000000000022
 10
1.0599999999999987
 20
12.840000000000003
 10
1.0800000000000018
 20
12.860000000000014
 10
1.0800000000000018
 20
12.879999999999995
 10
1.1000000000000014
 20
12.900000000000006
 10
1.120000000000001
 20
12.920000000000016
 10
1.1400000000000006
 20
12.960000000000008
 10
1.1600000000000001
 20
12.980000000000018
 10
1.1799999999999997
 20
13.0
 10
1.1999999999999993
 20
13.02000000000001
 10
1.2199999999999989
 20
13.04000000000002
 10
1.240000000000002
 20
13.060000000000002
 10
1.2800000000000011
 20
13.099999999999994
 10
1.3000000000000007
 20
13.120000000000005
 10
1.3200000000000003
 20
13.140000000000015
 10
1.3599999999999994
 20
13.180000000000007
 10
1.379999999999999
 20
13.200000000000017
 10
1.4000000000000021
 20
13.219999999999999
 10
1.4400000000000013
 20
13.26000000000002
 10
1.4600000000000009
 20
13.280000000000001
 10
1.4800000000000004
 20
13.300000000000011
 10
1.5199999999999996
 20
13.320000000000022
 10
1.5399999999999991
 20
13.360000000000014
 10
1.5800000000000018
 20
13.379999999999995
 10
1.6000000000000014
 20
13.400000000000006
 10
1.6400000000000006
 20
13.420000000000016
 10
1.6600000000000001
 20
13.439999999999998
 10
1.6999999999999993
 20
13.480000000000018
 10
1.7199999999999989
 20
13.5
 10
1.7600000000000016
 20
13.52000000000001
 10
1.7800000000000011
 20
13.54000000000002
 10
1.8200000000000003
 20
13.560000000000002
 10
1.8599999999999994
 20
13.580000000000013
 10
1.879999999999999
 20
13.599999999999994
 10
1.9200000000000017
 20
13.640000000000015
 10
1.9600000000000009
 20
13.659999999999997
 10
2.0
 20
13.680000000000007
 10
2.0199999999999996
 20
13.700000000000017
 10
2.0599999999999987
 20
13.719999999999999
 10
2.1000000000000014
 20
13.740000000000009
 10
2.1400000000000006
 20
13.76000000000002
 10
2.16
 20
13.780000000000001
 10
2.1999999999999993
 20
13.800000000000011
 10
2.240000000000002
 20
13.820000000000022
 10
2.3000000000000007
 20
13.840000000000003
 10
2.34
 20
13.860000000000014
 10
2.400000000000002
 20
13.900000000000006
 10
2.4400000000000013
 20
13.920000000000016
 10
2.4800000000000004
 20
13.939999999999998
 10
2.539999999999999
 20
13.960000000000008
 10
2.580000000000002
 20
13.980000000000018
 10
2.6400000000000006
 20
14.0
 10
2.6799999999999997
 20
14.02000000000001
 10
2.740000000000002
 20
14.04000000000002
 10
2.780000000000001
 20
14.060000000000002
 10
2.84
 20
14.080000000000013
 10
2.900000000000002
 20
14.099999999999994
 10
2.9400000000000013
 20
14.120000000000005
 10
3.0
 20
14.140000000000015
 10
3.0599999999999987
 20
14.159999999999997
 10
3.120000000000001
 20
14.180000000000007
 10
3.16
 20
14.200000000000017
 10
3.219999999999999
 20
14.219999999999999
 10
3.280000000000001
 20
14.240000000000009
 10
3.34
 20
14.26000000000002
 10
3.400000000000002
 20
14.280000000000001
 10
3.460000000000001
 20
14.300000000000011
 10
3.5199999999999996
 20
14.320000000000022
 10
3.580000000000002
 20
14.340000000000003
 10
3.6400000000000006
 20
14.340000000000003
 10
3.6999999999999993
 20
14.360000000000014
 10
3.7600000000000016
 20
14.379999999999995
 10
3.8200000000000003
 20
14.400000000000006
 10
3.879999999999999
 20
14.420000000000016
 10
3.960000000000001
 20
14.420000000000016
 10
4.02
 20
14.439999999999998
 10
4.100000000000001
 20
14.460000000000008
 10
4.16
 20
14.480000000000018
 10
4.240000000000002
 20
14.5
 10
4.32
 20
14.52000000000001
 10
4.400000000000002
 20
14.52000000000001
 10
4.48
 20
14.54000000000002
 10
4.559999999999999
 20
14.560000000000002
 10
4.620000000000001
 20
14.580000000000013
 10
4.699999999999999
 20
14.580000000000013
 10
4.780000000000001
 20
14.599999999999994
 10
4.859999999999999
 20
14.620000000000005
 10
4.940000000000001
 20
14.620000000000005
 10
5.02
 20
14.640000000000015
 10
5.100000000000001
 20
14.659999999999997
 10
5.199999999999999
 20
14.659999999999997
 10
5.280000000000001
 20
14.680000000000007
 10
5.359999999999999
 20
14.700000000000017
 10
5.440000000000001
 20
14.700000000000017
 10
5.52
 20
14.719999999999999
 10
5.600000000000001
 20
14.719999999999999
 10
5.699999999999999
 20
14.740000000000009
 10
5.780000000000001
 20
14.76000000000002
 10
5.859999999999999
 20
14.76000000000002
 10
5.960000000000001
 20
14.780000000000001
 10
6.039999999999999
 20
14.780000000000001
 10
6.120000000000001
 20
14.800000000000011
 10
6.219999999999999
 20
14.800000000000011
 10
6.300000000000001
 20
14.820000000000022
 10
6.400000000000002
 20
14.820000000000022
 10
6.48
 20
14.840000000000003
 10
6.580000000000002
 20
14.840000000000003
 10
6.66
 20
14.840000000000003
 10
6.760000000000002
 20
14.860000000000014
 10
6.859999999999999
 20
14.860000000000014
 10
6.960000000000001
 20
14.879999999999995
 10
7.059999999999999
 20
14.879999999999995
 10
7.16
 20
14.900000000000006
 10
7.240000000000002
 20
14.900000000000006
 10
7.34
 20
14.900000000000006
 10
7.440000000000001
 20
14.920000000000016
 10
7.539999999999999
 20
14.920000000000016
 10
7.640000000000001
 20
14.920000000000016
 10
7.740000000000002
 20
14.939999999999998
 10
7.84
 20
14.939999999999998
 10
7.940000000000001
 20
14.939999999999998
 10
8.04
 20
14.960000000000008
 10
8.14
 20
14.960000000000008
 10
8.240000000000002
 20
14.960000000000008
 10
8.34
 20
14.960000000000008
 10
8.440000000000001
 20
14.980000000000018
 10
8.54
 20
14.980000000000018
 10
8.64
 20
14.980000000000018
 10
8.740000000000002
 20
14.980000000000018
 10
8.84
 20
14.980000000000018
 10
8.940000000000001
 20
15.0
 10
9.04
 20
15.0
 10
9.14
 20
15.0
 10
9.240000000000002
 20
15.0
 10
9.34
 20
15.0
 10
9.440000000000001
 20
15.0
 10
9.54
 20
15.02000000000001
 10
9.64
 20
15.02000000000001
 10
9.740000000000002
 20
15.02000000000001
 10
9.84
 20
15.02000000000001
 10
9.940000000000001
 20
15.02000000000001
 10
10.04
 20
15.02000000000001
 10
10.14
 20
15.02000000000001
 10
10.240000000000002
 20
15.02000000000001
 10
10.34
 20
15.02000000000001
 10
10.440000000000001
 20
15.02000000000001
 10
10.54
 20
15.02000000000001
 10
10.620000000000001
 20
15.02000000000001
 10
10.719999999999999
 20
15.02000000000001
 10
10.82
 20
15.02000000000001
 10
10.920000000000002
 20
15.02000000000001
 10
11.02
 20
15.02000000000001
 10
11.120000000000001
 20
15.02000000000001
 10
11.2
 20
15.02000000000001
 10
11.3
 20
15.02000000000001
 10
11.400000000000002
 20
15.02000000000001
 10
11.5
 20
15.02000000000001
 10
11.580000000000002
 20
15.02000000000001
 10
11.68
 20
15.02000000000001
 10
11.780000000000001
 20
15.02000000000001
 10
11.86
 20
15.0
 10
11.96
 20
15.0
 10
12.059999999999999
 20
15.0
 10
12.14
 20
15.0
 10
12.240000000000002
 20
15.0
 10
12.32
 20
15.0
 10
12.420000000000002
 20
14.980000000000018
 10
12.5
 20
14.980000000000018
 10
12.600000000000001
 20
14.980000000000018
 10
12.68
 20
14.980000000000018
 10
12.760000000000002
 20
14.960000000000008
 10
12.84
 20
14.960000000000008
 10
12.920000000000002
 20
14.960000000000008
 10
13.0
 20
14.960000000000008
 10
13.080000000000002
 20
14.939999999999998
 10
13.16
 20
14.939999999999998
 10
13.240000000000002
 20
14.939999999999998
 10
13.3
 20
14.920000000000016
 10
13.379999999999999
 20
14.920000000000016
 10
13.46
 20
14.920000000000016
 10
13.54
 20
14.900000000000006
 10
13.600000000000001
 20
14.900000000000006
 10
13.68
 20
14.900000000000006
 10
13.760000000000002
 20
14.879999999999995
 10
13.82
 20
14.879999999999995
 10
13.900000000000002
 20
14.860000000000014
 10
13.96
 20
14.860000000000014
 10
14.04
 20
14.840000000000003
 10
14.100000000000001
 20
14.840000000000003
 10
14.18
 20
14.820000000000022
 10
14.240000000000002
 20
14.820000000000022
 10
14.3
 20
14.800000000000011
 10
14.379999999999999
 20
14.800000000000011
 10
14.440000000000001
 20
14.780000000000001
 10
14.5
 20
14.780000000000001
 10
14.559999999999999
 20
14.76000000000002
 10
14.64
 20
14.740000000000009
 10
14.7
 20
14.740000000000009
 10
14.760000000000002
 20
14.719999999999999
 10
14.82
 20
14.700000000000017
 10
14.879999999999999
 20
14.700000000000017
 10
14.940000000000001
 20
14.680000000000007
 10
15.000000000000004
 20
14.659999999999997
 10
15.040000000000003
 20
14.659999999999997
 10
15.099999999999998
 20
14.640000000000015
 10
15.139999999999997
 20
14.620000000000005
 10
15.180000000000003
 20
14.620000000000005
 10
15.239999999999998
 20
14.599999999999994
 10
15.279999999999998
 20
14.580000000000013
 10
15.320000000000004
 20
14.560000000000002
 10
15.360000000000003
 20
14.560000000000002
 10
15.419999999999998
 20
14.54000000000002
 10
15.459999999999997
 20
14.52000000000001
 10
15.500000000000004
 20
14.5
 10
15.540000000000003
 20
14.480000000000018
 10
15.580000000000002
 20
14.480000000000018
 10
15.620000000000001
 20
14.460000000000008
 10
15.66
 20
14.439999999999998
 10
15.7
 20
14.420000000000016
 10
15.739999999999998
 20
14.400000000000006
 10
15.779999999999998
 20
14.379999999999995
 10
15.820000000000004
 20
14.360000000000014
 10
15.860000000000003
 20
14.340000000000003
 10
15.900000000000002
 20
14.320000000000022
 10
15.940000000000001
 20
14.300000000000011
 10
15.959999999999997
 20
14.280000000000001
 10
16.000000000000004
 20
14.26000000000002
 10
16.040000000000003
 20
14.240000000000009
 10
16.06
 20
14.219999999999999
 10
16.099999999999998
 20
14.200000000000017
 10
16.139999999999997
 20
14.180000000000007
 10
16.180000000000003
 20
14.159999999999997
 10
16.2
 20
14.140000000000015
 10
16.24
 20
14.099999999999994
 10
16.26
 20
14.080000000000013
 10
16.279999999999998
 20
14.060000000000002
 10
16.320000000000004
 20
14.04000000000002
 10
16.34
 20
14.04000000000002
 10
16.360000000000003
 20
14.02000000000001
 10
16.38
 20
14.0
 10
16.400000000000002
 20
13.980000000000018
 10
16.419999999999998
 20
13.960000000000008
 10
16.44
 20
13.939999999999998
 10
16.459999999999997
 20
13.920000000000016
 10
16.48
 20
13.900000000000006
 10
16.500000000000004
 20
13.879999999999995
 10
16.52
 20
13.860000000000014
 10
16.540000000000003
 20
13.840000000000003
 10
16.56
 20
13.820000000000022
 10
16.580000000000002
 20
13.800000000000011
 10
16.599999999999998
 20
13.76000000000002
 10
16.62
 20
13.740000000000009
 10
16.639999999999997
 20
13.719999999999999
 10
16.66
 20
13.700000000000017
 10
16.680000000000003
 20
13.680000000000007
 10
16.7
 20
13.659999999999997
 10
16.7
 20
13.640000000000015
 10
16.720000000000002
 20
13.620000000000005
 10
16.74
 20
13.599999999999994
 10
16.76
 20
13.560000000000002
 10
16.779999999999998
 20
13.54000000000002
 10
16.8
 20
13.52000000000001
 10
16.8
 20
13.5
 10
16.820000000000004
 20
13.480000000000018
 10
16.84
 20
13.439999999999998
 10
16.860000000000003
 20
13.420000000000016
 10
16.860000000000003
 20
13.400000000000006
 10
16.88
 20
13.379999999999995
 10
16.900000000000002
 20
13.360000000000014
 10
16.900000000000002
 20
13.340000000000003
 10
16.919999999999998
 20
13.320000000000022
 10
16.94
 20
13.300000000000011
 10
16.94
 20
13.280000000000001
 10
16.959999999999997
 20
13.26000000000002
 10
16.959999999999997
 20
13.240000000000009
 10
16.98
 20
13.219999999999999
 10
16.98
 20
13.200000000000017
 10
17.000000000000004
 20
13.180000000000007
 10
17.02
 20
13.140000000000015
 10
17.02
 20
13.120000000000005
 10
17.040000000000003
 20
13.099999999999994
 10
17.040000000000003
 20
13.080000000000013
 10
17.06
 20
13.060000000000002
 10
17.06
 20
13.04000000000002
 10
17.080000000000002
 20
13.02000000000001
 10
17.080000000000002
 20
13.0
 10
17.099999999999998
 20
12.980000000000018
 10
17.099999999999998
 20
12.939999999999998
 10
17.12
 20
12.920000000000016
 10
17.12
 20
12.900000000000006
 10
17.139999999999997
 20
12.879999999999995
 10
17.139999999999997
 20
12.860000000000014
 10
17.16
 20
12.840000000000003
 10
17.16
 20
12.820000000000022
 10
17.180000000000003
 20
12.780000000000001
 10
17.180000000000003
 20
12.76000000000002
 10
17.2
 20
12.740000000000009
 10
17.2
 20
12.719999999999999
 10
17.2
 20
12.700000000000017
 10
17.220000000000002
 20
12.680000000000007
 10
17.220000000000002
 20
12.640000000000015
 10
17.24
 20
12.620000000000005
 10
17.24
 20
12.599999999999994
 10
17.26
 20
12.580000000000013
 10
17.26
 20
12.54000000000002
 10
17.279999999999998
 20
12.52000000000001
 10
17.279999999999998
 20
12.5
 10
17.3
 20
12.460000000000008
 10
17.3
 20
12.439999999999998
 10
17.3
 20
12.420000000000016
 10
17.320000000000004
 20
12.400000000000006
 10
17.320000000000004
 20
12.360000000000014
 10
17.34
 20
12.340000000000003
 10
17.34
 20
12.320000000000022
 10
17.360000000000003
 20
12.300000000000011
 10
17.360000000000003
 20
12.26000000000002
 10
17.38
 20
12.240000000000009
 10
17.38
 20
12.219999999999999
 10
17.38
 20
12.180000000000007
 10
17.400000000000002
 20
12.159999999999997
 10
17.400000000000002
 20
12.140000000000015
 10
17.419999999999998
 20
12.120000000000005
 10
17.419999999999998
 20
12.080000000000013
 10
17.44
 20
12.060000000000002
 10
17.44
 20
12.04000000000002
 10
17.44
 20
12.0
 10
17.459999999999997
 20
11.980000000000018
 10
17.459999999999997
 20
11.960000000000008
 10
17.48
 20
11.920000000000016
 10
17.48
 20
11.900000000000006
 10
17.500000000000004
 20
11.879999999999995
 10
17.500000000000004
 20
11.840000000000003
 10
17.52
 20
11.820000000000022
 10
17.52
 20
11.780000000000001
 10
17.540000000000003
 20
11.76000000000002
 10
17.540000000000003
 20
11.740000000000009
 10
17.540000000000003
 20
11.700000000000017
 10
17.56
 20
11.680000000000007
 10
17.56
 20
11.640000000000015
 10
17.580000000000002
 20
11.620000000000005
 10
17.580000000000002
 20
11.580000000000013
 10
17.599999999999998
 20
11.560000000000002
 10
17.599999999999998
 20
11.52000000000001
 10
17.62
 20
11.5
 10
17.62
 20
11.480000000000018
 10
17.639999999999997
 20
11.439999999999998
 10
17.639999999999997
 20
11.420000000000016
 10
17.66
 20
11.379999999999995
 10
17.680000000000003
 20
11.360000000000014
 10
17.680000000000003
 20
11.320000000000022
 10
17.7
 20
11.300000000000011
 10
17.7
 20
11.280000000000001
 10
17.720000000000002
 20
11.240000000000009
 10
17.720000000000002
 20
11.219999999999999
 10
17.74
 20
11.180000000000007
 10
17.74
 20
11.159999999999997
 10
17.76
 20
11.120000000000005
 10
17.76
 20
11.099999999999994
 10
17.779999999999998
 20
11.060000000000002
 10
17.8
 20
11.04000000000002
 10
17.8
 20
11.02000000000001
 10
17.820000000000004
 20
10.980000000000018
 10
17.820000000000004
 20
10.960000000000008
 10
17.84
 20
10.920000000000016
 10
17.860000000000003
 20
10.900000000000006
 10
17.860000000000003
 20
10.860000000000014
 10
17.88
 20
10.840000000000003
 10
17.88
 20
10.820000000000022
 10
17.900000000000002
 20
10.780000000000001
 10
17.919999999999998
 20
10.76000000000002
 10
17.919999999999998
 20
10.719999999999999
 10
17.94
 20
10.700000000000017
 10
17.959999999999997
 20
10.659999999999997
 10
17.959999999999997
 20
10.640000000000015
 10
17.98
 20
10.620000000000005
 10
18.000000000000004
 20
10.580000000000013
 10
18.000000000000004
 20
10.560000000000002
 10
18.02
 20
10.52000000000001
 10
18.040000000000003
 20
10.5
 10
18.06
 20
10.460000000000008
 10
18.06
 20
10.439999999999998
 10
18.080000000000002
 20
10.420000000000016
 10
18.099999999999998
 20
10.379999999999995
 10
18.12
 20
10.360000000000014
 10
18.12
 20
10.340000000000003
 10
18.139999999999997
 20
10.300000000000011
 10
18.16
 20
10.280000000000001
 10
18.180000000000003
 20
10.240000000000009
 10
18.2
 20
10.219999999999999
 10
18.2
 20
10.200000000000017
 10
18.220000000000002
 20
10.159999999999997
 10
18.24
 20
10.140000000000015
 10
18.26
 20
10.120000000000005
 10
18.279999999999998
 20
10.080000000000013
 10
18.279999999999998
 20
10.060000000000002
 10
18.3
 20
10.04000000000002
 10
18.320000000000004
 20
10.0
 10
18.34
 20
9.980000000000018
 10
18.360000000000003
 20
9.960000000000008
 10
18.38
 20
9.920000000000016
 10
18.400000000000002
 20
9.900000000000006
 10
18.419999999999998
 20
9.879999999999995
 10
18.44
 20
9.860000000000014
 10
18.459999999999997
 20
9.820000000000022
 10
18.459999999999997
 20
9.800000000000011
 10
18.48
 20
9.780000000000001
 10
18.500000000000004
 20
9.740000000000009
 10
18.52
 20
9.719999999999999
 10
18.540000000000003
 20
9.700000000000017
 10
18.56
 20
9.680000000000007
 10
18.580000000000002
 20
9.640000000000015
 10
18.599999999999998
 20
9.620000000000005
 10
18.62
 20
9.599999999999994
 10
18.639999999999997
 20
9.580000000000013
 10
18.66
 20
9.560000000000002
 10
18.680000000000003
 20
9.52000000000001
 10
18.7
 20
9.5
 10
18.720000000000002
 20
9.480000000000018
 10
18.76
 20
9.460000000000008
 10
18.779999999999998
 20
9.439999999999998
 10
18.8
 20
9.420000000000016
 10
18.820000000000004
 20
9.379999999999995
 10
18.84
 20
9.360000000000014
 10
18.860000000000003
 20
9.340000000000003
 10
18.88
 20
9.320000000000022
 10
18.900000000000002
 20
9.300000000000011
 10
18.919999999999998
 20
9.280000000000001
 10
18.959999999999997
 20
9.26000000000002
 10
18.98
 20
9.219999999999999
 10
19.000000000000004
 20
9.200000000000017
 10
19.02
 20
9.180000000000007
 10
19.040000000000003
 20
9.159999999999997
 10
19.06
 20
9.140000000000015
 10
19.099999999999998
 20
9.120000000000005
 10
19.12
 20
9.099999999999994
 10
19.139999999999997
 20
9.080000000000013
 10
19.16
 20
9.060000000000002
 10
19.2
 20
9.04000000000002
 10
19.220000000000002
 20
9.02000000000001
 10
19.24
 20
9.0
 10
19.279999999999998
 20
8.980000000000018
 10
19.3
 20
8.960000000000008
 10
19.320000000000004
 20
8.939999999999998
 10
19.34
 20
8.920000000000016
 10
19.38
 20
8.900000000000006
 10
19.400000000000002
 20
8.879999999999995
 10
19.419999999999998
 20
8.860000000000014
 10
19.459999999999997
 20
8.840000000000003
 10
19.48
 20
8.820000000000022
 10
19.500000000000004
 20
8.800000000000011
 10
19.540000000000003
 20
8.780000000000001
 10
19.56
 20
8.76000000000002
 10
19.599999999999998
 20
8.740000000000009
 10
19.62
 20
8.719999999999999
 10
19.639999999999997
 20
8.700000000000017
 10
19.680000000000003
 20
8.700000000000017
 10
19.7
 20
8.680000000000007
 10
19.74
 20
8.659999999999997
 10
19.76
 20
8.640000000000015
 10
19.779999999999998
 20
8.620000000000005
 10
19.820000000000004
 20
8.620000000000005
 10
19.84
 20
8.599999999999994
 10
19.860000000000003
 20
8.580000000000013
 10
19.88
 20
8.580000000000013
 10
19.919999999999998
 20
8.560000000000002
 10
19.94
 20
8.54000000000002
 10
19.959999999999997
 20
8.54000000000002
 10
19.98
 20
8.52000000000001
 10
20.02
 20
8.5
 10
20.040000000000003
 20
8.5
 10
20.06
 20
8.480000000000018
 10
20.099999999999998
 20
8.460000000000008
 10
20.12
 20
8.460000000000008
 10
20.139999999999997
 20
8.439999999999998
 10
20.16
 20
8.439999999999998
 10
20.2
 20
8.420000000000016
 10
20.220000000000002
 20
8.400000000000006
 10
20.24
 20
8.400000000000006
 10
20.279999999999998
 20
8.379999999999995
 10
20.3
 20
8.379999999999995
 10
20.320000000000004
 20
8.360000000000014
 10
20.360000000000003
 20
8.360000000000014
 10
20.38
 20
8.340000000000003
 10
20.400000000000002
 20
8.340000000000003
 10
20.44
 20
8.320000000000022
 10
20.459999999999997
 20
8.320000000000022
 10
20.500000000000004
 20
8.300000000000011
 10
20.52
 20
8.300000000000011
 10
20.540000000000003
 20
8.280000000000001
 10
20.580000000000002
 20
8.280000000000001
 10
20.599999999999998
 20
8.26000000000002
 10
20.62
 20
8.26000000000002
 10
20.639999999999997
 20
8.240000000000009
 10
20.680000000000003
 20
8.240000000000009
 10
20.7
 20
8.240000000000009
 10
20.720000000000002
 20
8.219999999999999
 10
20.74
 20
8.219999999999999
 10
20.76
 20
8.219999999999999
 10
20.779999999999998
 20
8.200000000000017
 10
20.8
 20
8.200000000000017
 10
20.820000000000004
 20
8.200000000000017
 10
20.860000000000003
 20
8.180000000000007
 10
20.88
 20
8.180000000000007
 10
20.900000000000002
 20
8.180000000000007
 10
20.919999999999998
 20
8.180000000000007
 10
20.94
 20
8.159999999999997
 10
20.959999999999997
 20
8.159999999999997
 10
20.98
 20
8.159999999999997
 10
21.02
 20
8.140000000000015
 10
21.040000000000003
 20
8.140000000000015
 10
21.06
 20
8.140000000000015
 10
21.080000000000002
 20
8.140000000000015
 10
21.099999999999998
 20
8.120000000000005
 10
21.12
 20
8.120000000000005
 10
21.16
 20
8.120000000000005
 10
21.180000000000003
 20
8.120000000000005
 10
21.2
 20
8.099999999999994
 10
21.220000000000002
 20
8.099999999999994
 10
21.24
 20
8.099999999999994
 10
21.279999999999998
 20
8.099999999999994
 10
21.3
 20
8.080000000000013
 10
21.320000000000004
 20
8.080000000000013
 10
21.34
 20
8.080000000000013
 10
21.360000000000003
 20
8.080000000000013
 10
21.38
 20
8.080000000000013
 10
21.400000000000002
 20
8.060000000000002
 10
21.419999999999998
 20
8.060000000000002
 10
21.44
 20
8.060000000000002
 10
21.459999999999997
 20
8.060000000000002
 10
21.48
 20
8.060000000000002
 10
21.500000000000004
 20
8.060000000000002
 10
21.52
 20
8.060000000000002
 10
21.540000000000003
 20
8.04000000000002
 10
21.56
 20
8.04000000000002
 10
21.580000000000002
 20
8.04000000000002
 10
21.599999999999998
 20
8.04000000000002
 10
21.62
 20
8.04000000000002
 10
21.639999999999997
 20
8.04000000000002
 10
21.66
 20
8.04000000000002
 10
21.680000000000003
 20
8.02000000000001
 10
21.7
 20
8.02000000000001
 10
21.720000000000002
 20
8.02000000000001
 10
21.74
 20
8.02000000000001
 10
21.76
 20
8.02000000000001
 10
21.779999999999998
 20
8.02000000000001
 10
21.8
 20
8.02000000000001
 10
21.820000000000004
 20
8.02000000000001
 10
21.84
 20
8.02000000000001
 10
21.860000000000003
 20
8.02000000000001
 10
21.88
 20
8.02000000000001
 10
21.900000000000002
 20
8.0
 10
21.919999999999998
 20
8.0
 10
21.94
 20
8.0
 10
21.959999999999997
 20
8.0
 10
21.98
 20
8.0
 10
22.000000000000004
 20
8.0
 10
22.02
 20
8.0
 10
22.040000000000003
 20
8.0
 10
22.06
 20
8.0
 10
22.080000000000002
 20
8.0
 10
22.099999999999998
 20
8.0
 10
22.12
 20
8.0
 10
22.139999999999997
 20
8.0
 10
22.16
 20
8.0
 10
22.180000000000003
 20
8.0
 10
22.2
 20
8.0
 10
22.98
 20
7.900000000000006
 10
23.720000000000002
 20
7.640000000000015
 10
24.38
 20
7.260000000000019
 10
24.959999999999997
 20
6.760000000000019
 10
25.44
 20
6.159999999999997
 10
25.779999999999998
 20
5.480000000000018
 10
26.000000000000004
 20
4.740000000000009
 10
26.080000000000002
 20
3.9399999999999977
 10
25.98
 20
3.140000000000015
 10
25.74
 20
2.4000000000000057
 10
25.38
 20
1.740000000000009
 10
24.88
 20
1.1400000000000148
 10
24.3
 20
0.6599999999999966
 10
23.62
 20
0.30000000000001137
 10
22.88
 20
0.0800000000000125
 10
22.080000000000002
 20
0.0
  0
LWPOLYLINE
  5
31
330
17
100
AcDbEntity
  8
CORTE
100
AcDbPolyline
 90
16
 70
1
 10
5.260000000000002
 20
4.0
 10
5.16
 20
4.52000000000001
 10
4.879999999999999
 20
4.939999999999998
 10
4.440000000000001
 20
5.219999999999999
 10
3.9400000000000013
 20
5.320000000000022
 10
3.4200000000000017
 20
5.219999999999999
 10
3.0
 20
4.939999999999998
 10
2.719999999999999
 20
4.52000000000001
 10
2.6000000000000014
 20
4.0
 10
2.719999999999999
 20
3.480000000000018
 10
3.0
 20
3.0600000000000023
 10
3.4200000000000017
 20
2.780000000000001
 10
3.9400000000000013
 20
2.680000000000007
 10
4.440000000000001
 20
2.780000000000001
 10
4.879999999999999
 20
3.0600000000000023
 10
5.16
 20
3.480000000000018
  0
LWPOLYLINE
  5
32
330
17
100
AcDbEntity
  8
CORTE
100
AcDbPolyline
 90
16
 70
1
 10
23.540000000000003
 20
4.0
 10
23.419999999999998
 20
4.5800000000000125
 10
23.099999999999998
 20
5.060000000000002
 10
22.62
 20
5.3799999999999955
 10
22.040000000000003
 20
5.5
 10
21.44
 20
5.3799999999999955
 10
20.98
 20
5.060000000000002
 10
20.66
 20
4.5800000000000125
 10
20.540000000000003
 20
4.0
 10
20.66
 20
3.420000000000016
 10
20.98
 20
2.9399999999999977
 10
21.44
 20
2.6200000000000045
 10
22.040000000000003
 20
2.5
 10
22.62
 20
2.6200000000000045
 10
23.099999999999998
 20
2.9399999999999977
 10
23.419999999999998
 20
3.420000000000016
  0
ENDSEC
  0
SECTION
  2
OBJECTS
  0
DICTIONARY
  5
A
330
0
100
AcDbDictionary
281
1
  3
ACAD_COLOR
350
B
  3
ACAD_GROUP
350
C
  3
ACAD_LAYOUT
350
D
  3
ACAD_MATERIAL
350
E
  3
ACAD_MLEADERSTYLE
350
F
  3
ACAD_MLINESTYLE
350
10
  3
ACAD_PLOTSETTINGS
350
11
  3
ACAD_PLOTSTYLENAME
350
12
  3
ACAD_SCALELIST
350
14
  3
ACAD_TABLESTYLE
350
15
  3
ACAD_VISUALSTYLE
350
16
  3
EZDXF_META
350
2D
  0
DICTIONARY
  5
B
330
A
100
AcDbDictionary
281
1
  0
DICTIONARY
  5
C
330
A
100
AcDbDictionary
281
1
  0
DICTIONARY
  5
D
330
A
100
AcDbDictionary
281
1
  3
Model
350
1A
  3
Layout1
350
1E
  0
DICTIONARY
  5
E
330
A
100
AcDbDictionary
281
1
  3
ByBlock
350
1F
  3
ByLayer
350
20
  3
Global
350
21
  0
DICTIONARY
  5
F
330
A
100
AcDbDictionary
281
1
  3
Standard
350
2C
  0
DICTIONARY
  5
10
330
A
100
AcDbDictionary
281
1
  3
Standard
350
22
  0
DICTIONARY
  5
11
330
A
100
AcDbDictionary
281
1
  0
ACDBDICTIONARYWDFLT
  5
12
330
A
100
AcDbDictionary
281
1
  3
Normal
350
13
100
AcDbDictionaryWithDefault
340
13
  0
ACDBPLACEHOLDER
  5
13
330
12
  0
DICTIONARY
  5
14
330
A
100
AcDbDictionary
281
1
  0
DICTIONARY
  5
15
330
A
100
AcDbDictionary
281
1
  0
DICTIONARY
  5
16
330
A
100
AcDbDictionary
281
1
  0
LAYOUT
  5
1A
330
D
100
AcDbPlotSettings
  1

  4
A3
  6

 40
7.5
 41
20.0
 42
7.5
 43
20.0
 44
420.0
 45
297.0
 46
0.0
 47
0.0
 48
0.0
 49
0.0
140
0.0
141
0.0
142
1.0
143
1.0
 70
1024
 72
1
 73
0
 74
5
  7

 75
16
 76
0
 77
2
 78
300
147
1.0
148
0.0
149
0.0
100
AcDbLayout
  1
Model
 70
1
 71
0
 10
0.0
 20
0.0
 11
420.0
 21
297.0
 12
0.0
 22
0.0
 32
0.0
 14
1e+20
 24
1e+20
 34
1e+20
 15
-1e+20
 25
-1e+20
 35
-1e+20
146
0.0
 13
0.0
 23
0.0
 33
0.0
 16
1.0
 26
0.0
 36
0.0
 17
0.0
 27
1.0
 37
0.0
 76
1
330
17
  0
LAYOUT
  5
1E
330
D
100
AcDbPlotSettings
  1

  4
A3
  6

 40
7.5
 41
20.0
 42
7.5
 43
20.0
 44
420.0
 45
297.0
 46
0.0
 47
0.0
 48
0.0
 49
0.0
140
0.0
141
0.0
142
1.0
143
1.0
 70
0
 72
1
 73
0
 74
5
  7

 75
16
 76
0
 77
2
 78
300
147
1.0
148
0.0
149
0.0
100
AcDbLayout
  1
Layout1
 70
1
 71
1
 10
0.0
 20
0.0
 11
420.0
 21
297.0
 12
0.0
 22
0.0
 32
0.0
 14
1e+20
 24
1e+20
 34
1e+20
 15
-1e+20
 25
-1e+20
 35
-1e+20
146
0.0
 13
0.0
 23
0.0
 33
0.0
 16
1.0
 26
0.0
 36
0.0
 17
0.0
 27
1.0
 37
0.0
 76
1
330
1B
  0
MATERIAL
  5
1F
102
{ACAD_REACTORS
330
E
102
}
330
E
100
AcDbMaterial
  1
ByBlock
  2

 70
0
 40
1.0
 71
1
 41
1.0
 91
-1023410177
 42
1.0
 72
1
  3

 73
1
 74
1
 75
1
 44
0.5
 73
0
 45
1.0
 46
1.0
 77
1
  4

 78
1
 79
1
170
1
 48
1.0
171
1
  6

172
1
173
1
174
1
140
1.0
141
1.0
175
1
  7

176
1
177
1
178
1
143
1.0
179
1
  8

270
1
271
1
272
1
145
1.0
146
1.0
273
1
  9

274
1
275
1
276
1
 42
1.0
 72
1
  3

 73
1
 74
1
 75
1
 94
63
  0
MATERIAL
  5
20
102
{ACAD_REACTORS
330
E
102
}
330
E
100
AcDbMaterial
  1
ByLayer
  2

 70
0
 40
1.0
 71
1
 41
1.0
 91
-1023410177
 42
1.0
 72
1
  3

 73
1
 74
1
 75
1
 44
0.5
 73
0
 45
1.0
 46
1.0
 77
1
  4

 78
1
 79
1
170
1
 48
1.0
171
1
  6

172
1
173
1
174
1
140
1.0
141
1.0
175
1
  7

176
1
177
1
178
1
143
1.0
179
1
  8

270
1
271
1
272
1
145
1.0
146
1.0
273
1
  9

274
1
275
1
276
1
 42
1.0
 72
1
  3

 73
1
 74
1
 75
1
 94
63
  0
MATERIAL
  5
21
102
{ACAD_REACTORS
330
E
102
}
330
E
100
AcDbMaterial
  1
Global
  2

 70
0
 40
1.0
 71
1
 41
1.0
 91
-1023410177
 42
1.0
 72
1
  3

 73
1
 74
1
 75
1
 44
0.5
 73
0
 45
1.0
 46
1.0
 77
1
  4

 78
1
 79
1
170
1
 48
1.0
171
1
  6

172
1
173
1
174
1
140
1.0
141
1.0
175
1
  7

176
1
177
1
178
1
143
1.0
179
1
  8

270
1
271
1
272
1
145
1.0
146
1.0
273
1
  9

274
1
275
1
276
1
 42
1.0
 72
1
  3

 73
1
 74
1
 75
1
 94
63
  0
MLINESTYLE
  5
22
102
{ACAD_REACTORS
330
10
102
}
330
10
100
AcDbMlineStyle
  2
Standard
 70
0
  3

 62
256
 51
90.0
 52
90.0
 71
2
 49
0.5
 62
256
  6
BYLAYER
 49
-0.5
 62
256
  6
BYLAYER
  0
MLEADERSTYLE
  5
2C
102
{ACAD_REACTORS
330
F
102
}
330
F
100
AcDbMLeaderStyle
179
2
170
2
171
1
172
0
 90
2
 40
0.0
 41
0.0
173
1
 91
-1056964608
 92
-2
290
1
 42
2.0
291
1
 43
8.0
  3
Standard
 44
4.0
300

342
29
174
1
175
1
176
0
178
1
 93
-1056964608
 45
4.0
292
0
297
0
 46
4.0
 94
-1056964608
 47
1.0
 49
1.0
140
1.0
294
1
141
0.0
177
0
142
1.0
295
0
296
0
143
3.75
271
0
272
9
273
9
  0
DICTIONARY
  5
2D
330
A
100
AcDbDictionary
280
1
281
1
  3
CREATED_BY_EZDXF
350
2E
  3
WRITTEN_BY_EZDXF
350
35
  0
DICTIONARYVAR
  5
2E
330
2D
100
DictionaryVariables
280
0
  1
1.4.4 @ 2026-10-06T16:56:34.699319+00:00
  0
DICTIONARYVAR
  5
35
330
2D
100
DictionaryVariables
280
0
  1
1.4.4 @ 2026-10-06T16:56:34.705900+00:00
  0
ENDSEC
  0
EOF
