  0
SECTION
  2
HEADER
  9
$ACADVER
  1
AC1015
  9
$ACADMAINTVER
 70
6
  9
$DWGCODEPAGE
  3
ANSI_1252
  9
$INSBASE
 10
0.0
 20
0.0
 30
0.0
  9
$EXTMIN
 10
1e+20
 20
1e+20
 30
1e+20
  9
$EXTMAX
 10
-1e+20
 20
-1e+20
 30
-1e+20
  9
$LIMMIN
 10
0.0
 20
0.0
  9
$LIMMAX
 10
420.0
 20
297.0
  9
$ORTHOMODE
 70
0
  9
$REGENMODE
 70
1
  9
$FILLMODE
 70
1
  9
$QTEXTMODE
 70
0
  9
$MIRRTEXT
 70
1
  9
$LTSCALE
 40
1.0
  9
$ATTMODE
 70
1
  9
$TEXTSIZE
 40
2.5
  9
$TRACEWID
 40
1.0
  9
$TEXTSTYLE
  7
Standard
  9
$CLAYER
  8
0
  9
$CELTYPE
  6
ByLayer
  9
$CECOLOR
 62
256
  9
$CELTSCALE
 40
1.0
  9
$DISPSILH
 70
0
  9
$DIMSCALE
 40
1.0
  9
$DIMASZ
 40
2.5
  9
$DIMEXO
 40
0.625
  9
$DIMDLI
 40
3.75
  9
$DIMRND
 40
0.0
  9
$DIMDLE
 40
0.0
  9
$DIMEXE
 40
1.25
  9
$DIMTP
 40
0.0
  9
$DIMTM
 40
0.0
  9
$DIMTXT
 40
2.5
  9
$DIMCEN
 40
2.5
  9
$DIMTSZ
 40
0.0
  9
$DIMTOL
 70
0
  9
$DIMLIM
 70
0
  9
$DIMTIH
 70
0
  9
$DIMTOH
 70
0
  9
$DIMSE1
 70
0
  9
$DIMSE2
 70
0
  9
$DIMTAD
 70
1
  9
$DIMZIN
 70
8
  9
$DIMBLK
  1

  9
$DIMASO
 70
1
  9
$DIMSHO
 70
1
  9
$DIMPOST
  1

  9
$DIMAPOST
  1

  9
$DIMALT
 70
0
  9
$DIMALTD
 70
3
  9
$DIMALTF
 40
0.03937007874
  9
$DIMLFAC
 40
1.0
  9
$DIMTOFL
 70
1
  9
$DIMTVP
 40
0.0
  9
$DIMTIX
 70
0
  9
$DIMSOXD
 70
0
  9
$DIMSAH
 70
0
  9
$DIMBLK1
  1

  9
$DIMBLK2
  1

  9
$DIMSTYLE
  2
ISO-25
  9
$DIMCLRD
 70
0
  9
$DIMCLRE
 70
0
  9
$DIMCLRT
 70
0
  9
$DIMTFAC
 40
1.0
  9
$DIMGAP
 40
0.625
  9
$DIMJUST
 70
0
  9
$DIMSD1
 70
0
  9
$DIMSD2
 70
0
  9
$DIMTOLJ
 70
0
  9
$DIMTZIN
 70
8
  9
$DIMALTZ
 70
0
  9
$DIMALTTZ
 70
0
  9
$DIMUPT
 70
0
  9
$DIMDEC
 70
2
  9
$DIMTDEC
 70
2
  9
$DIMALTU
 70
2
  9
$DIMALTTD
 70
3
  9
$DIMTXSTY
  7
Standard
  9
$DIMAUNIT
 70
0
  9
$DIMADEC
 70
0
  9
$DIMALTRND
 40
0.0
  9
$DIMAZIN
 70
0
  9
$DIMDSEP
 70
44
  9
$DIMATFIT
 70
3
  9
$DIMFRAC
 70
0
  9
$DIMLDRBLK
  1

  9
$DIMLUNIT
 70
2
  9
$DIMLWD
 70
-2
  9
$DIMLWE
 70
-2
  9
$DIMTMOVE
 70
0
  9
$LUNITS
 70
2
  9
$LUPREC
 70
4
  9
$SKETCHINC
 40
1.0
  9
$FILLETRAD
 40
10.0
  9
$AUNITS
 70
0
  9
$AUPREC
 70
2
  9
$MENU
  1
.
  9
$ELEVATION
 40
0.0
  9
$PELEVATION
 40
0.0
  9
$THICKNESS
 40
0.0
  9
$LIMCHECK
 70
0
  9
$CHAMFERA
 40
0.0
  9
$CHAMFERB
 40
0.0
  9
$CHAMFERC
 40
0.0
  9
$CHAMFERD
 40
0.0
  9
$SKPOLY
 70
0
  9
$TDCREATE
 40
2461320.705949074
  9
$TDUCREATE
 40
2458532.153996898
  9
$TDUPDATE
 40
2461320.705949074
  9
$TDUUPDATE
 40
2458532.1544311
  9
$TDINDWG
 40
0.0
  9
$TDUSRTIMER
 40
0.0
  9
$USRTIMER
 70
1
  9
$ANGBASE
 50
0.0
  9
$ANGDIR
 70
0
  9
$PDMODE
 70
0
  9
$PDSIZE
 40
0.0
  9
$PLINEWID
 40
0.0
  9
$SPLFRAME
 70
0
  9
$SPLINETYPE
 70
6
  9
$SPLINESEGS
 70
8
  9
$HANDSEED
  5
35
  9
$SURFTAB1
 70
6
  9
$SURFTAB2
 70
6
  9
$SURFTYPE
 70
6
  9
$SURFU
 70
6
  9
$SURFV
 70
6
  9
$UCSBASE
  2

  9
$UCSNAME
  2

  9
$UCSORG
 10
0.0
 20
0.0
 30
0.0
  9
$UCSXDIR
 10
1.0
 20
0.0
 30
0.0
  9
$UCSYDIR
 10
0.0
 20
1.0
 30
0.0
  9
$UCSORTHOREF
  2

  9
$UCSORTHOVIEW
 70
0
  9
$UCSORGTOP
 10
0.0
 20
0.0
 30
0.0
  9
$UCSORGBOTTOM
 10
0.0
 20
0.0
 30
0.0
  9
$UCSORGLEFT
 10
0.0
 20
0.0
 30
0.0
  9
$UCSORGRIGHT
 10
0.0
 20
0.0
 30
0.0
  9
$UCSORGFRONT
 10
0.0
 20
0.0
 30
0.0
  9
$UCSORGBACK
 10
0.0
 20
0.0
 30
0.0
  9
$PUCSBASE
  2

  9
$PUCSNAME
  2

  9
$PUCSORG
 10
0.0
 20
0.0
 30
0.0
  9
$PUCSXDIR
 10
1.0
 20
0.0
 30
0.0
  9
$PUCSYDIR
 10
0.0
 20
1.0
 30
0.0
  9
$PUCSORTHOREF
  2

  9
$PUCSORTHOVIEW
 70
0
  9
$PUCSORGTOP
 10
0.0
 20
0.0
 30
0.0
  9
$PUCSORGBOTTOM
 10
0.0
 20
0.0
 30
0.0
  9
$PUCSORGLEFT
 10
0.0
 20
0.0
 30
0.0
  9
$PUCSORGRIGHT
 10
0.0
 20
0.0
 30
0.0
  9
$PUCSORGFRONT
 10
0.0
 20
0.0
 30
0.0
  9
$PUCSORGBACK
 10
0.0
 20
0.0
 30
0.0
  9
$USERI1
 70
0
  9
$USERI2
 70
0
  9
$USERI3
 70
0
  9
$USERI4
 70
0
  9
$USERI5
 70
0
  9
$USERR1
 40
0.0
  9
$USERR2
 40
0.0
  9
$USERR3
 40
0.0
  9
$USERR4
 40
0.0
  9
$USERR5
 40
0.0
  9
$WORLDVIEW
 70
1
  9
$SHADEDGE
 70
3
  9
$SHADEDIF
 70
70
  9
$TILEMODE
 70
1
  9
$MAXACTVP
 70
64
  9
$PINSBASE
 10
0.0
 20
0.0
 30
0.0
  9
$PLIMCHECK
 70
0
  9
$PEXTMIN
 10
1e+20
 20
1e+20
 30
1e+20
  9
$PEXTMAX
 10
-1e+20
 20
-1e+20
 30
-1e+20
  9
$PLIMMIN
 10
0.0
 20
0.0
  9
$PLIMMAX
 10
420.0
 20
297.0
  9
$UNITMODE
 70
0
  9
$VISRETAIN
 70
1
  9
$PLINEGEN
 70
0
  9
$PSLTSCALE
 70
1
  9
$TREEDEPTH
 70
3020
  9
$CMLSTYLE
  2
Standard
  9
$CMLJUST
 70
0
  9
$CMLSCALE
 40
20.0
  9
$PROXYGRAPHICS
 70
1
  9
$MEASUREMENT
 70
1
  9
$CELWEIGHT
370
-1
  9
$ENDCAPS
280
0
  9
$JOINSTYLE
280
0
  9
$LWDISPLAY
290
0
  9
$INSUNITS
 70
4
  9
$HYPERLINKBASE
  1

  9
$STYLESHEET
  1

  9
$XEDIT
290
1
  9
$CEPSNTYPE
380
0
  9
$PSTYLEMODE
290
1
  9
$FINGERPRINTGUID
  2
{3B5AB591-C2A7-405C-A637-9808372DD563}
  9
$VERSIONGUID
  2
{858AE955-E58B-43D1-BE69-7212ED6C24A6}
  9
$EXTNAMES
290
1
  9
$PSVPSCALE
 40
0.0
  9
$OLESTARTUP
290
0
  0
ENDSEC
  0
SECTION
  2
CLASSES
  0
CLASS
  1
ACDBDICTIONARYWDFLT
  2
AcDbDictionaryWithDefault
  3
ObjectDBX Classes
 90
0
280
0
281
0
  0
CLASS
  1
SUN
  2
AcDbSun
  3
SCENEOE
 90
1153
280
0
281
0
  0
CLASS
  1
VISUALSTYLE
  2
AcDbVisualStyle
  3
ObjectDBX Classes
 90
4095
280
0
281
0
  0
CLASS
  1
MATERIAL
  2
AcDbMaterial
  3
ObjectDBX Classes
 90
1153
280
0
281
0
  0
CLASS
  1
SCALE
  2
AcDbScale
  3
ObjectDBX Classes
 90
1153
280
0
281
0
  0
CLASS
  1
TABLESTYLE
  2
AcDbTableStyle
  3
ObjectDBX Classes
 90
4095
280
0
281
0
  0
CLASS
  1
MLEADERSTYLE
  2
AcDbMLeaderStyle
  3
ACDB_MLEADERSTYLE_CLASS
 90
4095
280
0
281
0
  0
CLASS
  1
DICTIONARYVAR
  2
AcDbDictionaryVar
  3
ObjectDBX Classes
 90
0
280
0
281
0
  0
CLASS
  1
CELLSTYLEMAP
  2
AcDbCellStyleMap
  3
ObjectDBX Classes
 90
1152
280
0
281
0
  0
CLASS
  1
MENTALRAYRENDERSETTINGS
  2
AcDbMentalRayRenderSettings
  3
SCENEOE
 90
1024
280
0
281
0
  0
CLASS
  1
ACDBDETAILVIEWSTYLE
  2
AcDbDetailViewStyle
  3
ObjectDBX Classes
 90
1025
280
0
281
0
  0
CLASS
  1
ACDBSECTIONVIEWSTYLE
  2
AcDbSectionViewStyle
  3
ObjectDBX Classes
 90
1025
280
0
281
0
  0
CLASS
  1
RASTERVARIABLES
  2
AcDbRasterVariables
  3
ISM
 90
0
280
0
281
0
  0
CLASS
  1
ACDBPLACEHOLDER
  2
AcDbPlaceHolder
  3
ObjectDBX Classes
 90
0
280
0
281
0
  0
CLASS
  1
LAYOUT
  2
AcDbLayout
  3
ObjectDBX Classes
 90
0
280
0
281
0
  0
ENDSEC
  0
SECTION
  2
TABLES
  0
TABLE
  2
VPORT
  5
8
330
0
100
AcDbSymbolTable
 70
1
  0
VPORT
  5
23
330
8
100
AcDbSymbolTableRecord
100
AcDbViewportTableRecord
  2
*Active
 70
0
 10
0.0
 20
0.0
 11
1.0
 21
1.0
 12
0.0
 22
0.0
 13
0.0
 23
0.0
 14
0.5
 24
0.5
 15
0.5
 25
0.5
 16
0.0
 26
0.0
 36
1.0
 17
0.0
 27
0.0
 37
0.0
 40
1000.0
 41
1.34
 42
50.0
 43
0.0
 44
0.0
 50
0.0
 51
0.0
 71
0
 72
1000
 73
1
 74
3
 75
0
 76
0
 77
0
 78
0
281
0
 65
0
146
0.0
  0
ENDTAB
  0
TABLE
  2
LTYPE
  5
2
330
0
100
AcDbSymbolTable
 70
3
  0
LTYPE
  5
24
330
2
100
AcDbSymbolTableRecord
100
AcDbLinetypeTableRecord
  2
ByBlock
 70
0
  3

 72
65
 73
0
 40
0.0
  0
LTYPE
  5
25
330
2
100
AcDbSymbolTableRecord
100
AcDbLinetypeTableRecord
  2
ByLayer
 70
0
  3

 72
65
 73
0
 40
0.0
  0
LTYPE
  5
26
330
2
100
AcDbSymbolTableRecord
100
AcDbLinetypeTableRecord
  2
Continuous
 70
0
  3

 72
65
 73
0
 40
0.0
  0
ENDTAB
  0
TABLE
  2
LAYER
  5
1
330
0
100
AcDbSymbolTable
 70
3
  0
LAYER
  5
27
330
1
100
AcDbSymbolTableRecord
100
AcDbLayerTableRecord
  2
0
 70
0
 62
7
  6
Continuous
370
-3
390
13
  0
LAYER
  5
28
330
1
100
AcDbSymbolTableRecord
100
AcDbLayerTableRecord
  2
Defpoints
 70
0
 62
7
  6
Continuous
290
0
370
-3
390
13
  0
LAYER
  5
2F
330
1
100
AcDbSymbolTableRecord
100
AcDbLayerTableRecord
  2
CORTE
 70
0
 62
7
  6
Continuous
370
-3
390
13
  0
ENDTAB
  0
TABLE
  2
STYLE
  5
5
330
0
100
AcDbSymbolTable
 70
1
  0
STYLE
  5
29
330
5
100
AcDbSymbolTableRecord
100
AcDbTextStyleTableRecord
  2
Standard
 70
0
 40
0.0
 41
1.0
 50
0.0
 71
0
 42
2.5
  3
txt
  4

  0
ENDTAB
  0
TABLE
  2
VIEW
  5
7
330
0
100
AcDbSymbolTable
 70
0
  0
ENDTAB
  0
TABLE
  2
UCS
  5
6
330
0
100
AcDbSymbolTable
 70
0
  0
ENDTAB
  0
TABLE
  2
APPID
  5
3
330
0
100
AcDbSymbolTable
 70
3
  0
APPID
  5
2A
330
3
100
AcDbSymbolTableRecord
100
AcDbRegAppTableRecord
  2
ACAD
 70
0
  0
APPID
  5
32
330
3
100
AcDbSymbolTableRecord
100
AcDbRegAppTableRecord
  2
HATCHBACKGROUNDCOLOR
 70
0
  0
APPID
  5
33
330
3
100
AcDbSymbolTableRecord
100
AcDbRegAppTableRecord
  2
EZDXF
 70
0
  0
ENDTAB
  0
TABLE
  2
DIMSTYLE
  5
4
330
0
100
AcDbSymbolTable
 70
1
100
AcDbDimStyleTable
  0
DIMSTYLE
105
2B
330
4
100
AcDbSymbolTableRecord
100
AcDbDimStyleTableRecord
  2
Standard
 70
0
  3

  4

 40
1.0
 41
2.5
 42
0.625
 43
3.75
 44
1.25
 45
0.0
 46
0.0
 47
0.0
 48
0.0
140
2.5
141
2.5
142
0.0
143
0.03937007874
144
1.0
145
0.0
146
1.0
147
0.625
148
0.0
 71
0
 72
0
 73
0
 74
0
 75
0
 76
0
 77
1
 78
8
 79
3
170
0
171
3
172
1
173
0
174
0
175
0
176
0
177
0
178
0
179
2
271
2
272
2
273
2
274
3
275
0
276
0
277
2
278
44
279
0
280
0
281
0
282
0
283
0
284
8
285
0
286
0
288
0
289
3
371
-2
372
-2
  0
ENDTAB
  0
TABLE
  2
BLOCK_RECORD
  5
9
330
0
100
AcDbSymbolTable
 70
2
  0
BLOCK_RECORD
  5
17
330
9
100
AcDbSymbolTableRecord
100
AcDbBlockTableRecord
  2
*Model_Space
340
1A
  0
BLOCK_RECORD
  5
1B
330
9
100
AcDbSymbolTableRecord
100
AcDbBlockTableRecord
  2
*Paper_Space
340
1E
  0
ENDTAB
  0
ENDSEC
  0
SECTION
  2
BLOCKS
  0
BLOCK
  5
18
330
17
100
AcDbEntity
  8
0
100
AcDbBlockBegin
  2
*Model_Space
 70
0
 10
0.0
 20
0.0
 30
0.0
  3
*Model_Space
  1

  0
ENDBLK
  5
19
330
17
100
AcDbEntity
  8
0
100
AcDbBlockEnd
  0
BLOCK
  5
1C
330
1B
100
AcDbEntity
  8
0
100
AcDbBlockBegin
  2
*Paper_Space
 70
0
 10
0.0
 20
0.0
 30
0.0
  3
*Paper_Space
  1

  0
ENDBLK
  5
1D
330
1B
100
AcDbEntity
  8
0
100
AcDbBlockEnd
  0
ENDSEC
  0
SECTION
  2
ENTITIES
  0
LWPOLYLINE
  5
30
330
17
100
AcDbEntity
  8
CORTE
100
AcDbPolyline
 90
3157
 70
1
 10
37.220000000000006
 20
0.0
 10
36.18
 20
0.040000000000020464
 10
36.18
 20
0.060000000000002274
 10
36.160000000000004
 20
0.060000000000002274
 10
36.160000000000004
 20
0.0800000000000125
 10
36.14000000000001
 20
0.10000000000002274
 10
36.14000000000001
 20
0.12000000000000455
 10
36.12
 20
0.12000000000000455
 10
36.12
 20
0.14000000000001478
 10
36.1
 20
0.14000000000001478
 10
36.1
 20
0.160000000000025
 10
36.1
 20
0.18000000000000682
 10
36.080000000000005
 20
0.18000000000000682
 10
36.080000000000005
 20
0.20000000000001705
 10
36.080000000000005
 20
0.22000000000002728
 10
36.06000000000001
 20
0.22000000000002728
 10
36.06000000000001
 20
0.2400000000000091
 10
36.04
 20
0.2400000000000091
 10
36.04
 20
0.2600000000000193
 10
36.04
 20
0.28000000000000114
 10
36.02
 20
0.28000000000000114
 10
36.02
 20
0.30000000000001137
 10
36.00000000000001
 20
0.3200000000000216
 10
36.00000000000001
 20
0.3400000000000034
 10
35.98
 20
0.3400000000000034
 10
35.98
 20
0.36000000000001364
 10
35.98
 20
0.3800000000000239
 10
35.96
 20
0.3800000000000239
 10
35.96
 20
0.4000000000000057
 10
35.940000000000005
 20
0.4200000000000159
 10
35.940000000000005
 20
0.44000000000002615
 10
35.92000000000001
 20
0.46000000000000796
 10
35.92000000000001
 20
0.4800000000000182
 10
35.9
 20
0.4800000000000182
 10
35.9
 20
0.5
 10
35.88
 20
0.5200000000000102
 10
35.88
 20
0.5400000000000205
 10
35.86000000000001
 20
0.5600000000000023
 10
35.86000000000001
 20
0.5800000000000125
 10
35.839999999999996
 20
0.6000000000000227
 10
35.839999999999996
 20
0.6200000000000045
 10
35.82
 20
0.6200000000000045
 10
35.82
 20
0.6400000000000148
 10
35.82
 20
0.660000000000025
 10
35.800000000000004
 20
0.6800000000000068
 10
35.800000000000004
 20
0.700000000000017
 10
35.78000000000001
 20
0.700000000000017
 10
35.78000000000001
 20
0.7200000000000273
 10
35.78000000000001
 20
0.7400000000000091
 10
35.76
 20
0.7400000000000091
 10
35.76
 20
0.7600000000000193
 10
35.76
 20
0.7800000000000011
 10
35.74
 20
0.8000000000000114
 10
35.74
 20
0.8200000000000216
 10
35.720000000000006
 20
0.8400000000000034
 10
35.720000000000006
 20
0.8600000000000136
 10
35.70000000000001
 20
0.8800000000000239
 10
35.70000000000001
 20
0.9000000000000057
 10
35.68
 20
0.9000000000000057
 10
35.68
 20
0.9200000000000159
 10
35.68
 20
0.9400000000000261
 10
35.660000000000004
 20
0.960000000000008
 10
35.660000000000004
 20
0.9800000000000182
 10
35.64000000000001
 20
1.0
 10
35.64000000000001
 20
1.0200000000000102
 10
35.64000000000001
 20
1.0400000000000205
 10
35.62
 20
1.0400000000000205
 10
35.62
 20
1.0600000000000023
 10
35.62
 20
1.0800000000000125
 10
35.6
 20
1.1000000000000227
 10
35.6
 20
1.1200000000000045
 10
35.6
 20
1.1400000000000148
 10
35.580000000000005
 20
1.1400000000000148
 10
35.580000000000005
 20
1.160000000000025
 10
35.580000000000005
 20
1.1800000000000068
 10
35.580000000000005
 20
1.200000000000017
 10
35.56000000000001
 20
1.2200000000000273
 10
35.56000000000001
 20
1.240000000000009
 10
35.56000000000001
 20
1.2600000000000193
 10
35.54
 20
1.2600000000000193
 10
35.54
 20
1.2800000000000011
 10
35.54
 20
1.3000000000000114
 10
35.52
 20
1.3200000000000216
 10
35.52
 20
1.3400000000000034
 10
35.52
 20
1.3600000000000136
 10
35.52
 20
1.3800000000000239
 10
35.50000000000001
 20
1.4000000000000057
 10
35.50000000000001
 20
1.420000000000016
 10
35.50000000000001
 20
1.4400000000000261
 10
35.48
 20
1.460000000000008
 10
35.48
 20
1.4800000000000182
 10
35.48
 20
1.5
 10
35.48
 20
1.5200000000000102
 10
35.48
 20
1.5400000000000205
 10
35.46
 20
1.5400000000000205
 10
35.46
 20
1.5600000000000023
 10
35.46
 20
1.5800000000000125
 10
35.46
 20
1.6000000000000227
 10
35.46
 20
1.6200000000000045
 10
35.440000000000005
 20
1.6400000000000148
 10
35.440000000000005
 20
1.660000000000025
 10
35.440000000000005
 20
1.6800000000000068
 10
35.440000000000005
 20
1.700000000000017
 10
35.440000000000005
 20
1.7200000000000273
 10
35.440000000000005
 20
1.740000000000009
 10
35.42000000000001
 20
1.7600000000000193
 10
35.42000000000001
 20
1.7800000000000011
 10
35.42000000000001
 20
1.8000000000000114
 10
35.42000000000001
 20
1.8200000000000216
 10
35.42000000000001
 20
1.8400000000000034
 10
35.42000000000001
 20
1.8600000000000136
 10
35.42000000000001
 20
1.8800000000000239
 10
35.42000000000001
 20
1.9000000000000057
 10
35.42000000000001
 20
1.920000000000016
 10
35.42000000000001
 20
1.9400000000000261
 10
35.4
 20
1.9400000000000261
 10
35.4
 20
1.960000000000008
 10
35.4
 20
1.9800000000000182
 10
35.4
 20
2.0
 10
35.4
 20
2.0200000000000102
 10
35.4
 20
2.0400000000000205
 10
35.4
 20
2.0600000000000023
 10
35.4
 20
2.0800000000000125
 10
35.4
 20
2.1000000000000227
 10
35.4
 20
2.1200000000000045
 10
35.4
 20
2.140000000000015
 10
35.4
 20
2.160000000000025
 10
35.4
 20
2.180000000000007
 10
35.4
 20
2.200000000000017
 10
35.4
 20
2.2200000000000273
 10
35.4
 20
2.240000000000009
 10
35.4
 20
2.2600000000000193
 10
35.4
 20
2.280000000000001
 10
35.42000000000001
 20
2.280000000000001
 10
35.42000000000001
 20
2.3000000000000114
 10
35.42000000000001
 20
2.3200000000000216
 10
35.42000000000001
 20
2.3400000000000034
 10
35.42000000000001
 20
2.3600000000000136
 10
35.42000000000001
 20
2.380000000000024
 10
35.42000000000001
 20
2.4000000000000057
 10
35.42000000000001
 20
2.420000000000016
 10
35.42000000000001
 20
2.440000000000026
 10
35.42000000000001
 20
2.460000000000008
 10
35.42000000000001
 20
2.480000000000018
 10
35.42000000000001
 20
2.5
 10
35.440000000000005
 20
2.5
 10
35.440000000000005
 20
2.5200000000000102
 10
35.440000000000005
 20
2.5400000000000205
 10
35.440000000000005
 20
2.5600000000000023
 10
35.440000000000005
 20
2.5800000000000125
 10
35.440000000000005
 20
2.6000000000000227
 10
35.440000000000005
 20
2.6200000000000045
 10
35.440000000000005
 20
2.640000000000015
 10
35.440000000000005
 20
2.660000000000025
 10
35.440000000000005
 20
2.680000000000007
 10
35.46
 20
2.700000000000017
 10
35.46
 20
2.7200000000000273
 10
35.46
 20
2.740000000000009
 10
35.46
 20
2.7600000000000193
 10
35.46
 20
2.780000000000001
 10
35.46
 20
2.8000000000000114
 10
35.46
 20
2.8200000000000216
 10
35.46
 20
2.8400000000000034
 10
35.46
 20
2.8600000000000136
 10
35.46
 20
2.880000000000024
 10
35.46
 20
2.9000000000000057
 10
35.46
 20
2.920000000000016
 10
35.46
 20
2.940000000000026
 10
35.46
 20
2.960000000000008
 10
35.46
 20
2.980000000000018
 10
35.46
 20
3.0
 10
35.46
 20
3.0200000000000102
 10
35.46
 20
3.0400000000000205
 10
35.46
 20
3.0600000000000023
 10
35.46
 20
3.0800000000000125
 10
35.440000000000005
 20
3.0800000000000125
 10
35.440000000000005
 20
3.1000000000000227
 10
35.440000000000005
 20
3.1200000000000045
 10
35.440000000000005
 20
3.140000000000015
 10
35.440000000000005
 20
3.160000000000025
 10
35.440000000000005
 20
3.180000000000007
 10
35.42000000000001
 20
3.180000000000007
 10
35.42000000000001
 20
3.200000000000017
 10
35.42000000000001
 20
3.2200000000000273
 10
35.42000000000001
 20
3.240000000000009
 10
35.4
 20
3.240000000000009
 10
35.4
 20
3.2600000000000193
 10
35.4
 20
3.280000000000001
 10
35.38
 20
3.280000000000001
 10
35.38
 20
3.3000000000000114
 10
35.38
 20
3.3200000000000216
 10
35.38
 20
3.3400000000000034
 10
35.36000000000001
 20
3.3400000000000034
 10
35.36000000000001
 20
3.3600000000000136
 10
35.339999999999996
 20
3.3600000000000136
 10
35.339999999999996
 20
3.380000000000024
 10
35.339999999999996
 20
3.4000000000000057
 10
35.32
 20
3.4000000000000057
 10
35.32
 20
3.420000000000016
 10
35.300000000000004
 20
3.440000000000026
 10
35.300000000000004
 20
3.460000000000008
 10
35.28000000000001
 20
3.460000000000008
 10
35.28000000000001
 20
3.480000000000018
 10
35.26
 20
3.480000000000018
 10
35.26
 20
3.5
 10
35.24
 20
3.5
 10
35.24
 20
3.5200000000000102
 10
35.220000000000006
 20
3.5200000000000102
 10
35.220000000000006
 20
3.5400000000000205
 10
35.20000000000001
 20
3.5400000000000205
 10
35.20000000000001
 20
3.5600000000000023
 10
35.18
 20
3.5800000000000125
 10
35.160000000000004
 20
3.5800000000000125
 10
35.160000000000004
 20
3.6000000000000227
 10
35.14000000000001
 20
3.6000000000000227
 10
35.14000000000001
 20
3.6200000000000045
 10
35.12
 20
3.6200000000000045
 10
35.12
 20
3.640000000000015
 10
35.1
 20
3.640000000000015
 10
35.1
 20
3.660000000000025
 10
35.080000000000005
 20
3.660000000000025
 10
35.080000000000005
 20
3.680000000000007
 10
35.06000000000001
 20
3.680000000000007
 10
35.04
 20
3.680000000000007
 10
35.04
 20
3.700000000000017
 10
35.02
 20
3.700000000000017
 10
35.02
 20
3.7200000000000273
 10
35.00000000000001
 20
3.7200000000000273
 10
34.660000000000004
 20
3.8200000000000216
 10
34.339999999999996
 20
3.940000000000026
 10
34.02
 20
4.0800000000000125
 10
33.70000000000001
 20
4.240000000000009
 10
33.68
 20
4.240000000000009
 10
33.660000000000004
 20
4.240000000000009
 10
33.64000000000001
 20
4.240000000000009
 10
33.62
 20
4.240000000000009
 10
33.6
 20
4.240000000000009
 10
33.580000000000005
 20
4.240000000000009
 10
33.580000000000005
 20
4.260000000000019
 10
33.56000000000001
 20
4.260000000000019
 10
33.54
 20
4.260000000000019
 10
33.52
 20
4.260000000000019
 10
33.50000000000001
 20
4.260000000000019
 10
33.48
 20
4.260000000000019
 10
33.46
 20
4.260000000000019
 10
33.440000000000005
 20
4.260000000000019
 10
33.42000000000001
 20
4.260000000000019
 10
33.4
 20
4.260000000000019
 10
33.38
 20
4.260000000000019
 10
33.36000000000001
 20
4.240000000000009
 10
33.339999999999996
 20
4.240000000000009
 10
33.32
 20
4.240000000000009
 10
33.300000000000004
 20
4.240000000000009
 10
33.28000000000001
 20
4.240000000000009
 10
33.26
 20
4.240000000000009
 10
33.24
 20
4.220000000000027
 10
33.220000000000006
 20
4.220000000000027
 10
33.20000000000001
 20
4.220000000000027
 10
33.18
 20
4.220000000000027
 10
33.18
 20
4.200000000000017
 10
33.160000000000004
 20
4.200000000000017
 10
33.14000000000001
 20
4.200000000000017
 10
33.12
 20
4.200000000000017
 10
33.12
 20
4.180000000000007
 10
33.1
 20
4.180000000000007
 10
33.080000000000005
 20
4.180000000000007
 10
33.080000000000005
 20
4.160000000000025
 10
33.06000000000001
 20
4.160000000000025
 10
33.04
 20
4.160000000000025
 10
33.04
 20
4.140000000000015
 10
33.02
 20
4.140000000000015
 10
33.00000000000001
 20
4.140000000000015
 10
33.00000000000001
 20
4.1200000000000045
 10
32.98
 20
4.1200000000000045
 10
32.98
 20
4.100000000000023
 10
32.96
 20
4.100000000000023
 10
32.940000000000005
 20
4.100000000000023
 10
32.940000000000005
 20
4.0800000000000125
 10
32.92000000000001
 20
4.0800000000000125
 10
32.92000000000001
 20
4.060000000000002
 10
32.9
 20
4.060000000000002
 10
32.9
 20
4.0400000000000205
 10
32.88
 20
4.0400000000000205
 10
32.88
 20
4.02000000000001
 10
32.86000000000001
 20
4.02000000000001
 10
32.839999999999996
 20
4.0
 10
32.839999999999996
 20
3.980000000000018
 10
32.82
 20
3.980000000000018
 10
32.82
 20
3.960000000000008
 10
32.800000000000004
 20
3.960000000000008
 10
32.800000000000004
 20
3.940000000000026
 10
32.78000000000001
 20
3.940000000000026
 10
32.78000000000001
 20
3.920000000000016
 10
32.76
 20
3.920000000000016
 10
32.76
 20
3.9000000000000057
 10
32.74
 20
3.9000000000000057
 10
32.74
 20
3.880000000000024
 10
32.720000000000006
 20
3.880000000000024
 10
32.720000000000006
 20
3.8600000000000136
 10
32.70000000000001
 20
3.8400000000000034
 10
32.70000000000001
 20
3.8200000000000216
 10
32.68
 20
3.8200000000000216
 10
32.68
 20
3.8000000000000114
 10
32.660000000000004
 20
3.8000000000000114
 10
32.660000000000004
 20
3.780000000000001
 10
32.64000000000001
 20
3.780000000000001
 10
32.64000000000001
 20
3.7600000000000193
 10
32.62
 20
3.740000000000009
 10
32.62
 20
3.7200000000000273
 10
32.6
 20
3.7200000000000273
 10
32.6
 20
3.700000000000017
 10
32.580000000000005
 20
3.700000000000017
 10
32.580000000000005
 20
3.680000000000007
 10
32.56000000000001
 20
3.660000000000025
 10
32.56000000000001
 20
3.640000000000015
 10
32.54
 20
3.640000000000015
 10
32.54
 20
3.6200000000000045
 10
32.52
 20
3.6200000000000045
 10
32.52
 20
3.6000000000000227
 10
32.50000000000001
 20
3.5800000000000125
 10
32.50000000000001
 20
3.5600000000000023
 10
32.48
 20
3.5600000000000023
 10
32.48
 20
3.5400000000000205
 10
32.46
 20
3.5400000000000205
 10
32.46
 20
3.5200000000000102
 10
32.440000000000005
 20
3.5200000000000102
 10
32.440000000000005
 20
3.5
 10
32.42000000000001
 20
3.480000000000018
 10
32.42000000000001
 20
3.460000000000008
 10
32.4
 20
3.460000000000008
 10
32.4
 20
3.440000000000026
 10
32.38
 20
3.440000000000026
 10
32.38
 20
3.420000000000016
 10
32.36000000000001
 20
3.420000000000016
 10
32.36000000000001
 20
3.4000000000000057
 10
32.339999999999996
 20
3.4000000000000057
 10
32.339999999999996
 20
3.380000000000024
 10
32.32
 20
3.3600000000000136
 10
32.300000000000004
 20
3.3400000000000034
 10
32.28000000000001
 20
3.3200000000000216
 10
32.26
 20
3.3000000000000114
 10
32.24
 20
3.280000000000001
 10
32.220000000000006
 20
3.2600000000000193
 10
32.20000000000001
 20
3.240000000000009
 10
32.18
 20
3.2200000000000273
 10
32.160000000000004
 20
3.200000000000017
 10
32.14000000000001
 20
3.200000000000017
 10
32.14000000000001
 20
3.180000000000007
 10
32.12
 20
3.160000000000025
 10
32.1
 20
3.160000000000025
 10
32.1
 20
3.140000000000015
 10
32.080000000000005
 20
3.140000000000015
 10
32.080000000000005
 20
3.1200000000000045
 10
32.06000000000001
 20
3.1200000000000045
 10
32.04
 20
3.1000000000000227
 10
32.02
 20
3.0800000000000125
 10
32.00000000000001
 20
3.0800000000000125
 10
32.00000000000001
 20
3.0600000000000023
 10
31.979999999999997
 20
3.0600000000000023
 10
31.96
 20
3.0400000000000205
 10
31.940000000000005
 20
3.0200000000000102
 10
31.92000000000001
 20
3.0
 10
31.9
 20
3.0
 10
31.9
 20
2.980000000000018
 10
31.880000000000003
 20
2.980000000000018
 10
31.860000000000007
 20
2.980000000000018
 10
31.860000000000007
 20
2.960000000000008
 10
31.839999999999996
 20
2.960000000000008
 10
31.82
 20
2.940000000000026
 10
31.800000000000004
 20
2.920000000000016
 10
31.78000000000001
 20
2.920000000000016
 10
31.759999999999998
 20
2.9000000000000057
 10
31.740000000000002
 20
2.9000000000000057
 10
31.740000000000002
 20
2.880000000000024
 10
31.720000000000006
 20
2.880000000000024
 10
31.70000000000001
 20
2.880000000000024
 10
31.70000000000001
 20
2.8600000000000136
 10
31.68
 20
2.8600000000000136
 10
31.660000000000004
 20
2.8400000000000034
 10
31.640000000000008
 20
2.8400000000000034
 10
31.619999999999997
 20
2.8200000000000216
 10
31.6
 20
2.8200000000000216
 10
31.580000000000005
 20
2.8000000000000114
 10
31.56000000000001
 20
2.8000000000000114
 10
31.56000000000001
 20
2.780000000000001
 10
31.54
 20
2.780000000000001
 10
31.520000000000003
 20
2.780000000000001
 10
31.500000000000007
 20
2.7600000000000193
 10
31.479999999999997
 20
2.7600000000000193
 10
31.479999999999997
 20
2.740000000000009
 10
31.46
 20
2.740000000000009
 10
31.440000000000005
 20
2.740000000000009
 10
31.42000000000001
 20
2.7200000000000273
 10
31.4
 20
2.7200000000000273
 10
31.380000000000003
 20
2.700000000000017
 10
31.360000000000007
 20
2.700000000000017
 10
31.339999999999996
 20
2.700000000000017
 10
31.339999999999996
 20
2.680000000000007
 10
31.32
 20
2.680000000000007
 10
31.300000000000004
 20
2.680000000000007
 10
31.28000000000001
 20
2.660000000000025
 10
31.259999999999998
 20
2.660000000000025
 10
31.240000000000002
 20
2.640000000000015
 10
31.220000000000006
 20
2.640000000000015
 10
31.20000000000001
 20
2.640000000000015
 10
31.20000000000001
 20
2.6200000000000045
 10
31.18
 20
2.6200000000000045
 10
31.160000000000004
 20
2.6200000000000045
 10
31.140000000000008
 20
2.6000000000000227
 10
31.119999999999997
 20
2.6000000000000227
 10
31.1
 20
2.6000000000000227
 10
31.1
 20
2.5800000000000125
 10
31.080000000000005
 20
2.5800000000000125
 10
31.06000000000001
 20
2.5800000000000125
 10
31.04
 20
2.5800000000000125
 10
31.04
 20
2.5600000000000023
 10
31.020000000000003
 20
2.5600000000000023
 10
31.000000000000007
 20
2.5600000000000023
 10
30.979999999999997
 20
2.5600000000000023
 10
30.979999999999997
 20
2.5400000000000205
 10
30.96
 20
2.5400000000000205
 10
30.940000000000005
 20
2.5400000000000205
 10
30.92000000000001
 20
2.5400000000000205
 10
30.9
 20
2.5200000000000102
 10
30.880000000000003
 20
2.5200000000000102
 10
30.860000000000007
 20
2.5200000000000102
 10
30.839999999999996
 20
2.5
 10
30.82
 20
2.5
 10
30.800000000000004
 20
2.5
 10
30.78000000000001
 20
2.480000000000018
 10
30.759999999999998
 20
2.480000000000018
 10
30.740000000000002
 20
2.480000000000018
 10
30.720000000000006
 20
2.480000000000018
 10
30.720000000000006
 20
2.460000000000008
 10
30.70000000000001
 20
2.460000000000008
 10
30.68
 20
2.460000000000008
 10
30.660000000000004
 20
2.460000000000008
 10
30.640000000000008
 20
2.440000000000026
 10
30.619999999999997
 20
2.440000000000026
 10
30.6
 20
2.440000000000026
 10
30.580000000000005
 20
2.440000000000026
 10
30.580000000000005
 20
2.420000000000016
 10
30.56000000000001
 20
2.420000000000016
 10
30.54
 20
2.420000000000016
 10
30.520000000000003
 20
2.420000000000016
 10
30.500000000000007
 20
2.4000000000000057
 10
30.479999999999997
 20
2.4000000000000057
 10
30.46
 20
2.4000000000000057
 10
30.440000000000005
 20
2.4000000000000057
 10
30.42000000000001
 20
2.4000000000000057
 10
30.42000000000001
 20
2.380000000000024
 10
30.4
 20
2.380000000000024
 10
30.380000000000003
 20
2.380000000000024
 10
30.360000000000007
 20
2.380000000000024
 10
30.339999999999996
 20
2.380000000000024
 10
30.339999999999996
 20
2.3600000000000136
 10
30.32
 20
2.3600000000000136
 10
29.54
 20
3.0400000000000205
 10
28.839999999999996
 20
3.8000000000000114
 10
28.839999999999996
 20
3.8200000000000216
 10
28.839999999999996
 20
3.8400000000000034
 10
28.839999999999996
 20
3.8600000000000136
 10
28.860000000000007
 20
3.8600000000000136
 10
28.860000000000007
 20
3.880000000000024
 10
28.860000000000007
 20
3.9000000000000057
 10
28.860000000000007
 20
3.920000000000016
 10
28.880000000000003
 20
3.920000000000016
 10
28.880000000000003
 20
3.940000000000026
 10
28.880000000000003
 20
3.960000000000008
 10
28.880000000000003
 20
3.980000000000018
 10
28.9
 20
3.980000000000018
 10
28.9
 20
4.0
 10
28.9
 20
4.02000000000001
 10
28.9
 20
4.0400000000000205
 10
28.92000000000001
 20
4.0400000000000205
 10
28.92000000000001
 20
4.060000000000002
 10
28.92000000000001
 20
4.0800000000000125
 10
28.92000000000001
 20
4.100000000000023
 10
28.940000000000005
 20
4.100000000000023
 10
28.940000000000005
 20
4.1200000000000045
 10
28.940000000000005
 20
4.140000000000015
 10
28.940000000000005
 20
4.160000000000025
 10
28.96
 20
4.160000000000025
 10
28.96
 20
4.180000000000007
 10
28.96
 20
4.200000000000017
 10
28.96
 20
4.220000000000027
 10
28.979999999999997
 20
4.240000000000009
 10
28.979999999999997
 20
4.260000000000019
 10
28.979999999999997
 20
4.280000000000001
 10
29.000000000000007
 20
4.280000000000001
 10
29.000000000000007
 20
4.300000000000011
 10
29.000000000000007
 20
4.320000000000022
 10
29.000000000000007
 20
4.340000000000003
 10
29.020000000000003
 20
4.340000000000003
 10
29.020000000000003
 20
4.360000000000014
 10
29.020000000000003
 20
4.380000000000024
 10
29.04
 20
4.400000000000006
 10
29.04
 20
4.420000000000016
 10
29.04
 20
4.440000000000026
 10
29.06000000000001
 20
4.460000000000008
 10
29.06000000000001
 20
4.480000000000018
 10
29.06000000000001
 20
4.5
 10
29.080000000000005
 20
4.52000000000001
 10
29.080000000000005
 20
4.5400000000000205
 10
29.080000000000005
 20
4.560000000000002
 10
29.1
 20
4.560000000000002
 10
29.1
 20
4.5800000000000125
 10
29.1
 20
4.600000000000023
 10
29.119999999999997
 20
4.6200000000000045
 10
29.119999999999997
 20
4.640000000000015
 10
29.119999999999997
 20
4.660000000000025
 10
29.140000000000008
 20
4.660000000000025
 10
29.140000000000008
 20
4.680000000000007
 10
29.140000000000008
 20
4.700000000000017
 10
29.140000000000008
 20
4.720000000000027
 10
29.160000000000004
 20
4.720000000000027
 10
29.160000000000004
 20
4.740000000000009
 10
29.160000000000004
 20
4.760000000000019
 10
29.18
 20
4.780000000000001
 10
29.18
 20
4.800000000000011
 10
29.20000000000001
 20
4.820000000000022
 10
29.20000000000001
 20
4.840000000000003
 10
29.20000000000001
 20
4.860000000000014
 10
29.220000000000006
 20
4.860000000000014
 10
29.220000000000006
 20
4.880000000000024
 10
29.220000000000006
 20
4.900000000000006
 10
29.240000000000002
 20
4.920000000000016
 10
29.240000000000002
 20
4.940000000000026
 10
29.259999999999998
 20
4.960000000000008
 10
29.259999999999998
 20
4.980000000000018
 10
29.259999999999998
 20
5.0
 10
29.28000000000001
 20
5.02000000000001
 10
29.28000000000001
 20
5.0400000000000205
 10
29.300000000000004
 20
5.060000000000002
 10
29.300000000000004
 20
5.0800000000000125
 10
29.300000000000004
 20
5.100000000000023
 10
29.32
 20
5.100000000000023
 10
29.32
 20
5.1200000000000045
 10
29.339999999999996
 20
5.140000000000015
 10
29.339999999999996
 20
5.160000000000025
 10
29.360000000000007
 20
5.180000000000007
 10
29.360000000000007
 20
5.200000000000017
 10
29.360000000000007
 20
5.220000000000027
 10
29.380000000000003
 20
5.220000000000027
 10
29.380000000000003
 20
5.240000000000009
 10
29.380000000000003
 20
5.260000000000019
 10
29.4
 20
5.260000000000019
 10
29.4
 20
5.280000000000001
 10
29.42000000000001
 20
5.300000000000011
 10
29.42000000000001
 20
5.320000000000022
 10
29.42000000000001
 20
5.340000000000003
 10
29.440000000000005
 20
5.340000000000003
 10
29.440000000000005
 20
5.360000000000014
 10
29.440000000000005
 20
5.380000000000024
 10
29.46
 20
5.380000000000024
 10
29.46
 20
5.400000000000006
 10
29.479999999999997
 20
5.420000000000016
 10
29.479999999999997
 20
5.440000000000026
 10
29.500000000000007
 20
5.460000000000008
 10
29.500000000000007
 20
5.480000000000018
 10
29.520000000000003
 20
5.480000000000018
 10
29.520000000000003
 20
5.5
 10
29.520000000000003
 20
5.52000000000001
 10
29.54
 20
5.52000000000001
 10
29.54
 20
5.5400000000000205
 10
29.56000000000001
 20
5.560000000000002
 10
29.56000000000001
 20
5.5800000000000125
 10
29.580000000000005
 20
5.600000000000023
 10
29.580000000000005
 20
5.6200000000000045
 10
29.6
 20
5.6200000000000045
 10
29.6
 20
5.640000000000015
 10
29.619999999999997
 20
5.660000000000025
 10
29.619999999999997
 20
5.680000000000007
 10
29.640000000000008
 20
5.680000000000007
 10
29.640000000000008
 20
5.700000000000017
 10
29.640000000000008
 20
5.720000000000027
 10
29.660000000000004
 20
5.720000000000027
 10
29.660000000000004
 20
5.740000000000009
 10
29.68
 20
5.740000000000009
 10
29.68
 20
5.760000000000019
 10
29.70000000000001
 20
5.780000000000001
 10
29.70000000000001
 20
5.800000000000011
 10
29.720000000000006
 20
5.800000000000011
 10
29.720000000000006
 20
5.820000000000022
 10
29.740000000000002
 20
5.820000000000022
 10
29.740000000000002
 20
5.840000000000003
 10
29.740000000000002
 20
5.860000000000014
 10
29.759999999999998
 20
5.860000000000014
 10
29.759999999999998
 20
5.880000000000024
 10
29.78000000000001
 20
5.880000000000024
 10
29.78000000000001
 20
5.900000000000006
 10
29.800000000000004
 20
5.900000000000006
 10
29.800000000000004
 20
5.920000000000016
 10
29.82
 20
5.940000000000026
 10
29.82
 20
5.960000000000008
 10
29.839999999999996
 20
5.960000000000008
 10
29.839999999999996
 20
5.980000000000018
 10
29.860000000000007
 20
5.980000000000018
 10
29.860000000000007
 20
6.0
 10
29.880000000000003
 20
6.0
 10
29.880000000000003
 20
6.02000000000001
 10
29.9
 20
6.02000000000001
 10
29.9
 20
6.0400000000000205
 10
29.92000000000001
 20
6.0400000000000205
 10
29.92000000000001
 20
6.060000000000002
 10
29.940000000000005
 20
6.060000000000002
 10
29.940000000000005
 20
6.0800000000000125
 10
29.96
 20
6.0800000000000125
 10
29.96
 20
6.100000000000023
 10
29.979999999999997
 20
6.100000000000023
 10
29.979999999999997
 20
6.1200000000000045
 10
30.000000000000007
 20
6.1200000000000045
 10
30.000000000000007
 20
6.140000000000015
 10
30.020000000000003
 20
6.140000000000015
 10
30.020000000000003
 20
6.160000000000025
 10
30.04
 20
6.160000000000025
 10
30.04
 20
6.180000000000007
 10
30.06000000000001
 20
6.180000000000007
 10
30.06000000000001
 20
6.200000000000017
 10
30.080000000000005
 20
6.200000000000017
 10
30.1
 20
6.220000000000027
 10
30.119999999999997
 20
6.220000000000027
 10
30.119999999999997
 20
6.240000000000009
 10
30.140000000000008
 20
6.240000000000009
 10
30.140000000000008
 20
6.260000000000019
 10
30.160000000000004
 20
6.260000000000019
 10
30.18
 20
6.280000000000001
 10
30.20000000000001
 20
6.280000000000001
 10
30.20000000000001
 20
6.300000000000011
 10
30.220000000000006
 20
6.300000000000011
 10
30.240000000000002
 20
6.320000000000022
 10
30.259999999999998
 20
6.320000000000022
 10
30.259999999999998
 20
6.340000000000003
 10
30.28000000000001
 20
6.340000000000003
 10
30.300000000000004
 20
6.340000000000003
 10
30.300000000000004
 20
6.360000000000014
 10
30.32
 20
6.360000000000014
 10
30.339999999999996
 20
6.360000000000014
 10
30.339999999999996
 20
6.380000000000024
 10
30.360000000000007
 20
6.380000000000024
 10
30.380000000000003
 20
6.380000000000024
 10
30.380000000000003
 20
6.400000000000006
 10
30.4
 20
6.400000000000006
 10
30.42000000000001
 20
6.400000000000006
 10
30.42000000000001
 20
6.420000000000016
 10
30.440000000000005
 20
6.420000000000016
 10
30.46
 20
6.420000000000016
 10
15.080000000000005
 20
6.52000000000001
 10
14.300000000000004
 20
6.460000000000008
 10
13.560000000000002
 20
6.300000000000011
 10
12.860000000000007
 20
6.0
 10
12.240000000000002
 20
5.600000000000023
 10
11.68
 20
5.1200000000000045
 10
11.200000000000003
 20
4.52000000000001
 10
10.82
 20
3.8600000000000136
 10
10.560000000000002
 20
3.1200000000000045
 10
0.36000000000000654
 20
1.8800000000000239
 10
0.2600000000000051
 20
1.9000000000000057
 10
0.1600000000000037
 20
1.960000000000008
 10
0.0800000000000054
 20
2.0400000000000205
 10
0.020000000000003126
 20
2.140000000000015
 10
0.0
 20
2.240000000000009
 10
0.020000000000003126
 20
2.3600000000000136
 10
0.060000000000002274
 20
2.460000000000008
 10
0.12000000000000455
 20
2.5400000000000205
 10
10.880000000000003
 20
13.580000000000013
 10
11.340000000000003
 20
13.960000000000008
 10
11.840000000000003
 20
14.240000000000009
 10
12.400000000000006
 20
14.420000000000016
 10
12.980000000000004
 20
14.5
 10
30.32
 20
14.960000000000008
 10
30.300000000000004
 20
14.960000000000008
 10
30.28000000000001
 20
14.960000000000008
 10
30.28000000000001
 20
14.980000000000018
 10
30.259999999999998
 20
14.980000000000018
 10
30.240000000000002
 20
14.980000000000018
 10
30.240000000000002
 20
15.0
 10
30.220000000000006
 20
15.0
 10
30.20000000000001
 20
15.0
 10
30.20000000000001
 20
15.02000000000001
 10
30.18
 20
15.02000000000001
 10
30.160000000000004
 20
15.02000000000001
 10
30.160000000000004
 20
15.04000000000002
 10
30.140000000000008
 20
15.04000000000002
 10
30.119999999999997
 20
15.04000000000002
 10
30.119999999999997
 20
15.060000000000002
 10
30.1
 20
15.060000000000002
 10
30.080000000000005
 20
15.060000000000002
 10
30.080000000000005
 20
15.080000000000013
 10
30.06000000000001
 20
15.080000000000013
 10
30.04
 20
15.100000000000023
 10
30.020000000000003
 20
15.100000000000023
 10
30.020000000000003
 20
15.120000000000005
 10
30.000000000000007
 20
15.120000000000005
 10
29.979999999999997
 20
15.140000000000015
 10
29.96
 20
15.140000000000015
 10
29.96
 20
15.160000000000025
 10
29.940000000000005
 20
15.160000000000025
 10
29.940000000000005
 20
15.180000000000007
 10
29.92000000000001
 20
15.180000000000007
 10
29.9
 20
15.200000000000017
 10
29.880000000000003
 20
15.200000000000017
 10
29.880000000000003
 20
15.220000000000027
 10
29.860000000000007
 20
15.220000000000027
 10
29.860000000000007
 20
15.240000000000009
 10
29.839999999999996
 20
15.240000000000009
 10
29.839999999999996
 20
15.26000000000002
 10
29.82
 20
15.26000000000002
 10
29.82
 20
15.280000000000001
 10
29.800000000000004
 20
15.280000000000001
 10
29.800000000000004
 20
15.300000000000011
 10
29.78000000000001
 20
15.300000000000011
 10
29.78000000000001
 20
15.320000000000022
 10
29.759999999999998
 20
15.320000000000022
 10
29.759999999999998
 20
15.340000000000003
 10
29.740000000000002
 20
15.340000000000003
 10
29.740000000000002
 20
15.360000000000014
 10
29.720000000000006
 20
15.360000000000014
 10
29.720000000000006
 20
15.380000000000024
 10
29.70000000000001
 20
15.380000000000024
 10
29.70000000000001
 20
15.400000000000006
 10
29.68
 20
15.400000000000006
 10
29.68
 20
15.420000000000016
 10
29.660000000000004
 20
15.420000000000016
 10
29.660000000000004
 20
15.440000000000026
 10
29.640000000000008
 20
15.440000000000026
 10
29.640000000000008
 20
15.460000000000008
 10
29.619999999999997
 20
15.460000000000008
 10
29.619999999999997
 20
15.480000000000018
 10
29.6
 20
15.5
 10
29.6
 20
15.52000000000001
 10
29.580000000000005
 20
15.52000000000001
 10
29.580000000000005
 20
15.54000000000002
 10
29.56000000000001
 20
15.54000000000002
 10
29.56000000000001
 20
15.560000000000002
 10
29.54
 20
15.580000000000013
 10
29.520000000000003
 20
15.600000000000023
 10
29.520000000000003
 20
15.620000000000005
 10
29.500000000000007
 20
15.620000000000005
 10
29.500000000000007
 20
15.640000000000015
 10
29.479999999999997
 20
15.640000000000015
 10
29.479999999999997
 20
15.660000000000025
 10
29.479999999999997
 20
15.680000000000007
 10
29.46
 20
15.680000000000007
 10
29.46
 20
15.700000000000017
 10
29.440000000000005
 20
15.720000000000027
 10
29.42000000000001
 20
15.740000000000009
 10
29.42000000000001
 20
15.76000000000002
 10
29.4
 20
15.780000000000001
 10
29.4
 20
15.800000000000011
 10
29.380000000000003
 20
15.800000000000011
 10
29.380000000000003
 20
15.820000000000022
 10
29.360000000000007
 20
15.840000000000003
 10
29.360000000000007
 20
15.860000000000014
 10
29.339999999999996
 20
15.880000000000024
 10
29.339999999999996
 20
15.900000000000006
 10
29.32
 20
15.900000000000006
 10
29.32
 20
15.920000000000016
 10
29.300000000000004
 20
15.940000000000026
 10
29.300000000000004
 20
15.960000000000008
 10
29.28000000000001
 20
15.980000000000018
 10
29.28000000000001
 20
16.0
 10
29.259999999999998
 20
16.0
 10
29.259999999999998
 20
16.02000000000001
 10
29.240000000000002
 20
16.04000000000002
 10
29.240000000000002
 20
16.060000000000002
 10
29.240000000000002
 20
16.080000000000013
 10
29.220000000000006
 20
16.080000000000013
 10
29.220000000000006
 20
16.100000000000023
 10
29.20000000000001
 20
16.120000000000005
 10
29.20000000000001
 20
16.140000000000015
 10
29.18
 20
16.160000000000025
 10
29.18
 20
16.180000000000007
 10
29.160000000000004
 20
16.200000000000017
 10
29.160000000000004
 20
16.220000000000027
 10
29.140000000000008
 20
16.220000000000027
 10
29.140000000000008
 20
16.24000000000001
 10
29.140000000000008
 20
16.26000000000002
 10
29.119999999999997
 20
16.28
 10
29.119999999999997
 20
16.30000000000001
 10
29.1
 20
16.32000000000002
 10
29.1
 20
16.340000000000003
 10
29.080000000000005
 20
16.360000000000014
 10
29.080000000000005
 20
16.380000000000024
 10
29.06000000000001
 20
16.400000000000006
 10
29.06000000000001
 20
16.420000000000016
 10
29.04
 20
16.440000000000026
 10
29.04
 20
16.460000000000008
 10
29.04
 20
16.480000000000018
 10
29.020000000000003
 20
16.480000000000018
 10
29.020000000000003
 20
16.5
 10
29.020000000000003
 20
16.52000000000001
 10
29.000000000000007
 20
16.54000000000002
 10
29.000000000000007
 20
16.560000000000002
 10
28.979999999999997
 20
16.580000000000013
 10
28.979999999999997
 20
16.600000000000023
 10
28.979999999999997
 20
16.620000000000005
 10
28.96
 20
16.620000000000005
 10
28.96
 20
16.640000000000015
 10
28.96
 20
16.660000000000025
 10
28.940000000000005
 20
16.660000000000025
 10
28.940000000000005
 20
16.680000000000007
 10
28.940000000000005
 20
16.700000000000017
 10
28.92000000000001
 20
16.720000000000027
 10
28.92000000000001
 20
16.74000000000001
 10
28.9
 20
16.76000000000002
 10
28.9
 20
16.78
 10
28.9
 20
16.80000000000001
 10
28.880000000000003
 20
16.82000000000002
 10
28.880000000000003
 20
16.840000000000003
 10
28.860000000000007
 20
16.860000000000014
 10
28.860000000000007
 20
16.880000000000024
 10
28.860000000000007
 20
16.900000000000006
 10
28.839999999999996
 20
16.900000000000006
 10
28.839999999999996
 20
16.920000000000016
 10
28.839999999999996
 20
16.940000000000026
 10
28.82
 20
16.960000000000008
 10
28.82
 20
16.980000000000018
 10
28.82
 20
17.0
 10
28.800000000000004
 20
17.0
 10
28.800000000000004
 20
17.02000000000001
 10
28.800000000000004
 20
17.04000000000002
 10
28.78000000000001
 20
17.060000000000002
 10
28.78000000000001
 20
17.080000000000013
 10
28.78000000000001
 20
17.100000000000023
 10
28.759999999999998
 20
17.120000000000005
 10
28.759999999999998
 20
17.140000000000015
 10
28.759999999999998
 20
17.160000000000025
 10
28.740000000000002
 20
17.160000000000025
 10
28.740000000000002
 20
17.180000000000007
 10
28.740000000000002
 20
17.200000000000017
 10
28.720000000000006
 20
17.220000000000027
 10
28.720000000000006
 20
17.24000000000001
 10
28.720000000000006
 20
17.26000000000002
 10
28.70000000000001
 20
17.28
 10
28.70000000000001
 20
17.30000000000001
 10
28.70000000000001
 20
17.32000000000002
 10
28.68
 20
17.32000000000002
 10
28.68
 20
17.340000000000003
 10
28.68
 20
17.360000000000014
 10
28.68
 20
17.380000000000024
 10
28.660000000000004
 20
17.380000000000024
 10
28.660000000000004
 20
17.400000000000006
 10
28.660000000000004
 20
17.420000000000016
 10
28.660000000000004
 20
17.440000000000026
 10
28.640000000000008
 20
17.440000000000026
 10
28.640000000000008
 20
17.460000000000008
 10
28.640000000000008
 20
17.480000000000018
 10
28.640000000000008
 20
17.5
 10
28.619999999999997
 20
17.5
 10
28.619999999999997
 20
17.52000000000001
 10
29.300000000000004
 20
18.30000000000001
 10
30.06000000000001
 20
19.02000000000001
 10
30.06000000000001
 20
19.0
 10
30.080000000000005
 20
19.0
 10
30.1
 20
19.0
 10
30.119999999999997
 20
19.0
 10
30.140000000000008
 20
19.0
 10
30.160000000000004
 20
19.0
 10
30.160000000000004
 20
18.980000000000018
 10
30.18
 20
18.980000000000018
 10
30.20000000000001
 20
18.980000000000018
 10
30.220000000000006
 20
18.980000000000018
 10
30.240000000000002
 20
18.980000000000018
 10
30.259999999999998
 20
18.960000000000008
 10
30.28000000000001
 20
18.960000000000008
 10
30.300000000000004
 20
18.960000000000008
 10
30.32
 20
18.960000000000008
 10
30.339999999999996
 20
18.940000000000026
 10
30.360000000000007
 20
18.940000000000026
 10
30.380000000000003
 20
18.940000000000026
 10
30.4
 20
18.940000000000026
 10
30.42000000000001
 20
18.920000000000016
 10
30.440000000000005
 20
18.920000000000016
 10
30.46
 20
18.920000000000016
 10
30.479999999999997
 20
18.920000000000016
 10
30.500000000000007
 20
18.900000000000006
 10
30.520000000000003
 20
18.900000000000006
 10
30.54
 20
18.900000000000006
 10
30.56000000000001
 20
18.900000000000006
 10
30.580000000000005
 20
18.880000000000024
 10
30.6
 20
18.880000000000024
 10
30.619999999999997
 20
18.880000000000024
 10
30.640000000000008
 20
18.880000000000024
 10
30.640000000000008
 20
18.860000000000014
 10
30.660000000000004
 20
18.860000000000014
 10
30.68
 20
18.860000000000014
 10
30.70000000000001
 20
18.860000000000014
 10
30.720000000000006
 20
18.840000000000003
 10
30.740000000000002
 20
18.840000000000003
 10
30.759999999999998
 20
18.840000000000003
 10
30.78000000000001
 20
18.840000000000003
 10
30.78000000000001
 20
18.82000000000002
 10
30.800000000000004
 20
18.82000000000002
 10
30.82
 20
18.82000000000002
 10
30.839999999999996
 20
18.80000000000001
 10
30.860000000000007
 20
18.80000000000001
 10
30.880000000000003
 20
18.80000000000001
 10
30.9
 20
18.78
 10
30.92000000000001
 20
18.78
 10
30.940000000000005
 20
18.78
 10
30.96
 20
18.76000000000002
 10
30.979999999999997
 20
18.76000000000002
 10
31.000000000000007
 20
18.76000000000002
 10
31.000000000000007
 20
18.74000000000001
 10
31.020000000000003
 20
18.74000000000001
 10
31.04
 20
18.74000000000001
 10
31.06000000000001
 20
18.720000000000027
 10
31.080000000000005
 20
18.720000000000027
 10
31.1
 20
18.720000000000027
 10
31.119999999999997
 20
18.700000000000017
 10
31.140000000000008
 20
18.700000000000017
 10
31.160000000000004
 20
18.680000000000007
 10
31.18
 20
18.680000000000007
 10
31.20000000000001
 20
18.680000000000007
 10
31.220000000000006
 20
18.660000000000025
 10
31.240000000000002
 20
18.660000000000025
 10
31.259999999999998
 20
18.640000000000015
 10
31.28000000000001
 20
18.640000000000015
 10
31.300000000000004
 20
18.620000000000005
 10
31.32
 20
18.620000000000005
 10
31.339999999999996
 20
18.600000000000023
 10
31.360000000000007
 20
18.600000000000023
 10
31.380000000000003
 20
18.600000000000023
 10
31.380000000000003
 20
18.580000000000013
 10
31.4
 20
18.580000000000013
 10
31.42000000000001
 20
18.580000000000013
 10
31.42000000000001
 20
18.560000000000002
 10
31.440000000000005
 20
18.560000000000002
 10
31.46
 20
18.560000000000002
 10
31.46
 20
18.54000000000002
 10
31.479999999999997
 20
18.54000000000002
 10
31.500000000000007
 20
18.52000000000001
 10
31.520000000000003
 20
18.52000000000001
 10
31.54
 20
18.5
 10
31.56000000000001
 20
18.5
 10
31.580000000000005
 20
18.480000000000018
 10
31.6
 20
18.480000000000018
 10
31.6
 20
18.460000000000008
 10
31.619999999999997
 20
18.460000000000008
 10
31.619999999999997
 20
18.440000000000026
 10
31.640000000000008
 20
18.440000000000026
 10
31.660000000000004
 20
18.440000000000026
 10
31.660000000000004
 20
18.420000000000016
 10
31.68
 20
18.420000000000016
 10
31.70000000000001
 20
18.400000000000006
 10
31.720000000000006
 20
18.400000000000006
 10
31.720000000000006
 20
18.380000000000024
 10
31.740000000000002
 20
18.380000000000024
 10
31.740000000000002
 20
18.360000000000014
 10
31.759999999999998
 20
18.360000000000014
 10
31.78000000000001
 20
18.340000000000003
 10
31.800000000000004
 20
18.340000000000003
 10
31.800000000000004
 20
18.32000000000002
 10
31.82
 20
18.32000000000002
 10
31.839999999999996
 20
18.30000000000001
 10
31.860000000000007
 20
18.28
 10
31.880000000000003
 20
18.28
 10
31.880000000000003
 20
18.26000000000002
 10
31.9
 20
18.26000000000002
 10
31.9
 20
18.24000000000001
 10
31.92000000000001
 20
18.24000000000001
 10
31.940000000000005
 20
18.220000000000027
 10
31.96
 20
18.200000000000017
 10
31.979999999999997
 20
18.180000000000007
 10
32.00000000000001
 20
18.180000000000007
 10
32.00000000000001
 20
18.160000000000025
 10
32.02
 20
18.160000000000025
 10
32.02
 20
18.140000000000015
 10
32.04
 20
18.140000000000015
 10
32.04
 20
18.120000000000005
 10
32.06000000000001
 20
18.120000000000005
 10
32.06000000000001
 20
18.100000000000023
 10
32.080000000000005
 20
18.100000000000023
 10
32.080000000000005
 20
18.080000000000013
 10
32.1
 20
18.080000000000013
 10
32.1
 20
18.060000000000002
 10
32.12
 20
18.060000000000002
 10
32.12
 20
18.04000000000002
 10
32.14000000000001
 20
18.04000000000002
 10
32.14000000000001
 20
18.02000000000001
 10
32.160000000000004
 20
18.02000000000001
 10
32.160000000000004
 20
18.0
 10
32.18
 20
17.980000000000018
 10
32.20000000000001
 20
17.960000000000008
 10
32.20000000000001
 20
17.940000000000026
 10
32.220000000000006
 20
17.940000000000026
 10
32.220000000000006
 20
17.920000000000016
 10
32.24
 20
17.920000000000016
 10
32.24
 20
17.900000000000006
 10
32.26
 20
17.900000000000006
 10
32.26
 20
17.880000000000024
 10
32.28000000000001
 20
17.880000000000024
 10
32.28000000000001
 20
17.860000000000014
 10
32.300000000000004
 20
17.840000000000003
 10
32.300000000000004
 20
17.82000000000002
 10
32.32
 20
17.82000000000002
 10
32.32
 20
17.80000000000001
 10
32.339999999999996
 20
17.80000000000001
 10
32.339999999999996
 20
17.78
 10
32.36000000000001
 20
17.78
 10
32.36000000000001
 20
17.76000000000002
 10
32.38
 20
17.76000000000002
 10
32.38
 20
17.74000000000001
 10
32.38
 20
17.720000000000027
 10
32.4
 20
17.720000000000027
 10
32.4
 20
17.700000000000017
 10
32.42000000000001
 20
17.700000000000017
 10
32.42000000000001
 20
17.680000000000007
 10
32.440000000000005
 20
17.680000000000007
 10
32.440000000000005
 20
17.660000000000025
 10
32.46
 20
17.660000000000025
 10
32.46
 20
17.640000000000015
 10
32.48
 20
17.620000000000005
 10
32.48
 20
17.600000000000023
 10
32.50000000000001
 20
17.600000000000023
 10
32.50000000000001
 20
17.580000000000013
 10
32.52
 20
17.580000000000013
 10
32.52
 20
17.560000000000002
 10
32.54
 20
17.560000000000002
 10
32.54
 20
17.54000000000002
 10
32.56000000000001
 20
17.54000000000002
 10
32.56000000000001
 20
17.52000000000001
 10
32.580000000000005
 20
17.52000000000001
 10
32.580000000000005
 20
17.5
 10
32.6
 20
17.5
 10
32.6
 20
17.480000000000018
 10
32.62
 20
17.480000000000018
 10
32.62
 20
17.460000000000008
 10
32.64000000000001
 20
17.460000000000008
 10
32.64000000000001
 20
17.440000000000026
 10
32.660000000000004
 20
17.440000000000026
 10
32.660000000000004
 20
17.420000000000016
 10
32.68
 20
17.420000000000016
 10
32.68
 20
17.400000000000006
 10
32.70000000000001
 20
17.400000000000006
 10
32.720000000000006
 20
17.380000000000024
 10
32.74
 20
17.380000000000024
 10
32.74
 20
17.360000000000014
 10
32.76
 20
17.360000000000014
 10
32.76
 20
17.340000000000003
 10
32.78000000000001
 20
17.340000000000003
 10
32.800000000000004
 20
17.340000000000003
 10
32.800000000000004
 20
17.32000000000002
 10
32.82
 20
17.32000000000002
 10
32.839999999999996
 20
17.32000000000002
 10
32.839999999999996
 20
17.30000000000001
 10
32.86000000000001
 20
17.30000000000001
 10
32.88
 20
17.30000000000001
 10
32.88
 20
17.28
 10
32.9
 20
17.28
 10
32.92000000000001
 20
17.28
 10
32.92000000000001
 20
17.26000000000002
 10
32.940000000000005
 20
17.26000000000002
 10
32.96
 20
17.26000000000002
 10
32.98
 20
17.26000000000002
 10
32.98
 20
17.24000000000001
 10
33.00000000000001
 20
17.24000000000001
 10
33.02
 20
17.24000000000001
 10
33.04
 20
17.24000000000001
 10
33.06000000000001
 20
17.24000000000001
 10
33.080000000000005
 20
17.24000000000001
 10
33.080000000000005
 20
17.220000000000027
 10
33.1
 20
17.220000000000027
 10
33.12
 20
17.220000000000027
 10
33.14000000000001
 20
17.220000000000027
 10
33.160000000000004
 20
17.220000000000027
 10
33.18
 20
17.220000000000027
 10
33.20000000000001
 20
17.220000000000027
 10
33.220000000000006
 20
17.220000000000027
 10
33.24
 20
17.220000000000027
 10
33.26
 20
17.220000000000027
 10
33.28000000000001
 20
17.220000000000027
 10
33.300000000000004
 20
17.220000000000027
 10
33.32
 20
17.220000000000027
 10
33.339999999999996
 20
17.220000000000027
 10
33.36000000000001
 20
17.220000000000027
 10
33.38
 20
17.220000000000027
 10
33.4
 20
17.220000000000027
 10
33.42000000000001
 20
17.220000000000027
 10
33.42000000000001
 20
17.24000000000001
 10
33.440000000000005
 20
17.24000000000001
 10
33.46
 20
17.24000000000001
 10
33.48
 20
17.24000000000001
 10
33.800000000000004
 20
17.400000000000006
 10
34.12
 20
17.560000000000002
 10
34.46
 20
17.680000000000007
 10
34.78000000000001
 20
17.80000000000001
 10
34.800000000000004
 20
17.80000000000001
 10
34.800000000000004
 20
17.82000000000002
 10
34.82
 20
17.82000000000002
 10
34.82
 20
17.840000000000003
 10
34.839999999999996
 20
17.840000000000003
 10
34.839999999999996
 20
17.860000000000014
 10
34.86000000000001
 20
17.860000000000014
 10
34.88
 20
17.860000000000014
 10
34.88
 20
17.880000000000024
 10
34.9
 20
17.880000000000024
 10
34.9
 20
17.900000000000006
 10
34.92000000000001
 20
17.900000000000006
 10
34.92000000000001
 20
17.920000000000016
 10
34.940000000000005
 20
17.920000000000016
 10
34.940000000000005
 20
17.940000000000026
 10
34.96
 20
17.940000000000026
 10
34.96
 20
17.960000000000008
 10
34.98
 20
17.960000000000008
 10
34.98
 20
17.980000000000018
 10
35.00000000000001
 20
17.980000000000018
 10
35.00000000000001
 20
18.0
 10
35.02
 20
18.0
 10
35.02
 20
18.02000000000001
 10
35.02
 20
18.04000000000002
 10
35.04
 20
18.04000000000002
 10
35.04
 20
18.060000000000002
 10
35.06000000000001
 20
18.060000000000002
 10
35.06000000000001
 20
18.080000000000013
 10
35.080000000000005
 20
18.080000000000013
 10
35.080000000000005
 20
18.100000000000023
 10
35.080000000000005
 20
18.120000000000005
 10
35.1
 20
18.120000000000005
 10
35.1
 20
18.140000000000015
 10
35.12
 20
18.140000000000015
 10
35.12
 20
18.160000000000025
 10
35.12
 20
18.180000000000007
 10
35.14000000000001
 20
18.180000000000007
 10
35.14000000000001
 20
18.200000000000017
 10
35.14000000000001
 20
18.220000000000027
 10
35.160000000000004
 20
18.220000000000027
 10
35.160000000000004
 20
18.24000000000001
 10
35.160000000000004
 20
18.26000000000002
 10
35.160000000000004
 20
18.28
 10
35.18
 20
18.28
 10
35.18
 20
18.30000000000001
 10
35.18
 20
18.32000000000002
 10
35.18
 20
18.340000000000003
 10
35.20000000000001
 20
18.340000000000003
 10
35.20000000000001
 20
18.360000000000014
 10
35.20000000000001
 20
18.380000000000024
 10
35.20000000000001
 20
18.400000000000006
 10
35.20000000000001
 20
18.420000000000016
 10
35.20000000000001
 20
18.440000000000026
 10
35.220000000000006
 20
18.440000000000026
 10
35.220000000000006
 20
18.460000000000008
 10
35.220000000000006
 20
18.480000000000018
 10
35.220000000000006
 20
18.5
 10
35.220000000000006
 20
18.52000000000001
 10
35.220000000000006
 20
18.54000000000002
 10
35.220000000000006
 20
18.560000000000002
 10
35.220000000000006
 20
18.580000000000013
 10
35.220000000000006
 20
18.600000000000023
 10
35.220000000000006
 20
18.620000000000005
 10
35.220000000000006
 20
18.640000000000015
 10
35.220000000000006
 20
18.660000000000025
 10
35.220000000000006
 20
18.680000000000007
 10
35.220000000000006
 20
18.700000000000017
 10
35.220000000000006
 20
18.720000000000027
 10
35.220000000000006
 20
18.74000000000001
 10
35.20000000000001
 20
18.74000000000001
 10
35.20000000000001
 20
18.76000000000002
 10
35.20000000000001
 20
18.78
 10
35.20000000000001
 20
18.80000000000001
 10
35.20000000000001
 20
18.82000000000002
 10
35.20000000000001
 20
18.840000000000003
 10
35.20000000000001
 20
18.860000000000014
 10
35.20000000000001
 20
18.880000000000024
 10
35.20000000000001
 20
18.900000000000006
 10
35.18
 20
18.920000000000016
 10
35.18
 20
18.940000000000026
 10
35.18
 20
18.960000000000008
 10
35.18
 20
18.980000000000018
 10
35.18
 20
19.0
 10
35.18
 20
19.02000000000001
 10
35.18
 20
19.04000000000002
 10
35.18
 20
19.060000000000002
 10
35.160000000000004
 20
19.060000000000002
 10
35.160000000000004
 20
19.080000000000013
 10
35.160000000000004
 20
19.100000000000023
 10
35.160000000000004
 20
19.120000000000005
 10
35.160000000000004
 20
19.140000000000015
 10
35.160000000000004
 20
19.160000000000025
 10
35.160000000000004
 20
19.180000000000007
 10
35.160000000000004
 20
19.200000000000017
 10
35.160000000000004
 20
19.220000000000027
 10
35.14000000000001
 20
19.220000000000027
 10
35.14000000000001
 20
19.24000000000001
 10
35.14000000000001
 20
19.26000000000002
 10
35.14000000000001
 20
19.28
 10
35.14000000000001
 20
19.30000000000001
 10
35.14000000000001
 20
19.32000000000002
 10
35.14000000000001
 20
19.340000000000003
 10
35.14000000000001
 20
19.360000000000014
 10
35.14000000000001
 20
19.380000000000024
 10
35.14000000000001
 20
19.400000000000006
 10
35.14000000000001
 20
19.420000000000016
 10
35.14000000000001
 20
19.440000000000026
 10
35.14000000000001
 20
19.460000000000008
 10
35.14000000000001
 20
19.480000000000018
 10
35.14000000000001
 20
19.5
 10
35.14000000000001
 20
19.52000000000001
 10
35.14000000000001
 20
19.54000000000002
 10
35.14000000000001
 20
19.560000000000002
 10
35.14000000000001
 20
19.580000000000013
 10
35.14000000000001
 20
19.600000000000023
 10
35.14000000000001
 20
19.620000000000005
 10
35.14000000000001
 20
19.640000000000015
 10
35.14000000000001
 20
19.660000000000025
 10
35.14000000000001
 20
19.680000000000007
 10
35.14000000000001
 20
19.700000000000017
 10
35.14000000000001
 20
19.720000000000027
 10
35.14000000000001
 20
19.74000000000001
 10
35.14000000000001
 20
19.76000000000002
 10
35.14000000000001
 20
19.78
 10
35.160000000000004
 20
19.78
 10
35.160000000000004
 20
19.80000000000001
 10
35.160000000000004
 20
19.82000000000002
 10
35.160000000000004
 20
19.840000000000003
 10
35.160000000000004
 20
19.860000000000014
 10
35.160000000000004
 20
19.880000000000024
 10
35.160000000000004
 20
19.900000000000006
 10
35.160000000000004
 20
19.920000000000016
 10
35.18
 20
19.940000000000026
 10
35.18
 20
19.960000000000008
 10
35.18
 20
19.980000000000018
 10
35.18
 20
20.0
 10
35.18
 20
20.02000000000001
 10
35.20000000000001
 20
20.04000000000002
 10
35.20000000000001
 20
20.060000000000002
 10
35.20000000000001
 20
20.080000000000013
 10
35.20000000000001
 20
20.100000000000023
 10
35.220000000000006
 20
20.120000000000005
 10
35.220000000000006
 20
20.140000000000015
 10
35.220000000000006
 20
20.160000000000025
 10
35.220000000000006
 20
20.180000000000007
 10
35.24
 20
20.200000000000017
 10
35.24
 20
20.220000000000027
 10
35.24
 20
20.24000000000001
 10
35.24
 20
20.26000000000002
 10
35.26
 20
20.26000000000002
 10
35.26
 20
20.28
 10
35.26
 20
20.30000000000001
 10
35.26
 20
20.32000000000002
 10
35.28000000000001
 20
20.340000000000003
 10
35.28000000000001
 20
20.360000000000014
 10
35.28000000000001
 20
20.380000000000024
 10
35.300000000000004
 20
20.380000000000024
 10
35.300000000000004
 20
20.400000000000006
 10
35.300000000000004
 20
20.420000000000016
 10
35.300000000000004
 20
20.440000000000026
 10
35.32
 20
20.460000000000008
 10
35.32
 20
20.480000000000018
 10
35.339999999999996
 20
20.5
 10
35.339999999999996
 20
20.52000000000001
 10
35.339999999999996
 20
20.54000000000002
 10
35.36000000000001
 20
20.560000000000002
 10
35.36000000000001
 20
20.580000000000013
 10
35.36000000000001
 20
20.600000000000023
 10
35.38
 20
20.600000000000023
 10
35.38
 20
20.620000000000005
 10
35.38
 20
20.640000000000015
 10
35.4
 20
20.660000000000025
 10
35.4
 20
20.680000000000007
 10
35.4
 20
20.700000000000017
 10
35.42000000000001
 20
20.700000000000017
 10
35.42000000000001
 20
20.720000000000027
 10
35.42000000000001
 20
20.74000000000001
 10
35.440000000000005
 20
20.74000000000001
 10
35.440000000000005
 20
20.76000000000002
 10
35.440000000000005
 20
20.78
 10
35.46
 20
20.78
 10
35.46
 20
20.80000000000001
 10
35.46
 20
20.82000000000002
 10
35.48
 20
20.82000000000002
 10
35.48
 20
20.840000000000003
 10
35.48
 20
20.860000000000014
 10
35.50000000000001
 20
20.880000000000024
 10
35.50000000000001
 20
20.900000000000006
 10
35.52
 20
20.920000000000016
 10
35.52
 20
20.940000000000026
 10
35.54
 20
20.960000000000008
 10
35.54
 20
20.980000000000018
 10
35.56000000000001
 20
21.0
 10
35.56000000000001
 20
21.02000000000001
 10
35.580000000000005
 20
21.04000000000002
 10
35.580000000000005
 20
21.060000000000002
 10
35.6
 20
21.080000000000013
 10
35.6
 20
21.100000000000023
 10
35.62
 20
21.100000000000023
 10
35.62
 20
21.120000000000005
 10
35.62
 20
21.140000000000015
 10
35.64000000000001
 20
21.140000000000015
 10
35.64000000000001
 20
21.160000000000025
 10
35.64000000000001
 20
21.180000000000007
 10
35.660000000000004
 20
21.180000000000007
 10
35.660000000000004
 20
21.200000000000017
 10
35.660000000000004
 20
21.220000000000027
 10
35.68
 20
21.220000000000027
 10
35.68
 20
21.24000000000001
 10
35.70000000000001
 20
21.26000000000002
 10
35.70000000000001
 20
21.28
 10
35.720000000000006
 20
21.28
 10
35.720000000000006
 20
21.30000000000001
 10
35.720000000000006
 20
21.32000000000002
 10
35.74
 20
21.32000000000002
 10
35.74
 20
21.340000000000003
 10
35.76
 20
21.360000000000014
 10
35.76
 20
21.380000000000024
 10
35.78000000000001
 20
21.380000000000024
 10
35.78000000000001
 20
21.400000000000006
 10
35.78000000000001
 20
21.420000000000016
 10
35.800000000000004
 20
21.420000000000016
 10
35.800000000000004
 20
21.440000000000026
 10
35.82
 20
21.460000000000008
 10
35.82
 20
21.480000000000018
 10
35.839999999999996
 20
21.480000000000018
 10
35.839999999999996
 20
21.5
 10
35.839999999999996
 20
21.52000000000001
 10
36.88
 20
21.580000000000013
 10
37.92000000000001
 20
21.54000000000002
 10
37.92000000000001
 20
21.52000000000001
 10
37.940000000000005
 20
21.52000000000001
 10
37.940000000000005
 20
21.5
 10
37.96
 20
21.5
 10
37.96
 20
21.480000000000018
 10
37.96
 20
21.460000000000008
 10
37.98
 20
21.460000000000008
 10
37.98
 20
21.440000000000026
 10
38.00000000000001
 20
21.420000000000016
 10
38.00000000000001
 20
21.400000000000006
 10
38.02
 20
21.400000000000006
 10
38.02
 20
21.380000000000024
 10
38.04
 20
21.360000000000014
 10
38.04
 20
21.340000000000003
 10
38.06000000000001
 20
21.340000000000003
 10
38.06000000000001
 20
21.32000000000002
 10
38.080000000000005
 20
21.30000000000001
 10
38.080000000000005
 20
21.28
 10
38.1
 20
21.26000000000002
 10
38.1
 20
21.24000000000001
 10
38.12
 20
21.24000000000001
 10
38.12
 20
21.220000000000027
 10
38.14000000000001
 20
21.200000000000017
 10
38.14000000000001
 20
21.180000000000007
 10
38.160000000000004
 20
21.160000000000025
 10
38.160000000000004
 20
21.140000000000015
 10
38.18
 20
21.140000000000015
 10
38.18
 20
21.120000000000005
 10
38.20000000000001
 20
21.100000000000023
 10
38.20000000000001
 20
21.080000000000013
 10
38.220000000000006
 20
21.060000000000002
 10
38.220000000000006
 20
21.04000000000002
 10
38.24
 20
21.02000000000001
 10
38.24
 20
21.0
 10
38.26
 20
21.0
 10
38.26
 20
20.980000000000018
 10
38.26
 20
20.960000000000008
 10
38.28000000000001
 20
20.960000000000008
 10
38.28000000000001
 20
20.940000000000026
 10
38.28000000000001
 20
20.920000000000016
 10
38.300000000000004
 20
20.920000000000016
 10
38.300000000000004
 20
20.900000000000006
 10
38.300000000000004
 20
20.880000000000024
 10
38.32
 20
20.880000000000024
 10
38.32
 20
20.860000000000014
 10
38.339999999999996
 20
20.840000000000003
 10
38.339999999999996
 20
20.82000000000002
 10
38.339999999999996
 20
20.80000000000001
 10
38.36000000000001
 20
20.80000000000001
 10
38.36000000000001
 20
20.78
 10
38.36000000000001
 20
20.76000000000002
 10
38.38
 20
20.76000000000002
 10
38.38
 20
20.74000000000001
 10
38.38
 20
20.720000000000027
 10
38.4
 20
20.720000000000027
 10
38.4
 20
20.700000000000017
 10
38.4
 20
20.680000000000007
 10
38.42000000000001
 20
20.660000000000025
 10
38.42000000000001
 20
20.640000000000015
 10
38.440000000000005
 20
20.620000000000005
 10
38.440000000000005
 20
20.600000000000023
 10
38.440000000000005
 20
20.580000000000013
 10
38.46
 20
20.580000000000013
 10
38.46
 20
20.560000000000002
 10
38.46
 20
20.54000000000002
 10
38.48
 20
20.52000000000001
 10
38.48
 20
20.5
 10
38.48
 20
20.480000000000018
 10
38.50000000000001
 20
20.480000000000018
 10
38.50000000000001
 20
20.460000000000008
 10
38.50000000000001
 20
20.440000000000026
 10
38.52
 20
20.420000000000016
 10
38.52
 20
20.400000000000006
 10
38.52
 20
20.380000000000024
 10
38.54
 20
20.380000000000024
 10
38.54
 20
20.360000000000014
 10
38.54
 20
20.340000000000003
 10
38.56000000000001
 20
20.32000000000002
 10
38.56000000000001
 20
20.30000000000001
 10
38.56000000000001
 20
20.28
 10
38.56000000000001
 20
20.26000000000002
 10
38.580000000000005
 20
20.26000000000002
 10
38.580000000000005
 20
20.24000000000001
 10
38.580000000000005
 20
20.220000000000027
 10
38.580000000000005
 20
20.200000000000017
 10
38.6
 20
20.180000000000007
 10
38.6
 20
20.160000000000025
 10
38.6
 20
20.140000000000015
 10
38.62
 20
20.120000000000005
 10
38.62
 20
20.100000000000023
 10
38.62
 20
20.080000000000013
 10
38.62
 20
20.060000000000002
 10
38.62
 20
20.04000000000002
 10
38.64000000000001
 20
20.02000000000001
 10
38.64000000000001
 20
20.0
 10
38.64000000000001
 20
19.980000000000018
 10
38.64000000000001
 20
19.960000000000008
 10
38.660000000000004
 20
19.940000000000026
 10
38.660000000000004
 20
19.920000000000016
 10
38.660000000000004
 20
19.900000000000006
 10
38.660000000000004
 20
19.880000000000024
 10
38.660000000000004
 20
19.860000000000014
 10
38.660000000000004
 20
19.840000000000003
 10
38.68
 20
19.82000000000002
 10
38.68
 20
19.80000000000001
 10
38.68
 20
19.78
 10
38.68
 20
19.76000000000002
 10
38.68
 20
19.74000000000001
 10
38.68
 20
19.720000000000027
 10
38.68
 20
19.700000000000017
 10
38.68
 20
19.680000000000007
 10
38.68
 20
19.660000000000025
 10
38.68
 20
19.640000000000015
 10
38.68
 20
19.620000000000005
 10
38.68
 20
19.600000000000023
 10
38.70000000000001
 20
19.600000000000023
 10
38.70000000000001
 20
19.580000000000013
 10
38.70000000000001
 20
19.560000000000002
 10
38.70000000000001
 20
19.54000000000002
 10
38.70000000000001
 20
19.52000000000001
 10
38.70000000000001
 20
19.5
 10
38.70000000000001
 20
19.480000000000018
 10
38.70000000000001
 20
19.460000000000008
 10
38.70000000000001
 20
19.440000000000026
 10
38.70000000000001
 20
19.420000000000016
 10
38.70000000000001
 20
19.400000000000006
 10
38.70000000000001
 20
19.380000000000024
 10
38.68
 20
19.360000000000014
 10
38.68
 20
19.340000000000003
 10
38.68
 20
19.32000000000002
 10
38.68
 20
19.30000000000001
 10
38.68
 20
19.28
 10
38.68
 20
19.26000000000002
 10
38.68
 20
19.24000000000001
 10
38.68
 20
19.220000000000027
 10
38.68
 20
19.200000000000017
 10
38.68
 20
19.180000000000007
 10
38.68
 20
19.160000000000025
 10
38.68
 20
19.140000000000015
 10
38.68
 20
19.120000000000005
 10
38.660000000000004
 20
19.100000000000023
 10
38.660000000000004
 20
19.080000000000013
 10
38.660000000000004
 20
19.060000000000002
 10
38.660000000000004
 20
19.04000000000002
 10
38.660000000000004
 20
19.02000000000001
 10
38.660000000000004
 20
19.0
 10
38.660000000000004
 20
18.980000000000018
 10
38.660000000000004
 20
18.960000000000008
 10
38.660000000000004
 20
18.940000000000026
 10
38.660000000000004
 20
18.920000000000016
 10
38.64000000000001
 20
18.920000000000016
 10
38.64000000000001
 20
18.900000000000006
 10
38.64000000000001
 20
18.880000000000024
 10
38.64000000000001
 20
18.860000000000014
 10
38.64000000000001
 20
18.840000000000003
 10
38.64000000000001
 20
18.82000000000002
 10
38.64000000000001
 20
18.80000000000001
 10
38.64000000000001
 20
18.78
 10
38.64000000000001
 20
18.76000000000002
 10
38.64000000000001
 20
18.74000000000001
 10
38.64000000000001
 20
18.720000000000027
 10
38.64000000000001
 20
18.700000000000017
 10
38.64000000000001
 20
18.680000000000007
 10
38.64000000000001
 20
18.660000000000025
 10
38.64000000000001
 20
18.640000000000015
 10
38.64000000000001
 20
18.620000000000005
 10
38.64000000000001
 20
18.600000000000023
 10
38.64000000000001
 20
18.580000000000013
 10
38.64000000000001
 20
18.560000000000002
 10
38.64000000000001
 20
18.54000000000002
 10
38.64000000000001
 20
18.52000000000001
 10
38.64000000000001
 20
18.5
 10
38.660000000000004
 20
18.480000000000018
 10
38.660000000000004
 20
18.460000000000008
 10
38.660000000000004
 20
18.440000000000026
 10
38.660000000000004
 20
18.420000000000016
 10
38.660000000000004
 20
18.400000000000006
 10
38.68
 20
18.400000000000006
 10
38.68
 20
18.380000000000024
 10
38.68
 20
18.360000000000014
 10
38.68
 20
18.340000000000003
 10
38.70000000000001
 20
18.340000000000003
 10
38.70000000000001
 20
18.32000000000002
 10
38.70000000000001
 20
18.30000000000001
 10
38.720000000000006
 20
18.30000000000001
 10
38.720000000000006
 20
18.28
 10
38.720000000000006
 20
18.26000000000002
 10
38.74
 20
18.24000000000001
 10
38.74
 20
18.220000000000027
 10
38.76
 20
18.220000000000027
 10
38.76
 20
18.200000000000017
 10
38.76
 20
18.180000000000007
 10
38.78000000000001
 20
18.180000000000007
 10
38.78000000000001
 20
18.160000000000025
 10
38.800000000000004
 20
18.160000000000025
 10
38.800000000000004
 20
18.140000000000015
 10
38.800000000000004
 20
18.120000000000005
 10
38.82
 20
18.120000000000005
 10
38.82
 20
18.100000000000023
 10
38.839999999999996
 20
18.100000000000023
 10
38.839999999999996
 20
18.080000000000013
 10
38.86000000000001
 20
18.080000000000013
 10
38.86000000000001
 20
18.060000000000002
 10
38.88
 20
18.060000000000002
 10
38.88
 20
18.04000000000002
 10
38.9
 20
18.04000000000002
 10
38.9
 20
18.02000000000001
 10
38.92000000000001
 20
18.02000000000001
 10
38.92000000000001
 20
18.0
 10
38.940000000000005
 20
18.0
 10
38.940000000000005
 20
17.980000000000018
 10
38.96
 20
17.980000000000018
 10
38.96
 20
17.960000000000008
 10
38.98
 20
17.960000000000008
 10
38.98
 20
17.940000000000026
 10
39.00000000000001
 20
17.940000000000026
 10
39.00000000000001
 20
17.920000000000016
 10
39.02
 20
17.920000000000016
 10
39.04
 20
17.920000000000016
 10
39.04
 20
17.900000000000006
 10
39.06000000000001
 20
17.900000000000006
 10
39.06000000000001
 20
17.880000000000024
 10
39.080000000000005
 20
17.880000000000024
 10
39.1
 20
17.880000000000024
 10
39.42000000000001
 20
17.76000000000002
 10
39.76
 20
17.640000000000015
 10
40.080000000000005
 20
17.5
 10
40.4
 20
17.360000000000014
 10
40.4
 20
17.340000000000003
 10
40.42000000000001
 20
17.340000000000003
 10
40.440000000000005
 20
17.340000000000003
 10
40.46
 20
17.340000000000003
 10
40.48
 20
17.340000000000003
 10
40.50000000000001
 20
17.340000000000003
 10
40.52
 20
17.340000000000003
 10
40.54
 20
17.340000000000003
 10
40.56000000000001
 20
17.340000000000003
 10
40.580000000000005
 20
17.340000000000003
 10
40.6
 20
17.340000000000003
 10
40.62
 20
17.340000000000003
 10
40.64000000000001
 20
17.340000000000003
 10
40.660000000000004
 20
17.340000000000003
 10
40.68
 20
17.340000000000003
 10
40.70000000000001
 20
17.340000000000003
 10
40.720000000000006
 20
17.340000000000003
 10
40.74
 20
17.340000000000003
 10
40.76
 20
17.340000000000003
 10
40.78000000000001
 20
17.340000000000003
 10
40.800000000000004
 20
17.340000000000003
 10
40.82
 20
17.340000000000003
 10
40.82
 20
17.360000000000014
 10
40.839999999999996
 20
17.360000000000014
 10
40.86000000000001
 20
17.360000000000014
 10
40.88
 20
17.360000000000014
 10
40.9
 20
17.360000000000014
 10
40.9
 20
17.380000000000024
 10
40.92000000000001
 20
17.380000000000024
 10
40.940000000000005
 20
17.380000000000024
 10
40.96
 20
17.380000000000024
 10
40.96
 20
17.400000000000006
 10
40.98
 20
17.400000000000006
 10
41.00000000000001
 20
17.400000000000006
 10
41.00000000000001
 20
17.420000000000016
 10
41.02
 20
17.420000000000016
 10
41.04
 20
17.420000000000016
 10
41.04
 20
17.440000000000026
 10
41.06000000000001
 20
17.440000000000026
 10
41.080000000000005
 20
17.440000000000026
 10
41.080000000000005
 20
17.460000000000008
 10
41.1
 20
17.460000000000008
 10
41.12
 20
17.460000000000008
 10
41.12
 20
17.480000000000018
 10
41.14000000000001
 20
17.480000000000018
 10
41.14000000000001
 20
17.5
 10
41.160000000000004
 20
17.5
 10
41.160000000000004
 20
17.52000000000001
 10
41.18
 20
17.52000000000001
 10
41.20000000000001
 20
17.54000000000002
 10
41.220000000000006
 20
17.54000000000002
 10
41.220000000000006
 20
17.560000000000002
 10
41.24
 20
17.560000000000002
 10
41.24
 20
17.580000000000013
 10
41.26
 20
17.580000000000013
 10
41.26
 20
17.600000000000023
 10
41.28000000000001
 20
17.600000000000023
 10
41.28000000000001
 20
17.620000000000005
 10
41.300000000000004
 20
17.620000000000005
 10
41.300000000000004
 20
17.640000000000015
 10
41.32
 20
17.640000000000015
 10
41.32
 20
17.660000000000025
 10
41.339999999999996
 20
17.680000000000007
 10
41.36000000000001
 20
17.700000000000017
 10
41.36000000000001
 20
17.720000000000027
 10
41.38
 20
17.720000000000027
 10
41.38
 20
17.74000000000001
 10
41.4
 20
17.74000000000001
 10
41.4
 20
17.76000000000002
 10
41.42000000000001
 20
17.76000000000002
 10
41.42000000000001
 20
17.78
 10
41.440000000000005
 20
17.80000000000001
 10
41.440000000000005
 20
17.82000000000002
 10
41.46
 20
17.82000000000002
 10
41.46
 20
17.840000000000003
 10
41.48
 20
17.840000000000003
 10
41.48
 20
17.860000000000014
 10
41.50000000000001
 20
17.880000000000024
 10
41.50000000000001
 20
17.900000000000006
 10
41.52
 20
17.900000000000006
 10
41.52
 20
17.920000000000016
 10
41.54
 20
17.920000000000016
 10
41.54
 20
17.940000000000026
 10
41.56000000000001
 20
17.960000000000008
 10
41.56000000000001
 20
17.980000000000018
 10
41.580000000000005
 20
17.980000000000018
 10
41.580000000000005
 20
18.0
 10
41.6
 20
18.0
 10
41.6
 20
18.02000000000001
 10
41.62
 20
18.02000000000001
 10
41.62
 20
18.04000000000002
 10
41.62
 20
18.060000000000002
 10
41.64000000000001
 20
18.060000000000002
 10
41.64000000000001
 20
18.080000000000013
 10
41.660000000000004
 20
18.080000000000013
 10
41.660000000000004
 20
18.100000000000023
 10
41.68
 20
18.100000000000023
 10
41.68
 20
18.120000000000005
 10
41.70000000000001
 20
18.120000000000005
 10
41.70000000000001
 20
18.140000000000015
 10
41.720000000000006
 20
18.160000000000025
 10
41.74
 20
18.180000000000007
 10
41.74
 20
18.200000000000017
 10
41.76
 20
18.200000000000017
 10
41.76
 20
18.220000000000027
 10
41.78000000000001
 20
18.220000000000027
 10
41.78000000000001
 20
18.24000000000001
 10
41.800000000000004
 20
18.24000000000001
 10
41.800000000000004
 20
18.26000000000002
 10
41.82
 20
18.26000000000002
 10
41.82
 20
18.28
 10
41.839999999999996
 20
18.28
 10
41.839999999999996
 20
18.30000000000001
 10
41.86000000000001
 20
18.30000000000001
 10
41.86000000000001
 20
18.32000000000002
 10
41.88
 20
18.32000000000002
 10
41.88
 20
18.340000000000003
 10
41.9
 20
18.340000000000003
 10
41.9
 20
18.360000000000014
 10
41.92000000000001
 20
18.360000000000014
 10
41.92000000000001
 20
18.380000000000024
 10
41.940000000000005
 20
18.380000000000024
 10
41.940000000000005
 20
18.400000000000006
 10
41.96
 20
18.400000000000006
 10
41.96
 20
18.420000000000016
 10
41.98
 20
18.420000000000016
 10
41.98
 20
18.440000000000026
 10
42.00000000000001
 20
18.440000000000026
 10
42.02
 20
18.460000000000008
 10
42.04
 20
18.460000000000008
 10
42.04
 20
18.480000000000018
 10
42.06000000000001
 20
18.480000000000018
 10
42.06000000000001
 20
18.5
 10
42.080000000000005
 20
18.5
 10
42.1
 20
18.52000000000001
 10
42.12
 20
18.52000000000001
 10
42.12
 20
18.54000000000002
 10
42.14000000000001
 20
18.560000000000002
 10
42.160000000000004
 20
18.560000000000002
 10
42.160000000000004
 20
18.580000000000013
 10
42.18
 20
18.580000000000013
 10
42.20000000000001
 20
18.600000000000023
 10
42.220000000000006
 20
18.600000000000023
 10
42.220000000000006
 20
18.620000000000005
 10
42.24
 20
18.620000000000005
 10
42.26
 20
18.620000000000005
 10
42.26
 20
18.640000000000015
 10
42.28000000000001
 20
18.640000000000015
 10
42.28000000000001
 20
18.660000000000025
 10
42.300000000000004
 20
18.660000000000025
 10
42.32
 20
18.680000000000007
 10
42.339999999999996
 20
18.680000000000007
 10
42.36000000000001
 20
18.700000000000017
 10
42.38
 20
18.700000000000017
 10
42.38
 20
18.720000000000027
 10
42.4
 20
18.720000000000027
 10
42.42000000000001
 20
18.720000000000027
 10
42.42000000000001
 20
18.74000000000001
 10
42.440000000000005
 20
18.74000000000001
 10
42.46
 20
18.74000000000001
 10
42.46
 20
18.76000000000002
 10
42.48
 20
18.76000000000002
 10
42.50000000000001
 20
18.78
 10
42.52
 20
18.78
 10
42.52
 20
18.80000000000001
 10
42.54
 20
18.80000000000001
 10
42.56000000000001
 20
18.80000000000001
 10
42.56000000000001
 20
18.82000000000002
 10
42.580000000000005
 20
18.82000000000002
 10
42.6
 20
18.82000000000002
 10
42.62
 20
18.840000000000003
 10
42.64000000000001
 20
18.840000000000003
 10
42.660000000000004
 20
18.860000000000014
 10
42.68
 20
18.860000000000014
 10
42.70000000000001
 20
18.880000000000024
 10
42.720000000000006
 20
18.880000000000024
 10
42.74
 20
18.880000000000024
 10
42.74
 20
18.900000000000006
 10
42.76
 20
18.900000000000006
 10
42.78000000000001
 20
18.900000000000006
 10
42.78000000000001
 20
18.920000000000016
 10
42.800000000000004
 20
18.920000000000016
 10
42.82
 20
18.920000000000016
 10
42.839999999999996
 20
18.940000000000026
 10
42.86000000000001
 20
18.940000000000026
 10
42.88
 20
18.940000000000026
 10
42.9
 20
18.960000000000008
 10
42.92000000000001
 20
18.960000000000008
 10
42.940000000000005
 20
18.960000000000008
 10
42.940000000000005
 20
18.980000000000018
 10
42.96
 20
18.980000000000018
 10
42.98
 20
18.980000000000018
 10
43.00000000000001
 20
19.0
 10
43.02
 20
19.0
 10
43.04
 20
19.0
 10
43.06000000000001
 20
19.02000000000001
 10
43.080000000000005
 20
19.02000000000001
 10
43.1
 20
19.02000000000001
 10
43.1
 20
19.04000000000002
 10
43.12
 20
19.04000000000002
 10
43.14000000000001
 20
19.04000000000002
 10
43.160000000000004
 20
19.04000000000002
 10
43.160000000000004
 20
19.060000000000002
 10
43.18
 20
19.060000000000002
 10
43.20000000000001
 20
19.060000000000002
 10
43.220000000000006
 20
19.060000000000002
 10
43.220000000000006
 20
19.080000000000013
 10
43.24
 20
19.080000000000013
 10
43.26
 20
19.080000000000013
 10
43.28000000000001
 20
19.080000000000013
 10
43.28000000000001
 20
19.100000000000023
 10
43.300000000000004
 20
19.100000000000023
 10
43.32
 20
19.100000000000023
 10
43.339999999999996
 20
19.100000000000023
 10
43.36000000000001
 20
19.120000000000005
 10
43.38
 20
19.120000000000005
 10
43.4
 20
19.120000000000005
 10
43.42000000000001
 20
19.120000000000005
 10
43.42000000000001
 20
19.140000000000015
 10
43.440000000000005
 20
19.140000000000015
 10
43.46
 20
19.140000000000015
 10
43.48
 20
19.140000000000015
 10
43.50000000000001
 20
19.160000000000025
 10
43.52
 20
19.160000000000025
 10
43.54
 20
19.160000000000025
 10
43.56000000000001
 20
19.160000000000025
 10
43.56000000000001
 20
19.180000000000007
 10
43.580000000000005
 20
19.180000000000007
 10
43.6
 20
19.180000000000007
 10
43.62
 20
19.180000000000007
 10
43.64000000000001
 20
19.180000000000007
 10
43.64000000000001
 20
19.200000000000017
 10
43.660000000000004
 20
19.200000000000017
 10
43.68
 20
19.200000000000017
 10
43.70000000000001
 20
19.200000000000017
 10
43.720000000000006
 20
19.200000000000017
 10
43.74
 20
19.220000000000027
 10
43.76
 20
19.220000000000027
 10
43.78000000000001
 20
19.220000000000027
 10
44.56000000000001
 20
18.54000000000002
 10
45.26
 20
17.78
 10
45.26
 20
17.76000000000002
 10
45.26
 20
17.74000000000001
 10
45.26
 20
17.720000000000027
 10
45.24
 20
17.700000000000017
 10
45.24
 20
17.680000000000007
 10
45.24
 20
17.660000000000025
 10
45.24
 20
17.640000000000015
 10
45.24
 20
17.620000000000005
 10
45.220000000000006
 20
17.620000000000005
 10
45.220000000000006
 20
17.600000000000023
 10
45.220000000000006
 20
17.580000000000013
 10
45.220000000000006
 20
17.560000000000002
 10
45.220000000000006
 20
17.54000000000002
 10
45.20000000000001
 20
17.52000000000001
 10
45.20000000000001
 20
17.5
 10
45.20000000000001
 20
17.480000000000018
 10
45.20000000000001
 20
17.460000000000008
 10
45.18
 20
17.440000000000026
 10
45.18
 20
17.420000000000016
 10
45.18
 20
17.400000000000006
 10
45.18
 20
17.380000000000024
 10
45.160000000000004
 20
17.360000000000014
 10
45.160000000000004
 20
17.340000000000003
 10
45.160000000000004
 20
17.32000000000002
 10
45.160000000000004
 20
17.30000000000001
 10
45.14000000000001
 20
17.28
 10
45.14000000000001
 20
17.26000000000002
 10
45.14000000000001
 20
17.24000000000001
 10
45.14000000000001
 20
17.220000000000027
 10
45.12
 20
17.220000000000027
 10
45.12
 20
17.200000000000017
 10
45.12
 20
17.180000000000007
 10
45.12
 20
17.160000000000025
 10
45.1
 20
17.140000000000015
 10
45.1
 20
17.120000000000005
 10
45.1
 20
17.100000000000023
 10
45.080000000000005
 20
17.080000000000013
 10
45.080000000000005
 20
17.060000000000002
 10
45.080000000000005
 20
17.04000000000002
 10
45.080000000000005
 20
17.02000000000001
 10
45.06000000000001
 20
17.02000000000001
 10
45.06000000000001
 20
17.0
 10
45.06000000000001
 20
16.980000000000018
 10
45.06000000000001
 20
16.960000000000008
 10
45.04
 20
16.960000000000008
 10
45.04
 20
16.940000000000026
 10
45.04
 20
16.920000000000016
 10
45.02
 20
16.900000000000006
 10
45.02
 20
16.880000000000024
 10
45.02
 20
16.860000000000014
 10
45.00000000000001
 20
16.840000000000003
 10
45.00000000000001
 20
16.82000000000002
 10
45.00000000000001
 20
16.80000000000001
 10
44.98
 20
16.80000000000001
 10
44.98
 20
16.78
 10
44.98
 20
16.76000000000002
 10
44.96
 20
16.74000000000001
 10
44.96
 20
16.720000000000027
 10
44.96
 20
16.700000000000017
 10
44.940000000000005
 20
16.700000000000017
 10
44.940000000000005
 20
16.680000000000007
 10
44.940000000000005
 20
16.660000000000025
 10
44.92000000000001
 20
16.640000000000015
 10
44.92000000000001
 20
16.620000000000005
 10
44.92000000000001
 20
16.600000000000023
 10
44.9
 20
16.600000000000023
 10
44.9
 20
16.580000000000013
 10
44.9
 20
16.560000000000002
 10
44.88
 20
16.54000000000002
 10
44.88
 20
16.52000000000001
 10
44.86000000000001
 20
16.5
 10
44.86000000000001
 20
16.480000000000018
 10
44.839999999999996
 20
16.460000000000008
 10
44.839999999999996
 20
16.440000000000026
 10
44.82
 20
16.420000000000016
 10
44.82
 20
16.400000000000006
 10
44.800000000000004
 20
16.400000000000006
 10
44.800000000000004
 20
16.380000000000024
 10
44.800000000000004
 20
16.360000000000014
 10
44.78000000000001
 20
16.360000000000014
 10
44.78000000000001
 20
16.340000000000003
 10
44.78000000000001
 20
16.32000000000002
 10
44.76
 20
16.32000000000002
 10
44.76
 20
16.30000000000001
 10
44.74
 20
16.28
 10
44.74
 20
16.26000000000002
 10
44.720000000000006
 20
16.24000000000001
 10
44.720000000000006
 20
16.220000000000027
 10
44.70000000000001
 20
16.220000000000027
 10
44.70000000000001
 20
16.200000000000017
 10
44.68
 20
16.180000000000007
 10
44.68
 20
16.160000000000025
 10
44.660000000000004
 20
16.160000000000025
 10
44.660000000000004
 20
16.140000000000015
 10
44.64000000000001
 20
16.120000000000005
 10
44.64000000000001
 20
16.100000000000023
 10
44.62
 20
16.100000000000023
 10
44.62
 20
16.080000000000013
 10
44.6
 20
16.060000000000002
 10
44.6
 20
16.04000000000002
 10
44.580000000000005
 20
16.04000000000002
 10
44.580000000000005
 20
16.02000000000001
 10
44.56000000000001
 20
16.02000000000001
 10
44.56000000000001
 20
16.0
 10
44.54
 20
15.980000000000018
 10
44.52
 20
15.960000000000008
 10
44.50000000000001
 20
15.940000000000026
 10
44.50000000000001
 20
15.920000000000016
 10
44.48
 20
15.920000000000016
 10
44.48
 20
15.900000000000006
 10
44.46
 20
15.900000000000006
 10
44.46
 20
15.880000000000024
 10
44.440000000000005
 20
15.880000000000024
 10
44.440000000000005
 20
15.860000000000014
 10
44.42000000000001
 20
15.860000000000014
 10
44.42000000000001
 20
15.840000000000003
 10
44.4
 20
15.840000000000003
 10
44.4
 20
15.820000000000022
 10
44.38
 20
15.800000000000011
 10
44.36000000000001
 20
15.780000000000001
 10
44.339999999999996
 20
15.76000000000002
 10
44.32
 20
15.740000000000009
 10
44.300000000000004
 20
15.720000000000027
 10
44.28000000000001
 20
15.700000000000017
 10
44.26
 20
15.700000000000017
 10
44.26
 20
15.680000000000007
 10
44.24
 20
15.680000000000007
 10
44.24
 20
15.660000000000025
 10
44.220000000000006
 20
15.660000000000025
 10
44.220000000000006
 20
15.640000000000015
 10
44.20000000000001
 20
15.640000000000015
 10
44.20000000000001
 20
15.620000000000005
 10
44.18
 20
15.620000000000005
 10
44.18
 20
15.600000000000023
 10
44.160000000000004
 20
15.600000000000023
 10
44.14000000000001
 20
15.580000000000013
 10
44.12
 20
15.560000000000002
 10
44.1
 20
15.560000000000002
 10
44.1
 20
15.54000000000002
 10
44.080000000000005
 20
15.54000000000002
 10
44.080000000000005
 20
15.52000000000001
 10
44.06000000000001
 20
15.52000000000001
 10
44.06000000000001
 20
15.5
 10
44.04
 20
15.5
 10
44.02
 20
15.480000000000018
 10
44.00000000000001
 20
15.480000000000018
 10
44.00000000000001
 20
15.460000000000008
 10
43.98
 20
15.460000000000008
 10
43.98
 20
15.440000000000026
 10
43.96
 20
15.440000000000026
 10
43.96
 20
15.420000000000016
 10
43.940000000000005
 20
15.420000000000016
 10
43.92000000000001
 20
15.400000000000006
 10
43.9
 20
15.400000000000006
 10
43.9
 20
15.380000000000024
 10
43.88
 20
15.380000000000024
 10
43.88
 20
15.360000000000014
 10
43.86000000000001
 20
15.360000000000014
 10
43.86000000000001
 20
15.340000000000003
 10
43.839999999999996
 20
15.340000000000003
 10
43.839999999999996
 20
15.320000000000022
 10
43.82
 20
15.320000000000022
 10
43.82
 20
15.300000000000011
 10
43.800000000000004
 20
15.300000000000011
 10
43.800000000000004
 20
15.280000000000001
 10
43.78000000000001
 20
15.280000000000001
 10
43.76
 20
15.26000000000002
 10
43.74
 20
15.240000000000009
 10
43.720000000000006
 20
15.220000000000027
 10
43.70000000000001
 20
15.200000000000017
 10
43.70000000000001
 20
15.180000000000007
 10
43.68
 20
15.180000000000007
 10
43.68
 20
15.160000000000025
 10
43.660000000000004
 20
15.160000000000025
 10
43.660000000000004
 20
15.140000000000015
 10
43.64000000000001
 20
15.140000000000015
 10
43.64000000000001
 20
15.120000000000005
 10
43.62
 20
15.120000000000005
 10
43.62
 20
15.100000000000023
 10
43.62
 20
15.080000000000013
 10
43.6
 20
15.080000000000013
 10
43.6
 20
15.060000000000002
 10
43.580000000000005
 20
15.060000000000002
 10
43.580000000000005
 20
15.04000000000002
 10
43.580000000000005
 20
15.02000000000001
 10
43.56000000000001
 20
15.02000000000001
 10
43.56000000000001
 20
15.0
 10
43.56000000000001
 20
14.980000000000018
 10
43.54
 20
14.980000000000018
 10
43.54
 20
14.960000000000008
 10
43.54
 20
14.940000000000026
 10
43.52
 20
14.940000000000026
 10
43.52
 20
14.920000000000016
 10
43.52
 20
14.900000000000006
 10
43.52
 20
14.880000000000024
 10
43.50000000000001
 20
14.880000000000024
 10
43.50000000000001
 20
14.860000000000014
 10
43.50000000000001
 20
14.840000000000003
 10
43.50000000000001
 20
14.820000000000022
 10
43.50000000000001
 20
14.800000000000011
 10
43.48
 20
14.800000000000011
 10
43.48
 20
14.780000000000001
 10
43.48
 20
14.76000000000002
 10
43.48
 20
14.740000000000009
 10
43.48
 20
14.720000000000027
 10
43.48
 20
14.700000000000017
 10
43.48
 20
14.680000000000007
 10
43.48
 20
14.660000000000025
 10
43.48
 20
14.640000000000015
 10
43.48
 20
14.620000000000005
 10
43.48
 20
14.600000000000023
 10
43.48
 20
14.580000000000013
 10
43.48
 20
14.560000000000002
 10
43.48
 20
14.54000000000002
 10
43.48
 20
14.52000000000001
 10
43.48
 20
14.5
 10
43.48
 20
14.480000000000018
 10
43.48
 20
14.460000000000008
 10
43.48
 20
14.440000000000026
 10
43.48
 20
14.420000000000016
 10
43.48
 20
14.400000000000006
 10
43.50000000000001
 20
14.400000000000006
 10
43.50000000000001
 20
14.380000000000024
 10
43.50000000000001
 20
14.360000000000014
 10
43.660000000000004
 20
14.04000000000002
 10
43.800000000000004
 20
13.720000000000027
 10
43.940000000000005
 20
13.400000000000006
 10
44.06000000000001
 20
13.060000000000002
 10
44.06000000000001
 20
13.04000000000002
 10
44.080000000000005
 20
13.04000000000002
 10
44.080000000000005
 20
13.02000000000001
 10
44.1
 20
13.02000000000001
 10
44.1
 20
13.0
 10
44.1
 20
12.980000000000018
 10
44.12
 20
12.980000000000018
 10
44.12
 20
12.960000000000008
 10
44.14000000000001
 20
12.960000000000008
 10
44.14000000000001
 20
12.940000000000026
 10
44.160000000000004
 20
12.940000000000026
 10
44.160000000000004
 20
12.920000000000016
 10
44.18
 20
12.920000000000016
 10
44.18
 20
12.900000000000006
 10
44.20000000000001
 20
12.900000000000006
 10
44.20000000000001
 20
12.880000000000024
 10
44.220000000000006
 20
12.880000000000024
 10
44.220000000000006
 20
12.860000000000014
 10
44.24
 20
12.860000000000014
 10
44.24
 20
12.840000000000003
 10
44.26
 20
12.840000000000003
 10
44.26
 20
12.820000000000022
 10
44.28000000000001
 20
12.820000000000022
 10
44.28000000000001
 20
12.800000000000011
 10
44.300000000000004
 20
12.800000000000011
 10
44.32
 20
12.800000000000011
 10
44.32
 20
12.780000000000001
 10
44.339999999999996
 20
12.780000000000001
 10
44.339999999999996
 20
12.76000000000002
 10
44.36000000000001
 20
12.76000000000002
 10
44.38
 20
12.76000000000002
 10
44.38
 20
12.740000000000009
 10
44.4
 20
12.740000000000009
 10
44.4
 20
12.720000000000027
 10
44.42000000000001
 20
12.720000000000027
 10
44.440000000000005
 20
12.720000000000027
 10
44.440000000000005
 20
12.700000000000017
 10
44.46
 20
12.700000000000017
 10
44.48
 20
12.700000000000017
 10
44.48
 20
12.680000000000007
 10
44.50000000000001
 20
12.680000000000007
 10
44.52
 20
12.680000000000007
 10
44.54
 20
12.680000000000007
 10
44.54
 20
12.660000000000025
 10
44.56000000000001
 20
12.660000000000025
 10
44.580000000000005
 20
12.660000000000025
 10
44.6
 20
12.660000000000025
 10
44.6
 20
12.640000000000015
 10
44.62
 20
12.640000000000015
 10
44.64000000000001
 20
12.640000000000015
 10
44.660000000000004
 20
12.640000000000015
 10
44.68
 20
12.640000000000015
 10
44.70000000000001
 20
12.640000000000015
 10
44.720000000000006
 20
12.640000000000015
 10
44.720000000000006
 20
12.620000000000005
 10
44.74
 20
12.620000000000005
 10
44.76
 20
12.620000000000005
 10
44.78000000000001
 20
12.620000000000005
 10
44.800000000000004
 20
12.620000000000005
 10
44.82
 20
12.620000000000005
 10
44.839999999999996
 20
12.620000000000005
 10
44.86000000000001
 20
12.620000000000005
 10
44.88
 20
12.620000000000005
 10
44.9
 20
12.620000000000005
 10
44.92000000000001
 20
12.620000000000005
 10
44.940000000000005
 20
12.620000000000005
 10
44.96
 20
12.620000000000005
 10
44.98
 20
12.620000000000005
 10
44.98
 20
12.640000000000015
 10
45.00000000000001
 20
12.640000000000015
 10
45.02
 20
12.640000000000015
 10
45.04
 20
12.640000000000015
 10
45.06000000000001
 20
12.640000000000015
 10
45.080000000000005
 20
12.640000000000015
 10
45.1
 20
12.640000000000015
 10
45.12
 20
12.640000000000015
 10
45.14000000000001
 20
12.640000000000015
 10
45.160000000000004
 20
12.640000000000015
 10
45.160000000000004
 20
12.660000000000025
 10
45.18
 20
12.660000000000025
 10
45.20000000000001
 20
12.660000000000025
 10
45.220000000000006
 20
12.660000000000025
 10
45.24
 20
12.660000000000025
 10
45.26
 20
12.660000000000025
 10
45.28000000000001
 20
12.660000000000025
 10
45.300000000000004
 20
12.660000000000025
 10
45.300000000000004
 20
12.680000000000007
 10
45.32
 20
12.680000000000007
 10
45.339999999999996
 20
12.680000000000007
 10
45.36000000000001
 20
12.680000000000007
 10
45.38
 20
12.680000000000007
 10
45.4
 20
12.680000000000007
 10
45.42000000000001
 20
12.680000000000007
 10
45.440000000000005
 20
12.680000000000007
 10
45.46
 20
12.680000000000007
 10
45.46
 20
12.700000000000017
 10
45.48
 20
12.700000000000017
 10
45.50000000000001
 20
12.700000000000017
 10
45.52
 20
12.700000000000017
 10
45.54
 20
12.700000000000017
 10
45.56000000000001
 20
12.700000000000017
 10
45.580000000000005
 20
12.700000000000017
 10
45.6
 20
12.700000000000017
 10
45.62
 20
12.700000000000017
 10
45.64000000000001
 20
12.700000000000017
 10
45.660000000000004
 20
12.700000000000017
 10
45.68
 20
12.700000000000017
 10
45.70000000000001
 20
12.700000000000017
 10
45.720000000000006
 20
12.700000000000017
 10
45.74
 20
12.700000000000017
 10
45.76
 20
12.700000000000017
 10
45.78000000000001
 20
12.700000000000017
 10
45.800000000000004
 20
12.700000000000017
 10
45.82
 20
12.700000000000017
 10
45.839999999999996
 20
12.700000000000017
 10
45.86000000000001
 20
12.700000000000017
 10
45.88
 20
12.700000000000017
 10
45.9
 20
12.700000000000017
 10
45.92000000000001
 20
12.700000000000017
 10
45.940000000000005
 20
12.700000000000017
 10
45.96
 20
12.700000000000017
 10
45.98
 20
12.700000000000017
 10
46.00000000000001
 20
12.700000000000017
 10
46.02
 20
12.700000000000017
 10
46.04
 20
12.700000000000017
 10
46.06000000000001
 20
12.700000000000017
 10
46.06000000000001
 20
12.680000000000007
 10
46.080000000000005
 20
12.680000000000007
 10
46.1
 20
12.680000000000007
 10
46.12
 20
12.680000000000007
 10
46.14000000000001
 20
12.680000000000007
 10
46.160000000000004
 20
12.680000000000007
 10
46.18
 20
12.680000000000007
 10
46.20000000000001
 20
12.660000000000025
 10
46.220000000000006
 20
12.660000000000025
 10
46.24
 20
12.660000000000025
 10
46.26
 20
12.660000000000025
 10
46.28000000000001
 20
12.660000000000025
 10
46.300000000000004
 20
12.660000000000025
 10
46.300000000000004
 20
12.640000000000015
 10
46.32
 20
12.640000000000015
 10
46.339999999999996
 20
12.640000000000015
 10
46.36000000000001
 20
12.640000000000015
 10
46.38
 20
12.640000000000015
 10
46.38
 20
12.620000000000005
 10
46.4
 20
12.620000000000005
 10
46.42000000000001
 20
12.620000000000005
 10
46.440000000000005
 20
12.620000000000005
 10
46.46
 20
12.620000000000005
 10
46.46
 20
12.600000000000023
 10
46.48
 20
12.600000000000023
 10
46.50000000000001
 20
12.600000000000023
 10
46.52
 20
12.600000000000023
 10
46.54
 20
12.580000000000013
 10
46.56000000000001
 20
12.580000000000013
 10
46.580000000000005
 20
12.580000000000013
 10
46.6
 20
12.560000000000002
 10
46.62
 20
12.560000000000002
 10
46.64000000000001
 20
12.560000000000002
 10
46.660000000000004
 20
12.54000000000002
 10
46.68
 20
12.54000000000002
 10
46.70000000000001
 20
12.54000000000002
 10
46.70000000000001
 20
12.52000000000001
 10
46.720000000000006
 20
12.52000000000001
 10
46.74
 20
12.52000000000001
 10
46.76
 20
12.52000000000001
 10
46.76
 20
12.5
 10
46.78000000000001
 20
12.5
 10
46.800000000000004
 20
12.5
 10
46.82
 20
12.480000000000018
 10
46.839999999999996
 20
12.480000000000018
 10
46.86000000000001
 20
12.480000000000018
 10
46.88
 20
12.460000000000008
 10
46.9
 20
12.460000000000008
 10
46.92000000000001
 20
12.440000000000026
 10
46.940000000000005
 20
12.440000000000026
 10
46.96
 20
12.440000000000026
 10
46.96
 20
12.420000000000016
 10
46.98
 20
12.420000000000016
 10
47.00000000000001
 20
12.420000000000016
 10
47.00000000000001
 20
12.400000000000006
 10
47.02
 20
12.400000000000006
 10
47.04
 20
12.400000000000006
 10
47.06000000000001
 20
12.380000000000024
 10
47.080000000000005
 20
12.380000000000024
 10
47.1
 20
12.360000000000014
 10
47.12
 20
12.360000000000014
 10
47.14000000000001
 20
12.340000000000003
 10
47.160000000000004
 20
12.340000000000003
 10
47.18
 20
12.320000000000022
 10
47.20000000000001
 20
12.320000000000022
 10
47.220000000000006
 20
12.300000000000011
 10
47.24
 20
12.300000000000011
 10
47.26
 20
12.280000000000001
 10
47.28000000000001
 20
12.280000000000001
 10
47.300000000000004
 20
12.26000000000002
 10
47.32
 20
12.26000000000002
 10
47.339999999999996
 20
12.240000000000009
 10
47.36000000000001
 20
12.240000000000009
 10
47.38
 20
12.220000000000027
 10
47.4
 20
12.220000000000027
 10
47.4
 20
12.200000000000017
 10
47.42000000000001
 20
12.200000000000017
 10
47.440000000000005
 20
12.200000000000017
 10
47.440000000000005
 20
12.180000000000007
 10
47.46
 20
12.180000000000007
 10
47.48
 20
12.160000000000025
 10
47.50000000000001
 20
12.160000000000025
 10
47.50000000000001
 20
12.140000000000015
 10
47.52
 20
12.140000000000015
 10
47.54
 20
12.140000000000015
 10
47.54
 20
12.120000000000005
 10
47.56000000000001
 20
12.120000000000005
 10
47.580000000000005
 20
12.120000000000005
 10
47.580000000000005
 20
12.100000000000023
 10
47.6
 20
12.100000000000023
 10
47.62
 20
12.080000000000013
 10
47.64000000000001
 20
12.080000000000013
 10
47.64000000000001
 20
12.060000000000002
 10
47.660000000000004
 20
12.060000000000002
 10
47.68
 20
12.060000000000002
 10
47.68
 20
12.04000000000002
 10
47.70000000000001
 20
12.04000000000002
 10
47.720000000000006
 20
12.02000000000001
 10
47.74
 20
12.02000000000001
 10
47.74
 20
12.0
 10
47.76
 20
12.0
 10
47.78000000000001
 20
12.0
 10
47.839999999999996
 20
10.960000000000008
 10
47.800000000000004
 20
9.920000000000016
 10
47.78000000000001
 20
9.920000000000016
 10
47.78000000000001
 20
9.900000000000006
 10
47.76
 20
9.900000000000006
 10
47.74
 20
9.880000000000024
 10
47.720000000000006
 20
9.880000000000024
 10
47.720000000000006
 20
9.860000000000014
 10
47.70000000000001
 20
9.860000000000014
 10
47.68
 20
9.860000000000014
 10
47.68
 20
9.840000000000003
 10
47.660000000000004
 20
9.840000000000003
 10
47.64000000000001
 20
9.820000000000022
 10
47.62
 20
9.820000000000022
 10
47.62
 20
9.800000000000011
 10
47.6
 20
9.800000000000011
 10
47.580000000000005
 20
9.780000000000001
 10
47.56000000000001
 20
9.780000000000001
 10
47.56000000000001
 20
9.76000000000002
 10
47.54
 20
9.76000000000002
 10
47.52
 20
9.76000000000002
 10
47.52
 20
9.740000000000009
 10
47.50000000000001
 20
9.740000000000009
 10
47.50000000000001
 20
9.720000000000027
 10
47.48
 20
9.720000000000027
 10
47.46
 20
9.720000000000027
 10
47.46
 20
9.700000000000017
 10
47.440000000000005
 20
9.700000000000017
 10
47.42000000000001
 20
9.700000000000017
 10
47.42000000000001
 20
9.680000000000007
 10
47.4
 20
9.680000000000007
 10
47.38
 20
9.660000000000025
 10
47.36000000000001
 20
9.660000000000025
 10
47.36000000000001
 20
9.640000000000015
 10
47.339999999999996
 20
9.640000000000015
 10
47.32
 20
9.640000000000015
 10
47.32
 20
9.620000000000005
 10
47.300000000000004
 20
9.620000000000005
 10
47.28000000000001
 20
9.620000000000005
 10
47.28000000000001
 20
9.600000000000023
 10
47.26
 20
9.600000000000023
 10
47.24
 20
9.580000000000013
 10
47.220000000000006
 20
9.580000000000013
 10
47.20000000000001
 20
9.560000000000002
 10
47.18
 20
9.560000000000002
 10
47.18
 20
9.54000000000002
 10
47.160000000000004
 20
9.54000000000002
 10
47.14000000000001
 20
9.54000000000002
 10
47.12
 20
9.52000000000001
 10
47.1
 20
9.52000000000001
 10
47.080000000000005
 20
9.5
 10
47.06000000000001
 20
9.5
 10
47.04
 20
9.480000000000018
 10
47.02
 20
9.480000000000018
 10
47.00000000000001
 20
9.460000000000008
 10
46.98
 20
9.460000000000008
 10
46.96
 20
9.440000000000026
 10
46.940000000000005
 20
9.440000000000026
 10
46.92000000000001
 20
9.420000000000016
 10
46.9
 20
9.420000000000016
 10
46.88
 20
9.420000000000016
 10
46.86000000000001
 20
9.400000000000006
 10
46.839999999999996
 20
9.400000000000006
 10
46.839999999999996
 20
9.380000000000024
 10
46.82
 20
9.380000000000024
 10
46.800000000000004
 20
9.380000000000024
 10
46.78000000000001
 20
9.360000000000014
 10
46.76
 20
9.360000000000014
 10
46.74
 20
9.360000000000014
 10
46.74
 20
9.340000000000003
 10
46.720000000000006
 20
9.340000000000003
 10
46.70000000000001
 20
9.340000000000003
 10
46.68
 20
9.320000000000022
 10
46.660000000000004
 20
9.320000000000022
 10
46.64000000000001
 20
9.320000000000022
 10
46.62
 20
9.320000000000022
 10
46.62
 20
9.300000000000011
 10
46.6
 20
9.300000000000011
 10
46.580000000000005
 20
9.300000000000011
 10
46.56000000000001
 20
9.280000000000001
 10
46.54
 20
9.280000000000001
 10
46.52
 20
9.280000000000001
 10
46.50000000000001
 20
9.26000000000002
 10
46.48
 20
9.26000000000002
 10
46.46
 20
9.26000000000002
 10
46.440000000000005
 20
9.240000000000009
 10
46.42000000000001
 20
9.240000000000009
 10
46.4
 20
9.240000000000009
 10
46.38
 20
9.240000000000009
 10
46.36000000000001
 20
9.220000000000027
 10
46.339999999999996
 20
9.220000000000027
 10
46.32
 20
9.220000000000027
 10
46.300000000000004
 20
9.220000000000027
 10
46.28000000000001
 20
9.200000000000017
 10
46.26
 20
9.200000000000017
 10
46.24
 20
9.200000000000017
 10
46.220000000000006
 20
9.200000000000017
 10
46.20000000000001
 20
9.200000000000017
 10
46.18
 20
9.180000000000007
 10
46.160000000000004
 20
9.180000000000007
 10
46.14000000000001
 20
9.180000000000007
 10
46.12
 20
9.180000000000007
 10
46.1
 20
9.180000000000007
 10
46.080000000000005
 20
9.180000000000007
 10
46.06000000000001
 20
9.180000000000007
 10
46.06000000000001
 20
9.160000000000025
 10
46.04
 20
9.160000000000025
 10
46.02
 20
9.160000000000025
 10
46.00000000000001
 20
9.160000000000025
 10
45.98
 20
9.160000000000025
 10
45.96
 20
9.160000000000025
 10
45.940000000000005
 20
9.160000000000025
 10
45.92000000000001
 20
9.160000000000025
 10
45.9
 20
9.160000000000025
 10
45.88
 20
9.160000000000025
 10
45.86000000000001
 20
9.160000000000025
 10
45.839999999999996
 20
9.160000000000025
 10
45.82
 20
9.160000000000025
 10
45.800000000000004
 20
9.160000000000025
 10
45.800000000000004
 20
9.140000000000015
 10
45.78000000000001
 20
9.140000000000015
 10
45.76
 20
9.140000000000015
 10
45.74
 20
9.140000000000015
 10
45.720000000000006
 20
9.140000000000015
 10
45.70000000000001
 20
9.140000000000015
 10
45.68
 20
9.140000000000015
 10
45.660000000000004
 20
9.160000000000025
 10
45.64000000000001
 20
9.160000000000025
 10
45.62
 20
9.160000000000025
 10
45.6
 20
9.160000000000025
 10
45.580000000000005
 20
9.160000000000025
 10
45.56000000000001
 20
9.160000000000025
 10
45.54
 20
9.160000000000025
 10
45.52
 20
9.160000000000025
 10
45.50000000000001
 20
9.160000000000025
 10
45.48
 20
9.160000000000025
 10
45.46
 20
9.160000000000025
 10
45.440000000000005
 20
9.160000000000025
 10
45.42000000000001
 20
9.160000000000025
 10
45.4
 20
9.160000000000025
 10
45.38
 20
9.180000000000007
 10
45.36000000000001
 20
9.180000000000007
 10
45.339999999999996
 20
9.180000000000007
 10
45.32
 20
9.180000000000007
 10
45.300000000000004
 20
9.180000000000007
 10
45.28000000000001
 20
9.180000000000007
 10
45.26
 20
9.180000000000007
 10
45.24
 20
9.180000000000007
 10
45.220000000000006
 20
9.180000000000007
 10
45.20000000000001
 20
9.180000000000007
 10
45.20000000000001
 20
9.200000000000017
 10
45.18
 20
9.200000000000017
 10
45.160000000000004
 20
9.200000000000017
 10
45.14000000000001
 20
9.200000000000017
 10
45.12
 20
9.200000000000017
 10
45.1
 20
9.200000000000017
 10
45.080000000000005
 20
9.200000000000017
 10
45.06000000000001
 20
9.200000000000017
 10
45.04
 20
9.200000000000017
 10
45.02
 20
9.200000000000017
 10
45.00000000000001
 20
9.200000000000017
 10
44.98
 20
9.200000000000017
 10
44.96
 20
9.200000000000017
 10
44.940000000000005
 20
9.200000000000017
 10
44.92000000000001
 20
9.200000000000017
 10
44.9
 20
9.200000000000017
 10
44.88
 20
9.200000000000017
 10
44.86000000000001
 20
9.200000000000017
 10
44.839999999999996
 20
9.200000000000017
 10
44.82
 20
9.200000000000017
 10
44.800000000000004
 20
9.200000000000017
 10
44.78000000000001
 20
9.200000000000017
 10
44.76
 20
9.200000000000017
 10
44.74
 20
9.200000000000017
 10
44.74
 20
9.180000000000007
 10
44.720000000000006
 20
9.180000000000007
 10
44.70000000000001
 20
9.180000000000007
 10
44.68
 20
9.180000000000007
 10
44.660000000000004
 20
9.180000000000007
 10
44.64000000000001
 20
9.160000000000025
 10
44.62
 20
9.160000000000025
 10
44.6
 20
9.160000000000025
 10
44.580000000000005
 20
9.140000000000015
 10
44.56000000000001
 20
9.140000000000015
 10
44.54
 20
9.140000000000015
 10
44.54
 20
9.120000000000005
 10
44.52
 20
9.120000000000005
 10
44.50000000000001
 20
9.120000000000005
 10
44.50000000000001
 20
9.100000000000023
 10
44.48
 20
9.100000000000023
 10
44.46
 20
9.100000000000023
 10
44.46
 20
9.080000000000013
 10
44.440000000000005
 20
9.080000000000013
 10
44.440000000000005
 20
9.060000000000002
 10
44.42000000000001
 20
9.060000000000002
 10
44.4
 20
9.060000000000002
 10
44.4
 20
9.04000000000002
 10
44.38
 20
9.04000000000002
 10
44.38
 20
9.02000000000001
 10
44.36000000000001
 20
9.02000000000001
 10
44.36000000000001
 20
9.0
 10
44.339999999999996
 20
9.0
 10
44.339999999999996
 20
8.980000000000018
 10
44.32
 20
8.980000000000018
 10
44.300000000000004
 20
8.960000000000008
 10
44.28000000000001
 20
8.960000000000008
 10
44.28000000000001
 20
8.940000000000026
 10
44.26
 20
8.920000000000016
 10
44.26
 20
8.900000000000006
 10
44.24
 20
8.900000000000006
 10
44.24
 20
8.880000000000024
 10
44.220000000000006
 20
8.880000000000024
 10
44.220000000000006
 20
8.860000000000014
 10
44.20000000000001
 20
8.860000000000014
 10
44.20000000000001
 20
8.840000000000003
 10
44.18
 20
8.840000000000003
 10
44.18
 20
8.820000000000022
 10
44.160000000000004
 20
8.820000000000022
 10
44.160000000000004
 20
8.800000000000011
 10
44.160000000000004
 20
8.780000000000001
 10
44.14000000000001
 20
8.780000000000001
 10
44.14000000000001
 20
8.76000000000002
 10
44.12
 20
8.76000000000002
 10
44.02
 20
8.420000000000016
 10
43.9
 20
8.080000000000013
 10
43.76
 20
7.760000000000019
 10
43.6
 20
7.440000000000026
 10
43.6
 20
7.420000000000016
 10
43.6
 20
7.400000000000006
 10
43.6
 20
7.380000000000024
 10
43.6
 20
7.360000000000014
 10
43.6
 20
7.340000000000003
 10
43.6
 20
7.320000000000022
 10
43.6
 20
7.300000000000011
 10
43.580000000000005
 20
7.300000000000011
 10
43.580000000000005
 20
7.280000000000001
 10
43.580000000000005
 20
7.260000000000019
 10
43.580000000000005
 20
7.240000000000009
 10
43.580000000000005
 20
7.220000000000027
 10
43.580000000000005
 20
7.200000000000017
 10
43.580000000000005
 20
7.180000000000007
 10
43.580000000000005
 20
7.160000000000025
 10
43.580000000000005
 20
7.140000000000015
 10
43.6
 20
7.140000000000015
 10
43.6
 20
7.1200000000000045
 10
43.6
 20
7.100000000000023
 10
43.6
 20
7.0800000000000125
 10
43.6
 20
7.060000000000002
 10
43.6
 20
7.0400000000000205
 10
43.6
 20
7.02000000000001
 10
43.6
 20
7.0
 10
43.62
 20
7.0
 10
43.62
 20
6.980000000000018
 10
43.62
 20
6.960000000000008
 10
43.62
 20
6.940000000000026
 10
43.62
 20
6.920000000000016
 10
43.64000000000001
 20
6.920000000000016
 10
43.64000000000001
 20
6.900000000000006
 10
43.64000000000001
 20
6.880000000000024
 10
43.660000000000004
 20
6.880000000000024
 10
43.660000000000004
 20
6.860000000000014
 10
43.660000000000004
 20
6.840000000000003
 10
43.660000000000004
 20
6.820000000000022
 10
43.68
 20
6.820000000000022
 10
43.68
 20
6.800000000000011
 10
43.68
 20
6.780000000000001
 10
43.70000000000001
 20
6.780000000000001
 10
43.70000000000001
 20
6.760000000000019
 10
43.720000000000006
 20
6.760000000000019
 10
43.720000000000006
 20
6.740000000000009
 10
43.720000000000006
 20
6.720000000000027
 10
43.74
 20
6.720000000000027
 10
43.74
 20
6.700000000000017
 10
43.76
 20
6.700000000000017
 10
43.76
 20
6.680000000000007
 10
43.78000000000001
 20
6.660000000000025
 10
43.78000000000001
 20
6.640000000000015
 10
43.800000000000004
 20
6.640000000000015
 10
43.800000000000004
 20
6.6200000000000045
 10
43.82
 20
6.6200000000000045
 10
43.82
 20
6.600000000000023
 10
43.839999999999996
 20
6.600000000000023
 10
43.839999999999996
 20
6.5800000000000125
 10
43.86000000000001
 20
6.5800000000000125
 10
43.86000000000001
 20
6.560000000000002
 10
43.88
 20
6.560000000000002
 10
43.88
 20
6.5400000000000205
 10
43.9
 20
6.5400000000000205
 10
43.9
 20
6.52000000000001
 10
43.92000000000001
 20
6.52000000000001
 10
43.92000000000001
 20
6.5
 10
43.940000000000005
 20
6.5
 10
43.96
 20
6.480000000000018
 10
43.98
 20
6.460000000000008
 10
44.00000000000001
 20
6.460000000000008
 10
44.00000000000001
 20
6.440000000000026
 10
44.02
 20
6.440000000000026
 10
44.02
 20
6.420000000000016
 10
44.04
 20
6.420000000000016
 10
44.04
 20
6.400000000000006
 10
44.06000000000001
 20
6.400000000000006
 10
44.080000000000005
 20
6.380000000000024
 10
44.1
 20
6.380000000000024
 10
44.1
 20
6.360000000000014
 10
44.12
 20
6.360000000000014
 10
44.14000000000001
 20
6.340000000000003
 10
44.160000000000004
 20
6.340000000000003
 10
44.160000000000004
 20
6.320000000000022
 10
44.18
 20
6.320000000000022
 10
44.18
 20
6.300000000000011
 10
44.20000000000001
 20
6.300000000000011
 10
44.220000000000006
 20
6.280000000000001
 10
44.24
 20
6.260000000000019
 10
44.26
 20
6.260000000000019
 10
44.26
 20
6.240000000000009
 10
44.28000000000001
 20
6.240000000000009
 10
44.28000000000001
 20
6.220000000000027
 10
44.300000000000004
 20
6.220000000000027
 10
44.32
 20
6.200000000000017
 10
44.339999999999996
 20
6.200000000000017
 10
44.339999999999996
 20
6.180000000000007
 10
44.36000000000001
 20
6.180000000000007
 10
44.36000000000001
 20
6.160000000000025
 10
44.38
 20
6.160000000000025
 10
44.38
 20
6.140000000000015
 10
44.4
 20
6.140000000000015
 10
44.4
 20
6.1200000000000045
 10
44.42000000000001
 20
6.1200000000000045
 10
44.440000000000005
 20
6.100000000000023
 10
44.46
 20
6.0800000000000125
 10
44.48
 20
6.060000000000002
 10
44.50000000000001
 20
6.060000000000002
 10
44.50000000000001
 20
6.0400000000000205
 10
44.52
 20
6.0400000000000205
 10
44.52
 20
6.02000000000001
 10
44.54
 20
6.02000000000001
 10
44.54
 20
6.0
 10
44.56000000000001
 20
6.0
 10
44.56000000000001
 20
5.980000000000018
 10
44.580000000000005
 20
5.980000000000018
 10
44.580000000000005
 20
5.960000000000008
 10
44.6
 20
5.960000000000008
 10
44.6
 20
5.940000000000026
 10
44.62
 20
5.940000000000026
 10
44.62
 20
5.920000000000016
 10
44.64000000000001
 20
5.900000000000006
 10
44.660000000000004
 20
5.900000000000006
 10
44.660000000000004
 20
5.880000000000024
 10
44.68
 20
5.860000000000014
 10
44.70000000000001
 20
5.840000000000003
 10
44.70000000000001
 20
5.820000000000022
 10
44.720000000000006
 20
5.820000000000022
 10
44.720000000000006
 20
5.800000000000011
 10
44.74
 20
5.800000000000011
 10
44.74
 20
5.780000000000001
 10
44.76
 20
5.780000000000001
 10
44.76
 20
5.760000000000019
 10
44.78000000000001
 20
5.740000000000009
 10
44.800000000000004
 20
5.720000000000027
 10
44.800000000000004
 20
5.700000000000017
 10
44.82
 20
5.700000000000017
 10
44.82
 20
5.680000000000007
 10
44.839999999999996
 20
5.660000000000025
 10
44.839999999999996
 20
5.640000000000015
 10
44.86000000000001
 20
5.640000000000015
 10
44.86000000000001
 20
5.6200000000000045
 10
44.88
 20
5.600000000000023
 10
44.9
 20
5.5800000000000125
 10
44.9
 20
5.560000000000002
 10
44.92000000000001
 20
5.5400000000000205
 10
44.92000000000001
 20
5.52000000000001
 10
44.940000000000005
 20
5.52000000000001
 10
44.940000000000005
 20
5.5
 10
44.940000000000005
 20
5.480000000000018
 10
44.96
 20
5.480000000000018
 10
44.96
 20
5.460000000000008
 10
44.98
 20
5.440000000000026
 10
44.98
 20
5.420000000000016
 10
45.00000000000001
 20
5.420000000000016
 10
45.00000000000001
 20
5.400000000000006
 10
45.02
 20
5.380000000000024
 10
45.02
 20
5.360000000000014
 10
45.04
 20
5.340000000000003
 10
45.04
 20
5.320000000000022
 10
45.06000000000001
 20
5.300000000000011
 10
45.06000000000001
 20
5.280000000000001
 10
45.080000000000005
 20
5.260000000000019
 10
45.080000000000005
 20
5.240000000000009
 10
45.080000000000005
 20
5.220000000000027
 10
45.1
 20
5.220000000000027
 10
45.1
 20
5.200000000000017
 10
45.12
 20
5.180000000000007
 10
45.12
 20
5.160000000000025
 10
45.12
 20
5.140000000000015
 10
45.14000000000001
 20
5.140000000000015
 10
45.14000000000001
 20
5.1200000000000045
 10
45.14000000000001
 20
5.100000000000023
 10
45.160000000000004
 20
5.100000000000023
 10
45.160000000000004
 20
5.0800000000000125
 10
45.160000000000004
 20
5.060000000000002
 10
45.18
 20
5.0400000000000205
 10
45.18
 20
5.02000000000001
 10
45.18
 20
5.0
 10
45.20000000000001
 20
4.980000000000018
 10
45.20000000000001
 20
4.960000000000008
 10
45.220000000000006
 20
4.940000000000026
 10
45.220000000000006
 20
4.920000000000016
 10
45.220000000000006
 20
4.900000000000006
 10
45.24
 20
4.900000000000006
 10
45.24
 20
4.880000000000024
 10
45.24
 20
4.860000000000014
 10
45.24
 20
4.840000000000003
 10
45.26
 20
4.840000000000003
 10
45.26
 20
4.820000000000022
 10
45.26
 20
4.800000000000011
 10
45.28000000000001
 20
4.780000000000001
 10
45.28000000000001
 20
4.760000000000019
 10
45.28000000000001
 20
4.740000000000009
 10
45.300000000000004
 20
4.720000000000027
 10
45.300000000000004
 20
4.700000000000017
 10
45.300000000000004
 20
4.680000000000007
 10
45.32
 20
4.660000000000025
 10
45.32
 20
4.640000000000015
 10
45.32
 20
4.6200000000000045
 10
45.339999999999996
 20
4.600000000000023
 10
45.339999999999996
 20
4.5800000000000125
 10
45.339999999999996
 20
4.560000000000002
 10
45.339999999999996
 20
4.5400000000000205
 10
45.36000000000001
 20
4.5400000000000205
 10
45.36000000000001
 20
4.52000000000001
 10
45.36000000000001
 20
4.5
 10
45.36000000000001
 20
4.480000000000018
 10
45.38
 20
4.460000000000008
 10
45.38
 20
4.440000000000026
 10
45.38
 20
4.420000000000016
 10
45.38
 20
4.400000000000006
 10
45.4
 20
4.400000000000006
 10
45.4
 20
4.380000000000024
 10
45.4
 20
4.360000000000014
 10
45.4
 20
4.340000000000003
 10
45.42000000000001
 20
4.320000000000022
 10
45.42000000000001
 20
4.300000000000011
 10
45.42000000000001
 20
4.280000000000001
 10
45.42000000000001
 20
4.260000000000019
 10
45.440000000000005
 20
4.260000000000019
 10
45.440000000000005
 20
4.240000000000009
 10
45.440000000000005
 20
4.220000000000027
 10
45.440000000000005
 20
4.200000000000017
 10
45.440000000000005
 20
4.180000000000007
 10
45.46
 20
4.180000000000007
 10
45.46
 20
4.160000000000025
 10
45.46
 20
4.140000000000015
 10
45.46
 20
4.1200000000000045
 10
45.46
 20
4.100000000000023
 10
45.48
 20
4.100000000000023
 10
45.48
 20
4.0800000000000125
 10
45.48
 20
4.060000000000002
 10
44.800000000000004
 20
3.280000000000001
 10
44.04
 20
2.5800000000000125
 10
44.02
 20
2.5800000000000125
 10
44.00000000000001
 20
2.5800000000000125
 10
43.98
 20
2.5800000000000125
 10
43.98
 20
2.6000000000000227
 10
43.96
 20
2.6000000000000227
 10
43.940000000000005
 20
2.6000000000000227
 10
43.92000000000001
 20
2.6000000000000227
 10
43.9
 20
2.6000000000000227
 10
43.88
 20
2.6000000000000227
 10
43.88
 20
2.6200000000000045
 10
43.86000000000001
 20
2.6200000000000045
 10
43.839999999999996
 20
2.6200000000000045
 10
43.82
 20
2.6200000000000045
 10
43.800000000000004
 20
2.6200000000000045
 10
43.78000000000001
 20
2.640000000000015
 10
43.76
 20
2.640000000000015
 10
43.74
 20
2.640000000000015
 10
43.720000000000006
 20
2.640000000000015
 10
43.70000000000001
 20
2.660000000000025
 10
43.68
 20
2.660000000000025
 10
43.660000000000004
 20
2.660000000000025
 10
43.64000000000001
 20
2.660000000000025
 10
43.62
 20
2.680000000000007
 10
43.6
 20
2.680000000000007
 10
43.580000000000005
 20
2.680000000000007
 10
43.56000000000001
 20
2.680000000000007
 10
43.56000000000001
 20
2.700000000000017
 10
43.54
 20
2.700000000000017
 10
43.52
 20
2.700000000000017
 10
43.50000000000001
 20
2.700000000000017
 10
43.48
 20
2.7200000000000273
 10
43.46
 20
2.7200000000000273
 10
43.440000000000005
 20
2.7200000000000273
 10
43.42000000000001
 20
2.7200000000000273
 10
43.4
 20
2.740000000000009
 10
43.38
 20
2.740000000000009
 10
43.36000000000001
 20
2.740000000000009
 10
43.339999999999996
 20
2.740000000000009
 10
43.339999999999996
 20
2.7600000000000193
 10
43.32
 20
2.7600000000000193
 10
43.300000000000004
 20
2.7600000000000193
 10
43.28000000000001
 20
2.780000000000001
 10
43.26
 20
2.780000000000001
 10
43.24
 20
2.780000000000001
 10
43.220000000000006
 20
2.780000000000001
 10
43.220000000000006
 20
2.8000000000000114
 10
43.20000000000001
 20
2.8000000000000114
 10
43.18
 20
2.8000000000000114
 10
43.160000000000004
 20
2.8000000000000114
 10
43.160000000000004
 20
2.8200000000000216
 10
43.14000000000001
 20
2.8200000000000216
 10
43.12
 20
2.8200000000000216
 10
43.1
 20
2.8400000000000034
 10
43.080000000000005
 20
2.8400000000000034
 10
43.06000000000001
 20
2.8400000000000034
 10
43.04
 20
2.8600000000000136
 10
43.02
 20
2.8600000000000136
 10
43.00000000000001
 20
2.880000000000024
 10
42.98
 20
2.880000000000024
 10
42.96
 20
2.880000000000024
 10
42.940000000000005
 20
2.9000000000000057
 10
42.92000000000001
 20
2.9000000000000057
 10
42.9
 20
2.920000000000016
 10
42.88
 20
2.920000000000016
 10
42.86000000000001
 20
2.940000000000026
 10
42.839999999999996
 20
2.940000000000026
 10
42.82
 20
2.940000000000026
 10
42.82
 20
2.960000000000008
 10
42.800000000000004
 20
2.960000000000008
 10
42.78000000000001
 20
2.960000000000008
 10
42.78000000000001
 20
2.980000000000018
 10
42.76
 20
2.980000000000018
 10
42.74
 20
2.980000000000018
 10
42.720000000000006
 20
3.0
 10
42.70000000000001
 20
3.0
 10
42.68
 20
3.0200000000000102
 10
42.660000000000004
 20
3.0200000000000102
 10
42.64000000000001
 20
3.0400000000000205
 10
42.62
 20
3.0400000000000205
 10
42.6
 20
3.0600000000000023
 10
42.580000000000005
 20
3.0600000000000023
 10
42.580000000000005
 20
3.0800000000000125
 10
42.56000000000001
 20
3.0800000000000125
 10
42.54
 20
3.0800000000000125
 10
42.54
 20
3.1000000000000227
 10
42.52
 20
3.1000000000000227
 10
42.50000000000001
 20
3.1200000000000045
 10
42.48
 20
3.140000000000015
 10
42.46
 20
3.140000000000015
 10
42.440000000000005
 20
3.160000000000025
 10
42.42000000000001
 20
3.160000000000025
 10
42.42000000000001
 20
3.180000000000007
 10
42.4
 20
3.180000000000007
 10
42.38
 20
3.200000000000017
 10
42.36000000000001
 20
3.200000000000017
 10
42.36000000000001
 20
3.2200000000000273
 10
42.339999999999996
 20
3.2200000000000273
 10
42.32
 20
3.240000000000009
 10
42.300000000000004
 20
3.2600000000000193
 10
42.28000000000001
 20
3.2600000000000193
 10
42.28000000000001
 20
3.280000000000001
 10
42.26
 20
3.280000000000001
 10
42.24
 20
3.3000000000000114
 10
42.220000000000006
 20
3.3200000000000216
 10
42.20000000000001
 20
3.3200000000000216
 10
42.20000000000001
 20
3.3400000000000034
 10
42.18
 20
3.3400000000000034
 10
42.18
 20
3.3600000000000136
 10
42.160000000000004
 20
3.3600000000000136
 10
42.14000000000001
 20
3.380000000000024
 10
42.12
 20
3.4000000000000057
 10
42.1
 20
3.420000000000016
 10
42.080000000000005
 20
3.440000000000026
 10
42.06000000000001
 20
3.460000000000008
 10
42.04
 20
3.480000000000018
 10
42.02
 20
3.5
 10
42.00000000000001
 20
3.5
 10
42.00000000000001
 20
3.5200000000000102
 10
41.98
 20
3.5200000000000102
 10
41.98
 20
3.5400000000000205
 10
41.96
 20
3.5600000000000023
 10
41.940000000000005
 20
3.5800000000000125
 10
41.92000000000001
 20
3.6000000000000227
 10
41.92000000000001
 20
3.6200000000000045
 10
41.9
 20
3.6200000000000045
 10
41.9
 20
3.640000000000015
 10
41.88
 20
3.640000000000015
 10
41.88
 20
3.660000000000025
 10
41.86000000000001
 20
3.660000000000025
 10
41.86000000000001
 20
3.680000000000007
 10
41.839999999999996
 20
3.680000000000007
 10
41.839999999999996
 20
3.700000000000017
 10
41.82
 20
3.7200000000000273
 10
41.800000000000004
 20
3.740000000000009
 10
41.800000000000004
 20
3.7600000000000193
 10
41.78000000000001
 20
3.7600000000000193
 10
41.78000000000001
 20
3.780000000000001
 10
41.76
 20
3.780000000000001
 10
41.76
 20
3.8000000000000114
 10
41.74
 20
3.8200000000000216
 10
41.720000000000006
 20
3.8400000000000034
 10
41.720000000000006
 20
3.8600000000000136
 10
41.70000000000001
 20
3.8600000000000136
 10
41.70000000000001
 20
3.880000000000024
 10
41.68
 20
3.880000000000024
 10
41.68
 20
3.9000000000000057
 10
41.660000000000004
 20
3.9000000000000057
 10
41.660000000000004
 20
3.920000000000016
 10
41.64000000000001
 20
3.940000000000026
 10
41.64000000000001
 20
3.960000000000008
 10
41.62
 20
3.960000000000008
 10
41.62
 20
3.980000000000018
 10
41.6
 20
3.980000000000018
 10
41.6
 20
4.0
 10
41.580000000000005
 20
4.0
 10
41.580000000000005
 20
4.02000000000001
 10
41.56000000000001
 20
4.02000000000001
 10
41.56000000000001
 20
4.0400000000000205
 10
41.54
 20
4.0400000000000205
 10
41.54
 20
4.060000000000002
 10
41.52
 20
4.060000000000002
 10
41.52
 20
4.0800000000000125
 10
41.50000000000001
 20
4.0800000000000125
 10
41.50000000000001
 20
4.100000000000023
 10
41.48
 20
4.1200000000000045
 10
41.46
 20
4.1200000000000045
 10
41.46
 20
4.140000000000015
 10
41.440000000000005
 20
4.140000000000015
 10
41.440000000000005
 20
4.160000000000025
 10
41.42000000000001
 20
4.160000000000025
 10
41.42000000000001
 20
4.180000000000007
 10
41.4
 20
4.180000000000007
 10
41.4
 20
4.200000000000017
 10
41.38
 20
4.200000000000017
 10
41.36000000000001
 20
4.220000000000027
 10
41.339999999999996
 20
4.220000000000027
 10
41.339999999999996
 20
4.240000000000009
 10
41.32
 20
4.240000000000009
 10
41.300000000000004
 20
4.260000000000019
 10
41.28000000000001
 20
4.260000000000019
 10
41.28000000000001
 20
4.280000000000001
 10
41.26
 20
4.280000000000001
 10
41.24
 20
4.280000000000001
 10
41.24
 20
4.300000000000011
 10
41.220000000000006
 20
4.300000000000011
 10
41.20000000000001
 20
4.300000000000011
 10
41.18
 20
4.320000000000022
 10
41.160000000000004
 20
4.320000000000022
 10
41.14000000000001
 20
4.320000000000022
 10
41.14000000000001
 20
4.340000000000003
 10
41.12
 20
4.340000000000003
 10
41.1
 20
4.340000000000003
 10
41.080000000000005
 20
4.340000000000003
 10
41.06000000000001
 20
4.340000000000003
 10
41.06000000000001
 20
4.360000000000014
 10
41.04
 20
4.360000000000014
 10
41.02
 20
4.360000000000014
 10
41.00000000000001
 20
4.360000000000014
 10
40.98
 20
4.360000000000014
 10
40.96
 20
4.360000000000014
 10
40.940000000000005
 20
4.360000000000014
 10
40.92000000000001
 20
4.360000000000014
 10
40.9
 20
4.360000000000014
 10
40.88
 20
4.360000000000014
 10
40.88
 20
4.380000000000024
 10
40.86000000000001
 20
4.380000000000024
 10
40.839999999999996
 20
4.380000000000024
 10
40.839999999999996
 20
4.360000000000014
 10
40.82
 20
4.360000000000014
 10
40.800000000000004
 20
4.360000000000014
 10
40.78000000000001
 20
4.360000000000014
 10
40.76
 20
4.360000000000014
 10
40.74
 20
4.360000000000014
 10
40.720000000000006
 20
4.360000000000014
 10
40.70000000000001
 20
4.360000000000014
 10
40.68
 20
4.360000000000014
 10
40.660000000000004
 20
4.360000000000014
 10
40.64000000000001
 20
4.360000000000014
 10
40.64000000000001
 20
4.340000000000003
 10
40.62
 20
4.340000000000003
 10
40.6
 20
4.340000000000003
 10
40.300000000000004
 20
4.180000000000007
 10
39.98
 20
4.0400000000000205
 10
39.64000000000001
 20
3.9000000000000057
 10
39.32
 20
3.780000000000001
 10
39.300000000000004
 20
3.780000000000001
 10
39.300000000000004
 20
3.7600000000000193
 10
39.28000000000001
 20
3.7600000000000193
 10
39.26
 20
3.7600000000000193
 10
39.26
 20
3.740000000000009
 10
39.24
 20
3.740000000000009
 10
39.24
 20
3.7200000000000273
 10
39.220000000000006
 20
3.7200000000000273
 10
39.220000000000006
 20
3.700000000000017
 10
39.20000000000001
 20
3.700000000000017
 10
39.20000000000001
 20
3.680000000000007
 10
39.18
 20
3.680000000000007
 10
39.18
 20
3.660000000000025
 10
39.160000000000004
 20
3.660000000000025
 10
39.160000000000004
 20
3.640000000000015
 10
39.14000000000001
 20
3.640000000000015
 10
39.14000000000001
 20
3.6200000000000045
 10
39.12
 20
3.6200000000000045
 10
39.12
 20
3.6000000000000227
 10
39.1
 20
3.6000000000000227
 10
39.1
 20
3.5800000000000125
 10
39.080000000000005
 20
3.5800000000000125
 10
39.080000000000005
 20
3.5600000000000023
 10
39.06000000000001
 20
3.5600000000000023
 10
39.06000000000001
 20
3.5400000000000205
 10
39.04
 20
3.5400000000000205
 10
39.04
 20
3.5200000000000102
 10
39.04
 20
3.5
 10
39.02
 20
3.5
 10
39.02
 20
3.480000000000018
 10
39.00000000000001
 20
3.480000000000018
 10
39.00000000000001
 20
3.460000000000008
 10
39.00000000000001
 20
3.440000000000026
 10
38.98
 20
3.440000000000026
 10
38.98
 20
3.420000000000016
 10
38.98
 20
3.4000000000000057
 10
38.96
 20
3.4000000000000057
 10
38.96
 20
3.380000000000024
 10
38.96
 20
3.3600000000000136
 10
38.940000000000005
 20
3.3600000000000136
 10
38.940000000000005
 20
3.3400000000000034
 10
38.940000000000005
 20
3.3200000000000216
 10
38.92000000000001
 20
3.3200000000000216
 10
38.92000000000001
 20
3.3000000000000114
 10
38.92000000000001
 20
3.280000000000001
 10
38.92000000000001
 20
3.2600000000000193
 10
38.9
 20
3.2600000000000193
 10
38.9
 20
3.240000000000009
 10
38.9
 20
3.2200000000000273
 10
38.9
 20
3.200000000000017
 10
38.9
 20
3.180000000000007
 10
38.9
 20
3.160000000000025
 10
38.88
 20
3.160000000000025
 10
38.88
 20
3.140000000000015
 10
38.88
 20
3.1200000000000045
 10
38.88
 20
3.1000000000000227
 10
38.88
 20
3.0800000000000125
 10
38.88
 20
3.0600000000000023
 10
38.88
 20
3.0400000000000205
 10
38.88
 20
3.0200000000000102
 10
38.88
 20
3.0
 10
38.88
 20
2.980000000000018
 10
38.88
 20
2.960000000000008
 10
38.88
 20
2.940000000000026
 10
38.88
 20
2.920000000000016
 10
38.88
 20
2.9000000000000057
 10
38.88
 20
2.880000000000024
 10
38.88
 20
2.8600000000000136
 10
38.88
 20
2.8400000000000034
 10
38.88
 20
2.8200000000000216
 10
38.9
 20
2.8200000000000216
 10
38.9
 20
2.8000000000000114
 10
38.9
 20
2.780000000000001
 10
38.9
 20
2.7600000000000193
 10
38.9
 20
2.740000000000009
 10
38.9
 20
2.7200000000000273
 10
38.9
 20
2.700000000000017
 10
38.9
 20
2.680000000000007
 10
38.9
 20
2.660000000000025
 10
38.92000000000001
 20
2.660000000000025
 10
38.92000000000001
 20
2.640000000000015
 10
38.92000000000001
 20
2.6200000000000045
 10
38.92000000000001
 20
2.6000000000000227
 10
38.92000000000001
 20
2.5800000000000125
 10
38.92000000000001
 20
2.5600000000000023
 10
38.92000000000001
 20
2.5400000000000205
 10
38.92000000000001
 20
2.5200000000000102
 10
38.940000000000005
 20
2.5
 10
38.940000000000005
 20
2.480000000000018
 10
38.940000000000005
 20
2.460000000000008
 10
38.940000000000005
 20
2.440000000000026
 10
38.940000000000005
 20
2.420000000000016
 10
38.940000000000005
 20
2.4000000000000057
 10
38.940000000000005
 20
2.380000000000024
 10
38.940000000000005
 20
2.3600000000000136
 10
38.940000000000005
 20
2.3400000000000034
 10
38.96
 20
2.3400000000000034
 10
38.96
 20
2.3200000000000216
 10
38.96
 20
2.3000000000000114
 10
38.96
 20
2.280000000000001
 10
38.96
 20
2.2600000000000193
 10
38.96
 20
2.240000000000009
 10
38.96
 20
2.2200000000000273
 10
38.96
 20
2.200000000000017
 10
38.96
 20
2.180000000000007
 10
38.96
 20
2.160000000000025
 10
38.96
 20
2.140000000000015
 10
38.96
 20
2.1200000000000045
 10
38.96
 20
2.1000000000000227
 10
38.96
 20
2.0800000000000125
 10
38.96
 20
2.0600000000000023
 10
38.96
 20
2.0400000000000205
 10
38.96
 20
2.0200000000000102
 10
38.96
 20
2.0
 10
38.96
 20
1.9800000000000182
 10
38.96
 20
1.960000000000008
 10
38.96
 20
1.9400000000000261
 10
38.96
 20
1.920000000000016
 10
38.96
 20
1.9000000000000057
 10
38.96
 20
1.8800000000000239
 10
38.96
 20
1.8600000000000136
 10
38.96
 20
1.8400000000000034
 10
38.940000000000005
 20
1.8200000000000216
 10
38.940000000000005
 20
1.8000000000000114
 10
38.940000000000005
 20
1.7800000000000011
 10
38.940000000000005
 20
1.7600000000000193
 10
38.940000000000005
 20
1.740000000000009
 10
38.940000000000005
 20
1.7200000000000273
 10
38.940000000000005
 20
1.700000000000017
 10
38.940000000000005
 20
1.6800000000000068
 10
38.92000000000001
 20
1.6800000000000068
 10
38.92000000000001
 20
1.660000000000025
 10
38.92000000000001
 20
1.6400000000000148
 10
38.92000000000001
 20
1.6200000000000045
 10
38.92000000000001
 20
1.6000000000000227
 10
38.92000000000001
 20
1.5800000000000125
 10
38.9
 20
1.5600000000000023
 10
38.9
 20
1.5400000000000205
 10
38.9
 20
1.5200000000000102
 10
38.9
 20
1.5
 10
38.9
 20
1.4800000000000182
 10
38.88
 20
1.460000000000008
 10
38.88
 20
1.4400000000000261
 10
38.88
 20
1.420000000000016
 10
38.86000000000001
 20
1.4000000000000057
 10
38.86000000000001
 20
1.3800000000000239
 10
38.86000000000001
 20
1.3600000000000136
 10
38.86000000000001
 20
1.3400000000000034
 10
38.839999999999996
 20
1.3200000000000216
 10
38.839999999999996
 20
1.3000000000000114
 10
38.839999999999996
 20
1.2800000000000011
 10
38.82
 20
1.2600000000000193
 10
38.82
 20
1.240000000000009
 10
38.82
 20
1.2200000000000273
 10
38.82
 20
1.200000000000017
 10
38.800000000000004
 20
1.200000000000017
 10
38.800000000000004
 20
1.1800000000000068
 10
38.800000000000004
 20
1.160000000000025
 10
38.78000000000001
 20
1.1400000000000148
 10
38.78000000000001
 20
1.1200000000000045
 10
38.78000000000001
 20
1.1000000000000227
 10
38.76
 20
1.0800000000000125
 10
38.76
 20
1.0600000000000023
 10
38.76
 20
1.0400000000000205
 10
38.74
 20
1.0400000000000205
 10
38.74
 20
1.0200000000000102
 10
38.74
 20
1.0
 10
38.720000000000006
 20
0.9800000000000182
 10
38.720000000000006
 20
0.960000000000008
 10
38.70000000000001
 20
0.9400000000000261
 10
38.70000000000001
 20
0.9200000000000159
 10
38.70000000000001
 20
0.9000000000000057
 10
38.68
 20
0.9000000000000057
 10
38.68
 20
0.8800000000000239
 10
38.68
 20
0.8600000000000136
 10
38.660000000000004
 20
0.8600000000000136
 10
38.660000000000004
 20
0.8400000000000034
 10
38.660000000000004
 20
0.8200000000000216
 10
38.64000000000001
 20
0.8000000000000114
 10
38.64000000000001
 20
0.7800000000000011
 10
38.64000000000001
 20
0.7600000000000193
 10
38.62
 20
0.7600000000000193
 10
38.62
 20
0.7400000000000091
 10
38.62
 20
0.7200000000000273
 10
38.6
 20
0.7200000000000273
 10
38.6
 20
0.700000000000017
 10
38.6
 20
0.6800000000000068
 10
38.580000000000005
 20
0.6800000000000068
 10
38.580000000000005
 20
0.660000000000025
 10
38.580000000000005
 20
0.6400000000000148
 10
38.56000000000001
 20
0.6400000000000148
 10
38.56000000000001
 20
0.6200000000000045
 10
38.56000000000001
 20
0.6000000000000227
 10
38.54
 20
0.6000000000000227
 10
38.54
 20
0.5800000000000125
 10
38.52
 20
0.5600000000000023
 10
38.52
 20
0.5400000000000205
 10
38.52
 20
0.5200000000000102
 10
38.50000000000001
 20
0.5200000000000102
 10
38.50000000000001
 20
0.5
 10
38.48
 20
0.4800000000000182
 10
38.48
 20
0.46000000000000796
 10
38.46
 20
0.44000000000002615
 10
38.46
 20
0.4200000000000159
 10
38.440000000000005
 20
0.4200000000000159
 10
38.440000000000005
 20
0.4000000000000057
 10
38.440000000000005
 20
0.3800000000000239
 10
38.42000000000001
 20
0.3800000000000239
 10
38.42000000000001
 20
0.36000000000001364
 10
38.42000000000001
 20
0.3400000000000034
 10
38.4
 20
0.3400000000000034
 10
38.4
 20
0.3200000000000216
 10
38.4
 20
0.30000000000001137
 10
38.38
 20
0.30000000000001137
 10
38.38
 20
0.28000000000000114
 10
38.36000000000001
 20
0.2600000000000193
 10
38.36000000000001
 20
0.2400000000000091
 10
38.339999999999996
 20
0.2400000000000091
 10
38.339999999999996
 20
0.22000000000002728
 10
38.32
 20
0.20000000000001705
 10
38.32
 20
0.18000000000000682
 10
38.300000000000004
 20
0.18000000000000682
 10
38.300000000000004
 20
0.160000000000025
 10
38.300000000000004
 20
0.14000000000001478
 10
38.28000000000001
 20
0.14000000000001478
 10
38.28000000000001
 20
0.12000000000000455
 10
38.28000000000001
 20
0.10000000000002274
 10
38.26
 20
0.10000000000002274
 10
38.26
 20
0.0800000000000125
 10
38.24
 20
0.0800000000000125
  0
LWPOLYLINE
  5
31
330
17
100
AcDbEntity
  8
CORTE
100
AcDbPolyline
 90
16
 70
1
 10
38.54
 20
10.800000000000011
 10
38.440000000000005
 20
11.380000000000024
 10
38.1
 20
11.860000000000014
 10
37.64000000000001
 20
12.180000000000007
 10
37.04
 20
12.300000000000011
 10
36.46
 20
12.180000000000007
 10
35.98
 20
11.860000000000014
 10
35.660000000000004
 20
11.380000000000024
 10
35.54
 20
10.800000000000011
 10
35.660000000000004
 20
10.200000000000017
 10
35.98
 20
9.740000000000009
 10
36.46
 20
9.420000000000016
 10
37.04
 20
9.300000000000011
 10
37.64000000000001
 20
9.420000000000016
 10
38.1
 20
9.740000000000009
 10
38.440000000000005
 20
10.200000000000017
  0
ENDSEC
  0
SECTION
  2
OBJECTS
  0
DICTIONARY
  5
A
330
0
100
AcDbDictionary
281
1
  3
ACAD_COLOR
350
B
  3
ACAD_GROUP
350
C
  3
ACAD_LAYOUT
350
D
  3
ACAD_MATERIAL
350
E
  3
ACAD_MLEADERSTYLE
350
F
  3
ACAD_MLINESTYLE
350
10
  3
ACAD_PLOTSETTINGS
350
11
  3
ACAD_PLOTSTYLENAME
350
12
  3
ACAD_SCALELIST
350
14
  3
ACAD_TABLESTYLE
350
15
  3
ACAD_VISUALSTYLE
350
16
  3
EZDXF_META
350
2D
  0
DICTIONARY
  5
B
330
A
100
AcDbDictionary
281
1
  0
DICTIONARY
  5
C
330
A
100
AcDbDictionary
281
1
  0
DICTIONARY
  5
D
330
A
100
AcDbDictionary
281
1
  3
Model
350
1A
  3
Layout1
350
1E
  0
DICTIONARY
  5
E
330
A
100
AcDbDictionary
281
1
  3
ByBlock
350
1F
  3
ByLayer
350
20
  3
Global
350
21
  0
DICTIONARY
  5
F
330
A
100
AcDbDictionary
281
1
  3
Standard
350
2C
  0
DICTIONARY
  5
10
330
A
100
AcDbDictionary
281
1
  3
Standard
350
22
  0
DICTIONARY
  5
11
330
A
100
AcDbDictionary
281
1
  0
ACDBDICTIONARYWDFLT
  5
12
330
A
100
AcDbDictionary
281
1
  3
Normal
350
13
100
AcDbDictionaryWithDefault
340
13
  0
ACDBPLACEHOLDER
  5
13
330
12
  0
DICTIONARY
  5
14
330
A
100
AcDbDictionary
281
1
  0
DICTIONARY
  5
15
330
A
100
AcDbDictionary
281
1
  0
DICTIONARY
  5
16
330
A
100
AcDbDictionary
281
1
  0
LAYOUT
  5
1A
330
D
100
AcDbPlotSettings
  1

  4
A3
  6

 40
7.5
 41
20.0
 42
7.5
 43
20.0
 44
420.0
 45
297.0
 46
0.0
 47
0.0
 48
0.0
 49
0.0
140
0.0
141
0.0
142
1.0
143
1.0
 70
1024
 72
1
 73
0
 74
5
  7

 75
16
 76
0
 77
2
 78
300
147
1.0
148
0.0
149
0.0
100
AcDbLayout
  1
Model
 70
1
 71
0
 10
0.0
 20
0.0
 11
420.0
 21
297.0
 12
0.0
 22
0.0
 32
0.0
 14
1e+20
 24
1e+20
 34
1e+20
 15
-1e+20
 25
-1e+20
 35
-1e+20
146
0.0
 13
0.0
 23
0.0
 33
0.0
 16
1.0
 26
0.0
 36
0.0
 17
0.0
 27
1.0
 37
0.0
 76
1
330
17
  0
LAYOUT
  5
1E
330
D
100
AcDbPlotSettings
  1

  4
A3
  6

 40
7.5
 41
20.0
 42
7.5
 43
20.0
 44
420.0
 45
297.0
 46
0.0
 47
0.0
 48
0.0
 49
0.0
140
0.0
141
0.0
142
1.0
143
1.0
 70
0
 72
1
 73
0
 74
5
  7

 75
16
 76
0
 77
2
 78
300
147
1.0
148
0.0
149
0.0
100
AcDbLayout
  1
Layout1
 70
1
 71
1
 10
0.0
 20
0.0
 11
420.0
 21
297.0
 12
0.0
 22
0.0
 32
0.0
 14
1e+20
 24
1e+20
 34
1e+20
 15
-1e+20
 25
-1e+20
 35
-1e+20
146
0.0
 13
0.0
 23
0.0
 33
0.0
 16
1.0
 26
0.0
 36
0.0
 17
0.0
 27
1.0
 37
0.0
 76
1
330
1B
  0
MATERIAL
  5
1F
102
{ACAD_REACTORS
330
E
102
}
330
E
100
AcDbMaterial
  1
ByBlock
  2

 70
0
 40
1.0
 71
1
 41
1.0
 91
-1023410177
 42
1.0
 72
1
  3

 73
1
 74
1
 75
1
 44
0.5
 73
0
 45
1.0
 46
1.0
 77
1
  4

 78
1
 79
1
170
1
 48
1.0
171
1
  6

172
1
173
1
174
1
140
1.0
141
1.0
175
1
  7

176
1
177
1
178
1
143
1.0
179
1
  8

270
1
271
1
272
1
145
1.0
146
1.0
273
1
  9

274
1
275
1
276
1
 42
1.0
 72
1
  3

 73
1
 74
1
 75
1
 94
63
  0
MATERIAL
  5
20
102
{ACAD_REACTORS
330
E
102
}
330
E
100
AcDbMaterial
  1
ByLayer
  2

 70
0
 40
1.0
 71
1
 41
1.0
 91
-1023410177
 42
1.0
 72
1
  3

 73
1
 74
1
 75
1
 44
0.5
 73
0
 45
1.0
 46
1.0
 77
1
  4

 78
1
 79
1
170
1
 48
1.0
171
1
  6

172
1
173
1
174
1
140
1.0
141
1.0
175
1
  7

176
1
177
1
178
1
143
1.0
179
1
  8

270
1
271
1
272
1
145
1.0
146
1.0
273
1
  9

274
1
275
1
276
1
 42
1.0
 72
1
  3

 73
1
 74
1
 75
1
 94
63
  0
MATERIAL
  5
21
102
{ACAD_REACTORS
330
E
102
}
330
E
100
AcDbMaterial
  1
Global
  2

 70
0
 40
1.0
 71
1
 41
1.0
 91
-1023410177
 42
1.0
 72
1
  3

 73
1
 74
1
 75
1
 44
0.5
 73
0
 45
1.0
 46
1.0
 77
1
  4

 78
1
 79
1
170
1
 48
1.0
171
1
  6

172
1
173
1
174
1
140
1.0
141
1.0
175
1
  7

176
1
177
1
178
1
143
1.0
179
1
  8

270
1
271
1
272
1
145
1.0
146
1.0
273
1
  9

274
1
275
1
276
1
 42
1.0
 72
1
  3

 73
1
 74
1
 75
1
 94
63
  0
MLINESTYLE
  5
22
102
{ACAD_REACTORS
330
10
102
}
330
10
100
AcDbMlineStyle
  2
Standard
 70
0
  3

 62
256
 51
90.0
 52
90.0
 71
2
 49
0.5
 62
256
  6
BYLAYER
 49
-0.5
 62
256
  6
BYLAYER
  0
MLEADERSTYLE
  5
2C
102
{ACAD_REACTORS
330
F
102
}
330
F
100
AcDbMLeaderStyle
179
2
170
2
171
1
172
0
 90
2
 40
0.0
 41
0.0
173
1
 91
-1056964608
 92
-2
290
1
 42
2.0
291
1
 43
8.0
  3
Standard
 44
4.0
300

342
29
174
1
175
1
176
0
178
1
 93
-1056964608
 45
4.0
292
0
297
0
 46
4.0
 94
-1056964608
 47
1.0
 49
1.0
140
1.0
294
1
141
0.0
177
0
142
1.0
295
0
296
0
143
3.75
271
0
272
9
273
9
  0
DICTIONARY
  5
2D
330
A
100
AcDbDictionary
280
1
281
1
  3
CREATED_BY_EZDXF
350
2E
  3
WRITTEN_BY_EZDXF
350
34
  0
DICTIONARYVAR
  5
2E
330
2D
100
DictionaryVariables
280
0
  1
1.4.4 @ 2026-10-06T16:56:34.861556+00:00
  0
DICTIONARYVAR
  5
34
330
2D
100
DictionaryVariables
280
0
  1
1.4.4 @ 2026-10-06T16:56:34.881700+00:00
  0
ENDSEC
  0
EOF
