  0
SECTION
  2
HEADER
  9
$ACADVER
  1
AC1015
  9
$ACADMAINTVER
 70
6
  9
$DWGCODEPAGE
  3
ANSI_1252
  9
$INSBASE
 10
0.0
 20
0.0
 30
0.0
  9
$EXTMIN
 10
1e+20
 20
1e+20
 30
1e+20
  9
$EXTMAX
 10
-1e+20
 20
-1e+20
 30
-1e+20
  9
$LIMMIN
 10
0.0
 20
0.0
  9
$LIMMAX
 10
420.0
 20
297.0
  9
$ORTHOMODE
 70
0
  9
$REGENMODE
 70
1
  9
$FILLMODE
 70
1
  9
$QTEXTMODE
 70
0
  9
$MIRRTEXT
 70
1
  9
$LTSCALE
 40
1.0
  9
$ATTMODE
 70
1
  9
$TEXTSIZE
 40
2.5
  9
$TRACEWID
 40
1.0
  9
$TEXTSTYLE
  7
Standard
  9
$CLAYER
  8
0
  9
$CELTYPE
  6
ByLayer
  9
$CECOLOR
 62
256
  9
$CELTSCALE
 40
1.0
  9
$DISPSILH
 70
0
  9
$DIMSCALE
 40
1.0
  9
$DIMASZ
 40
2.5
  9
$DIMEXO
 40
0.625
  9
$DIMDLI
 40
3.75
  9
$DIMRND
 40
0.0
  9
$DIMDLE
 40
0.0
  9
$DIMEXE
 40
1.25
  9
$DIMTP
 40
0.0
  9
$DIMTM
 40
0.0
  9
$DIMTXT
 40
2.5
  9
$DIMCEN
 40
2.5
  9
$DIMTSZ
 40
0.0
  9
$DIMTOL
 70
0
  9
$DIMLIM
 70
0
  9
$DIMTIH
 70
0
  9
$DIMTOH
 70
0
  9
$DIMSE1
 70
0
  9
$DIMSE2
 70
0
  9
$DIMTAD
 70
1
  9
$DIMZIN
 70
8
  9
$DIMBLK
  1

  9
$DIMASO
 70
1
  9
$DIMSHO
 70
1
  9
$DIMPOST
  1

  9
$DIMAPOST
  1

  9
$DIMALT
 70
0
  9
$DIMALTD
 70
3
  9
$DIMALTF
 40
0.03937007874
  9
$DIMLFAC
 40
1.0
  9
$DIMTOFL
 70
1
  9
$DIMTVP
 40
0.0
  9
$DIMTIX
 70
0
  9
$DIMSOXD
 70
0
  9
$DIMSAH
 70
0
  9
$DIMBLK1
  1

  9
$DIMBLK2
  1

  9
$DIMSTYLE
  2
ISO-25
  9
$DIMCLRD
 70
0
  9
$DIMCLRE
 70
0
  9
$DIMCLRT
 70
0
  9
$DIMTFAC
 40
1.0
  9
$DIMGAP
 40
0.625
  9
$DIMJUST
 70
0
  9
$DIMSD1
 70
0
  9
$DIMSD2
 70
0
  9
$DIMTOLJ
 70
0
  9
$DIMTZIN
 70
8
  9
$DIMALTZ
 70
0
  9
$DIMALTTZ
 70
0
  9
$DIMUPT
 70
0
  9
$DIMDEC
 70
2
  9
$DIMTDEC
 70
2
  9
$DIMALTU
 70
2
  9
$DIMALTTD
 70
3
  9
$DIMTXSTY
  7
Standard
  9
$DIMAUNIT
 70
0
  9
$DIMADEC
 70
0
  9
$DIMALTRND
 40
0.0
  9
$DIMAZIN
 70
0
  9
$DIMDSEP
 70
44
  9
$DIMATFIT
 70
3
  9
$DIMFRAC
 70
0
  9
$DIMLDRBLK
  1

  9
$DIMLUNIT
 70
2
  9
$DIMLWD
 70
-2
  9
$DIMLWE
 70
-2
  9
$DIMTMOVE
 70
0
  9
$LUNITS
 70
2
  9
$LUPREC
 70
4
  9
$SKETCHINC
 40
1.0
  9
$FILLETRAD
 40
10.0
  9
$AUNITS
 70
0
  9
$AUPREC
 70
2
  9
$MENU
  1
.
  9
$ELEVATION
 40
0.0
  9
$PELEVATION
 40
0.0
  9
$THICKNESS
 40
0.0
  9
$LIMCHECK
 70
0
  9
$CHAMFERA
 40
0.0
  9
$CHAMFERB
 40
0.0
  9
$CHAMFERC
 40
0.0
  9
$CHAMFERD
 40
0.0
  9
$SKPOLY
 70
0
  9
$TDCREATE
 40
2461320.705960648
  9
$TDUCREATE
 40
2458532.153996898
  9
$TDUPDATE
 40
2461320.705960648
  9
$TDUUPDATE
 40
2458532.1544311
  9
$TDINDWG
 40
0.0
  9
$TDUSRTIMER
 40
0.0
  9
$USRTIMER
 70
1
  9
$ANGBASE
 50
0.0
  9
$ANGDIR
 70
0
  9
$PDMODE
 70
0
  9
$PDSIZE
 40
0.0
  9
$PLINEWID
 40
0.0
  9
$SPLFRAME
 70
0
  9
$SPLINETYPE
 70
6
  9
$SPLINESEGS
 70
8
  9
$HANDSEED
  5
36
  9
$SURFTAB1
 70
6
  9
$SURFTAB2
 70
6
  9
$SURFTYPE
 70
6
  9
$SURFU
 70
6
  9
$SURFV
 70
6
  9
$UCSBASE
  2

  9
$UCSNAME
  2

  9
$UCSORG
 10
0.0
 20
0.0
 30
0.0
  9
$UCSXDIR
 10
1.0
 20
0.0
 30
0.0
  9
$UCSYDIR
 10
0.0
 20
1.0
 30
0.0
  9
$UCSORTHOREF
  2

  9
$UCSORTHOVIEW
 70
0
  9
$UCSORGTOP
 10
0.0
 20
0.0
 30
0.0
  9
$UCSORGBOTTOM
 10
0.0
 20
0.0
 30
0.0
  9
$UCSORGLEFT
 10
0.0
 20
0.0
 30
0.0
  9
$UCSORGRIGHT
 10
0.0
 20
0.0
 30
0.0
  9
$UCSORGFRONT
 10
0.0
 20
0.0
 30
0.0
  9
$UCSORGBACK
 10
0.0
 20
0.0
 30
0.0
  9
$PUCSBASE
  2

  9
$PUCSNAME
  2

  9
$PUCSORG
 10
0.0
 20
0.0
 30
0.0
  9
$PUCSXDIR
 10
1.0
 20
0.0
 30
0.0
  9
$PUCSYDIR
 10
0.0
 20
1.0
 30
0.0
  9
$PUCSORTHOREF
  2

  9
$PUCSORTHOVIEW
 70
0
  9
$PUCSORGTOP
 10
0.0
 20
0.0
 30
0.0
  9
$PUCSORGBOTTOM
 10
0.0
 20
0.0
 30
0.0
  9
$PUCSORGLEFT
 10
0.0
 20
0.0
 30
0.0
  9
$PUCSORGRIGHT
 10
0.0
 20
0.0
 30
0.0
  9
$PUCSORGFRONT
 10
0.0
 20
0.0
 30
0.0
  9
$PUCSORGBACK
 10
0.0
 20
0.0
 30
0.0
  9
$USERI1
 70
0
  9
$USERI2
 70
0
  9
$USERI3
 70
0
  9
$USERI4
 70
0
  9
$USERI5
 70
0
  9
$USERR1
 40
0.0
  9
$USERR2
 40
0.0
  9
$USERR3
 40
0.0
  9
$USERR4
 40
0.0
  9
$USERR5
 40
0.0
  9
$WORLDVIEW
 70
1
  9
$SHADEDGE
 70
3
  9
$SHADEDIF
 70
70
  9
$TILEMODE
 70
1
  9
$MAXACTVP
 70
64
  9
$PINSBASE
 10
0.0
 20
0.0
 30
0.0
  9
$PLIMCHECK
 70
0
  9
$PEXTMIN
 10
1e+20
 20
1e+20
 30
1e+20
  9
$PEXTMAX
 10
-1e+20
 20
-1e+20
 30
-1e+20
  9
$PLIMMIN
 10
0.0
 20
0.0
  9
$PLIMMAX
 10
420.0
 20
297.0
  9
$UNITMODE
 70
0
  9
$VISRETAIN
 70
1
  9
$PLINEGEN
 70
0
  9
$PSLTSCALE
 70
1
  9
$TREEDEPTH
 70
3020
  9
$CMLSTYLE
  2
Standard
  9
$CMLJUST
 70
0
  9
$CMLSCALE
 40
20.0
  9
$PROXYGRAPHICS
 70
1
  9
$MEASUREMENT
 70
1
  9
$CELWEIGHT
370
-1
  9
$ENDCAPS
280
0
  9
$JOINSTYLE
280
0
  9
$LWDISPLAY
290
0
  9
$INSUNITS
 70
4
  9
$HYPERLINKBASE
  1

  9
$STYLESHEET
  1

  9
$XEDIT
290
1
  9
$CEPSNTYPE
380
0
  9
$PSTYLEMODE
290
1
  9
$FINGERPRINTGUID
  2
{F340D767-1624-44CA-ACE0-79C9B788BCED}
  9
$VERSIONGUID
  2
{14C70E7D-FC07-4625-AB21-15B5C8959075}
  9
$EXTNAMES
290
1
  9
$PSVPSCALE
 40
0.0
  9
$OLESTARTUP
290
0
  0
ENDSEC
  0
SECTION
  2
CLASSES
  0
CLASS
  1
ACDBDICTIONARYWDFLT
  2
AcDbDictionaryWithDefault
  3
ObjectDBX Classes
 90
0
280
0
281
0
  0
CLASS
  1
SUN
  2
AcDbSun
  3
SCENEOE
 90
1153
280
0
281
0
  0
CLASS
  1
VISUALSTYLE
  2
AcDbVisualStyle
  3
ObjectDBX Classes
 90
4095
280
0
281
0
  0
CLASS
  1
MATERIAL
  2
AcDbMaterial
  3
ObjectDBX Classes
 90
1153
280
0
281
0
  0
CLASS
  1
SCALE
  2
AcDbScale
  3
ObjectDBX Classes
 90
1153
280
0
281
0
  0
CLASS
  1
TABLESTYLE
  2
AcDbTableStyle
  3
ObjectDBX Classes
 90
4095
280
0
281
0
  0
CLASS
  1
MLEADERSTYLE
  2
AcDbMLeaderStyle
  3
ACDB_MLEADERSTYLE_CLASS
 90
4095
280
0
281
0
  0
CLASS
  1
DICTIONARYVAR
  2
AcDbDictionaryVar
  3
ObjectDBX Classes
 90
0
280
0
281
0
  0
CLASS
  1
CELLSTYLEMAP
  2
AcDbCellStyleMap
  3
ObjectDBX Classes
 90
1152
280
0
281
0
  0
CLASS
  1
MENTALRAYRENDERSETTINGS
  2
AcDbMentalRayRenderSettings
  3
SCENEOE
 90
1024
280
0
281
0
  0
CLASS
  1
ACDBDETAILVIEWSTYLE
  2
AcDbDetailViewStyle
  3
ObjectDBX Classes
 90
1025
280
0
281
0
  0
CLASS
  1
ACDBSECTIONVIEWSTYLE
  2
AcDbSectionViewStyle
  3
ObjectDBX Classes
 90
1025
280
0
281
0
  0
CLASS
  1
RASTERVARIABLES
  2
AcDbRasterVariables
  3
ISM
 90
0
280
0
281
0
  0
CLASS
  1
ACDBPLACEHOLDER
  2
AcDbPlaceHolder
  3
ObjectDBX Classes
 90
0
280
0
281
0
  0
CLASS
  1
LAYOUT
  2
AcDbLayout
  3
ObjectDBX Classes
 90
0
280
0
281
0
  0
ENDSEC
  0
SECTION
  2
TABLES
  0
TABLE
  2
VPORT
  5
8
330
0
100
AcDbSymbolTable
 70
1
  0
VPORT
  5
23
330
8
100
AcDbSymbolTableRecord
100
AcDbViewportTableRecord
  2
*Active
 70
0
 10
0.0
 20
0.0
 11
1.0
 21
1.0
 12
0.0
 22
0.0
 13
0.0
 23
0.0
 14
0.5
 24
0.5
 15
0.5
 25
0.5
 16
0.0
 26
0.0
 36
1.0
 17
0.0
 27
0.0
 37
0.0
 40
1000.0
 41
1.34
 42
50.0
 43
0.0
 44
0.0
 50
0.0
 51
0.0
 71
0
 72
1000
 73
1
 74
3
 75
0
 76
0
 77
0
 78
0
281
0
 65
0
146
0.0
  0
ENDTAB
  0
TABLE
  2
LTYPE
  5
2
330
0
100
AcDbSymbolTable
 70
3
  0
LTYPE
  5
24
330
2
100
AcDbSymbolTableRecord
100
AcDbLinetypeTableRecord
  2
ByBlock
 70
0
  3

 72
65
 73
0
 40
0.0
  0
LTYPE
  5
25
330
2
100
AcDbSymbolTableRecord
100
AcDbLinetypeTableRecord
  2
ByLayer
 70
0
  3

 72
65
 73
0
 40
0.0
  0
LTYPE
  5
26
330
2
100
AcDbSymbolTableRecord
100
AcDbLinetypeTableRecord
  2
Continuous
 70
0
  3

 72
65
 73
0
 40
0.0
  0
ENDTAB
  0
TABLE
  2
LAYER
  5
1
330
0
100
AcDbSymbolTable
 70
3
  0
LAYER
  5
27
330
1
100
AcDbSymbolTableRecord
100
AcDbLayerTableRecord
  2
0
 70
0
 62
7
  6
Continuous
370
-3
390
13
  0
LAYER
  5
28
330
1
100
AcDbSymbolTableRecord
100
AcDbLayerTableRecord
  2
Defpoints
 70
0
 62
7
  6
Continuous
290
0
370
-3
390
13
  0
LAYER
  5
2F
330
1
100
AcDbSymbolTableRecord
100
AcDbLayerTableRecord
  2
CORTE
 70
0
 62
7
  6
Continuous
370
-3
390
13
  0
ENDTAB
  0
TABLE
  2
STYLE
  5
5
330
0
100
AcDbSymbolTable
 70
1
  0
STYLE
  5
29
330
5
100
AcDbSymbolTableRecord
100
AcDbTextStyleTableRecord
  2
Standard
 70
0
 40
0.0
 41
1.0
 50
0.0
 71
0
 42
2.5
  3
txt
  4

  0
ENDTAB
  0
TABLE
  2
VIEW
  5
7
330
0
100
AcDbSymbolTable
 70
0
  0
ENDTAB
  0
TABLE
  2
UCS
  5
6
330
0
100
AcDbSymbolTable
 70
0
  0
ENDTAB
  0
TABLE
  2
APPID
  5
3
330
0
100
AcDbSymbolTable
 70
3
  0
APPID
  5
2A
330
3
100
AcDbSymbolTableRecord
100
AcDbRegAppTableRecord
  2
ACAD
 70
0
  0
APPID
  5
33
330
3
100
AcDbSymbolTableRecord
100
AcDbRegAppTableRecord
  2
HATCHBACKGROUNDCOLOR
 70
0
  0
APPID
  5
34
330
3
100
AcDbSymbolTableRecord
100
AcDbRegAppTableRecord
  2
EZDXF
 70
0
  0
ENDTAB
  0
TABLE
  2
DIMSTYLE
  5
4
330
0
100
AcDbSymbolTable
 70
1
100
AcDbDimStyleTable
  0
DIMSTYLE
105
2B
330
4
100
AcDbSymbolTableRecord
100
AcDbDimStyleTableRecord
  2
Standard
 70
0
  3

  4

 40
1.0
 41
2.5
 42
0.625
 43
3.75
 44
1.25
 45
0.0
 46
0.0
 47
0.0
 48
0.0
140
2.5
141
2.5
142
0.0
143
0.03937007874
144
1.0
145
0.0
146
1.0
147
0.625
148
0.0
 71
0
 72
0
 73
0
 74
0
 75
0
 76
0
 77
1
 78
8
 79
3
170
0
171
3
172
1
173
0
174
0
175
0
176
0
177
0
178
0
179
2
271
2
272
2
273
2
274
3
275
0
276
0
277
2
278
44
279
0
280
0
281
0
282
0
283
0
284
8
285
0
286
0
288
0
289
3
371
-2
372
-2
  0
ENDTAB
  0
TABLE
  2
BLOCK_RECORD
  5
9
330
0
100
AcDbSymbolTable
 70
2
  0
BLOCK_RECORD
  5
17
330
9
100
AcDbSymbolTableRecord
100
AcDbBlockTableRecord
  2
*Model_Space
340
1A
  0
BLOCK_RECORD
  5
1B
330
9
100
AcDbSymbolTableRecord
100
AcDbBlockTableRecord
  2
*Paper_Space
340
1E
  0
ENDTAB
  0
ENDSEC
  0
SECTION
  2
BLOCKS
  0
BLOCK
  5
18
330
17
100
AcDbEntity
  8
0
100
AcDbBlockBegin
  2
*Model_Space
 70
0
 10
0.0
 20
0.0
 30
0.0
  3
*Model_Space
  1

  0
ENDBLK
  5
19
330
17
100
AcDbEntity
  8
0
100
AcDbBlockEnd
  0
BLOCK
  5
1C
330
1B
100
AcDbEntity
  8
0
100
AcDbBlockBegin
  2
*Paper_Space
 70
0
 10
0.0
 20
0.0
 30
0.0
  3
*Paper_Space
  1

  0
ENDBLK
  5
1D
330
1B
100
AcDbEntity
  8
0
100
AcDbBlockEnd
  0
ENDSEC
  0
SECTION
  2
ENTITIES
  0
LWPOLYLINE
  5
30
330
17
100
AcDbEntity
  8
CORTE
100
AcDbPolyline
 90
2799
 70
1
 10
0.7600000000000051
 20
5.4599999999999795
 10
0.3199999999999932
 20
6.399999999999977
 10
0.0
 20
7.359999999999985
 10
0.0
 20
7.3799999999999955
 10
0.0
 20
7.399999999999977
 10
0.01999999999999602
 20
7.399999999999977
 10
0.01999999999999602
 20
7.4199999999999875
 10
0.04000000000000625
 20
7.4199999999999875
 10
0.04000000000000625
 20
7.439999999999998
 10
0.060000000000002274
 20
7.4599999999999795
 10
0.060000000000002274
 20
7.47999999999999
 10
0.0799999999999983
 20
7.47999999999999
 10
0.0799999999999983
 20
7.5
 10
0.09999999999999432
 20
7.519999999999982
 10
0.12000000000000455
 20
7.539999999999992
 10
0.12000000000000455
 20
7.559999999999974
 10
0.14000000000000057
 20
7.559999999999974
 10
0.14000000000000057
 20
7.579999999999984
 10
0.1599999999999966
 20
7.579999999999984
 10
0.1599999999999966
 20
7.599999999999994
 10
0.1799999999999926
 20
7.619999999999976
 10
0.1799999999999926
 20
7.639999999999986
 10
0.20000000000000284
 20
7.639999999999986
 10
0.20000000000000284
 20
7.659999999999997
 10
0.21999999999999886
 20
7.659999999999997
 10
0.21999999999999886
 20
7.679999999999978
 10
0.23999999999999488
 20
7.699999999999989
 10
0.2600000000000051
 20
7.719999999999999
 10
0.28000000000000114
 20
7.739999999999981
 10
0.28000000000000114
 20
7.759999999999991
 10
0.29999999999999716
 20
7.759999999999991
 10
0.29999999999999716
 20
7.779999999999973
 10
0.3199999999999932
 20
7.779999999999973
 10
0.3199999999999932
 20
7.799999999999983
 10
0.3400000000000034
 20
7.819999999999993
 10
0.35999999999999943
 20
7.839999999999975
 10
0.35999999999999943
 20
7.859999999999985
 10
0.37999999999999545
 20
7.859999999999985
 10
0.37999999999999545
 20
7.8799999999999955
 10
0.4000000000000057
 20
7.8799999999999955
 10
0.4000000000000057
 20
7.899999999999977
 10
0.4200000000000017
 20
7.9199999999999875
 10
0.4399999999999977
 20
7.9199999999999875
 10
0.4399999999999977
 20
7.939999999999998
 10
0.45999999999999375
 20
7.9599999999999795
 10
0.480000000000004
 20
7.97999999999999
 10
0.480000000000004
 20
8.0
 10
0.5
 20
8.0
 10
0.519999999999996
 20
8.019999999999982
 10
0.519999999999996
 20
8.039999999999992
 10
0.5400000000000063
 20
8.039999999999992
 10
0.5400000000000063
 20
8.059999999999974
 10
0.5600000000000023
 20
8.059999999999974
 10
0.5799999999999983
 20
8.079999999999984
 10
0.5999999999999943
 20
8.099999999999994
 10
0.5999999999999943
 20
8.119999999999976
 10
0.6200000000000045
 20
8.139999999999986
 10
0.6400000000000006
 20
8.159999999999997
 10
0.6599999999999966
 20
8.159999999999997
 10
0.6599999999999966
 20
8.179999999999978
 10
0.6799999999999926
 20
8.179999999999978
 10
0.6799999999999926
 20
8.199999999999989
 10
0.7000000000000028
 20
8.199999999999989
 10
0.7000000000000028
 20
8.219999999999999
 10
0.7199999999999989
 20
8.219999999999999
 10
0.7199999999999989
 20
8.23999999999998
 10
0.7399999999999949
 20
8.23999999999998
 10
0.7399999999999949
 20
8.259999999999991
 10
0.7600000000000051
 20
8.259999999999991
 10
0.7600000000000051
 20
8.279999999999973
 10
0.7800000000000011
 20
8.279999999999973
 10
0.7800000000000011
 20
8.299999999999983
 10
0.7999999999999972
 20
8.299999999999983
 10
0.8199999999999932
 20
8.319999999999993
 10
0.8400000000000034
 20
8.339999999999975
 10
0.8599999999999994
 20
8.359999999999985
 10
0.8799999999999955
 20
8.359999999999985
 10
0.8799999999999955
 20
8.379999999999995
 10
0.9000000000000057
 20
8.379999999999995
 10
0.9000000000000057
 20
8.399999999999977
 10
0.9200000000000017
 20
8.399999999999977
 10
0.9399999999999977
 20
8.419999999999987
 10
0.9599999999999937
 20
8.439999999999998
 10
0.980000000000004
 20
8.439999999999998
 10
0.980000000000004
 20
8.45999999999998
 10
1.0
 20
8.45999999999998
 10
1.0
 20
8.47999999999999
 10
1.019999999999996
 20
8.47999999999999
 10
1.0400000000000063
 20
8.5
 10
1.0600000000000023
 20
8.519999999999982
 10
1.0799999999999983
 20
8.519999999999982
 10
1.0999999999999943
 20
8.539999999999992
 10
1.1200000000000045
 20
8.559999999999974
 10
1.1400000000000006
 20
8.559999999999974
 10
1.1400000000000006
 20
8.579999999999984
 10
1.1599999999999966
 20
8.579999999999984
 10
1.1799999999999926
 20
8.579999999999984
 10
1.1799999999999926
 20
8.599999999999994
 10
1.2000000000000028
 20
8.599999999999994
 10
1.2199999999999989
 20
8.619999999999976
 10
1.2399999999999949
 20
8.619999999999976
 10
1.2399999999999949
 20
8.639999999999986
 10
1.2600000000000051
 20
8.639999999999986
 10
1.2800000000000011
 20
8.639999999999986
 10
1.2800000000000011
 20
8.659999999999997
 10
1.2999999999999972
 20
8.659999999999997
 10
1.3199999999999932
 20
8.679999999999978
 10
1.3400000000000034
 20
8.679999999999978
 10
1.3599999999999994
 20
8.699999999999989
 10
1.3799999999999955
 20
8.699999999999989
 10
1.3799999999999955
 20
8.719999999999999
 10
1.4000000000000057
 20
8.719999999999999
 10
1.4200000000000017
 20
8.719999999999999
 10
1.4200000000000017
 20
8.73999999999998
 10
1.4399999999999977
 20
8.73999999999998
 10
1.4599999999999937
 20
8.73999999999998
 10
1.4599999999999937
 20
8.759999999999991
 10
1.480000000000004
 20
8.759999999999991
 10
1.5
 20
8.759999999999991
 10
1.5
 20
8.779999999999973
 10
1.519999999999996
 20
8.779999999999973
 10
1.5400000000000063
 20
8.779999999999973
 10
1.5600000000000023
 20
8.799999999999983
 10
1.5799999999999983
 20
8.799999999999983
 10
1.5999999999999943
 20
8.799999999999983
 10
1.5999999999999943
 20
8.819999999999993
 10
1.6200000000000045
 20
8.819999999999993
 10
1.6400000000000006
 20
8.819999999999993
 10
1.6599999999999966
 20
8.839999999999975
 10
1.6799999999999926
 20
8.839999999999975
 10
1.7000000000000028
 20
8.839999999999975
 10
1.7199999999999989
 20
8.859999999999985
 10
1.7399999999999949
 20
8.859999999999985
 10
1.7600000000000051
 20
8.859999999999985
 10
1.7800000000000011
 20
8.879999999999995
 10
1.7999999999999972
 20
8.879999999999995
 10
1.8199999999999932
 20
8.879999999999995
 10
1.8400000000000034
 20
8.899999999999977
 10
1.8599999999999994
 20
8.899999999999977
 10
1.8799999999999955
 20
8.899999999999977
 10
1.9000000000000057
 20
8.899999999999977
 10
1.9000000000000057
 20
8.919999999999987
 10
1.9200000000000017
 20
8.919999999999987
 10
1.9399999999999977
 20
8.919999999999987
 10
1.9599999999999937
 20
8.919999999999987
 10
1.980000000000004
 20
8.939999999999998
 10
2.0
 20
8.939999999999998
 10
2.019999999999996
 20
8.939999999999998
 10
2.0400000000000063
 20
8.939999999999998
 10
2.0400000000000063
 20
8.95999999999998
 10
2.0600000000000023
 20
8.95999999999998
 10
2.0799999999999983
 20
8.95999999999998
 10
2.0999999999999943
 20
8.95999999999998
 10
2.1200000000000045
 20
8.95999999999998
 10
2.1200000000000045
 20
8.97999999999999
 10
2.1400000000000006
 20
8.97999999999999
 10
2.1599999999999966
 20
8.97999999999999
 10
2.1799999999999926
 20
8.97999999999999
 10
2.200000000000003
 20
8.97999999999999
 10
2.200000000000003
 20
9.0
 10
2.219999999999999
 20
9.0
 10
2.239999999999995
 20
9.0
 10
2.260000000000005
 20
9.0
 10
2.280000000000001
 20
9.019999999999982
 10
2.299999999999997
 20
9.019999999999982
 10
2.319999999999993
 20
9.019999999999982
 10
2.3400000000000034
 20
9.019999999999982
 10
2.3400000000000034
 20
9.039999999999992
 10
2.3599999999999994
 20
9.039999999999992
 10
2.3799999999999955
 20
9.039999999999992
 10
2.4000000000000057
 20
9.059999999999974
 10
2.4200000000000017
 20
9.059999999999974
 10
2.4399999999999977
 20
9.059999999999974
 10
2.4399999999999977
 20
9.079999999999984
 10
2.4599999999999937
 20
9.079999999999984
 10
2.480000000000004
 20
9.079999999999984
 10
2.5
 20
9.099999999999994
 10
2.519999999999996
 20
9.099999999999994
 10
2.5400000000000063
 20
9.099999999999994
 10
2.5400000000000063
 20
9.119999999999976
 10
2.5600000000000023
 20
9.119999999999976
 10
2.5799999999999983
 20
9.139999999999986
 10
2.5999999999999943
 20
9.139999999999986
 10
2.5999999999999943
 20
9.159999999999997
 10
2.6200000000000045
 20
9.159999999999997
 10
2.6400000000000006
 20
9.159999999999997
 10
2.6400000000000006
 20
9.179999999999978
 10
2.6599999999999966
 20
9.179999999999978
 10
2.6599999999999966
 20
9.199999999999989
 10
2.6799999999999926
 20
9.199999999999989
 10
2.700000000000003
 20
9.219999999999999
 10
2.719999999999999
 20
9.219999999999999
 10
2.719999999999999
 20
9.23999999999998
 10
2.739999999999995
 20
9.23999999999998
 10
2.739999999999995
 20
9.259999999999991
 10
2.760000000000005
 20
9.259999999999991
 10
2.760000000000005
 20
9.279999999999973
 10
2.780000000000001
 20
9.279999999999973
 10
2.780000000000001
 20
9.299999999999983
 10
2.799999999999997
 20
9.299999999999983
 10
2.799999999999997
 20
9.319999999999993
 10
2.819999999999993
 20
9.339999999999975
 10
2.819999999999993
 20
9.359999999999985
 10
2.8400000000000034
 20
9.359999999999985
 10
2.8400000000000034
 20
9.379999999999995
 10
2.8599999999999994
 20
9.379999999999995
 10
2.8599999999999994
 20
9.399999999999977
 10
2.8599999999999994
 20
9.419999999999987
 10
2.8799999999999955
 20
9.419999999999987
 10
2.8799999999999955
 20
9.439999999999998
 10
2.9000000000000057
 20
9.45999999999998
 10
2.9000000000000057
 20
9.47999999999999
 10
2.9200000000000017
 20
9.47999999999999
 10
2.9200000000000017
 20
9.5
 10
2.9200000000000017
 20
9.519999999999982
 10
2.9200000000000017
 20
9.539999999999992
 10
2.9399999999999977
 20
9.539999999999992
 10
2.9399999999999977
 20
9.559999999999974
 10
2.9399999999999977
 20
9.579999999999984
 10
2.9599999999999937
 20
9.579999999999984
 10
2.9599999999999937
 20
9.599999999999994
 10
2.9599999999999937
 20
9.619999999999976
 10
2.9599999999999937
 20
9.639999999999986
 10
2.980000000000004
 20
9.639999999999986
 10
2.980000000000004
 20
9.659999999999997
 10
2.980000000000004
 20
9.679999999999978
 10
2.980000000000004
 20
9.699999999999989
 10
3.0
 20
9.699999999999989
 10
3.0
 20
9.719999999999999
 10
3.0
 20
9.73999999999998
 10
3.0
 20
9.759999999999991
 10
3.0
 20
9.779999999999973
 10
3.019999999999996
 20
9.779999999999973
 10
3.0
 20
10.119999999999976
 10
2.980000000000004
 20
10.47999999999999
 10
3.0
 20
10.839999999999975
 10
3.0400000000000063
 20
11.179999999999978
 10
3.0400000000000063
 20
11.199999999999989
 10
3.019999999999996
 20
11.199999999999989
 10
3.019999999999996
 20
11.219999999999999
 10
3.019999999999996
 20
11.23999999999998
 10
3.019999999999996
 20
11.259999999999991
 10
3.019999999999996
 20
11.279999999999973
 10
3.0
 20
11.279999999999973
 10
3.0
 20
11.299999999999983
 10
3.0
 20
11.319999999999993
 10
3.0
 20
11.339999999999975
 10
2.980000000000004
 20
11.339999999999975
 10
2.980000000000004
 20
11.359999999999985
 10
2.980000000000004
 20
11.379999999999995
 10
2.980000000000004
 20
11.399999999999977
 10
2.9599999999999937
 20
11.399999999999977
 10
2.9599999999999937
 20
11.419999999999987
 10
2.9599999999999937
 20
11.439999999999998
 10
2.9399999999999977
 20
11.45999999999998
 10
2.9399999999999977
 20
11.47999999999999
 10
2.9399999999999977
 20
11.5
 10
2.9200000000000017
 20
11.5
 10
2.9200000000000017
 20
11.519999999999982
 10
2.9200000000000017
 20
11.539999999999992
 10
2.9000000000000057
 20
11.539999999999992
 10
2.9000000000000057
 20
11.559999999999974
 10
2.8799999999999955
 20
11.559999999999974
 10
2.8799999999999955
 20
11.579999999999984
 10
2.8799999999999955
 20
11.599999999999994
 10
2.8599999999999994
 20
11.599999999999994
 10
2.8599999999999994
 20
11.619999999999976
 10
2.8400000000000034
 20
11.619999999999976
 10
2.8400000000000034
 20
11.639999999999986
 10
2.819999999999993
 20
11.659999999999997
 10
2.819999999999993
 20
11.679999999999978
 10
2.799999999999997
 20
11.679999999999978
 10
2.799999999999997
 20
11.699999999999989
 10
2.780000000000001
 20
11.699999999999989
 10
2.780000000000001
 20
11.719999999999999
 10
2.760000000000005
 20
11.719999999999999
 10
2.760000000000005
 20
11.73999999999998
 10
2.739999999999995
 20
11.73999999999998
 10
2.739999999999995
 20
11.759999999999991
 10
2.719999999999999
 20
11.759999999999991
 10
2.719999999999999
 20
11.779999999999973
 10
2.700000000000003
 20
11.779999999999973
 10
2.6799999999999926
 20
11.779999999999973
 10
2.6799999999999926
 20
11.799999999999983
 10
2.6599999999999966
 20
11.799999999999983
 10
2.6599999999999966
 20
11.819999999999993
 10
2.6400000000000006
 20
11.819999999999993
 10
2.6200000000000045
 20
11.839999999999975
 10
2.5999999999999943
 20
11.839999999999975
 10
2.5999999999999943
 20
11.859999999999985
 10
2.5799999999999983
 20
11.859999999999985
 10
2.5600000000000023
 20
11.859999999999985
 10
2.5600000000000023
 20
11.879999999999995
 10
2.5400000000000063
 20
11.879999999999995
 10
2.519999999999996
 20
11.879999999999995
 10
2.519999999999996
 20
11.899999999999977
 10
2.5
 20
11.899999999999977
 10
2.480000000000004
 20
11.899999999999977
 10
2.480000000000004
 20
11.919999999999987
 10
2.4599999999999937
 20
11.919999999999987
 10
2.4399999999999977
 20
11.919999999999987
 10
2.4200000000000017
 20
11.919999999999987
 10
2.4200000000000017
 20
11.939999999999998
 10
2.4000000000000057
 20
11.939999999999998
 10
2.3799999999999955
 20
11.939999999999998
 10
2.3599999999999994
 20
11.95999999999998
 10
2.3400000000000034
 20
11.95999999999998
 10
2.319999999999993
 20
11.95999999999998
 10
2.299999999999997
 20
11.97999999999999
 10
2.280000000000001
 20
11.97999999999999
 10
2.260000000000005
 20
11.97999999999999
 10
2.239999999999995
 20
11.97999999999999
 10
2.239999999999995
 20
12.0
 10
2.219999999999999
 20
12.0
 10
2.200000000000003
 20
12.0
 10
2.1799999999999926
 20
12.0
 10
2.1799999999999926
 20
12.019999999999982
 10
2.1599999999999966
 20
12.019999999999982
 10
2.1400000000000006
 20
12.019999999999982
 10
2.1200000000000045
 20
12.019999999999982
 10
2.0999999999999943
 20
12.039999999999992
 10
2.0799999999999983
 20
12.039999999999992
 10
2.0600000000000023
 20
12.039999999999992
 10
2.0400000000000063
 20
12.039999999999992
 10
2.0400000000000063
 20
12.059999999999974
 10
2.019999999999996
 20
12.059999999999974
 10
2.0
 20
12.059999999999974
 10
1.980000000000004
 20
12.059999999999974
 10
1.980000000000004
 20
12.079999999999984
 10
1.9599999999999937
 20
12.079999999999984
 10
1.9399999999999977
 20
12.079999999999984
 10
1.9200000000000017
 20
12.079999999999984
 10
1.9200000000000017
 20
12.099999999999994
 10
1.9000000000000057
 20
12.099999999999994
 10
1.8799999999999955
 20
12.099999999999994
 10
1.8599999999999994
 20
12.099999999999994
 10
1.8599999999999994
 20
12.119999999999976
 10
1.8400000000000034
 20
12.119999999999976
 10
1.8199999999999932
 20
12.119999999999976
 10
1.7999999999999972
 20
12.119999999999976
 10
1.7999999999999972
 20
12.139999999999986
 10
1.7800000000000011
 20
12.139999999999986
 10
1.7600000000000051
 20
12.139999999999986
 10
1.7399999999999949
 20
12.159999999999997
 10
1.7199999999999989
 20
12.159999999999997
 10
1.7000000000000028
 20
12.159999999999997
 10
1.7000000000000028
 20
12.179999999999978
 10
1.6799999999999926
 20
12.179999999999978
 10
1.6599999999999966
 20
12.179999999999978
 10
1.6400000000000006
 20
12.199999999999989
 10
1.6200000000000045
 20
12.199999999999989
 10
1.5999999999999943
 20
12.219999999999999
 10
1.5799999999999983
 20
12.219999999999999
 10
1.5600000000000023
 20
12.219999999999999
 10
1.5600000000000023
 20
12.23999999999998
 10
1.5400000000000063
 20
12.23999999999998
 10
1.519999999999996
 20
12.259999999999991
 10
1.5
 20
12.259999999999991
 10
1.480000000000004
 20
12.279999999999973
 10
1.4599999999999937
 20
12.279999999999973
 10
1.4399999999999977
 20
12.299999999999983
 10
1.4200000000000017
 20
12.299999999999983
 10
1.4000000000000057
 20
12.319999999999993
 10
1.3799999999999955
 20
12.319999999999993
 10
1.3799999999999955
 20
12.339999999999975
 10
1.3599999999999994
 20
12.339999999999975
 10
1.3400000000000034
 20
12.339999999999975
 10
1.3400000000000034
 20
12.359999999999985
 10
1.3199999999999932
 20
12.359999999999985
 10
1.3199999999999932
 20
12.379999999999995
 10
1.2999999999999972
 20
12.379999999999995
 10
1.2800000000000011
 20
12.399999999999977
 10
1.2600000000000051
 20
12.399999999999977
 10
1.2600000000000051
 20
12.419999999999987
 10
1.2399999999999949
 20
12.419999999999987
 10
1.2199999999999989
 20
12.439999999999998
 10
1.2000000000000028
 20
12.439999999999998
 10
1.1799999999999926
 20
12.45999999999998
 10
1.1599999999999966
 20
12.47999999999999
 10
1.1400000000000006
 20
12.47999999999999
 10
1.1400000000000006
 20
12.5
 10
1.1200000000000045
 20
12.5
 10
1.1200000000000045
 20
12.519999999999982
 10
1.0999999999999943
 20
12.519999999999982
 10
1.0799999999999983
 20
12.539999999999992
 10
1.0600000000000023
 20
12.539999999999992
 10
1.0600000000000023
 20
12.559999999999974
 10
1.0400000000000063
 20
12.559999999999974
 10
1.0400000000000063
 20
12.579999999999984
 10
1.019999999999996
 20
12.579999999999984
 10
1.019999999999996
 20
12.599999999999994
 10
1.0
 20
12.599999999999994
 10
1.0
 20
12.619999999999976
 10
0.980000000000004
 20
12.619999999999976
 10
0.9599999999999937
 20
12.639999999999986
 10
0.9399999999999977
 20
12.639999999999986
 10
0.9399999999999977
 20
12.659999999999997
 10
0.9200000000000017
 20
12.659999999999997
 10
0.9200000000000017
 20
12.679999999999978
 10
0.9000000000000057
 20
12.679999999999978
 10
0.9000000000000057
 20
12.699999999999989
 10
0.8799999999999955
 20
12.699999999999989
 10
0.8799999999999955
 20
12.719999999999999
 10
0.8599999999999994
 20
12.719999999999999
 10
0.8599999999999994
 20
12.73999999999998
 10
0.8400000000000034
 20
12.73999999999998
 10
0.8400000000000034
 20
12.759999999999991
 10
0.8199999999999932
 20
12.759999999999991
 10
0.8199999999999932
 20
12.779999999999973
 10
0.7999999999999972
 20
12.779999999999973
 10
0.7999999999999972
 20
12.799999999999983
 10
0.7800000000000011
 20
12.799999999999983
 10
0.7800000000000011
 20
12.819999999999993
 10
0.7600000000000051
 20
12.819999999999993
 10
0.7600000000000051
 20
12.839999999999975
 10
0.7399999999999949
 20
12.839999999999975
 10
0.7399999999999949
 20
12.859999999999985
 10
0.7199999999999989
 20
12.859999999999985
 10
0.7199999999999989
 20
12.879999999999995
 10
0.7000000000000028
 20
12.879999999999995
 10
0.7000000000000028
 20
12.899999999999977
 10
0.6799999999999926
 20
12.899999999999977
 10
0.6799999999999926
 20
12.919999999999987
 10
0.6599999999999966
 20
12.939999999999998
 10
0.6400000000000006
 20
12.95999999999998
 10
0.6200000000000045
 20
12.97999999999999
 10
0.5999999999999943
 20
13.0
 10
0.5999999999999943
 20
13.019999999999982
 10
0.5799999999999983
 20
13.019999999999982
 10
0.5799999999999983
 20
13.039999999999992
 10
0.5600000000000023
 20
13.039999999999992
 10
0.5600000000000023
 20
13.059999999999974
 10
0.5400000000000063
 20
13.059999999999974
 10
0.5400000000000063
 20
13.079999999999984
 10
0.519999999999996
 20
13.079999999999984
 10
0.519999999999996
 20
13.099999999999994
 10
0.5
 20
13.119999999999976
 10
0.5
 20
13.139999999999986
 10
0.480000000000004
 20
13.139999999999986
 10
0.480000000000004
 20
13.159999999999997
 10
0.45999999999999375
 20
13.159999999999997
 10
0.45999999999999375
 20
13.179999999999978
 10
0.4399999999999977
 20
13.199999999999989
 10
0.4200000000000017
 20
13.219999999999999
 10
0.4200000000000017
 20
13.23999999999998
 10
0.4000000000000057
 20
13.23999999999998
 10
0.4000000000000057
 20
13.259999999999991
 10
0.37999999999999545
 20
13.259999999999991
 10
0.37999999999999545
 20
13.279999999999973
 10
0.35999999999999943
 20
13.299999999999983
 10
0.35999999999999943
 20
13.319999999999993
 10
0.3400000000000034
 20
13.319999999999993
 10
0.3400000000000034
 20
13.339999999999975
 10
0.3199999999999932
 20
13.339999999999975
 10
0.3199999999999932
 20
13.359999999999985
 10
0.29999999999999716
 20
13.359999999999985
 10
0.29999999999999716
 20
13.379999999999995
 10
0.29999999999999716
 20
13.399999999999977
 10
0.28000000000000114
 20
13.399999999999977
 10
0.28000000000000114
 20
13.419999999999987
 10
0.2600000000000051
 20
13.419999999999987
 10
0.2600000000000051
 20
13.439999999999998
 10
0.23999999999999488
 20
13.439999999999998
 10
0.23999999999999488
 20
13.45999999999998
 10
0.23999999999999488
 20
13.47999999999999
 10
0.21999999999999886
 20
13.47999999999999
 10
0.21999999999999886
 20
13.5
 10
0.20000000000000284
 20
13.519999999999982
 10
0.1799999999999926
 20
13.539999999999992
 10
0.1799999999999926
 20
13.559999999999974
 10
0.1599999999999966
 20
13.559999999999974
 10
0.1599999999999966
 20
13.579999999999984
 10
0.14000000000000057
 20
13.579999999999984
 10
0.14000000000000057
 20
13.599999999999994
 10
0.14000000000000057
 20
13.619999999999976
 10
0.12000000000000455
 20
13.619999999999976
 10
0.12000000000000455
 20
13.639999999999986
 10
0.09999999999999432
 20
13.659999999999997
 10
0.09999999999999432
 20
13.679999999999978
 10
0.0799999999999983
 20
13.679999999999978
 10
0.45999999999999375
 20
14.639999999999986
 10
0.9000000000000057
 20
15.579999999999984
 10
0.9200000000000017
 20
15.579999999999984
 10
0.9399999999999977
 20
15.579999999999984
 10
0.9599999999999937
 20
15.579999999999984
 10
0.980000000000004
 20
15.579999999999984
 10
1.0
 20
15.579999999999984
 10
1.019999999999996
 20
15.599999999999994
 10
1.0400000000000063
 20
15.599999999999994
 10
1.0600000000000023
 20
15.599999999999994
 10
1.0799999999999983
 20
15.599999999999994
 10
1.0999999999999943
 20
15.599999999999994
 10
1.1200000000000045
 20
15.599999999999994
 10
1.1400000000000006
 20
15.599999999999994
 10
1.1599999999999966
 20
15.619999999999976
 10
1.1799999999999926
 20
15.619999999999976
 10
1.2000000000000028
 20
15.619999999999976
 10
1.2199999999999989
 20
15.619999999999976
 10
1.2399999999999949
 20
15.619999999999976
 10
1.2600000000000051
 20
15.619999999999976
 10
1.2800000000000011
 20
15.619999999999976
 10
1.2999999999999972
 20
15.619999999999976
 10
1.3199999999999932
 20
15.639999999999986
 10
1.3400000000000034
 20
15.639999999999986
 10
1.3599999999999994
 20
15.639999999999986
 10
1.3799999999999955
 20
15.639999999999986
 10
1.4000000000000057
 20
15.639999999999986
 10
1.4200000000000017
 20
15.639999999999986
 10
1.4399999999999977
 20
15.639999999999986
 10
1.4599999999999937
 20
15.639999999999986
 10
1.480000000000004
 20
15.639999999999986
 10
1.5
 20
15.639999999999986
 10
1.519999999999996
 20
15.639999999999986
 10
1.5400000000000063
 20
15.659999999999997
 10
1.5600000000000023
 20
15.659999999999997
 10
1.5799999999999983
 20
15.659999999999997
 10
1.5999999999999943
 20
15.659999999999997
 10
1.6200000000000045
 20
15.659999999999997
 10
1.6400000000000006
 20
15.659999999999997
 10
1.6599999999999966
 20
15.659999999999997
 10
1.6799999999999926
 20
15.659999999999997
 10
1.7000000000000028
 20
15.659999999999997
 10
1.7199999999999989
 20
15.659999999999997
 10
1.7399999999999949
 20
15.659999999999997
 10
1.7600000000000051
 20
15.659999999999997
 10
1.7800000000000011
 20
15.659999999999997
 10
1.7999999999999972
 20
15.659999999999997
 10
1.8199999999999932
 20
15.659999999999997
 10
1.8400000000000034
 20
15.659999999999997
 10
1.8599999999999994
 20
15.659999999999997
 10
1.8799999999999955
 20
15.659999999999997
 10
1.9000000000000057
 20
15.659999999999997
 10
1.9200000000000017
 20
15.659999999999997
 10
1.9399999999999977
 20
15.659999999999997
 10
1.9599999999999937
 20
15.659999999999997
 10
1.980000000000004
 20
15.659999999999997
 10
2.0
 20
15.659999999999997
 10
2.019999999999996
 20
15.659999999999997
 10
2.0400000000000063
 20
15.659999999999997
 10
2.0600000000000023
 20
15.659999999999997
 10
2.0799999999999983
 20
15.659999999999997
 10
2.0999999999999943
 20
15.659999999999997
 10
2.1200000000000045
 20
15.659999999999997
 10
2.1400000000000006
 20
15.659999999999997
 10
2.1599999999999966
 20
15.659999999999997
 10
2.1799999999999926
 20
15.659999999999997
 10
2.200000000000003
 20
15.659999999999997
 10
2.219999999999999
 20
15.659999999999997
 10
2.239999999999995
 20
15.659999999999997
 10
2.260000000000005
 20
15.659999999999997
 10
2.280000000000001
 20
15.639999999999986
 10
2.299999999999997
 20
15.639999999999986
 10
2.319999999999993
 20
15.639999999999986
 10
2.3400000000000034
 20
15.639999999999986
 10
2.3599999999999994
 20
15.639999999999986
 10
2.3799999999999955
 20
15.639999999999986
 10
2.4000000000000057
 20
15.639999999999986
 10
2.4200000000000017
 20
15.639999999999986
 10
2.4399999999999977
 20
15.639999999999986
 10
2.4399999999999977
 20
15.619999999999976
 10
2.4599999999999937
 20
15.619999999999976
 10
2.480000000000004
 20
15.619999999999976
 10
2.5
 20
15.619999999999976
 10
2.519999999999996
 20
15.619999999999976
 10
2.5400000000000063
 20
15.619999999999976
 10
2.5600000000000023
 20
15.619999999999976
 10
2.5600000000000023
 20
15.599999999999994
 10
2.5799999999999983
 20
15.599999999999994
 10
2.5999999999999943
 20
15.599999999999994
 10
2.6200000000000045
 20
15.599999999999994
 10
2.6400000000000006
 20
15.599999999999994
 10
2.6599999999999966
 20
15.579999999999984
 10
2.6799999999999926
 20
15.579999999999984
 10
2.700000000000003
 20
15.579999999999984
 10
2.719999999999999
 20
15.579999999999984
 10
2.739999999999995
 20
15.559999999999974
 10
2.760000000000005
 20
15.559999999999974
 10
2.780000000000001
 20
15.559999999999974
 10
2.799999999999997
 20
15.559999999999974
 10
2.799999999999997
 20
15.539999999999992
 10
2.819999999999993
 20
15.539999999999992
 10
2.8400000000000034
 20
15.539999999999992
 10
2.8599999999999994
 20
15.539999999999992
 10
2.8599999999999994
 20
15.519999999999982
 10
2.8799999999999955
 20
15.519999999999982
 10
2.9000000000000057
 20
15.519999999999982
 10
2.9200000000000017
 20
15.519999999999982
 10
2.9399999999999977
 20
15.5
 10
2.9599999999999937
 20
15.5
 10
2.980000000000004
 20
15.5
 10
2.980000000000004
 20
15.47999999999999
 10
3.0
 20
15.47999999999999
 10
3.019999999999996
 20
15.47999999999999
 10
3.0400000000000063
 20
15.45999999999998
 10
3.0600000000000023
 20
15.45999999999998
 10
3.0799999999999983
 20
15.439999999999998
 10
3.0999999999999943
 20
15.439999999999998
 10
3.1200000000000045
 20
15.439999999999998
 10
3.1200000000000045
 20
15.419999999999987
 10
3.1400000000000006
 20
15.419999999999987
 10
3.1599999999999966
 20
15.419999999999987
 10
3.1599999999999966
 20
15.399999999999977
 10
3.1799999999999926
 20
15.399999999999977
 10
3.200000000000003
 20
15.399999999999977
 10
3.200000000000003
 20
15.379999999999995
 10
3.219999999999999
 20
15.379999999999995
 10
3.239999999999995
 20
15.379999999999995
 10
3.239999999999995
 20
15.359999999999985
 10
3.260000000000005
 20
15.359999999999985
 10
3.280000000000001
 20
15.359999999999985
 10
3.280000000000001
 20
15.339999999999975
 10
3.299999999999997
 20
15.339999999999975
 10
3.319999999999993
 20
15.339999999999975
 10
3.319999999999993
 20
15.319999999999993
 10
3.3400000000000034
 20
15.319999999999993
 10
3.3599999999999994
 20
15.299999999999983
 10
3.3799999999999955
 20
15.299999999999983
 10
3.4000000000000057
 20
15.279999999999973
 10
3.4200000000000017
 20
15.279999999999973
 10
3.4200000000000017
 20
15.259999999999991
 10
3.4399999999999977
 20
15.259999999999991
 10
3.4599999999999937
 20
15.259999999999991
 10
3.4599999999999937
 20
15.23999999999998
 10
3.480000000000004
 20
15.23999999999998
 10
3.5
 20
15.23999999999998
 10
3.5
 20
15.219999999999999
 10
3.519999999999996
 20
15.219999999999999
 10
3.519999999999996
 20
15.199999999999989
 10
3.5400000000000063
 20
15.199999999999989
 10
3.5600000000000023
 20
15.199999999999989
 10
3.5600000000000023
 20
15.179999999999978
 10
3.5799999999999983
 20
15.179999999999978
 10
3.5999999999999943
 20
15.179999999999978
 10
3.5999999999999943
 20
15.159999999999997
 10
3.6200000000000045
 20
15.159999999999997
 10
3.6400000000000006
 20
15.139999999999986
 10
3.6599999999999966
 20
15.139999999999986
 10
3.6599999999999966
 20
15.119999999999976
 10
3.6799999999999926
 20
15.119999999999976
 10
3.700000000000003
 20
15.119999999999976
 10
3.700000000000003
 20
15.099999999999994
 10
3.719999999999999
 20
15.099999999999994
 10
3.739999999999995
 20
15.099999999999994
 10
3.739999999999995
 20
15.079999999999984
 10
3.760000000000005
 20
15.079999999999984
 10
3.780000000000001
 20
15.079999999999984
 10
3.780000000000001
 20
15.059999999999974
 10
3.799999999999997
 20
15.059999999999974
 10
3.819999999999993
 20
15.059999999999974
 10
3.819999999999993
 20
15.039999999999992
 10
3.8400000000000034
 20
15.039999999999992
 10
3.8599999999999994
 20
15.039999999999992
 10
3.8799999999999955
 20
15.019999999999982
 10
3.9000000000000057
 20
15.019999999999982
 10
3.9200000000000017
 20
15.019999999999982
 10
3.9200000000000017
 20
15.0
 10
3.9399999999999977
 20
15.0
 10
3.9599999999999937
 20
15.0
 10
3.980000000000004
 20
15.0
 10
3.980000000000004
 20
14.97999999999999
 10
4.0
 20
14.97999999999999
 10
4.019999999999996
 20
14.97999999999999
 10
4.040000000000006
 20
14.97999999999999
 10
4.060000000000002
 20
14.97999999999999
 10
4.079999999999998
 20
14.97999999999999
 10
4.079999999999998
 20
14.95999999999998
 10
4.099999999999994
 20
14.95999999999998
 10
4.1200000000000045
 20
14.95999999999998
 10
4.140000000000001
 20
14.95999999999998
 10
4.159999999999997
 20
14.95999999999998
 10
4.179999999999993
 20
14.95999999999998
 10
4.200000000000003
 20
14.95999999999998
 10
4.219999999999999
 20
14.95999999999998
 10
4.239999999999995
 20
14.95999999999998
 10
4.260000000000005
 20
14.95999999999998
 10
4.280000000000001
 20
14.95999999999998
 10
4.299999999999997
 20
14.95999999999998
 10
4.319999999999993
 20
14.95999999999998
 10
4.319999999999993
 20
14.97999999999999
 10
4.340000000000003
 20
14.97999999999999
 10
4.359999999999999
 20
14.97999999999999
 10
4.3799999999999955
 20
14.97999999999999
 10
4.400000000000006
 20
14.97999999999999
 10
4.420000000000002
 20
14.97999999999999
 10
4.420000000000002
 20
15.0
 10
4.439999999999998
 20
15.0
 10
4.459999999999994
 20
15.0
 10
4.480000000000004
 20
15.0
 10
4.480000000000004
 20
15.019999999999982
 10
4.5
 20
15.019999999999982
 10
4.519999999999996
 20
15.019999999999982
 10
4.540000000000006
 20
15.019999999999982
 10
4.540000000000006
 20
15.039999999999992
 10
4.560000000000002
 20
15.039999999999992
 10
4.579999999999998
 20
15.039999999999992
 10
4.579999999999998
 20
15.059999999999974
 10
4.599999999999994
 20
15.059999999999974
 10
4.6200000000000045
 20
15.059999999999974
 10
4.6200000000000045
 20
15.079999999999984
 10
4.640000000000001
 20
15.079999999999984
 10
4.659999999999997
 20
15.079999999999984
 10
4.659999999999997
 20
15.099999999999994
 10
4.679999999999993
 20
15.099999999999994
 10
4.700000000000003
 20
15.099999999999994
 10
4.700000000000003
 20
15.119999999999976
 10
4.719999999999999
 20
15.119999999999976
 10
4.739999999999995
 20
15.119999999999976
 10
4.739999999999995
 20
15.139999999999986
 10
4.980000000000004
 20
15.399999999999977
 10
5.219999999999999
 20
15.659999999999997
 10
5.480000000000004
 20
15.899999999999977
 10
5.760000000000005
 20
16.119999999999976
 10
5.760000000000005
 20
16.139999999999986
 10
5.780000000000001
 20
16.139999999999986
 10
5.780000000000001
 20
16.159999999999997
 10
5.780000000000001
 20
16.17999999999998
 10
5.799999999999997
 20
16.17999999999998
 10
5.799999999999997
 20
16.19999999999999
 10
5.819999999999993
 20
16.19999999999999
 10
5.819999999999993
 20
16.22
 10
5.819999999999993
 20
16.23999999999998
 10
5.840000000000003
 20
16.23999999999998
 10
5.840000000000003
 20
16.25999999999999
 10
5.840000000000003
 20
16.279999999999973
 10
5.859999999999999
 20
16.279999999999973
 10
5.859999999999999
 20
16.299999999999983
 10
5.859999999999999
 20
16.319999999999993
 10
5.8799999999999955
 20
16.319999999999993
 10
5.8799999999999955
 20
16.339999999999975
 10
5.8799999999999955
 20
16.359999999999985
 10
5.8799999999999955
 20
16.379999999999995
 10
5.900000000000006
 20
16.379999999999995
 10
5.900000000000006
 20
16.399999999999977
 10
5.900000000000006
 20
16.419999999999987
 10
5.920000000000002
 20
16.439999999999998
 10
5.920000000000002
 20
16.45999999999998
 10
5.920000000000002
 20
16.47999999999999
 10
5.920000000000002
 20
16.5
 10
5.939999999999998
 20
16.5
 10
5.939999999999998
 20
16.519999999999982
 10
5.939999999999998
 20
16.539999999999992
 10
5.939999999999998
 20
16.559999999999974
 10
5.939999999999998
 20
16.579999999999984
 10
5.939999999999998
 20
16.599999999999994
 10
5.939999999999998
 20
16.619999999999976
 10
5.939999999999998
 20
16.639999999999986
 10
5.939999999999998
 20
16.659999999999997
 10
5.939999999999998
 20
16.67999999999998
 10
5.939999999999998
 20
16.69999999999999
 10
5.939999999999998
 20
16.72
 10
5.939999999999998
 20
16.73999999999998
 10
5.939999999999998
 20
16.75999999999999
 10
5.939999999999998
 20
16.779999999999973
 10
5.939999999999998
 20
16.799999999999983
 10
5.939999999999998
 20
16.819999999999993
 10
5.939999999999998
 20
16.839999999999975
 10
5.939999999999998
 20
16.859999999999985
 10
5.920000000000002
 20
16.859999999999985
 10
5.920000000000002
 20
16.879999999999995
 10
5.920000000000002
 20
16.899999999999977
 10
5.920000000000002
 20
16.919999999999987
 10
5.920000000000002
 20
16.939999999999998
 10
5.900000000000006
 20
16.939999999999998
 10
5.900000000000006
 20
16.95999999999998
 10
5.900000000000006
 20
16.97999999999999
 10
5.8799999999999955
 20
17.0
 10
5.8799999999999955
 20
17.019999999999982
 10
5.8799999999999955
 20
17.039999999999992
 10
5.859999999999999
 20
17.039999999999992
 10
5.859999999999999
 20
17.059999999999974
 10
5.859999999999999
 20
17.079999999999984
 10
5.840000000000003
 20
17.079999999999984
 10
5.840000000000003
 20
17.099999999999994
 10
5.840000000000003
 20
17.119999999999976
 10
5.819999999999993
 20
17.139999999999986
 10
5.819999999999993
 20
17.159999999999997
 10
5.799999999999997
 20
17.17999999999998
 10
5.799999999999997
 20
17.19999999999999
 10
5.780000000000001
 20
17.22
 10
5.780000000000001
 20
17.23999999999998
 10
5.760000000000005
 20
17.25999999999999
 10
5.760000000000005
 20
17.279999999999973
 10
5.739999999999995
 20
17.279999999999973
 10
5.739999999999995
 20
17.299999999999983
 10
5.739999999999995
 20
17.319999999999993
 10
5.719999999999999
 20
17.319999999999993
 10
5.719999999999999
 20
17.339999999999975
 10
5.719999999999999
 20
17.359999999999985
 10
5.700000000000003
 20
17.359999999999985
 10
5.700000000000003
 20
17.379999999999995
 10
5.679999999999993
 20
17.399999999999977
 10
5.679999999999993
 20
17.419999999999987
 10
5.659999999999997
 20
17.439999999999998
 10
5.659999999999997
 20
17.45999999999998
 10
5.640000000000001
 20
17.47999999999999
 10
5.640000000000001
 20
17.5
 10
5.6200000000000045
 20
17.519999999999982
 10
5.6200000000000045
 20
17.539999999999992
 10
5.599999999999994
 20
17.539999999999992
 10
5.599999999999994
 20
17.559999999999974
 10
5.599999999999994
 20
17.579999999999984
 10
5.579999999999998
 20
17.579999999999984
 10
5.579999999999998
 20
17.599999999999994
 10
5.579999999999998
 20
17.619999999999976
 10
5.560000000000002
 20
17.639999999999986
 10
5.560000000000002
 20
17.659999999999997
 10
5.540000000000006
 20
17.67999999999998
 10
5.540000000000006
 20
17.69999999999999
 10
5.540000000000006
 20
17.72
 10
5.519999999999996
 20
17.72
 10
5.519999999999996
 20
17.73999999999998
 10
5.519999999999996
 20
17.75999999999999
 10
5.5
 20
17.75999999999999
 10
5.5
 20
17.779999999999973
 10
5.5
 20
17.799999999999983
 10
5.480000000000004
 20
17.819999999999993
 10
5.480000000000004
 20
17.839999999999975
 10
5.480000000000004
 20
17.859999999999985
 10
5.459999999999994
 20
17.859999999999985
 10
5.459999999999994
 20
17.879999999999995
 10
5.459999999999994
 20
17.899999999999977
 10
5.459999999999994
 20
17.919999999999987
 10
5.439999999999998
 20
17.939999999999998
 10
5.439999999999998
 20
17.95999999999998
 10
5.439999999999998
 20
17.97999999999999
 10
5.420000000000002
 20
18.0
 10
5.420000000000002
 20
18.019999999999982
 10
5.420000000000002
 20
18.039999999999992
 10
5.400000000000006
 20
18.059999999999974
 10
5.400000000000006
 20
18.079999999999984
 10
5.400000000000006
 20
18.099999999999994
 10
5.400000000000006
 20
18.119999999999976
 10
5.3799999999999955
 20
18.139999999999986
 10
5.3799999999999955
 20
18.159999999999997
 10
5.3799999999999955
 20
18.17999999999998
 10
5.3799999999999955
 20
18.19999999999999
 10
5.3799999999999955
 20
18.22
 10
5.359999999999999
 20
18.23999999999998
 10
5.359999999999999
 20
18.25999999999999
 10
5.359999999999999
 20
18.279999999999973
 10
5.359999999999999
 20
18.299999999999983
 10
5.359999999999999
 20
18.319999999999993
 10
5.359999999999999
 20
18.339999999999975
 10
5.340000000000003
 20
18.339999999999975
 10
5.340000000000003
 20
18.359999999999985
 10
5.340000000000003
 20
18.379999999999995
 10
5.340000000000003
 20
18.399999999999977
 10
5.340000000000003
 20
18.419999999999987
 10
5.340000000000003
 20
18.439999999999998
 10
5.340000000000003
 20
18.45999999999998
 10
5.340000000000003
 20
18.47999999999999
 10
5.319999999999993
 20
18.5
 10
5.319999999999993
 20
18.519999999999982
 10
5.319999999999993
 20
18.539999999999992
 10
5.319999999999993
 20
18.559999999999974
 10
5.319999999999993
 20
18.579999999999984
 10
5.319999999999993
 20
18.599999999999994
 10
5.319999999999993
 20
18.619999999999976
 10
5.319999999999993
 20
18.639999999999986
 10
5.319999999999993
 20
18.659999999999997
 10
5.319999999999993
 20
18.67999999999998
 10
5.319999999999993
 20
18.69999999999999
 10
5.319999999999993
 20
18.72
 10
5.319999999999993
 20
18.73999999999998
 10
5.319999999999993
 20
18.75999999999999
 10
5.319999999999993
 20
18.779999999999973
 10
5.319999999999993
 20
18.799999999999983
 10
5.319999999999993
 20
18.819999999999993
 10
5.319999999999993
 20
18.839999999999975
 10
5.319999999999993
 20
18.859999999999985
 10
5.319999999999993
 20
18.879999999999995
 10
5.319999999999993
 20
18.899999999999977
 10
5.319999999999993
 20
18.919999999999987
 10
5.319999999999993
 20
18.939999999999998
 10
5.319999999999993
 20
18.95999999999998
 10
5.319999999999993
 20
18.97999999999999
 10
5.319999999999993
 20
19.0
 10
5.319999999999993
 20
19.019999999999982
 10
5.319999999999993
 20
19.039999999999992
 10
5.319999999999993
 20
19.059999999999974
 10
5.319999999999993
 20
19.079999999999984
 10
5.319999999999993
 20
19.099999999999994
 10
5.319999999999993
 20
19.119999999999976
 10
5.319999999999993
 20
19.139999999999986
 10
5.319999999999993
 20
19.159999999999997
 10
5.319999999999993
 20
19.17999999999998
 10
5.319999999999993
 20
19.19999999999999
 10
5.340000000000003
 20
19.22
 10
5.340000000000003
 20
19.23999999999998
 10
5.340000000000003
 20
19.25999999999999
 10
5.340000000000003
 20
19.279999999999973
 10
5.340000000000003
 20
19.299999999999983
 10
5.340000000000003
 20
19.319999999999993
 10
5.340000000000003
 20
19.339999999999975
 10
5.340000000000003
 20
19.359999999999985
 10
5.340000000000003
 20
19.379999999999995
 10
5.340000000000003
 20
19.399999999999977
 10
5.359999999999999
 20
19.399999999999977
 10
5.359999999999999
 20
19.419999999999987
 10
5.359999999999999
 20
19.439999999999998
 10
5.359999999999999
 20
19.45999999999998
 10
5.359999999999999
 20
19.47999999999999
 10
5.359999999999999
 20
19.5
 10
5.359999999999999
 20
19.519999999999982
 10
5.359999999999999
 20
19.539999999999992
 10
5.359999999999999
 20
19.559999999999974
 10
5.3799999999999955
 20
19.559999999999974
 10
5.3799999999999955
 20
19.579999999999984
 10
5.3799999999999955
 20
19.599999999999994
 10
5.3799999999999955
 20
19.619999999999976
 10
5.3799999999999955
 20
19.639999999999986
 10
5.3799999999999955
 20
19.659999999999997
 10
5.3799999999999955
 20
19.67999999999998
 10
5.400000000000006
 20
19.69999999999999
 10
5.400000000000006
 20
19.72
 10
5.400000000000006
 20
19.73999999999998
 10
5.400000000000006
 20
19.75999999999999
 10
5.400000000000006
 20
19.779999999999973
 10
5.400000000000006
 20
19.799999999999983
 10
5.420000000000002
 20
19.819999999999993
 10
5.420000000000002
 20
19.839999999999975
 10
5.420000000000002
 20
19.859999999999985
 10
5.420000000000002
 20
19.879999999999995
 10
5.420000000000002
 20
19.899999999999977
 10
5.420000000000002
 20
19.919999999999987
 10
5.439999999999998
 20
19.919999999999987
 10
5.439999999999998
 20
19.939999999999998
 10
5.439999999999998
 20
19.95999999999998
 10
6.3799999999999955
 20
20.399999999999977
 10
7.359999999999999
 20
20.72
 10
7.3799999999999955
 20
20.72
 10
7.3799999999999955
 20
20.69999999999999
 10
7.400000000000006
 20
20.69999999999999
 10
7.420000000000002
 20
20.67999999999998
 10
7.439999999999998
 20
20.67999999999998
 10
7.439999999999998
 20
20.659999999999997
 10
7.459999999999994
 20
20.659999999999997
 10
7.459999999999994
 20
20.639999999999986
 10
7.480000000000004
 20
20.639999999999986
 10
7.5
 20
20.619999999999976
 10
7.519999999999996
 20
20.599999999999994
 10
7.540000000000006
 20
20.599999999999994
 10
7.540000000000006
 20
20.579999999999984
 10
7.560000000000002
 20
20.579999999999984
 10
7.579999999999998
 20
20.559999999999974
 10
7.599999999999994
 20
20.559999999999974
 10
7.599999999999994
 20
20.539999999999992
 10
7.6200000000000045
 20
20.539999999999992
 10
7.6200000000000045
 20
20.519999999999982
 10
7.640000000000001
 20
20.519999999999982
 10
7.640000000000001
 20
20.5
 10
7.659999999999997
 20
20.5
 10
7.679999999999993
 20
20.5
 10
7.679999999999993
 20
20.47999999999999
 10
7.700000000000003
 20
20.47999999999999
 10
7.700000000000003
 20
20.45999999999998
 10
7.719999999999999
 20
20.45999999999998
 10
7.719999999999999
 20
20.439999999999998
 10
7.739999999999995
 20
20.439999999999998
 10
7.739999999999995
 20
20.419999999999987
 10
7.760000000000005
 20
20.419999999999987
 10
7.780000000000001
 20
20.399999999999977
 10
7.799999999999997
 20
20.379999999999995
 10
7.819999999999993
 20
20.379999999999995
 10
7.819999999999993
 20
20.359999999999985
 10
7.840000000000003
 20
20.359999999999985
 10
7.840000000000003
 20
20.339999999999975
 10
7.859999999999999
 20
20.339999999999975
 10
7.8799999999999955
 20
20.319999999999993
 10
7.900000000000006
 20
20.299999999999983
 10
7.920000000000002
 20
20.299999999999983
 10
7.920000000000002
 20
20.279999999999973
 10
7.939999999999998
 20
20.25999999999999
 10
7.959999999999994
 20
20.25999999999999
 10
7.959999999999994
 20
20.23999999999998
 10
7.980000000000004
 20
20.23999999999998
 10
7.980000000000004
 20
20.22
 10
8.0
 20
20.22
 10
8.0
 20
20.19999999999999
 10
8.019999999999996
 20
20.19999999999999
 10
8.019999999999996
 20
20.17999999999998
 10
8.040000000000006
 20
20.17999999999998
 10
8.040000000000006
 20
20.159999999999997
 10
8.060000000000002
 20
20.159999999999997
 10
8.060000000000002
 20
20.139999999999986
 10
8.079999999999998
 20
20.139999999999986
 10
8.079999999999998
 20
20.119999999999976
 10
8.099999999999994
 20
20.119999999999976
 10
8.099999999999994
 20
20.099999999999994
 10
8.120000000000005
 20
20.099999999999994
 10
8.120000000000005
 20
20.079999999999984
 10
8.14
 20
20.079999999999984
 10
8.14
 20
20.059999999999974
 10
8.159999999999997
 20
20.059999999999974
 10
8.159999999999997
 20
20.039999999999992
 10
8.179999999999993
 20
20.039999999999992
 10
8.179999999999993
 20
20.019999999999982
 10
8.200000000000003
 20
20.019999999999982
 10
8.200000000000003
 20
20.0
 10
8.219999999999999
 20
20.0
 10
8.219999999999999
 20
19.97999999999999
 10
8.239999999999995
 20
19.97999999999999
 10
8.239999999999995
 20
19.95999999999998
 10
8.260000000000005
 20
19.95999999999998
 10
8.260000000000005
 20
19.939999999999998
 10
8.280000000000001
 20
19.939999999999998
 10
8.280000000000001
 20
19.919999999999987
 10
8.299999999999997
 20
19.899999999999977
 10
8.319999999999993
 20
19.879999999999995
 10
8.340000000000003
 20
19.859999999999985
 10
8.36
 20
19.839999999999975
 10
8.379999999999995
 20
19.819999999999993
 10
8.400000000000006
 20
19.799999999999983
 10
8.400000000000006
 20
19.779999999999973
 10
8.420000000000002
 20
19.75999999999999
 10
8.439999999999998
 20
19.73999999999998
 10
8.459999999999994
 20
19.72
 10
8.459999999999994
 20
19.69999999999999
 10
8.480000000000004
 20
19.67999999999998
 10
8.5
 20
19.659999999999997
 10
8.5
 20
19.639999999999986
 10
8.519999999999996
 20
19.639999999999986
 10
8.519999999999996
 20
19.619999999999976
 10
8.540000000000006
 20
19.619999999999976
 10
8.540000000000006
 20
19.599999999999994
 10
8.540000000000006
 20
19.579999999999984
 10
8.560000000000002
 20
19.579999999999984
 10
8.560000000000002
 20
19.559999999999974
 10
8.579999999999998
 20
19.539999999999992
 10
8.599999999999994
 20
19.519999999999982
 10
8.599999999999994
 20
19.5
 10
8.620000000000005
 20
19.47999999999999
 10
8.620000000000005
 20
19.45999999999998
 10
8.64
 20
19.45999999999998
 10
8.64
 20
19.439999999999998
 10
8.659999999999997
 20
19.419999999999987
 10
8.659999999999997
 20
19.399999999999977
 10
8.679999999999993
 20
19.379999999999995
 10
8.679999999999993
 20
19.359999999999985
 10
8.700000000000003
 20
19.339999999999975
 10
8.700000000000003
 20
19.319999999999993
 10
8.719999999999999
 20
19.299999999999983
 10
8.719999999999999
 20
19.279999999999973
 10
8.739999999999995
 20
19.25999999999999
 10
8.739999999999995
 20
19.23999999999998
 10
8.760000000000005
 20
19.22
 10
8.760000000000005
 20
19.19999999999999
 10
8.780000000000001
 20
19.17999999999998
 10
8.780000000000001
 20
19.159999999999997
 10
8.780000000000001
 20
19.139999999999986
 10
8.799999999999997
 20
19.139999999999986
 10
8.799999999999997
 20
19.119999999999976
 10
8.799999999999997
 20
19.099999999999994
 10
8.819999999999993
 20
19.079999999999984
 10
8.819999999999993
 20
19.059999999999974
 10
8.819999999999993
 20
19.039999999999992
 10
8.840000000000003
 20
19.019999999999982
 10
8.840000000000003
 20
19.0
 10
8.840000000000003
 20
18.97999999999999
 10
8.86
 20
18.97999999999999
 10
8.86
 20
18.95999999999998
 10
8.86
 20
18.939999999999998
 10
8.86
 20
18.919999999999987
 10
8.879999999999995
 20
18.919999999999987
 10
8.879999999999995
 20
18.899999999999977
 10
8.879999999999995
 20
18.879999999999995
 10
8.879999999999995
 20
18.859999999999985
 10
8.900000000000006
 20
18.839999999999975
 10
8.900000000000006
 20
18.819999999999993
 10
8.900000000000006
 20
18.799999999999983
 10
8.900000000000006
 20
18.779999999999973
 10
8.920000000000002
 20
18.779999999999973
 10
8.920000000000002
 20
18.75999999999999
 10
8.920000000000002
 20
18.73999999999998
 10
8.920000000000002
 20
18.72
 10
8.939999999999998
 20
18.69999999999999
 10
8.939999999999998
 20
18.67999999999998
 10
8.939999999999998
 20
18.659999999999997
 10
8.939999999999998
 20
18.639999999999986
 10
8.959999999999994
 20
18.619999999999976
 10
8.959999999999994
 20
18.599999999999994
 10
8.959999999999994
 20
18.579999999999984
 10
8.959999999999994
 20
18.559999999999974
 10
8.980000000000004
 20
18.559999999999974
 10
8.980000000000004
 20
18.539999999999992
 10
8.980000000000004
 20
18.519999999999982
 10
8.980000000000004
 20
18.5
 10
8.980000000000004
 20
18.47999999999999
 10
9.0
 20
18.47999999999999
 10
9.0
 20
18.45999999999998
 10
9.0
 20
18.439999999999998
 10
9.0
 20
18.419999999999987
 10
9.019999999999996
 20
18.399999999999977
 10
9.019999999999996
 20
18.379999999999995
 10
9.019999999999996
 20
18.359999999999985
 10
9.040000000000006
 20
18.339999999999975
 10
9.040000000000006
 20
18.319999999999993
 10
9.040000000000006
 20
18.299999999999983
 10
9.060000000000002
 20
18.299999999999983
 10
9.060000000000002
 20
18.279999999999973
 10
9.060000000000002
 20
18.25999999999999
 10
9.060000000000002
 20
18.23999999999998
 10
9.079999999999998
 20
18.23999999999998
 10
9.079999999999998
 20
18.22
 10
9.079999999999998
 20
18.19999999999999
 10
9.099999999999994
 20
18.19999999999999
 10
9.099999999999994
 20
18.17999999999998
 10
9.099999999999994
 20
18.159999999999997
 10
9.120000000000005
 20
18.159999999999997
 10
9.120000000000005
 20
18.139999999999986
 10
9.120000000000005
 20
18.119999999999976
 10
9.14
 20
18.119999999999976
 10
9.14
 20
18.099999999999994
 10
9.159999999999997
 20
18.099999999999994
 10
9.159999999999997
 20
18.079999999999984
 10
9.159999999999997
 20
18.059999999999974
 10
9.179999999999993
 20
18.059999999999974
 10
9.179999999999993
 20
18.039999999999992
 10
9.200000000000003
 20
18.039999999999992
 10
9.200000000000003
 20
18.019999999999982
 10
9.219999999999999
 20
18.019999999999982
 10
9.219999999999999
 20
18.0
 10
9.239999999999995
 20
17.97999999999999
 10
9.239999999999995
 20
17.95999999999998
 10
9.260000000000005
 20
17.95999999999998
 10
9.260000000000005
 20
17.939999999999998
 10
9.280000000000001
 20
17.939999999999998
 10
9.299999999999997
 20
17.919999999999987
 10
9.319999999999993
 20
17.919999999999987
 10
9.319999999999993
 20
17.899999999999977
 10
9.340000000000003
 20
17.899999999999977
 10
9.340000000000003
 20
17.879999999999995
 10
9.36
 20
17.879999999999995
 10
9.36
 20
17.859999999999985
 10
9.379999999999995
 20
17.859999999999985
 10
9.400000000000006
 20
17.859999999999985
 10
9.400000000000006
 20
17.839999999999975
 10
9.420000000000002
 20
17.839999999999975
 10
9.439999999999998
 20
17.819999999999993
 10
9.459999999999994
 20
17.819999999999993
 10
9.459999999999994
 20
17.799999999999983
 10
9.480000000000004
 20
17.799999999999983
 10
9.5
 20
17.799999999999983
 10
9.5
 20
17.779999999999973
 10
9.519999999999996
 20
17.779999999999973
 10
9.540000000000006
 20
17.779999999999973
 10
9.560000000000002
 20
17.779999999999973
 10
9.560000000000002
 20
17.75999999999999
 10
9.579999999999998
 20
17.75999999999999
 10
9.599999999999994
 20
17.75999999999999
 10
9.599999999999994
 20
17.73999999999998
 10
9.620000000000005
 20
17.73999999999998
 10
9.64
 20
17.73999999999998
 10
9.659999999999997
 20
17.73999999999998
 10
9.659999999999997
 20
17.72
 10
9.679999999999993
 20
17.72
 10
9.700000000000003
 20
17.72
 10
9.719999999999999
 20
17.72
 10
9.739999999999995
 20
17.72
 10
9.739999999999995
 20
17.69999999999999
 10
9.760000000000005
 20
17.69999999999999
 10
10.120000000000005
 20
17.72
 10
10.459999999999994
 20
17.72
 10
10.819999999999993
 20
17.72
 10
11.179999999999993
 20
17.67999999999998
 10
11.200000000000003
 20
17.67999999999998
 10
11.200000000000003
 20
17.69999999999999
 10
11.219999999999999
 20
17.69999999999999
 10
11.239999999999995
 20
17.69999999999999
 10
11.260000000000005
 20
17.69999999999999
 10
11.280000000000001
 20
17.69999999999999
 10
11.280000000000001
 20
17.72
 10
11.299999999999997
 20
17.72
 10
11.319999999999993
 20
17.72
 10
11.340000000000003
 20
17.72
 10
11.36
 20
17.73999999999998
 10
11.379999999999995
 20
17.73999999999998
 10
11.400000000000006
 20
17.73999999999998
 10
11.400000000000006
 20
17.75999999999999
 10
11.420000000000002
 20
17.75999999999999
 10
11.439999999999998
 20
17.75999999999999
 10
11.459999999999994
 20
17.75999999999999
 10
11.459999999999994
 20
17.779999999999973
 10
11.480000000000004
 20
17.779999999999973
 10
11.5
 20
17.779999999999973
 10
11.5
 20
17.799999999999983
 10
11.519999999999996
 20
17.799999999999983
 10
11.540000000000006
 20
17.819999999999993
 10
11.560000000000002
 20
17.819999999999993
 10
11.560000000000002
 20
17.839999999999975
 10
11.579999999999998
 20
17.839999999999975
 10
11.599999999999994
 20
17.839999999999975
 10
11.599999999999994
 20
17.859999999999985
 10
11.620000000000005
 20
17.859999999999985
 10
11.620000000000005
 20
17.879999999999995
 10
11.64
 20
17.879999999999995
 10
11.659999999999997
 20
17.899999999999977
 10
11.679999999999993
 20
17.899999999999977
 10
11.679999999999993
 20
17.919999999999987
 10
11.700000000000003
 20
17.919999999999987
 10
11.700000000000003
 20
17.939999999999998
 10
11.719999999999999
 20
17.939999999999998
 10
11.719999999999999
 20
17.95999999999998
 10
11.739999999999995
 20
17.95999999999998
 10
11.739999999999995
 20
17.97999999999999
 10
11.760000000000005
 20
18.0
 10
11.760000000000005
 20
18.019999999999982
 10
11.780000000000001
 20
18.019999999999982
 10
11.780000000000001
 20
18.039999999999992
 10
11.799999999999997
 20
18.039999999999992
 10
11.799999999999997
 20
18.059999999999974
 10
11.819999999999993
 20
18.079999999999984
 10
11.819999999999993
 20
18.099999999999994
 10
11.840000000000003
 20
18.099999999999994
 10
11.840000000000003
 20
18.119999999999976
 10
11.840000000000003
 20
18.139999999999986
 10
11.86
 20
18.139999999999986
 10
11.86
 20
18.159999999999997
 10
11.86
 20
18.17999999999998
 10
11.879999999999995
 20
18.17999999999998
 10
11.879999999999995
 20
18.19999999999999
 10
11.879999999999995
 20
18.22
 10
11.900000000000006
 20
18.22
 10
11.900000000000006
 20
18.23999999999998
 10
11.900000000000006
 20
18.25999999999999
 10
11.920000000000002
 20
18.25999999999999
 10
11.920000000000002
 20
18.279999999999973
 10
11.920000000000002
 20
18.299999999999983
 10
11.920000000000002
 20
18.319999999999993
 10
11.939999999999998
 20
18.319999999999993
 10
11.939999999999998
 20
18.339999999999975
 10
11.939999999999998
 20
18.359999999999985
 10
11.939999999999998
 20
18.379999999999995
 10
11.959999999999994
 20
18.379999999999995
 10
11.959999999999994
 20
18.399999999999977
 10
11.959999999999994
 20
18.419999999999987
 10
11.959999999999994
 20
18.439999999999998
 10
11.980000000000004
 20
18.439999999999998
 10
11.980000000000004
 20
18.45999999999998
 10
11.980000000000004
 20
18.47999999999999
 10
11.980000000000004
 20
18.5
 10
12.0
 20
18.5
 10
12.0
 20
18.519999999999982
 10
12.0
 20
18.539999999999992
 10
12.0
 20
18.559999999999974
 10
12.019999999999996
 20
18.579999999999984
 10
12.019999999999996
 20
18.599999999999994
 10
12.019999999999996
 20
18.619999999999976
 10
12.019999999999996
 20
18.639999999999986
 10
12.040000000000006
 20
18.639999999999986
 10
12.040000000000006
 20
18.659999999999997
 10
12.040000000000006
 20
18.67999999999998
 10
12.040000000000006
 20
18.69999999999999
 10
12.060000000000002
 20
18.69999999999999
 10
12.060000000000002
 20
18.72
 10
12.060000000000002
 20
18.73999999999998
 10
12.060000000000002
 20
18.75999999999999
 10
12.079999999999998
 20
18.779999999999973
 10
12.079999999999998
 20
18.799999999999983
 10
12.079999999999998
 20
18.819999999999993
 10
12.099999999999994
 20
18.839999999999975
 10
12.099999999999994
 20
18.859999999999985
 10
12.099999999999994
 20
18.879999999999995
 10
12.120000000000005
 20
18.899999999999977
 10
12.120000000000005
 20
18.919999999999987
 10
12.120000000000005
 20
18.939999999999998
 10
12.14
 20
18.939999999999998
 10
12.14
 20
18.95999999999998
 10
12.14
 20
18.97999999999999
 10
12.14
 20
19.0
 10
12.159999999999997
 20
19.0
 10
12.159999999999997
 20
19.019999999999982
 10
12.159999999999997
 20
19.039999999999992
 10
12.179999999999993
 20
19.039999999999992
 10
12.179999999999993
 20
19.059999999999974
 10
12.179999999999993
 20
19.079999999999984
 10
12.200000000000003
 20
19.099999999999994
 10
12.200000000000003
 20
19.119999999999976
 10
12.219999999999999
 20
19.139999999999986
 10
12.219999999999999
 20
19.159999999999997
 10
12.239999999999995
 20
19.17999999999998
 10
12.239999999999995
 20
19.19999999999999
 10
12.260000000000005
 20
19.22
 10
12.260000000000005
 20
19.23999999999998
 10
12.280000000000001
 20
19.25999999999999
 10
12.280000000000001
 20
19.279999999999973
 10
12.299999999999997
 20
19.279999999999973
 10
12.299999999999997
 20
19.299999999999983
 10
12.299999999999997
 20
19.319999999999993
 10
12.319999999999993
 20
19.319999999999993
 10
12.319999999999993
 20
19.339999999999975
 10
12.340000000000003
 20
19.359999999999985
 10
12.340000000000003
 20
19.379999999999995
 10
12.36
 20
19.399999999999977
 10
12.36
 20
19.419999999999987
 10
12.379999999999995
 20
19.419999999999987
 10
12.379999999999995
 20
19.439999999999998
 10
12.400000000000006
 20
19.45999999999998
 10
12.400000000000006
 20
19.47999999999999
 10
12.420000000000002
 20
19.47999999999999
 10
12.420000000000002
 20
19.5
 10
12.439999999999998
 20
19.5
 10
12.439999999999998
 20
19.519999999999982
 10
12.459999999999994
 20
19.539999999999992
 10
12.459999999999994
 20
19.559999999999974
 10
12.480000000000004
 20
19.579999999999984
 10
12.5
 20
19.599999999999994
 10
12.519999999999996
 20
19.619999999999976
 10
12.519999999999996
 20
19.639999999999986
 10
12.540000000000006
 20
19.639999999999986
 10
12.540000000000006
 20
19.659999999999997
 10
12.560000000000002
 20
19.659999999999997
 10
12.560000000000002
 20
19.67999999999998
 10
12.579999999999998
 20
19.67999999999998
 10
12.579999999999998
 20
19.69999999999999
 10
12.599999999999994
 20
19.72
 10
12.599999999999994
 20
19.73999999999998
 10
12.620000000000005
 20
19.73999999999998
 10
12.620000000000005
 20
19.75999999999999
 10
12.64
 20
19.75999999999999
 10
12.64
 20
19.779999999999973
 10
12.659999999999997
 20
19.779999999999973
 10
12.659999999999997
 20
19.799999999999983
 10
12.679999999999993
 20
19.799999999999983
 10
12.679999999999993
 20
19.819999999999993
 10
12.700000000000003
 20
19.819999999999993
 10
12.700000000000003
 20
19.839999999999975
 10
12.719999999999999
 20
19.839999999999975
 10
12.719999999999999
 20
19.859999999999985
 10
12.739999999999995
 20
19.859999999999985
 10
12.739999999999995
 20
19.879999999999995
 10
12.760000000000005
 20
19.879999999999995
 10
12.760000000000005
 20
19.899999999999977
 10
12.780000000000001
 20
19.899999999999977
 10
12.780000000000001
 20
19.919999999999987
 10
12.799999999999997
 20
19.939999999999998
 10
12.819999999999993
 20
19.95999999999998
 10
12.840000000000003
 20
19.97999999999999
 10
12.86
 20
20.0
 10
12.879999999999995
 20
20.019999999999982
 10
12.900000000000006
 20
20.019999999999982
 10
12.900000000000006
 20
20.039999999999992
 10
12.920000000000002
 20
20.039999999999992
 10
12.939999999999998
 20
20.059999999999974
 10
12.959999999999994
 20
20.079999999999984
 10
12.980000000000004
 20
20.099999999999994
 10
13.0
 20
20.119999999999976
 10
13.019999999999996
 20
20.139999999999986
 10
13.040000000000006
 20
20.139999999999986
 10
13.040000000000006
 20
20.159999999999997
 10
13.060000000000002
 20
20.17999999999998
 10
13.079999999999998
 20
20.17999999999998
 10
13.079999999999998
 20
20.19999999999999
 10
13.099999999999994
 20
20.19999999999999
 10
13.120000000000005
 20
20.22
 10
13.14
 20
20.23999999999998
 10
13.159999999999997
 20
20.23999999999998
 10
13.159999999999997
 20
20.25999999999999
 10
13.179999999999993
 20
20.25999999999999
 10
13.179999999999993
 20
20.279999999999973
 10
13.200000000000003
 20
20.279999999999973
 10
13.219999999999999
 20
20.299999999999983
 10
13.239999999999995
 20
20.299999999999983
 10
13.239999999999995
 20
20.319999999999993
 10
13.260000000000005
 20
20.319999999999993
 10
13.260000000000005
 20
20.339999999999975
 10
13.280000000000001
 20
20.339999999999975
 10
13.299999999999997
 20
20.359999999999985
 10
13.299999999999997
 20
20.379999999999995
 10
13.319999999999993
 20
20.379999999999995
 10
13.340000000000003
 20
20.399999999999977
 10
13.36
 20
20.399999999999977
 10
13.36
 20
20.419999999999987
 10
13.379999999999995
 20
20.419999999999987
 10
13.400000000000006
 20
20.439999999999998
 10
13.420000000000002
 20
20.45999999999998
 10
13.439999999999998
 20
20.45999999999998
 10
13.439999999999998
 20
20.47999999999999
 10
13.459999999999994
 20
20.47999999999999
 10
13.480000000000004
 20
20.5
 10
13.5
 20
20.5
 10
13.5
 20
20.519999999999982
 10
13.519999999999996
 20
20.519999999999982
 10
13.540000000000006
 20
20.539999999999992
 10
13.560000000000002
 20
20.539999999999992
 10
13.560000000000002
 20
20.559999999999974
 10
13.579999999999998
 20
20.559999999999974
 10
13.579999999999998
 20
20.579999999999984
 10
13.599999999999994
 20
20.579999999999984
 10
13.620000000000005
 20
20.579999999999984
 10
13.620000000000005
 20
20.599999999999994
 10
13.64
 20
20.599999999999994
 10
13.64
 20
20.619999999999976
 10
13.659999999999997
 20
20.619999999999976
 10
14.64
 20
20.25999999999999
 10
15.560000000000002
 20
19.799999999999983
 10
15.560000000000002
 20
19.779999999999973
 10
15.560000000000002
 20
19.75999999999999
 10
15.579999999999998
 20
19.75999999999999
 10
15.579999999999998
 20
19.73999999999998
 10
15.579999999999998
 20
19.72
 10
15.579999999999998
 20
19.69999999999999
 10
15.579999999999998
 20
19.67999999999998
 10
15.579999999999998
 20
19.659999999999997
 10
15.579999999999998
 20
19.639999999999986
 10
15.599999999999994
 20
19.639999999999986
 10
15.599999999999994
 20
19.619999999999976
 10
15.599999999999994
 20
19.599999999999994
 10
15.599999999999994
 20
19.579999999999984
 10
15.599999999999994
 20
19.559999999999974
 10
15.599999999999994
 20
19.539999999999992
 10
15.599999999999994
 20
19.519999999999982
 10
15.599999999999994
 20
19.5
 10
15.620000000000005
 20
19.47999999999999
 10
15.620000000000005
 20
19.45999999999998
 10
15.620000000000005
 20
19.439999999999998
 10
15.620000000000005
 20
19.419999999999987
 10
15.620000000000005
 20
19.399999999999977
 10
15.620000000000005
 20
19.379999999999995
 10
15.620000000000005
 20
19.359999999999985
 10
15.620000000000005
 20
19.339999999999975
 10
15.620000000000005
 20
19.319999999999993
 10
15.620000000000005
 20
19.299999999999983
 10
15.64
 20
19.299999999999983
 10
15.64
 20
19.279999999999973
 10
15.64
 20
19.25999999999999
 10
15.64
 20
19.23999999999998
 10
15.64
 20
19.22
 10
15.64
 20
19.19999999999999
 10
15.64
 20
19.17999999999998
 10
15.64
 20
19.159999999999997
 10
15.64
 20
19.139999999999986
 10
15.64
 20
19.119999999999976
 10
15.64
 20
19.099999999999994
 10
15.64
 20
19.079999999999984
 10
15.64
 20
19.059999999999974
 10
15.64
 20
19.039999999999992
 10
15.659999999999997
 20
19.019999999999982
 10
15.659999999999997
 20
19.0
 10
15.659999999999997
 20
18.97999999999999
 10
15.659999999999997
 20
18.95999999999998
 10
15.659999999999997
 20
18.939999999999998
 10
15.659999999999997
 20
18.919999999999987
 10
15.659999999999997
 20
18.899999999999977
 10
15.659999999999997
 20
18.879999999999995
 10
15.659999999999997
 20
18.859999999999985
 10
15.659999999999997
 20
18.839999999999975
 10
15.659999999999997
 20
18.819999999999993
 10
15.659999999999997
 20
18.799999999999983
 10
15.659999999999997
 20
18.779999999999973
 10
15.659999999999997
 20
18.75999999999999
 10
15.659999999999997
 20
18.73999999999998
 10
15.659999999999997
 20
18.72
 10
15.659999999999997
 20
18.69999999999999
 10
15.659999999999997
 20
18.67999999999998
 10
15.659999999999997
 20
18.659999999999997
 10
15.659999999999997
 20
18.639999999999986
 10
15.659999999999997
 20
18.619999999999976
 10
15.659999999999997
 20
18.599999999999994
 10
15.64
 20
18.579999999999984
 10
15.64
 20
18.559999999999974
 10
15.64
 20
18.539999999999992
 10
15.64
 20
18.519999999999982
 10
15.64
 20
18.5
 10
15.64
 20
18.47999999999999
 10
15.64
 20
18.45999999999998
 10
15.64
 20
18.439999999999998
 10
15.64
 20
18.419999999999987
 10
15.64
 20
18.399999999999977
 10
15.64
 20
18.379999999999995
 10
15.64
 20
18.359999999999985
 10
15.620000000000005
 20
18.359999999999985
 10
15.620000000000005
 20
18.339999999999975
 10
15.620000000000005
 20
18.319999999999993
 10
15.620000000000005
 20
18.299999999999983
 10
15.620000000000005
 20
18.279999999999973
 10
15.620000000000005
 20
18.25999999999999
 10
15.620000000000005
 20
18.23999999999998
 10
15.620000000000005
 20
18.22
 10
15.599999999999994
 20
18.22
 10
15.599999999999994
 20
18.19999999999999
 10
15.599999999999994
 20
18.17999999999998
 10
15.599999999999994
 20
18.159999999999997
 10
15.599999999999994
 20
18.139999999999986
 10
15.599999999999994
 20
18.119999999999976
 10
15.579999999999998
 20
18.119999999999976
 10
15.579999999999998
 20
18.099999999999994
 10
15.579999999999998
 20
18.079999999999984
 10
15.579999999999998
 20
18.059999999999974
 10
15.579999999999998
 20
18.039999999999992
 10
15.579999999999998
 20
18.019999999999982
 10
15.560000000000002
 20
18.019999999999982
 10
15.560000000000002
 20
18.0
 10
15.560000000000002
 20
17.97999999999999
 10
15.560000000000002
 20
17.95999999999998
 10
15.540000000000006
 20
17.939999999999998
 10
15.540000000000006
 20
17.919999999999987
 10
15.540000000000006
 20
17.899999999999977
 10
15.540000000000006
 20
17.879999999999995
 10
15.519999999999996
 20
17.879999999999995
 10
15.519999999999996
 20
17.859999999999985
 10
15.519999999999996
 20
17.839999999999975
 10
15.519999999999996
 20
17.819999999999993
 10
15.5
 20
17.819999999999993
 10
15.5
 20
17.799999999999983
 10
15.5
 20
17.779999999999973
 10
15.480000000000004
 20
17.75999999999999
 10
15.480000000000004
 20
17.73999999999998
 10
15.480000000000004
 20
17.72
 10
15.459999999999994
 20
17.69999999999999
 10
15.459999999999994
 20
17.67999999999998
 10
15.459999999999994
 20
17.659999999999997
 10
15.439999999999998
 20
17.659999999999997
 10
15.439999999999998
 20
17.639999999999986
 10
15.439999999999998
 20
17.619999999999976
 10
15.420000000000002
 20
17.619999999999976
 10
15.420000000000002
 20
17.599999999999994
 10
15.420000000000002
 20
17.579999999999984
 10
15.400000000000006
 20
17.579999999999984
 10
15.400000000000006
 20
17.559999999999974
 10
15.400000000000006
 20
17.539999999999992
 10
15.379999999999995
 20
17.519999999999982
 10
15.379999999999995
 20
17.5
 10
15.36
 20
17.47999999999999
 10
15.36
 20
17.45999999999998
 10
15.340000000000003
 20
17.439999999999998
 10
15.340000000000003
 20
17.419999999999987
 10
15.319999999999993
 20
17.419999999999987
 10
15.319999999999993
 20
17.399999999999977
 10
15.319999999999993
 20
17.379999999999995
 10
15.299999999999997
 20
17.379999999999995
 10
15.299999999999997
 20
17.359999999999985
 10
15.299999999999997
 20
17.339999999999975
 10
15.280000000000001
 20
17.339999999999975
 10
15.280000000000001
 20
17.319999999999993
 10
15.260000000000005
 20
17.299999999999983
 10
15.260000000000005
 20
17.279999999999973
 10
15.239999999999995
 20
17.25999999999999
 10
15.239999999999995
 20
17.23999999999998
 10
15.219999999999999
 20
17.23999999999998
 10
15.219999999999999
 20
17.22
 10
15.200000000000003
 20
17.19999999999999
 10
15.200000000000003
 20
17.17999999999998
 10
15.179999999999993
 20
17.17999999999998
 10
15.179999999999993
 20
17.159999999999997
 10
15.179999999999993
 20
17.139999999999986
 10
15.159999999999997
 20
17.139999999999986
 10
15.159999999999997
 20
17.119999999999976
 10
15.159999999999997
 20
17.099999999999994
 10
15.14
 20
17.099999999999994
 10
15.14
 20
17.079999999999984
 10
15.120000000000005
 20
17.059999999999974
 10
15.120000000000005
 20
17.039999999999992
 10
15.099999999999994
 20
17.019999999999982
 10
15.099999999999994
 20
17.0
 10
15.079999999999998
 20
17.0
 10
15.079999999999998
 20
16.97999999999999
 10
15.079999999999998
 20
16.95999999999998
 10
15.060000000000002
 20
16.95999999999998
 10
15.060000000000002
 20
16.939999999999998
 10
15.060000000000002
 20
16.919999999999987
 10
15.040000000000006
 20
16.919999999999987
 10
15.040000000000006
 20
16.899999999999977
 10
15.040000000000006
 20
16.879999999999995
 10
15.019999999999996
 20
16.859999999999985
 10
15.019999999999996
 20
16.839999999999975
 10
15.019999999999996
 20
16.819999999999993
 10
15.0
 20
16.819999999999993
 10
15.0
 20
16.799999999999983
 10
15.0
 20
16.779999999999973
 10
15.0
 20
16.75999999999999
 10
14.980000000000004
 20
16.75999999999999
 10
14.980000000000004
 20
16.73999999999998
 10
14.980000000000004
 20
16.72
 10
14.980000000000004
 20
16.69999999999999
 10
14.980000000000004
 20
16.67999999999998
 10
14.959999999999994
 20
16.67999999999998
 10
14.959999999999994
 20
16.659999999999997
 10
14.959999999999994
 20
16.639999999999986
 10
14.959999999999994
 20
16.619999999999976
 10
14.959999999999994
 20
16.599999999999994
 10
14.959999999999994
 20
16.579999999999984
 10
14.959999999999994
 20
16.559999999999974
 10
14.959999999999994
 20
16.539999999999992
 10
14.959999999999994
 20
16.519999999999982
 10
14.959999999999994
 20
16.5
 10
14.959999999999994
 20
16.47999999999999
 10
14.959999999999994
 20
16.45999999999998
 10
14.959999999999994
 20
16.439999999999998
 10
14.959999999999994
 20
16.419999999999987
 10
14.959999999999994
 20
16.399999999999977
 10
14.959999999999994
 20
16.379999999999995
 10
14.959999999999994
 20
16.359999999999985
 10
14.959999999999994
 20
16.339999999999975
 10
14.980000000000004
 20
16.339999999999975
 10
14.980000000000004
 20
16.319999999999993
 10
14.980000000000004
 20
16.299999999999983
 10
14.980000000000004
 20
16.279999999999973
 10
14.980000000000004
 20
16.25999999999999
 10
15.0
 20
16.25999999999999
 10
15.0
 20
16.23999999999998
 10
15.0
 20
16.22
 10
15.0
 20
16.19999999999999
 10
15.019999999999996
 20
16.19999999999999
 10
15.019999999999996
 20
16.17999999999998
 10
15.019999999999996
 20
16.159999999999997
 10
15.040000000000006
 20
16.159999999999997
 10
15.040000000000006
 20
16.139999999999986
 10
15.040000000000006
 20
16.119999999999976
 10
15.060000000000002
 20
16.099999999999994
 10
15.060000000000002
 20
16.079999999999984
 10
15.079999999999998
 20
16.059999999999974
 10
15.079999999999998
 20
16.039999999999992
 10
15.099999999999994
 20
16.039999999999992
 10
15.099999999999994
 20
16.019999999999982
 10
15.099999999999994
 20
16.0
 10
15.120000000000005
 20
16.0
 10
15.120000000000005
 20
15.97999999999999
 10
15.400000000000006
 20
15.73999999999998
 10
15.64
 20
15.47999999999999
 10
15.879999999999995
 20
15.219999999999999
 10
16.099999999999994
 20
14.95999999999998
 10
34.39999999999999
 20
14.059999999999974
 10
34.999999999999986
 20
13.97999999999999
 10
35.55999999999999
 20
13.799999999999983
 10
36.05999999999999
 20
13.519999999999982
 10
36.519999999999996
 20
13.139999999999986
 10
47.27999999999999
 20
2.0999999999999943
 10
47.33999999999999
 20
2.019999999999982
 10
47.38000000000001
 20
1.8999999999999773
 10
47.39999999999999
 20
1.799999999999983
 10
47.38000000000001
 20
1.6799999999999784
 10
47.32000000000001
 20
1.579999999999984
 10
47.239999999999995
 20
1.5199999999999818
 10
47.14
 20
1.4599999999999795
 10
47.040000000000006
 20
1.4399999999999977
 10
36.83999999999999
 20
2.6799999999999784
 10
36.58
 20
3.4199999999999875
 10
36.2
 20
4.079999999999984
 10
35.72000000000001
 20
4.659999999999997
 10
35.16000000000001
 20
5.159999999999997
 10
34.519999999999996
 20
5.559999999999974
 10
33.82000000000001
 20
5.859999999999985
 10
33.08
 20
6.019999999999982
 10
32.3
 20
6.059999999999974
 10
15.959999999999994
 20
5.579999999999984
 10
15.719999999999999
 20
5.319999999999993
 10
15.480000000000004
 20
5.079999999999984
 10
15.219999999999999
 20
4.839999999999975
 10
14.939999999999998
 20
4.599999999999994
 10
14.939999999999998
 20
4.579999999999984
 10
14.920000000000002
 20
4.579999999999984
 10
14.920000000000002
 20
4.559999999999974
 10
14.920000000000002
 20
4.539999999999992
 10
14.900000000000006
 20
4.539999999999992
 10
14.900000000000006
 20
4.519999999999982
 10
14.879999999999995
 20
4.519999999999982
 10
14.879999999999995
 20
4.5
 10
14.879999999999995
 20
4.47999999999999
 10
14.86
 20
4.47999999999999
 10
14.86
 20
4.4599999999999795
 10
14.86
 20
4.439999999999998
 10
14.840000000000003
 20
4.439999999999998
 10
14.840000000000003
 20
4.4199999999999875
 10
14.840000000000003
 20
4.399999999999977
 10
14.819999999999993
 20
4.3799999999999955
 10
14.819999999999993
 20
4.359999999999985
 10
14.819999999999993
 20
4.339999999999975
 10
14.799999999999997
 20
4.339999999999975
 10
14.799999999999997
 20
4.319999999999993
 10
14.799999999999997
 20
4.299999999999983
 10
14.799999999999997
 20
4.279999999999973
 10
14.780000000000001
 20
4.279999999999973
 10
14.780000000000001
 20
4.259999999999991
 10
14.780000000000001
 20
4.239999999999981
 10
14.780000000000001
 20
4.219999999999999
 10
14.780000000000001
 20
4.199999999999989
 10
14.760000000000005
 20
4.199999999999989
 10
14.760000000000005
 20
4.179999999999978
 10
14.760000000000005
 20
4.159999999999997
 10
14.760000000000005
 20
4.139999999999986
 10
14.760000000000005
 20
4.119999999999976
 10
14.760000000000005
 20
4.099999999999994
 10
14.760000000000005
 20
4.079999999999984
 10
14.760000000000005
 20
4.059999999999974
 10
14.760000000000005
 20
4.039999999999992
 10
14.760000000000005
 20
4.019999999999982
 10
14.760000000000005
 20
4.0
 10
14.760000000000005
 20
3.9799999999999898
 10
14.760000000000005
 20
3.9599999999999795
 10
14.760000000000005
 20
3.9399999999999977
 10
14.760000000000005
 20
3.9199999999999875
 10
14.760000000000005
 20
3.8999999999999773
 10
14.780000000000001
 20
3.8999999999999773
 10
14.780000000000001
 20
3.8799999999999955
 10
14.780000000000001
 20
3.859999999999985
 10
14.780000000000001
 20
3.839999999999975
 10
14.780000000000001
 20
3.819999999999993
 10
14.799999999999997
 20
3.799999999999983
 10
14.799999999999997
 20
3.7799999999999727
 10
14.799999999999997
 20
3.759999999999991
 10
14.799999999999997
 20
3.7399999999999807
 10
14.819999999999993
 20
3.7399999999999807
 10
14.819999999999993
 20
3.719999999999999
 10
14.819999999999993
 20
3.6999999999999886
 10
14.840000000000003
 20
3.6999999999999886
 10
14.840000000000003
 20
3.6799999999999784
 10
14.840000000000003
 20
3.6599999999999966
 10
14.86
 20
3.6399999999999864
 10
14.86
 20
3.619999999999976
 10
14.86
 20
3.5999999999999943
 10
14.879999999999995
 20
3.5999999999999943
 10
14.879999999999995
 20
3.579999999999984
 10
14.879999999999995
 20
3.559999999999974
 10
14.900000000000006
 20
3.559999999999974
 10
14.900000000000006
 20
3.539999999999992
 10
14.900000000000006
 20
3.519999999999982
 10
14.920000000000002
 20
3.519999999999982
 10
14.920000000000002
 20
3.5
 10
14.939999999999998
 20
3.4799999999999898
 10
14.939999999999998
 20
3.4599999999999795
 10
14.959999999999994
 20
3.4399999999999977
 10
14.959999999999994
 20
3.4199999999999875
 10
14.980000000000004
 20
3.4199999999999875
 10
14.980000000000004
 20
3.3999999999999773
 10
14.980000000000004
 20
3.3799999999999955
 10
15.0
 20
3.3799999999999955
 10
15.0
 20
3.359999999999985
 10
15.0
 20
3.339999999999975
 10
15.019999999999996
 20
3.339999999999975
 10
15.019999999999996
 20
3.319999999999993
 10
15.019999999999996
 20
3.299999999999983
 10
15.040000000000006
 20
3.299999999999983
 10
15.040000000000006
 20
3.2799999999999727
 10
15.040000000000006
 20
3.259999999999991
 10
15.060000000000002
 20
3.259999999999991
 10
15.060000000000002
 20
3.2399999999999807
 10
15.079999999999998
 20
3.219999999999999
 10
15.079999999999998
 20
3.1999999999999886
 10
15.099999999999994
 20
3.1799999999999784
 10
15.099999999999994
 20
3.1599999999999966
 10
15.120000000000005
 20
3.1399999999999864
 10
15.120000000000005
 20
3.119999999999976
 10
15.120000000000005
 20
3.0999999999999943
 10
15.14
 20
3.0999999999999943
 10
15.14
 20
3.079999999999984
 10
15.159999999999997
 20
3.059999999999974
 10
15.159999999999997
 20
3.039999999999992
 10
15.159999999999997
 20
3.019999999999982
 10
15.179999999999993
 20
3.019999999999982
 10
15.179999999999993
 20
3.0
 10
15.179999999999993
 20
2.9799999999999898
 10
15.200000000000003
 20
2.9799999999999898
 10
15.200000000000003
 20
2.9599999999999795
 10
15.200000000000003
 20
2.9399999999999977
 10
15.200000000000003
 20
2.9199999999999875
 10
15.219999999999999
 20
2.9199999999999875
 10
15.219999999999999
 20
2.8999999999999773
 10
15.219999999999999
 20
2.8799999999999955
 10
15.239999999999995
 20
2.859999999999985
 10
15.239999999999995
 20
2.839999999999975
 10
15.239999999999995
 20
2.819999999999993
 10
15.260000000000005
 20
2.819999999999993
 10
15.260000000000005
 20
2.799999999999983
 10
15.260000000000005
 20
2.7799999999999727
 10
15.260000000000005
 20
2.759999999999991
 10
15.280000000000001
 20
2.759999999999991
 10
15.280000000000001
 20
2.7399999999999807
 10
15.280000000000001
 20
2.719999999999999
 10
15.280000000000001
 20
2.6999999999999886
 10
15.280000000000001
 20
2.6799999999999784
 10
15.299999999999997
 20
2.6799999999999784
 10
15.299999999999997
 20
2.6599999999999966
 10
15.299999999999997
 20
2.6399999999999864
 10
15.299999999999997
 20
2.619999999999976
 10
15.319999999999993
 20
2.5999999999999943
 10
15.319999999999993
 20
2.579999999999984
 10
15.319999999999993
 20
2.559999999999974
 10
15.319999999999993
 20
2.539999999999992
 10
15.319999999999993
 20
2.519999999999982
 10
15.340000000000003
 20
2.519999999999982
 10
15.340000000000003
 20
2.5
 10
15.340000000000003
 20
2.4799999999999898
 10
15.340000000000003
 20
2.4599999999999795
 10
15.340000000000003
 20
2.4399999999999977
 10
15.340000000000003
 20
2.4199999999999875
 10
15.36
 20
2.4199999999999875
 10
15.36
 20
2.3999999999999773
 10
15.36
 20
2.3799999999999955
 10
15.36
 20
2.359999999999985
 10
15.36
 20
2.339999999999975
 10
15.36
 20
2.319999999999993
 10
15.36
 20
2.299999999999983
 10
15.36
 20
2.2799999999999727
 10
15.379999999999995
 20
2.259999999999991
 10
15.379999999999995
 20
2.2399999999999807
 10
15.379999999999995
 20
2.219999999999999
 10
15.379999999999995
 20
2.1999999999999886
 10
15.379999999999995
 20
2.1799999999999784
 10
15.379999999999995
 20
2.1599999999999966
 10
15.379999999999995
 20
2.1399999999999864
 10
15.379999999999995
 20
2.119999999999976
 10
15.379999999999995
 20
2.0999999999999943
 10
15.379999999999995
 20
2.079999999999984
 10
15.379999999999995
 20
2.059999999999974
 10
15.379999999999995
 20
2.039999999999992
 10
15.379999999999995
 20
2.019999999999982
 10
15.379999999999995
 20
2.0
 10
15.379999999999995
 20
1.9799999999999898
 10
15.379999999999995
 20
1.9599999999999795
 10
15.400000000000006
 20
1.9399999999999977
 10
15.400000000000006
 20
1.9199999999999875
 10
15.400000000000006
 20
1.8999999999999773
 10
15.400000000000006
 20
1.8799999999999955
 10
15.400000000000006
 20
1.8599999999999852
 10
15.400000000000006
 20
1.839999999999975
 10
15.379999999999995
 20
1.8199999999999932
 10
15.379999999999995
 20
1.799999999999983
 10
15.379999999999995
 20
1.7799999999999727
 10
15.379999999999995
 20
1.759999999999991
 10
15.379999999999995
 20
1.7399999999999807
 10
15.379999999999995
 20
1.7199999999999989
 10
15.379999999999995
 20
1.6999999999999886
 10
15.379999999999995
 20
1.6799999999999784
 10
15.379999999999995
 20
1.6599999999999966
 10
15.379999999999995
 20
1.6399999999999864
 10
15.379999999999995
 20
1.6199999999999761
 10
15.379999999999995
 20
1.5999999999999943
 10
15.379999999999995
 20
1.579999999999984
 10
15.379999999999995
 20
1.5599999999999739
 10
15.379999999999995
 20
1.539999999999992
 10
15.379999999999995
 20
1.5199999999999818
 10
15.379999999999995
 20
1.5
 10
15.379999999999995
 20
1.4799999999999898
 10
15.36
 20
1.4599999999999795
 10
15.36
 20
1.4399999999999977
 10
15.36
 20
1.4199999999999875
 10
15.36
 20
1.3999999999999773
 10
15.36
 20
1.3799999999999955
 10
15.36
 20
1.3599999999999852
 10
15.36
 20
1.339999999999975
 10
15.36
 20
1.3199999999999932
 10
15.36
 20
1.299999999999983
 10
15.340000000000003
 20
1.2799999999999727
 10
15.340000000000003
 20
1.259999999999991
 10
15.340000000000003
 20
1.2399999999999807
 10
15.340000000000003
 20
1.2199999999999989
 10
15.340000000000003
 20
1.1999999999999886
 10
15.340000000000003
 20
1.1799999999999784
 10
15.340000000000003
 20
1.1599999999999966
 10
15.340000000000003
 20
1.1399999999999864
 10
15.319999999999993
 20
1.1399999999999864
 10
15.319999999999993
 20
1.1199999999999761
 10
15.319999999999993
 20
1.0999999999999943
 10
15.319999999999993
 20
1.079999999999984
 10
15.319999999999993
 20
1.0599999999999739
 10
15.319999999999993
 20
1.039999999999992
 10
15.319999999999993
 20
1.0199999999999818
 10
15.299999999999997
 20
1.0
 10
15.299999999999997
 20
0.9799999999999898
 10
15.299999999999997
 20
0.9599999999999795
 10
15.299999999999997
 20
0.9399999999999977
 10
15.299999999999997
 20
0.9199999999999875
 10
15.299999999999997
 20
0.8999999999999773
 10
15.280000000000001
 20
0.8999999999999773
 10
15.280000000000001
 20
0.8799999999999955
 10
15.280000000000001
 20
0.8599999999999852
 10
15.280000000000001
 20
0.839999999999975
 10
15.280000000000001
 20
0.8199999999999932
 10
15.280000000000001
 20
0.799999999999983
 10
15.280000000000001
 20
0.7799999999999727
 10
15.260000000000005
 20
0.7799999999999727
 10
15.260000000000005
 20
0.7599999999999909
 10
14.319999999999993
 20
0.339999999999975
 10
13.340000000000003
 20
0.0
 10
13.319999999999993
 20
0.01999999999998181
 10
13.299999999999997
 20
0.01999999999998181
 10
13.299999999999997
 20
0.03999999999999204
 10
13.280000000000001
 20
0.03999999999999204
 10
13.280000000000001
 20
0.05999999999997385
 10
13.260000000000005
 20
0.05999999999997385
 10
13.239999999999995
 20
0.05999999999997385
 10
13.239999999999995
 20
0.07999999999998408
 10
13.219999999999999
 20
0.07999999999998408
 10
13.219999999999999
 20
0.09999999999999432
 10
13.200000000000003
 20
0.09999999999999432
 10
13.179999999999993
 20
0.11999999999997613
 10
13.159999999999997
 20
0.13999999999998636
 10
13.14
 20
0.13999999999998636
 10
13.14
 20
0.1599999999999966
 10
13.120000000000005
 20
0.1599999999999966
 10
13.120000000000005
 20
0.1799999999999784
 10
13.099999999999994
 20
0.1799999999999784
 10
13.079999999999998
 20
0.19999999999998863
 10
13.060000000000002
 20
0.21999999999999886
 10
13.040000000000006
 20
0.21999999999999886
 10
13.040000000000006
 20
0.23999999999998067
 10
13.019999999999996
 20
0.23999999999998067
 10
13.019999999999996
 20
0.2599999999999909
 10
13.0
 20
0.2599999999999909
 10
12.980000000000004
 20
0.2799999999999727
 10
12.959999999999994
 20
0.2799999999999727
 10
12.959999999999994
 20
0.29999999999998295
 10
12.939999999999998
 20
0.29999999999998295
 10
12.939999999999998
 20
0.3199999999999932
 10
12.920000000000002
 20
0.3199999999999932
 10
12.900000000000006
 20
0.339999999999975
 10
12.879999999999995
 20
0.3599999999999852
 10
12.86
 20
0.3599999999999852
 10
12.86
 20
0.37999999999999545
 10
12.840000000000003
 20
0.39999999999997726
 10
12.819999999999993
 20
0.4199999999999875
 10
12.799999999999997
 20
0.4199999999999875
 10
12.799999999999997
 20
0.4399999999999977
 10
12.780000000000001
 20
0.4399999999999977
 10
12.780000000000001
 20
0.45999999999997954
 10
12.760000000000005
 20
0.45999999999997954
 10
12.739999999999995
 20
0.47999999999998977
 10
12.739999999999995
 20
0.5
 10
12.719999999999999
 20
0.5
 10
12.700000000000003
 20
0.5199999999999818
 10
12.679999999999993
 20
0.539999999999992
 10
12.659999999999997
 20
0.539999999999992
 10
12.659999999999997
 20
0.5599999999999739
 10
12.64
 20
0.5799999999999841
 10
12.620000000000005
 20
0.5999999999999943
 10
12.599999999999994
 20
0.6199999999999761
 10
12.579999999999998
 20
0.6199999999999761
 10
12.579999999999998
 20
0.6399999999999864
 10
12.560000000000002
 20
0.6399999999999864
 10
12.560000000000002
 20
0.6599999999999966
 10
12.540000000000006
 20
0.6599999999999966
 10
12.540000000000006
 20
0.6799999999999784
 10
12.519999999999996
 20
0.6799999999999784
 10
12.519999999999996
 20
0.6999999999999886
 10
12.5
 20
0.6999999999999886
 10
12.5
 20
0.7199999999999989
 10
12.480000000000004
 20
0.7199999999999989
 10
12.480000000000004
 20
0.7399999999999807
 10
12.459999999999994
 20
0.7399999999999807
 10
12.459999999999994
 20
0.7599999999999909
 10
12.439999999999998
 20
0.7799999999999727
 10
12.420000000000002
 20
0.799999999999983
 10
12.400000000000006
 20
0.8199999999999932
 10
12.379999999999995
 20
0.839999999999975
 10
12.379999999999995
 20
0.8599999999999852
 10
12.36
 20
0.8599999999999852
 10
12.36
 20
0.8799999999999955
 10
12.340000000000003
 20
0.8999999999999773
 10
12.319999999999993
 20
0.9199999999999875
 10
12.299999999999997
 20
0.9399999999999977
 10
12.280000000000001
 20
0.9599999999999795
 10
12.280000000000001
 20
0.9799999999999898
 10
12.260000000000005
 20
1.0
 10
12.239999999999995
 20
1.0199999999999818
 10
12.219999999999999
 20
1.039999999999992
 10
12.219999999999999
 20
1.0599999999999739
 10
12.200000000000003
 20
1.079999999999984
 10
12.179999999999993
 20
1.0999999999999943
 10
12.179999999999993
 20
1.1199999999999761
 10
12.159999999999997
 20
1.1199999999999761
 10
12.159999999999997
 20
1.1399999999999864
 10
12.14
 20
1.1399999999999864
 10
12.14
 20
1.1599999999999966
 10
12.120000000000005
 20
1.1799999999999784
 10
12.120000000000005
 20
1.1999999999999886
 10
12.099999999999994
 20
1.2199999999999989
 10
12.099999999999994
 20
1.2399999999999807
 10
12.079999999999998
 20
1.2399999999999807
 10
12.079999999999998
 20
1.259999999999991
 10
12.079999999999998
 20
1.2799999999999727
 10
12.060000000000002
 20
1.2799999999999727
 10
12.060000000000002
 20
1.299999999999983
 10
12.040000000000006
 20
1.3199999999999932
 10
12.040000000000006
 20
1.339999999999975
 10
12.019999999999996
 20
1.3599999999999852
 10
12.019999999999996
 20
1.3799999999999955
 10
12.0
 20
1.3799999999999955
 10
12.0
 20
1.3999999999999773
 10
12.0
 20
1.4199999999999875
 10
11.980000000000004
 20
1.4199999999999875
 10
11.980000000000004
 20
1.4399999999999977
 10
11.980000000000004
 20
1.4599999999999795
 10
11.959999999999994
 20
1.4599999999999795
 10
11.959999999999994
 20
1.4799999999999898
 10
11.959999999999994
 20
1.5
 10
11.939999999999998
 20
1.5
 10
11.939999999999998
 20
1.5199999999999818
 10
11.939999999999998
 20
1.539999999999992
 10
11.920000000000002
 20
1.5599999999999739
 10
11.920000000000002
 20
1.579999999999984
 10
11.920000000000002
 20
1.5999999999999943
 10
11.900000000000006
 20
1.5999999999999943
 10
11.900000000000006
 20
1.6199999999999761
 10
11.900000000000006
 20
1.6399999999999864
 10
11.879999999999995
 20
1.6599999999999966
 10
11.879999999999995
 20
1.6799999999999784
 10
11.879999999999995
 20
1.6999999999999886
 10
11.86
 20
1.6999999999999886
 10
11.86
 20
1.7199999999999989
 10
11.86
 20
1.7399999999999807
 10
11.86
 20
1.759999999999991
 10
11.840000000000003
 20
1.759999999999991
 10
11.840000000000003
 20
1.7799999999999727
 10
11.840000000000003
 20
1.799999999999983
 10
11.840000000000003
 20
1.8199999999999932
 10
11.819999999999993
 20
1.8199999999999932
 10
11.819999999999993
 20
1.839999999999975
 10
11.819999999999993
 20
1.8599999999999852
 10
11.819999999999993
 20
1.8799999999999955
 10
11.799999999999997
 20
1.8999999999999773
 10
11.799999999999997
 20
1.9199999999999875
 10
11.799999999999997
 20
1.9399999999999977
 10
11.799999999999997
 20
1.9599999999999795
 10
11.780000000000001
 20
1.9599999999999795
 10
11.780000000000001
 20
1.9799999999999898
 10
11.780000000000001
 20
2.0
 10
11.780000000000001
 20
2.019999999999982
 10
11.780000000000001
 20
2.039999999999992
 10
11.760000000000005
 20
2.039999999999992
 10
11.760000000000005
 20
2.059999999999974
 10
11.760000000000005
 20
2.079999999999984
 10
11.760000000000005
 20
2.0999999999999943
 10
11.739999999999995
 20
2.119999999999976
 10
11.739999999999995
 20
2.1399999999999864
 10
11.739999999999995
 20
2.1599999999999966
 10
11.739999999999995
 20
2.1799999999999784
 10
11.719999999999999
 20
2.1999999999999886
 10
11.719999999999999
 20
2.219999999999999
 10
11.719999999999999
 20
2.2399999999999807
 10
11.719999999999999
 20
2.259999999999991
 10
11.700000000000003
 20
2.259999999999991
 10
11.700000000000003
 20
2.2799999999999727
 10
11.700000000000003
 20
2.299999999999983
 10
11.700000000000003
 20
2.319999999999993
 10
11.679999999999993
 20
2.339999999999975
 10
11.679999999999993
 20
2.359999999999985
 10
11.679999999999993
 20
2.3799999999999955
 10
11.659999999999997
 20
2.3999999999999773
 10
11.659999999999997
 20
2.4199999999999875
 10
11.659999999999997
 20
2.4399999999999977
 10
11.64
 20
2.4399999999999977
 10
11.64
 20
2.4599999999999795
 10
11.64
 20
2.4799999999999898
 10
11.64
 20
2.5
 10
11.620000000000005
 20
2.5
 10
11.620000000000005
 20
2.519999999999982
 10
11.620000000000005
 20
2.539999999999992
 10
11.599999999999994
 20
2.539999999999992
 10
11.599999999999994
 20
2.559999999999974
 10
11.599999999999994
 20
2.579999999999984
 10
11.579999999999998
 20
2.579999999999984
 10
11.579999999999998
 20
2.5999999999999943
 10
11.560000000000002
 20
2.5999999999999943
 10
11.560000000000002
 20
2.619999999999976
 10
11.560000000000002
 20
2.6399999999999864
 10
11.540000000000006
 20
2.6399999999999864
 10
11.540000000000006
 20
2.6599999999999966
 10
11.519999999999996
 20
2.6799999999999784
 10
11.519999999999996
 20
2.6999999999999886
 10
11.5
 20
2.6999999999999886
 10
11.5
 20
2.719999999999999
 10
11.480000000000004
 20
2.719999999999999
 10
11.480000000000004
 20
2.7399999999999807
 10
11.459999999999994
 20
2.7399999999999807
 10
11.459999999999994
 20
2.759999999999991
 10
11.439999999999998
 20
2.759999999999991
 10
11.439999999999998
 20
2.7799999999999727
 10
11.420000000000002
 20
2.7799999999999727
 10
11.420000000000002
 20
2.799999999999983
 10
11.400000000000006
 20
2.799999999999983
 10
11.400000000000006
 20
2.819999999999993
 10
11.379999999999995
 20
2.819999999999993
 10
11.36
 20
2.839999999999975
 10
11.340000000000003
 20
2.839999999999975
 10
11.340000000000003
 20
2.859999999999985
 10
11.319999999999993
 20
2.859999999999985
 10
11.319999999999993
 20
2.8799999999999955
 10
11.299999999999997
 20
2.8799999999999955
 10
11.280000000000001
 20
2.8799999999999955
 10
11.280000000000001
 20
2.8999999999999773
 10
11.260000000000005
 20
2.8999999999999773
 10
11.239999999999995
 20
2.8999999999999773
 10
11.239999999999995
 20
2.9199999999999875
 10
11.219999999999999
 20
2.9199999999999875
 10
11.200000000000003
 20
2.9199999999999875
 10
11.200000000000003
 20
2.9399999999999977
 10
11.179999999999993
 20
2.9399999999999977
 10
11.159999999999997
 20
2.9399999999999977
 10
11.159999999999997
 20
2.9599999999999795
 10
11.14
 20
2.9599999999999795
 10
11.120000000000005
 20
2.9599999999999795
 10
11.099999999999994
 20
2.9799999999999898
 10
11.079999999999998
 20
2.9799999999999898
 10
11.060000000000002
 20
2.9799999999999898
 10
11.060000000000002
 20
3.0
 10
11.040000000000006
 20
3.0
 10
11.019999999999996
 20
3.0
 10
11.0
 20
3.0
 10
10.980000000000004
 20
3.0
 10
10.980000000000004
 20
3.019999999999982
 10
10.959999999999994
 20
3.019999999999982
 10
10.939999999999998
 20
3.019999999999982
 10
10.579999999999998
 20
3.0
 10
10.239999999999995
 20
3.0
 10
9.879999999999995
 20
3.019999999999982
 10
9.540000000000006
 20
3.039999999999992
 10
9.519999999999996
 20
3.039999999999992
 10
9.5
 20
3.039999999999992
 10
9.480000000000004
 20
3.039999999999992
 10
9.480000000000004
 20
3.019999999999982
 10
9.459999999999994
 20
3.019999999999982
 10
9.439999999999998
 20
3.019999999999982
 10
9.420000000000002
 20
3.019999999999982
 10
9.400000000000006
 20
3.019999999999982
 10
9.400000000000006
 20
3.0
 10
9.379999999999995
 20
3.0
 10
9.36
 20
3.0
 10
9.340000000000003
 20
3.0
 10
9.340000000000003
 20
2.9799999999999898
 10
9.319999999999993
 20
2.9799999999999898
 10
9.299999999999997
 20
2.9799999999999898
 10
9.280000000000001
 20
2.9599999999999795
 10
9.260000000000005
 20
2.9599999999999795
 10
9.239999999999995
 20
2.9599999999999795
 10
9.239999999999995
 20
2.9399999999999977
 10
9.219999999999999
 20
2.9399999999999977
 10
9.200000000000003
 20
2.9399999999999977
 10
9.200000000000003
 20
2.9199999999999875
 10
9.179999999999993
 20
2.9199999999999875
 10
9.159999999999997
 20
2.9199999999999875
 10
9.159999999999997
 20
2.8999999999999773
 10
9.14
 20
2.8999999999999773
 10
9.14
 20
2.8799999999999955
 10
9.120000000000005
 20
2.8799999999999955
 10
9.099999999999994
 20
2.8799999999999955
 10
9.099999999999994
 20
2.859999999999985
 10
9.079999999999998
 20
2.859999999999985
 10
9.079999999999998
 20
2.839999999999975
 10
9.060000000000002
 20
2.839999999999975
 10
9.040000000000006
 20
2.819999999999993
 10
9.019999999999996
 20
2.819999999999993
 10
9.019999999999996
 20
2.799999999999983
 10
9.0
 20
2.799999999999983
 10
9.0
 20
2.7799999999999727
 10
8.980000000000004
 20
2.7799999999999727
 10
8.980000000000004
 20
2.759999999999991
 10
8.959999999999994
 20
2.759999999999991
 10
8.959999999999994
 20
2.7399999999999807
 10
8.939999999999998
 20
2.719999999999999
 10
8.939999999999998
 20
2.6999999999999886
 10
8.920000000000002
 20
2.6999999999999886
 10
8.920000000000002
 20
2.6799999999999784
 10
8.900000000000006
 20
2.6799999999999784
 10
8.900000000000006
 20
2.6599999999999966
 10
8.900000000000006
 20
2.6399999999999864
 10
8.879999999999995
 20
2.6399999999999864
 10
8.879999999999995
 20
2.619999999999976
 10
8.86
 20
2.619999999999976
 10
8.86
 20
2.5999999999999943
 10
8.86
 20
2.579999999999984
 10
8.840000000000003
 20
2.579999999999984
 10
8.840000000000003
 20
2.559999999999974
 10
8.840000000000003
 20
2.539999999999992
 10
8.819999999999993
 20
2.539999999999992
 10
8.819999999999993
 20
2.519999999999982
 10
8.819999999999993
 20
2.5
 10
8.799999999999997
 20
2.5
 10
8.799999999999997
 20
2.4799999999999898
 10
8.799999999999997
 20
2.4599999999999795
 10
8.799999999999997
 20
2.4399999999999977
 10
8.780000000000001
 20
2.4399999999999977
 10
8.780000000000001
 20
2.4199999999999875
 10
8.780000000000001
 20
2.3999999999999773
 10
8.760000000000005
 20
2.3999999999999773
 10
8.760000000000005
 20
2.3799999999999955
 10
8.760000000000005
 20
2.359999999999985
 10
8.760000000000005
 20
2.339999999999975
 10
8.739999999999995
 20
2.339999999999975
 10
8.739999999999995
 20
2.319999999999993
 10
8.739999999999995
 20
2.299999999999983
 10
8.739999999999995
 20
2.2799999999999727
 10
8.719999999999999
 20
2.259999999999991
 10
8.719999999999999
 20
2.2399999999999807
 10
8.719999999999999
 20
2.219999999999999
 10
8.719999999999999
 20
2.1999999999999886
 10
8.700000000000003
 20
2.1999999999999886
 10
8.700000000000003
 20
2.1799999999999784
 10
8.700000000000003
 20
2.1599999999999966
 10
8.700000000000003
 20
2.1399999999999864
 10
8.679999999999993
 20
2.1399999999999864
 10
8.679999999999993
 20
2.119999999999976
 10
8.679999999999993
 20
2.0999999999999943
 10
8.679999999999993
 20
2.079999999999984
 10
8.659999999999997
 20
2.059999999999974
 10
8.659999999999997
 20
2.039999999999992
 10
8.659999999999997
 20
2.019999999999982
 10
8.659999999999997
 20
2.0
 10
8.64
 20
2.0
 10
8.64
 20
1.9799999999999898
 10
8.64
 20
1.9599999999999795
 10
8.64
 20
1.9399999999999977
 10
8.620000000000005
 20
1.9399999999999977
 10
8.620000000000005
 20
1.9199999999999875
 10
8.620000000000005
 20
1.8999999999999773
 10
8.620000000000005
 20
1.8799999999999955
 10
8.599999999999994
 20
1.8799999999999955
 10
8.599999999999994
 20
1.8599999999999852
 10
8.599999999999994
 20
1.839999999999975
 10
8.579999999999998
 20
1.8199999999999932
 10
8.579999999999998
 20
1.799999999999983
 10
8.579999999999998
 20
1.7799999999999727
 10
8.560000000000002
 20
1.759999999999991
 10
8.560000000000002
 20
1.7399999999999807
 10
8.560000000000002
 20
1.7199999999999989
 10
8.540000000000006
 20
1.7199999999999989
 10
8.540000000000006
 20
1.6999999999999886
 10
8.540000000000006
 20
1.6799999999999784
 10
8.519999999999996
 20
1.6599999999999966
 10
8.519999999999996
 20
1.6399999999999864
 10
8.519999999999996
 20
1.6199999999999761
 10
8.5
 20
1.6199999999999761
 10
8.5
 20
1.5999999999999943
 10
8.5
 20
1.579999999999984
 10
8.480000000000004
 20
1.579999999999984
 10
8.480000000000004
 20
1.5599999999999739
 10
8.459999999999994
 20
1.539999999999992
 10
8.459999999999994
 20
1.5199999999999818
 10
8.439999999999998
 20
1.5
 10
8.439999999999998
 20
1.4799999999999898
 10
8.420000000000002
 20
1.4599999999999795
 10
8.420000000000002
 20
1.4399999999999977
 10
8.400000000000006
 20
1.4199999999999875
 10
8.400000000000006
 20
1.3999999999999773
 10
8.379999999999995
 20
1.3799999999999955
 10
8.379999999999995
 20
1.3599999999999852
 10
8.36
 20
1.3599999999999852
 10
8.36
 20
1.339999999999975
 10
8.340000000000003
 20
1.339999999999975
 10
8.340000000000003
 20
1.3199999999999932
 10
8.340000000000003
 20
1.299999999999983
 10
8.319999999999993
 20
1.299999999999983
 10
8.319999999999993
 20
1.2799999999999727
 10
8.299999999999997
 20
1.259999999999991
 10
8.280000000000001
 20
1.2399999999999807
 10
8.280000000000001
 20
1.2199999999999989
 10
8.260000000000005
 20
1.1999999999999886
 10
8.260000000000005
 20
1.1799999999999784
 10
8.239999999999995
 20
1.1799999999999784
 10
8.239999999999995
 20
1.1599999999999966
 10
8.219999999999999
 20
1.1599999999999966
 10
8.219999999999999
 20
1.1399999999999864
 10
8.200000000000003
 20
1.1199999999999761
 10
8.179999999999993
 20
1.0999999999999943
 10
8.179999999999993
 20
1.079999999999984
 10
8.159999999999997
 20
1.079999999999984
 10
8.159999999999997
 20
1.0599999999999739
 10
8.14
 20
1.0599999999999739
 10
8.14
 20
1.039999999999992
 10
8.120000000000005
 20
1.0199999999999818
 10
8.099999999999994
 20
1.0
 10
8.079999999999998
 20
0.9799999999999898
 10
8.060000000000002
 20
0.9599999999999795
 10
8.060000000000002
 20
0.9399999999999977
 10
8.040000000000006
 20
0.9399999999999977
 10
8.040000000000006
 20
0.9199999999999875
 10
8.019999999999996
 20
0.9199999999999875
 10
8.019999999999996
 20
0.8999999999999773
 10
8.0
 20
0.8999999999999773
 10
8.0
 20
0.8799999999999955
 10
7.980000000000004
 20
0.8599999999999852
 10
7.959999999999994
 20
0.839999999999975
 10
7.939999999999998
 20
0.8199999999999932
 10
7.920000000000002
 20
0.8199999999999932
 10
7.920000000000002
 20
0.799999999999983
 10
7.900000000000006
 20
0.799999999999983
 10
7.900000000000006
 20
0.7799999999999727
 10
7.8799999999999955
 20
0.7799999999999727
 10
7.8799999999999955
 20
0.7599999999999909
 10
7.859999999999999
 20
0.7599999999999909
 10
7.859999999999999
 20
0.7399999999999807
 10
7.840000000000003
 20
0.7399999999999807
 10
7.840000000000003
 20
0.7199999999999989
 10
7.819999999999993
 20
0.7199999999999989
 10
7.819999999999993
 20
0.6999999999999886
 10
7.799999999999997
 20
0.6999999999999886
 10
7.799999999999997
 20
0.6799999999999784
 10
7.780000000000001
 20
0.6799999999999784
 10
7.780000000000001
 20
0.6599999999999966
 10
7.760000000000005
 20
0.6599999999999966
 10
7.760000000000005
 20
0.6399999999999864
 10
7.739999999999995
 20
0.6399999999999864
 10
7.739999999999995
 20
0.6199999999999761
 10
7.719999999999999
 20
0.6199999999999761
 10
7.700000000000003
 20
0.5999999999999943
 10
7.679999999999993
 20
0.5799999999999841
 10
7.659999999999997
 20
0.5799999999999841
 10
7.659999999999997
 20
0.5599999999999739
 10
7.640000000000001
 20
0.5599999999999739
 10
7.640000000000001
 20
0.539999999999992
 10
7.6200000000000045
 20
0.539999999999992
 10
7.599999999999994
 20
0.5199999999999818
 10
7.599999999999994
 20
0.5
 10
7.579999999999998
 20
0.5
 10
7.560000000000002
 20
0.47999999999998977
 10
7.540000000000006
 20
0.45999999999997954
 10
7.519999999999996
 20
0.45999999999997954
 10
7.519999999999996
 20
0.4399999999999977
 10
7.5
 20
0.4399999999999977
 10
7.480000000000004
 20
0.4199999999999875
 10
7.459999999999994
 20
0.39999999999997726
 10
7.439999999999998
 20
0.39999999999997726
 10
7.439999999999998
 20
0.37999999999999545
 10
7.420000000000002
 20
0.37999999999999545
 10
7.420000000000002
 20
0.3599999999999852
 10
7.400000000000006
 20
0.3599999999999852
 10
7.3799999999999955
 20
0.339999999999975
 10
7.359999999999999
 20
0.339999999999975
 10
7.359999999999999
 20
0.3199999999999932
 10
7.340000000000003
 20
0.3199999999999932
 10
7.340000000000003
 20
0.29999999999998295
 10
7.319999999999993
 20
0.29999999999998295
 10
7.299999999999997
 20
0.29999999999998295
 10
7.299999999999997
 20
0.2799999999999727
 10
7.280000000000001
 20
0.2799999999999727
 10
7.280000000000001
 20
0.2599999999999909
 10
7.260000000000005
 20
0.2599999999999909
 10
7.239999999999995
 20
0.23999999999998067
 10
7.219999999999999
 20
0.23999999999998067
 10
7.219999999999999
 20
0.21999999999999886
 10
7.200000000000003
 20
0.21999999999999886
 10
7.200000000000003
 20
0.19999999999998863
 10
7.179999999999993
 20
0.19999999999998863
 10
7.159999999999997
 20
0.1799999999999784
 10
7.140000000000001
 20
0.1799999999999784
 10
7.140000000000001
 20
0.1599999999999966
 10
7.1200000000000045
 20
0.1599999999999966
 10
7.099999999999994
 20
0.13999999999998636
 10
7.079999999999998
 20
0.13999999999998636
 10
7.079999999999998
 20
0.11999999999997613
 10
7.060000000000002
 20
0.11999999999997613
 10
7.040000000000006
 20
0.09999999999999432
 10
6.060000000000002
 20
0.45999999999997954
 10
5.140000000000001
 20
0.9199999999999875
 10
5.140000000000001
 20
0.9399999999999977
 10
5.140000000000001
 20
0.9599999999999795
 10
5.140000000000001
 20
0.9799999999999898
 10
5.1200000000000045
 20
1.0
 10
5.1200000000000045
 20
1.0199999999999818
 10
5.1200000000000045
 20
1.039999999999992
 10
5.1200000000000045
 20
1.0599999999999739
 10
5.1200000000000045
 20
1.079999999999984
 10
5.1200000000000045
 20
1.0999999999999943
 10
5.1200000000000045
 20
1.1199999999999761
 10
5.099999999999994
 20
1.1399999999999864
 10
5.099999999999994
 20
1.1599999999999966
 10
5.099999999999994
 20
1.1799999999999784
 10
5.099999999999994
 20
1.1999999999999886
 10
5.099999999999994
 20
1.2199999999999989
 10
5.099999999999994
 20
1.2399999999999807
 10
5.099999999999994
 20
1.259999999999991
 10
5.079999999999998
 20
1.2799999999999727
 10
5.079999999999998
 20
1.299999999999983
 10
5.079999999999998
 20
1.3199999999999932
 10
5.079999999999998
 20
1.339999999999975
 10
5.079999999999998
 20
1.3599999999999852
 10
5.079999999999998
 20
1.3799999999999955
 10
5.079999999999998
 20
1.3999999999999773
 10
5.079999999999998
 20
1.4199999999999875
 10
5.079999999999998
 20
1.4399999999999977
 10
5.079999999999998
 20
1.4599999999999795
 10
5.060000000000002
 20
1.4799999999999898
 10
5.060000000000002
 20
1.5
 10
5.060000000000002
 20
1.5199999999999818
 10
5.060000000000002
 20
1.539999999999992
 10
5.060000000000002
 20
1.5599999999999739
 10
5.060000000000002
 20
1.579999999999984
 10
5.060000000000002
 20
1.5999999999999943
 10
5.060000000000002
 20
1.6199999999999761
 10
5.060000000000002
 20
1.6399999999999864
 10
5.060000000000002
 20
1.6599999999999966
 10
5.060000000000002
 20
1.6799999999999784
 10
5.060000000000002
 20
1.6999999999999886
 10
5.060000000000002
 20
1.7199999999999989
 10
5.060000000000002
 20
1.7399999999999807
 10
5.060000000000002
 20
1.759999999999991
 10
5.060000000000002
 20
1.7799999999999727
 10
5.060000000000002
 20
1.799999999999983
 10
5.060000000000002
 20
1.8199999999999932
 10
5.040000000000006
 20
1.839999999999975
 10
5.040000000000006
 20
1.8599999999999852
 10
5.040000000000006
 20
1.8799999999999955
 10
5.040000000000006
 20
1.8999999999999773
 10
5.040000000000006
 20
1.9199999999999875
 10
5.040000000000006
 20
1.9399999999999977
 10
5.040000000000006
 20
1.9599999999999795
 10
5.040000000000006
 20
1.9799999999999898
 10
5.040000000000006
 20
2.0
 10
5.040000000000006
 20
2.019999999999982
 10
5.060000000000002
 20
2.019999999999982
 10
5.060000000000002
 20
2.039999999999992
 10
5.060000000000002
 20
2.059999999999974
 10
5.060000000000002
 20
2.079999999999984
 10
5.060000000000002
 20
2.0999999999999943
 10
5.060000000000002
 20
2.119999999999976
 10
5.060000000000002
 20
2.1399999999999864
 10
5.060000000000002
 20
2.1599999999999966
 10
5.060000000000002
 20
2.1799999999999784
 10
5.060000000000002
 20
2.1999999999999886
 10
5.060000000000002
 20
2.219999999999999
 10
5.060000000000002
 20
2.2399999999999807
 10
5.060000000000002
 20
2.259999999999991
 10
5.060000000000002
 20
2.2799999999999727
 10
5.060000000000002
 20
2.299999999999983
 10
5.060000000000002
 20
2.319999999999993
 10
5.079999999999998
 20
2.339999999999975
 10
5.079999999999998
 20
2.359999999999985
 10
5.079999999999998
 20
2.3799999999999955
 10
5.079999999999998
 20
2.3999999999999773
 10
5.079999999999998
 20
2.4199999999999875
 10
5.079999999999998
 20
2.4399999999999977
 10
5.079999999999998
 20
2.4599999999999795
 10
5.099999999999994
 20
2.4799999999999898
 10
5.099999999999994
 20
2.5
 10
5.099999999999994
 20
2.519999999999982
 10
5.099999999999994
 20
2.539999999999992
 10
5.099999999999994
 20
2.559999999999974
 10
5.099999999999994
 20
2.579999999999984
 10
5.1200000000000045
 20
2.5999999999999943
 10
5.1200000000000045
 20
2.619999999999976
 10
5.1200000000000045
 20
2.6399999999999864
 10
5.1200000000000045
 20
2.6599999999999966
 10
5.1200000000000045
 20
2.6799999999999784
 10
5.140000000000001
 20
2.6799999999999784
 10
5.140000000000001
 20
2.6999999999999886
 10
5.140000000000001
 20
2.719999999999999
 10
5.140000000000001
 20
2.7399999999999807
 10
5.140000000000001
 20
2.759999999999991
 10
5.159999999999997
 20
2.759999999999991
 10
5.159999999999997
 20
2.7799999999999727
 10
5.159999999999997
 20
2.799999999999983
 10
5.159999999999997
 20
2.819999999999993
 10
5.179999999999993
 20
2.819999999999993
 10
5.179999999999993
 20
2.839999999999975
 10
5.179999999999993
 20
2.859999999999985
 10
5.179999999999993
 20
2.8799999999999955
 10
5.200000000000003
 20
2.8999999999999773
 10
5.200000000000003
 20
2.9199999999999875
 10
5.200000000000003
 20
2.9399999999999977
 10
5.219999999999999
 20
2.9599999999999795
 10
5.219999999999999
 20
2.9799999999999898
 10
5.219999999999999
 20
3.0
 10
5.239999999999995
 20
3.0
 10
5.239999999999995
 20
3.019999999999982
 10
5.239999999999995
 20
3.039999999999992
 10
5.260000000000005
 20
3.059999999999974
 10
5.260000000000005
 20
3.079999999999984
 10
5.260000000000005
 20
3.0999999999999943
 10
5.280000000000001
 20
3.0999999999999943
 10
5.280000000000001
 20
3.119999999999976
 10
5.280000000000001
 20
3.1399999999999864
 10
5.299999999999997
 20
3.1399999999999864
 10
5.299999999999997
 20
3.1599999999999966
 10
5.299999999999997
 20
3.1799999999999784
 10
5.319999999999993
 20
3.1799999999999784
 10
5.319999999999993
 20
3.1999999999999886
 10
5.319999999999993
 20
3.219999999999999
 10
5.340000000000003
 20
3.219999999999999
 10
5.340000000000003
 20
3.2399999999999807
 10
5.340000000000003
 20
3.259999999999991
 10
5.359999999999999
 20
3.259999999999991
 10
5.359999999999999
 20
3.2799999999999727
 10
5.359999999999999
 20
3.299999999999983
 10
5.3799999999999955
 20
3.299999999999983
 10
5.3799999999999955
 20
3.319999999999993
 10
5.3799999999999955
 20
3.339999999999975
 10
5.400000000000006
 20
3.339999999999975
 10
5.400000000000006
 20
3.359999999999985
 10
5.400000000000006
 20
3.3799999999999955
 10
5.420000000000002
 20
3.3799999999999955
 10
5.420000000000002
 20
3.3999999999999773
 10
5.439999999999998
 20
3.4199999999999875
 10
5.439999999999998
 20
3.4399999999999977
 10
5.459999999999994
 20
3.4399999999999977
 10
5.459999999999994
 20
3.4599999999999795
 10
5.459999999999994
 20
3.4799999999999898
 10
5.480000000000004
 20
3.4799999999999898
 10
5.480000000000004
 20
3.5
 10
5.5
 20
3.519999999999982
 10
5.5
 20
3.539999999999992
 10
5.519999999999996
 20
3.539999999999992
 10
5.519999999999996
 20
3.559999999999974
 10
5.519999999999996
 20
3.579999999999984
 10
5.540000000000006
 20
3.579999999999984
 10
5.540000000000006
 20
3.5999999999999943
 10
5.540000000000006
 20
3.619999999999976
 10
5.560000000000002
 20
3.619999999999976
 10
5.560000000000002
 20
3.6399999999999864
 10
5.579999999999998
 20
3.6599999999999966
 10
5.579999999999998
 20
3.6799999999999784
 10
5.599999999999994
 20
3.6799999999999784
 10
5.599999999999994
 20
3.6999999999999886
 10
5.599999999999994
 20
3.719999999999999
 10
5.6200000000000045
 20
3.719999999999999
 10
5.6200000000000045
 20
3.7399999999999807
 10
5.6200000000000045
 20
3.759999999999991
 10
5.640000000000001
 20
3.759999999999991
 10
5.640000000000001
 20
3.7799999999999727
 10
5.640000000000001
 20
3.799999999999983
 10
5.659999999999997
 20
3.799999999999983
 10
5.659999999999997
 20
3.819999999999993
 10
5.659999999999997
 20
3.839999999999975
 10
5.679999999999993
 20
3.839999999999975
 10
5.679999999999993
 20
3.859999999999985
 10
5.679999999999993
 20
3.8799999999999955
 10
5.679999999999993
 20
3.8999999999999773
 10
5.700000000000003
 20
3.8999999999999773
 10
5.700000000000003
 20
3.9199999999999875
 10
5.700000000000003
 20
3.9399999999999977
 10
5.719999999999999
 20
3.9399999999999977
 10
5.719999999999999
 20
3.9599999999999795
 10
5.719999999999999
 20
3.9799999999999898
 10
5.719999999999999
 20
4.0
 10
5.719999999999999
 20
4.019999999999982
 10
5.739999999999995
 20
4.019999999999982
 10
5.739999999999995
 20
4.039999999999992
 10
5.739999999999995
 20
4.059999999999974
 10
5.739999999999995
 20
4.079999999999984
 10
5.739999999999995
 20
4.099999999999994
 10
5.739999999999995
 20
4.119999999999976
 10
5.760000000000005
 20
4.139999999999986
 10
5.760000000000005
 20
4.159999999999997
 10
5.760000000000005
 20
4.179999999999978
 10
5.760000000000005
 20
4.199999999999989
 10
5.760000000000005
 20
4.219999999999999
 10
5.760000000000005
 20
4.239999999999981
 10
5.760000000000005
 20
4.259999999999991
 10
5.760000000000005
 20
4.279999999999973
 10
5.739999999999995
 20
4.299999999999983
 10
5.739999999999995
 20
4.319999999999993
 10
5.739999999999995
 20
4.339999999999975
 10
5.739999999999995
 20
4.359999999999985
 10
5.739999999999995
 20
4.3799999999999955
 10
5.739999999999995
 20
4.399999999999977
 10
5.719999999999999
 20
4.399999999999977
 10
5.719999999999999
 20
4.4199999999999875
 10
5.719999999999999
 20
4.439999999999998
 10
5.719999999999999
 20
4.4599999999999795
 10
5.719999999999999
 20
4.47999999999999
 10
5.700000000000003
 20
4.47999999999999
 10
5.700000000000003
 20
4.5
 10
5.700000000000003
 20
4.519999999999982
 10
5.679999999999993
 20
4.539999999999992
 10
5.679999999999993
 20
4.559999999999974
 10
5.679999999999993
 20
4.579999999999984
 10
5.659999999999997
 20
4.579999999999984
 10
5.659999999999997
 20
4.599999999999994
 10
5.659999999999997
 20
4.619999999999976
 10
5.640000000000001
 20
4.619999999999976
 10
5.640000000000001
 20
4.639999999999986
 10
5.640000000000001
 20
4.659999999999997
 10
5.6200000000000045
 20
4.659999999999997
 10
5.6200000000000045
 20
4.679999999999978
 10
5.6200000000000045
 20
4.699999999999989
 10
5.599999999999994
 20
4.699999999999989
 10
5.599999999999994
 20
4.719999999999999
 10
5.599999999999994
 20
4.739999999999981
 10
5.579999999999998
 20
4.739999999999981
 10
5.579999999999998
 20
4.759999999999991
 10
5.319999999999993
 20
4.97999999999999
 10
5.060000000000002
 20
5.239999999999981
 10
4.819999999999993
 20
5.5
 10
4.599999999999994
 20
5.759999999999991
 10
4.599999999999994
 20
5.779999999999973
 10
4.579999999999998
 20
5.779999999999973
 10
4.560000000000002
 20
5.779999999999973
 10
4.560000000000002
 20
5.799999999999983
 10
4.540000000000006
 20
5.799999999999983
 10
4.519999999999996
 20
5.799999999999983
 10
4.519999999999996
 20
5.819999999999993
 10
4.5
 20
5.819999999999993
 10
4.480000000000004
 20
5.839999999999975
 10
4.459999999999994
 20
5.839999999999975
 10
4.459999999999994
 20
5.859999999999985
 10
4.439999999999998
 20
5.859999999999985
 10
4.420000000000002
 20
5.859999999999985
 10
4.420000000000002
 20
5.8799999999999955
 10
4.400000000000006
 20
5.8799999999999955
 10
4.3799999999999955
 20
5.8799999999999955
 10
4.359999999999999
 20
5.8799999999999955
 10
4.359999999999999
 20
5.899999999999977
 10
4.340000000000003
 20
5.899999999999977
 10
4.319999999999993
 20
5.899999999999977
 10
4.319999999999993
 20
5.9199999999999875
 10
4.299999999999997
 20
5.9199999999999875
 10
4.280000000000001
 20
5.9199999999999875
 10
4.260000000000005
 20
5.9199999999999875
 10
4.239999999999995
 20
5.939999999999998
 10
4.219999999999999
 20
5.939999999999998
 10
4.200000000000003
 20
5.939999999999998
 10
4.179999999999993
 20
5.939999999999998
 10
4.159999999999997
 20
5.939999999999998
 10
4.159999999999997
 20
5.9599999999999795
 10
4.140000000000001
 20
5.9599999999999795
 10
4.1200000000000045
 20
5.9599999999999795
 10
4.099999999999994
 20
5.9599999999999795
 10
4.079999999999998
 20
5.9599999999999795
 10
4.060000000000002
 20
5.9599999999999795
 10
4.040000000000006
 20
5.9599999999999795
 10
4.019999999999996
 20
5.9599999999999795
 10
4.0
 20
5.9599999999999795
 10
3.980000000000004
 20
5.9599999999999795
 10
3.9599999999999937
 20
5.9599999999999795
 10
3.9399999999999977
 20
5.9599999999999795
 10
3.9200000000000017
 20
5.9599999999999795
 10
3.9000000000000057
 20
5.9599999999999795
 10
3.9000000000000057
 20
5.939999999999998
 10
3.8799999999999955
 20
5.939999999999998
 10
3.8599999999999994
 20
5.939999999999998
 10
3.8400000000000034
 20
5.939999999999998
 10
3.819999999999993
 20
5.939999999999998
 10
3.819999999999993
 20
5.9199999999999875
 10
3.799999999999997
 20
5.9199999999999875
 10
3.780000000000001
 20
5.9199999999999875
 10
3.760000000000005
 20
5.9199999999999875
 10
3.739999999999995
 20
5.899999999999977
 10
3.719999999999999
 20
5.899999999999977
 10
3.700000000000003
 20
5.899999999999977
 10
3.700000000000003
 20
5.8799999999999955
 10
3.6799999999999926
 20
5.8799999999999955
 10
3.6599999999999966
 20
5.8799999999999955
 10
3.6400000000000006
 20
5.859999999999985
 10
3.6200000000000045
 20
5.859999999999985
 10
3.5999999999999943
 20
5.859999999999985
 10
3.5999999999999943
 20
5.839999999999975
 10
3.5799999999999983
 20
5.839999999999975
 10
3.5600000000000023
 20
5.839999999999975
 10
3.5600000000000023
 20
5.819999999999993
 10
3.5400000000000063
 20
5.819999999999993
 10
3.519999999999996
 20
5.819999999999993
 10
3.519999999999996
 20
5.799999999999983
 10
3.5
 20
5.799999999999983
 10
3.480000000000004
 20
5.779999999999973
 10
3.4599999999999937
 20
5.779999999999973
 10
3.4399999999999977
 20
5.759999999999991
 10
3.4200000000000017
 20
5.759999999999991
 10
3.4000000000000057
 20
5.739999999999981
 10
3.3799999999999955
 20
5.739999999999981
 10
3.3799999999999955
 20
5.719999999999999
 10
3.3599999999999994
 20
5.719999999999999
 10
3.3400000000000034
 20
5.719999999999999
 10
3.3400000000000034
 20
5.699999999999989
 10
3.319999999999993
 20
5.699999999999989
 10
3.299999999999997
 20
5.699999999999989
 10
3.299999999999997
 20
5.679999999999978
 10
3.280000000000001
 20
5.679999999999978
 10
3.260000000000005
 20
5.679999999999978
 10
3.260000000000005
 20
5.659999999999997
 10
3.239999999999995
 20
5.659999999999997
 10
3.219999999999999
 20
5.659999999999997
 10
3.219999999999999
 20
5.639999999999986
 10
3.200000000000003
 20
5.639999999999986
 10
3.1799999999999926
 20
5.639999999999986
 10
3.1799999999999926
 20
5.619999999999976
 10
3.1599999999999966
 20
5.619999999999976
 10
3.1400000000000006
 20
5.599999999999994
 10
3.1200000000000045
 20
5.599999999999994
 10
3.0999999999999943
 20
5.579999999999984
 10
3.0799999999999983
 20
5.579999999999984
 10
3.0600000000000023
 20
5.579999999999984
 10
3.0600000000000023
 20
5.559999999999974
 10
3.0400000000000063
 20
5.559999999999974
 10
3.019999999999996
 20
5.559999999999974
 10
3.019999999999996
 20
5.539999999999992
 10
3.0
 20
5.539999999999992
 10
2.980000000000004
 20
5.539999999999992
 10
2.9599999999999937
 20
5.519999999999982
 10
2.9399999999999977
 20
5.519999999999982
 10
2.9200000000000017
 20
5.5
 10
2.9000000000000057
 20
5.5
 10
2.8799999999999955
 20
5.5
 10
2.8799999999999955
 20
5.47999999999999
 10
2.8599999999999994
 20
5.47999999999999
 10
2.8400000000000034
 20
5.47999999999999
 10
2.819999999999993
 20
5.47999999999999
 10
2.819999999999993
 20
5.4599999999999795
 10
2.799999999999997
 20
5.4599999999999795
 10
2.780000000000001
 20
5.4599999999999795
 10
2.760000000000005
 20
5.4599999999999795
 10
2.760000000000005
 20
5.439999999999998
 10
2.739999999999995
 20
5.439999999999998
 10
2.719999999999999
 20
5.439999999999998
 10
2.700000000000003
 20
5.439999999999998
 10
2.700000000000003
 20
5.4199999999999875
 10
2.6799999999999926
 20
5.4199999999999875
 10
2.6599999999999966
 20
5.4199999999999875
 10
2.6400000000000006
 20
5.4199999999999875
 10
2.6200000000000045
 20
5.4199999999999875
 10
2.6200000000000045
 20
5.399999999999977
 10
2.5999999999999943
 20
5.399999999999977
 10
2.5799999999999983
 20
5.399999999999977
 10
2.5600000000000023
 20
5.399999999999977
 10
2.5400000000000063
 20
5.399999999999977
 10
2.5400000000000063
 20
5.3799999999999955
 10
2.519999999999996
 20
5.3799999999999955
 10
2.5
 20
5.3799999999999955
 10
2.480000000000004
 20
5.3799999999999955
 10
2.4599999999999937
 20
5.3799999999999955
 10
2.4399999999999977
 20
5.3799999999999955
 10
2.4399999999999977
 20
5.359999999999985
 10
2.4200000000000017
 20
5.359999999999985
 10
2.4000000000000057
 20
5.359999999999985
 10
2.3799999999999955
 20
5.359999999999985
 10
2.3599999999999994
 20
5.359999999999985
 10
2.3400000000000034
 20
5.359999999999985
 10
2.319999999999993
 20
5.359999999999985
 10
2.299999999999997
 20
5.339999999999975
 10
2.280000000000001
 20
5.339999999999975
 10
2.260000000000005
 20
5.339999999999975
 10
2.239999999999995
 20
5.339999999999975
 10
2.219999999999999
 20
5.339999999999975
 10
2.200000000000003
 20
5.339999999999975
 10
2.1799999999999926
 20
5.339999999999975
 10
2.1599999999999966
 20
5.339999999999975
 10
2.1400000000000006
 20
5.339999999999975
 10
2.1200000000000045
 20
5.339999999999975
 10
2.0999999999999943
 20
5.339999999999975
 10
2.0799999999999983
 20
5.339999999999975
 10
2.0799999999999983
 20
5.319999999999993
 10
2.0600000000000023
 20
5.319999999999993
 10
2.0400000000000063
 20
5.319999999999993
 10
2.019999999999996
 20
5.319999999999993
 10
2.0
 20
5.319999999999993
 10
1.980000000000004
 20
5.319999999999993
 10
1.9599999999999937
 20
5.319999999999993
 10
1.9399999999999977
 20
5.319999999999993
 10
1.9200000000000017
 20
5.319999999999993
 10
1.9000000000000057
 20
5.319999999999993
 10
1.8799999999999955
 20
5.319999999999993
 10
1.8599999999999994
 20
5.319999999999993
 10
1.8400000000000034
 20
5.319999999999993
 10
1.8199999999999932
 20
5.319999999999993
 10
1.7999999999999972
 20
5.319999999999993
 10
1.7800000000000011
 20
5.319999999999993
 10
1.7600000000000051
 20
5.319999999999993
 10
1.7399999999999949
 20
5.319999999999993
 10
1.7199999999999989
 20
5.319999999999993
 10
1.7000000000000028
 20
5.319999999999993
 10
1.6799999999999926
 20
5.319999999999993
 10
1.6599999999999966
 20
5.339999999999975
 10
1.6400000000000006
 20
5.339999999999975
 10
1.6200000000000045
 20
5.339999999999975
 10
1.5999999999999943
 20
5.339999999999975
 10
1.5799999999999983
 20
5.339999999999975
 10
1.5600000000000023
 20
5.339999999999975
 10
1.5400000000000063
 20
5.339999999999975
 10
1.519999999999996
 20
5.339999999999975
 10
1.5
 20
5.339999999999975
 10
1.480000000000004
 20
5.339999999999975
 10
1.4599999999999937
 20
5.339999999999975
 10
1.4399999999999977
 20
5.339999999999975
 10
1.4200000000000017
 20
5.339999999999975
 10
1.4000000000000057
 20
5.339999999999975
 10
1.4000000000000057
 20
5.359999999999985
 10
1.3799999999999955
 20
5.359999999999985
 10
1.3599999999999994
 20
5.359999999999985
 10
1.3400000000000034
 20
5.359999999999985
 10
1.3199999999999932
 20
5.359999999999985
 10
1.2999999999999972
 20
5.359999999999985
 10
1.2800000000000011
 20
5.359999999999985
 10
1.2600000000000051
 20
5.359999999999985
 10
1.2399999999999949
 20
5.359999999999985
 10
1.2399999999999949
 20
5.3799999999999955
 10
1.2199999999999989
 20
5.3799999999999955
 10
1.2000000000000028
 20
5.3799999999999955
 10
1.1799999999999926
 20
5.3799999999999955
 10
1.1599999999999966
 20
5.3799999999999955
 10
1.1400000000000006
 20
5.3799999999999955
 10
1.1200000000000045
 20
5.3799999999999955
 10
1.0999999999999943
 20
5.3799999999999955
 10
1.0799999999999983
 20
5.399999999999977
 10
1.0600000000000023
 20
5.399999999999977
 10
1.0400000000000063
 20
5.399999999999977
 10
1.019999999999996
 20
5.399999999999977
 10
1.0
 20
5.399999999999977
 10
0.980000000000004
 20
5.399999999999977
 10
0.9599999999999937
 20
5.399999999999977
 10
0.9599999999999937
 20
5.4199999999999875
 10
0.9399999999999977
 20
5.4199999999999875
 10
0.9200000000000017
 20
5.4199999999999875
 10
0.9000000000000057
 20
5.4199999999999875
 10
0.8799999999999955
 20
5.4199999999999875
 10
0.8599999999999994
 20
5.4199999999999875
 10
0.8599999999999994
 20
5.439999999999998
 10
0.8400000000000034
 20
5.439999999999998
 10
0.8199999999999932
 20
5.439999999999998
 10
0.7999999999999972
 20
5.439999999999998
 10
0.7800000000000011
 20
5.439999999999998
 10
0.7600000000000051
 20
5.439999999999998
  0
LWPOLYLINE
  5
31
330
17
100
AcDbEntity
  8
CORTE
100
AcDbPolyline
 90
16
 70
1
 10
11.86
 20
10.359999999999985
 10
11.739999999999995
 20
10.939999999999998
 10
11.420000000000002
 20
11.419999999999987
 10
10.939999999999998
 20
11.73999999999998
 10
10.36
 20
11.859999999999985
 10
9.760000000000005
 20
11.73999999999998
 10
9.299999999999997
 20
11.419999999999987
 10
8.980000000000004
 20
10.939999999999998
 10
8.86
 20
10.359999999999985
 10
8.980000000000004
 20
9.779999999999973
 10
9.299999999999997
 20
9.299999999999983
 10
9.760000000000005
 20
8.97999999999999
 10
10.36
 20
8.859999999999985
 10
10.939999999999998
 20
8.97999999999999
 10
11.420000000000002
 20
9.299999999999983
 10
11.739999999999995
 20
9.779999999999973
  0
LWPOLYLINE
  5
32
330
17
100
AcDbEntity
  8
CORTE
100
AcDbPolyline
 90
16
 70
1
 10
20.480000000000004
 20
10.359999999999985
 10
20.379999999999995
 20
10.879999999999995
 10
20.099999999999994
 20
11.299999999999983
 10
19.679999999999993
 20
11.579999999999984
 10
19.159999999999997
 20
11.679999999999978
 10
18.64
 20
11.579999999999984
 10
18.22
 20
11.299999999999983
 10
17.939999999999998
 20
10.879999999999995
 10
17.840000000000003
 20
10.359999999999985
 10
17.939999999999998
 20
9.839999999999975
 10
18.22
 20
9.419999999999987
 10
18.64
 20
9.139999999999986
 10
19.159999999999997
 20
9.039999999999992
 10
19.679999999999993
 20
9.139999999999986
 10
20.099999999999994
 20
9.419999999999987
 10
20.379999999999995
 20
9.839999999999975
  0
ENDSEC
  0
SECTION
  2
OBJECTS
  0
DICTIONARY
  5
A
330
0
100
AcDbDictionary
281
1
  3
ACAD_COLOR
350
B
  3
ACAD_GROUP
350
C
  3
ACAD_LAYOUT
350
D
  3
ACAD_MATERIAL
350
E
  3
ACAD_MLEADERSTYLE
350
F
  3
ACAD_MLINESTYLE
350
10
  3
ACAD_PLOTSETTINGS
350
11
  3
ACAD_PLOTSTYLENAME
350
12
  3
ACAD_SCALELIST
350
14
  3
ACAD_TABLESTYLE
350
15
  3
ACAD_VISUALSTYLE
350
16
  3
EZDXF_META
350
2D
  0
DICTIONARY
  5
B
330
A
100
AcDbDictionary
281
1
  0
DICTIONARY
  5
C
330
A
100
AcDbDictionary
281
1
  0
DICTIONARY
  5
D
330
A
100
AcDbDictionary
281
1
  3
Model
350
1A
  3
Layout1
350
1E
  0
DICTIONARY
  5
E
330
A
100
AcDbDictionary
281
1
  3
ByBlock
350
1F
  3
ByLayer
350
20
  3
Global
350
21
  0
DICTIONARY
  5
F
330
A
100
AcDbDictionary
281
1
  3
Standard
350
2C
  0
DICTIONARY
  5
10
330
A
100
AcDbDictionary
281
1
  3
Standard
350
22
  0
DICTIONARY
  5
11
330
A
100
AcDbDictionary
281
1
  0
ACDBDICTIONARYWDFLT
  5
12
330
A
100
AcDbDictionary
281
1
  3
Normal
350
13
100
AcDbDictionaryWithDefault
340
13
  0
ACDBPLACEHOLDER
  5
13
330
12
  0
DICTIONARY
  5
14
330
A
100
AcDbDictionary
281
1
  0
DICTIONARY
  5
15
330
A
100
AcDbDictionary
281
1
  0
DICTIONARY
  5
16
330
A
100
AcDbDictionary
281
1
  0
LAYOUT
  5
1A
330
D
100
AcDbPlotSettings
  1

  4
A3
  6

 40
7.5
 41
20.0
 42
7.5
 43
20.0
 44
420.0
 45
297.0
 46
0.0
 47
0.0
 48
0.0
 49
0.0
140
0.0
141
0.0
142
1.0
143
1.0
 70
1024
 72
1
 73
0
 74
5
  7

 75
16
 76
0
 77
2
 78
300
147
1.0
148
0.0
149
0.0
100
AcDbLayout
  1
Model
 70
1
 71
0
 10
0.0
 20
0.0
 11
420.0
 21
297.0
 12
0.0
 22
0.0
 32
0.0
 14
1e+20
 24
1e+20
 34
1e+20
 15
-1e+20
 25
-1e+20
 35
-1e+20
146
0.0
 13
0.0
 23
0.0
 33
0.0
 16
1.0
 26
0.0
 36
0.0
 17
0.0
 27
1.0
 37
0.0
 76
1
330
17
  0
LAYOUT
  5
1E
330
D
100
AcDbPlotSettings
  1

  4
A3
  6

 40
7.5
 41
20.0
 42
7.5
 43
20.0
 44
420.0
 45
297.0
 46
0.0
 47
0.0
 48
0.0
 49
0.0
140
0.0
141
0.0
142
1.0
143
1.0
 70
0
 72
1
 73
0
 74
5
  7

 75
16
 76
0
 77
2
 78
300
147
1.0
148
0.0
149
0.0
100
AcDbLayout
  1
Layout1
 70
1
 71
1
 10
0.0
 20
0.0
 11
420.0
 21
297.0
 12
0.0
 22
0.0
 32
0.0
 14
1e+20
 24
1e+20
 34
1e+20
 15
-1e+20
 25
-1e+20
 35
-1e+20
146
0.0
 13
0.0
 23
0.0
 33
0.0
 16
1.0
 26
0.0
 36
0.0
 17
0.0
 27
1.0
 37
0.0
 76
1
330
1B
  0
MATERIAL
  5
1F
102
{ACAD_REACTORS
330
E
102
}
330
E
100
AcDbMaterial
  1
ByBlock
  2

 70
0
 40
1.0
 71
1
 41
1.0
 91
-1023410177
 42
1.0
 72
1
  3

 73
1
 74
1
 75
1
 44
0.5
 73
0
 45
1.0
 46
1.0
 77
1
  4

 78
1
 79
1
170
1
 48
1.0
171
1
  6

172
1
173
1
174
1
140
1.0
141
1.0
175
1
  7

176
1
177
1
178
1
143
1.0
179
1
  8

270
1
271
1
272
1
145
1.0
146
1.0
273
1
  9

274
1
275
1
276
1
 42
1.0
 72
1
  3

 73
1
 74
1
 75
1
 94
63
  0
MATERIAL
  5
20
102
{ACAD_REACTORS
330
E
102
}
330
E
100
AcDbMaterial
  1
ByLayer
  2

 70
0
 40
1.0
 71
1
 41
1.0
 91
-1023410177
 42
1.0
 72
1
  3

 73
1
 74
1
 75
1
 44
0.5
 73
0
 45
1.0
 46
1.0
 77
1
  4

 78
1
 79
1
170
1
 48
1.0
171
1
  6

172
1
173
1
174
1
140
1.0
141
1.0
175
1
  7

176
1
177
1
178
1
143
1.0
179
1
  8

270
1
271
1
272
1
145
1.0
146
1.0
273
1
  9

274
1
275
1
276
1
 42
1.0
 72
1
  3

 73
1
 74
1
 75
1
 94
63
  0
MATERIAL
  5
21
102
{ACAD_REACTORS
330
E
102
}
330
E
100
AcDbMaterial
  1
Global
  2

 70
0
 40
1.0
 71
1
 41
1.0
 91
-1023410177
 42
1.0
 72
1
  3

 73
1
 74
1
 75
1
 44
0.5
 73
0
 45
1.0
 46
1.0
 77
1
  4

 78
1
 79
1
170
1
 48
1.0
171
1
  6

172
1
173
1
174
1
140
1.0
141
1.0
175
1
  7

176
1
177
1
178
1
143
1.0
179
1
  8

270
1
271
1
272
1
145
1.0
146
1.0
273
1
  9

274
1
275
1
276
1
 42
1.0
 72
1
  3

 73
1
 74
1
 75
1
 94
63
  0
MLINESTYLE
  5
22
102
{ACAD_REACTORS
330
10
102
}
330
10
100
AcDbMlineStyle
  2
Standard
 70
0
  3

 62
256
 51
90.0
 52
90.0
 71
2
 49
0.5
 62
256
  6
BYLAYER
 49
-0.5
 62
256
  6
BYLAYER
  0
MLEADERSTYLE
  5
2C
102
{ACAD_REACTORS
330
F
102
}
330
F
100
AcDbMLeaderStyle
179
2
170
2
171
1
172
0
 90
2
 40
0.0
 41
0.0
173
1
 91
-1056964608
 92
-2
290
1
 42
2.0
291
1
 43
8.0
  3
Standard
 44
4.0
300

342
29
174
1
175
1
176
0
178
1
 93
-1056964608
 45
4.0
292
0
297
0
 46
4.0
 94
-1056964608
 47
1.0
 49
1.0
140
1.0
294
1
141
0.0
177
0
142
1.0
295
0
296
0
143
3.75
271
0
272
9
273
9
  0
DICTIONARY
  5
2D
330
A
100
AcDbDictionary
280
1
281
1
  3
CREATED_BY_EZDXF
350
2E
  3
WRITTEN_BY_EZDXF
350
35
  0
DICTIONARYVAR
  5
2E
330
2D
100
DictionaryVariables
280
0
  1
1.4.4 @ 2026-10-06T16:56:35.037318+00:00
  0
DICTIONARYVAR
  5
35
330
2D
100
DictionaryVariables
280
0
  1
1.4.4 @ 2026-10-06T16:56:35.054132+00:00
  0
ENDSEC
  0
EOF
