  0
SECTION
  2
HEADER
  9
$ACADVER
  1
AC1015
  9
$ACADMAINTVER
 70
6
  9
$DWGCODEPAGE
  3
ANSI_1252
  9
$INSBASE
 10
0.0
 20
0.0
 30
0.0
  9
$EXTMIN
 10
1e+20
 20
1e+20
 30
1e+20
  9
$EXTMAX
 10
-1e+20
 20
-1e+20
 30
-1e+20
  9
$LIMMIN
 10
0.0
 20
0.0
  9
$LIMMAX
 10
420.0
 20
297.0
  9
$ORTHOMODE
 70
0
  9
$REGENMODE
 70
1
  9
$FILLMODE
 70
1
  9
$QTEXTMODE
 70
0
  9
$MIRRTEXT
 70
1
  9
$LTSCALE
 40
1.0
  9
$ATTMODE
 70
1
  9
$TEXTSIZE
 40
2.5
  9
$TRACEWID
 40
1.0
  9
$TEXTSTYLE
  7
Standard
  9
$CLAYER
  8
0
  9
$CELTYPE
  6
ByLayer
  9
$CECOLOR
 62
256
  9
$CELTSCALE
 40
1.0
  9
$DISPSILH
 70
0
  9
$DIMSCALE
 40
1.0
  9
$DIMASZ
 40
2.5
  9
$DIMEXO
 40
0.625
  9
$DIMDLI
 40
3.75
  9
$DIMRND
 40
0.0
  9
$DIMDLE
 40
0.0
  9
$DIMEXE
 40
1.25
  9
$DIMTP
 40
0.0
  9
$DIMTM
 40
0.0
  9
$DIMTXT
 40
2.5
  9
$DIMCEN
 40
2.5
  9
$DIMTSZ
 40
0.0
  9
$DIMTOL
 70
0
  9
$DIMLIM
 70
0
  9
$DIMTIH
 70
0
  9
$DIMTOH
 70
0
  9
$DIMSE1
 70
0
  9
$DIMSE2
 70
0
  9
$DIMTAD
 70
1
  9
$DIMZIN
 70
8
  9
$DIMBLK
  1

  9
$DIMASO
 70
1
  9
$DIMSHO
 70
1
  9
$DIMPOST
  1

  9
$DIMAPOST
  1

  9
$DIMALT
 70
0
  9
$DIMALTD
 70
3
  9
$DIMALTF
 40
0.03937007874
  9
$DIMLFAC
 40
1.0
  9
$DIMTOFL
 70
1
  9
$DIMTVP
 40
0.0
  9
$DIMTIX
 70
0
  9
$DIMSOXD
 70
0
  9
$DIMSAH
 70
0
  9
$DIMBLK1
  1

  9
$DIMBLK2
  1

  9
$DIMSTYLE
  2
ISO-25
  9
$DIMCLRD
 70
0
  9
$DIMCLRE
 70
0
  9
$DIMCLRT
 70
0
  9
$DIMTFAC
 40
1.0
  9
$DIMGAP
 40
0.625
  9
$DIMJUST
 70
0
  9
$DIMSD1
 70
0
  9
$DIMSD2
 70
0
  9
$DIMTOLJ
 70
0
  9
$DIMTZIN
 70
8
  9
$DIMALTZ
 70
0
  9
$DIMALTTZ
 70
0
  9
$DIMUPT
 70
0
  9
$DIMDEC
 70
2
  9
$DIMTDEC
 70
2
  9
$DIMALTU
 70
2
  9
$DIMALTTD
 70
3
  9
$DIMTXSTY
  7
Standard
  9
$DIMAUNIT
 70
0
  9
$DIMADEC
 70
0
  9
$DIMALTRND
 40
0.0
  9
$DIMAZIN
 70
0
  9
$DIMDSEP
 70
44
  9
$DIMATFIT
 70
3
  9
$DIMFRAC
 70
0
  9
$DIMLDRBLK
  1

  9
$DIMLUNIT
 70
2
  9
$DIMLWD
 70
-2
  9
$DIMLWE
 70
-2
  9
$DIMTMOVE
 70
0
  9
$LUNITS
 70
2
  9
$LUPREC
 70
4
  9
$SKETCHINC
 40
1.0
  9
$FILLETRAD
 40
10.0
  9
$AUNITS
 70
0
  9
$AUPREC
 70
2
  9
$MENU
  1
.
  9
$ELEVATION
 40
0.0
  9
$PELEVATION
 40
0.0
  9
$THICKNESS
 40
0.0
  9
$LIMCHECK
 70
0
  9
$CHAMFERA
 40
0.0
  9
$CHAMFERB
 40
0.0
  9
$CHAMFERC
 40
0.0
  9
$CHAMFERD
 40
0.0
  9
$SKPOLY
 70
0
  9
$TDCREATE
 40
2461320.7116435184
  9
$TDUCREATE
 40
2458532.153996898
  9
$TDUPDATE
 40
2461320.7116435184
  9
$TDUUPDATE
 40
2458532.1544311
  9
$TDINDWG
 40
0.0
  9
$TDUSRTIMER
 40
0.0
  9
$USRTIMER
 70
1
  9
$ANGBASE
 50
0.0
  9
$ANGDIR
 70
0
  9
$PDMODE
 70
0
  9
$PDSIZE
 40
0.0
  9
$PLINEWID
 40
0.0
  9
$SPLFRAME
 70
0
  9
$SPLINETYPE
 70
6
  9
$SPLINESEGS
 70
8
  9
$HANDSEED
  5
35
  9
$SURFTAB1
 70
6
  9
$SURFTAB2
 70
6
  9
$SURFTYPE
 70
6
  9
$SURFU
 70
6
  9
$SURFV
 70
6
  9
$UCSBASE
  2

  9
$UCSNAME
  2

  9
$UCSORG
 10
0.0
 20
0.0
 30
0.0
  9
$UCSXDIR
 10
1.0
 20
0.0
 30
0.0
  9
$UCSYDIR
 10
0.0
 20
1.0
 30
0.0
  9
$UCSORTHOREF
  2

  9
$UCSORTHOVIEW
 70
0
  9
$UCSORGTOP
 10
0.0
 20
0.0
 30
0.0
  9
$UCSORGBOTTOM
 10
0.0
 20
0.0
 30
0.0
  9
$UCSORGLEFT
 10
0.0
 20
0.0
 30
0.0
  9
$UCSORGRIGHT
 10
0.0
 20
0.0
 30
0.0
  9
$UCSORGFRONT
 10
0.0
 20
0.0
 30
0.0
  9
$UCSORGBACK
 10
0.0
 20
0.0
 30
0.0
  9
$PUCSBASE
  2

  9
$PUCSNAME
  2

  9
$PUCSORG
 10
0.0
 20
0.0
 30
0.0
  9
$PUCSXDIR
 10
1.0
 20
0.0
 30
0.0
  9
$PUCSYDIR
 10
0.0
 20
1.0
 30
0.0
  9
$PUCSORTHOREF
  2

  9
$PUCSORTHOVIEW
 70
0
  9
$PUCSORGTOP
 10
0.0
 20
0.0
 30
0.0
  9
$PUCSORGBOTTOM
 10
0.0
 20
0.0
 30
0.0
  9
$PUCSORGLEFT
 10
0.0
 20
0.0
 30
0.0
  9
$PUCSORGRIGHT
 10
0.0
 20
0.0
 30
0.0
  9
$PUCSORGFRONT
 10
0.0
 20
0.0
 30
0.0
  9
$PUCSORGBACK
 10
0.0
 20
0.0
 30
0.0
  9
$USERI1
 70
0
  9
$USERI2
 70
0
  9
$USERI3
 70
0
  9
$USERI4
 70
0
  9
$USERI5
 70
0
  9
$USERR1
 40
0.0
  9
$USERR2
 40
0.0
  9
$USERR3
 40
0.0
  9
$USERR4
 40
0.0
  9
$USERR5
 40
0.0
  9
$WORLDVIEW
 70
1
  9
$SHADEDGE
 70
3
  9
$SHADEDIF
 70
70
  9
$TILEMODE
 70
1
  9
$MAXACTVP
 70
64
  9
$PINSBASE
 10
0.0
 20
0.0
 30
0.0
  9
$PLIMCHECK
 70
0
  9
$PEXTMIN
 10
1e+20
 20
1e+20
 30
1e+20
  9
$PEXTMAX
 10
-1e+20
 20
-1e+20
 30
-1e+20
  9
$PLIMMIN
 10
0.0
 20
0.0
  9
$PLIMMAX
 10
420.0
 20
297.0
  9
$UNITMODE
 70
0
  9
$VISRETAIN
 70
1
  9
$PLINEGEN
 70
0
  9
$PSLTSCALE
 70
1
  9
$TREEDEPTH
 70
3020
  9
$CMLSTYLE
  2
Standard
  9
$CMLJUST
 70
0
  9
$CMLSCALE
 40
20.0
  9
$PROXYGRAPHICS
 70
1
  9
$MEASUREMENT
 70
1
  9
$CELWEIGHT
370
-1
  9
$ENDCAPS
280
0
  9
$JOINSTYLE
280
0
  9
$LWDISPLAY
290
0
  9
$INSUNITS
 70
4
  9
$HYPERLINKBASE
  1

  9
$STYLESHEET
  1

  9
$XEDIT
290
1
  9
$CEPSNTYPE
380
0
  9
$PSTYLEMODE
290
1
  9
$FINGERPRINTGUID
  2
{A1D6E810-9E20-43EC-9190-B32F50E061B8}
  9
$VERSIONGUID
  2
{9DAC8C17-A234-4AFF-9347-D03EEF089688}
  9
$EXTNAMES
290
1
  9
$PSVPSCALE
 40
0.0
  9
$OLESTARTUP
290
0
  0
ENDSEC
  0
SECTION
  2
CLASSES
  0
CLASS
  1
ACDBDICTIONARYWDFLT
  2
AcDbDictionaryWithDefault
  3
ObjectDBX Classes
 90
0
280
0
281
0
  0
CLASS
  1
SUN
  2
AcDbSun
  3
SCENEOE
 90
1153
280
0
281
0
  0
CLASS
  1
VISUALSTYLE
  2
AcDbVisualStyle
  3
ObjectDBX Classes
 90
4095
280
0
281
0
  0
CLASS
  1
MATERIAL
  2
AcDbMaterial
  3
ObjectDBX Classes
 90
1153
280
0
281
0
  0
CLASS
  1
SCALE
  2
AcDbScale
  3
ObjectDBX Classes
 90
1153
280
0
281
0
  0
CLASS
  1
TABLESTYLE
  2
AcDbTableStyle
  3
ObjectDBX Classes
 90
4095
280
0
281
0
  0
CLASS
  1
MLEADERSTYLE
  2
AcDbMLeaderStyle
  3
ACDB_MLEADERSTYLE_CLASS
 90
4095
280
0
281
0
  0
CLASS
  1
DICTIONARYVAR
  2
AcDbDictionaryVar
  3
ObjectDBX Classes
 90
0
280
0
281
0
  0
CLASS
  1
CELLSTYLEMAP
  2
AcDbCellStyleMap
  3
ObjectDBX Classes
 90
1152
280
0
281
0
  0
CLASS
  1
MENTALRAYRENDERSETTINGS
  2
AcDbMentalRayRenderSettings
  3
SCENEOE
 90
1024
280
0
281
0
  0
CLASS
  1
ACDBDETAILVIEWSTYLE
  2
AcDbDetailViewStyle
  3
ObjectDBX Classes
 90
1025
280
0
281
0
  0
CLASS
  1
ACDBSECTIONVIEWSTYLE
  2
AcDbSectionViewStyle
  3
ObjectDBX Classes
 90
1025
280
0
281
0
  0
CLASS
  1
RASTERVARIABLES
  2
AcDbRasterVariables
  3
ISM
 90
0
280
0
281
0
  0
CLASS
  1
ACDBPLACEHOLDER
  2
AcDbPlaceHolder
  3
ObjectDBX Classes
 90
0
280
0
281
0
  0
CLASS
  1
LAYOUT
  2
AcDbLayout
  3
ObjectDBX Classes
 90
0
280
0
281
0
  0
ENDSEC
  0
SECTION
  2
TABLES
  0
TABLE
  2
VPORT
  5
8
330
0
100
AcDbSymbolTable
 70
1
  0
VPORT
  5
23
330
8
100
AcDbSymbolTableRecord
100
AcDbViewportTableRecord
  2
*Active
 70
0
 10
0.0
 20
0.0
 11
1.0
 21
1.0
 12
0.0
 22
0.0
 13
0.0
 23
0.0
 14
0.5
 24
0.5
 15
0.5
 25
0.5
 16
0.0
 26
0.0
 36
1.0
 17
0.0
 27
0.0
 37
0.0
 40
1000.0
 41
1.34
 42
50.0
 43
0.0
 44
0.0
 50
0.0
 51
0.0
 71
0
 72
1000
 73
1
 74
3
 75
0
 76
0
 77
0
 78
0
281
0
 65
0
146
0.0
  0
ENDTAB
  0
TABLE
  2
LTYPE
  5
2
330
0
100
AcDbSymbolTable
 70
3
  0
LTYPE
  5
24
330
2
100
AcDbSymbolTableRecord
100
AcDbLinetypeTableRecord
  2
ByBlock
 70
0
  3

 72
65
 73
0
 40
0.0
  0
LTYPE
  5
25
330
2
100
AcDbSymbolTableRecord
100
AcDbLinetypeTableRecord
  2
ByLayer
 70
0
  3

 72
65
 73
0
 40
0.0
  0
LTYPE
  5
26
330
2
100
AcDbSymbolTableRecord
100
AcDbLinetypeTableRecord
  2
Continuous
 70
0
  3

 72
65
 73
0
 40
0.0
  0
ENDTAB
  0
TABLE
  2
LAYER
  5
1
330
0
100
AcDbSymbolTable
 70
3
  0
LAYER
  5
27
330
1
100
AcDbSymbolTableRecord
100
AcDbLayerTableRecord
  2
0
 70
0
 62
7
  6
Continuous
370
-3
390
13
  0
LAYER
  5
28
330
1
100
AcDbSymbolTableRecord
100
AcDbLayerTableRecord
  2
Defpoints
 70
0
 62
7
  6
Continuous
290
0
370
-3
390
13
  0
LAYER
  5
2F
330
1
100
AcDbSymbolTableRecord
100
AcDbLayerTableRecord
  2
CORTE
 70
0
 62
7
  6
Continuous
370
-3
390
13
  0
ENDTAB
  0
TABLE
  2
STYLE
  5
5
330
0
100
AcDbSymbolTable
 70
1
  0
STYLE
  5
29
330
5
100
AcDbSymbolTableRecord
100
AcDbTextStyleTableRecord
  2
Standard
 70
0
 40
0.0
 41
1.0
 50
0.0
 71
0
 42
2.5
  3
txt
  4

  0
ENDTAB
  0
TABLE
  2
VIEW
  5
7
330
0
100
AcDbSymbolTable
 70
0
  0
ENDTAB
  0
TABLE
  2
UCS
  5
6
330
0
100
AcDbSymbolTable
 70
0
  0
ENDTAB
  0
TABLE
  2
APPID
  5
3
330
0
100
AcDbSymbolTable
 70
3
  0
APPID
  5
2A
330
3
100
AcDbSymbolTableRecord
100
AcDbRegAppTableRecord
  2
ACAD
 70
0
  0
APPID
  5
32
330
3
100
AcDbSymbolTableRecord
100
AcDbRegAppTableRecord
  2
HATCHBACKGROUNDCOLOR
 70
0
  0
APPID
  5
33
330
3
100
AcDbSymbolTableRecord
100
AcDbRegAppTableRecord
  2
EZDXF
 70
0
  0
ENDTAB
  0
TABLE
  2
DIMSTYLE
  5
4
330
0
100
AcDbSymbolTable
 70
1
100
AcDbDimStyleTable
  0
DIMSTYLE
105
2B
330
4
100
AcDbSymbolTableRecord
100
AcDbDimStyleTableRecord
  2
Standard
 70
0
  3

  4

 40
1.0
 41
2.5
 42
0.625
 43
3.75
 44
1.25
 45
0.0
 46
0.0
 47
0.0
 48
0.0
140
2.5
141
2.5
142
0.0
143
0.03937007874
144
1.0
145
0.0
146
1.0
147
0.625
148
0.0
 71
0
 72
0
 73
0
 74
0
 75
0
 76
0
 77
1
 78
8
 79
3
170
0
171
3
172
1
173
0
174
0
175
0
176
0
177
0
178
0
179
2
271
2
272
2
273
2
274
3
275
0
276
0
277
2
278
44
279
0
280
0
281
0
282
0
283
0
284
8
285
0
286
0
288
0
289
3
371
-2
372
-2
  0
ENDTAB
  0
TABLE
  2
BLOCK_RECORD
  5
9
330
0
100
AcDbSymbolTable
 70
2
  0
BLOCK_RECORD
  5
17
330
9
100
AcDbSymbolTableRecord
100
AcDbBlockTableRecord
  2
*Model_Space
340
1A
  0
BLOCK_RECORD
  5
1B
330
9
100
AcDbSymbolTableRecord
100
AcDbBlockTableRecord
  2
*Paper_Space
340
1E
  0
ENDTAB
  0
ENDSEC
  0
SECTION
  2
BLOCKS
  0
BLOCK
  5
18
330
17
100
AcDbEntity
  8
0
100
AcDbBlockBegin
  2
*Model_Space
 70
0
 10
0.0
 20
0.0
 30
0.0
  3
*Model_Space
  1

  0
ENDBLK
  5
19
330
17
100
AcDbEntity
  8
0
100
AcDbBlockEnd
  0
BLOCK
  5
1C
330
1B
100
AcDbEntity
  8
0
100
AcDbBlockBegin
  2
*Paper_Space
 70
0
 10
0.0
 20
0.0
 30
0.0
  3
*Paper_Space
  1

  0
ENDBLK
  5
1D
330
1B
100
AcDbEntity
  8
0
100
AcDbBlockEnd
  0
ENDSEC
  0
SECTION
  2
ENTITIES
  0
LWPOLYLINE
  5
30
330
17
100
AcDbEntity
  8
CORTE
100
AcDbPolyline
 90
507
 70
1
 10
41.040000000000006
 20
2.3999999999999915
 10
35.0
 20
2.3999999999999915
 10
35.0
 20
6.099999999999994
 10
20.0
 20
6.099999999999994
 10
20.0
 20
2.3999999999999915
 10
19.980000000000004
 20
2.3999999999999915
 10
12.52000000000001
 20
2.3999999999999915
 10
12.52000000000001
 20
0.0
 10
6.900000000000006
 20
0.0
 10
6.900000000000006
 20
2.3999999999999915
 10
6.6000000000000085
 20
2.3999999999999915
 10
6.320000000000007
 20
2.3999999999999915
 10
6.02000000000001
 20
2.3999999999999915
 10
5.720000000000013
 20
2.3999999999999915
 10
5.720000000000013
 20
0.0
 10
3.0200000000000102
 20
0.0
 10
3.0200000000000102
 20
0.14000000000000057
 10
3.0200000000000102
 20
2.3999999999999915
 10
0.0
 20
2.3999999999999915
 10
0.0
 20
8.899999999999991
 10
2.5
 20
8.899999999999991
 10
2.5
 20
15.959999999999994
 10
13.400000000000006
 20
16.33999999999999
 10
13.420000000000002
 20
16.33999999999999
 10
13.440000000000012
 20
16.33999999999999
 10
13.480000000000004
 20
16.33999999999999
 10
13.5
 20
16.33999999999999
 10
13.540000000000006
 20
16.33999999999999
 10
13.560000000000002
 20
16.33999999999999
 10
13.580000000000013
 20
16.33999999999999
 10
13.620000000000005
 20
16.33999999999999
 10
13.64
 20
16.33999999999999
 10
13.66000000000001
 20
16.33999999999999
 10
13.700000000000003
 20
16.33999999999999
 10
13.720000000000013
 20
16.33999999999999
 10
13.740000000000009
 20
16.33999999999999
 10
13.780000000000001
 20
16.33999999999999
 10
13.800000000000011
 20
16.319999999999993
 10
13.820000000000007
 20
16.319999999999993
 10
13.86
 20
16.319999999999993
 10
13.88000000000001
 20
16.319999999999993
 10
13.900000000000006
 20
16.319999999999993
 10
13.940000000000012
 20
16.319999999999993
 10
13.960000000000008
 20
16.319999999999993
 10
13.980000000000004
 20
16.319999999999993
 10
14.02000000000001
 20
16.319999999999993
 10
14.040000000000006
 20
16.319999999999993
 10
14.060000000000002
 20
16.319999999999993
 10
14.100000000000009
 20
16.319999999999993
 10
14.120000000000005
 20
16.319999999999993
 10
14.14
 20
16.319999999999993
 10
14.180000000000007
 20
16.319999999999993
 10
14.200000000000003
 20
16.319999999999993
 10
14.220000000000013
 20
16.319999999999993
 10
14.260000000000005
 20
16.319999999999993
 10
14.300000000000011
 20
16.319999999999993
 10
14.36
 20
16.319999999999993
 10
14.400000000000006
 20
16.319999999999993
 10
14.460000000000008
 20
16.319999999999993
 10
14.52000000000001
 20
16.319999999999993
 10
14.580000000000013
 20
16.319999999999993
 10
14.620000000000005
 20
16.319999999999993
 10
14.680000000000007
 20
16.319999999999993
 10
14.720000000000013
 20
16.319999999999993
 10
14.780000000000001
 20
16.319999999999993
 10
14.820000000000007
 20
16.319999999999993
 10
14.88000000000001
 20
16.319999999999993
 10
14.940000000000012
 20
16.319999999999993
 10
14.980000000000004
 20
16.319999999999993
 10
15.040000000000006
 20
16.319999999999993
 10
15.080000000000013
 20
16.319999999999993
 10
15.14
 20
16.319999999999993
 10
15.180000000000007
 20
16.319999999999993
 10
15.240000000000009
 20
16.319999999999993
 10
15.300000000000011
 20
16.319999999999993
 10
15.340000000000003
 20
16.319999999999993
 10
15.400000000000006
 20
16.319999999999993
 10
15.440000000000012
 20
16.319999999999993
 10
15.5
 20
16.319999999999993
 10
15.540000000000006
 20
16.319999999999993
 10
15.600000000000009
 20
16.319999999999993
 10
15.64
 20
16.319999999999993
 10
15.700000000000003
 20
16.319999999999993
 10
15.740000000000009
 20
16.319999999999993
 10
15.800000000000011
 20
16.319999999999993
 10
15.840000000000003
 20
16.319999999999993
 10
15.900000000000006
 20
16.319999999999993
 10
15.960000000000008
 20
16.319999999999993
 10
16.040000000000006
 20
16.319999999999993
 10
16.120000000000005
 20
16.319999999999993
 10
16.200000000000003
 20
16.319999999999993
 10
16.260000000000005
 20
16.33999999999999
 10
16.340000000000003
 20
16.33999999999999
 10
16.42
 20
16.33999999999999
 10
16.480000000000004
 20
16.33999999999999
 10
16.560000000000002
 20
16.33999999999999
 10
16.620000000000005
 20
16.33999999999999
 10
16.700000000000003
 20
16.33999999999999
 10
16.78
 20
16.33999999999999
 10
16.840000000000003
 20
16.33999999999999
 10
16.92
 20
16.36
 10
16.980000000000004
 20
16.36
 10
17.060000000000002
 20
16.36
 10
17.14
 20
16.36
 10
17.200000000000003
 20
16.36
 10
17.28
 20
16.36
 10
17.340000000000003
 20
16.379999999999995
 10
17.42
 20
16.379999999999995
 10
17.480000000000004
 20
16.379999999999995
 10
17.560000000000002
 20
16.379999999999995
 10
17.620000000000005
 20
16.379999999999995
 10
17.700000000000003
 20
16.379999999999995
 10
17.760000000000005
 20
16.39999999999999
 10
17.840000000000003
 20
16.39999999999999
 10
17.900000000000006
 20
16.39999999999999
 10
17.980000000000004
 20
16.39999999999999
 10
18.040000000000006
 20
16.42
 10
18.120000000000005
 20
16.42
 10
18.180000000000007
 20
16.42
 10
18.260000000000005
 20
16.42
 10
18.36
 20
16.439999999999998
 10
18.440000000000012
 20
16.439999999999998
 10
18.540000000000006
 20
16.439999999999998
 10
18.620000000000005
 20
16.459999999999994
 10
18.720000000000013
 20
16.459999999999994
 10
18.80000000000001
 20
16.459999999999994
 10
18.88000000000001
 20
16.47999999999999
 10
18.960000000000008
 20
16.47999999999999
 10
19.060000000000002
 20
16.5
 10
19.14
 20
16.5
 10
19.220000000000013
 20
16.5
 10
19.320000000000007
 20
16.519999999999996
 10
19.400000000000006
 20
16.519999999999996
 10
19.480000000000004
 20
16.539999999999992
 10
19.560000000000002
 20
16.539999999999992
 10
19.66000000000001
 20
16.560000000000002
 10
19.74000000000001
 20
16.560000000000002
 10
19.820000000000007
 20
16.58
 10
19.900000000000006
 20
16.58
 10
19.980000000000004
 20
16.599999999999994
 10
20.080000000000013
 20
16.599999999999994
 10
20.16000000000001
 20
16.61999999999999
 10
20.24000000000001
 20
16.61999999999999
 10
20.320000000000007
 20
16.64
 10
20.400000000000006
 20
16.64
 10
20.480000000000004
 20
16.659999999999997
 10
20.560000000000002
 20
16.659999999999997
 10
20.64
 20
16.679999999999993
 10
20.720000000000013
 20
16.700000000000003
 10
20.80000000000001
 20
16.700000000000003
 10
20.900000000000006
 20
16.72
 10
20.980000000000004
 20
16.72
 10
21.080000000000013
 20
16.739999999999995
 10
21.180000000000007
 20
16.75999999999999
 10
21.260000000000005
 20
16.78
 10
21.36
 20
16.799999999999997
 10
21.460000000000008
 20
16.799999999999997
 10
21.540000000000006
 20
16.819999999999993
 10
21.64
 20
16.83999999999999
 10
21.74000000000001
 20
16.86
 10
21.820000000000007
 20
16.879999999999995
 10
21.92
 20
16.879999999999995
 10
22.0
 20
16.89999999999999
 10
22.10000000000001
 20
16.92
 10
22.180000000000007
 20
16.939999999999998
 10
22.28
 20
16.959999999999994
 10
22.36
 20
16.97999999999999
 10
22.460000000000008
 20
17.0
 10
22.540000000000006
 20
17.019999999999996
 10
22.64
 20
17.039999999999992
 10
22.720000000000013
 20
17.060000000000002
 10
22.820000000000007
 20
17.08
 10
22.900000000000006
 20
17.099999999999994
 10
22.980000000000004
 20
17.11999999999999
 10
23.080000000000013
 20
17.14
 10
23.16000000000001
 20
17.159999999999997
 10
23.24000000000001
 20
17.179999999999993
 10
23.340000000000003
 20
17.200000000000003
 10
23.42
 20
17.22
 10
23.5
 20
17.239999999999995
 10
23.60000000000001
 20
17.25999999999999
 10
23.680000000000007
 20
17.299999999999997
 10
23.760000000000005
 20
17.319999999999993
 10
23.840000000000003
 20
17.33999999999999
 10
23.92
 20
17.36
 10
24.0
 20
17.379999999999995
 10
24.080000000000013
 20
17.39999999999999
 10
24.14
 20
17.42
 10
24.220000000000013
 20
17.439999999999998
 10
24.30000000000001
 20
17.47999999999999
 10
24.38000000000001
 20
17.5
 10
24.460000000000008
 20
17.519999999999996
 10
24.52000000000001
 20
17.539999999999992
 10
24.60000000000001
 20
17.560000000000002
 10
24.680000000000007
 20
17.599999999999994
 10
24.760000000000005
 20
17.61999999999999
 10
24.820000000000007
 20
17.64
 10
24.900000000000006
 20
17.659999999999997
 10
24.980000000000004
 20
17.700000000000003
 10
25.060000000000002
 20
17.72
 10
25.120000000000005
 20
17.739999999999995
 10
25.200000000000003
 20
17.78
 10
25.28
 20
17.799999999999997
 10
25.340000000000003
 20
17.819999999999993
 10
25.42
 20
17.86
 10
25.480000000000004
 20
17.879999999999995
 10
25.560000000000002
 20
17.89999999999999
 10
25.620000000000005
 20
17.939999999999998
 10
25.700000000000003
 20
17.959999999999994
 10
25.78
 20
18.0
 10
25.840000000000003
 20
18.019999999999996
 10
25.92
 20
18.060000000000002
 10
25.980000000000004
 20
18.08
 10
26.060000000000002
 20
18.11999999999999
 10
26.120000000000005
 20
18.14
 10
26.180000000000007
 20
18.179999999999993
 10
26.24000000000001
 20
18.200000000000003
 10
26.320000000000007
 20
18.22
 10
26.38000000000001
 20
18.25999999999999
 10
26.440000000000012
 20
18.28
 10
26.5
 20
18.319999999999993
 10
26.560000000000002
 20
18.33999999999999
 10
26.620000000000005
 20
18.379999999999995
 10
26.680000000000007
 20
18.39999999999999
 10
26.74000000000001
 20
18.439999999999998
 10
26.80000000000001
 20
18.459999999999994
 10
26.86
 20
18.5
 10
26.940000000000012
 20
18.519999999999996
 10
27.0
 20
18.560000000000002
 10
27.060000000000002
 20
18.58
 10
27.120000000000005
 20
18.61999999999999
 10
27.180000000000007
 20
18.659999999999997
 10
27.24000000000001
 20
18.679999999999993
 10
27.28
 20
18.72
 10
27.340000000000003
 20
18.75999999999999
 10
27.400000000000006
 20
18.78
 10
27.460000000000008
 20
18.819999999999993
 10
27.52000000000001
 20
18.86
 10
27.580000000000013
 20
18.879999999999995
 10
27.64
 20
18.92
 10
27.700000000000003
 20
18.959999999999994
 10
27.760000000000005
 20
18.97999999999999
 10
27.80000000000001
 20
19.019999999999996
 10
27.86
 20
19.060000000000002
 10
27.92
 20
19.099999999999994
 10
27.980000000000004
 20
19.11999999999999
 10
28.040000000000006
 20
19.159999999999997
 10
28.080000000000013
 20
19.200000000000003
 10
28.14
 20
19.239999999999995
 10
28.200000000000003
 20
19.25999999999999
 10
28.24000000000001
 20
19.299999999999997
 10
28.30000000000001
 20
19.33999999999999
 10
28.340000000000003
 20
19.36
 10
28.400000000000006
 20
19.39999999999999
 10
28.440000000000012
 20
19.439999999999998
 10
28.5
 20
19.47999999999999
 10
28.540000000000006
 20
19.519999999999996
 10
28.60000000000001
 20
19.539999999999992
 10
28.64
 20
19.58
 10
28.700000000000003
 20
19.61999999999999
 10
28.74000000000001
 20
19.659999999999997
 10
28.80000000000001
 20
19.700000000000003
 10
28.840000000000003
 20
19.72
 10
28.88000000000001
 20
19.75999999999999
 10
28.940000000000012
 20
19.799999999999997
 10
28.980000000000004
 20
19.83999999999999
 10
29.040000000000006
 20
19.879999999999995
 10
29.080000000000013
 20
19.92
 10
29.120000000000005
 20
19.959999999999994
 10
29.180000000000007
 20
20.0
 10
29.220000000000013
 20
20.039999999999992
 10
29.260000000000005
 20
20.08
 10
29.320000000000007
 20
20.11999999999999
 10
29.36
 20
20.159999999999997
 10
29.400000000000006
 20
20.200000000000003
 10
29.460000000000008
 20
20.239999999999995
 10
29.5
 20
20.28
 10
29.540000000000006
 20
20.319999999999993
 10
29.580000000000013
 20
20.36
 10
29.620000000000005
 20
20.39999999999999
 10
29.680000000000007
 20
20.439999999999998
 10
29.720000000000013
 20
20.47999999999999
 10
29.760000000000005
 20
20.5
 10
29.80000000000001
 20
20.539999999999992
 10
29.840000000000003
 20
20.599999999999994
 10
29.88000000000001
 20
20.64
 10
29.92
 20
20.679999999999993
 10
29.960000000000008
 20
20.72
 10
30.0
 20
20.75999999999999
 10
30.040000000000006
 20
20.799999999999997
 10
30.10000000000001
 20
20.83999999999999
 10
30.14
 20
20.879999999999995
 10
30.180000000000007
 20
20.92
 10
30.220000000000013
 20
20.959999999999994
 10
30.260000000000005
 20
21.0
 10
30.30000000000001
 20
21.039999999999992
 10
30.340000000000003
 20
21.099999999999994
 10
30.38000000000001
 20
21.14
 10
30.400000000000006
 20
21.179999999999993
 10
30.440000000000012
 20
21.22
 10
30.480000000000004
 20
21.25999999999999
 10
30.52000000000001
 20
21.299999999999997
 10
30.560000000000002
 20
21.36
 10
30.60000000000001
 20
21.39999999999999
 10
30.64
 20
21.439999999999998
 10
30.680000000000007
 20
21.47999999999999
 10
30.720000000000013
 20
21.519999999999996
 10
30.760000000000005
 20
21.58
 10
30.80000000000001
 20
21.61999999999999
 10
30.820000000000007
 20
21.659999999999997
 10
30.86
 20
21.700000000000003
 10
30.900000000000006
 20
21.75999999999999
 10
30.940000000000012
 20
21.799999999999997
 10
30.980000000000004
 20
21.83999999999999
 10
31.0
 20
21.89999999999999
 10
31.040000000000006
 20
21.939999999999998
 10
31.080000000000013
 20
21.97999999999999
 10
31.120000000000005
 20
22.039999999999992
 10
31.16000000000001
 20
22.08
 10
31.180000000000007
 20
22.11999999999999
 10
31.220000000000013
 20
22.179999999999993
 10
31.260000000000005
 20
22.22
 10
31.28
 20
22.28
 10
31.320000000000007
 20
22.319999999999993
 10
31.36
 20
22.36
 10
31.400000000000006
 20
22.42
 10
31.42
 20
22.459999999999994
 10
31.460000000000008
 20
22.519999999999996
 10
31.5
 20
22.560000000000002
 10
31.52000000000001
 20
22.61999999999999
 10
31.560000000000002
 20
22.659999999999997
 10
31.580000000000013
 20
22.72
 10
31.620000000000005
 20
22.75999999999999
 10
31.66000000000001
 20
22.819999999999993
 10
31.680000000000007
 20
22.86
 10
31.720000000000013
 20
22.89999999999999
 10
31.74000000000001
 20
22.959999999999994
 10
31.78
 20
23.019999999999996
 10
31.820000000000007
 20
23.060000000000002
 10
31.840000000000003
 20
23.11999999999999
 10
31.88000000000001
 20
23.159999999999997
 10
31.900000000000006
 20
23.22
 10
31.940000000000012
 20
23.25999999999999
 10
31.960000000000008
 20
23.319999999999993
 10
31.980000000000004
 20
23.36
 10
32.0
 20
23.39999999999999
 10
32.040000000000006
 20
23.439999999999998
 10
32.06
 20
23.47999999999999
 10
32.08000000000001
 20
23.519999999999996
 10
32.10000000000001
 20
23.560000000000002
 10
32.120000000000005
 20
23.61999999999999
 10
32.16000000000001
 20
23.659999999999997
 10
32.18000000000001
 20
23.700000000000003
 10
32.2
 20
23.739999999999995
 10
32.22000000000001
 20
23.78
 10
32.24000000000001
 20
23.83999999999999
 10
32.28
 20
23.879999999999995
 10
32.30000000000001
 20
23.92
 10
32.32000000000001
 20
23.959999999999994
 10
32.34
 20
24.0
 10
32.36
 20
24.060000000000002
 10
32.38000000000001
 20
24.099999999999994
 10
32.400000000000006
 20
24.14
 10
32.42
 20
24.179999999999993
 10
32.46000000000001
 20
24.239999999999995
 10
32.480000000000004
 20
24.28
 10
32.5
 20
24.319999999999993
 10
32.52000000000001
 20
24.36
 10
32.540000000000006
 20
24.42
 10
32.56
 20
24.459999999999994
 10
32.58000000000001
 20
24.5
 10
32.60000000000001
 20
24.560000000000002
 10
32.620000000000005
 20
24.599999999999994
 10
32.64
 20
24.64
 10
32.66000000000001
 20
24.700000000000003
 10
32.68000000000001
 20
24.739999999999995
 10
32.7
 20
24.75999999999999
 10
32.72000000000001
 20
24.799999999999997
 10
32.74000000000001
 20
24.83999999999999
 10
32.74000000000001
 20
24.879999999999995
 10
32.760000000000005
 20
24.89999999999999
 10
32.78
 20
24.939999999999998
 10
32.80000000000001
 20
24.97999999999999
 10
32.80000000000001
 20
25.019999999999996
 10
32.82000000000001
 20
25.060000000000002
 10
32.84
 20
25.099999999999994
 10
32.86
 20
25.11999999999999
 10
32.88000000000001
 20
25.159999999999997
 10
32.88000000000001
 20
25.200000000000003
 10
32.900000000000006
 20
25.239999999999995
 10
32.92
 20
25.28
 10
32.94000000000001
 20
25.319999999999993
 10
32.94000000000001
 20
25.36
 10
32.96000000000001
 20
25.379999999999995
 10
32.980000000000004
 20
25.42
 10
32.980000000000004
 20
25.459999999999994
 10
33.0
 20
25.5
 10
33.02000000000001
 20
25.539999999999992
 10
33.040000000000006
 20
25.58
 10
33.040000000000006
 20
25.61999999999999
 10
33.06
 20
25.659999999999997
 10
33.08000000000001
 20
25.679999999999993
 10
33.08000000000001
 20
25.72
 10
33.10000000000001
 20
25.75999999999999
 10
33.120000000000005
 20
25.799999999999997
 10
33.14
 20
25.83999999999999
 10
33.14
 20
25.879999999999995
 10
33.16000000000001
 20
25.92
 10
33.16000000000001
 20
25.939999999999998
 10
33.18000000000001
 20
25.959999999999994
 10
33.18000000000001
 20
25.97999999999999
 10
33.2
 20
26.019999999999996
 10
33.2
 20
26.039999999999992
 10
33.22000000000001
 20
26.060000000000002
 10
33.22000000000001
 20
26.099999999999994
 10
33.22000000000001
 20
26.11999999999999
 10
33.24000000000001
 20
26.14
 10
33.24000000000001
 20
26.179999999999993
 10
33.260000000000005
 20
26.200000000000003
 10
33.260000000000005
 20
26.22
 10
33.28
 20
26.25999999999999
 10
33.28
 20
26.28
 10
33.30000000000001
 20
26.299999999999997
 10
33.30000000000001
 20
26.33999999999999
 10
33.30000000000001
 20
26.36
 10
33.32000000000001
 20
26.379999999999995
 10
33.32000000000001
 20
26.42
 10
33.34
 20
26.439999999999998
 10
33.34
 20
26.459999999999994
 10
33.36
 20
26.5
 10
33.36
 20
26.519999999999996
 10
33.38000000000001
 20
26.539999999999992
 10
33.38000000000001
 20
26.58
 10
33.38000000000001
 20
26.599999999999994
 10
33.400000000000006
 20
26.61999999999999
 10
33.400000000000006
 20
26.659999999999997
 10
33.42
 20
26.679999999999993
 10
33.42
 20
26.72
 10
33.42
 20
26.739999999999995
 10
33.44000000000001
 20
26.75999999999999
 10
33.44000000000001
 20
26.78
 10
33.44000000000001
 20
26.799999999999997
 10
33.46000000000001
 20
26.799999999999997
 10
33.46000000000001
 20
26.819999999999993
 10
33.46000000000001
 20
26.83999999999999
 10
33.46000000000001
 20
26.86
 10
33.480000000000004
 20
26.879999999999995
 10
33.480000000000004
 20
26.89999999999999
 10
33.480000000000004
 20
26.92
 10
33.480000000000004
 20
26.939999999999998
 10
33.5
 20
26.939999999999998
 10
33.5
 20
26.959999999999994
 10
33.5
 20
26.97999999999999
 10
33.5
 20
27.0
 10
33.52000000000001
 20
27.019999999999996
 10
33.52000000000001
 20
27.039999999999992
 10
33.52000000000001
 20
27.060000000000002
 10
33.52000000000001
 20
27.08
 10
33.540000000000006
 20
27.08
 10
33.540000000000006
 20
27.099999999999994
 10
33.540000000000006
 20
27.11999999999999
 10
33.540000000000006
 20
27.14
 10
33.56
 20
27.159999999999997
 10
33.56
 20
27.179999999999993
 10
33.7
 20
27.97999999999999
 10
33.900000000000006
 20
28.72
 10
34.16000000000001
 20
29.459999999999994
 10
34.480000000000004
 20
30.14
 10
34.88000000000001
 20
30.799999999999997
 10
35.32000000000001
 20
31.42
 10
35.82000000000001
 20
31.97999999999999
 10
36.36
 20
32.5
 10
36.94000000000001
 20
32.97999999999999
 10
37.56
 20
33.39999999999999
 10
38.24000000000001
 20
33.75999999999999
 10
38.92
 20
34.06
 10
39.66000000000001
 20
34.3
 10
40.400000000000006
 20
34.459999999999994
 10
41.18000000000001
 20
34.56
 10
41.980000000000004
 20
34.599999999999994
 10
42.78
 20
34.53999999999999
 10
43.540000000000006
 20
34.44
 10
44.3
 20
34.239999999999995
 10
45.019999999999996
 20
34.0
 10
45.72000000000001
 20
33.67999999999999
 10
46.38000000000001
 20
33.3
 10
47.000000000000014
 20
32.879999999999995
 10
47.56000000000002
 20
32.39999999999999
 10
48.10000000000001
 20
31.86
 10
48.58
 20
31.28
 10
49.019999999999996
 20
30.659999999999997
 10
49.38000000000001
 20
30.0
 10
49.7
 20
29.299999999999997
 10
49.959999999999994
 20
28.58
 10
50.14
 20
27.819999999999993
 10
50.260000000000005
 20
27.019999999999996
 10
50.58
 20
23.319999999999993
 10
50.82000000000001
 20
19.599999999999994
 10
50.959999999999994
 20
15.879999999999995
 10
51.000000000000014
 20
12.14
 10
51.000000000000014
 20
11.200000000000003
 10
54.000000000000014
 20
11.200000000000003
 10
54.2
 20
11.200000000000003
 10
54.2
 20
2.3999999999999915
 10
50.040000000000006
 20
2.3999999999999915
 10
50.040000000000006
 20
0.0
 10
41.040000000000006
 20
0.0
  0
CIRCLE
  5
31
330
17
100
AcDbEntity
  8
CORTE
100
AcDbCircle
 10
41.90241698048611
 20
26.197583019513846
 30
0.0
 40
1.4998644590201724
  0
ENDSEC
  0
SECTION
  2
OBJECTS
  0
DICTIONARY
  5
A
330
0
100
AcDbDictionary
281
1
  3
ACAD_COLOR
350
B
  3
ACAD_GROUP
350
C
  3
ACAD_LAYOUT
350
D
  3
ACAD_MATERIAL
350
E
  3
ACAD_MLEADERSTYLE
350
F
  3
ACAD_MLINESTYLE
350
10
  3
ACAD_PLOTSETTINGS
350
11
  3
ACAD_PLOTSTYLENAME
350
12
  3
ACAD_SCALELIST
350
14
  3
ACAD_TABLESTYLE
350
15
  3
ACAD_VISUALSTYLE
350
16
  3
EZDXF_META
350
2D
  0
DICTIONARY
  5
B
330
A
100
AcDbDictionary
281
1
  0
DICTIONARY
  5
C
330
A
100
AcDbDictionary
281
1
  0
DICTIONARY
  5
D
330
A
100
AcDbDictionary
281
1
  3
Model
350
1A
  3
Layout1
350
1E
  0
DICTIONARY
  5
E
330
A
100
AcDbDictionary
281
1
  3
ByBlock
350
1F
  3
ByLayer
350
20
  3
Global
350
21
  0
DICTIONARY
  5
F
330
A
100
AcDbDictionary
281
1
  3
Standard
350
2C
  0
DICTIONARY
  5
10
330
A
100
AcDbDictionary
281
1
  3
Standard
350
22
  0
DICTIONARY
  5
11
330
A
100
AcDbDictionary
281
1
  0
ACDBDICTIONARYWDFLT
  5
12
330
A
100
AcDbDictionary
281
1
  3
Normal
350
13
100
AcDbDictionaryWithDefault
340
13
  0
ACDBPLACEHOLDER
  5
13
330
12
  0
DICTIONARY
  5
14
330
A
100
AcDbDictionary
281
1
  0
DICTIONARY
  5
15
330
A
100
AcDbDictionary
281
1
  0
DICTIONARY
  5
16
330
A
100
AcDbDictionary
281
1
  0
LAYOUT
  5
1A
330
D
100
AcDbPlotSettings
  1

  4
A3
  6

 40
7.5
 41
20.0
 42
7.5
 43
20.0
 44
420.0
 45
297.0
 46
0.0
 47
0.0
 48
0.0
 49
0.0
140
0.0
141
0.0
142
1.0
143
1.0
 70
1024
 72
1
 73
0
 74
5
  7

 75
16
 76
0
 77
2
 78
300
147
1.0
148
0.0
149
0.0
100
AcDbLayout
  1
Model
 70
1
 71
0
 10
0.0
 20
0.0
 11
420.0
 21
297.0
 12
0.0
 22
0.0
 32
0.0
 14
1e+20
 24
1e+20
 34
1e+20
 15
-1e+20
 25
-1e+20
 35
-1e+20
146
0.0
 13
0.0
 23
0.0
 33
0.0
 16
1.0
 26
0.0
 36
0.0
 17
0.0
 27
1.0
 37
0.0
 76
1
330
17
  0
LAYOUT
  5
1E
330
D
100
AcDbPlotSettings
  1

  4
A3
  6

 40
7.5
 41
20.0
 42
7.5
 43
20.0
 44
420.0
 45
297.0
 46
0.0
 47
0.0
 48
0.0
 49
0.0
140
0.0
141
0.0
142
1.0
143
1.0
 70
0
 72
1
 73
0
 74
5
  7

 75
16
 76
0
 77
2
 78
300
147
1.0
148
0.0
149
0.0
100
AcDbLayout
  1
Layout1
 70
1
 71
1
 10
0.0
 20
0.0
 11
420.0
 21
297.0
 12
0.0
 22
0.0
 32
0.0
 14
1e+20
 24
1e+20
 34
1e+20
 15
-1e+20
 25
-1e+20
 35
-1e+20
146
0.0
 13
0.0
 23
0.0
 33
0.0
 16
1.0
 26
0.0
 36
0.0
 17
0.0
 27
1.0
 37
0.0
 76
1
330
1B
  0
MATERIAL
  5
1F
102
{ACAD_REACTORS
330
E
102
}
330
E
100
AcDbMaterial
  1
ByBlock
  2

 70
0
 40
1.0
 71
1
 41
1.0
 91
-1023410177
 42
1.0
 72
1
  3

 73
1
 74
1
 75
1
 44
0.5
 73
0
 45
1.0
 46
1.0
 77
1
  4

 78
1
 79
1
170
1
 48
1.0
171
1
  6

172
1
173
1
174
1
140
1.0
141
1.0
175
1
  7

176
1
177
1
178
1
143
1.0
179
1
  8

270
1
271
1
272
1
145
1.0
146
1.0
273
1
  9

274
1
275
1
276
1
 42
1.0
 72
1
  3

 73
1
 74
1
 75
1
 94
63
  0
MATERIAL
  5
20
102
{ACAD_REACTORS
330
E
102
}
330
E
100
AcDbMaterial
  1
ByLayer
  2

 70
0
 40
1.0
 71
1
 41
1.0
 91
-1023410177
 42
1.0
 72
1
  3

 73
1
 74
1
 75
1
 44
0.5
 73
0
 45
1.0
 46
1.0
 77
1
  4

 78
1
 79
1
170
1
 48
1.0
171
1
  6

172
1
173
1
174
1
140
1.0
141
1.0
175
1
  7

176
1
177
1
178
1
143
1.0
179
1
  8

270
1
271
1
272
1
145
1.0
146
1.0
273
1
  9

274
1
275
1
276
1
 42
1.0
 72
1
  3

 73
1
 74
1
 75
1
 94
63
  0
MATERIAL
  5
21
102
{ACAD_REACTORS
330
E
102
}
330
E
100
AcDbMaterial
  1
Global
  2

 70
0
 40
1.0
 71
1
 41
1.0
 91
-1023410177
 42
1.0
 72
1
  3

 73
1
 74
1
 75
1
 44
0.5
 73
0
 45
1.0
 46
1.0
 77
1
  4

 78
1
 79
1
170
1
 48
1.0
171
1
  6

172
1
173
1
174
1
140
1.0
141
1.0
175
1
  7

176
1
177
1
178
1
143
1.0
179
1
  8

270
1
271
1
272
1
145
1.0
146
1.0
273
1
  9

274
1
275
1
276
1
 42
1.0
 72
1
  3

 73
1
 74
1
 75
1
 94
63
  0
MLINESTYLE
  5
22
102
{ACAD_REACTORS
330
10
102
}
330
10
100
AcDbMlineStyle
  2
Standard
 70
0
  3

 62
256
 51
90.0
 52
90.0
 71
2
 49
0.5
 62
256
  6
BYLAYER
 49
-0.5
 62
256
  6
BYLAYER
  0
MLEADERSTYLE
  5
2C
102
{ACAD_REACTORS
330
F
102
}
330
F
100
AcDbMLeaderStyle
179
2
170
2
171
1
172
0
 90
2
 40
0.0
 41
0.0
173
1
 91
-1056964608
 92
-2
290
1
 42
2.0
291
1
 43
8.0
  3
Standard
 44
4.0
300

342
29
174
1
175
1
176
0
178
1
 93
-1056964608
 45
4.0
292
0
297
0
 46
4.0
 94
-1056964608
 47
1.0
 49
1.0
140
1.0
294
1
141
0.0
177
0
142
1.0
295
0
296
0
143
3.75
271
0
272
9
273
9
  0
DICTIONARY
  5
2D
330
A
100
AcDbDictionary
280
1
281
1
  3
CREATED_BY_EZDXF
350
2E
  3
WRITTEN_BY_EZDXF
350
34
  0
DICTIONARYVAR
  5
2E
330
2D
100
DictionaryVariables
280
0
  1
1.4.4 @ 2026-10-06T17:04:46.225169+00:00
  0
DICTIONARYVAR
  5
34
330
2D
100
DictionaryVariables
280
0
  1
1.4.4 @ 2026-10-06T17:04:46.228276+00:00
  0
ENDSEC
  0
EOF
