  0
SECTION
  2
HEADER
  9
$ACADVER
  1
AC1015
  9
$ACADMAINTVER
 70
6
  9
$DWGCODEPAGE
  3
ANSI_1252
  9
$INSBASE
 10
0.0
 20
0.0
 30
0.0
  9
$EXTMIN
 10
1e+20
 20
1e+20
 30
1e+20
  9
$EXTMAX
 10
-1e+20
 20
-1e+20
 30
-1e+20
  9
$LIMMIN
 10
0.0
 20
0.0
  9
$LIMMAX
 10
420.0
 20
297.0
  9
$ORTHOMODE
 70
0
  9
$REGENMODE
 70
1
  9
$FILLMODE
 70
1
  9
$QTEXTMODE
 70
0
  9
$MIRRTEXT
 70
1
  9
$LTSCALE
 40
1.0
  9
$ATTMODE
 70
1
  9
$TEXTSIZE
 40
2.5
  9
$TRACEWID
 40
1.0
  9
$TEXTSTYLE
  7
Standard
  9
$CLAYER
  8
0
  9
$CELTYPE
  6
ByLayer
  9
$CECOLOR
 62
256
  9
$CELTSCALE
 40
1.0
  9
$DISPSILH
 70
0
  9
$DIMSCALE
 40
1.0
  9
$DIMASZ
 40
2.5
  9
$DIMEXO
 40
0.625
  9
$DIMDLI
 40
3.75
  9
$DIMRND
 40
0.0
  9
$DIMDLE
 40
0.0
  9
$DIMEXE
 40
1.25
  9
$DIMTP
 40
0.0
  9
$DIMTM
 40
0.0
  9
$DIMTXT
 40
2.5
  9
$DIMCEN
 40
2.5
  9
$DIMTSZ
 40
0.0
  9
$DIMTOL
 70
0
  9
$DIMLIM
 70
0
  9
$DIMTIH
 70
0
  9
$DIMTOH
 70
0
  9
$DIMSE1
 70
0
  9
$DIMSE2
 70
0
  9
$DIMTAD
 70
1
  9
$DIMZIN
 70
8
  9
$DIMBLK
  1

  9
$DIMASO
 70
1
  9
$DIMSHO
 70
1
  9
$DIMPOST
  1

  9
$DIMAPOST
  1

  9
$DIMALT
 70
0
  9
$DIMALTD
 70
3
  9
$DIMALTF
 40
0.03937007874
  9
$DIMLFAC
 40
1.0
  9
$DIMTOFL
 70
1
  9
$DIMTVP
 40
0.0
  9
$DIMTIX
 70
0
  9
$DIMSOXD
 70
0
  9
$DIMSAH
 70
0
  9
$DIMBLK1
  1

  9
$DIMBLK2
  1

  9
$DIMSTYLE
  2
ISO-25
  9
$DIMCLRD
 70
0
  9
$DIMCLRE
 70
0
  9
$DIMCLRT
 70
0
  9
$DIMTFAC
 40
1.0
  9
$DIMGAP
 40
0.625
  9
$DIMJUST
 70
0
  9
$DIMSD1
 70
0
  9
$DIMSD2
 70
0
  9
$DIMTOLJ
 70
0
  9
$DIMTZIN
 70
8
  9
$DIMALTZ
 70
0
  9
$DIMALTTZ
 70
0
  9
$DIMUPT
 70
0
  9
$DIMDEC
 70
2
  9
$DIMTDEC
 70
2
  9
$DIMALTU
 70
2
  9
$DIMALTTD
 70
3
  9
$DIMTXSTY
  7
Standard
  9
$DIMAUNIT
 70
0
  9
$DIMADEC
 70
0
  9
$DIMALTRND
 40
0.0
  9
$DIMAZIN
 70
0
  9
$DIMDSEP
 70
44
  9
$DIMATFIT
 70
3
  9
$DIMFRAC
 70
0
  9
$DIMLDRBLK
  1

  9
$DIMLUNIT
 70
2
  9
$DIMLWD
 70
-2
  9
$DIMLWE
 70
-2
  9
$DIMTMOVE
 70
0
  9
$LUNITS
 70
2
  9
$LUPREC
 70
4
  9
$SKETCHINC
 40
1.0
  9
$FILLETRAD
 40
10.0
  9
$AUNITS
 70
0
  9
$AUPREC
 70
2
  9
$MENU
  1
.
  9
$ELEVATION
 40
0.0
  9
$PELEVATION
 40
0.0
  9
$THICKNESS
 40
0.0
  9
$LIMCHECK
 70
0
  9
$CHAMFERA
 40
0.0
  9
$CHAMFERB
 40
0.0
  9
$CHAMFERC
 40
0.0
  9
$CHAMFERD
 40
0.0
  9
$SKPOLY
 70
0
  9
$TDCREATE
 40
2461320.7116550924
  9
$TDUCREATE
 40
2458532.153996898
  9
$TDUPDATE
 40
2461320.7116550924
  9
$TDUUPDATE
 40
2458532.1544311
  9
$TDINDWG
 40
0.0
  9
$TDUSRTIMER
 40
0.0
  9
$USRTIMER
 70
1
  9
$ANGBASE
 50
0.0
  9
$ANGDIR
 70
0
  9
$PDMODE
 70
0
  9
$PDSIZE
 40
0.0
  9
$PLINEWID
 40
0.0
  9
$SPLFRAME
 70
0
  9
$SPLINETYPE
 70
6
  9
$SPLINESEGS
 70
8
  9
$HANDSEED
  5
38
  9
$SURFTAB1
 70
6
  9
$SURFTAB2
 70
6
  9
$SURFTYPE
 70
6
  9
$SURFU
 70
6
  9
$SURFV
 70
6
  9
$UCSBASE
  2

  9
$UCSNAME
  2

  9
$UCSORG
 10
0.0
 20
0.0
 30
0.0
  9
$UCSXDIR
 10
1.0
 20
0.0
 30
0.0
  9
$UCSYDIR
 10
0.0
 20
1.0
 30
0.0
  9
$UCSORTHOREF
  2

  9
$UCSORTHOVIEW
 70
0
  9
$UCSORGTOP
 10
0.0
 20
0.0
 30
0.0
  9
$UCSORGBOTTOM
 10
0.0
 20
0.0
 30
0.0
  9
$UCSORGLEFT
 10
0.0
 20
0.0
 30
0.0
  9
$UCSORGRIGHT
 10
0.0
 20
0.0
 30
0.0
  9
$UCSORGFRONT
 10
0.0
 20
0.0
 30
0.0
  9
$UCSORGBACK
 10
0.0
 20
0.0
 30
0.0
  9
$PUCSBASE
  2

  9
$PUCSNAME
  2

  9
$PUCSORG
 10
0.0
 20
0.0
 30
0.0
  9
$PUCSXDIR
 10
1.0
 20
0.0
 30
0.0
  9
$PUCSYDIR
 10
0.0
 20
1.0
 30
0.0
  9
$PUCSORTHOREF
  2

  9
$PUCSORTHOVIEW
 70
0
  9
$PUCSORGTOP
 10
0.0
 20
0.0
 30
0.0
  9
$PUCSORGBOTTOM
 10
0.0
 20
0.0
 30
0.0
  9
$PUCSORGLEFT
 10
0.0
 20
0.0
 30
0.0
  9
$PUCSORGRIGHT
 10
0.0
 20
0.0
 30
0.0
  9
$PUCSORGFRONT
 10
0.0
 20
0.0
 30
0.0
  9
$PUCSORGBACK
 10
0.0
 20
0.0
 30
0.0
  9
$USERI1
 70
0
  9
$USERI2
 70
0
  9
$USERI3
 70
0
  9
$USERI4
 70
0
  9
$USERI5
 70
0
  9
$USERR1
 40
0.0
  9
$USERR2
 40
0.0
  9
$USERR3
 40
0.0
  9
$USERR4
 40
0.0
  9
$USERR5
 40
0.0
  9
$WORLDVIEW
 70
1
  9
$SHADEDGE
 70
3
  9
$SHADEDIF
 70
70
  9
$TILEMODE
 70
1
  9
$MAXACTVP
 70
64
  9
$PINSBASE
 10
0.0
 20
0.0
 30
0.0
  9
$PLIMCHECK
 70
0
  9
$PEXTMIN
 10
1e+20
 20
1e+20
 30
1e+20
  9
$PEXTMAX
 10
-1e+20
 20
-1e+20
 30
-1e+20
  9
$PLIMMIN
 10
0.0
 20
0.0
  9
$PLIMMAX
 10
420.0
 20
297.0
  9
$UNITMODE
 70
0
  9
$VISRETAIN
 70
1
  9
$PLINEGEN
 70
0
  9
$PSLTSCALE
 70
1
  9
$TREEDEPTH
 70
3020
  9
$CMLSTYLE
  2
Standard
  9
$CMLJUST
 70
0
  9
$CMLSCALE
 40
20.0
  9
$PROXYGRAPHICS
 70
1
  9
$MEASUREMENT
 70
1
  9
$CELWEIGHT
370
-1
  9
$ENDCAPS
280
0
  9
$JOINSTYLE
280
0
  9
$LWDISPLAY
290
0
  9
$INSUNITS
 70
4
  9
$HYPERLINKBASE
  1

  9
$STYLESHEET
  1

  9
$XEDIT
290
1
  9
$CEPSNTYPE
380
0
  9
$PSTYLEMODE
290
1
  9
$FINGERPRINTGUID
  2
{041EEA1A-960D-4647-AC28-4348A89147CB}
  9
$VERSIONGUID
  2
{0885F204-6545-4859-BCBF-4820297E2D40}
  9
$EXTNAMES
290
1
  9
$PSVPSCALE
 40
0.0
  9
$OLESTARTUP
290
0
  0
ENDSEC
  0
SECTION
  2
CLASSES
  0
CLASS
  1
ACDBDICTIONARYWDFLT
  2
AcDbDictionaryWithDefault
  3
ObjectDBX Classes
 90
0
280
0
281
0
  0
CLASS
  1
SUN
  2
AcDbSun
  3
SCENEOE
 90
1153
280
0
281
0
  0
CLASS
  1
VISUALSTYLE
  2
AcDbVisualStyle
  3
ObjectDBX Classes
 90
4095
280
0
281
0
  0
CLASS
  1
MATERIAL
  2
AcDbMaterial
  3
ObjectDBX Classes
 90
1153
280
0
281
0
  0
CLASS
  1
SCALE
  2
AcDbScale
  3
ObjectDBX Classes
 90
1153
280
0
281
0
  0
CLASS
  1
TABLESTYLE
  2
AcDbTableStyle
  3
ObjectDBX Classes
 90
4095
280
0
281
0
  0
CLASS
  1
MLEADERSTYLE
  2
AcDbMLeaderStyle
  3
ACDB_MLEADERSTYLE_CLASS
 90
4095
280
0
281
0
  0
CLASS
  1
DICTIONARYVAR
  2
AcDbDictionaryVar
  3
ObjectDBX Classes
 90
0
280
0
281
0
  0
CLASS
  1
CELLSTYLEMAP
  2
AcDbCellStyleMap
  3
ObjectDBX Classes
 90
1152
280
0
281
0
  0
CLASS
  1
MENTALRAYRENDERSETTINGS
  2
AcDbMentalRayRenderSettings
  3
SCENEOE
 90
1024
280
0
281
0
  0
CLASS
  1
ACDBDETAILVIEWSTYLE
  2
AcDbDetailViewStyle
  3
ObjectDBX Classes
 90
1025
280
0
281
0
  0
CLASS
  1
ACDBSECTIONVIEWSTYLE
  2
AcDbSectionViewStyle
  3
ObjectDBX Classes
 90
1025
280
0
281
0
  0
CLASS
  1
RASTERVARIABLES
  2
AcDbRasterVariables
  3
ISM
 90
0
280
0
281
0
  0
CLASS
  1
ACDBPLACEHOLDER
  2
AcDbPlaceHolder
  3
ObjectDBX Classes
 90
0
280
0
281
0
  0
CLASS
  1
LAYOUT
  2
AcDbLayout
  3
ObjectDBX Classes
 90
0
280
0
281
0
  0
ENDSEC
  0
SECTION
  2
TABLES
  0
TABLE
  2
VPORT
  5
8
330
0
100
AcDbSymbolTable
 70
1
  0
VPORT
  5
23
330
8
100
AcDbSymbolTableRecord
100
AcDbViewportTableRecord
  2
*Active
 70
0
 10
0.0
 20
0.0
 11
1.0
 21
1.0
 12
0.0
 22
0.0
 13
0.0
 23
0.0
 14
0.5
 24
0.5
 15
0.5
 25
0.5
 16
0.0
 26
0.0
 36
1.0
 17
0.0
 27
0.0
 37
0.0
 40
1000.0
 41
1.34
 42
50.0
 43
0.0
 44
0.0
 50
0.0
 51
0.0
 71
0
 72
1000
 73
1
 74
3
 75
0
 76
0
 77
0
 78
0
281
0
 65
0
146
0.0
  0
ENDTAB
  0
TABLE
  2
LTYPE
  5
2
330
0
100
AcDbSymbolTable
 70
3
  0
LTYPE
  5
24
330
2
100
AcDbSymbolTableRecord
100
AcDbLinetypeTableRecord
  2
ByBlock
 70
0
  3

 72
65
 73
0
 40
0.0
  0
LTYPE
  5
25
330
2
100
AcDbSymbolTableRecord
100
AcDbLinetypeTableRecord
  2
ByLayer
 70
0
  3

 72
65
 73
0
 40
0.0
  0
LTYPE
  5
26
330
2
100
AcDbSymbolTableRecord
100
AcDbLinetypeTableRecord
  2
Continuous
 70
0
  3

 72
65
 73
0
 40
0.0
  0
ENDTAB
  0
TABLE
  2
LAYER
  5
1
330
0
100
AcDbSymbolTable
 70
3
  0
LAYER
  5
27
330
1
100
AcDbSymbolTableRecord
100
AcDbLayerTableRecord
  2
0
 70
0
 62
7
  6
Continuous
370
-3
390
13
  0
LAYER
  5
28
330
1
100
AcDbSymbolTableRecord
100
AcDbLayerTableRecord
  2
Defpoints
 70
0
 62
7
  6
Continuous
290
0
370
-3
390
13
  0
LAYER
  5
2F
330
1
100
AcDbSymbolTableRecord
100
AcDbLayerTableRecord
  2
CORTE
 70
0
 62
7
  6
Continuous
370
-3
390
13
  0
ENDTAB
  0
TABLE
  2
STYLE
  5
5
330
0
100
AcDbSymbolTable
 70
1
  0
STYLE
  5
29
330
5
100
AcDbSymbolTableRecord
100
AcDbTextStyleTableRecord
  2
Standard
 70
0
 40
0.0
 41
1.0
 50
0.0
 71
0
 42
2.5
  3
txt
  4

  0
ENDTAB
  0
TABLE
  2
VIEW
  5
7
330
0
100
AcDbSymbolTable
 70
0
  0
ENDTAB
  0
TABLE
  2
UCS
  5
6
330
0
100
AcDbSymbolTable
 70
0
  0
ENDTAB
  0
TABLE
  2
APPID
  5
3
330
0
100
AcDbSymbolTable
 70
3
  0
APPID
  5
2A
330
3
100
AcDbSymbolTableRecord
100
AcDbRegAppTableRecord
  2
ACAD
 70
0
  0
APPID
  5
35
330
3
100
AcDbSymbolTableRecord
100
AcDbRegAppTableRecord
  2
HATCHBACKGROUNDCOLOR
 70
0
  0
APPID
  5
36
330
3
100
AcDbSymbolTableRecord
100
AcDbRegAppTableRecord
  2
EZDXF
 70
0
  0
ENDTAB
  0
TABLE
  2
DIMSTYLE
  5
4
330
0
100
AcDbSymbolTable
 70
1
100
AcDbDimStyleTable
  0
DIMSTYLE
105
2B
330
4
100
AcDbSymbolTableRecord
100
AcDbDimStyleTableRecord
  2
Standard
 70
0
  3

  4

 40
1.0
 41
2.5
 42
0.625
 43
3.75
 44
1.25
 45
0.0
 46
0.0
 47
0.0
 48
0.0
140
2.5
141
2.5
142
0.0
143
0.03937007874
144
1.0
145
0.0
146
1.0
147
0.625
148
0.0
 71
0
 72
0
 73
0
 74
0
 75
0
 76
0
 77
1
 78
8
 79
3
170
0
171
3
172
1
173
0
174
0
175
0
176
0
177
0
178
0
179
2
271
2
272
2
273
2
274
3
275
0
276
0
277
2
278
44
279
0
280
0
281
0
282
0
283
0
284
8
285
0
286
0
288
0
289
3
371
-2
372
-2
  0
ENDTAB
  0
TABLE
  2
BLOCK_RECORD
  5
9
330
0
100
AcDbSymbolTable
 70
2
  0
BLOCK_RECORD
  5
17
330
9
100
AcDbSymbolTableRecord
100
AcDbBlockTableRecord
  2
*Model_Space
340
1A
  0
BLOCK_RECORD
  5
1B
330
9
100
AcDbSymbolTableRecord
100
AcDbBlockTableRecord
  2
*Paper_Space
340
1E
  0
ENDTAB
  0
ENDSEC
  0
SECTION
  2
BLOCKS
  0
BLOCK
  5
18
330
17
100
AcDbEntity
  8
0
100
AcDbBlockBegin
  2
*Model_Space
 70
0
 10
0.0
 20
0.0
 30
0.0
  3
*Model_Space
  1

  0
ENDBLK
  5
19
330
17
100
AcDbEntity
  8
0
100
AcDbBlockEnd
  0
BLOCK
  5
1C
330
1B
100
AcDbEntity
  8
0
100
AcDbBlockBegin
  2
*Paper_Space
 70
0
 10
0.0
 20
0.0
 30
0.0
  3
*Paper_Space
  1

  0
ENDBLK
  5
1D
330
1B
100
AcDbEntity
  8
0
100
AcDbBlockEnd
  0
ENDSEC
  0
SECTION
  2
ENTITIES
  0
LWPOLYLINE
  5
30
330
17
100
AcDbEntity
  8
CORTE
100
AcDbPolyline
 90
3920
 70
1
 10
34.92
 20
18.699999999999996
 10
35.040000000000006
 20
17.299999999999997
 10
35.019999999999996
 20
17.299999999999997
 10
35.019999999999996
 20
17.28
 10
35.000000000000014
 20
17.28
 10
34.980000000000004
 20
17.28
 10
34.980000000000004
 20
17.259999999999998
 10
34.959999999999994
 20
17.259999999999998
 10
34.94000000000001
 20
17.240000000000002
 10
34.92
 20
17.240000000000002
 10
34.92
 20
17.22
 10
34.89999999999999
 20
17.22
 10
34.88000000000001
 20
17.22
 10
34.88000000000001
 20
17.199999999999996
 10
34.86
 20
17.199999999999996
 10
34.86
 20
17.18
 10
34.83999999999999
 20
17.18
 10
34.82000000000001
 20
17.159999999999997
 10
34.8
 20
17.159999999999997
 10
34.8
 20
17.14
 10
34.77999999999999
 20
17.14
 10
34.760000000000005
 20
17.14
 10
34.760000000000005
 20
17.119999999999997
 10
34.739999999999995
 20
17.119999999999997
 10
34.72000000000001
 20
17.1
 10
34.7
 20
17.1
 10
34.67999999999999
 20
17.08
 10
34.66000000000001
 20
17.059999999999995
 10
34.64
 20
17.059999999999995
 10
34.61999999999999
 20
17.04
 10
34.60000000000001
 20
17.04
 10
34.60000000000001
 20
17.019999999999996
 10
34.58
 20
17.019999999999996
 10
34.55999999999999
 20
17.0
 10
34.540000000000006
 20
17.0
 10
34.519999999999996
 20
16.979999999999997
 10
34.500000000000014
 20
16.979999999999997
 10
34.500000000000014
 20
16.96
 10
34.480000000000004
 20
16.96
 10
34.459999999999994
 20
16.96
 10
34.459999999999994
 20
16.939999999999998
 10
34.44000000000001
 20
16.939999999999998
 10
34.42
 20
16.92
 10
34.39999999999999
 20
16.92
 10
34.38000000000001
 20
16.9
 10
34.36
 20
16.879999999999995
 10
34.33999999999999
 20
16.879999999999995
 10
34.32000000000001
 20
16.86
 10
34.3
 20
16.86
 10
34.3
 20
16.839999999999996
 10
34.27999999999999
 20
16.839999999999996
 10
34.260000000000005
 20
16.839999999999996
 10
34.239999999999995
 20
16.82
 10
34.22000000000001
 20
16.82
 10
34.22000000000001
 20
16.799999999999997
 10
34.2
 20
16.799999999999997
 10
34.17999999999999
 20
16.78
 10
34.16000000000001
 20
16.78
 10
34.14
 20
16.759999999999998
 10
34.11999999999999
 20
16.759999999999998
 10
34.10000000000001
 20
16.740000000000002
 10
34.08
 20
16.740000000000002
 10
34.08
 20
16.72
 10
34.05999999999999
 20
16.72
 10
34.040000000000006
 20
16.72
 10
34.019999999999996
 20
16.699999999999996
 10
34.000000000000014
 20
16.68
 10
33.980000000000004
 20
16.68
 10
33.959999999999994
 20
16.68
 10
33.94000000000001
 20
16.659999999999997
 10
33.92
 20
16.659999999999997
 10
33.92
 20
16.64
 10
33.89999999999999
 20
16.64
 10
33.88000000000001
 20
16.619999999999997
 10
33.86
 20
16.619999999999997
 10
33.83999999999999
 20
16.6
 10
33.82000000000001
 20
16.6
 10
33.8
 20
16.58
 10
33.77999999999999
 20
16.58
 10
33.760000000000005
 20
16.559999999999995
 10
33.739999999999995
 20
16.559999999999995
 10
33.72000000000001
 20
16.54
 10
33.7
 20
16.54
 10
33.67999999999999
 20
16.54
 10
33.67999999999999
 20
16.519999999999996
 10
33.66000000000001
 20
16.519999999999996
 10
33.64
 20
16.5
 10
33.61999999999999
 20
16.5
 10
33.60000000000001
 20
16.479999999999997
 10
33.58
 20
16.479999999999997
 10
33.55999999999999
 20
16.479999999999997
 10
33.540000000000006
 20
16.46
 10
33.519999999999996
 20
16.46
 10
33.519999999999996
 20
16.439999999999998
 10
33.500000000000014
 20
16.439999999999998
 10
33.480000000000004
 20
16.439999999999998
 10
33.459999999999994
 20
16.42
 10
33.44000000000001
 20
16.42
 10
33.42
 20
16.4
 10
33.39999999999999
 20
16.4
 10
33.38000000000001
 20
16.4
 10
33.38000000000001
 20
16.379999999999995
 10
33.36
 20
16.379999999999995
 10
33.33999999999999
 20
16.36
 10
33.32000000000001
 20
16.36
 10
33.3
 20
16.36
 10
33.27999999999999
 20
16.339999999999996
 10
33.260000000000005
 20
16.339999999999996
 10
33.239999999999995
 20
16.339999999999996
 10
33.22000000000001
 20
16.32
 10
33.2
 20
16.32
 10
33.17999999999999
 20
16.299999999999997
 10
33.16000000000001
 20
16.299999999999997
 10
33.14
 20
16.299999999999997
 10
33.11999999999999
 20
16.28
 10
33.10000000000001
 20
16.28
 10
33.08
 20
16.28
 10
33.08
 20
16.259999999999998
 10
33.05999999999999
 20
16.259999999999998
 10
33.040000000000006
 20
16.259999999999998
 10
33.019999999999996
 20
16.240000000000002
 10
33.000000000000014
 20
16.240000000000002
 10
32.980000000000004
 20
16.240000000000002
 10
32.959999999999994
 20
16.22
 10
32.94000000000001
 20
16.22
 10
32.92
 20
16.22
 10
32.89999999999999
 20
16.199999999999996
 10
32.88000000000001
 20
16.199999999999996
 10
32.86
 20
16.199999999999996
 10
32.83999999999999
 20
16.18
 10
32.82000000000001
 20
16.18
 10
32.8
 20
16.18
 10
32.77999999999999
 20
16.159999999999997
 10
32.760000000000005
 20
16.159999999999997
 10
32.739999999999995
 20
16.159999999999997
 10
32.72000000000001
 20
16.159999999999997
 10
32.7
 20
16.14
 10
32.67999999999999
 20
16.14
 10
32.66000000000001
 20
16.14
 10
32.64
 20
16.14
 10
32.61999999999999
 20
16.119999999999997
 10
32.60000000000001
 20
16.119999999999997
 10
32.58
 20
16.119999999999997
 10
32.55999999999999
 20
16.119999999999997
 10
32.540000000000006
 20
16.1
 10
32.519999999999996
 20
16.1
 10
32.500000000000014
 20
16.1
 10
32.480000000000004
 20
16.1
 10
32.459999999999994
 20
16.1
 10
32.44000000000001
 20
16.08
 10
32.42
 20
16.08
 10
32.39999999999999
 20
16.08
 10
32.38000000000001
 20
16.08
 10
32.36
 20
16.08
 10
32.33999999999999
 20
16.059999999999995
 10
32.32000000000001
 20
16.059999999999995
 10
32.3
 20
16.059999999999995
 10
32.27999999999999
 20
16.059999999999995
 10
32.260000000000005
 20
16.059999999999995
 10
32.239999999999995
 20
16.059999999999995
 10
32.22000000000001
 20
16.04
 10
32.2
 20
16.04
 10
32.17999999999999
 20
16.04
 10
32.16000000000001
 20
16.04
 10
32.14
 20
16.04
 10
32.11999999999999
 20
16.04
 10
32.10000000000001
 20
16.04
 10
32.08
 20
16.04
 10
32.05999999999999
 20
16.04
 10
32.040000000000006
 20
16.019999999999996
 10
32.019999999999996
 20
16.019999999999996
 10
32.000000000000014
 20
16.019999999999996
 10
31.980000000000004
 20
16.019999999999996
 10
31.959999999999994
 20
16.019999999999996
 10
31.940000000000012
 20
16.019999999999996
 10
31.92
 20
16.019999999999996
 10
31.89999999999999
 20
16.019999999999996
 10
31.88000000000001
 20
16.019999999999996
 10
31.86
 20
16.019999999999996
 10
31.83999999999999
 20
16.019999999999996
 10
31.820000000000007
 20
16.019999999999996
 10
31.799999999999997
 20
16.019999999999996
 10
31.779999999999987
 20
16.019999999999996
 10
31.760000000000005
 20
16.019999999999996
 10
31.739999999999995
 20
16.019999999999996
 10
31.720000000000013
 20
16.019999999999996
 10
31.700000000000003
 20
16.0
 10
31.679999999999993
 20
16.0
 10
31.66000000000001
 20
16.0
 10
31.64
 20
16.0
 10
31.61999999999999
 20
16.0
 10
31.60000000000001
 20
16.0
 10
31.58
 20
16.0
 10
31.559999999999988
 20
16.0
 10
31.540000000000006
 20
16.0
 10
31.519999999999996
 20
16.0
 10
31.500000000000014
 20
16.0
 10
31.480000000000004
 20
16.0
 10
31.459999999999994
 20
16.0
 10
31.440000000000012
 20
16.0
 10
31.42
 20
16.0
 10
31.39999999999999
 20
16.0
 10
31.38000000000001
 20
16.0
 10
31.36
 20
16.0
 10
31.33999999999999
 20
16.0
 10
31.320000000000007
 20
15.979999999999997
 10
31.299999999999997
 20
15.979999999999997
 10
31.279999999999987
 20
15.979999999999997
 10
31.260000000000005
 20
15.979999999999997
 10
31.239999999999995
 20
15.979999999999997
 10
31.220000000000013
 20
15.979999999999997
 10
31.200000000000003
 20
15.979999999999997
 10
31.179999999999993
 20
15.979999999999997
 10
31.179999999999993
 20
15.96
 10
31.16000000000001
 20
15.96
 10
31.14
 20
15.96
 10
31.11999999999999
 20
15.96
 10
31.10000000000001
 20
15.96
 10
31.08
 20
15.96
 10
31.08
 20
15.939999999999998
 10
31.059999999999988
 20
15.939999999999998
 10
31.040000000000006
 20
15.939999999999998
 10
31.019999999999996
 20
15.939999999999998
 10
31.000000000000014
 20
15.920000000000002
 10
30.980000000000004
 20
15.920000000000002
 10
30.959999999999994
 20
15.920000000000002
 10
30.940000000000012
 20
15.920000000000002
 10
30.940000000000012
 20
15.899999999999999
 10
30.92
 20
15.899999999999999
 10
30.89999999999999
 20
15.899999999999999
 10
30.89999999999999
 20
15.879999999999995
 10
30.88000000000001
 20
15.879999999999995
 10
30.86
 20
15.879999999999995
 10
30.83999999999999
 20
15.879999999999995
 10
30.83999999999999
 20
15.86
 10
30.820000000000007
 20
15.86
 10
30.799999999999997
 20
15.86
 10
30.799999999999997
 20
15.839999999999996
 10
30.779999999999987
 20
15.839999999999996
 10
30.760000000000005
 20
15.839999999999996
 10
30.760000000000005
 20
15.82
 10
30.739999999999995
 20
15.82
 10
30.720000000000013
 20
15.799999999999997
 10
30.700000000000003
 20
15.799999999999997
 10
30.700000000000003
 20
15.780000000000001
 10
30.679999999999993
 20
15.780000000000001
 10
30.66000000000001
 20
15.780000000000001
 10
30.66000000000001
 20
15.759999999999998
 10
30.64
 20
15.759999999999998
 10
30.64
 20
15.740000000000002
 10
30.61999999999999
 20
15.740000000000002
 10
30.60000000000001
 20
15.719999999999999
 10
30.58
 20
15.719999999999999
 10
30.58
 20
15.699999999999996
 10
30.559999999999988
 20
15.699999999999996
 10
30.559999999999988
 20
15.68
 10
30.540000000000006
 20
15.68
 10
30.519999999999996
 20
15.659999999999997
 10
30.500000000000014
 20
15.659999999999997
 10
30.500000000000014
 20
15.64
 10
30.480000000000004
 20
15.64
 10
30.480000000000004
 20
15.619999999999997
 10
30.459999999999994
 20
15.619999999999997
 10
30.459999999999994
 20
15.600000000000001
 10
30.440000000000012
 20
15.600000000000001
 10
30.440000000000012
 20
15.579999999999998
 10
30.42
 20
15.579999999999998
 10
30.42
 20
15.559999999999995
 10
30.39999999999999
 20
15.559999999999995
 10
30.39999999999999
 20
15.54
 10
30.38000000000001
 20
15.54
 10
30.38000000000001
 20
15.519999999999996
 10
30.36
 20
15.519999999999996
 10
30.36
 20
15.5
 10
30.33999999999999
 20
15.5
 10
30.33999999999999
 20
15.479999999999997
 10
30.239999999999995
 20
14.899999999999999
 10
30.11999999999999
 20
14.299999999999997
 10
29.959999999999994
 20
13.719999999999999
 10
29.779999999999987
 20
13.159999999999997
 10
29.779999999999987
 20
13.14
 10
29.799999999999997
 20
13.14
 10
29.799999999999997
 20
13.119999999999997
 10
29.799999999999997
 20
13.100000000000001
 10
29.799999999999997
 20
13.079999999999998
 10
29.799999999999997
 20
13.059999999999995
 10
29.820000000000007
 20
13.059999999999995
 10
29.820000000000007
 20
13.04
 10
29.820000000000007
 20
13.019999999999996
 10
29.820000000000007
 20
13.0
 10
29.83999999999999
 20
13.0
 10
29.83999999999999
 20
12.979999999999997
 10
29.83999999999999
 20
12.96
 10
29.86
 20
12.96
 10
29.86
 20
12.939999999999998
 10
29.86
 20
12.920000000000002
 10
29.88000000000001
 20
12.899999999999999
 10
29.88000000000001
 20
12.879999999999995
 10
29.88000000000001
 20
12.86
 10
29.89999999999999
 20
12.86
 10
29.89999999999999
 20
12.839999999999996
 10
29.89999999999999
 20
12.82
 10
29.92
 20
12.82
 10
29.92
 20
12.799999999999997
 10
29.92
 20
12.780000000000001
 10
29.940000000000012
 20
12.780000000000001
 10
29.940000000000012
 20
12.759999999999998
 10
29.940000000000012
 20
12.740000000000002
 10
29.959999999999994
 20
12.740000000000002
 10
29.959999999999994
 20
12.719999999999999
 10
29.980000000000004
 20
12.719999999999999
 10
29.980000000000004
 20
12.699999999999996
 10
29.980000000000004
 20
12.68
 10
30.000000000000014
 20
12.68
 10
30.000000000000014
 20
12.659999999999997
 10
30.019999999999996
 20
12.659999999999997
 10
30.019999999999996
 20
12.64
 10
30.019999999999996
 20
12.619999999999997
 10
30.040000000000006
 20
12.619999999999997
 10
30.040000000000006
 20
12.600000000000001
 10
30.059999999999988
 20
12.600000000000001
 10
30.059999999999988
 20
12.579999999999998
 10
30.08
 20
12.579999999999998
 10
30.08
 20
12.559999999999995
 10
30.10000000000001
 20
12.54
 10
30.10000000000001
 20
12.519999999999996
 10
30.11999999999999
 20
12.519999999999996
 10
30.11999999999999
 20
12.5
 10
30.14
 20
12.5
 10
30.14
 20
12.479999999999997
 10
30.16000000000001
 20
12.479999999999997
 10
30.16000000000001
 20
12.46
 10
30.179999999999993
 20
12.46
 10
30.179999999999993
 20
12.439999999999998
 10
30.200000000000003
 20
12.439999999999998
 10
30.200000000000003
 20
12.420000000000002
 10
30.220000000000013
 20
12.420000000000002
 10
30.239999999999995
 20
12.420000000000002
 10
30.239999999999995
 20
12.399999999999999
 10
30.260000000000005
 20
12.399999999999999
 10
30.260000000000005
 20
12.379999999999995
 10
30.279999999999987
 20
12.379999999999995
 10
30.279999999999987
 20
12.36
 10
30.299999999999997
 20
12.36
 10
30.299999999999997
 20
12.339999999999996
 10
30.320000000000007
 20
12.339999999999996
 10
30.33999999999999
 20
12.339999999999996
 10
30.33999999999999
 20
12.32
 10
30.36
 20
12.32
 10
30.36
 20
12.299999999999997
 10
30.38000000000001
 20
12.299999999999997
 10
30.39999999999999
 20
12.280000000000001
 10
30.42
 20
12.280000000000001
 10
30.42
 20
12.259999999999998
 10
30.440000000000012
 20
12.259999999999998
 10
30.459999999999994
 20
12.259999999999998
 10
30.459999999999994
 20
12.240000000000002
 10
30.480000000000004
 20
12.240000000000002
 10
30.480000000000004
 20
12.219999999999999
 10
30.500000000000014
 20
12.219999999999999
 10
30.519999999999996
 20
12.219999999999999
 10
30.519999999999996
 20
12.199999999999996
 10
30.540000000000006
 20
12.199999999999996
 10
30.559999999999988
 20
12.199999999999996
 10
30.559999999999988
 20
12.18
 10
30.58
 20
12.18
 10
30.60000000000001
 20
12.159999999999997
 10
30.61999999999999
 20
12.159999999999997
 10
30.61999999999999
 20
12.14
 10
30.64
 20
12.14
 10
30.66000000000001
 20
12.14
 10
30.66000000000001
 20
12.119999999999997
 10
30.679999999999993
 20
12.119999999999997
 10
30.700000000000003
 20
12.119999999999997
 10
30.700000000000003
 20
12.100000000000001
 10
30.720000000000013
 20
12.100000000000001
 10
30.739999999999995
 20
12.100000000000001
 10
30.739999999999995
 20
12.079999999999998
 10
30.760000000000005
 20
12.079999999999998
 10
30.779999999999987
 20
12.059999999999995
 10
30.799999999999997
 20
12.059999999999995
 10
30.799999999999997
 20
12.04
 10
30.820000000000007
 20
12.04
 10
30.83999999999999
 20
12.04
 10
30.83999999999999
 20
12.019999999999996
 10
30.86
 20
12.019999999999996
 10
30.88000000000001
 20
12.0
 10
30.89999999999999
 20
12.0
 10
30.92
 20
11.979999999999997
 10
30.940000000000012
 20
11.979999999999997
 10
30.940000000000012
 20
11.96
 10
30.959999999999994
 20
11.96
 10
30.980000000000004
 20
11.96
 10
30.980000000000004
 20
11.939999999999998
 10
31.000000000000014
 20
11.939999999999998
 10
31.019999999999996
 20
11.939999999999998
 10
31.019999999999996
 20
11.920000000000002
 10
31.040000000000006
 20
11.920000000000002
 10
31.040000000000006
 20
11.899999999999999
 10
31.059999999999988
 20
11.899999999999999
 10
31.08
 20
11.899999999999999
 10
31.08
 20
11.879999999999995
 10
31.10000000000001
 20
11.879999999999995
 10
31.11999999999999
 20
11.86
 10
31.14
 20
11.86
 10
31.14
 20
11.839999999999996
 10
31.16000000000001
 20
11.839999999999996
 10
31.16000000000001
 20
11.82
 10
31.179999999999993
 20
11.82
 10
31.200000000000003
 20
11.82
 10
31.200000000000003
 20
11.799999999999997
 10
31.220000000000013
 20
11.799999999999997
 10
31.239999999999995
 20
11.780000000000001
 10
31.260000000000005
 20
11.780000000000001
 10
31.260000000000005
 20
11.759999999999998
 10
31.279999999999987
 20
11.759999999999998
 10
31.279999999999987
 20
11.740000000000002
 10
31.299999999999997
 20
11.740000000000002
 10
31.320000000000007
 20
11.719999999999999
 10
31.33999999999999
 20
11.719999999999999
 10
31.33999999999999
 20
11.699999999999996
 10
31.36
 20
11.699999999999996
 10
31.36
 20
11.68
 10
31.38000000000001
 20
11.68
 10
31.38000000000001
 20
11.659999999999997
 10
31.39999999999999
 20
11.659999999999997
 10
31.42
 20
11.659999999999997
 10
31.42
 20
11.64
 10
31.440000000000012
 20
11.64
 10
31.440000000000012
 20
11.619999999999997
 10
31.459999999999994
 20
11.619999999999997
 10
31.459999999999994
 20
11.600000000000001
 10
31.480000000000004
 20
11.600000000000001
 10
31.480000000000004
 20
11.579999999999998
 10
31.500000000000014
 20
11.579999999999998
 10
31.519999999999996
 20
11.559999999999995
 10
31.540000000000006
 20
11.54
 10
31.559999999999988
 20
11.519999999999996
 10
31.58
 20
11.5
 10
31.60000000000001
 20
11.5
 10
31.60000000000001
 20
11.479999999999997
 10
31.61999999999999
 20
11.479999999999997
 10
31.61999999999999
 20
11.46
 10
31.64
 20
11.46
 10
31.64
 20
11.439999999999998
 10
31.66000000000001
 20
11.439999999999998
 10
31.679999999999993
 20
11.420000000000002
 10
31.700000000000003
 20
11.399999999999999
 10
31.720000000000013
 20
11.379999999999995
 10
31.739999999999995
 20
11.36
 10
31.760000000000005
 20
11.339999999999996
 10
31.779999999999987
 20
11.32
 10
31.779999999999987
 20
11.299999999999997
 10
31.799999999999997
 20
11.299999999999997
 10
31.820000000000007
 20
11.280000000000001
 10
31.820000000000007
 20
11.259999999999998
 10
31.83999999999999
 20
11.259999999999998
 10
31.86
 20
11.240000000000002
 10
31.86
 20
11.219999999999999
 10
31.88000000000001
 20
11.219999999999999
 10
31.89999999999999
 20
11.199999999999996
 10
31.89999999999999
 20
11.18
 10
31.92
 20
11.159999999999997
 10
31.940000000000012
 20
11.159999999999997
 10
31.940000000000012
 20
11.14
 10
31.959999999999994
 20
11.119999999999997
 10
31.980000000000004
 20
11.100000000000001
 10
32.000000000000014
 20
11.079999999999998
 10
32.019999999999996
 20
11.059999999999995
 10
32.019999999999996
 20
11.04
 10
32.040000000000006
 20
11.04
 10
32.05999999999999
 20
11.019999999999996
 10
32.05999999999999
 20
11.0
 10
32.08
 20
10.979999999999997
 10
32.10000000000001
 20
10.96
 10
32.11999999999999
 20
10.939999999999998
 10
32.14
 20
10.920000000000002
 10
32.16000000000001
 20
10.899999999999999
 10
32.16000000000001
 20
10.879999999999995
 10
32.17999999999999
 20
10.86
 10
32.2
 20
10.86
 10
32.2
 20
10.839999999999996
 10
32.22000000000001
 20
10.82
 10
32.22000000000001
 20
10.799999999999997
 10
32.239999999999995
 20
10.799999999999997
 10
32.260000000000005
 20
10.780000000000001
 10
32.260000000000005
 20
10.759999999999998
 10
32.27999999999999
 20
10.740000000000002
 10
32.27999999999999
 20
10.719999999999999
 10
32.3
 20
10.719999999999999
 10
32.32000000000001
 20
10.699999999999996
 10
32.32000000000001
 20
10.68
 10
32.33999999999999
 20
10.659999999999997
 10
32.36
 20
10.64
 10
32.38000000000001
 20
10.619999999999997
 10
32.38000000000001
 20
10.600000000000001
 10
32.39999999999999
 20
10.579999999999998
 10
32.42
 20
10.559999999999995
 10
32.42
 20
10.54
 10
32.44000000000001
 20
10.54
 10
32.44000000000001
 20
10.519999999999996
 10
32.459999999999994
 20
10.5
 10
32.480000000000004
 20
10.479999999999997
 10
32.480000000000004
 20
10.46
 10
32.500000000000014
 20
10.439999999999998
 10
32.519999999999996
 20
10.420000000000002
 10
32.519999999999996
 20
10.399999999999999
 10
32.540000000000006
 20
10.399999999999999
 10
32.540000000000006
 20
10.379999999999995
 10
32.55999999999999
 20
10.36
 10
32.55999999999999
 20
10.339999999999996
 10
32.58
 20
10.339999999999996
 10
32.58
 20
10.32
 10
32.60000000000001
 20
10.299999999999997
 10
32.60000000000001
 20
10.280000000000001
 10
32.61999999999999
 20
10.280000000000001
 10
32.61999999999999
 20
10.259999999999998
 10
32.64
 20
10.240000000000002
 10
32.66000000000001
 20
10.219999999999999
 10
32.66000000000001
 20
10.199999999999996
 10
32.67999999999999
 20
10.18
 10
32.67999999999999
 20
10.159999999999997
 10
32.7
 20
10.159999999999997
 10
32.7
 20
10.14
 10
32.72000000000001
 20
10.119999999999997
 10
32.72000000000001
 20
10.100000000000001
 10
32.739999999999995
 20
10.100000000000001
 10
32.739999999999995
 20
10.079999999999998
 10
32.760000000000005
 20
10.059999999999995
 10
32.760000000000005
 20
10.04
 10
32.77999999999999
 20
10.019999999999996
 10
32.8
 20
10.0
 10
32.8
 20
9.979999999999997
 10
32.82000000000001
 20
9.979999999999997
 10
32.82000000000001
 20
9.96
 10
32.82000000000001
 20
9.939999999999998
 10
32.83999999999999
 20
9.939999999999998
 10
32.83999999999999
 20
9.920000000000002
 10
32.86
 20
9.899999999999999
 10
32.88000000000001
 20
9.879999999999995
 10
32.88000000000001
 20
9.86
 10
32.89999999999999
 20
9.839999999999996
 10
32.89999999999999
 20
9.82
 10
32.92
 20
9.82
 10
32.92
 20
9.799999999999997
 10
32.94000000000001
 20
9.780000000000001
 10
32.94000000000001
 20
9.759999999999998
 10
32.959999999999994
 20
9.740000000000002
 10
32.980000000000004
 20
9.719999999999999
 10
32.980000000000004
 20
9.699999999999996
 10
33.000000000000014
 20
9.68
 10
33.000000000000014
 20
9.659999999999997
 10
33.019999999999996
 20
9.64
 10
33.019999999999996
 20
9.619999999999997
 10
33.040000000000006
 20
9.619999999999997
 10
33.040000000000006
 20
9.600000000000001
 10
33.05999999999999
 20
9.579999999999998
 10
33.05999999999999
 20
9.559999999999995
 10
33.08
 20
9.559999999999995
 10
33.08
 20
9.54
 10
33.08
 20
9.519999999999996
 10
33.10000000000001
 20
9.519999999999996
 10
33.10000000000001
 20
9.5
 10
33.10000000000001
 20
9.479999999999997
 10
33.11999999999999
 20
9.479999999999997
 10
33.11999999999999
 20
9.46
 10
33.14
 20
9.46
 10
33.14
 20
9.439999999999998
 10
33.14
 20
9.420000000000002
 10
33.16000000000001
 20
9.420000000000002
 10
32.42
 20
8.219999999999999
 10
31.679999999999993
 20
7.0
 10
31.679999999999993
 20
7.019999999999996
 10
31.66000000000001
 20
7.019999999999996
 10
31.64
 20
7.019999999999996
 10
31.61999999999999
 20
7.019999999999996
 10
31.60000000000001
 20
7.019999999999996
 10
31.58
 20
7.019999999999996
 10
31.559999999999988
 20
7.019999999999996
 10
31.540000000000006
 20
7.019999999999996
 10
31.519999999999996
 20
7.019999999999996
 10
31.500000000000014
 20
7.019999999999996
 10
31.480000000000004
 20
7.019999999999996
 10
31.459999999999994
 20
7.019999999999996
 10
31.440000000000012
 20
7.019999999999996
 10
31.42
 20
7.019999999999996
 10
31.39999999999999
 20
7.019999999999996
 10
31.38000000000001
 20
7.019999999999996
 10
31.36
 20
7.019999999999996
 10
31.33999999999999
 20
7.039999999999999
 10
31.320000000000007
 20
7.039999999999999
 10
31.299999999999997
 20
7.039999999999999
 10
31.279999999999987
 20
7.039999999999999
 10
31.260000000000005
 20
7.039999999999999
 10
31.239999999999995
 20
7.039999999999999
 10
31.220000000000013
 20
7.039999999999999
 10
31.200000000000003
 20
7.039999999999999
 10
31.179999999999993
 20
7.039999999999999
 10
31.16000000000001
 20
7.039999999999999
 10
31.14
 20
7.039999999999999
 10
31.11999999999999
 20
7.039999999999999
 10
31.10000000000001
 20
7.059999999999995
 10
31.08
 20
7.059999999999995
 10
31.059999999999988
 20
7.059999999999995
 10
31.040000000000006
 20
7.059999999999995
 10
31.019999999999996
 20
7.059999999999995
 10
31.000000000000014
 20
7.059999999999995
 10
30.980000000000004
 20
7.059999999999995
 10
30.959999999999994
 20
7.059999999999995
 10
30.940000000000012
 20
7.059999999999995
 10
30.92
 20
7.059999999999995
 10
30.89999999999999
 20
7.059999999999995
 10
30.88000000000001
 20
7.079999999999998
 10
30.86
 20
7.079999999999998
 10
30.83999999999999
 20
7.079999999999998
 10
30.820000000000007
 20
7.079999999999998
 10
30.799999999999997
 20
7.079999999999998
 10
30.779999999999987
 20
7.079999999999998
 10
30.760000000000005
 20
7.079999999999998
 10
30.739999999999995
 20
7.079999999999998
 10
30.720000000000013
 20
7.079999999999998
 10
30.700000000000003
 20
7.100000000000001
 10
30.679999999999993
 20
7.100000000000001
 10
30.66000000000001
 20
7.100000000000001
 10
30.64
 20
7.100000000000001
 10
30.61999999999999
 20
7.100000000000001
 10
30.60000000000001
 20
7.100000000000001
 10
30.58
 20
7.100000000000001
 10
30.559999999999988
 20
7.100000000000001
 10
30.540000000000006
 20
7.119999999999997
 10
30.519999999999996
 20
7.119999999999997
 10
30.500000000000014
 20
7.119999999999997
 10
30.480000000000004
 20
7.119999999999997
 10
30.459999999999994
 20
7.119999999999997
 10
30.440000000000012
 20
7.119999999999997
 10
30.42
 20
7.119999999999997
 10
30.39999999999999
 20
7.140000000000001
 10
30.38000000000001
 20
7.140000000000001
 10
30.36
 20
7.140000000000001
 10
30.33999999999999
 20
7.140000000000001
 10
30.320000000000007
 20
7.140000000000001
 10
30.299999999999997
 20
7.140000000000001
 10
30.279999999999987
 20
7.159999999999997
 10
30.260000000000005
 20
7.159999999999997
 10
30.239999999999995
 20
7.159999999999997
 10
30.220000000000013
 20
7.159999999999997
 10
30.200000000000003
 20
7.159999999999997
 10
30.179999999999993
 20
7.159999999999997
 10
30.16000000000001
 20
7.18
 10
30.14
 20
7.18
 10
30.11999999999999
 20
7.18
 10
30.10000000000001
 20
7.18
 10
30.08
 20
7.18
 10
30.059999999999988
 20
7.18
 10
30.040000000000006
 20
7.199999999999996
 10
30.019999999999996
 20
7.199999999999996
 10
30.000000000000014
 20
7.199999999999996
 10
29.980000000000004
 20
7.199999999999996
 10
29.959999999999994
 20
7.199999999999996
 10
29.940000000000012
 20
7.219999999999999
 10
29.92
 20
7.219999999999999
 10
29.89999999999999
 20
7.219999999999999
 10
29.88000000000001
 20
7.219999999999999
 10
29.86
 20
7.240000000000002
 10
29.83999999999999
 20
7.240000000000002
 10
29.820000000000007
 20
7.240000000000002
 10
29.799999999999997
 20
7.240000000000002
 10
29.779999999999987
 20
7.240000000000002
 10
29.760000000000005
 20
7.259999999999998
 10
29.739999999999995
 20
7.259999999999998
 10
29.720000000000013
 20
7.259999999999998
 10
29.700000000000003
 20
7.259999999999998
 10
29.679999999999993
 20
7.280000000000001
 10
29.66000000000001
 20
7.280000000000001
 10
29.64
 20
7.280000000000001
 10
29.61999999999999
 20
7.280000000000001
 10
29.60000000000001
 20
7.299999999999997
 10
29.58
 20
7.299999999999997
 10
29.559999999999988
 20
7.299999999999997
 10
29.540000000000006
 20
7.299999999999997
 10
29.519999999999996
 20
7.32
 10
29.500000000000014
 20
7.32
 10
29.480000000000004
 20
7.32
 10
29.459999999999994
 20
7.32
 10
29.440000000000012
 20
7.339999999999996
 10
29.42
 20
7.339999999999996
 10
29.39999999999999
 20
7.359999999999999
 10
29.38000000000001
 20
7.359999999999999
 10
29.36
 20
7.359999999999999
 10
29.33999999999999
 20
7.359999999999999
 10
29.320000000000007
 20
7.3799999999999955
 10
29.299999999999997
 20
7.3799999999999955
 10
29.279999999999987
 20
7.3799999999999955
 10
29.279999999999987
 20
7.399999999999999
 10
29.260000000000005
 20
7.399999999999999
 10
29.239999999999995
 20
7.399999999999999
 10
29.220000000000013
 20
7.399999999999999
 10
29.200000000000003
 20
7.420000000000002
 10
29.179999999999993
 20
7.420000000000002
 10
29.16000000000001
 20
7.439999999999998
 10
29.14
 20
7.439999999999998
 10
29.11999999999999
 20
7.439999999999998
 10
29.10000000000001
 20
7.460000000000001
 10
29.08
 20
7.460000000000001
 10
29.059999999999988
 20
7.460000000000001
 10
29.040000000000006
 20
7.479999999999997
 10
29.019999999999996
 20
7.479999999999997
 10
29.000000000000014
 20
7.5
 10
28.980000000000004
 20
7.5
 10
28.959999999999994
 20
7.5
 10
28.959999999999994
 20
7.519999999999996
 10
28.940000000000012
 20
7.519999999999996
 10
28.92
 20
7.519999999999996
 10
28.92
 20
7.539999999999999
 10
28.89999999999999
 20
7.539999999999999
 10
28.88000000000001
 20
7.539999999999999
 10
28.86
 20
7.559999999999995
 10
28.83999999999999
 20
7.559999999999995
 10
28.820000000000007
 20
7.579999999999998
 10
28.799999999999997
 20
7.579999999999998
 10
28.779999999999987
 20
7.600000000000001
 10
28.760000000000005
 20
7.600000000000001
 10
28.739999999999995
 20
7.619999999999997
 10
28.720000000000013
 20
7.619999999999997
 10
28.700000000000003
 20
7.640000000000001
 10
28.679999999999993
 20
7.640000000000001
 10
28.66000000000001
 20
7.640000000000001
 10
28.66000000000001
 20
7.659999999999997
 10
28.64
 20
7.659999999999997
 10
28.61999999999999
 20
7.68
 10
28.60000000000001
 20
7.68
 10
28.58
 20
7.699999999999996
 10
28.559999999999988
 20
7.719999999999999
 10
28.540000000000006
 20
7.719999999999999
 10
28.519999999999996
 20
7.740000000000002
 10
28.500000000000014
 20
7.740000000000002
 10
28.480000000000004
 20
7.759999999999998
 10
28.459999999999994
 20
7.759999999999998
 10
28.459999999999994
 20
7.780000000000001
 10
28.440000000000012
 20
7.780000000000001
 10
28.42
 20
7.799999999999997
 10
28.39999999999999
 20
7.799999999999997
 10
28.38000000000001
 20
7.82
 10
28.36
 20
7.82
 10
28.36
 20
7.839999999999996
 10
28.33999999999999
 20
7.839999999999996
 10
28.320000000000007
 20
7.859999999999999
 10
28.299999999999997
 20
7.859999999999999
 10
28.299999999999997
 20
7.8799999999999955
 10
28.279999999999987
 20
7.8799999999999955
 10
28.279999999999987
 20
7.899999999999999
 10
28.260000000000005
 20
7.899999999999999
 10
28.239999999999995
 20
7.899999999999999
 10
28.239999999999995
 20
7.920000000000002
 10
28.220000000000013
 20
7.920000000000002
 10
28.200000000000003
 20
7.939999999999998
 10
28.179999999999993
 20
7.960000000000001
 10
28.16000000000001
 20
7.960000000000001
 10
28.16000000000001
 20
7.979999999999997
 10
28.14
 20
7.979999999999997
 10
28.11999999999999
 20
7.979999999999997
 10
28.11999999999999
 20
8.0
 10
28.10000000000001
 20
8.0
 10
28.10000000000001
 20
8.019999999999996
 10
28.08
 20
8.019999999999996
 10
28.059999999999988
 20
8.019999999999996
 10
28.059999999999988
 20
8.04
 10
28.040000000000006
 20
8.04
 10
28.040000000000006
 20
8.059999999999995
 10
28.019999999999996
 20
8.059999999999995
 10
28.000000000000014
 20
8.059999999999995
 10
28.000000000000014
 20
8.079999999999998
 10
27.980000000000004
 20
8.079999999999998
 10
27.959999999999994
 20
8.100000000000001
 10
27.940000000000012
 20
8.100000000000001
 10
27.940000000000012
 20
8.119999999999997
 10
27.92
 20
8.119999999999997
 10
27.89999999999999
 20
8.119999999999997
 10
27.89999999999999
 20
8.14
 10
27.88000000000001
 20
8.14
 10
27.86
 20
8.159999999999997
 10
27.83999999999999
 20
8.159999999999997
 10
27.820000000000007
 20
8.18
 10
27.799999999999997
 20
8.18
 10
27.799999999999997
 20
8.199999999999996
 10
27.779999999999987
 20
8.199999999999996
 10
27.760000000000005
 20
8.199999999999996
 10
27.760000000000005
 20
8.219999999999999
 10
27.739999999999995
 20
8.219999999999999
 10
27.720000000000013
 20
8.219999999999999
 10
27.700000000000003
 20
8.219999999999999
 10
27.700000000000003
 20
8.240000000000002
 10
27.679999999999993
 20
8.240000000000002
 10
27.66000000000001
 20
8.240000000000002
 10
27.66000000000001
 20
8.259999999999998
 10
27.64
 20
8.259999999999998
 10
27.61999999999999
 20
8.259999999999998
 10
27.60000000000001
 20
8.259999999999998
 10
27.60000000000001
 20
8.280000000000001
 10
27.58
 20
8.280000000000001
 10
27.559999999999988
 20
8.280000000000001
 10
27.540000000000006
 20
8.280000000000001
 10
27.540000000000006
 20
8.299999999999997
 10
27.519999999999996
 20
8.299999999999997
 10
27.500000000000014
 20
8.299999999999997
 10
27.480000000000004
 20
8.299999999999997
 10
27.459999999999994
 20
8.299999999999997
 10
27.459999999999994
 20
8.32
 10
27.440000000000012
 20
8.32
 10
27.42
 20
8.32
 10
27.39999999999999
 20
8.32
 10
27.38000000000001
 20
8.32
 10
27.36
 20
8.32
 10
27.33999999999999
 20
8.32
 10
27.33999999999999
 20
8.339999999999996
 10
27.320000000000007
 20
8.339999999999996
 10
27.299999999999997
 20
8.339999999999996
 10
27.279999999999987
 20
8.339999999999996
 10
27.260000000000005
 20
8.339999999999996
 10
27.239999999999995
 20
8.339999999999996
 10
27.220000000000013
 20
8.339999999999996
 10
27.200000000000003
 20
8.339999999999996
 10
27.179999999999993
 20
8.339999999999996
 10
27.16000000000001
 20
8.339999999999996
 10
27.14
 20
8.339999999999996
 10
27.11999999999999
 20
8.339999999999996
 10
27.10000000000001
 20
8.339999999999996
 10
27.08
 20
8.339999999999996
 10
27.059999999999988
 20
8.339999999999996
 10
27.040000000000006
 20
8.339999999999996
 10
27.019999999999996
 20
8.339999999999996
 10
27.019999999999996
 20
8.32
 10
27.000000000000014
 20
8.32
 10
26.980000000000004
 20
8.32
 10
26.959999999999994
 20
8.32
 10
26.940000000000012
 20
8.32
 10
26.92
 20
8.32
 10
26.89999999999999
 20
8.32
 10
26.88000000000001
 20
8.32
 10
26.88000000000001
 20
8.299999999999997
 10
26.86
 20
8.299999999999997
 10
26.83999999999999
 20
8.299999999999997
 10
26.820000000000007
 20
8.299999999999997
 10
26.38000000000001
 20
7.8799999999999955
 10
25.940000000000012
 20
7.479999999999997
 10
25.480000000000004
 20
7.100000000000001
 10
25.000000000000014
 20
6.740000000000002
 10
25.000000000000014
 20
6.719999999999999
 10
24.980000000000004
 20
6.719999999999999
 10
24.980000000000004
 20
6.699999999999996
 10
24.980000000000004
 20
6.68
 10
24.980000000000004
 20
6.659999999999997
 10
24.959999999999994
 20
6.659999999999997
 10
24.959999999999994
 20
6.640000000000001
 10
24.959999999999994
 20
6.619999999999997
 10
24.959999999999994
 20
6.600000000000001
 10
24.940000000000012
 20
6.600000000000001
 10
24.940000000000012
 20
6.579999999999998
 10
24.940000000000012
 20
6.559999999999995
 10
24.940000000000012
 20
6.539999999999999
 10
24.940000000000012
 20
6.519999999999996
 10
24.92
 20
6.519999999999996
 10
24.92
 20
6.5
 10
24.92
 20
6.479999999999997
 10
24.92
 20
6.460000000000001
 10
24.92
 20
6.439999999999998
 10
24.89999999999999
 20
6.420000000000002
 10
24.89999999999999
 20
6.399999999999999
 10
24.89999999999999
 20
6.3799999999999955
 10
24.89999999999999
 20
6.359999999999999
 10
24.89999999999999
 20
6.339999999999996
 10
24.89999999999999
 20
6.32
 10
24.89999999999999
 20
6.299999999999997
 10
24.89999999999999
 20
6.280000000000001
 10
24.88000000000001
 20
6.280000000000001
 10
24.88000000000001
 20
6.259999999999998
 10
24.88000000000001
 20
6.240000000000002
 10
24.88000000000001
 20
6.219999999999999
 10
24.88000000000001
 20
6.199999999999996
 10
24.88000000000001
 20
6.18
 10
24.88000000000001
 20
6.159999999999997
 10
24.88000000000001
 20
6.140000000000001
 10
24.88000000000001
 20
6.119999999999997
 10
24.88000000000001
 20
6.100000000000001
 10
24.88000000000001
 20
6.079999999999998
 10
24.89999999999999
 20
6.079999999999998
 10
24.89999999999999
 20
6.059999999999995
 10
24.89999999999999
 20
6.039999999999999
 10
24.89999999999999
 20
6.019999999999996
 10
24.89999999999999
 20
6.0
 10
24.89999999999999
 20
5.979999999999997
 10
24.89999999999999
 20
5.960000000000001
 10
24.89999999999999
 20
5.939999999999998
 10
24.89999999999999
 20
5.920000000000002
 10
24.92
 20
5.920000000000002
 10
24.92
 20
5.899999999999999
 10
24.92
 20
5.8799999999999955
 10
24.92
 20
5.859999999999999
 10
24.92
 20
5.839999999999996
 10
24.940000000000012
 20
5.839999999999996
 10
24.940000000000012
 20
5.82
 10
24.940000000000012
 20
5.799999999999997
 10
24.940000000000012
 20
5.780000000000001
 10
24.959999999999994
 20
5.759999999999998
 10
24.959999999999994
 20
5.740000000000002
 10
24.959999999999994
 20
5.719999999999999
 10
24.980000000000004
 20
5.719999999999999
 10
24.980000000000004
 20
5.699999999999996
 10
24.980000000000004
 20
5.68
 10
24.980000000000004
 20
5.659999999999997
 10
25.000000000000014
 20
5.659999999999997
 10
25.000000000000014
 20
5.640000000000001
 10
25.000000000000014
 20
5.619999999999997
 10
25.000000000000014
 20
5.600000000000001
 10
25.019999999999996
 20
5.600000000000001
 10
25.019999999999996
 20
5.579999999999998
 10
25.019999999999996
 20
5.559999999999995
 10
25.040000000000006
 20
5.559999999999995
 10
25.040000000000006
 20
5.539999999999999
 10
25.040000000000006
 20
5.519999999999996
 10
25.059999999999988
 20
5.5
 10
25.059999999999988
 20
5.479999999999997
 10
25.08
 20
5.460000000000001
 10
25.08
 20
5.439999999999998
 10
25.08
 20
5.420000000000002
 10
25.10000000000001
 20
5.420000000000002
 10
25.10000000000001
 20
5.399999999999999
 10
25.10000000000001
 20
5.3799999999999955
 10
25.11999999999999
 20
5.3799999999999955
 10
25.11999999999999
 20
5.359999999999999
 10
25.11999999999999
 20
5.339999999999996
 10
25.14
 20
5.339999999999996
 10
25.14
 20
5.32
 10
25.14
 20
5.299999999999997
 10
25.16000000000001
 20
5.299999999999997
 10
25.16000000000001
 20
5.280000000000001
 10
25.16000000000001
 20
5.259999999999998
 10
25.179999999999993
 20
5.240000000000002
 10
25.179999999999993
 20
5.219999999999999
 10
25.200000000000003
 20
5.199999999999996
 10
25.200000000000003
 20
5.18
 10
25.200000000000003
 20
5.159999999999997
 10
25.220000000000013
 20
5.159999999999997
 10
25.220000000000013
 20
5.140000000000001
 10
25.220000000000013
 20
5.119999999999997
 10
25.239999999999995
 20
5.119999999999997
 10
25.239999999999995
 20
5.100000000000001
 10
25.239999999999995
 20
5.079999999999998
 10
25.260000000000005
 20
5.059999999999995
 10
25.260000000000005
 20
5.039999999999999
 10
25.279999999999987
 20
5.019999999999996
 10
25.279999999999987
 20
5.0
 10
25.279999999999987
 20
4.979999999999997
 10
25.299999999999997
 20
4.979999999999997
 10
25.299999999999997
 20
4.960000000000001
 10
25.299999999999997
 20
4.939999999999998
 10
25.320000000000007
 20
4.920000000000002
 10
25.320000000000007
 20
4.899999999999999
 10
25.320000000000007
 20
4.8799999999999955
 10
25.33999999999999
 20
4.8799999999999955
 10
25.33999999999999
 20
4.859999999999999
 10
25.33999999999999
 20
4.839999999999996
 10
25.36
 20
4.82
 10
25.36
 20
4.799999999999997
 10
25.36
 20
4.780000000000001
 10
25.36
 20
4.759999999999998
 10
25.38000000000001
 20
4.759999999999998
 10
25.38000000000001
 20
4.740000000000002
 10
25.38000000000001
 20
4.719999999999999
 10
25.38000000000001
 20
4.699999999999996
 10
25.39999999999999
 20
4.699999999999996
 10
25.39999999999999
 20
4.68
 10
25.39999999999999
 20
4.659999999999997
 10
25.39999999999999
 20
4.640000000000001
 10
25.42
 20
4.640000000000001
 10
25.42
 20
4.619999999999997
 10
25.42
 20
4.600000000000001
 10
25.42
 20
4.579999999999998
 10
25.440000000000012
 20
4.559999999999995
 10
25.440000000000012
 20
4.539999999999999
 10
25.440000000000012
 20
4.519999999999996
 10
25.440000000000012
 20
4.5
 10
25.459999999999994
 20
4.479999999999997
 10
25.459999999999994
 20
4.460000000000001
 10
25.459999999999994
 20
4.439999999999998
 10
25.459999999999994
 20
4.420000000000002
 10
25.480000000000004
 20
4.399999999999999
 10
25.480000000000004
 20
4.3799999999999955
 10
25.480000000000004
 20
4.359999999999999
 10
25.480000000000004
 20
4.339999999999996
 10
25.480000000000004
 20
4.32
 10
25.500000000000014
 20
4.299999999999997
 10
25.500000000000014
 20
4.280000000000001
 10
25.500000000000014
 20
4.259999999999998
 10
25.500000000000014
 20
4.240000000000002
 10
25.500000000000014
 20
4.219999999999999
 10
25.519999999999996
 20
4.219999999999999
 10
25.519999999999996
 20
4.199999999999996
 10
25.519999999999996
 20
4.18
 10
25.519999999999996
 20
4.159999999999997
 10
25.519999999999996
 20
4.140000000000001
 10
25.519999999999996
 20
4.119999999999997
 10
25.519999999999996
 20
4.100000000000001
 10
25.540000000000006
 20
4.079999999999998
 10
25.540000000000006
 20
4.059999999999995
 10
25.540000000000006
 20
4.039999999999999
 10
25.540000000000006
 20
4.019999999999996
 10
25.540000000000006
 20
4.0
 10
25.540000000000006
 20
3.979999999999997
 10
25.559999999999988
 20
3.960000000000001
 10
25.559999999999988
 20
3.9399999999999977
 10
25.559999999999988
 20
3.9200000000000017
 10
25.559999999999988
 20
3.8999999999999986
 10
25.559999999999988
 20
3.8799999999999955
 10
25.559999999999988
 20
3.8599999999999994
 10
25.559999999999988
 20
3.8399999999999963
 10
25.559999999999988
 20
3.8200000000000003
 10
25.559999999999988
 20
3.799999999999997
 10
25.559999999999988
 20
3.780000000000001
 10
25.58
 20
3.759999999999998
 10
25.58
 20
3.740000000000002
 10
25.58
 20
3.719999999999999
 10
25.58
 20
3.6999999999999957
 10
25.58
 20
3.6799999999999997
 10
25.58
 20
3.6599999999999966
 10
25.58
 20
3.6400000000000006
 10
25.58
 20
3.6199999999999974
 10
25.58
 20
3.6000000000000014
 10
25.58
 20
3.5799999999999983
 10
25.58
 20
3.559999999999995
 10
25.58
 20
3.539999999999999
 10
25.58
 20
3.519999999999996
 10
25.60000000000001
 20
3.5
 10
25.60000000000001
 20
3.479999999999997
 10
25.60000000000001
 20
3.460000000000001
 10
25.60000000000001
 20
3.4399999999999977
 10
25.60000000000001
 20
3.4200000000000017
 10
25.60000000000001
 20
3.3999999999999986
 10
25.60000000000001
 20
3.3799999999999955
 10
25.60000000000001
 20
3.3599999999999994
 10
25.60000000000001
 20
3.3399999999999963
 10
25.60000000000001
 20
3.3200000000000003
 10
25.60000000000001
 20
3.299999999999997
 10
25.60000000000001
 20
3.280000000000001
 10
25.60000000000001
 20
3.259999999999998
 10
25.60000000000001
 20
3.240000000000002
 10
25.60000000000001
 20
3.219999999999999
 10
25.60000000000001
 20
3.1999999999999957
 10
25.60000000000001
 20
3.1799999999999997
 10
25.60000000000001
 20
3.1599999999999966
 10
25.60000000000001
 20
3.1400000000000006
 10
25.60000000000001
 20
3.1199999999999974
 10
25.60000000000001
 20
3.1000000000000014
 10
25.60000000000001
 20
3.0799999999999983
 10
25.60000000000001
 20
3.059999999999995
 10
25.60000000000001
 20
3.039999999999999
 10
25.60000000000001
 20
3.019999999999996
 10
25.60000000000001
 20
3.0
 10
25.60000000000001
 20
2.979999999999997
 10
25.60000000000001
 20
2.960000000000001
 10
25.60000000000001
 20
2.9399999999999977
 10
25.60000000000001
 20
2.9200000000000017
 10
25.60000000000001
 20
2.8999999999999986
 10
25.60000000000001
 20
2.8799999999999955
 10
25.60000000000001
 20
2.8599999999999994
 10
25.60000000000001
 20
2.8399999999999963
 10
25.60000000000001
 20
2.8200000000000003
 10
25.60000000000001
 20
2.799999999999997
 10
25.60000000000001
 20
2.780000000000001
 10
25.60000000000001
 20
2.759999999999998
 10
25.60000000000001
 20
2.740000000000002
 10
25.60000000000001
 20
2.719999999999999
 10
25.60000000000001
 20
2.6999999999999957
 10
25.60000000000001
 20
2.6799999999999997
 10
25.60000000000001
 20
2.6599999999999966
 10
25.60000000000001
 20
2.6400000000000006
 10
25.60000000000001
 20
2.6199999999999974
 10
25.58
 20
2.6000000000000014
 10
25.58
 20
2.5799999999999983
 10
25.58
 20
2.559999999999995
 10
25.58
 20
2.539999999999999
 10
25.58
 20
2.519999999999996
 10
25.58
 20
2.5
 10
25.58
 20
2.479999999999997
 10
25.58
 20
2.460000000000001
 10
25.58
 20
2.4399999999999977
 10
25.58
 20
2.4200000000000017
 10
25.58
 20
2.3999999999999986
 10
25.58
 20
2.3799999999999955
 10
25.58
 20
2.3599999999999994
 10
25.58
 20
2.3399999999999963
 10
25.58
 20
2.3200000000000003
 10
25.58
 20
2.299999999999997
 10
25.58
 20
2.280000000000001
 10
25.58
 20
2.259999999999998
 10
25.559999999999988
 20
2.240000000000002
 10
25.559999999999988
 20
2.219999999999999
 10
25.559999999999988
 20
2.1999999999999957
 10
25.559999999999988
 20
2.1799999999999997
 10
25.559999999999988
 20
2.1599999999999966
 10
25.559999999999988
 20
2.1400000000000006
 10
25.559999999999988
 20
2.1199999999999974
 10
25.559999999999988
 20
2.1000000000000014
 10
25.559999999999988
 20
2.0799999999999983
 10
25.559999999999988
 20
2.059999999999995
 10
25.559999999999988
 20
2.039999999999999
 10
25.559999999999988
 20
2.019999999999996
 10
25.559999999999988
 20
2.0
 10
25.540000000000006
 20
1.9799999999999969
 10
25.540000000000006
 20
1.9600000000000009
 10
25.540000000000006
 20
1.9399999999999977
 10
25.540000000000006
 20
1.9200000000000017
 10
25.540000000000006
 20
1.8999999999999986
 10
25.540000000000006
 20
1.8799999999999955
 10
25.540000000000006
 20
1.8599999999999994
 10
25.540000000000006
 20
1.8399999999999963
 10
25.540000000000006
 20
1.8200000000000003
 10
25.540000000000006
 20
1.7999999999999972
 10
25.540000000000006
 20
1.7800000000000011
 10
25.519999999999996
 20
1.7800000000000011
 10
25.519999999999996
 20
1.759999999999998
 10
25.519999999999996
 20
1.740000000000002
 10
24.220000000000013
 20
1.1799999999999997
 10
22.92
 20
0.6400000000000006
 10
22.92
 20
0.6599999999999966
 10
22.89999999999999
 20
0.6599999999999966
 10
22.89999999999999
 20
0.6799999999999997
 10
22.88000000000001
 20
0.6799999999999997
 10
22.88000000000001
 20
0.6999999999999957
 10
22.86
 20
0.6999999999999957
 10
22.83999999999999
 20
0.7199999999999989
 10
22.820000000000007
 20
0.7199999999999989
 10
22.820000000000007
 20
0.740000000000002
 10
22.799999999999997
 20
0.740000000000002
 10
22.799999999999997
 20
0.759999999999998
 10
22.779999999999987
 20
0.759999999999998
 10
22.779999999999987
 20
0.7800000000000011
 10
22.760000000000005
 20
0.7800000000000011
 10
22.760000000000005
 20
0.7999999999999972
 10
22.739999999999995
 20
0.7999999999999972
 10
22.720000000000013
 20
0.8200000000000003
 10
22.700000000000003
 20
0.8399999999999963
 10
22.679999999999993
 20
0.8599999999999994
 10
22.66000000000001
 20
0.8599999999999994
 10
22.64
 20
0.8799999999999955
 10
22.61999999999999
 20
0.8999999999999986
 10
22.60000000000001
 20
0.9200000000000017
 10
22.58
 20
0.9200000000000017
 10
22.58
 20
0.9399999999999977
 10
22.559999999999988
 20
0.9399999999999977
 10
22.559999999999988
 20
0.9600000000000009
 10
22.540000000000006
 20
0.9600000000000009
 10
22.540000000000006
 20
0.9799999999999969
 10
22.519999999999996
 20
0.9799999999999969
 10
22.519999999999996
 20
1.0
 10
22.500000000000014
 20
1.0
 10
22.480000000000004
 20
1.019999999999996
 10
22.459999999999994
 20
1.0399999999999991
 10
22.440000000000012
 20
1.0599999999999952
 10
22.42
 20
1.0599999999999952
 10
22.42
 20
1.0799999999999983
 10
22.39999999999999
 20
1.1000000000000014
 10
22.38000000000001
 20
1.1000000000000014
 10
22.38000000000001
 20
1.1199999999999974
 10
22.36
 20
1.1199999999999974
 10
22.33999999999999
 20
1.1400000000000006
 10
22.320000000000007
 20
1.1599999999999966
 10
22.299999999999997
 20
1.1799999999999997
 10
22.279999999999987
 20
1.1999999999999957
 10
22.260000000000005
 20
1.2199999999999989
 10
22.239999999999995
 20
1.2199999999999989
 10
22.239999999999995
 20
1.240000000000002
 10
22.220000000000013
 20
1.259999999999998
 10
22.200000000000003
 20
1.259999999999998
 10
22.200000000000003
 20
1.2800000000000011
 10
22.179999999999993
 20
1.2800000000000011
 10
22.16000000000001
 20
1.2999999999999972
 10
22.16000000000001
 20
1.3200000000000003
 10
22.14
 20
1.3200000000000003
 10
22.11999999999999
 20
1.3399999999999963
 10
22.10000000000001
 20
1.3599999999999994
 10
22.10000000000001
 20
1.3799999999999955
 10
22.08
 20
1.3799999999999955
 10
22.059999999999988
 20
1.3999999999999986
 10
22.059999999999988
 20
1.4200000000000017
 10
22.040000000000006
 20
1.4200000000000017
 10
22.019999999999996
 20
1.4399999999999977
 10
22.000000000000014
 20
1.4600000000000009
 10
22.000000000000014
 20
1.4799999999999969
 10
21.980000000000004
 20
1.4799999999999969
 10
21.959999999999994
 20
1.5
 10
21.940000000000012
 20
1.519999999999996
 10
21.92
 20
1.519999999999996
 10
21.92
 20
1.5399999999999991
 10
21.89999999999999
 20
1.5599999999999952
 10
21.88000000000001
 20
1.5799999999999983
 10
21.86
 20
1.6000000000000014
 10
21.83999999999999
 20
1.6199999999999974
 10
21.820000000000007
 20
1.6400000000000006
 10
21.799999999999997
 20
1.6599999999999966
 10
21.779999999999987
 20
1.6799999999999997
 10
21.779999999999987
 20
1.6999999999999957
 10
21.760000000000005
 20
1.6999999999999957
 10
21.739999999999995
 20
1.7199999999999989
 10
21.720000000000013
 20
1.740000000000002
 10
21.700000000000003
 20
1.759999999999998
 10
21.679999999999993
 20
1.7800000000000011
 10
21.679999999999993
 20
1.7999999999999972
 10
21.66000000000001
 20
1.7999999999999972
 10
21.64
 20
1.8200000000000003
 10
21.64
 20
1.8399999999999963
 10
21.61999999999999
 20
1.8399999999999963
 10
21.61999999999999
 20
1.8599999999999994
 10
21.60000000000001
 20
1.8799999999999955
 10
21.58
 20
1.8999999999999986
 10
21.559999999999988
 20
1.9200000000000017
 10
21.540000000000006
 20
1.9399999999999977
 10
21.519999999999996
 20
1.9600000000000009
 10
21.500000000000014
 20
1.9799999999999969
 10
21.500000000000014
 20
2.0
 10
21.480000000000004
 20
2.019999999999996
 10
21.459999999999994
 20
2.019999999999996
 10
21.459999999999994
 20
2.039999999999999
 10
21.440000000000012
 20
2.059999999999995
 10
21.42
 20
2.0799999999999983
 10
21.39999999999999
 20
2.1000000000000014
 10
21.39999999999999
 20
2.1199999999999974
 10
21.38000000000001
 20
2.1400000000000006
 10
21.36
 20
2.1599999999999966
 10
21.33999999999999
 20
2.1799999999999997
 10
21.320000000000007
 20
2.1999999999999957
 10
21.320000000000007
 20
2.219999999999999
 10
21.299999999999997
 20
2.219999999999999
 10
21.299999999999997
 20
2.240000000000002
 10
21.279999999999987
 20
2.259999999999998
 10
21.279999999999987
 20
2.280000000000001
 10
21.260000000000005
 20
2.280000000000001
 10
21.239999999999995
 20
2.299999999999997
 10
21.239999999999995
 20
2.3200000000000003
 10
21.220000000000013
 20
2.3399999999999963
 10
21.200000000000003
 20
2.3599999999999994
 10
21.200000000000003
 20
2.3799999999999955
 10
21.179999999999993
 20
2.3999999999999986
 10
21.16000000000001
 20
2.4200000000000017
 10
21.16000000000001
 20
2.4399999999999977
 10
21.14
 20
2.4399999999999977
 10
21.14
 20
2.460000000000001
 10
21.11999999999999
 20
2.479999999999997
 10
21.11999999999999
 20
2.5
 10
21.10000000000001
 20
2.519999999999996
 10
21.08
 20
2.539999999999999
 10
21.08
 20
2.559999999999995
 10
21.059999999999988
 20
2.5799999999999983
 10
21.040000000000006
 20
2.6000000000000014
 10
21.040000000000006
 20
2.6199999999999974
 10
21.019999999999996
 20
2.6400000000000006
 10
21.019999999999996
 20
2.6599999999999966
 10
21.000000000000014
 20
2.6599999999999966
 10
21.000000000000014
 20
2.6799999999999997
 10
20.980000000000004
 20
2.6999999999999957
 10
20.980000000000004
 20
2.719999999999999
 10
20.959999999999994
 20
2.740000000000002
 10
20.959999999999994
 20
2.759999999999998
 10
20.940000000000012
 20
2.780000000000001
 10
20.940000000000012
 20
2.799999999999997
 10
20.92
 20
2.8200000000000003
 10
20.92
 20
2.8399999999999963
 10
20.89999999999999
 20
2.8399999999999963
 10
20.89999999999999
 20
2.8599999999999994
 10
20.89999999999999
 20
2.8799999999999955
 10
20.88000000000001
 20
2.8799999999999955
 10
20.88000000000001
 20
2.8999999999999986
 10
20.88000000000001
 20
2.9200000000000017
 10
20.86
 20
2.9200000000000017
 10
20.86
 20
2.9399999999999977
 10
20.86
 20
2.960000000000001
 10
20.83999999999999
 20
2.979999999999997
 10
20.83999999999999
 20
3.0
 10
20.820000000000007
 20
3.019999999999996
 10
20.820000000000007
 20
3.039999999999999
 10
20.799999999999997
 20
3.059999999999995
 10
20.799999999999997
 20
3.0799999999999983
 10
20.799999999999997
 20
3.1000000000000014
 10
20.779999999999987
 20
3.1000000000000014
 10
20.779999999999987
 20
3.1199999999999974
 10
20.779999999999987
 20
3.1400000000000006
 10
20.760000000000005
 20
3.1400000000000006
 10
20.760000000000005
 20
3.1599999999999966
 10
20.760000000000005
 20
3.1799999999999997
 10
20.739999999999995
 20
3.1999999999999957
 10
20.739999999999995
 20
3.219999999999999
 10
20.739999999999995
 20
3.240000000000002
 10
20.720000000000013
 20
3.240000000000002
 10
20.720000000000013
 20
3.259999999999998
 10
20.720000000000013
 20
3.280000000000001
 10
20.700000000000003
 20
3.299999999999997
 10
20.700000000000003
 20
3.3200000000000003
 10
20.700000000000003
 20
3.3399999999999963
 10
20.679999999999993
 20
3.3399999999999963
 10
20.679999999999993
 20
3.3599999999999994
 10
20.679999999999993
 20
3.3799999999999955
 10
20.679999999999993
 20
3.3999999999999986
 10
20.66000000000001
 20
3.3999999999999986
 10
20.66000000000001
 20
3.4200000000000017
 10
20.66000000000001
 20
3.4399999999999977
 10
20.64
 20
3.460000000000001
 10
20.64
 20
3.479999999999997
 10
20.64
 20
3.5
 10
20.61999999999999
 20
3.5
 10
20.61999999999999
 20
3.519999999999996
 10
20.61999999999999
 20
3.539999999999999
 10
20.61999999999999
 20
3.559999999999995
 10
20.60000000000001
 20
3.559999999999995
 10
20.60000000000001
 20
3.5799999999999983
 10
20.60000000000001
 20
3.6000000000000014
 10
20.58
 20
3.6199999999999974
 10
20.58
 20
3.6400000000000006
 10
20.58
 20
3.6599999999999966
 10
20.559999999999988
 20
3.6799999999999997
 10
20.559999999999988
 20
3.6999999999999957
 10
20.559999999999988
 20
3.719999999999999
 10
20.540000000000006
 20
3.719999999999999
 10
20.540000000000006
 20
3.740000000000002
 10
20.540000000000006
 20
3.759999999999998
 10
20.519999999999996
 20
3.759999999999998
 10
20.519999999999996
 20
3.780000000000001
 10
20.519999999999996
 20
3.799999999999997
 10
20.500000000000014
 20
3.8200000000000003
 10
20.500000000000014
 20
3.8399999999999963
 10
20.480000000000004
 20
3.8599999999999994
 10
20.480000000000004
 20
3.8799999999999955
 10
20.459999999999994
 20
3.8999999999999986
 10
20.459999999999994
 20
3.9200000000000017
 10
20.440000000000012
 20
3.9399999999999977
 10
20.440000000000012
 20
3.960000000000001
 10
20.42
 20
3.960000000000001
 10
20.42
 20
3.979999999999997
 10
20.42
 20
4.0
 10
20.39999999999999
 20
4.0
 10
20.39999999999999
 20
4.019999999999996
 10
20.38000000000001
 20
4.019999999999996
 10
20.38000000000001
 20
4.039999999999999
 10
20.38000000000001
 20
4.059999999999995
 10
20.36
 20
4.059999999999995
 10
20.36
 20
4.079999999999998
 10
20.33999999999999
 20
4.079999999999998
 10
20.33999999999999
 20
4.100000000000001
 10
20.33999999999999
 20
4.119999999999997
 10
20.320000000000007
 20
4.119999999999997
 10
20.320000000000007
 20
4.140000000000001
 10
20.299999999999997
 20
4.140000000000001
 10
20.299999999999997
 20
4.159999999999997
 10
20.279999999999987
 20
4.159999999999997
 10
20.279999999999987
 20
4.18
 10
20.260000000000005
 20
4.18
 10
20.260000000000005
 20
4.199999999999996
 10
20.239999999999995
 20
4.199999999999996
 10
20.239999999999995
 20
4.219999999999999
 10
20.220000000000013
 20
4.219999999999999
 10
20.220000000000013
 20
4.240000000000002
 10
20.200000000000003
 20
4.240000000000002
 10
20.200000000000003
 20
4.259999999999998
 10
20.179999999999993
 20
4.259999999999998
 10
20.179999999999993
 20
4.280000000000001
 10
20.16000000000001
 20
4.280000000000001
 10
20.16000000000001
 20
4.299999999999997
 10
20.14
 20
4.299999999999997
 10
20.14
 20
4.32
 10
20.11999999999999
 20
4.32
 10
20.11999999999999
 20
4.339999999999996
 10
20.10000000000001
 20
4.339999999999996
 10
20.08
 20
4.359999999999999
 10
20.059999999999988
 20
4.359999999999999
 10
20.059999999999988
 20
4.3799999999999955
 10
20.040000000000006
 20
4.3799999999999955
 10
20.040000000000006
 20
4.399999999999999
 10
20.019999999999996
 20
4.399999999999999
 10
20.000000000000014
 20
4.399999999999999
 10
20.000000000000014
 20
4.420000000000002
 10
19.980000000000004
 20
4.420000000000002
 10
19.980000000000004
 20
4.439999999999998
 10
19.959999999999994
 20
4.439999999999998
 10
19.940000000000012
 20
4.439999999999998
 10
19.940000000000012
 20
4.460000000000001
 10
19.92
 20
4.460000000000001
 10
19.89999999999999
 20
4.460000000000001
 10
19.89999999999999
 20
4.479999999999997
 10
19.88000000000001
 20
4.479999999999997
 10
19.88000000000001
 20
4.5
 10
19.86
 20
4.5
 10
19.83999999999999
 20
4.5
 10
19.83999999999999
 20
4.519999999999996
 10
19.820000000000007
 20
4.519999999999996
 10
19.799999999999997
 20
4.519999999999996
 10
19.799999999999997
 20
4.539999999999999
 10
19.779999999999987
 20
4.539999999999999
 10
19.760000000000005
 20
4.539999999999999
 10
19.739999999999995
 20
4.559999999999995
 10
19.14
 20
4.460000000000001
 10
18.559999999999988
 20
4.399999999999999
 10
17.959999999999994
 20
4.359999999999999
 10
17.36
 20
4.359999999999999
 10
17.33999999999999
 20
4.359999999999999
 10
17.33999999999999
 20
4.339999999999996
 10
17.320000000000007
 20
4.339999999999996
 10
17.299999999999997
 20
4.339999999999996
 10
17.299999999999997
 20
4.32
 10
17.279999999999987
 20
4.32
 10
17.279999999999987
 20
4.299999999999997
 10
17.260000000000005
 20
4.299999999999997
 10
17.260000000000005
 20
4.280000000000001
 10
17.239999999999995
 20
4.280000000000001
 10
17.220000000000013
 20
4.280000000000001
 10
17.220000000000013
 20
4.259999999999998
 10
17.200000000000003
 20
4.259999999999998
 10
17.200000000000003
 20
4.240000000000002
 10
17.179999999999993
 20
4.240000000000002
 10
17.179999999999993
 20
4.219999999999999
 10
17.16000000000001
 20
4.219999999999999
 10
17.16000000000001
 20
4.199999999999996
 10
17.14
 20
4.199999999999996
 10
17.120000000000005
 20
4.18
 10
17.099999999999994
 20
4.159999999999997
 10
17.08
 20
4.159999999999997
 10
17.08
 20
4.140000000000001
 10
17.060000000000002
 20
4.119999999999997
 10
17.040000000000006
 20
4.100000000000001
 10
17.019999999999996
 20
4.079999999999998
 10
17.019999999999996
 20
4.059999999999995
 10
17.0
 20
4.059999999999995
 10
17.0
 20
4.039999999999999
 10
16.980000000000004
 20
4.039999999999999
 10
16.980000000000004
 20
4.019999999999996
 10
16.959999999999994
 20
4.019999999999996
 10
16.959999999999994
 20
4.0
 10
16.939999999999998
 20
4.0
 10
16.939999999999998
 20
3.979999999999997
 10
16.939999999999998
 20
3.960000000000001
 10
16.92
 20
3.960000000000001
 10
16.92
 20
3.9399999999999977
 10
16.900000000000006
 20
3.9399999999999977
 10
16.900000000000006
 20
3.9200000000000017
 10
16.879999999999995
 20
3.8999999999999986
 10
16.879999999999995
 20
3.8799999999999955
 10
16.86
 20
3.8799999999999955
 10
16.86
 20
3.8599999999999994
 10
16.86
 20
3.8399999999999963
 10
16.840000000000003
 20
3.8399999999999963
 10
16.840000000000003
 20
3.8200000000000003
 10
16.840000000000003
 20
3.799999999999997
 10
16.820000000000007
 20
3.799999999999997
 10
16.820000000000007
 20
3.780000000000001
 10
16.820000000000007
 20
3.759999999999998
 10
16.799999999999997
 20
3.759999999999998
 10
16.799999999999997
 20
3.740000000000002
 10
16.799999999999997
 20
3.719999999999999
 10
16.78
 20
3.719999999999999
 10
16.78
 20
3.6999999999999957
 10
16.78
 20
3.6799999999999997
 10
16.760000000000005
 20
3.6599999999999966
 10
16.760000000000005
 20
3.6400000000000006
 10
16.760000000000005
 20
3.6199999999999974
 10
16.739999999999995
 20
3.6199999999999974
 10
16.739999999999995
 20
3.6000000000000014
 10
16.739999999999995
 20
3.5799999999999983
 10
16.739999999999995
 20
3.559999999999995
 10
16.72
 20
3.559999999999995
 10
16.72
 20
3.539999999999999
 10
16.72
 20
3.519999999999996
 10
16.72
 20
3.5
 10
16.72
 20
3.479999999999997
 10
16.700000000000003
 20
3.479999999999997
 10
16.700000000000003
 20
3.460000000000001
 10
16.700000000000003
 20
3.4399999999999977
 10
16.700000000000003
 20
3.4200000000000017
 10
16.700000000000003
 20
3.3999999999999986
 10
16.680000000000007
 20
3.3999999999999986
 10
16.680000000000007
 20
3.3799999999999955
 10
16.680000000000007
 20
3.3599999999999994
 10
16.680000000000007
 20
3.3399999999999963
 10
16.680000000000007
 20
3.3200000000000003
 10
16.659999999999997
 20
3.299999999999997
 10
16.659999999999997
 20
3.280000000000001
 10
16.659999999999997
 20
3.259999999999998
 10
16.659999999999997
 20
3.240000000000002
 10
16.659999999999997
 20
3.219999999999999
 10
16.64
 20
3.1999999999999957
 10
16.64
 20
3.1799999999999997
 10
16.64
 20
3.1599999999999966
 10
16.64
 20
3.1400000000000006
 10
16.64
 20
3.1199999999999974
 10
16.620000000000005
 20
3.1000000000000014
 10
16.620000000000005
 20
3.0799999999999983
 10
16.620000000000005
 20
3.059999999999995
 10
16.620000000000005
 20
3.039999999999999
 10
16.620000000000005
 20
3.019999999999996
 10
16.599999999999994
 20
3.0
 10
16.599999999999994
 20
2.979999999999997
 10
16.599999999999994
 20
2.960000000000001
 10
16.599999999999994
 20
2.9399999999999977
 10
16.599999999999994
 20
2.9200000000000017
 10
16.58
 20
2.8999999999999986
 10
16.58
 20
2.8799999999999955
 10
16.58
 20
2.8599999999999994
 10
16.58
 20
2.8399999999999963
 10
16.58
 20
2.8200000000000003
 10
16.560000000000002
 20
2.8200000000000003
 10
16.560000000000002
 20
2.799999999999997
 10
16.560000000000002
 20
2.780000000000001
 10
16.560000000000002
 20
2.759999999999998
 10
16.560000000000002
 20
2.740000000000002
 10
16.540000000000006
 20
2.740000000000002
 10
16.540000000000006
 20
2.719999999999999
 10
16.540000000000006
 20
2.6999999999999957
 10
16.540000000000006
 20
2.6799999999999997
 10
16.540000000000006
 20
2.6599999999999966
 10
16.519999999999996
 20
2.6599999999999966
 10
16.519999999999996
 20
2.6400000000000006
 10
16.519999999999996
 20
2.6199999999999974
 10
16.519999999999996
 20
2.6000000000000014
 10
16.5
 20
2.6000000000000014
 10
16.5
 20
2.5799999999999983
 10
16.5
 20
2.559999999999995
 10
16.5
 20
2.539999999999999
 10
16.480000000000004
 20
2.519999999999996
 10
16.480000000000004
 20
2.5
 10
16.480000000000004
 20
2.479999999999997
 10
16.459999999999994
 20
2.460000000000001
 10
16.459999999999994
 20
2.4399999999999977
 10
16.459999999999994
 20
2.4200000000000017
 10
16.439999999999998
 20
2.3999999999999986
 10
16.439999999999998
 20
2.3799999999999955
 10
16.439999999999998
 20
2.3599999999999994
 10
16.42
 20
2.3399999999999963
 10
16.42
 20
2.3200000000000003
 10
16.42
 20
2.299999999999997
 10
16.400000000000006
 20
2.299999999999997
 10
16.400000000000006
 20
2.280000000000001
 10
16.400000000000006
 20
2.259999999999998
 10
16.379999999999995
 20
2.240000000000002
 10
16.379999999999995
 20
2.219999999999999
 10
16.36
 20
2.1999999999999957
 10
16.36
 20
2.1799999999999997
 10
16.340000000000003
 20
2.1599999999999966
 10
16.340000000000003
 20
2.1400000000000006
 10
16.340000000000003
 20
2.1199999999999974
 10
16.320000000000007
 20
2.1000000000000014
 10
16.320000000000007
 20
2.0799999999999983
 10
16.299999999999997
 20
2.059999999999995
 10
16.299999999999997
 20
2.039999999999999
 10
16.28
 20
2.019999999999996
 10
16.28
 20
2.0
 10
16.260000000000005
 20
1.9799999999999969
 10
16.260000000000005
 20
1.9600000000000009
 10
16.260000000000005
 20
1.9399999999999977
 10
16.239999999999995
 20
1.9399999999999977
 10
16.239999999999995
 20
1.9200000000000017
 10
16.22
 20
1.8999999999999986
 10
16.22
 20
1.8799999999999955
 10
16.200000000000003
 20
1.8599999999999994
 10
16.200000000000003
 20
1.8399999999999963
 10
16.180000000000007
 20
1.8200000000000003
 10
16.180000000000007
 20
1.7999999999999972
 10
16.159999999999997
 20
1.7800000000000011
 10
16.159999999999997
 20
1.759999999999998
 10
16.14
 20
1.740000000000002
 10
16.120000000000005
 20
1.7199999999999989
 10
16.120000000000005
 20
1.6999999999999957
 10
16.099999999999994
 20
1.6799999999999997
 10
16.099999999999994
 20
1.6599999999999966
 10
16.08
 20
1.6400000000000006
 10
16.08
 20
1.6199999999999974
 10
16.060000000000002
 20
1.6199999999999974
 10
16.060000000000002
 20
1.6000000000000014
 10
16.040000000000006
 20
1.5799999999999983
 10
16.040000000000006
 20
1.5599999999999952
 10
16.019999999999996
 20
1.5399999999999991
 10
16.019999999999996
 20
1.519999999999996
 10
16.0
 20
1.5
 10
15.980000000000004
 20
1.4799999999999969
 10
15.959999999999994
 20
1.4600000000000009
 10
15.959999999999994
 20
1.4399999999999977
 10
15.939999999999998
 20
1.4200000000000017
 10
15.939999999999998
 20
1.3999999999999986
 10
15.920000000000002
 20
1.3999999999999986
 10
15.920000000000002
 20
1.3799999999999955
 10
15.900000000000006
 20
1.3599999999999994
 10
15.900000000000006
 20
1.3399999999999963
 10
15.879999999999995
 20
1.3200000000000003
 10
15.86
 20
1.2999999999999972
 10
15.86
 20
1.2800000000000011
 10
15.840000000000003
 20
1.259999999999998
 10
15.840000000000003
 20
1.240000000000002
 10
15.820000000000007
 20
1.2199999999999989
 10
15.799999999999997
 20
1.2199999999999989
 10
15.799999999999997
 20
1.1999999999999957
 10
15.780000000000001
 20
1.1799999999999997
 10
15.780000000000001
 20
1.1599999999999966
 10
15.760000000000005
 20
1.1400000000000006
 10
15.760000000000005
 20
1.1199999999999974
 10
15.739999999999995
 20
1.1199999999999974
 10
15.719999999999999
 20
1.1000000000000014
 10
15.719999999999999
 20
1.0799999999999983
 10
15.700000000000003
 20
1.0599999999999952
 10
15.700000000000003
 20
1.0399999999999991
 10
15.680000000000007
 20
1.019999999999996
 10
15.659999999999997
 20
1.019999999999996
 10
15.659999999999997
 20
1.0
 10
15.64
 20
0.9799999999999969
 10
15.620000000000005
 20
0.9600000000000009
 10
15.620000000000005
 20
0.9399999999999977
 10
15.599999999999994
 20
0.9399999999999977
 10
15.599999999999994
 20
0.9200000000000017
 10
15.579999999999998
 20
0.8999999999999986
 10
15.560000000000002
 20
0.8799999999999955
 10
15.560000000000002
 20
0.8599999999999994
 10
15.540000000000006
 20
0.8399999999999963
 10
15.519999999999996
 20
0.8200000000000003
 10
15.519999999999996
 20
0.7999999999999972
 10
15.5
 20
0.7999999999999972
 10
15.5
 20
0.7800000000000011
 10
15.480000000000004
 20
0.759999999999998
 10
15.459999999999994
 20
0.759999999999998
 10
15.459999999999994
 20
0.740000000000002
 10
15.439999999999998
 20
0.7199999999999989
 10
15.439999999999998
 20
0.6999999999999957
 10
15.420000000000002
 20
0.6999999999999957
 10
15.420000000000002
 20
0.6799999999999997
 10
15.400000000000006
 20
0.6599999999999966
 10
15.379999999999995
 20
0.6599999999999966
 10
15.379999999999995
 20
0.6400000000000006
 10
15.36
 20
0.6199999999999974
 10
15.36
 20
0.6000000000000014
 10
15.340000000000003
 20
0.6000000000000014
 10
15.340000000000003
 20
0.5799999999999983
 10
15.320000000000007
 20
0.5599999999999952
 10
15.299999999999997
 20
0.5399999999999991
 10
15.280000000000001
 20
0.519999999999996
 10
15.280000000000001
 20
0.5
 10
15.260000000000005
 20
0.5
 10
15.260000000000005
 20
0.4799999999999969
 10
15.239999999999995
 20
0.4799999999999969
 10
15.239999999999995
 20
0.46000000000000085
 10
15.219999999999999
 20
0.46000000000000085
 10
15.219999999999999
 20
0.4399999999999977
 10
15.200000000000003
 20
0.4200000000000017
 10
15.180000000000007
 20
0.3999999999999986
 10
15.159999999999997
 20
0.37999999999999545
 10
15.159999999999997
 20
0.35999999999999943
 10
15.14
 20
0.35999999999999943
 10
15.14
 20
0.3399999999999963
 10
15.120000000000005
 20
0.3399999999999963
 10
15.120000000000005
 20
0.3200000000000003
 10
15.099999999999994
 20
0.3200000000000003
 10
15.099999999999994
 20
0.29999999999999716
 10
15.099999999999994
 20
0.28000000000000114
 10
15.079999999999998
 20
0.28000000000000114
 10
15.079999999999998
 20
0.259999999999998
 10
15.060000000000002
 20
0.259999999999998
 10
15.060000000000002
 20
0.240000000000002
 10
15.040000000000006
 20
0.240000000000002
 10
15.040000000000006
 20
0.21999999999999886
 10
15.019999999999996
 20
0.21999999999999886
 10
15.019999999999996
 20
0.19999999999999574
 10
15.0
 20
0.19999999999999574
 10
15.0
 20
0.17999999999999972
 10
14.980000000000004
 20
0.1599999999999966
 10
14.959999999999994
 20
0.14000000000000057
 10
14.939999999999998
 20
0.11999999999999744
 10
14.939999999999998
 20
0.10000000000000142
 10
14.920000000000002
 20
0.10000000000000142
 10
14.920000000000002
 20
0.0799999999999983
 10
14.900000000000006
 20
0.0799999999999983
 10
14.900000000000006
 20
0.05999999999999517
 10
14.879999999999995
 20
0.05999999999999517
 10
14.879999999999995
 20
0.03999999999999915
 10
14.86
 20
0.03999999999999915
 10
14.86
 20
0.01999999999999602
 10
14.840000000000003
 20
0.01999999999999602
 10
14.840000000000003
 20
0.0
 10
13.459999999999994
 20
0.3200000000000003
 10
12.099999999999994
 20
0.6599999999999966
 10
12.099999999999994
 20
0.6799999999999997
 10
12.079999999999998
 20
0.6799999999999997
 10
12.079999999999998
 20
0.6999999999999957
 10
12.079999999999998
 20
0.7199999999999989
 10
12.079999999999998
 20
0.740000000000002
 10
12.079999999999998
 20
0.759999999999998
 10
12.060000000000002
 20
0.759999999999998
 10
12.060000000000002
 20
0.7800000000000011
 10
12.060000000000002
 20
0.7999999999999972
 10
12.060000000000002
 20
0.8200000000000003
 10
12.040000000000006
 20
0.8399999999999963
 10
12.040000000000006
 20
0.8599999999999994
 10
12.040000000000006
 20
0.8799999999999955
 10
12.040000000000006
 20
0.8999999999999986
 10
12.019999999999996
 20
0.9200000000000017
 10
12.019999999999996
 20
0.9399999999999977
 10
12.019999999999996
 20
0.9600000000000009
 10
12.019999999999996
 20
0.9799999999999969
 10
12.0
 20
1.0
 10
12.0
 20
1.019999999999996
 10
12.0
 20
1.0399999999999991
 10
12.0
 20
1.0599999999999952
 10
11.980000000000004
 20
1.0799999999999983
 10
11.980000000000004
 20
1.1000000000000014
 10
11.980000000000004
 20
1.1199999999999974
 10
11.980000000000004
 20
1.1400000000000006
 10
11.959999999999994
 20
1.1599999999999966
 10
11.959999999999994
 20
1.1799999999999997
 10
11.959999999999994
 20
1.1999999999999957
 10
11.959999999999994
 20
1.2199999999999989
 10
11.959999999999994
 20
1.240000000000002
 10
11.939999999999998
 20
1.240000000000002
 10
11.939999999999998
 20
1.259999999999998
 10
11.939999999999998
 20
1.2800000000000011
 10
11.939999999999998
 20
1.2999999999999972
 10
11.939999999999998
 20
1.3200000000000003
 10
11.920000000000002
 20
1.3399999999999963
 10
11.920000000000002
 20
1.3599999999999994
 10
11.920000000000002
 20
1.3799999999999955
 10
11.920000000000002
 20
1.3999999999999986
 10
11.920000000000002
 20
1.4200000000000017
 10
11.900000000000006
 20
1.4200000000000017
 10
11.900000000000006
 20
1.4399999999999977
 10
11.900000000000006
 20
1.4600000000000009
 10
11.900000000000006
 20
1.4799999999999969
 10
11.900000000000006
 20
1.5
 10
11.900000000000006
 20
1.519999999999996
 10
11.879999999999995
 20
1.5399999999999991
 10
11.879999999999995
 20
1.5599999999999952
 10
11.879999999999995
 20
1.5799999999999983
 10
11.879999999999995
 20
1.6000000000000014
 10
11.86
 20
1.6199999999999974
 10
11.86
 20
1.6400000000000006
 10
11.86
 20
1.6599999999999966
 10
11.86
 20
1.6799999999999997
 10
11.86
 20
1.6999999999999957
 10
11.86
 20
1.7199999999999989
 10
11.840000000000003
 20
1.740000000000002
 10
11.840000000000003
 20
1.759999999999998
 10
11.840000000000003
 20
1.7800000000000011
 10
11.840000000000003
 20
1.7999999999999972
 10
11.840000000000003
 20
1.8200000000000003
 10
11.840000000000003
 20
1.8399999999999963
 10
11.820000000000007
 20
1.8399999999999963
 10
11.820000000000007
 20
1.8599999999999994
 10
11.820000000000007
 20
1.8799999999999955
 10
11.820000000000007
 20
1.8999999999999986
 10
11.820000000000007
 20
1.9200000000000017
 10
11.820000000000007
 20
1.9600000000000009
 10
11.799999999999997
 20
1.9799999999999969
 10
11.799999999999997
 20
2.0
 10
11.799999999999997
 20
2.019999999999996
 10
11.799999999999997
 20
2.039999999999999
 10
11.799999999999997
 20
2.059999999999995
 10
11.799999999999997
 20
2.0799999999999983
 10
11.780000000000001
 20
2.1000000000000014
 10
11.780000000000001
 20
2.1199999999999974
 10
11.780000000000001
 20
2.1400000000000006
 10
11.780000000000001
 20
2.1599999999999966
 10
11.780000000000001
 20
2.1799999999999997
 10
11.780000000000001
 20
2.1999999999999957
 10
11.780000000000001
 20
2.219999999999999
 10
11.760000000000005
 20
2.240000000000002
 10
11.760000000000005
 20
2.259999999999998
 10
11.760000000000005
 20
2.280000000000001
 10
11.760000000000005
 20
2.299999999999997
 10
11.760000000000005
 20
2.3200000000000003
 10
11.760000000000005
 20
2.3399999999999963
 10
11.760000000000005
 20
2.3599999999999994
 10
11.760000000000005
 20
2.3799999999999955
 10
11.739999999999995
 20
2.3999999999999986
 10
11.739999999999995
 20
2.4200000000000017
 10
11.739999999999995
 20
2.4399999999999977
 10
11.739999999999995
 20
2.460000000000001
 10
11.739999999999995
 20
2.479999999999997
 10
11.739999999999995
 20
2.5
 10
11.739999999999995
 20
2.519999999999996
 10
11.739999999999995
 20
2.539999999999999
 10
11.739999999999995
 20
2.559999999999995
 10
11.739999999999995
 20
2.5799999999999983
 10
11.739999999999995
 20
2.6000000000000014
 10
11.719999999999999
 20
2.6199999999999974
 10
11.719999999999999
 20
2.6400000000000006
 10
11.719999999999999
 20
2.6599999999999966
 10
11.719999999999999
 20
2.6799999999999997
 10
11.719999999999999
 20
2.6999999999999957
 10
11.719999999999999
 20
2.719999999999999
 10
11.719999999999999
 20
2.740000000000002
 10
11.719999999999999
 20
2.759999999999998
 10
11.719999999999999
 20
2.780000000000001
 10
11.719999999999999
 20
2.799999999999997
 10
11.719999999999999
 20
2.8200000000000003
 10
11.719999999999999
 20
2.8399999999999963
 10
11.719999999999999
 20
2.8599999999999994
 10
11.719999999999999
 20
2.8799999999999955
 10
11.719999999999999
 20
2.8999999999999986
 10
11.719999999999999
 20
2.9200000000000017
 10
11.719999999999999
 20
2.9399999999999977
 10
11.719999999999999
 20
2.960000000000001
 10
11.719999999999999
 20
2.979999999999997
 10
11.719999999999999
 20
3.0
 10
11.719999999999999
 20
3.019999999999996
 10
11.719999999999999
 20
3.039999999999999
 10
11.719999999999999
 20
3.059999999999995
 10
11.719999999999999
 20
3.0799999999999983
 10
11.719999999999999
 20
3.1000000000000014
 10
11.719999999999999
 20
3.1199999999999974
 10
11.719999999999999
 20
3.1400000000000006
 10
11.719999999999999
 20
3.1599999999999966
 10
11.719999999999999
 20
3.1799999999999997
 10
11.719999999999999
 20
3.1999999999999957
 10
11.719999999999999
 20
3.219999999999999
 10
11.719999999999999
 20
3.240000000000002
 10
11.719999999999999
 20
3.259999999999998
 10
11.719999999999999
 20
3.280000000000001
 10
11.719999999999999
 20
3.299999999999997
 10
11.719999999999999
 20
3.3200000000000003
 10
11.719999999999999
 20
3.3399999999999963
 10
11.719999999999999
 20
3.3599999999999994
 10
11.719999999999999
 20
3.3799999999999955
 10
11.739999999999995
 20
3.3999999999999986
 10
11.739999999999995
 20
3.4200000000000017
 10
11.739999999999995
 20
3.4399999999999977
 10
11.739999999999995
 20
3.460000000000001
 10
11.739999999999995
 20
3.479999999999997
 10
11.739999999999995
 20
3.5
 10
11.739999999999995
 20
3.519999999999996
 10
11.739999999999995
 20
3.539999999999999
 10
11.739999999999995
 20
3.559999999999995
 10
11.760000000000005
 20
3.5799999999999983
 10
11.760000000000005
 20
3.6000000000000014
 10
11.760000000000005
 20
3.6199999999999974
 10
11.760000000000005
 20
3.6400000000000006
 10
11.760000000000005
 20
3.6599999999999966
 10
11.760000000000005
 20
3.6799999999999997
 10
11.760000000000005
 20
3.6999999999999957
 10
11.780000000000001
 20
3.6999999999999957
 10
11.780000000000001
 20
3.719999999999999
 10
11.780000000000001
 20
3.740000000000002
 10
11.780000000000001
 20
3.759999999999998
 10
11.780000000000001
 20
3.780000000000001
 10
11.780000000000001
 20
3.799999999999997
 10
11.799999999999997
 20
3.799999999999997
 10
11.799999999999997
 20
3.8200000000000003
 10
11.799999999999997
 20
3.8399999999999963
 10
11.799999999999997
 20
3.8599999999999994
 10
11.799999999999997
 20
3.8799999999999955
 10
11.799999999999997
 20
3.8999999999999986
 10
11.820000000000007
 20
3.8999999999999986
 10
11.820000000000007
 20
3.9200000000000017
 10
11.820000000000007
 20
3.9399999999999977
 10
11.820000000000007
 20
3.960000000000001
 10
11.820000000000007
 20
3.979999999999997
 10
11.840000000000003
 20
3.979999999999997
 10
11.840000000000003
 20
4.0
 10
11.840000000000003
 20
4.019999999999996
 10
11.840000000000003
 20
4.039999999999999
 10
11.840000000000003
 20
4.059999999999995
 10
11.86
 20
4.059999999999995
 10
11.86
 20
4.079999999999998
 10
11.86
 20
4.100000000000001
 10
11.86
 20
4.119999999999997
 10
11.86
 20
4.140000000000001
 10
11.879999999999995
 20
4.140000000000001
 10
11.879999999999995
 20
4.159999999999997
 10
11.879999999999995
 20
4.18
 10
11.879999999999995
 20
4.199999999999996
 10
11.900000000000006
 20
4.199999999999996
 10
11.900000000000006
 20
4.219999999999999
 10
11.900000000000006
 20
4.240000000000002
 10
11.900000000000006
 20
4.259999999999998
 10
11.900000000000006
 20
4.280000000000001
 10
11.920000000000002
 20
4.280000000000001
 10
11.920000000000002
 20
4.299999999999997
 10
11.920000000000002
 20
4.32
 10
11.920000000000002
 20
4.339999999999996
 10
11.939999999999998
 20
4.359999999999999
 10
11.939999999999998
 20
4.3799999999999955
 10
11.939999999999998
 20
4.399999999999999
 10
11.939999999999998
 20
4.420000000000002
 10
11.959999999999994
 20
4.420000000000002
 10
11.959999999999994
 20
4.439999999999998
 10
11.959999999999994
 20
4.460000000000001
 10
11.959999999999994
 20
4.479999999999997
 10
11.980000000000004
 20
4.5
 10
11.980000000000004
 20
4.519999999999996
 10
11.980000000000004
 20
4.539999999999999
 10
11.980000000000004
 20
4.559999999999995
 10
11.980000000000004
 20
4.579999999999998
 10
12.0
 20
4.579999999999998
 10
12.0
 20
4.600000000000001
 10
12.0
 20
4.619999999999997
 10
12.0
 20
4.640000000000001
 10
12.0
 20
4.659999999999997
 10
12.0
 20
4.68
 10
12.019999999999996
 20
4.68
 10
12.019999999999996
 20
4.699999999999996
 10
12.019999999999996
 20
4.719999999999999
 10
12.019999999999996
 20
4.740000000000002
 10
12.019999999999996
 20
4.759999999999998
 10
12.019999999999996
 20
4.780000000000001
 10
12.019999999999996
 20
4.799999999999997
 10
12.019999999999996
 20
4.82
 10
12.040000000000006
 20
4.82
 10
12.040000000000006
 20
4.839999999999996
 10
12.040000000000006
 20
4.859999999999999
 10
12.040000000000006
 20
4.8799999999999955
 10
12.040000000000006
 20
4.899999999999999
 10
12.040000000000006
 20
4.920000000000002
 10
12.040000000000006
 20
4.939999999999998
 10
12.040000000000006
 20
4.960000000000001
 10
12.040000000000006
 20
4.979999999999997
 10
12.040000000000006
 20
5.0
 10
12.040000000000006
 20
5.019999999999996
 10
12.040000000000006
 20
5.039999999999999
 10
12.019999999999996
 20
5.059999999999995
 10
12.019999999999996
 20
5.079999999999998
 10
12.019999999999996
 20
5.100000000000001
 10
12.019999999999996
 20
5.119999999999997
 10
12.019999999999996
 20
5.140000000000001
 10
12.019999999999996
 20
5.159999999999997
 10
12.019999999999996
 20
5.18
 10
12.0
 20
5.199999999999996
 10
12.0
 20
5.219999999999999
 10
12.0
 20
5.240000000000002
 10
12.0
 20
5.259999999999998
 10
12.0
 20
5.280000000000001
 10
11.980000000000004
 20
5.280000000000001
 10
11.980000000000004
 20
5.299999999999997
 10
11.980000000000004
 20
5.32
 10
11.980000000000004
 20
5.339999999999996
 10
11.959999999999994
 20
5.339999999999996
 10
11.959999999999994
 20
5.359999999999999
 10
11.959999999999994
 20
5.3799999999999955
 10
11.959999999999994
 20
5.399999999999999
 10
11.939999999999998
 20
5.399999999999999
 10
11.939999999999998
 20
5.420000000000002
 10
11.939999999999998
 20
5.439999999999998
 10
11.939999999999998
 20
5.460000000000001
 10
11.920000000000002
 20
5.460000000000001
 10
11.920000000000002
 20
5.479999999999997
 10
11.920000000000002
 20
5.5
 10
11.900000000000006
 20
5.5
 10
11.900000000000006
 20
5.519999999999996
 10
11.900000000000006
 20
5.539999999999999
 10
11.879999999999995
 20
5.539999999999999
 10
11.879999999999995
 20
5.559999999999995
 10
11.879999999999995
 20
5.579999999999998
 10
11.86
 20
5.579999999999998
 10
11.86
 20
5.600000000000001
 10
11.86
 20
5.619999999999997
 10
11.840000000000003
 20
5.619999999999997
 10
11.840000000000003
 20
5.640000000000001
 10
11.840000000000003
 20
5.659999999999997
 10
11.820000000000007
 20
5.659999999999997
 10
11.820000000000007
 20
5.68
 10
11.280000000000001
 20
5.960000000000001
 10
10.760000000000005
 20
6.259999999999998
 10
10.260000000000005
 20
6.579999999999998
 10
9.780000000000001
 20
6.939999999999998
 10
9.760000000000005
 20
6.939999999999998
 10
9.739999999999995
 20
6.939999999999998
 10
9.719999999999999
 20
6.939999999999998
 10
9.700000000000003
 20
6.939999999999998
 10
9.680000000000007
 20
6.939999999999998
 10
9.659999999999997
 20
6.939999999999998
 10
9.64
 20
6.939999999999998
 10
9.620000000000005
 20
6.939999999999998
 10
9.599999999999994
 20
6.939999999999998
 10
9.579999999999998
 20
6.939999999999998
 10
9.579999999999998
 20
6.920000000000002
 10
9.560000000000002
 20
6.920000000000002
 10
9.540000000000006
 20
6.920000000000002
 10
9.519999999999996
 20
6.920000000000002
 10
9.5
 20
6.920000000000002
 10
9.480000000000004
 20
6.920000000000002
 10
9.459999999999994
 20
6.920000000000002
 10
9.439999999999998
 20
6.920000000000002
 10
9.420000000000002
 20
6.920000000000002
 10
9.400000000000006
 20
6.920000000000002
 10
9.400000000000006
 20
6.899999999999999
 10
9.379999999999995
 20
6.899999999999999
 10
9.36
 20
6.899999999999999
 10
9.340000000000003
 20
6.899999999999999
 10
9.320000000000007
 20
6.899999999999999
 10
9.299999999999997
 20
6.899999999999999
 10
9.299999999999997
 20
6.8799999999999955
 10
9.280000000000001
 20
6.8799999999999955
 10
9.260000000000005
 20
6.8799999999999955
 10
9.239999999999995
 20
6.8799999999999955
 10
9.219999999999999
 20
6.8799999999999955
 10
9.219999999999999
 20
6.859999999999999
 10
9.200000000000003
 20
6.859999999999999
 10
9.180000000000007
 20
6.859999999999999
 10
9.159999999999997
 20
6.859999999999999
 10
9.159999999999997
 20
6.839999999999996
 10
9.14
 20
6.839999999999996
 10
9.120000000000005
 20
6.839999999999996
 10
9.099999999999994
 20
6.82
 10
9.079999999999998
 20
6.82
 10
9.060000000000002
 20
6.82
 10
9.060000000000002
 20
6.799999999999997
 10
9.040000000000006
 20
6.799999999999997
 10
9.019999999999996
 20
6.799999999999997
 10
9.019999999999996
 20
6.780000000000001
 10
9.0
 20
6.780000000000001
 10
8.980000000000004
 20
6.780000000000001
 10
8.980000000000004
 20
6.759999999999998
 10
8.959999999999994
 20
6.759999999999998
 10
8.939999999999998
 20
6.740000000000002
 10
8.920000000000002
 20
6.740000000000002
 10
8.920000000000002
 20
6.719999999999999
 10
8.900000000000006
 20
6.719999999999999
 10
8.879999999999995
 20
6.719999999999999
 10
8.879999999999995
 20
6.699999999999996
 10
8.86
 20
6.699999999999996
 10
8.86
 20
6.68
 10
8.840000000000003
 20
6.68
 10
8.820000000000007
 20
6.659999999999997
 10
8.799999999999997
 20
6.659999999999997
 10
8.799999999999997
 20
6.640000000000001
 10
8.780000000000001
 20
6.640000000000001
 10
8.780000000000001
 20
6.619999999999997
 10
8.760000000000005
 20
6.619999999999997
 10
8.739999999999995
 20
6.600000000000001
 10
8.719999999999999
 20
6.600000000000001
 10
8.719999999999999
 20
6.579999999999998
 10
8.700000000000003
 20
6.579999999999998
 10
8.700000000000003
 20
6.559999999999995
 10
8.680000000000007
 20
6.559999999999995
 10
8.680000000000007
 20
6.539999999999999
 10
8.659999999999997
 20
6.539999999999999
 10
8.659999999999997
 20
6.519999999999996
 10
8.64
 20
6.519999999999996
 10
8.620000000000005
 20
6.5
 10
8.599999999999994
 20
6.479999999999997
 10
8.579999999999998
 20
6.460000000000001
 10
8.560000000000002
 20
6.460000000000001
 10
8.560000000000002
 20
6.439999999999998
 10
8.540000000000006
 20
6.439999999999998
 10
8.540000000000006
 20
6.420000000000002
 10
8.519999999999996
 20
6.420000000000002
 10
8.519999999999996
 20
6.399999999999999
 10
8.5
 20
6.399999999999999
 10
8.5
 20
6.3799999999999955
 10
8.480000000000004
 20
6.3799999999999955
 10
8.480000000000004
 20
6.359999999999999
 10
8.459999999999994
 20
6.359999999999999
 10
8.459999999999994
 20
6.339999999999996
 10
8.439999999999998
 20
6.339999999999996
 10
8.439999999999998
 20
6.32
 10
8.420000000000002
 20
6.32
 10
8.420000000000002
 20
6.299999999999997
 10
8.400000000000006
 20
6.299999999999997
 10
8.400000000000006
 20
6.280000000000001
 10
8.379999999999995
 20
6.280000000000001
 10
8.379999999999995
 20
6.259999999999998
 10
8.36
 20
6.259999999999998
 10
8.340000000000003
 20
6.240000000000002
 10
8.320000000000007
 20
6.219999999999999
 10
8.299999999999997
 20
6.199999999999996
 10
8.280000000000001
 20
6.199999999999996
 10
8.280000000000001
 20
6.18
 10
8.260000000000005
 20
6.18
 10
8.260000000000005
 20
6.159999999999997
 10
8.239999999999995
 20
6.159999999999997
 10
8.239999999999995
 20
6.140000000000001
 10
8.219999999999999
 20
6.140000000000001
 10
8.219999999999999
 20
6.119999999999997
 10
8.200000000000003
 20
6.119999999999997
 10
8.180000000000007
 20
6.100000000000001
 10
8.159999999999997
 20
6.079999999999998
 10
8.14
 20
6.079999999999998
 10
8.14
 20
6.059999999999995
 10
8.120000000000005
 20
6.059999999999995
 10
8.120000000000005
 20
6.039999999999999
 10
8.099999999999994
 20
6.039999999999999
 10
8.079999999999998
 20
6.019999999999996
 10
8.060000000000002
 20
6.0
 10
8.040000000000006
 20
6.0
 10
8.040000000000006
 20
5.979999999999997
 10
8.019999999999996
 20
5.979999999999997
 10
8.019999999999996
 20
5.960000000000001
 10
8.0
 20
5.960000000000001
 10
7.980000000000004
 20
5.939999999999998
 10
7.959999999999994
 20
5.939999999999998
 10
7.959999999999994
 20
5.920000000000002
 10
7.939999999999998
 20
5.920000000000002
 10
7.920000000000002
 20
5.899999999999999
 10
7.900000000000006
 20
5.8799999999999955
 10
7.8799999999999955
 20
5.8799999999999955
 10
7.859999999999999
 20
5.859999999999999
 10
7.840000000000003
 20
5.839999999999996
 10
7.820000000000007
 20
5.839999999999996
 10
7.799999999999997
 20
5.82
 10
7.780000000000001
 20
5.799999999999997
 10
7.760000000000005
 20
5.799999999999997
 10
7.739999999999995
 20
5.780000000000001
 10
7.719999999999999
 20
5.780000000000001
 10
7.719999999999999
 20
5.759999999999998
 10
7.700000000000003
 20
5.759999999999998
 10
7.680000000000007
 20
5.740000000000002
 10
7.659999999999997
 20
5.740000000000002
 10
7.640000000000001
 20
5.719999999999999
 10
7.6200000000000045
 20
5.719999999999999
 10
7.6200000000000045
 20
5.699999999999996
 10
7.599999999999994
 20
5.699999999999996
 10
7.579999999999998
 20
5.699999999999996
 10
7.579999999999998
 20
5.68
 10
7.560000000000002
 20
5.68
 10
7.540000000000006
 20
5.659999999999997
 10
7.519999999999996
 20
5.659999999999997
 10
7.5
 20
5.640000000000001
 10
7.480000000000004
 20
5.640000000000001
 10
7.459999999999994
 20
5.619999999999997
 10
7.439999999999998
 20
5.619999999999997
 10
7.420000000000002
 20
5.600000000000001
 10
7.400000000000006
 20
5.600000000000001
 10
7.3799999999999955
 20
5.579999999999998
 10
7.359999999999999
 20
5.579999999999998
 10
7.340000000000003
 20
5.559999999999995
 10
7.320000000000007
 20
5.559999999999995
 10
7.299999999999997
 20
5.539999999999999
 10
7.280000000000001
 20
5.539999999999999
 10
7.260000000000005
 20
5.519999999999996
 10
7.239999999999995
 20
5.519999999999996
 10
7.219999999999999
 20
5.519999999999996
 10
7.200000000000003
 20
5.5
 10
7.180000000000007
 20
5.5
 10
7.159999999999997
 20
5.479999999999997
 10
7.140000000000001
 20
5.479999999999997
 10
7.1200000000000045
 20
5.460000000000001
 10
7.099999999999994
 20
5.460000000000001
 10
7.079999999999998
 20
5.439999999999998
 10
7.060000000000002
 20
5.439999999999998
 10
7.040000000000006
 20
5.439999999999998
 10
7.019999999999996
 20
5.420000000000002
 10
7.0
 20
5.420000000000002
 10
6.980000000000004
 20
5.399999999999999
 10
6.959999999999994
 20
5.399999999999999
 10
6.939999999999998
 20
5.399999999999999
 10
6.920000000000002
 20
5.3799999999999955
 10
6.900000000000006
 20
5.3799999999999955
 10
6.8799999999999955
 20
5.359999999999999
 10
6.859999999999999
 20
5.359999999999999
 10
6.840000000000003
 20
5.359999999999999
 10
6.820000000000007
 20
5.339999999999996
 10
6.799999999999997
 20
5.339999999999996
 10
6.780000000000001
 20
5.339999999999996
 10
6.760000000000005
 20
5.32
 10
6.739999999999995
 20
5.32
 10
6.719999999999999
 20
5.32
 10
6.700000000000003
 20
5.299999999999997
 10
6.680000000000007
 20
5.299999999999997
 10
6.659999999999997
 20
5.280000000000001
 10
6.640000000000001
 20
5.280000000000001
 10
6.6200000000000045
 20
5.280000000000001
 10
6.599999999999994
 20
5.259999999999998
 10
6.579999999999998
 20
5.259999999999998
 10
6.560000000000002
 20
5.259999999999998
 10
6.540000000000006
 20
5.240000000000002
 10
6.519999999999996
 20
5.240000000000002
 10
6.5
 20
5.240000000000002
 10
6.480000000000004
 20
5.219999999999999
 10
6.459999999999994
 20
5.219999999999999
 10
6.439999999999998
 20
5.219999999999999
 10
6.420000000000002
 20
5.199999999999996
 10
6.400000000000006
 20
5.199999999999996
 10
6.3799999999999955
 20
5.199999999999996
 10
6.359999999999999
 20
5.18
 10
6.340000000000003
 20
5.18
 10
6.320000000000007
 20
5.18
 10
6.299999999999997
 20
5.159999999999997
 10
6.280000000000001
 20
5.159999999999997
 10
6.260000000000005
 20
5.159999999999997
 10
6.239999999999995
 20
5.159999999999997
 10
6.219999999999999
 20
5.140000000000001
 10
6.200000000000003
 20
5.140000000000001
 10
6.180000000000007
 20
5.140000000000001
 10
6.159999999999997
 20
5.119999999999997
 10
6.140000000000001
 20
5.119999999999997
 10
6.1200000000000045
 20
5.119999999999997
 10
6.099999999999994
 20
5.119999999999997
 10
6.099999999999994
 20
5.100000000000001
 10
6.079999999999998
 20
5.100000000000001
 10
6.060000000000002
 20
5.100000000000001
 10
6.040000000000006
 20
5.100000000000001
 10
6.019999999999996
 20
5.079999999999998
 10
6.0
 20
5.079999999999998
 10
5.980000000000004
 20
5.079999999999998
 10
5.959999999999994
 20
5.079999999999998
 10
5.939999999999998
 20
5.059999999999995
 10
5.920000000000002
 20
5.059999999999995
 10
5.900000000000006
 20
5.059999999999995
 10
5.8799999999999955
 20
5.039999999999999
 10
5.859999999999999
 20
5.039999999999999
 10
5.840000000000003
 20
5.039999999999999
 10
5.820000000000007
 20
5.039999999999999
 10
5.799999999999997
 20
5.039999999999999
 10
5.799999999999997
 20
5.019999999999996
 10
5.780000000000001
 20
5.019999999999996
 10
5.760000000000005
 20
5.019999999999996
 10
5.739999999999995
 20
5.019999999999996
 10
5.719999999999999
 20
5.0
 10
5.700000000000003
 20
5.0
 10
5.680000000000007
 20
5.0
 10
5.659999999999997
 20
5.0
 10
5.640000000000001
 20
5.0
 10
5.6200000000000045
 20
4.979999999999997
 10
5.599999999999994
 20
4.979999999999997
 10
5.579999999999998
 20
4.979999999999997
 10
5.560000000000002
 20
4.979999999999997
 10
5.540000000000006
 20
4.960000000000001
 10
5.519999999999996
 20
4.960000000000001
 10
5.5
 20
4.960000000000001
 10
5.480000000000004
 20
4.960000000000001
 10
5.459999999999994
 20
4.939999999999998
 10
5.439999999999998
 20
4.939999999999998
 10
5.420000000000002
 20
4.939999999999998
 10
5.400000000000006
 20
4.939999999999998
 10
5.3799999999999955
 20
4.920000000000002
 10
5.359999999999999
 20
4.920000000000002
 10
5.340000000000003
 20
4.920000000000002
 10
5.320000000000007
 20
4.920000000000002
 10
5.299999999999997
 20
4.920000000000002
 10
5.299999999999997
 20
4.899999999999999
 10
5.280000000000001
 20
4.899999999999999
 10
5.260000000000005
 20
4.899999999999999
 10
5.239999999999995
 20
4.899999999999999
 10
5.219999999999999
 20
4.899999999999999
 10
5.200000000000003
 20
4.899999999999999
 10
5.200000000000003
 20
4.8799999999999955
 10
5.180000000000007
 20
4.8799999999999955
 10
4.260000000000005
 20
5.960000000000001
 10
3.3400000000000034
 20
7.019999999999996
 10
3.3400000000000034
 20
7.039999999999999
 10
3.3599999999999994
 20
7.039999999999999
 10
3.3599999999999994
 20
7.059999999999995
 10
3.3599999999999994
 20
7.079999999999998
 10
3.3599999999999994
 20
7.100000000000001
 10
3.3799999999999955
 20
7.100000000000001
 10
3.3799999999999955
 20
7.119999999999997
 10
3.3799999999999955
 20
7.140000000000001
 10
3.4000000000000057
 20
7.159999999999997
 10
3.4000000000000057
 20
7.18
 10
3.4000000000000057
 20
7.199999999999996
 10
3.4200000000000017
 20
7.199999999999996
 10
3.4200000000000017
 20
7.219999999999999
 10
3.4200000000000017
 20
7.240000000000002
 10
3.4399999999999977
 20
7.259999999999998
 10
3.4399999999999977
 20
7.280000000000001
 10
3.4599999999999937
 20
7.299999999999997
 10
3.4599999999999937
 20
7.32
 10
3.4599999999999937
 20
7.339999999999996
 10
3.480000000000004
 20
7.359999999999999
 10
3.480000000000004
 20
7.3799999999999955
 10
3.480000000000004
 20
7.399999999999999
 10
3.5
 20
7.399999999999999
 10
3.5
 20
7.420000000000002
 10
3.5
 20
7.439999999999998
 10
3.519999999999996
 20
7.460000000000001
 10
3.519999999999996
 20
7.479999999999997
 10
3.519999999999996
 20
7.5
 10
3.5400000000000063
 20
7.5
 10
3.5400000000000063
 20
7.519999999999996
 10
3.5600000000000023
 20
7.539999999999999
 10
3.5600000000000023
 20
7.559999999999995
 10
3.5600000000000023
 20
7.579999999999998
 10
3.5799999999999983
 20
7.600000000000001
 10
3.5799999999999983
 20
7.619999999999997
 10
3.5999999999999943
 20
7.640000000000001
 10
3.5999999999999943
 20
7.659999999999997
 10
3.5999999999999943
 20
7.68
 10
3.6200000000000045
 20
7.699999999999996
 10
3.6200000000000045
 20
7.719999999999999
 10
3.6400000000000006
 20
7.740000000000002
 10
3.6400000000000006
 20
7.759999999999998
 10
3.6599999999999966
 20
7.780000000000001
 10
3.6599999999999966
 20
7.799999999999997
 10
3.680000000000007
 20
7.82
 10
3.680000000000007
 20
7.839999999999996
 10
3.680000000000007
 20
7.859999999999999
 10
3.700000000000003
 20
7.8799999999999955
 10
3.700000000000003
 20
7.899999999999999
 10
3.719999999999999
 20
7.899999999999999
 10
3.719999999999999
 20
7.920000000000002
 10
3.719999999999999
 20
7.939999999999998
 10
3.739999999999995
 20
7.960000000000001
 10
3.739999999999995
 20
7.979999999999997
 10
3.739999999999995
 20
8.0
 10
3.760000000000005
 20
8.0
 10
3.760000000000005
 20
8.019999999999996
 10
3.780000000000001
 20
8.04
 10
3.780000000000001
 20
8.059999999999995
 10
3.780000000000001
 20
8.079999999999998
 10
3.799999999999997
 20
8.079999999999998
 10
3.799999999999997
 20
8.100000000000001
 10
3.8200000000000074
 20
8.119999999999997
 10
3.8200000000000074
 20
8.14
 10
3.8400000000000034
 20
8.159999999999997
 10
3.8400000000000034
 20
8.18
 10
3.8599999999999994
 20
8.199999999999996
 10
3.8599999999999994
 20
8.219999999999999
 10
3.8799999999999955
 20
8.240000000000002
 10
3.8799999999999955
 20
8.259999999999998
 10
3.9000000000000057
 20
8.280000000000001
 10
3.9000000000000057
 20
8.299999999999997
 10
3.9000000000000057
 20
8.32
 10
3.9200000000000017
 20
8.339999999999996
 10
3.9399999999999977
 20
8.36
 10
3.9399999999999977
 20
8.379999999999995
 10
3.9599999999999937
 20
8.399999999999999
 10
3.9599999999999937
 20
8.420000000000002
 10
3.980000000000004
 20
8.439999999999998
 10
3.980000000000004
 20
8.46
 10
4.0
 20
8.479999999999997
 10
4.0
 20
8.5
 10
4.019999999999996
 20
8.5
 10
4.019999999999996
 20
8.519999999999996
 10
4.040000000000006
 20
8.54
 10
4.040000000000006
 20
8.559999999999995
 10
4.060000000000002
 20
8.579999999999998
 10
4.060000000000002
 20
8.600000000000001
 10
4.079999999999998
 20
8.619999999999997
 10
4.079999999999998
 20
8.64
 10
4.099999999999994
 20
8.659999999999997
 10
4.099999999999994
 20
8.68
 10
4.1200000000000045
 20
8.699999999999996
 10
4.140000000000001
 20
8.719999999999999
 10
4.140000000000001
 20
8.740000000000002
 10
4.159999999999997
 20
8.759999999999998
 10
4.159999999999997
 20
8.780000000000001
 10
4.180000000000007
 20
8.799999999999997
 10
4.200000000000003
 20
8.82
 10
4.200000000000003
 20
8.839999999999996
 10
4.219999999999999
 20
8.86
 10
4.239999999999995
 20
8.879999999999995
 10
4.239999999999995
 20
8.899999999999999
 10
4.260000000000005
 20
8.920000000000002
 10
4.260000000000005
 20
8.939999999999998
 10
4.280000000000001
 20
8.96
 10
4.299999999999997
 20
8.979999999999997
 10
4.299999999999997
 20
9.0
 10
4.320000000000007
 20
9.019999999999996
 10
4.340000000000003
 20
9.04
 10
4.359999999999999
 20
9.059999999999995
 10
4.359999999999999
 20
9.079999999999998
 10
4.3799999999999955
 20
9.100000000000001
 10
4.400000000000006
 20
9.119999999999997
 10
4.400000000000006
 20
9.14
 10
4.420000000000002
 20
9.159999999999997
 10
4.439999999999998
 20
9.18
 10
4.459999999999994
 20
9.199999999999996
 10
4.459999999999994
 20
9.219999999999999
 10
4.480000000000004
 20
9.219999999999999
 10
4.480000000000004
 20
9.240000000000002
 10
4.5
 20
9.259999999999998
 10
4.519999999999996
 20
9.280000000000001
 10
4.519999999999996
 20
9.299999999999997
 10
4.540000000000006
 20
9.299999999999997
 10
4.540000000000006
 20
9.32
 10
4.560000000000002
 20
9.339999999999996
 10
4.560000000000002
 20
9.36
 10
4.579999999999998
 20
9.36
 10
4.579999999999998
 20
9.379999999999995
 10
4.599999999999994
 20
9.379999999999995
 10
4.599999999999994
 20
9.399999999999999
 10
4.6200000000000045
 20
9.420000000000002
 10
4.640000000000001
 20
9.439999999999998
 10
4.659999999999997
 20
9.46
 10
4.680000000000007
 20
9.479999999999997
 10
4.700000000000003
 20
9.5
 10
4.719999999999999
 20
9.519999999999996
 10
4.739999999999995
 20
9.54
 10
4.739999999999995
 20
9.559999999999995
 10
4.760000000000005
 20
9.559999999999995
 10
4.760000000000005
 20
9.579999999999998
 10
4.780000000000001
 20
9.579999999999998
 10
4.780000000000001
 20
9.600000000000001
 10
4.799999999999997
 20
9.600000000000001
 10
4.799999999999997
 20
9.619999999999997
 10
4.820000000000007
 20
9.619999999999997
 10
4.820000000000007
 20
9.64
 10
4.840000000000003
 20
9.64
 10
4.840000000000003
 20
9.659999999999997
 10
4.859999999999999
 20
9.659999999999997
 10
4.859999999999999
 20
9.68
 10
4.8799999999999955
 20
9.68
 10
4.8799999999999955
 20
9.699999999999996
 10
4.900000000000006
 20
9.699999999999996
 10
4.900000000000006
 20
9.719999999999999
 10
4.920000000000002
 20
9.719999999999999
 10
4.920000000000002
 20
9.740000000000002
 10
4.939999999999998
 20
9.740000000000002
 10
4.939999999999998
 20
9.759999999999998
 10
4.959999999999994
 20
9.759999999999998
 10
4.980000000000004
 20
9.780000000000001
 10
4.980000000000004
 20
9.799999999999997
 10
5.0
 20
9.799999999999997
 10
5.019999999999996
 20
9.82
 10
5.040000000000006
 20
9.82
 10
5.040000000000006
 20
9.839999999999996
 10
5.060000000000002
 20
9.839999999999996
 10
5.060000000000002
 20
9.86
 10
5.079999999999998
 20
9.86
 10
5.079999999999998
 20
9.879999999999995
 10
5.099999999999994
 20
9.879999999999995
 10
5.099999999999994
 20
9.899999999999999
 10
5.1200000000000045
 20
9.899999999999999
 10
5.140000000000001
 20
9.920000000000002
 10
5.159999999999997
 20
9.939999999999998
 10
5.180000000000007
 20
9.939999999999998
 10
5.180000000000007
 20
9.96
 10
5.200000000000003
 20
9.96
 10
5.200000000000003
 20
9.979999999999997
 10
5.219999999999999
 20
9.979999999999997
 10
5.219999999999999
 20
10.0
 10
5.239999999999995
 20
10.0
 10
5.260000000000005
 20
10.019999999999996
 10
5.280000000000001
 20
10.019999999999996
 10
5.280000000000001
 20
10.04
 10
5.299999999999997
 20
10.04
 10
5.299999999999997
 20
10.059999999999995
 10
5.320000000000007
 20
10.059999999999995
 10
5.340000000000003
 20
10.079999999999998
 10
5.359999999999999
 20
10.079999999999998
 10
5.359999999999999
 20
10.100000000000001
 10
5.3799999999999955
 20
10.100000000000001
 10
5.3799999999999955
 20
10.119999999999997
 10
5.400000000000006
 20
10.119999999999997
 10
5.400000000000006
 20
10.14
 10
5.420000000000002
 20
10.14
 10
5.439999999999998
 20
10.14
 10
5.439999999999998
 20
10.159999999999997
 10
5.459999999999994
 20
10.159999999999997
 10
5.459999999999994
 20
10.18
 10
5.480000000000004
 20
10.18
 10
5.480000000000004
 20
10.199999999999996
 10
5.5
 20
10.199999999999996
 10
5.5
 20
10.219999999999999
 10
5.519999999999996
 20
10.219999999999999
 10
5.519999999999996
 20
10.240000000000002
 10
5.540000000000006
 20
10.240000000000002
 10
5.560000000000002
 20
10.240000000000002
 10
5.560000000000002
 20
10.259999999999998
 10
5.579999999999998
 20
10.259999999999998
 10
5.579999999999998
 20
10.280000000000001
 10
5.599999999999994
 20
10.280000000000001
 10
5.599999999999994
 20
10.299999999999997
 10
5.6200000000000045
 20
10.299999999999997
 10
5.6200000000000045
 20
10.32
 10
5.640000000000001
 20
10.32
 10
5.640000000000001
 20
10.339999999999996
 10
5.659999999999997
 20
10.339999999999996
 10
5.659999999999997
 20
10.36
 10
5.680000000000007
 20
10.36
 10
5.680000000000007
 20
10.379999999999995
 10
5.700000000000003
 20
10.379999999999995
 10
5.700000000000003
 20
10.399999999999999
 10
5.719999999999999
 20
10.399999999999999
 10
5.719999999999999
 20
10.420000000000002
 10
5.739999999999995
 20
10.420000000000002
 10
5.739999999999995
 20
10.439999999999998
 10
5.760000000000005
 20
10.46
 10
5.760000000000005
 20
10.479999999999997
 10
5.780000000000001
 20
10.479999999999997
 10
5.780000000000001
 20
10.5
 10
5.799999999999997
 20
10.5
 10
5.799999999999997
 20
10.519999999999996
 10
5.820000000000007
 20
10.519999999999996
 10
5.820000000000007
 20
10.54
 10
5.820000000000007
 20
10.559999999999995
 10
5.840000000000003
 20
10.559999999999995
 10
5.840000000000003
 20
10.579999999999998
 10
5.859999999999999
 20
10.579999999999998
 10
5.859999999999999
 20
10.600000000000001
 10
5.859999999999999
 20
10.619999999999997
 10
5.8799999999999955
 20
10.619999999999997
 10
5.8799999999999955
 20
10.64
 10
5.8799999999999955
 20
10.659999999999997
 10
5.900000000000006
 20
10.659999999999997
 10
5.900000000000006
 20
10.68
 10
5.920000000000002
 20
10.68
 10
5.920000000000002
 20
10.699999999999996
 10
5.920000000000002
 20
10.719999999999999
 10
5.939999999999998
 20
10.740000000000002
 10
5.939999999999998
 20
10.759999999999998
 10
5.939999999999998
 20
10.780000000000001
 10
5.959999999999994
 20
10.780000000000001
 10
5.959999999999994
 20
10.799999999999997
 10
5.959999999999994
 20
10.82
 10
5.980000000000004
 20
10.82
 10
5.980000000000004
 20
10.839999999999996
 10
5.980000000000004
 20
10.86
 10
5.980000000000004
 20
10.879999999999995
 10
6.0
 20
10.879999999999995
 10
6.0
 20
10.899999999999999
 10
6.0
 20
10.920000000000002
 10
6.0
 20
10.939999999999998
 10
6.019999999999996
 20
10.939999999999998
 10
6.019999999999996
 20
10.96
 10
6.019999999999996
 20
10.979999999999997
 10
6.019999999999996
 20
11.0
 10
6.019999999999996
 20
11.019999999999996
 10
6.040000000000006
 20
11.019999999999996
 10
6.040000000000006
 20
11.04
 10
6.040000000000006
 20
11.059999999999995
 10
6.040000000000006
 20
11.079999999999998
 10
6.040000000000006
 20
11.100000000000001
 10
6.060000000000002
 20
11.119999999999997
 10
6.060000000000002
 20
11.14
 10
6.060000000000002
 20
11.159999999999997
 10
6.060000000000002
 20
11.18
 10
6.060000000000002
 20
11.199999999999996
 10
6.060000000000002
 20
11.219999999999999
 10
6.060000000000002
 20
11.240000000000002
 10
6.079999999999998
 20
11.240000000000002
 10
6.079999999999998
 20
11.259999999999998
 10
5.799999999999997
 20
11.799999999999997
 10
5.560000000000002
 20
12.339999999999996
 10
5.340000000000003
 20
12.899999999999999
 10
5.159999999999997
 20
13.46
 10
5.140000000000001
 20
13.46
 10
5.140000000000001
 20
13.479999999999997
 10
5.1200000000000045
 20
13.479999999999997
 10
5.1200000000000045
 20
13.5
 10
5.099999999999994
 20
13.5
 10
5.099999999999994
 20
13.519999999999996
 10
5.079999999999998
 20
13.519999999999996
 10
5.060000000000002
 20
13.519999999999996
 10
5.060000000000002
 20
13.54
 10
5.040000000000006
 20
13.54
 10
5.040000000000006
 20
13.559999999999995
 10
5.019999999999996
 20
13.559999999999995
 10
5.0
 20
13.559999999999995
 10
5.0
 20
13.579999999999998
 10
4.980000000000004
 20
13.579999999999998
 10
4.980000000000004
 20
13.600000000000001
 10
4.959999999999994
 20
13.600000000000001
 10
4.939999999999998
 20
13.600000000000001
 10
4.939999999999998
 20
13.619999999999997
 10
4.920000000000002
 20
13.619999999999997
 10
4.900000000000006
 20
13.619999999999997
 10
4.900000000000006
 20
13.64
 10
4.8799999999999955
 20
13.64
 10
4.8799999999999955
 20
13.659999999999997
 10
4.859999999999999
 20
13.659999999999997
 10
4.840000000000003
 20
13.659999999999997
 10
4.840000000000003
 20
13.68
 10
4.820000000000007
 20
13.68
 10
4.799999999999997
 20
13.68
 10
4.799999999999997
 20
13.699999999999996
 10
4.780000000000001
 20
13.699999999999996
 10
4.760000000000005
 20
13.699999999999996
 10
4.739999999999995
 20
13.699999999999996
 10
4.739999999999995
 20
13.719999999999999
 10
4.719999999999999
 20
13.719999999999999
 10
4.700000000000003
 20
13.719999999999999
 10
4.700000000000003
 20
13.740000000000002
 10
4.680000000000007
 20
13.740000000000002
 10
4.659999999999997
 20
13.740000000000002
 10
4.640000000000001
 20
13.740000000000002
 10
4.640000000000001
 20
13.759999999999998
 10
4.6200000000000045
 20
13.759999999999998
 10
4.599999999999994
 20
13.759999999999998
 10
4.579999999999998
 20
13.759999999999998
 10
4.560000000000002
 20
13.759999999999998
 10
4.560000000000002
 20
13.780000000000001
 10
4.540000000000006
 20
13.780000000000001
 10
4.519999999999996
 20
13.780000000000001
 10
4.5
 20
13.780000000000001
 10
4.480000000000004
 20
13.780000000000001
 10
4.459999999999994
 20
13.799999999999997
 10
4.439999999999998
 20
13.799999999999997
 10
4.420000000000002
 20
13.799999999999997
 10
4.400000000000006
 20
13.799999999999997
 10
4.3799999999999955
 20
13.799999999999997
 10
4.359999999999999
 20
13.799999999999997
 10
4.340000000000003
 20
13.799999999999997
 10
4.320000000000007
 20
13.799999999999997
 10
4.299999999999997
 20
13.799999999999997
 10
4.280000000000001
 20
13.799999999999997
 10
4.260000000000005
 20
13.799999999999997
 10
4.239999999999995
 20
13.799999999999997
 10
4.219999999999999
 20
13.799999999999997
 10
4.200000000000003
 20
13.799999999999997
 10
4.180000000000007
 20
13.799999999999997
 10
4.159999999999997
 20
13.799999999999997
 10
4.140000000000001
 20
13.799999999999997
 10
4.1200000000000045
 20
13.799999999999997
 10
4.099999999999994
 20
13.799999999999997
 10
4.079999999999998
 20
13.799999999999997
 10
4.060000000000002
 20
13.799999999999997
 10
4.040000000000006
 20
13.799999999999997
 10
4.019999999999996
 20
13.799999999999997
 10
4.0
 20
13.799999999999997
 10
3.980000000000004
 20
13.799999999999997
 10
3.9599999999999937
 20
13.799999999999997
 10
3.9399999999999977
 20
13.799999999999997
 10
3.9200000000000017
 20
13.780000000000001
 10
3.9000000000000057
 20
13.780000000000001
 10
3.8799999999999955
 20
13.780000000000001
 10
3.8599999999999994
 20
13.780000000000001
 10
3.8400000000000034
 20
13.780000000000001
 10
3.8200000000000074
 20
13.780000000000001
 10
3.799999999999997
 20
13.780000000000001
 10
3.780000000000001
 20
13.780000000000001
 10
3.760000000000005
 20
13.780000000000001
 10
3.760000000000005
 20
13.759999999999998
 10
3.739999999999995
 20
13.759999999999998
 10
3.719999999999999
 20
13.759999999999998
 10
3.700000000000003
 20
13.759999999999998
 10
3.680000000000007
 20
13.759999999999998
 10
3.6599999999999966
 20
13.759999999999998
 10
3.6400000000000006
 20
13.759999999999998
 10
3.6200000000000045
 20
13.759999999999998
 10
3.5999999999999943
 20
13.759999999999998
 10
3.5999999999999943
 20
13.740000000000002
 10
3.5799999999999983
 20
13.740000000000002
 10
3.5600000000000023
 20
13.740000000000002
 10
3.5400000000000063
 20
13.740000000000002
 10
3.519999999999996
 20
13.740000000000002
 10
3.5
 20
13.740000000000002
 10
3.480000000000004
 20
13.740000000000002
 10
3.4599999999999937
 20
13.740000000000002
 10
3.4399999999999977
 20
13.740000000000002
 10
3.4200000000000017
 20
13.740000000000002
 10
3.4000000000000057
 20
13.740000000000002
 10
3.3799999999999955
 20
13.740000000000002
 10
3.3599999999999994
 20
13.719999999999999
 10
3.3400000000000034
 20
13.719999999999999
 10
3.3200000000000074
 20
13.719999999999999
 10
3.299999999999997
 20
13.719999999999999
 10
3.280000000000001
 20
13.719999999999999
 10
3.260000000000005
 20
13.719999999999999
 10
3.239999999999995
 20
13.719999999999999
 10
3.219999999999999
 20
13.719999999999999
 10
3.200000000000003
 20
13.719999999999999
 10
3.180000000000007
 20
13.719999999999999
 10
3.1599999999999966
 20
13.719999999999999
 10
3.1400000000000006
 20
13.719999999999999
 10
3.1200000000000045
 20
13.719999999999999
 10
3.0999999999999943
 20
13.719999999999999
 10
3.0799999999999983
 20
13.719999999999999
 10
3.0600000000000023
 20
13.719999999999999
 10
3.0400000000000063
 20
13.719999999999999
 10
3.019999999999996
 20
13.719999999999999
 10
3.0
 20
13.719999999999999
 10
2.980000000000004
 20
13.719999999999999
 10
2.9599999999999937
 20
13.719999999999999
 10
2.9399999999999977
 20
13.719999999999999
 10
2.9200000000000017
 20
13.719999999999999
 10
2.9000000000000057
 20
13.719999999999999
 10
2.8799999999999955
 20
13.719999999999999
 10
2.8599999999999994
 20
13.740000000000002
 10
2.8400000000000034
 20
13.740000000000002
 10
2.8200000000000074
 20
13.740000000000002
 10
2.799999999999997
 20
13.740000000000002
 10
2.780000000000001
 20
13.740000000000002
 10
2.760000000000005
 20
13.740000000000002
 10
2.739999999999995
 20
13.740000000000002
 10
2.719999999999999
 20
13.740000000000002
 10
2.700000000000003
 20
13.740000000000002
 10
2.680000000000007
 20
13.740000000000002
 10
2.6599999999999966
 20
13.740000000000002
 10
2.6599999999999966
 20
13.759999999999998
 10
2.6400000000000006
 20
13.759999999999998
 10
2.6200000000000045
 20
13.759999999999998
 10
2.5999999999999943
 20
13.759999999999998
 10
2.5799999999999983
 20
13.759999999999998
 10
2.5600000000000023
 20
13.759999999999998
 10
2.5400000000000063
 20
13.759999999999998
 10
2.519999999999996
 20
13.759999999999998
 10
2.5
 20
13.780000000000001
 10
2.480000000000004
 20
13.780000000000001
 10
2.4599999999999937
 20
13.780000000000001
 10
2.4399999999999977
 20
13.780000000000001
 10
2.4200000000000017
 20
13.780000000000001
 10
2.4000000000000057
 20
13.780000000000001
 10
2.3799999999999955
 20
13.799999999999997
 10
2.3599999999999994
 20
13.799999999999997
 10
2.3400000000000034
 20
13.799999999999997
 10
2.3200000000000074
 20
13.799999999999997
 10
2.299999999999997
 20
13.799999999999997
 10
2.280000000000001
 20
13.82
 10
2.260000000000005
 20
13.82
 10
2.239999999999995
 20
13.82
 10
2.219999999999999
 20
13.82
 10
2.200000000000003
 20
13.82
 10
2.180000000000007
 20
13.839999999999996
 10
2.1599999999999966
 20
13.839999999999996
 10
2.1400000000000006
 20
13.839999999999996
 10
2.1200000000000045
 20
13.839999999999996
 10
2.0999999999999943
 20
13.86
 10
2.0799999999999983
 20
13.86
 10
2.0600000000000023
 20
13.86
 10
2.0400000000000063
 20
13.86
 10
2.019999999999996
 20
13.879999999999995
 10
2.0
 20
13.879999999999995
 10
1.980000000000004
 20
13.879999999999995
 10
1.9599999999999937
 20
13.879999999999995
 10
1.9399999999999977
 20
13.879999999999995
 10
1.9200000000000017
 20
13.899999999999999
 10
1.9000000000000057
 20
13.899999999999999
 10
1.8799999999999955
 20
13.899999999999999
 10
1.8599999999999994
 20
13.899999999999999
 10
1.8400000000000034
 20
13.920000000000002
 10
1.8200000000000074
 20
13.920000000000002
 10
1.7999999999999972
 20
13.920000000000002
 10
1.7800000000000011
 20
13.939999999999998
 10
1.7600000000000051
 20
13.939999999999998
 10
1.7399999999999949
 20
13.939999999999998
 10
1.7199999999999989
 20
13.96
 10
1.7000000000000028
 20
13.96
 10
1.6800000000000068
 20
13.96
 10
1.6599999999999966
 20
13.96
 10
1.6400000000000006
 20
13.979999999999997
 10
1.6200000000000045
 20
13.979999999999997
 10
1.5999999999999943
 20
13.979999999999997
 10
1.5799999999999983
 20
14.0
 10
1.5600000000000023
 20
14.0
 10
1.5400000000000063
 20
14.0
 10
1.519999999999996
 20
14.019999999999996
 10
1.5
 20
14.019999999999996
 10
1.480000000000004
 20
14.019999999999996
 10
1.4599999999999937
 20
14.019999999999996
 10
1.4399999999999977
 20
14.04
 10
1.4200000000000017
 20
14.04
 10
1.4000000000000057
 20
14.059999999999995
 10
1.3799999999999955
 20
14.059999999999995
 10
1.3599999999999994
 20
14.059999999999995
 10
1.3400000000000034
 20
14.059999999999995
 10
1.3400000000000034
 20
14.079999999999998
 10
1.3200000000000074
 20
14.079999999999998
 10
1.2999999999999972
 20
14.079999999999998
 10
1.2800000000000011
 20
14.079999999999998
 10
1.2600000000000051
 20
14.100000000000001
 10
1.2399999999999949
 20
14.100000000000001
 10
1.2199999999999989
 20
14.119999999999997
 10
1.2000000000000028
 20
14.119999999999997
 10
1.1800000000000068
 20
14.119999999999997
 10
1.1599999999999966
 20
14.14
 10
1.1400000000000006
 20
14.14
 10
1.1200000000000045
 20
14.14
 10
1.0999999999999943
 20
14.159999999999997
 10
1.0799999999999983
 20
14.159999999999997
 10
1.0600000000000023
 20
14.159999999999997
 10
1.0400000000000063
 20
14.18
 10
1.019999999999996
 20
14.18
 10
1.0
 20
14.199999999999996
 10
0.980000000000004
 20
14.199999999999996
 10
0.9599999999999937
 20
14.199999999999996
 10
0.9399999999999977
 20
14.219999999999999
 10
0.9200000000000017
 20
14.219999999999999
 10
0.9000000000000057
 20
14.240000000000002
 10
0.8799999999999955
 20
14.240000000000002
 10
0.8599999999999994
 20
14.240000000000002
 10
0.8400000000000034
 20
14.259999999999998
 10
0.8200000000000074
 20
14.259999999999998
 10
0.7999999999999972
 20
14.259999999999998
 10
0.7999999999999972
 20
14.280000000000001
 10
0.7800000000000011
 20
14.280000000000001
 10
0.7600000000000051
 20
14.280000000000001
 10
0.7399999999999949
 20
14.299999999999997
 10
0.7199999999999989
 20
14.299999999999997
 10
0.7000000000000028
 20
14.299999999999997
 10
0.7000000000000028
 20
14.32
 10
0.6800000000000068
 20
14.32
 10
0.6599999999999966
 20
14.32
 10
0.6400000000000006
 20
14.339999999999996
 10
0.6200000000000045
 20
14.339999999999996
 10
0.5999999999999943
 20
14.339999999999996
 10
0.5999999999999943
 20
14.36
 10
0.5799999999999983
 20
14.36
 10
0.5600000000000023
 20
14.36
 10
0.5600000000000023
 20
14.379999999999995
 10
0.5400000000000063
 20
14.379999999999995
 10
0.519999999999996
 20
14.379999999999995
 10
0.5
 20
14.399999999999999
 10
0.480000000000004
 20
14.399999999999999
 10
0.45999999999999375
 20
14.399999999999999
 10
0.4399999999999977
 20
14.420000000000002
 10
0.4200000000000017
 20
14.420000000000002
 10
0.4200000000000017
 20
14.439999999999998
 10
0.4000000000000057
 20
14.439999999999998
 10
0.37999999999999545
 20
14.439999999999998
 10
0.35999999999999943
 20
14.46
 10
0.3400000000000034
 20
14.46
 10
0.3200000000000074
 20
14.46
 10
0.3200000000000074
 20
14.479999999999997
 10
0.29999999999999716
 20
14.479999999999997
 10
0.28000000000000114
 20
14.479999999999997
 10
0.28000000000000114
 20
14.5
 10
0.2600000000000051
 20
14.5
 10
0.23999999999999488
 20
14.5
 10
0.21999999999999886
 20
14.519999999999996
 10
0.12000000000000455
 20
15.920000000000002
 10
0.0
 20
17.32
 10
0.01999999999999602
 20
17.32
 10
0.01999999999999602
 20
17.339999999999996
 10
0.04000000000000625
 20
17.339999999999996
 10
0.04000000000000625
 20
17.36
 10
0.060000000000002274
 20
17.36
 10
0.0799999999999983
 20
17.36
 10
0.0799999999999983
 20
17.379999999999995
 10
0.09999999999999432
 20
17.379999999999995
 10
0.09999999999999432
 20
17.4
 10
0.12000000000000455
 20
17.4
 10
0.14000000000000057
 20
17.4
 10
0.14000000000000057
 20
17.42
 10
0.1599999999999966
 20
17.42
 10
0.18000000000000682
 20
17.42
 10
0.18000000000000682
 20
17.439999999999998
 10
0.20000000000000284
 20
17.439999999999998
 10
0.20000000000000284
 20
17.46
 10
0.21999999999999886
 20
17.46
 10
0.23999999999999488
 20
17.479999999999997
 10
0.2600000000000051
 20
17.479999999999997
 10
0.28000000000000114
 20
17.5
 10
0.29999999999999716
 20
17.519999999999996
 10
0.3200000000000074
 20
17.519999999999996
 10
0.3400000000000034
 20
17.54
 10
0.35999999999999943
 20
17.54
 10
0.37999999999999545
 20
17.559999999999995
 10
0.4000000000000057
 20
17.559999999999995
 10
0.4000000000000057
 20
17.58
 10
0.4200000000000017
 20
17.58
 10
0.4399999999999977
 20
17.6
 10
0.45999999999999375
 20
17.6
 10
0.45999999999999375
 20
17.619999999999997
 10
0.480000000000004
 20
17.619999999999997
 10
0.5
 20
17.64
 10
0.519999999999996
 20
17.64
 10
0.5400000000000063
 20
17.659999999999997
 10
0.5600000000000023
 20
17.659999999999997
 10
0.5600000000000023
 20
17.68
 10
0.5799999999999983
 20
17.68
 10
0.5999999999999943
 20
17.699999999999996
 10
0.6200000000000045
 20
17.699999999999996
 10
0.6400000000000006
 20
17.72
 10
0.6599999999999966
 20
17.72
 10
0.6800000000000068
 20
17.740000000000002
 10
0.7000000000000028
 20
17.740000000000002
 10
0.7199999999999989
 20
17.759999999999998
 10
0.7399999999999949
 20
17.78
 10
0.7600000000000051
 20
17.78
 10
0.7800000000000011
 20
17.799999999999997
 10
0.7999999999999972
 20
17.799999999999997
 10
0.7999999999999972
 20
17.82
 10
0.8200000000000074
 20
17.82
 10
0.8400000000000034
 20
17.82
 10
0.8599999999999994
 20
17.839999999999996
 10
0.8799999999999955
 20
17.86
 10
0.9000000000000057
 20
17.86
 10
0.9200000000000017
 20
17.879999999999995
 10
0.9399999999999977
 20
17.879999999999995
 10
0.9599999999999937
 20
17.9
 10
0.980000000000004
 20
17.9
 10
1.0
 20
17.92
 10
1.019999999999996
 20
17.92
 10
1.0400000000000063
 20
17.939999999999998
 10
1.0600000000000023
 20
17.939999999999998
 10
1.0600000000000023
 20
17.96
 10
1.0799999999999983
 20
17.96
 10
1.0999999999999943
 20
17.979999999999997
 10
1.1200000000000045
 20
17.979999999999997
 10
1.1400000000000006
 20
18.0
 10
1.1599999999999966
 20
18.0
 10
1.1800000000000068
 20
18.019999999999996
 10
1.2000000000000028
 20
18.019999999999996
 10
1.2199999999999989
 20
18.04
 10
1.2399999999999949
 20
18.04
 10
1.2600000000000051
 20
18.04
 10
1.2800000000000011
 20
18.059999999999995
 10
1.2999999999999972
 20
18.059999999999995
 10
1.3200000000000074
 20
18.08
 10
1.3400000000000034
 20
18.1
 10
1.3599999999999994
 20
18.1
 10
1.3799999999999955
 20
18.119999999999997
 10
1.4000000000000057
 20
18.119999999999997
 10
1.4200000000000017
 20
18.119999999999997
 10
1.4399999999999977
 20
18.14
 10
1.4599999999999937
 20
18.14
 10
1.480000000000004
 20
18.159999999999997
 10
1.5
 20
18.159999999999997
 10
1.519999999999996
 20
18.18
 10
1.5400000000000063
 20
18.18
 10
1.5600000000000023
 20
18.199999999999996
 10
1.5799999999999983
 20
18.199999999999996
 10
1.5999999999999943
 20
18.199999999999996
 10
1.6200000000000045
 20
18.22
 10
1.6400000000000006
 20
18.240000000000002
 10
1.6599999999999966
 20
18.240000000000002
 10
1.6800000000000068
 20
18.240000000000002
 10
1.7000000000000028
 20
18.259999999999998
 10
1.7199999999999989
 20
18.259999999999998
 10
1.7399999999999949
 20
18.28
 10
1.7600000000000051
 20
18.28
 10
1.7800000000000011
 20
18.28
 10
1.7999999999999972
 20
18.299999999999997
 10
1.8200000000000074
 20
18.299999999999997
 10
1.8400000000000034
 20
18.299999999999997
 10
1.8599999999999994
 20
18.32
 10
1.8799999999999955
 20
18.32
 10
1.9000000000000057
 20
18.339999999999996
 10
1.9200000000000017
 20
18.339999999999996
 10
1.9399999999999977
 20
18.36
 10
1.9599999999999937
 20
18.36
 10
1.980000000000004
 20
18.36
 10
2.0
 20
18.379999999999995
 10
2.019999999999996
 20
18.379999999999995
 10
2.0400000000000063
 20
18.379999999999995
 10
2.0600000000000023
 20
18.379999999999995
 10
2.0799999999999983
 20
18.4
 10
2.0999999999999943
 20
18.4
 10
2.1200000000000045
 20
18.42
 10
2.1400000000000006
 20
18.42
 10
2.1599999999999966
 20
18.42
 10
2.180000000000007
 20
18.42
 10
2.200000000000003
 20
18.439999999999998
 10
2.219999999999999
 20
18.439999999999998
 10
2.239999999999995
 20
18.46
 10
2.260000000000005
 20
18.46
 10
2.280000000000001
 20
18.46
 10
2.299999999999997
 20
18.46
 10
2.3200000000000074
 20
18.479999999999997
 10
2.3400000000000034
 20
18.479999999999997
 10
2.3599999999999994
 20
18.479999999999997
 10
2.3799999999999955
 20
18.479999999999997
 10
2.4000000000000057
 20
18.5
 10
2.4200000000000017
 20
18.5
 10
2.4399999999999977
 20
18.5
 10
2.4599999999999937
 20
18.5
 10
2.480000000000004
 20
18.519999999999996
 10
2.5
 20
18.519999999999996
 10
2.519999999999996
 20
18.519999999999996
 10
2.5400000000000063
 20
18.519999999999996
 10
2.5600000000000023
 20
18.519999999999996
 10
2.5600000000000023
 20
18.54
 10
2.5799999999999983
 20
18.54
 10
2.5999999999999943
 20
18.54
 10
2.6200000000000045
 20
18.54
 10
2.6400000000000006
 20
18.54
 10
2.6599999999999966
 20
18.54
 10
2.680000000000007
 20
18.559999999999995
 10
2.700000000000003
 20
18.559999999999995
 10
2.719999999999999
 20
18.559999999999995
 10
2.739999999999995
 20
18.559999999999995
 10
2.760000000000005
 20
18.559999999999995
 10
2.780000000000001
 20
18.559999999999995
 10
2.799999999999997
 20
18.58
 10
2.8200000000000074
 20
18.58
 10
2.8400000000000034
 20
18.58
 10
2.8599999999999994
 20
18.58
 10
2.8799999999999955
 20
18.58
 10
2.9000000000000057
 20
18.58
 10
2.9200000000000017
 20
18.58
 10
2.9399999999999977
 20
18.58
 10
2.9599999999999937
 20
18.6
 10
2.980000000000004
 20
18.6
 10
3.0
 20
18.6
 10
3.019999999999996
 20
18.6
 10
3.0400000000000063
 20
18.6
 10
3.0600000000000023
 20
18.6
 10
3.0799999999999983
 20
18.6
 10
3.0999999999999943
 20
18.6
 10
3.1200000000000045
 20
18.6
 10
3.1400000000000006
 20
18.6
 10
3.1599999999999966
 20
18.6
 10
3.180000000000007
 20
18.6
 10
3.200000000000003
 20
18.6
 10
3.219999999999999
 20
18.6
 10
3.219999999999999
 20
18.619999999999997
 10
3.239999999999995
 20
18.619999999999997
 10
3.260000000000005
 20
18.619999999999997
 10
3.280000000000001
 20
18.619999999999997
 10
3.299999999999997
 20
18.619999999999997
 10
3.3200000000000074
 20
18.619999999999997
 10
3.3400000000000034
 20
18.619999999999997
 10
3.3599999999999994
 20
18.619999999999997
 10
3.3799999999999955
 20
18.619999999999997
 10
3.4000000000000057
 20
18.619999999999997
 10
3.4200000000000017
 20
18.619999999999997
 10
3.4399999999999977
 20
18.619999999999997
 10
3.4599999999999937
 20
18.619999999999997
 10
3.480000000000004
 20
18.619999999999997
 10
3.5
 20
18.619999999999997
 10
3.519999999999996
 20
18.619999999999997
 10
3.5400000000000063
 20
18.619999999999997
 10
3.5600000000000023
 20
18.619999999999997
 10
3.5799999999999983
 20
18.619999999999997
 10
3.5999999999999943
 20
18.619999999999997
 10
3.6200000000000045
 20
18.619999999999997
 10
3.6400000000000006
 20
18.619999999999997
 10
3.6599999999999966
 20
18.64
 10
3.680000000000007
 20
18.64
 10
3.700000000000003
 20
18.64
 10
3.719999999999999
 20
18.64
 10
3.739999999999995
 20
18.64
 10
3.760000000000005
 20
18.64
 10
3.780000000000001
 20
18.64
 10
3.799999999999997
 20
18.64
 10
3.8200000000000074
 20
18.64
 10
3.8400000000000034
 20
18.659999999999997
 10
3.8599999999999994
 20
18.659999999999997
 10
3.8799999999999955
 20
18.659999999999997
 10
3.9000000000000057
 20
18.659999999999997
 10
3.9200000000000017
 20
18.659999999999997
 10
3.9399999999999977
 20
18.659999999999997
 10
3.9399999999999977
 20
18.68
 10
3.9599999999999937
 20
18.68
 10
3.980000000000004
 20
18.68
 10
4.0
 20
18.68
 10
4.019999999999996
 20
18.68
 10
4.019999999999996
 20
18.699999999999996
 10
4.040000000000006
 20
18.699999999999996
 10
4.060000000000002
 20
18.699999999999996
 10
4.079999999999998
 20
18.699999999999996
 10
4.079999999999998
 20
18.72
 10
4.099999999999994
 20
18.72
 10
4.1200000000000045
 20
18.72
 10
4.140000000000001
 20
18.72
 10
4.140000000000001
 20
18.740000000000002
 10
4.159999999999997
 20
18.740000000000002
 10
4.180000000000007
 20
18.740000000000002
 10
4.180000000000007
 20
18.759999999999998
 10
4.200000000000003
 20
18.759999999999998
 10
4.219999999999999
 20
18.759999999999998
 10
4.219999999999999
 20
18.78
 10
4.239999999999995
 20
18.78
 10
4.260000000000005
 20
18.78
 10
4.260000000000005
 20
18.799999999999997
 10
4.280000000000001
 20
18.799999999999997
 10
4.299999999999997
 20
18.799999999999997
 10
4.299999999999997
 20
18.82
 10
4.320000000000007
 20
18.82
 10
4.340000000000003
 20
18.839999999999996
 10
4.359999999999999
 20
18.839999999999996
 10
4.359999999999999
 20
18.86
 10
4.3799999999999955
 20
18.86
 10
4.400000000000006
 20
18.86
 10
4.400000000000006
 20
18.879999999999995
 10
4.420000000000002
 20
18.879999999999995
 10
4.420000000000002
 20
18.9
 10
4.439999999999998
 20
18.9
 10
4.439999999999998
 20
18.92
 10
4.459999999999994
 20
18.92
 10
4.480000000000004
 20
18.92
 10
4.480000000000004
 20
18.939999999999998
 10
4.5
 20
18.939999999999998
 10
4.5
 20
18.96
 10
4.519999999999996
 20
18.96
 10
4.519999999999996
 20
18.979999999999997
 10
4.540000000000006
 20
18.979999999999997
 10
4.540000000000006
 20
19.0
 10
4.560000000000002
 20
19.0
 10
4.560000000000002
 20
19.019999999999996
 10
4.579999999999998
 20
19.019999999999996
 10
4.599999999999994
 20
19.04
 10
4.6200000000000045
 20
19.059999999999995
 10
4.640000000000001
 20
19.08
 10
4.659999999999997
 20
19.1
 10
4.659999999999997
 20
19.119999999999997
 10
4.680000000000007
 20
19.119999999999997
 10
4.680000000000007
 20
19.14
 10
4.700000000000003
 20
19.14
 10
4.980000000000004
 20
20.54
 10
5.420000000000002
 20
21.92
 10
6.0
 20
23.22
 10
6.719999999999999
 20
24.46
 10
7.659999999999997
 20
24.0
 10
8.620000000000005
 20
23.659999999999997
 10
9.599999999999994
 20
23.42
 10
10.620000000000005
 20
23.259999999999998
 10
11.64
 20
23.22
 10
12.659999999999997
 20
23.28
 10
13.659999999999997
 20
23.46
 10
14.659999999999997
 20
23.740000000000002
 10
15.620000000000005
 20
24.1
 10
16.540000000000006
 20
24.58
 10
17.39999999999999
 20
25.14
 10
18.200000000000003
 20
25.78
 10
18.92
 20
26.479999999999997
 10
19.559999999999988
 20
27.28
 10
20.14
 20
28.14
 10
20.61999999999999
 20
29.04
 10
22.239999999999995
 20
29.379999999999995
 10
23.019999999999996
 20
29.04
 10
23.799999999999997
 20
28.64
 10
24.540000000000006
 20
28.18
 10
25.260000000000005
 20
27.699999999999996
 10
25.279999999999987
 20
27.699999999999996
 10
25.299999999999997
 20
27.699999999999996
 10
25.320000000000007
 20
27.699999999999996
 10
25.33999999999999
 20
27.699999999999996
 10
25.36
 20
27.699999999999996
 10
25.38000000000001
 20
27.699999999999996
 10
25.39999999999999
 20
27.699999999999996
 10
25.42
 20
27.699999999999996
 10
25.440000000000012
 20
27.699999999999996
 10
25.459999999999994
 20
27.699999999999996
 10
25.480000000000004
 20
27.699999999999996
 10
25.500000000000014
 20
27.699999999999996
 10
25.519999999999996
 20
27.699999999999996
 10
25.540000000000006
 20
27.699999999999996
 10
25.559999999999988
 20
27.699999999999996
 10
25.58
 20
27.699999999999996
 10
25.60000000000001
 20
27.699999999999996
 10
25.61999999999999
 20
27.72
 10
25.64
 20
27.72
 10
25.66000000000001
 20
27.72
 10
25.679999999999993
 20
27.72
 10
25.700000000000003
 20
27.72
 10
25.720000000000013
 20
27.72
 10
25.720000000000013
 20
27.740000000000002
 10
25.739999999999995
 20
27.740000000000002
 10
25.760000000000005
 20
27.740000000000002
 10
25.779999999999987
 20
27.740000000000002
 10
25.799999999999997
 20
27.740000000000002
 10
25.799999999999997
 20
27.759999999999998
 10
25.820000000000007
 20
27.759999999999998
 10
25.83999999999999
 20
27.759999999999998
 10
25.86
 20
27.759999999999998
 10
25.86
 20
27.78
 10
25.88000000000001
 20
27.78
 10
25.89999999999999
 20
27.78
 10
25.92
 20
27.799999999999997
 10
25.940000000000012
 20
27.799999999999997
 10
25.959999999999994
 20
27.799999999999997
 10
25.959999999999994
 20
27.82
 10
25.980000000000004
 20
27.82
 10
26.000000000000014
 20
27.82
 10
26.000000000000014
 20
27.839999999999996
 10
26.019999999999996
 20
27.839999999999996
 10
26.040000000000006
 20
27.839999999999996
 10
26.040000000000006
 20
27.86
 10
26.059999999999988
 20
27.86
 10
26.08
 20
27.86
 10
26.08
 20
27.879999999999995
 10
26.10000000000001
 20
27.879999999999995
 10
26.11999999999999
 20
27.9
 10
26.14
 20
27.9
 10
26.14
 20
27.92
 10
26.16000000000001
 20
27.92
 10
26.179999999999993
 20
27.939999999999998
 10
26.200000000000003
 20
27.939999999999998
 10
26.200000000000003
 20
27.96
 10
26.220000000000013
 20
27.96
 10
26.220000000000013
 20
27.979999999999997
 10
26.239999999999995
 20
27.979999999999997
 10
26.260000000000005
 20
27.979999999999997
 10
26.260000000000005
 20
28.0
 10
26.279999999999987
 20
28.0
 10
26.279999999999987
 20
28.019999999999996
 10
26.299999999999997
 20
28.019999999999996
 10
26.299999999999997
 20
28.04
 10
26.320000000000007
 20
28.04
 10
26.33999999999999
 20
28.059999999999995
 10
26.36
 20
28.059999999999995
 10
26.36
 20
28.08
 10
26.38000000000001
 20
28.08
 10
26.38000000000001
 20
28.1
 10
26.39999999999999
 20
28.1
 10
26.39999999999999
 20
28.119999999999997
 10
26.42
 20
28.119999999999997
 10
26.42
 20
28.14
 10
26.440000000000012
 20
28.14
 10
26.440000000000012
 20
28.159999999999997
 10
26.459999999999994
 20
28.159999999999997
 10
26.459999999999994
 20
28.18
 10
26.480000000000004
 20
28.18
 10
26.480000000000004
 20
28.199999999999996
 10
26.500000000000014
 20
28.199999999999996
 10
26.500000000000014
 20
28.22
 10
26.519999999999996
 20
28.22
 10
26.519999999999996
 20
28.240000000000002
 10
26.540000000000006
 20
28.240000000000002
 10
26.559999999999988
 20
28.259999999999998
 10
26.58
 20
28.28
 10
26.60000000000001
 20
28.299999999999997
 10
26.61999999999999
 20
28.299999999999997
 10
26.61999999999999
 20
28.32
 10
26.64
 20
28.32
 10
26.64
 20
28.339999999999996
 10
26.66000000000001
 20
28.339999999999996
 10
26.66000000000001
 20
28.36
 10
26.679999999999993
 20
28.36
 10
26.679999999999993
 20
28.379999999999995
 10
26.700000000000003
 20
28.379999999999995
 10
26.700000000000003
 20
28.4
 10
26.720000000000013
 20
28.4
 10
26.720000000000013
 20
28.42
 10
26.739999999999995
 20
28.42
 10
26.739999999999995
 20
28.439999999999998
 10
26.760000000000005
 20
28.439999999999998
 10
26.779999999999987
 20
28.46
 10
26.799999999999997
 20
28.46
 10
26.799999999999997
 20
28.479999999999997
 10
26.820000000000007
 20
28.479999999999997
 10
26.820000000000007
 20
28.5
 10
26.83999999999999
 20
28.5
 10
26.83999999999999
 20
28.519999999999996
 10
26.86
 20
28.519999999999996
 10
26.86
 20
28.54
 10
26.88000000000001
 20
28.54
 10
26.88000000000001
 20
28.559999999999995
 10
26.89999999999999
 20
28.559999999999995
 10
26.92
 20
28.58
 10
26.940000000000012
 20
28.58
 10
26.940000000000012
 20
28.6
 10
26.959999999999994
 20
28.6
 10
26.959999999999994
 20
28.619999999999997
 10
26.980000000000004
 20
28.619999999999997
 10
27.000000000000014
 20
28.64
 10
27.019999999999996
 20
28.64
 10
27.019999999999996
 20
28.659999999999997
 10
27.040000000000006
 20
28.659999999999997
 10
27.040000000000006
 20
28.68
 10
27.059999999999988
 20
28.68
 10
27.08
 20
28.699999999999996
 10
27.10000000000001
 20
28.699999999999996
 10
27.10000000000001
 20
28.72
 10
27.11999999999999
 20
28.72
 10
27.14
 20
28.740000000000002
 10
27.16000000000001
 20
28.759999999999998
 10
27.179999999999993
 20
28.759999999999998
 10
27.200000000000003
 20
28.78
 10
27.220000000000013
 20
28.799999999999997
 10
27.239999999999995
 20
28.799999999999997
 10
27.260000000000005
 20
28.82
 10
27.279999999999987
 20
28.839999999999996
 10
27.299999999999997
 20
28.839999999999996
 10
27.320000000000007
 20
28.86
 10
27.33999999999999
 20
28.86
 10
27.33999999999999
 20
28.879999999999995
 10
27.36
 20
28.879999999999995
 10
27.38000000000001
 20
28.9
 10
27.39999999999999
 20
28.9
 10
27.42
 20
28.9
 10
27.42
 20
28.92
 10
27.440000000000012
 20
28.92
 10
27.459999999999994
 20
28.939999999999998
 10
27.480000000000004
 20
28.939999999999998
 10
27.500000000000014
 20
28.96
 10
27.519999999999996
 20
28.979999999999997
 10
27.540000000000006
 20
28.979999999999997
 10
27.559999999999988
 20
28.979999999999997
 10
27.58
 20
29.0
 10
27.60000000000001
 20
29.019999999999996
 10
27.61999999999999
 20
29.019999999999996
 10
27.64
 20
29.04
 10
27.66000000000001
 20
29.04
 10
27.679999999999993
 20
29.04
 10
27.679999999999993
 20
29.059999999999995
 10
27.700000000000003
 20
29.059999999999995
 10
27.720000000000013
 20
29.08
 10
27.739999999999995
 20
29.08
 10
27.760000000000005
 20
29.08
 10
27.779999999999987
 20
29.1
 10
27.799999999999997
 20
29.1
 10
27.820000000000007
 20
29.119999999999997
 10
27.83999999999999
 20
29.119999999999997
 10
27.86
 20
29.14
 10
27.88000000000001
 20
29.14
 10
27.89999999999999
 20
29.159999999999997
 10
27.92
 20
29.159999999999997
 10
27.940000000000012
 20
29.159999999999997
 10
27.959999999999994
 20
29.18
 10
27.980000000000004
 20
29.18
 10
28.000000000000014
 20
29.199999999999996
 10
28.019999999999996
 20
29.199999999999996
 10
28.040000000000006
 20
29.199999999999996
 10
28.059999999999988
 20
29.22
 10
28.08
 20
29.22
 10
28.10000000000001
 20
29.240000000000002
 10
28.11999999999999
 20
29.240000000000002
 10
28.14
 20
29.259999999999998
 10
28.16000000000001
 20
29.259999999999998
 10
28.179999999999993
 20
29.259999999999998
 10
28.200000000000003
 20
29.28
 10
28.220000000000013
 20
29.28
 10
28.239999999999995
 20
29.28
 10
28.260000000000005
 20
29.299999999999997
 10
28.279999999999987
 20
29.299999999999997
 10
28.299999999999997
 20
29.32
 10
28.320000000000007
 20
29.32
 10
28.33999999999999
 20
29.32
 10
28.36
 20
29.339999999999996
 10
28.38000000000001
 20
29.339999999999996
 10
28.39999999999999
 20
29.339999999999996
 10
28.42
 20
29.36
 10
28.440000000000012
 20
29.36
 10
28.459999999999994
 20
29.36
 10
28.480000000000004
 20
29.379999999999995
 10
28.500000000000014
 20
29.379999999999995
 10
28.519999999999996
 20
29.379999999999995
 10
28.540000000000006
 20
29.4
 10
28.559999999999988
 20
29.4
 10
28.58
 20
29.4
 10
28.60000000000001
 20
29.42
 10
28.61999999999999
 20
29.42
 10
28.64
 20
29.42
 10
28.66000000000001
 20
29.439999999999998
 10
28.679999999999993
 20
29.439999999999998
 10
28.700000000000003
 20
29.439999999999998
 10
28.720000000000013
 20
29.46
 10
28.739999999999995
 20
29.46
 10
28.760000000000005
 20
29.46
 10
28.779999999999987
 20
29.46
 10
28.799999999999997
 20
29.479999999999997
 10
28.820000000000007
 20
29.479999999999997
 10
28.83999999999999
 20
29.479999999999997
 10
28.86
 20
29.5
 10
28.88000000000001
 20
29.5
 10
28.89999999999999
 20
29.5
 10
28.92
 20
29.5
 10
28.92
 20
29.519999999999996
 10
28.940000000000012
 20
29.519999999999996
 10
28.959999999999994
 20
29.519999999999996
 10
28.980000000000004
 20
29.519999999999996
 10
29.000000000000014
 20
29.54
 10
29.019999999999996
 20
29.54
 10
29.040000000000006
 20
29.54
 10
29.059999999999988
 20
29.54
 10
29.059999999999988
 20
29.559999999999995
 10
29.08
 20
29.559999999999995
 10
29.10000000000001
 20
29.559999999999995
 10
29.11999999999999
 20
29.559999999999995
 10
29.14
 20
29.559999999999995
 10
29.16000000000001
 20
29.58
 10
29.179999999999993
 20
29.58
 10
29.200000000000003
 20
29.58
 10
29.220000000000013
 20
29.58
 10
29.220000000000013
 20
29.6
 10
29.239999999999995
 20
29.6
 10
29.260000000000005
 20
29.6
 10
29.279999999999987
 20
29.6
 10
29.299999999999997
 20
29.619999999999997
 10
29.320000000000007
 20
29.619999999999997
 10
29.33999999999999
 20
29.619999999999997
 10
29.36
 20
29.619999999999997
 10
29.38000000000001
 20
29.64
 10
29.39999999999999
 20
29.64
 10
29.42
 20
29.64
 10
29.440000000000012
 20
29.64
 10
29.459999999999994
 20
29.659999999999997
 10
29.480000000000004
 20
29.659999999999997
 10
29.500000000000014
 20
29.659999999999997
 10
29.519999999999996
 20
29.659999999999997
 10
29.540000000000006
 20
29.659999999999997
 10
29.559999999999988
 20
29.68
 10
29.58
 20
29.68
 10
29.60000000000001
 20
29.68
 10
29.61999999999999
 20
29.68
 10
29.64
 20
29.699999999999996
 10
29.66000000000001
 20
29.699999999999996
 10
29.679999999999993
 20
29.699999999999996
 10
29.700000000000003
 20
29.699999999999996
 10
29.720000000000013
 20
29.699999999999996
 10
29.720000000000013
 20
29.72
 10
29.739999999999995
 20
29.72
 10
29.760000000000005
 20
29.72
 10
29.779999999999987
 20
29.72
 10
29.799999999999997
 20
29.72
 10
29.820000000000007
 20
29.740000000000002
 10
29.83999999999999
 20
29.740000000000002
 10
29.86
 20
29.740000000000002
 10
30.779999999999987
 20
28.68
 10
31.700000000000003
 20
27.6
 10
31.679999999999993
 20
27.6
 10
31.679999999999993
 20
27.58
 10
31.679999999999993
 20
27.559999999999995
 10
31.679999999999993
 20
27.54
 10
31.66000000000001
 20
27.54
 10
31.66000000000001
 20
27.519999999999996
 10
31.66000000000001
 20
27.5
 10
31.64
 20
27.479999999999997
 10
31.64
 20
27.46
 10
31.64
 20
27.439999999999998
 10
31.61999999999999
 20
27.439999999999998
 10
31.61999999999999
 20
27.42
 10
31.61999999999999
 20
27.4
 10
31.60000000000001
 20
27.379999999999995
 10
31.60000000000001
 20
27.36
 10
31.60000000000001
 20
27.339999999999996
 10
31.58
 20
27.339999999999996
 10
31.58
 20
27.32
 10
31.58
 20
27.299999999999997
 10
31.559999999999988
 20
27.28
 10
31.559999999999988
 20
27.259999999999998
 10
31.559999999999988
 20
27.240000000000002
 10
31.540000000000006
 20
27.240000000000002
 10
31.540000000000006
 20
27.22
 10
31.540000000000006
 20
27.199999999999996
 10
31.519999999999996
 20
27.18
 10
31.519999999999996
 20
27.159999999999997
 10
31.519999999999996
 20
27.14
 10
31.500000000000014
 20
27.14
 10
31.500000000000014
 20
27.119999999999997
 10
31.500000000000014
 20
27.1
 10
31.480000000000004
 20
27.08
 10
31.480000000000004
 20
27.059999999999995
 10
31.459999999999994
 20
27.04
 10
31.459999999999994
 20
27.019999999999996
 10
31.440000000000012
 20
27.0
 10
31.440000000000012
 20
26.979999999999997
 10
31.440000000000012
 20
26.96
 10
31.42
 20
26.96
 10
31.42
 20
26.939999999999998
 10
31.42
 20
26.92
 10
31.39999999999999
 20
26.9
 10
31.39999999999999
 20
26.879999999999995
 10
31.39999999999999
 20
26.86
 10
31.38000000000001
 20
26.839999999999996
 10
31.36
 20
26.82
 10
31.36
 20
26.799999999999997
 10
31.36
 20
26.78
 10
31.33999999999999
 20
26.759999999999998
 10
31.33999999999999
 20
26.740000000000002
 10
31.320000000000007
 20
26.72
 10
31.320000000000007
 20
26.699999999999996
 10
31.299999999999997
 20
26.68
 10
31.299999999999997
 20
26.659999999999997
 10
31.279999999999987
 20
26.64
 10
31.279999999999987
 20
26.619999999999997
 10
31.279999999999987
 20
26.6
 10
31.260000000000005
 20
26.58
 10
31.239999999999995
 20
26.559999999999995
 10
31.239999999999995
 20
26.54
 10
31.239999999999995
 20
26.519999999999996
 10
31.220000000000013
 20
26.5
 10
31.220000000000013
 20
26.479999999999997
 10
31.200000000000003
 20
26.46
 10
31.200000000000003
 20
26.439999999999998
 10
31.179999999999993
 20
26.42
 10
31.179999999999993
 20
26.4
 10
31.16000000000001
 20
26.379999999999995
 10
31.16000000000001
 20
26.36
 10
31.14
 20
26.339999999999996
 10
31.14
 20
26.32
 10
31.11999999999999
 20
26.32
 10
31.11999999999999
 20
26.299999999999997
 10
31.10000000000001
 20
26.28
 10
31.10000000000001
 20
26.259999999999998
 10
31.08
 20
26.240000000000002
 10
31.08
 20
26.22
 10
31.059999999999988
 20
26.199999999999996
 10
31.059999999999988
 20
26.18
 10
31.059999999999988
 20
26.159999999999997
 10
31.040000000000006
 20
26.14
 10
31.019999999999996
 20
26.119999999999997
 10
31.019999999999996
 20
26.1
 10
31.000000000000014
 20
26.08
 10
31.000000000000014
 20
26.059999999999995
 10
30.980000000000004
 20
26.04
 10
30.980000000000004
 20
26.019999999999996
 10
30.959999999999994
 20
26.019999999999996
 10
30.959999999999994
 20
26.0
 10
30.940000000000012
 20
25.979999999999997
 10
30.940000000000012
 20
25.96
 10
30.92
 20
25.939999999999998
 10
30.89999999999999
 20
25.92
 10
30.89999999999999
 20
25.9
 10
30.88000000000001
 20
25.879999999999995
 10
30.88000000000001
 20
25.86
 10
30.86
 20
25.839999999999996
 10
30.86
 20
25.82
 10
30.83999999999999
 20
25.799999999999997
 10
30.820000000000007
 20
25.78
 10
30.820000000000007
 20
25.759999999999998
 10
30.799999999999997
 20
25.740000000000002
 10
30.799999999999997
 20
25.72
 10
30.779999999999987
 20
25.699999999999996
 10
30.760000000000005
 20
25.68
 10
30.739999999999995
 20
25.659999999999997
 10
30.739999999999995
 20
25.64
 10
30.720000000000013
 20
25.619999999999997
 10
30.720000000000013
 20
25.6
 10
30.700000000000003
 20
25.6
 10
30.700000000000003
 20
25.58
 10
30.679999999999993
 20
25.559999999999995
 10
30.679999999999993
 20
25.54
 10
30.66000000000001
 20
25.519999999999996
 10
30.64
 20
25.519999999999996
 10
30.64
 20
25.5
 10
30.61999999999999
 20
25.479999999999997
 10
30.61999999999999
 20
25.46
 10
30.60000000000001
 20
25.46
 10
30.60000000000001
 20
25.439999999999998
 10
30.58
 20
25.42
 10
30.559999999999988
 20
25.4
 10
30.559999999999988
 20
25.379999999999995
 10
30.540000000000006
 20
25.36
 10
30.519999999999996
 20
25.339999999999996
 10
30.500000000000014
 20
25.32
 10
30.500000000000014
 20
25.299999999999997
 10
30.480000000000004
 20
25.299999999999997
 10
30.480000000000004
 20
25.28
 10
30.459999999999994
 20
25.28
 10
30.459999999999994
 20
25.259999999999998
 10
30.440000000000012
 20
25.240000000000002
 10
30.42
 20
25.22
 10
30.39999999999999
 20
25.199999999999996
 10
30.38000000000001
 20
25.18
 10
30.38000000000001
 20
25.159999999999997
 10
30.36
 20
25.159999999999997
 10
30.36
 20
25.14
 10
30.33999999999999
 20
25.119999999999997
 10
30.320000000000007
 20
25.1
 10
30.299999999999997
 20
25.08
 10
30.279999999999987
 20
25.059999999999995
 10
30.260000000000005
 20
25.04
 10
30.239999999999995
 20
25.019999999999996
 10
30.220000000000013
 20
25.0
 10
30.220000000000013
 20
24.979999999999997
 10
30.200000000000003
 20
24.979999999999997
 10
30.179999999999993
 20
24.96
 10
30.16000000000001
 20
24.939999999999998
 10
30.14
 20
24.92
 10
30.11999999999999
 20
24.9
 10
30.10000000000001
 20
24.879999999999995
 10
30.08
 20
24.879999999999995
 10
30.08
 20
24.86
 10
30.059999999999988
 20
24.839999999999996
 10
30.040000000000006
 20
24.839999999999996
 10
30.040000000000006
 20
24.82
 10
30.019999999999996
 20
24.82
 10
30.019999999999996
 20
24.799999999999997
 10
30.000000000000014
 20
24.799999999999997
 10
30.000000000000014
 20
24.78
 10
29.980000000000004
 20
24.78
 10
29.980000000000004
 20
24.759999999999998
 10
29.959999999999994
 20
24.759999999999998
 10
29.940000000000012
 20
24.740000000000002
 10
29.92
 20
24.72
 10
29.89999999999999
 20
24.72
 10
29.89999999999999
 20
24.699999999999996
 10
29.88000000000001
 20
24.699999999999996
 10
29.88000000000001
 20
24.68
 10
29.86
 20
24.68
 10
29.83999999999999
 20
24.659999999999997
 10
29.820000000000007
 20
24.64
 10
29.799999999999997
 20
24.64
 10
29.799999999999997
 20
24.619999999999997
 10
29.779999999999987
 20
24.619999999999997
 10
29.779999999999987
 20
24.6
 10
29.760000000000005
 20
24.6
 10
29.739999999999995
 20
24.58
 10
29.720000000000013
 20
24.58
 10
29.720000000000013
 20
24.559999999999995
 10
29.700000000000003
 20
24.559999999999995
 10
29.700000000000003
 20
24.54
 10
29.679999999999993
 20
24.54
 10
29.679999999999993
 20
24.519999999999996
 10
29.66000000000001
 20
24.519999999999996
 10
29.64
 20
24.519999999999996
 10
29.64
 20
24.5
 10
29.61999999999999
 20
24.5
 10
29.61999999999999
 20
24.479999999999997
 10
29.60000000000001
 20
24.479999999999997
 10
29.60000000000001
 20
24.46
 10
29.58
 20
24.46
 10
29.58
 20
24.439999999999998
 10
29.559999999999988
 20
24.439999999999998
 10
29.540000000000006
 20
24.42
 10
29.519999999999996
 20
24.4
 10
29.500000000000014
 20
24.4
 10
29.500000000000014
 20
24.379999999999995
 10
29.480000000000004
 20
24.379999999999995
 10
29.480000000000004
 20
24.36
 10
29.459999999999994
 20
24.36
 10
29.459999999999994
 20
24.339999999999996
 10
29.440000000000012
 20
24.339999999999996
 10
29.440000000000012
 20
24.32
 10
29.42
 20
24.32
 10
29.42
 20
24.299999999999997
 10
29.39999999999999
 20
24.299999999999997
 10
29.38000000000001
 20
24.28
 10
29.38000000000001
 20
24.259999999999998
 10
29.36
 20
24.259999999999998
 10
29.33999999999999
 20
24.240000000000002
 10
29.33999999999999
 20
24.22
 10
29.320000000000007
 20
24.22
 10
29.320000000000007
 20
24.199999999999996
 10
29.299999999999997
 20
24.199999999999996
 10
29.299999999999997
 20
24.18
 10
29.279999999999987
 20
24.18
 10
29.279999999999987
 20
24.159999999999997
 10
29.260000000000005
 20
24.159999999999997
 10
29.260000000000005
 20
24.14
 10
29.239999999999995
 20
24.119999999999997
 10
29.239999999999995
 20
24.1
 10
29.220000000000013
 20
24.1
 10
29.220000000000013
 20
24.08
 10
29.200000000000003
 20
24.08
 10
29.200000000000003
 20
24.059999999999995
 10
29.200000000000003
 20
24.04
 10
29.179999999999993
 20
24.04
 10
29.179999999999993
 20
24.019999999999996
 10
29.16000000000001
 20
24.019999999999996
 10
29.16000000000001
 20
24.0
 10
29.16000000000001
 20
23.979999999999997
 10
29.14
 20
23.979999999999997
 10
29.14
 20
23.96
 10
29.14
 20
23.939999999999998
 10
29.11999999999999
 20
23.939999999999998
 10
29.11999999999999
 20
23.92
 10
29.11999999999999
 20
23.9
 10
29.10000000000001
 20
23.9
 10
29.10000000000001
 20
23.879999999999995
 10
29.10000000000001
 20
23.86
 10
29.08
 20
23.86
 10
29.08
 20
23.839999999999996
 10
29.08
 20
23.82
 10
29.059999999999988
 20
23.82
 10
29.059999999999988
 20
23.799999999999997
 10
29.059999999999988
 20
23.78
 10
29.059999999999988
 20
23.759999999999998
 10
29.040000000000006
 20
23.759999999999998
 10
29.040000000000006
 20
23.740000000000002
 10
29.040000000000006
 20
23.72
 10
29.040000000000006
 20
23.699999999999996
 10
29.019999999999996
 20
23.699999999999996
 10
29.019999999999996
 20
23.68
 10
29.019999999999996
 20
23.659999999999997
 10
29.019999999999996
 20
23.64
 10
29.000000000000014
 20
23.619999999999997
 10
29.000000000000014
 20
23.6
 10
29.000000000000014
 20
23.58
 10
29.000000000000014
 20
23.559999999999995
 10
29.000000000000014
 20
23.54
 10
28.980000000000004
 20
23.54
 10
28.980000000000004
 20
23.519999999999996
 10
28.980000000000004
 20
23.5
 10
28.980000000000004
 20
23.479999999999997
 10
28.980000000000004
 20
23.46
 10
28.980000000000004
 20
23.439999999999998
 10
28.980000000000004
 20
23.42
 10
28.959999999999994
 20
23.42
 10
28.959999999999994
 20
23.4
 10
28.959999999999994
 20
23.379999999999995
 10
28.959999999999994
 20
23.36
 10
29.239999999999995
 20
22.839999999999996
 10
29.480000000000004
 20
22.28
 10
29.700000000000003
 20
21.72
 10
29.88000000000001
 20
21.159999999999997
 10
29.89999999999999
 20
21.159999999999997
 10
29.89999999999999
 20
21.14
 10
29.92
 20
21.14
 10
29.92
 20
21.119999999999997
 10
29.940000000000012
 20
21.119999999999997
 10
29.940000000000012
 20
21.1
 10
29.959999999999994
 20
21.1
 10
29.980000000000004
 20
21.1
 10
29.980000000000004
 20
21.08
 10
30.000000000000014
 20
21.08
 10
30.000000000000014
 20
21.059999999999995
 10
30.019999999999996
 20
21.059999999999995
 10
30.040000000000006
 20
21.059999999999995
 10
30.040000000000006
 20
21.04
 10
30.059999999999988
 20
21.04
 10
30.059999999999988
 20
21.019999999999996
 10
30.08
 20
21.019999999999996
 10
30.10000000000001
 20
21.019999999999996
 10
30.10000000000001
 20
21.0
 10
30.11999999999999
 20
21.0
 10
30.14
 20
21.0
 10
30.14
 20
20.979999999999997
 10
30.16000000000001
 20
20.979999999999997
 10
30.179999999999993
 20
20.979999999999997
 10
30.179999999999993
 20
20.96
 10
30.200000000000003
 20
20.96
 10
30.220000000000013
 20
20.939999999999998
 10
30.239999999999995
 20
20.939999999999998
 10
30.260000000000005
 20
20.92
 10
30.279999999999987
 20
20.92
 10
30.299999999999997
 20
20.92
 10
30.299999999999997
 20
20.9
 10
30.320000000000007
 20
20.9
 10
30.33999999999999
 20
20.9
 10
30.36
 20
20.9
 10
30.36
 20
20.879999999999995
 10
30.38000000000001
 20
20.879999999999995
 10
30.39999999999999
 20
20.879999999999995
 10
30.42
 20
20.879999999999995
 10
30.42
 20
20.86
 10
30.440000000000012
 20
20.86
 10
30.459999999999994
 20
20.86
 10
30.480000000000004
 20
20.86
 10
30.500000000000014
 20
20.839999999999996
 10
30.519999999999996
 20
20.839999999999996
 10
30.540000000000006
 20
20.839999999999996
 10
30.559999999999988
 20
20.839999999999996
 10
30.58
 20
20.839999999999996
 10
30.60000000000001
 20
20.839999999999996
 10
30.60000000000001
 20
20.82
 10
30.61999999999999
 20
20.82
 10
30.64
 20
20.82
 10
30.66000000000001
 20
20.82
 10
30.679999999999993
 20
20.82
 10
30.700000000000003
 20
20.82
 10
30.720000000000013
 20
20.82
 10
30.739999999999995
 20
20.82
 10
30.760000000000005
 20
20.82
 10
30.779999999999987
 20
20.82
 10
30.799999999999997
 20
20.82
 10
30.820000000000007
 20
20.82
 10
30.83999999999999
 20
20.82
 10
30.86
 20
20.82
 10
30.88000000000001
 20
20.82
 10
30.89999999999999
 20
20.82
 10
30.92
 20
20.82
 10
30.940000000000012
 20
20.82
 10
30.959999999999994
 20
20.82
 10
30.980000000000004
 20
20.82
 10
31.000000000000014
 20
20.82
 10
31.019999999999996
 20
20.82
 10
31.040000000000006
 20
20.82
 10
31.059999999999988
 20
20.82
 10
31.08
 20
20.839999999999996
 10
31.10000000000001
 20
20.839999999999996
 10
31.11999999999999
 20
20.839999999999996
 10
31.14
 20
20.839999999999996
 10
31.16000000000001
 20
20.839999999999996
 10
31.179999999999993
 20
20.839999999999996
 10
31.200000000000003
 20
20.839999999999996
 10
31.220000000000013
 20
20.839999999999996
 10
31.239999999999995
 20
20.839999999999996
 10
31.239999999999995
 20
20.86
 10
31.260000000000005
 20
20.86
 10
31.279999999999987
 20
20.86
 10
31.299999999999997
 20
20.86
 10
31.320000000000007
 20
20.86
 10
31.33999999999999
 20
20.86
 10
31.36
 20
20.86
 10
31.38000000000001
 20
20.86
 10
31.39999999999999
 20
20.86
 10
31.39999999999999
 20
20.879999999999995
 10
31.42
 20
20.879999999999995
 10
31.440000000000012
 20
20.879999999999995
 10
31.459999999999994
 20
20.879999999999995
 10
31.480000000000004
 20
20.879999999999995
 10
31.500000000000014
 20
20.879999999999995
 10
31.519999999999996
 20
20.879999999999995
 10
31.540000000000006
 20
20.879999999999995
 10
31.559999999999988
 20
20.879999999999995
 10
31.58
 20
20.879999999999995
 10
31.60000000000001
 20
20.879999999999995
 10
31.60000000000001
 20
20.9
 10
31.61999999999999
 20
20.9
 10
31.64
 20
20.9
 10
31.66000000000001
 20
20.9
 10
31.679999999999993
 20
20.9
 10
31.700000000000003
 20
20.9
 10
31.720000000000013
 20
20.9
 10
31.739999999999995
 20
20.9
 10
31.760000000000005
 20
20.9
 10
31.779999999999987
 20
20.9
 10
31.799999999999997
 20
20.9
 10
31.820000000000007
 20
20.9
 10
31.83999999999999
 20
20.9
 10
31.86
 20
20.9
 10
31.88000000000001
 20
20.9
 10
31.89999999999999
 20
20.9
 10
31.92
 20
20.9
 10
31.940000000000012
 20
20.9
 10
31.959999999999994
 20
20.9
 10
31.980000000000004
 20
20.9
 10
32.000000000000014
 20
20.9
 10
32.019999999999996
 20
20.9
 10
32.040000000000006
 20
20.9
 10
32.05999999999999
 20
20.9
 10
32.08
 20
20.9
 10
32.10000000000001
 20
20.9
 10
32.11999999999999
 20
20.9
 10
32.14
 20
20.9
 10
32.16000000000001
 20
20.9
 10
32.17999999999999
 20
20.9
 10
32.2
 20
20.9
 10
32.22000000000001
 20
20.9
 10
32.239999999999995
 20
20.879999999999995
 10
32.260000000000005
 20
20.879999999999995
 10
32.27999999999999
 20
20.879999999999995
 10
32.3
 20
20.879999999999995
 10
32.32000000000001
 20
20.879999999999995
 10
32.33999999999999
 20
20.879999999999995
 10
32.36
 20
20.879999999999995
 10
32.38000000000001
 20
20.879999999999995
 10
32.39999999999999
 20
20.879999999999995
 10
32.42
 20
20.879999999999995
 10
32.44000000000001
 20
20.86
 10
32.459999999999994
 20
20.86
 10
32.480000000000004
 20
20.86
 10
32.500000000000014
 20
20.86
 10
32.519999999999996
 20
20.86
 10
32.540000000000006
 20
20.86
 10
32.55999999999999
 20
20.839999999999996
 10
32.58
 20
20.839999999999996
 10
32.60000000000001
 20
20.839999999999996
 10
32.61999999999999
 20
20.839999999999996
 10
32.64
 20
20.839999999999996
 10
32.66000000000001
 20
20.839999999999996
 10
32.67999999999999
 20
20.82
 10
32.7
 20
20.82
 10
32.72000000000001
 20
20.82
 10
32.739999999999995
 20
20.82
 10
32.760000000000005
 20
20.82
 10
32.77999999999999
 20
20.799999999999997
 10
32.8
 20
20.799999999999997
 10
32.82000000000001
 20
20.799999999999997
 10
32.83999999999999
 20
20.799999999999997
 10
32.86
 20
20.799999999999997
 10
32.88000000000001
 20
20.78
 10
32.89999999999999
 20
20.78
 10
32.92
 20
20.78
 10
32.94000000000001
 20
20.78
 10
32.959999999999994
 20
20.759999999999998
 10
32.980000000000004
 20
20.759999999999998
 10
33.000000000000014
 20
20.759999999999998
 10
33.019999999999996
 20
20.759999999999998
 10
33.040000000000006
 20
20.740000000000002
 10
33.05999999999999
 20
20.740000000000002
 10
33.08
 20
20.740000000000002
 10
33.10000000000001
 20
20.740000000000002
 10
33.11999999999999
 20
20.740000000000002
 10
33.14
 20
20.72
 10
33.16000000000001
 20
20.72
 10
33.17999999999999
 20
20.72
 10
33.2
 20
20.699999999999996
 10
33.22000000000001
 20
20.699999999999996
 10
33.239999999999995
 20
20.699999999999996
 10
33.260000000000005
 20
20.68
 10
33.27999999999999
 20
20.68
 10
33.3
 20
20.68
 10
33.32000000000001
 20
20.68
 10
33.33999999999999
 20
20.659999999999997
 10
33.36
 20
20.659999999999997
 10
33.38000000000001
 20
20.659999999999997
 10
33.39999999999999
 20
20.659999999999997
 10
33.42
 20
20.64
 10
33.44000000000001
 20
20.64
 10
33.459999999999994
 20
20.64
 10
33.480000000000004
 20
20.619999999999997
 10
33.500000000000014
 20
20.619999999999997
 10
33.519999999999996
 20
20.619999999999997
 10
33.540000000000006
 20
20.6
 10
33.55999999999999
 20
20.6
 10
33.58
 20
20.6
 10
33.60000000000001
 20
20.58
 10
33.61999999999999
 20
20.58
 10
33.64
 20
20.58
 10
33.66000000000001
 20
20.559999999999995
 10
33.67999999999999
 20
20.559999999999995
 10
33.7
 20
20.559999999999995
 10
33.72000000000001
 20
20.54
 10
33.739999999999995
 20
20.54
 10
33.760000000000005
 20
20.54
 10
33.760000000000005
 20
20.519999999999996
 10
33.77999999999999
 20
20.519999999999996
 10
33.8
 20
20.519999999999996
 10
33.82000000000001
 20
20.519999999999996
 10
33.83999999999999
 20
20.5
 10
33.86
 20
20.5
 10
33.88000000000001
 20
20.479999999999997
 10
33.89999999999999
 20
20.479999999999997
 10
33.92
 20
20.479999999999997
 10
33.94000000000001
 20
20.46
 10
33.959999999999994
 20
20.46
 10
33.980000000000004
 20
20.439999999999998
 10
34.000000000000014
 20
20.439999999999998
 10
34.019999999999996
 20
20.439999999999998
 10
34.040000000000006
 20
20.439999999999998
 10
34.05999999999999
 20
20.42
 10
34.08
 20
20.42
 10
34.10000000000001
 20
20.4
 10
34.11999999999999
 20
20.4
 10
34.14
 20
20.4
 10
34.16000000000001
 20
20.379999999999995
 10
34.17999999999999
 20
20.379999999999995
 10
34.2
 20
20.36
 10
34.22000000000001
 20
20.36
 10
34.239999999999995
 20
20.36
 10
34.260000000000005
 20
20.339999999999996
 10
34.27999999999999
 20
20.339999999999996
 10
34.3
 20
20.339999999999996
 10
34.3
 20
20.32
 10
34.32000000000001
 20
20.32
 10
34.33999999999999
 20
20.32
 10
34.36
 20
20.299999999999997
 10
34.38000000000001
 20
20.299999999999997
 10
34.39999999999999
 20
20.299999999999997
 10
34.39999999999999
 20
20.28
 10
34.42
 20
20.28
 10
34.44000000000001
 20
20.28
 10
34.44000000000001
 20
20.259999999999998
 10
34.459999999999994
 20
20.259999999999998
 10
34.480000000000004
 20
20.259999999999998
 10
34.500000000000014
 20
20.240000000000002
 10
34.519999999999996
 20
20.240000000000002
 10
34.540000000000006
 20
20.240000000000002
 10
34.540000000000006
 20
20.22
 10
34.55999999999999
 20
20.22
 10
34.58
 20
20.22
 10
34.58
 20
20.199999999999996
 10
34.60000000000001
 20
20.199999999999996
 10
34.61999999999999
 20
20.199999999999996
 10
34.64
 20
20.199999999999996
 10
34.64
 20
20.18
 10
34.66000000000001
 20
20.18
 10
34.67999999999999
 20
20.18
 10
34.67999999999999
 20
20.159999999999997
 10
34.7
 20
20.159999999999997
 10
34.72000000000001
 20
20.159999999999997
 10
34.739999999999995
 20
20.14
 10
34.760000000000005
 20
20.14
 10
34.77999999999999
 20
20.119999999999997
 10
34.8
 20
20.119999999999997
 10
34.82000000000001
 20
20.119999999999997
  0
CIRCLE
  5
31
330
17
100
AcDbEntity
  8
CORTE
100
AcDbCircle
 10
8.833661369863016
 20
19.606338630136985
 30
0.0
 40
1.5299052025715802
  0
CIRCLE
  5
32
330
17
100
AcDbEntity
  8
CORTE
100
AcDbCircle
 10
23.957909131932063
 20
18.34
 30
0.0
 40
3.0000000000000075
  0
CIRCLE
  5
33
330
17
100
AcDbEntity
  8
CORTE
100
AcDbCircle
 10
17.51220291251343
 20
17.310010004817133
 30
0.0
 40
1.3157908495400996
  0
CIRCLE
  5
34
330
17
100
AcDbEntity
  8
CORTE
100
AcDbCircle
 10
16.020000000000007
 20
10.977789524175892
 30
0.0
 40
2.999870799710494
  0
ENDSEC
  0
SECTION
  2
OBJECTS
  0
DICTIONARY
  5
A
330
0
100
AcDbDictionary
281
1
  3
ACAD_COLOR
350
B
  3
ACAD_GROUP
350
C
  3
ACAD_LAYOUT
350
D
  3
ACAD_MATERIAL
350
E
  3
ACAD_MLEADERSTYLE
350
F
  3
ACAD_MLINESTYLE
350
10
  3
ACAD_PLOTSETTINGS
350
11
  3
ACAD_PLOTSTYLENAME
350
12
  3
ACAD_SCALELIST
350
14
  3
ACAD_TABLESTYLE
350
15
  3
ACAD_VISUALSTYLE
350
16
  3
EZDXF_META
350
2D
  0
DICTIONARY
  5
B
330
A
100
AcDbDictionary
281
1
  0
DICTIONARY
  5
C
330
A
100
AcDbDictionary
281
1
  0
DICTIONARY
  5
D
330
A
100
AcDbDictionary
281
1
  3
Model
350
1A
  3
Layout1
350
1E
  0
DICTIONARY
  5
E
330
A
100
AcDbDictionary
281
1
  3
ByBlock
350
1F
  3
ByLayer
350
20
  3
Global
350
21
  0
DICTIONARY
  5
F
330
A
100
AcDbDictionary
281
1
  3
Standard
350
2C
  0
DICTIONARY
  5
10
330
A
100
AcDbDictionary
281
1
  3
Standard
350
22
  0
DICTIONARY
  5
11
330
A
100
AcDbDictionary
281
1
  0
ACDBDICTIONARYWDFLT
  5
12
330
A
100
AcDbDictionary
281
1
  3
Normal
350
13
100
AcDbDictionaryWithDefault
340
13
  0
ACDBPLACEHOLDER
  5
13
330
12
  0
DICTIONARY
  5
14
330
A
100
AcDbDictionary
281
1
  0
DICTIONARY
  5
15
330
A
100
AcDbDictionary
281
1
  0
DICTIONARY
  5
16
330
A
100
AcDbDictionary
281
1
  0
LAYOUT
  5
1A
330
D
100
AcDbPlotSettings
  1

  4
A3
  6

 40
7.5
 41
20.0
 42
7.5
 43
20.0
 44
420.0
 45
297.0
 46
0.0
 47
0.0
 48
0.0
 49
0.0
140
0.0
141
0.0
142
1.0
143
1.0
 70
1024
 72
1
 73
0
 74
5
  7

 75
16
 76
0
 77
2
 78
300
147
1.0
148
0.0
149
0.0
100
AcDbLayout
  1
Model
 70
1
 71
0
 10
0.0
 20
0.0
 11
420.0
 21
297.0
 12
0.0
 22
0.0
 32
0.0
 14
1e+20
 24
1e+20
 34
1e+20
 15
-1e+20
 25
-1e+20
 35
-1e+20
146
0.0
 13
0.0
 23
0.0
 33
0.0
 16
1.0
 26
0.0
 36
0.0
 17
0.0
 27
1.0
 37
0.0
 76
1
330
17
  0
LAYOUT
  5
1E
330
D
100
AcDbPlotSettings
  1

  4
A3
  6

 40
7.5
 41
20.0
 42
7.5
 43
20.0
 44
420.0
 45
297.0
 46
0.0
 47
0.0
 48
0.0
 49
0.0
140
0.0
141
0.0
142
1.0
143
1.0
 70
0
 72
1
 73
0
 74
5
  7

 75
16
 76
0
 77
2
 78
300
147
1.0
148
0.0
149
0.0
100
AcDbLayout
  1
Layout1
 70
1
 71
1
 10
0.0
 20
0.0
 11
420.0
 21
297.0
 12
0.0
 22
0.0
 32
0.0
 14
1e+20
 24
1e+20
 34
1e+20
 15
-1e+20
 25
-1e+20
 35
-1e+20
146
0.0
 13
0.0
 23
0.0
 33
0.0
 16
1.0
 26
0.0
 36
0.0
 17
0.0
 27
1.0
 37
0.0
 76
1
330
1B
  0
MATERIAL
  5
1F
102
{ACAD_REACTORS
330
E
102
}
330
E
100
AcDbMaterial
  1
ByBlock
  2

 70
0
 40
1.0
 71
1
 41
1.0
 91
-1023410177
 42
1.0
 72
1
  3

 73
1
 74
1
 75
1
 44
0.5
 73
0
 45
1.0
 46
1.0
 77
1
  4

 78
1
 79
1
170
1
 48
1.0
171
1
  6

172
1
173
1
174
1
140
1.0
141
1.0
175
1
  7

176
1
177
1
178
1
143
1.0
179
1
  8

270
1
271
1
272
1
145
1.0
146
1.0
273
1
  9

274
1
275
1
276
1
 42
1.0
 72
1
  3

 73
1
 74
1
 75
1
 94
63
  0
MATERIAL
  5
20
102
{ACAD_REACTORS
330
E
102
}
330
E
100
AcDbMaterial
  1
ByLayer
  2

 70
0
 40
1.0
 71
1
 41
1.0
 91
-1023410177
 42
1.0
 72
1
  3

 73
1
 74
1
 75
1
 44
0.5
 73
0
 45
1.0
 46
1.0
 77
1
  4

 78
1
 79
1
170
1
 48
1.0
171
1
  6

172
1
173
1
174
1
140
1.0
141
1.0
175
1
  7

176
1
177
1
178
1
143
1.0
179
1
  8

270
1
271
1
272
1
145
1.0
146
1.0
273
1
  9

274
1
275
1
276
1
 42
1.0
 72
1
  3

 73
1
 74
1
 75
1
 94
63
  0
MATERIAL
  5
21
102
{ACAD_REACTORS
330
E
102
}
330
E
100
AcDbMaterial
  1
Global
  2

 70
0
 40
1.0
 71
1
 41
1.0
 91
-1023410177
 42
1.0
 72
1
  3

 73
1
 74
1
 75
1
 44
0.5
 73
0
 45
1.0
 46
1.0
 77
1
  4

 78
1
 79
1
170
1
 48
1.0
171
1
  6

172
1
173
1
174
1
140
1.0
141
1.0
175
1
  7

176
1
177
1
178
1
143
1.0
179
1
  8

270
1
271
1
272
1
145
1.0
146
1.0
273
1
  9

274
1
275
1
276
1
 42
1.0
 72
1
  3

 73
1
 74
1
 75
1
 94
63
  0
MLINESTYLE
  5
22
102
{ACAD_REACTORS
330
10
102
}
330
10
100
AcDbMlineStyle
  2
Standard
 70
0
  3

 62
256
 51
90.0
 52
90.0
 71
2
 49
0.5
 62
256
  6
BYLAYER
 49
-0.5
 62
256
  6
BYLAYER
  0
MLEADERSTYLE
  5
2C
102
{ACAD_REACTORS
330
F
102
}
330
F
100
AcDbMLeaderStyle
179
2
170
2
171
1
172
0
 90
2
 40
0.0
 41
0.0
173
1
 91
-1056964608
 92
-2
290
1
 42
2.0
291
1
 43
8.0
  3
Standard
 44
4.0
300

342
29
174
1
175
1
176
0
178
1
 93
-1056964608
 45
4.0
292
0
297
0
 46
4.0
 94
-1056964608
 47
1.0
 49
1.0
140
1.0
294
1
141
0.0
177
0
142
1.0
295
0
296
0
143
3.75
271
0
272
9
273
9
  0
DICTIONARY
  5
2D
330
A
100
AcDbDictionary
280
1
281
1
  3
CREATED_BY_EZDXF
350
2E
  3
WRITTEN_BY_EZDXF
350
37
  0
DICTIONARYVAR
  5
2E
330
2D
100
DictionaryVariables
280
0
  1
1.4.4 @ 2026-10-06T17:04:47.076836+00:00
  0
DICTIONARYVAR
  5
37
330
2D
100
DictionaryVariables
280
0
  1
1.4.4 @ 2026-10-06T17:04:47.106089+00:00
  0
ENDSEC
  0
EOF
