  0
SECTION
  2
HEADER
  9
$ACADVER
  1
AC1015
  9
$ACADMAINTVER
 70
6
  9
$DWGCODEPAGE
  3
ANSI_1252
  9
$INSBASE
 10
0.0
 20
0.0
 30
0.0
  9
$EXTMIN
 10
1e+20
 20
1e+20
 30
1e+20
  9
$EXTMAX
 10
-1e+20
 20
-1e+20
 30
-1e+20
  9
$LIMMIN
 10
0.0
 20
0.0
  9
$LIMMAX
 10
420.0
 20
297.0
  9
$ORTHOMODE
 70
0
  9
$REGENMODE
 70
1
  9
$FILLMODE
 70
1
  9
$QTEXTMODE
 70
0
  9
$MIRRTEXT
 70
1
  9
$LTSCALE
 40
1.0
  9
$ATTMODE
 70
1
  9
$TEXTSIZE
 40
2.5
  9
$TRACEWID
 40
1.0
  9
$TEXTSTYLE
  7
Standard
  9
$CLAYER
  8
0
  9
$CELTYPE
  6
ByLayer
  9
$CECOLOR
 62
256
  9
$CELTSCALE
 40
1.0
  9
$DISPSILH
 70
0
  9
$DIMSCALE
 40
1.0
  9
$DIMASZ
 40
2.5
  9
$DIMEXO
 40
0.625
  9
$DIMDLI
 40
3.75
  9
$DIMRND
 40
0.0
  9
$DIMDLE
 40
0.0
  9
$DIMEXE
 40
1.25
  9
$DIMTP
 40
0.0
  9
$DIMTM
 40
0.0
  9
$DIMTXT
 40
2.5
  9
$DIMCEN
 40
2.5
  9
$DIMTSZ
 40
0.0
  9
$DIMTOL
 70
0
  9
$DIMLIM
 70
0
  9
$DIMTIH
 70
0
  9
$DIMTOH
 70
0
  9
$DIMSE1
 70
0
  9
$DIMSE2
 70
0
  9
$DIMTAD
 70
1
  9
$DIMZIN
 70
8
  9
$DIMBLK
  1

  9
$DIMASO
 70
1
  9
$DIMSHO
 70
1
  9
$DIMPOST
  1

  9
$DIMAPOST
  1

  9
$DIMALT
 70
0
  9
$DIMALTD
 70
3
  9
$DIMALTF
 40
0.03937007874
  9
$DIMLFAC
 40
1.0
  9
$DIMTOFL
 70
1
  9
$DIMTVP
 40
0.0
  9
$DIMTIX
 70
0
  9
$DIMSOXD
 70
0
  9
$DIMSAH
 70
0
  9
$DIMBLK1
  1

  9
$DIMBLK2
  1

  9
$DIMSTYLE
  2
ISO-25
  9
$DIMCLRD
 70
0
  9
$DIMCLRE
 70
0
  9
$DIMCLRT
 70
0
  9
$DIMTFAC
 40
1.0
  9
$DIMGAP
 40
0.625
  9
$DIMJUST
 70
0
  9
$DIMSD1
 70
0
  9
$DIMSD2
 70
0
  9
$DIMTOLJ
 70
0
  9
$DIMTZIN
 70
8
  9
$DIMALTZ
 70
0
  9
$DIMALTTZ
 70
0
  9
$DIMUPT
 70
0
  9
$DIMDEC
 70
2
  9
$DIMTDEC
 70
2
  9
$DIMALTU
 70
2
  9
$DIMALTTD
 70
3
  9
$DIMTXSTY
  7
Standard
  9
$DIMAUNIT
 70
0
  9
$DIMADEC
 70
0
  9
$DIMALTRND
 40
0.0
  9
$DIMAZIN
 70
0
  9
$DIMDSEP
 70
44
  9
$DIMATFIT
 70
3
  9
$DIMFRAC
 70
0
  9
$DIMLDRBLK
  1

  9
$DIMLUNIT
 70
2
  9
$DIMLWD
 70
-2
  9
$DIMLWE
 70
-2
  9
$DIMTMOVE
 70
0
  9
$LUNITS
 70
2
  9
$LUPREC
 70
4
  9
$SKETCHINC
 40
1.0
  9
$FILLETRAD
 40
10.0
  9
$AUNITS
 70
0
  9
$AUPREC
 70
2
  9
$MENU
  1
.
  9
$ELEVATION
 40
0.0
  9
$PELEVATION
 40
0.0
  9
$THICKNESS
 40
0.0
  9
$LIMCHECK
 70
0
  9
$CHAMFERA
 40
0.0
  9
$CHAMFERB
 40
0.0
  9
$CHAMFERC
 40
0.0
  9
$CHAMFERD
 40
0.0
  9
$SKPOLY
 70
0
  9
$TDCREATE
 40
2461320.7116550924
  9
$TDUCREATE
 40
2458532.153996898
  9
$TDUPDATE
 40
2461320.7116550924
  9
$TDUUPDATE
 40
2458532.1544311
  9
$TDINDWG
 40
0.0
  9
$TDUSRTIMER
 40
0.0
  9
$USRTIMER
 70
1
  9
$ANGBASE
 50
0.0
  9
$ANGDIR
 70
0
  9
$PDMODE
 70
0
  9
$PDSIZE
 40
0.0
  9
$PLINEWID
 40
0.0
  9
$SPLFRAME
 70
0
  9
$SPLINETYPE
 70
6
  9
$SPLINESEGS
 70
8
  9
$HANDSEED
  5
39
  9
$SURFTAB1
 70
6
  9
$SURFTAB2
 70
6
  9
$SURFTYPE
 70
6
  9
$SURFU
 70
6
  9
$SURFV
 70
6
  9
$UCSBASE
  2

  9
$UCSNAME
  2

  9
$UCSORG
 10
0.0
 20
0.0
 30
0.0
  9
$UCSXDIR
 10
1.0
 20
0.0
 30
0.0
  9
$UCSYDIR
 10
0.0
 20
1.0
 30
0.0
  9
$UCSORTHOREF
  2

  9
$UCSORTHOVIEW
 70
0
  9
$UCSORGTOP
 10
0.0
 20
0.0
 30
0.0
  9
$UCSORGBOTTOM
 10
0.0
 20
0.0
 30
0.0
  9
$UCSORGLEFT
 10
0.0
 20
0.0
 30
0.0
  9
$UCSORGRIGHT
 10
0.0
 20
0.0
 30
0.0
  9
$UCSORGFRONT
 10
0.0
 20
0.0
 30
0.0
  9
$UCSORGBACK
 10
0.0
 20
0.0
 30
0.0
  9
$PUCSBASE
  2

  9
$PUCSNAME
  2

  9
$PUCSORG
 10
0.0
 20
0.0
 30
0.0
  9
$PUCSXDIR
 10
1.0
 20
0.0
 30
0.0
  9
$PUCSYDIR
 10
0.0
 20
1.0
 30
0.0
  9
$PUCSORTHOREF
  2

  9
$PUCSORTHOVIEW
 70
0
  9
$PUCSORGTOP
 10
0.0
 20
0.0
 30
0.0
  9
$PUCSORGBOTTOM
 10
0.0
 20
0.0
 30
0.0
  9
$PUCSORGLEFT
 10
0.0
 20
0.0
 30
0.0
  9
$PUCSORGRIGHT
 10
0.0
 20
0.0
 30
0.0
  9
$PUCSORGFRONT
 10
0.0
 20
0.0
 30
0.0
  9
$PUCSORGBACK
 10
0.0
 20
0.0
 30
0.0
  9
$USERI1
 70
0
  9
$USERI2
 70
0
  9
$USERI3
 70
0
  9
$USERI4
 70
0
  9
$USERI5
 70
0
  9
$USERR1
 40
0.0
  9
$USERR2
 40
0.0
  9
$USERR3
 40
0.0
  9
$USERR4
 40
0.0
  9
$USERR5
 40
0.0
  9
$WORLDVIEW
 70
1
  9
$SHADEDGE
 70
3
  9
$SHADEDIF
 70
70
  9
$TILEMODE
 70
1
  9
$MAXACTVP
 70
64
  9
$PINSBASE
 10
0.0
 20
0.0
 30
0.0
  9
$PLIMCHECK
 70
0
  9
$PEXTMIN
 10
1e+20
 20
1e+20
 30
1e+20
  9
$PEXTMAX
 10
-1e+20
 20
-1e+20
 30
-1e+20
  9
$PLIMMIN
 10
0.0
 20
0.0
  9
$PLIMMAX
 10
420.0
 20
297.0
  9
$UNITMODE
 70
0
  9
$VISRETAIN
 70
1
  9
$PLINEGEN
 70
0
  9
$PSLTSCALE
 70
1
  9
$TREEDEPTH
 70
3020
  9
$CMLSTYLE
  2
Standard
  9
$CMLJUST
 70
0
  9
$CMLSCALE
 40
20.0
  9
$PROXYGRAPHICS
 70
1
  9
$MEASUREMENT
 70
1
  9
$CELWEIGHT
370
-1
  9
$ENDCAPS
280
0
  9
$JOINSTYLE
280
0
  9
$LWDISPLAY
290
0
  9
$INSUNITS
 70
4
  9
$HYPERLINKBASE
  1

  9
$STYLESHEET
  1

  9
$XEDIT
290
1
  9
$CEPSNTYPE
380
0
  9
$PSTYLEMODE
290
1
  9
$FINGERPRINTGUID
  2
{6711AF12-7136-4B34-8BC7-E281EB8C16B8}
  9
$VERSIONGUID
  2
{41609ACF-5DA2-426A-9D96-094734638977}
  9
$EXTNAMES
290
1
  9
$PSVPSCALE
 40
0.0
  9
$OLESTARTUP
290
0
  0
ENDSEC
  0
SECTION
  2
CLASSES
  0
CLASS
  1
ACDBDICTIONARYWDFLT
  2
AcDbDictionaryWithDefault
  3
ObjectDBX Classes
 90
0
280
0
281
0
  0
CLASS
  1
SUN
  2
AcDbSun
  3
SCENEOE
 90
1153
280
0
281
0
  0
CLASS
  1
VISUALSTYLE
  2
AcDbVisualStyle
  3
ObjectDBX Classes
 90
4095
280
0
281
0
  0
CLASS
  1
MATERIAL
  2
AcDbMaterial
  3
ObjectDBX Classes
 90
1153
280
0
281
0
  0
CLASS
  1
SCALE
  2
AcDbScale
  3
ObjectDBX Classes
 90
1153
280
0
281
0
  0
CLASS
  1
TABLESTYLE
  2
AcDbTableStyle
  3
ObjectDBX Classes
 90
4095
280
0
281
0
  0
CLASS
  1
MLEADERSTYLE
  2
AcDbMLeaderStyle
  3
ACDB_MLEADERSTYLE_CLASS
 90
4095
280
0
281
0
  0
CLASS
  1
DICTIONARYVAR
  2
AcDbDictionaryVar
  3
ObjectDBX Classes
 90
0
280
0
281
0
  0
CLASS
  1
CELLSTYLEMAP
  2
AcDbCellStyleMap
  3
ObjectDBX Classes
 90
1152
280
0
281
0
  0
CLASS
  1
MENTALRAYRENDERSETTINGS
  2
AcDbMentalRayRenderSettings
  3
SCENEOE
 90
1024
280
0
281
0
  0
CLASS
  1
ACDBDETAILVIEWSTYLE
  2
AcDbDetailViewStyle
  3
ObjectDBX Classes
 90
1025
280
0
281
0
  0
CLASS
  1
ACDBSECTIONVIEWSTYLE
  2
AcDbSectionViewStyle
  3
ObjectDBX Classes
 90
1025
280
0
281
0
  0
CLASS
  1
RASTERVARIABLES
  2
AcDbRasterVariables
  3
ISM
 90
0
280
0
281
0
  0
CLASS
  1
ACDBPLACEHOLDER
  2
AcDbPlaceHolder
  3
ObjectDBX Classes
 90
0
280
0
281
0
  0
CLASS
  1
LAYOUT
  2
AcDbLayout
  3
ObjectDBX Classes
 90
0
280
0
281
0
  0
ENDSEC
  0
SECTION
  2
TABLES
  0
TABLE
  2
VPORT
  5
8
330
0
100
AcDbSymbolTable
 70
1
  0
VPORT
  5
23
330
8
100
AcDbSymbolTableRecord
100
AcDbViewportTableRecord
  2
*Active
 70
0
 10
0.0
 20
0.0
 11
1.0
 21
1.0
 12
0.0
 22
0.0
 13
0.0
 23
0.0
 14
0.5
 24
0.5
 15
0.5
 25
0.5
 16
0.0
 26
0.0
 36
1.0
 17
0.0
 27
0.0
 37
0.0
 40
1000.0
 41
1.34
 42
50.0
 43
0.0
 44
0.0
 50
0.0
 51
0.0
 71
0
 72
1000
 73
1
 74
3
 75
0
 76
0
 77
0
 78
0
281
0
 65
0
146
0.0
  0
ENDTAB
  0
TABLE
  2
LTYPE
  5
2
330
0
100
AcDbSymbolTable
 70
3
  0
LTYPE
  5
24
330
2
100
AcDbSymbolTableRecord
100
AcDbLinetypeTableRecord
  2
ByBlock
 70
0
  3

 72
65
 73
0
 40
0.0
  0
LTYPE
  5
25
330
2
100
AcDbSymbolTableRecord
100
AcDbLinetypeTableRecord
  2
ByLayer
 70
0
  3

 72
65
 73
0
 40
0.0
  0
LTYPE
  5
26
330
2
100
AcDbSymbolTableRecord
100
AcDbLinetypeTableRecord
  2
Continuous
 70
0
  3

 72
65
 73
0
 40
0.0
  0
ENDTAB
  0
TABLE
  2
LAYER
  5
1
330
0
100
AcDbSymbolTable
 70
3
  0
LAYER
  5
27
330
1
100
AcDbSymbolTableRecord
100
AcDbLayerTableRecord
  2
0
 70
0
 62
7
  6
Continuous
370
-3
390
13
  0
LAYER
  5
28
330
1
100
AcDbSymbolTableRecord
100
AcDbLayerTableRecord
  2
Defpoints
 70
0
 62
7
  6
Continuous
290
0
370
-3
390
13
  0
LAYER
  5
2F
330
1
100
AcDbSymbolTableRecord
100
AcDbLayerTableRecord
  2
CORTE
 70
0
 62
7
  6
Continuous
370
-3
390
13
  0
ENDTAB
  0
TABLE
  2
STYLE
  5
5
330
0
100
AcDbSymbolTable
 70
1
  0
STYLE
  5
29
330
5
100
AcDbSymbolTableRecord
100
AcDbTextStyleTableRecord
  2
Standard
 70
0
 40
0.0
 41
1.0
 50
0.0
 71
0
 42
2.5
  3
txt
  4

  0
ENDTAB
  0
TABLE
  2
VIEW
  5
7
330
0
100
AcDbSymbolTable
 70
0
  0
ENDTAB
  0
TABLE
  2
UCS
  5
6
330
0
100
AcDbSymbolTable
 70
0
  0
ENDTAB
  0
TABLE
  2
APPID
  5
3
330
0
100
AcDbSymbolTable
 70
3
  0
APPID
  5
2A
330
3
100
AcDbSymbolTableRecord
100
AcDbRegAppTableRecord
  2
ACAD
 70
0
  0
APPID
  5
36
330
3
100
AcDbSymbolTableRecord
100
AcDbRegAppTableRecord
  2
HATCHBACKGROUNDCOLOR
 70
0
  0
APPID
  5
37
330
3
100
AcDbSymbolTableRecord
100
AcDbRegAppTableRecord
  2
EZDXF
 70
0
  0
ENDTAB
  0
TABLE
  2
DIMSTYLE
  5
4
330
0
100
AcDbSymbolTable
 70
1
100
AcDbDimStyleTable
  0
DIMSTYLE
105
2B
330
4
100
AcDbSymbolTableRecord
100
AcDbDimStyleTableRecord
  2
Standard
 70
0
  3

  4

 40
1.0
 41
2.5
 42
0.625
 43
3.75
 44
1.25
 45
0.0
 46
0.0
 47
0.0
 48
0.0
140
2.5
141
2.5
142
0.0
143
0.03937007874
144
1.0
145
0.0
146
1.0
147
0.625
148
0.0
 71
0
 72
0
 73
0
 74
0
 75
0
 76
0
 77
1
 78
8
 79
3
170
0
171
3
172
1
173
0
174
0
175
0
176
0
177
0
178
0
179
2
271
2
272
2
273
2
274
3
275
0
276
0
277
2
278
44
279
0
280
0
281
0
282
0
283
0
284
8
285
0
286
0
288
0
289
3
371
-2
372
-2
  0
ENDTAB
  0
TABLE
  2
BLOCK_RECORD
  5
9
330
0
100
AcDbSymbolTable
 70
2
  0
BLOCK_RECORD
  5
17
330
9
100
AcDbSymbolTableRecord
100
AcDbBlockTableRecord
  2
*Model_Space
340
1A
  0
BLOCK_RECORD
  5
1B
330
9
100
AcDbSymbolTableRecord
100
AcDbBlockTableRecord
  2
*Paper_Space
340
1E
  0
ENDTAB
  0
ENDSEC
  0
SECTION
  2
BLOCKS
  0
BLOCK
  5
18
330
17
100
AcDbEntity
  8
0
100
AcDbBlockBegin
  2
*Model_Space
 70
0
 10
0.0
 20
0.0
 30
0.0
  3
*Model_Space
  1

  0
ENDBLK
  5
19
330
17
100
AcDbEntity
  8
0
100
AcDbBlockEnd
  0
BLOCK
  5
1C
330
1B
100
AcDbEntity
  8
0
100
AcDbBlockBegin
  2
*Paper_Space
 70
0
 10
0.0
 20
0.0
 30
0.0
  3
*Paper_Space
  1

  0
ENDBLK
  5
1D
330
1B
100
AcDbEntity
  8
0
100
AcDbBlockEnd
  0
ENDSEC
  0
SECTION
  2
ENTITIES
  0
LWPOLYLINE
  5
30
330
17
100
AcDbEntity
  8
CORTE
100
AcDbPolyline
 90
1376
 70
1
 10
35.400000000000006
 20
16.96
 10
35.30000000000001
 20
16.74
 10
35.24000000000001
 20
16.52
 10
35.19999999999999
 20
16.3
 10
35.18000000000001
 20
16.06
 10
35.18000000000001
 20
8.920000000000002
 10
35.19999999999999
 20
8.68
 10
35.24000000000001
 20
8.46
 10
35.30000000000001
 20
8.240000000000002
 10
35.400000000000006
 20
8.02
 10
35.400000000000006
 20
8.0
 10
35.41999999999999
 20
8.0
 10
35.41999999999999
 20
7.9799999999999995
 10
35.41999999999999
 20
7.96
 10
35.44
 20
7.94
 10
35.44
 20
7.920000000000001
 10
35.46000000000001
 20
7.8999999999999995
 10
35.46000000000001
 20
7.88
 10
35.47999999999999
 20
7.86
 10
35.47999999999999
 20
7.840000000000001
 10
35.5
 20
7.820000000000001
 10
35.5
 20
7.8
 10
35.52000000000001
 20
7.78
 10
35.52000000000001
 20
7.760000000000001
 10
35.53999999999999
 20
7.740000000000001
 10
35.53999999999999
 20
7.72
 10
35.56
 20
7.7
 10
35.56
 20
7.680000000000001
 10
35.58000000000001
 20
7.660000000000001
 10
35.58000000000001
 20
7.64
 10
35.599999999999994
 20
7.6000000000000005
 10
35.599999999999994
 20
7.580000000000001
 10
35.620000000000005
 20
7.56
 10
35.620000000000005
 20
7.54
 10
35.639999999999986
 20
7.5200000000000005
 10
35.639999999999986
 20
7.500000000000001
 10
35.66
 20
7.4799999999999995
 10
35.66
 20
7.46
 10
35.68000000000001
 20
7.44
 10
35.68000000000001
 20
7.420000000000001
 10
35.69999999999999
 20
7.3999999999999995
 10
35.69999999999999
 20
7.38
 10
35.72
 20
7.36
 10
35.72
 20
7.340000000000001
 10
35.74000000000001
 20
7.320000000000001
 10
35.74000000000001
 20
7.3
 10
35.74000000000001
 20
7.28
 10
35.75999999999999
 20
7.260000000000001
 10
35.75999999999999
 20
7.240000000000001
 10
35.78
 20
7.22
 10
35.78
 20
7.2
 10
35.80000000000001
 20
7.180000000000001
 10
35.80000000000001
 20
7.160000000000001
 10
35.81999999999999
 20
7.14
 10
35.81999999999999
 20
7.12
 10
35.84
 20
7.1000000000000005
 10
35.84
 20
7.080000000000001
 10
35.84
 20
7.06
 10
35.860000000000014
 20
7.04
 10
35.860000000000014
 20
7.0200000000000005
 10
35.879999999999995
 20
7.000000000000001
 10
35.879999999999995
 20
6.96
 10
35.900000000000006
 20
6.94
 10
35.91999999999999
 20
6.8999999999999995
 10
35.91999999999999
 20
6.88
 10
35.94
 20
6.86
 10
35.94
 20
6.820000000000001
 10
35.96000000000001
 20
6.8
 10
35.96000000000001
 20
6.78
 10
35.97999999999999
 20
6.740000000000001
 10
35.97999999999999
 20
6.72
 10
36.0
 20
6.7
 10
36.02000000000001
 20
6.660000000000001
 10
36.02000000000001
 20
6.64
 10
36.03999999999999
 20
6.62
 10
36.03999999999999
 20
6.580000000000001
 10
36.06
 20
6.56
 10
36.06
 20
6.54
 10
36.08000000000001
 20
6.500000000000001
 10
36.08000000000001
 20
6.4799999999999995
 10
36.099999999999994
 20
6.46
 10
36.099999999999994
 20
6.420000000000001
 10
36.120000000000005
 20
6.3999999999999995
 10
36.120000000000005
 20
6.38
 10
36.139999999999986
 20
6.36
 10
36.139999999999986
 20
6.320000000000001
 10
36.139999999999986
 20
6.3
 10
36.16
 20
6.28
 10
36.16
 20
6.260000000000001
 10
36.18000000000001
 20
6.22
 10
36.18000000000001
 20
6.2
 10
36.19999999999999
 20
6.180000000000001
 10
36.19999999999999
 20
6.14
 10
36.22
 20
6.12
 10
36.22
 20
6.080000000000001
 10
36.24000000000001
 20
6.06
 10
36.24000000000001
 20
6.0200000000000005
 10
36.25999999999999
 20
6.000000000000001
 10
36.25999999999999
 20
5.96
 10
36.28
 20
5.94
 10
36.28
 20
5.8999999999999995
 10
36.30000000000001
 20
5.88
 10
36.30000000000001
 20
5.86
 10
36.31999999999999
 20
5.820000000000001
 10
36.31999999999999
 20
5.8
 10
36.31999999999999
 20
5.760000000000001
 10
36.34
 20
5.740000000000001
 10
36.34
 20
5.7
 10
36.360000000000014
 20
5.680000000000001
 10
36.360000000000014
 20
5.660000000000001
 10
36.360000000000014
 20
5.62
 10
36.379999999999995
 20
5.6000000000000005
 10
36.379999999999995
 20
5.56
 10
36.400000000000006
 20
5.54
 10
36.400000000000006
 20
5.5200000000000005
 10
36.400000000000006
 20
5.4799999999999995
 10
36.41999999999999
 20
5.46
 10
36.41999999999999
 20
5.44
 10
36.41999999999999
 20
5.3999999999999995
 10
36.44
 20
5.38
 10
36.44
 20
5.36
 10
36.44
 20
5.320000000000001
 10
36.46000000000001
 20
5.3
 10
36.46000000000001
 20
5.28
 10
36.46000000000001
 20
5.240000000000001
 10
36.47999999999999
 20
5.22
 10
36.47999999999999
 20
5.180000000000001
 10
36.47999999999999
 20
5.160000000000001
 10
36.47999999999999
 20
5.14
 10
36.5
 20
5.1000000000000005
 10
36.5
 20
5.080000000000001
 10
36.5
 20
5.06
 10
36.5
 20
5.0200000000000005
 10
36.52000000000001
 20
5.000000000000001
 10
36.52000000000001
 20
4.9799999999999995
 10
36.52000000000001
 20
4.94
 10
36.52000000000001
 20
4.920000000000001
 10
36.53999999999999
 20
4.8999999999999995
 10
36.53999999999999
 20
4.86
 10
36.53999999999999
 20
4.840000000000001
 10
36.53999999999999
 20
4.820000000000001
 10
36.53999999999999
 20
4.78
 10
36.56
 20
4.760000000000001
 10
36.56
 20
4.740000000000001
 10
36.56
 20
4.7
 10
36.56
 20
4.680000000000001
 10
36.56
 20
4.660000000000001
 10
36.56
 20
4.64
 10
36.58000000000001
 20
4.6000000000000005
 10
36.58000000000001
 20
4.580000000000001
 10
36.58000000000001
 20
4.56
 10
36.58000000000001
 20
4.54
 10
36.58000000000001
 20
4.500000000000001
 10
36.58000000000001
 20
4.4799999999999995
 10
36.58000000000001
 20
4.46
 10
36.58000000000001
 20
4.44
 10
36.58000000000001
 20
4.420000000000001
 10
36.58000000000001
 20
4.3999999999999995
 10
36.58000000000001
 20
4.38
 10
36.58000000000001
 20
4.36
 10
36.599999999999994
 20
4.340000000000001
 10
36.599999999999994
 20
4.320000000000001
 10
36.599999999999994
 20
4.3
 10
36.599999999999994
 20
4.28
 10
36.599999999999994
 20
4.260000000000001
 10
36.599999999999994
 20
4.240000000000001
 10
36.599999999999994
 20
4.22
 10
36.599999999999994
 20
4.2
 10
36.599999999999994
 20
4.180000000000001
 10
36.599999999999994
 20
4.160000000000001
 10
36.599999999999994
 20
4.14
 10
36.599999999999994
 20
4.12
 10
36.599999999999994
 20
4.1000000000000005
 10
36.599999999999994
 20
4.080000000000001
 10
36.599999999999994
 20
4.06
 10
36.599999999999994
 20
4.04
 10
36.58000000000001
 20
4.0200000000000005
 10
36.58000000000001
 20
4.000000000000001
 10
36.58000000000001
 20
3.9799999999999995
 10
36.58000000000001
 20
3.96
 10
36.58000000000001
 20
3.9400000000000004
 10
36.58000000000001
 20
3.920000000000001
 10
36.58000000000001
 20
3.8999999999999995
 10
36.58000000000001
 20
3.88
 10
36.58000000000001
 20
3.8600000000000003
 10
36.58000000000001
 20
3.8400000000000007
 10
36.58000000000001
 20
3.820000000000001
 10
36.58000000000001
 20
3.8
 10
36.56
 20
3.7800000000000002
 10
36.56
 20
3.7600000000000007
 10
36.56
 20
3.740000000000001
 10
36.56
 20
3.7199999999999998
 10
36.56
 20
3.7
 10
36.56
 20
3.6800000000000006
 10
36.56
 20
3.660000000000001
 10
36.53999999999999
 20
3.660000000000001
 10
36.53999999999999
 20
3.6399999999999997
 10
36.53999999999999
 20
3.62
 10
36.53999999999999
 20
3.6000000000000005
 10
36.53999999999999
 20
3.580000000000001
 10
36.52000000000001
 20
3.5599999999999996
 10
36.52000000000001
 20
3.54
 10
36.52000000000001
 20
3.5200000000000005
 10
36.52000000000001
 20
3.500000000000001
 10
36.52000000000001
 20
3.4799999999999995
 10
36.5
 20
3.46
 10
36.5
 20
3.4400000000000004
 10
36.5
 20
3.420000000000001
 10
36.5
 20
3.3999999999999995
 10
36.47999999999999
 20
3.3999999999999995
 10
36.47999999999999
 20
3.38
 10
36.47999999999999
 20
3.3600000000000003
 10
36.47999999999999
 20
3.3400000000000007
 10
36.46000000000001
 20
3.320000000000001
 10
36.46000000000001
 20
3.3
 10
36.46000000000001
 20
3.2800000000000002
 10
36.44
 20
3.2600000000000007
 10
36.44
 20
3.240000000000001
 10
36.44
 20
3.2199999999999998
 10
36.41999999999999
 20
3.2199999999999998
 10
36.41999999999999
 20
3.2
 10
36.41999999999999
 20
3.1800000000000006
 10
36.41999999999999
 20
3.160000000000001
 10
36.400000000000006
 20
3.160000000000001
 10
36.400000000000006
 20
3.1399999999999997
 10
36.400000000000006
 20
3.12
 10
36.379999999999995
 20
3.12
 10
36.379999999999995
 20
3.1000000000000005
 10
36.379999999999995
 20
3.080000000000001
 10
36.360000000000014
 20
3.080000000000001
 10
36.360000000000014
 20
3.0599999999999996
 10
36.360000000000014
 20
3.04
 10
36.34
 20
3.04
 10
36.34
 20
3.0200000000000005
 10
36.34
 20
3.000000000000001
 10
36.31999999999999
 20
3.000000000000001
 10
36.31999999999999
 20
2.9799999999999995
 10
36.31999999999999
 20
2.96
 10
36.30000000000001
 20
2.96
 10
36.30000000000001
 20
2.9400000000000004
 10
36.30000000000001
 20
2.920000000000001
 10
36.28
 20
2.920000000000001
 10
36.28
 20
2.8999999999999995
 10
36.28
 20
2.88
 10
36.25999999999999
 20
2.88
 10
36.25999999999999
 20
2.8600000000000003
 10
36.24000000000001
 20
2.8600000000000003
 10
36.24000000000001
 20
2.8400000000000007
 10
36.24000000000001
 20
2.820000000000001
 10
36.22
 20
2.820000000000001
 10
36.22
 20
2.8
 10
36.19999999999999
 20
2.7800000000000002
 10
36.19999999999999
 20
2.7600000000000007
 10
36.18000000000001
 20
2.7600000000000007
 10
36.18000000000001
 20
2.740000000000001
 10
36.16
 20
2.7199999999999998
 10
36.16
 20
2.7
 10
36.139999999999986
 20
2.7
 10
36.139999999999986
 20
2.6800000000000006
 10
36.120000000000005
 20
2.6800000000000006
 10
36.120000000000005
 20
2.660000000000001
 10
36.099999999999994
 20
2.660000000000001
 10
36.099999999999994
 20
2.6399999999999997
 10
36.099999999999994
 20
2.62
 10
36.08000000000001
 20
2.62
 10
36.08000000000001
 20
2.6000000000000005
 10
36.06
 20
2.6000000000000005
 10
36.06
 20
2.580000000000001
 10
36.03999999999999
 20
2.580000000000001
 10
36.03999999999999
 20
2.5599999999999996
 10
36.02000000000001
 20
2.5599999999999996
 10
36.02000000000001
 20
2.54
 10
36.0
 20
2.54
 10
36.0
 20
2.5200000000000005
 10
35.97999999999999
 20
2.500000000000001
 10
35.96000000000001
 20
2.4799999999999995
 10
35.96000000000001
 20
2.46
 10
35.94
 20
2.46
 10
35.91999999999999
 20
2.4400000000000004
 10
35.900000000000006
 20
2.420000000000001
 10
35.879999999999995
 20
2.3999999999999995
 10
35.860000000000014
 20
2.38
 10
35.84
 20
2.38
 10
35.84
 20
2.3600000000000003
 10
35.81999999999999
 20
2.3400000000000007
 10
35.80000000000001
 20
2.3400000000000007
 10
35.80000000000001
 20
2.320000000000001
 10
35.78
 20
2.320000000000001
 10
35.78
 20
2.3
 10
35.75999999999999
 20
2.3
 10
35.75999999999999
 20
2.2800000000000002
 10
35.74000000000001
 20
2.2800000000000002
 10
35.72
 20
2.2600000000000007
 10
35.69999999999999
 20
2.240000000000001
 10
35.68000000000001
 20
2.240000000000001
 10
35.68000000000001
 20
2.2199999999999998
 10
35.66
 20
2.2199999999999998
 10
35.639999999999986
 20
2.2
 10
35.620000000000005
 20
2.1800000000000006
 10
35.599999999999994
 20
2.1800000000000006
 10
35.599999999999994
 20
2.160000000000001
 10
35.58000000000001
 20
2.160000000000001
 10
35.56
 20
2.1399999999999997
 10
35.53999999999999
 20
2.1399999999999997
 10
35.53999999999999
 20
2.12
 10
35.52000000000001
 20
2.12
 10
35.5
 20
2.1000000000000005
 10
35.47999999999999
 20
2.080000000000001
 10
35.46000000000001
 20
2.080000000000001
 10
35.46000000000001
 20
2.0599999999999996
 10
35.44
 20
2.0599999999999996
 10
35.41999999999999
 20
2.04
 10
35.400000000000006
 20
2.04
 10
35.379999999999995
 20
2.0200000000000005
 10
35.360000000000014
 20
2.0200000000000005
 10
35.360000000000014
 20
2.000000000000001
 10
35.34
 20
2.000000000000001
 10
35.31999999999999
 20
2.000000000000001
 10
35.31999999999999
 20
1.9799999999999995
 10
35.30000000000001
 20
1.9799999999999995
 10
35.28
 20
1.96
 10
35.25999999999999
 20
1.96
 10
35.24000000000001
 20
1.9400000000000004
 10
35.22
 20
1.9400000000000004
 10
35.22
 20
1.9200000000000008
 10
35.19999999999999
 20
1.9200000000000008
 10
35.18000000000001
 20
1.9200000000000008
 10
35.16
 20
1.8999999999999995
 10
35.139999999999986
 20
1.8999999999999995
 10
35.139999999999986
 20
1.88
 10
35.120000000000005
 20
1.88
 10
35.099999999999994
 20
1.88
 10
35.08000000000001
 20
1.8600000000000003
 10
35.06
 20
1.8600000000000003
 10
35.06
 20
1.8400000000000007
 10
35.03999999999999
 20
1.8400000000000007
 10
35.02000000000001
 20
1.8400000000000007
 10
35.0
 20
1.8200000000000003
 10
34.97999999999999
 20
1.8200000000000003
 10
34.96000000000001
 20
1.8000000000000007
 10
34.94
 20
1.8000000000000007
 10
34.91999999999999
 20
1.8000000000000007
 10
34.91999999999999
 20
1.7800000000000002
 10
34.900000000000006
 20
1.7800000000000002
 10
34.879999999999995
 20
1.7800000000000002
 10
34.879999999999995
 20
1.7600000000000007
 10
34.860000000000014
 20
1.7600000000000007
 10
34.84
 20
1.7600000000000007
 10
34.81999999999999
 20
1.7400000000000002
 10
34.80000000000001
 20
1.7400000000000002
 10
34.78
 20
1.7400000000000002
 10
34.78
 20
1.7200000000000006
 10
34.75999999999999
 20
1.7200000000000006
 10
34.74000000000001
 20
1.7200000000000006
 10
34.74000000000001
 20
1.7000000000000002
 10
34.72
 20
1.7000000000000002
 10
34.69999999999999
 20
1.7000000000000002
 10
34.68000000000001
 20
1.6800000000000006
 10
34.66
 20
1.6800000000000006
 10
34.639999999999986
 20
1.6800000000000006
 10
34.620000000000005
 20
1.6600000000000001
 10
34.599999999999994
 20
1.6600000000000001
 10
34.58000000000001
 20
1.6600000000000001
 10
34.56
 20
1.6400000000000006
 10
34.53999999999999
 20
1.6400000000000006
 10
34.52000000000001
 20
1.62
 10
34.5
 20
1.62
 10
34.47999999999999
 20
1.62
 10
34.46000000000001
 20
1.62
 10
34.46000000000001
 20
1.6000000000000005
 10
34.44
 20
1.6000000000000005
 10
34.41999999999999
 20
1.6000000000000005
 10
34.400000000000006
 20
1.6000000000000005
 10
34.379999999999995
 20
1.58
 10
34.360000000000014
 20
1.58
 10
34.34
 20
1.58
 10
34.31999999999999
 20
1.5600000000000005
 10
34.30000000000001
 20
1.5600000000000005
 10
34.28
 20
1.5600000000000005
 10
34.25999999999999
 20
1.54
 10
34.24000000000001
 20
1.54
 10
34.22
 20
1.54
 10
34.19999999999999
 20
1.5200000000000005
 10
34.18000000000001
 20
1.5200000000000005
 10
34.16
 20
1.5200000000000005
 10
34.139999999999986
 20
1.5200000000000005
 10
34.120000000000005
 20
1.5200000000000005
 10
34.120000000000005
 20
1.5
 10
34.099999999999994
 20
1.5
 10
34.08000000000001
 20
1.5
 10
34.06
 20
1.4800000000000004
 10
34.03999999999999
 20
1.4800000000000004
 10
34.02000000000001
 20
1.4800000000000004
 10
34.0
 20
1.4800000000000004
 10
33.97999999999999
 20
1.46
 10
33.96000000000001
 20
1.46
 10
33.94
 20
1.46
 10
33.91999999999999
 20
1.46
 10
33.900000000000006
 20
1.4400000000000004
 10
33.879999999999995
 20
1.4400000000000004
 10
33.860000000000014
 20
1.4400000000000004
 10
33.84
 20
1.4400000000000004
 10
33.81999999999999
 20
1.4400000000000004
 10
33.80000000000001
 20
1.42
 10
33.78
 20
1.42
 10
33.75999999999999
 20
1.42
 10
33.74000000000001
 20
1.42
 10
33.72
 20
1.4000000000000004
 10
33.69999999999999
 20
1.4000000000000004
 10
33.68000000000001
 20
1.4000000000000004
 10
33.66
 20
1.4000000000000004
 10
33.639999999999986
 20
1.38
 10
33.620000000000005
 20
1.38
 10
33.599999999999994
 20
1.38
 10
33.58000000000001
 20
1.38
 10
33.56
 20
1.38
 10
33.53999999999999
 20
1.3600000000000003
 10
33.52000000000001
 20
1.3600000000000003
 10
33.47999999999999
 20
1.3600000000000003
 10
33.46000000000001
 20
1.3600000000000003
 10
33.44
 20
1.3400000000000007
 10
33.41999999999999
 20
1.3400000000000007
 10
33.400000000000006
 20
1.3400000000000007
 10
33.360000000000014
 20
1.3400000000000007
 10
33.34
 20
1.3400000000000007
 10
33.31999999999999
 20
1.3200000000000003
 10
33.30000000000001
 20
1.3200000000000003
 10
33.25999999999999
 20
1.3200000000000003
 10
33.24000000000001
 20
1.3200000000000003
 10
33.22
 20
1.3000000000000007
 10
33.19999999999999
 20
1.3000000000000007
 10
33.16
 20
1.3000000000000007
 10
33.139999999999986
 20
1.3000000000000007
 10
33.120000000000005
 20
1.3000000000000007
 10
33.08000000000001
 20
1.2800000000000002
 10
33.06
 20
1.2800000000000002
 10
33.03999999999999
 20
1.2800000000000002
 10
33.02000000000001
 20
1.2800000000000002
 10
32.97999999999999
 20
1.2600000000000007
 10
32.96000000000001
 20
1.2600000000000007
 10
32.94
 20
1.2600000000000007
 10
32.900000000000006
 20
1.2600000000000007
 10
32.879999999999995
 20
1.2600000000000007
 10
32.860000000000014
 20
1.2400000000000002
 10
32.81999999999999
 20
1.2400000000000002
 10
32.80000000000001
 20
1.2400000000000002
 10
32.78
 20
1.2400000000000002
 10
32.74000000000001
 20
1.2400000000000002
 10
32.72
 20
1.2200000000000006
 10
32.68000000000001
 20
1.2200000000000006
 10
32.66
 20
1.2200000000000006
 10
32.639999999999986
 20
1.2200000000000006
 10
32.599999999999994
 20
1.2200000000000006
 10
32.56
 20
1.2000000000000002
 10
32.53999999999999
 20
1.2000000000000002
 10
32.5
 20
1.2000000000000002
 10
32.46000000000001
 20
1.2000000000000002
 10
32.44
 20
1.1800000000000006
 10
32.400000000000006
 20
1.1800000000000006
 10
32.379999999999995
 20
1.1800000000000006
 10
32.34
 20
1.1800000000000006
 10
32.30000000000001
 20
1.1800000000000006
 10
32.28
 20
1.1600000000000001
 10
32.24000000000001
 20
1.1600000000000001
 10
32.19999999999999
 20
1.1600000000000001
 10
32.18000000000001
 20
1.1600000000000001
 10
32.139999999999986
 20
1.1600000000000001
 10
32.099999999999994
 20
1.1400000000000006
 10
32.06
 20
1.1400000000000006
 10
32.03999999999999
 20
1.1400000000000006
 10
32.0
 20
1.1400000000000006
 10
31.960000000000008
 20
1.1400000000000006
 10
31.919999999999987
 20
1.12
 10
31.900000000000006
 20
1.12
 10
31.860000000000014
 20
1.12
 10
31.819999999999993
 20
1.12
 10
31.78
 20
1.12
 10
31.75999999999999
 20
1.1000000000000005
 10
31.72
 20
1.1000000000000005
 10
31.680000000000007
 20
1.1000000000000005
 10
31.639999999999986
 20
1.1000000000000005
 10
31.599999999999994
 20
1.1000000000000005
 10
31.560000000000002
 20
1.08
 10
31.52000000000001
 20
1.08
 10
31.47999999999999
 20
1.08
 10
31.439999999999998
 20
1.08
 10
31.400000000000006
 20
1.08
 10
31.360000000000014
 20
1.0600000000000005
 10
31.319999999999993
 20
1.0600000000000005
 10
31.28
 20
1.0600000000000005
 10
31.22
 20
1.0600000000000005
 10
31.180000000000007
 20
1.04
 10
31.139999999999986
 20
1.04
 10
31.099999999999994
 20
1.04
 10
31.060000000000002
 20
1.04
 10
31.0
 20
1.04
 10
30.960000000000008
 20
1.0200000000000005
 10
30.919999999999987
 20
1.0200000000000005
 10
30.879999999999995
 20
1.0200000000000005
 10
30.819999999999993
 20
1.0200000000000005
 10
30.78
 20
1.0200000000000005
 10
30.74000000000001
 20
1.0
 10
30.680000000000007
 20
1.0
 10
30.639999999999986
 20
1.0
 10
30.599999999999994
 20
1.0
 10
30.539999999999992
 20
1.0
 10
30.5
 20
0.9800000000000004
 10
30.439999999999998
 20
0.9800000000000004
 10
30.400000000000006
 20
0.9800000000000004
 10
30.360000000000014
 20
0.9800000000000004
 10
30.30000000000001
 20
0.9800000000000004
 10
30.25999999999999
 20
0.96
 10
30.19999999999999
 20
0.96
 10
30.159999999999997
 20
0.96
 10
30.099999999999994
 20
0.96
 10
30.060000000000002
 20
0.96
 10
30.0
 20
0.9400000000000004
 10
29.939999999999998
 20
0.9400000000000004
 10
29.879999999999995
 20
0.9400000000000004
 10
29.819999999999993
 20
0.9400000000000004
 10
29.78
 20
0.9400000000000004
 10
29.72
 20
0.9199999999999999
 10
29.659999999999997
 20
0.9199999999999999
 10
29.599999999999994
 20
0.9199999999999999
 10
29.539999999999992
 20
0.9199999999999999
 10
29.47999999999999
 20
0.9199999999999999
 10
29.419999999999987
 20
0.9000000000000004
 10
29.360000000000014
 20
0.9000000000000004
 10
29.30000000000001
 20
0.9000000000000004
 10
29.24000000000001
 20
0.9000000000000004
 10
29.180000000000007
 20
0.8799999999999999
 10
29.120000000000005
 20
0.8799999999999999
 10
29.060000000000002
 20
0.8799999999999999
 10
29.0
 20
0.8799999999999999
 10
28.939999999999998
 20
0.8799999999999999
 10
28.879999999999995
 20
0.8600000000000003
 10
28.819999999999993
 20
0.8600000000000003
 10
28.75999999999999
 20
0.8600000000000003
 10
28.69999999999999
 20
0.8600000000000003
 10
28.620000000000005
 20
0.8600000000000003
 10
28.560000000000002
 20
0.8400000000000007
 10
28.5
 20
0.8400000000000007
 10
28.439999999999998
 20
0.8400000000000007
 10
28.379999999999995
 20
0.8400000000000007
 10
28.30000000000001
 20
0.8200000000000003
 10
28.24000000000001
 20
0.8200000000000003
 10
28.180000000000007
 20
0.8200000000000003
 10
28.120000000000005
 20
0.8200000000000003
 10
28.060000000000002
 20
0.8200000000000003
 10
28.0
 20
0.8000000000000007
 10
27.939999999999998
 20
0.8000000000000007
 10
27.879999999999995
 20
0.8000000000000007
 10
27.819999999999993
 20
0.8000000000000007
 10
27.75999999999999
 20
0.8000000000000007
 10
27.69999999999999
 20
0.8000000000000007
 10
27.639999999999986
 20
0.7800000000000002
 10
27.580000000000013
 20
0.7800000000000002
 10
27.52000000000001
 20
0.7800000000000002
 10
27.460000000000008
 20
0.7800000000000002
 10
27.400000000000006
 20
0.7800000000000002
 10
27.340000000000003
 20
0.7600000000000007
 10
27.28
 20
0.7600000000000007
 10
27.22
 20
0.7600000000000007
 10
27.159999999999997
 20
0.7600000000000007
 10
27.099999999999994
 20
0.7600000000000007
 10
27.039999999999992
 20
0.7400000000000002
 10
26.97999999999999
 20
0.7400000000000002
 10
26.900000000000006
 20
0.7400000000000002
 10
26.840000000000003
 20
0.7400000000000002
 10
26.78
 20
0.7400000000000002
 10
26.72
 20
0.7200000000000006
 10
26.659999999999997
 20
0.7200000000000006
 10
26.599999999999994
 20
0.7200000000000006
 10
26.52000000000001
 20
0.7200000000000006
 10
26.460000000000008
 20
0.7200000000000006
 10
26.400000000000006
 20
0.7200000000000006
 10
26.319999999999993
 20
0.7000000000000002
 10
26.25999999999999
 20
0.7000000000000002
 10
26.19999999999999
 20
0.7000000000000002
 10
26.139999999999986
 20
0.7000000000000002
 10
26.099999999999994
 20
0.7000000000000002
 10
26.039999999999992
 20
0.6800000000000006
 10
25.97999999999999
 20
0.6800000000000006
 10
25.939999999999998
 20
0.6800000000000006
 10
25.879999999999995
 20
0.6800000000000006
 10
25.819999999999993
 20
0.6800000000000006
 10
25.78
 20
0.6800000000000006
 10
25.72
 20
0.6800000000000006
 10
25.659999999999997
 20
0.6600000000000001
 10
25.620000000000005
 20
0.6600000000000001
 10
25.560000000000002
 20
0.6600000000000001
 10
25.5
 20
0.6600000000000001
 10
25.439999999999998
 20
0.6600000000000001
 10
25.400000000000006
 20
0.6600000000000001
 10
25.340000000000003
 20
0.6400000000000006
 10
25.28
 20
0.6400000000000006
 10
25.22
 20
0.6400000000000006
 10
25.180000000000007
 20
0.6400000000000006
 10
25.120000000000005
 20
0.6400000000000006
 10
25.060000000000002
 20
0.6400000000000006
 10
25.0
 20
0.6400000000000006
 10
24.939999999999998
 20
0.6200000000000001
 10
24.900000000000006
 20
0.6200000000000001
 10
24.840000000000003
 20
0.6200000000000001
 10
24.78
 20
0.6200000000000001
 10
24.72
 20
0.6200000000000001
 10
24.659999999999997
 20
0.6200000000000001
 10
24.599999999999994
 20
0.6000000000000005
 10
24.539999999999992
 20
0.6000000000000005
 10
24.47999999999999
 20
0.6000000000000005
 10
24.439999999999998
 20
0.6000000000000005
 10
24.400000000000006
 20
0.6000000000000005
 10
24.340000000000003
 20
0.6000000000000005
 10
24.319999999999993
 20
0.6000000000000005
 10
24.28
 20
0.5800000000000001
 10
24.24000000000001
 20
0.5800000000000001
 10
24.19999999999999
 20
0.5800000000000001
 10
24.159999999999997
 20
0.5800000000000001
 10
24.120000000000005
 20
0.5800000000000001
 10
24.080000000000013
 20
0.5800000000000001
 10
24.039999999999992
 20
0.5800000000000001
 10
24.0
 20
0.5800000000000001
 10
23.939999999999998
 20
0.5800000000000001
 10
23.900000000000006
 20
0.5800000000000001
 10
23.860000000000014
 20
0.5600000000000005
 10
23.819999999999993
 20
0.5600000000000005
 10
23.78
 20
0.5600000000000005
 10
23.74000000000001
 20
0.5600000000000005
 10
23.69999999999999
 20
0.5600000000000005
 10
23.659999999999997
 20
0.5600000000000005
 10
23.620000000000005
 20
0.5600000000000005
 10
23.580000000000013
 20
0.5600000000000005
 10
23.539999999999992
 20
0.54
 10
23.5
 20
0.54
 10
23.460000000000008
 20
0.54
 10
23.419999999999987
 20
0.54
 10
23.360000000000014
 20
0.54
 10
23.319999999999993
 20
0.54
 10
23.28
 20
0.54
 10
23.24000000000001
 20
0.54
 10
23.19999999999999
 20
0.54
 10
23.159999999999997
 20
0.5200000000000005
 10
23.120000000000005
 20
0.5200000000000005
 10
23.080000000000013
 20
0.5200000000000005
 10
23.060000000000002
 20
0.5200000000000005
 10
23.039999999999992
 20
0.5200000000000005
 10
23.02000000000001
 20
0.5200000000000005
 10
23.0
 20
0.5200000000000005
 10
22.97999999999999
 20
0.5200000000000005
 10
22.960000000000008
 20
0.5200000000000005
 10
22.939999999999998
 20
0.5200000000000005
 10
22.919999999999987
 20
0.5200000000000005
 10
22.900000000000006
 20
0.5200000000000005
 10
22.879999999999995
 20
0.5200000000000005
 10
22.860000000000014
 20
0.5200000000000005
 10
22.840000000000003
 20
0.5200000000000005
 10
22.80000000000001
 20
0.5200000000000005
 10
22.78
 20
0.5200000000000005
 10
22.75999999999999
 20
0.5
 10
22.74000000000001
 20
0.5
 10
22.72
 20
0.5
 10
22.69999999999999
 20
0.5
 10
22.680000000000007
 20
0.5
 10
22.659999999999997
 20
0.5
 10
22.639999999999986
 20
0.5
 10
22.620000000000005
 20
0.5
 10
22.580000000000013
 20
0.5
 10
22.560000000000002
 20
0.5
 10
22.539999999999992
 20
0.5
 10
22.52000000000001
 20
0.5
 10
22.5
 20
0.5
 10
22.47999999999999
 20
0.5
 10
22.460000000000008
 20
0.5
 10
22.439999999999998
 20
0.5
 10
22.400000000000006
 20
0.5
 10
21.879999999999995
 20
0.28000000000000025
 10
21.340000000000003
 20
0.1200000000000001
 10
20.80000000000001
 20
0.040000000000000036
 10
20.24000000000001
 20
0.0
 10
19.680000000000007
 20
0.020000000000000462
 10
19.120000000000005
 20
0.10000000000000053
 10
18.580000000000013
 20
0.2600000000000007
 10
18.060000000000002
 20
0.45999999999999996
 10
8.379999999999995
 20
0.45999999999999996
 10
3.4200000000000017
 20
0.4800000000000004
 10
2.780000000000001
 20
0.54
 10
2.180000000000007
 20
0.7200000000000006
 10
1.6400000000000006
 20
0.9800000000000004
 10
1.1400000000000006
 20
1.3400000000000007
 10
0.7399999999999949
 20
1.7800000000000002
 10
0.4000000000000057
 20
2.3
 10
0.14000000000000057
 20
2.8600000000000003
 10
0.0
 20
3.500000000000001
 10
0.0
 20
21.5
 10
0.14000000000000057
 20
22.12
 10
0.4000000000000057
 20
22.68
 10
0.7399999999999949
 20
23.2
 10
1.1400000000000006
 20
23.64
 10
1.6400000000000006
 20
24.0
 10
2.180000000000007
 20
24.259999999999998
 10
2.780000000000001
 20
24.439999999999998
 10
3.4200000000000017
 20
24.5
 10
8.379999999999995
 20
24.52
 10
18.060000000000002
 20
24.52
 10
18.580000000000013
 20
24.72
 10
19.120000000000005
 20
24.88
 10
19.680000000000007
 20
24.96
 10
20.24000000000001
 20
24.98
 10
20.80000000000001
 20
24.939999999999998
 10
21.340000000000003
 20
24.86
 10
21.879999999999995
 20
24.7
 10
22.400000000000006
 20
24.5
 10
22.439999999999998
 20
24.48
 10
22.460000000000008
 20
24.48
 10
22.47999999999999
 20
24.48
 10
22.5
 20
24.48
 10
22.52000000000001
 20
24.48
 10
22.539999999999992
 20
24.48
 10
22.560000000000002
 20
24.48
 10
22.580000000000013
 20
24.48
 10
22.620000000000005
 20
24.48
 10
22.639999999999986
 20
24.48
 10
22.659999999999997
 20
24.48
 10
22.680000000000007
 20
24.48
 10
22.69999999999999
 20
24.48
 10
22.72
 20
24.48
 10
22.74000000000001
 20
24.48
 10
22.75999999999999
 20
24.48
 10
22.78
 20
24.48
 10
22.80000000000001
 20
24.46
 10
22.840000000000003
 20
24.46
 10
22.860000000000014
 20
24.46
 10
22.879999999999995
 20
24.46
 10
22.900000000000006
 20
24.46
 10
22.919999999999987
 20
24.46
 10
22.939999999999998
 20
24.46
 10
22.960000000000008
 20
24.46
 10
22.97999999999999
 20
24.46
 10
23.0
 20
24.46
 10
23.02000000000001
 20
24.46
 10
23.039999999999992
 20
24.46
 10
23.060000000000002
 20
24.46
 10
23.080000000000013
 20
24.46
 10
23.120000000000005
 20
24.46
 10
23.159999999999997
 20
24.46
 10
23.19999999999999
 20
24.439999999999998
 10
23.24000000000001
 20
24.439999999999998
 10
23.28
 20
24.439999999999998
 10
23.319999999999993
 20
24.439999999999998
 10
23.360000000000014
 20
24.439999999999998
 10
23.419999999999987
 20
24.439999999999998
 10
23.460000000000008
 20
24.439999999999998
 10
23.5
 20
24.439999999999998
 10
23.539999999999992
 20
24.439999999999998
 10
23.580000000000013
 20
24.419999999999998
 10
23.620000000000005
 20
24.419999999999998
 10
23.659999999999997
 20
24.419999999999998
 10
23.69999999999999
 20
24.419999999999998
 10
23.74000000000001
 20
24.419999999999998
 10
23.78
 20
24.419999999999998
 10
23.819999999999993
 20
24.419999999999998
 10
23.860000000000014
 20
24.419999999999998
 10
23.900000000000006
 20
24.419999999999998
 10
23.939999999999998
 20
24.4
 10
24.0
 20
24.4
 10
24.039999999999992
 20
24.4
 10
24.080000000000013
 20
24.4
 10
24.120000000000005
 20
24.4
 10
24.159999999999997
 20
24.4
 10
24.19999999999999
 20
24.4
 10
24.24000000000001
 20
24.4
 10
24.28
 20
24.4
 10
24.319999999999993
 20
24.38
 10
24.340000000000003
 20
24.38
 10
24.400000000000006
 20
24.38
 10
24.439999999999998
 20
24.38
 10
24.47999999999999
 20
24.38
 10
24.539999999999992
 20
24.38
 10
24.599999999999994
 20
24.38
 10
24.659999999999997
 20
24.36
 10
24.72
 20
24.36
 10
24.78
 20
24.36
 10
24.840000000000003
 20
24.36
 10
24.900000000000006
 20
24.36
 10
24.939999999999998
 20
24.36
 10
25.0
 20
24.36
 10
25.060000000000002
 20
24.34
 10
25.120000000000005
 20
24.34
 10
25.180000000000007
 20
24.34
 10
25.22
 20
24.34
 10
25.28
 20
24.34
 10
25.340000000000003
 20
24.34
 10
25.400000000000006
 20
24.32
 10
25.439999999999998
 20
24.32
 10
25.5
 20
24.32
 10
25.560000000000002
 20
24.32
 10
25.620000000000005
 20
24.32
 10
25.659999999999997
 20
24.32
 10
25.72
 20
24.3
 10
25.78
 20
24.3
 10
25.819999999999993
 20
24.3
 10
25.879999999999995
 20
24.3
 10
25.939999999999998
 20
24.3
 10
25.97999999999999
 20
24.3
 10
26.039999999999992
 20
24.3
 10
26.099999999999994
 20
24.28
 10
26.139999999999986
 20
24.28
 10
26.19999999999999
 20
24.28
 10
26.25999999999999
 20
24.28
 10
26.319999999999993
 20
24.28
 10
26.400000000000006
 20
24.28
 10
26.460000000000008
 20
24.259999999999998
 10
26.52000000000001
 20
24.259999999999998
 10
26.599999999999994
 20
24.259999999999998
 10
26.659999999999997
 20
24.259999999999998
 10
26.72
 20
24.259999999999998
 10
26.78
 20
24.24
 10
26.840000000000003
 20
24.24
 10
26.900000000000006
 20
24.24
 10
26.97999999999999
 20
24.24
 10
27.039999999999992
 20
24.24
 10
27.099999999999994
 20
24.22
 10
27.159999999999997
 20
24.22
 10
27.22
 20
24.22
 10
27.28
 20
24.22
 10
27.340000000000003
 20
24.22
 10
27.400000000000006
 20
24.2
 10
27.460000000000008
 20
24.2
 10
27.52000000000001
 20
24.2
 10
27.580000000000013
 20
24.2
 10
27.639999999999986
 20
24.2
 10
27.69999999999999
 20
24.2
 10
27.75999999999999
 20
24.18
 10
27.819999999999993
 20
24.18
 10
27.879999999999995
 20
24.18
 10
27.939999999999998
 20
24.18
 10
28.0
 20
24.18
 10
28.060000000000002
 20
24.16
 10
28.120000000000005
 20
24.16
 10
28.180000000000007
 20
24.16
 10
28.24000000000001
 20
24.16
 10
28.30000000000001
 20
24.16
 10
28.379999999999995
 20
24.14
 10
28.439999999999998
 20
24.14
 10
28.5
 20
24.14
 10
28.560000000000002
 20
24.14
 10
28.620000000000005
 20
24.14
 10
28.69999999999999
 20
24.12
 10
28.75999999999999
 20
24.12
 10
28.819999999999993
 20
24.12
 10
28.879999999999995
 20
24.12
 10
28.939999999999998
 20
24.099999999999998
 10
29.0
 20
24.099999999999998
 10
29.060000000000002
 20
24.099999999999998
 10
29.120000000000005
 20
24.099999999999998
 10
29.180000000000007
 20
24.099999999999998
 10
29.24000000000001
 20
24.08
 10
29.30000000000001
 20
24.08
 10
29.360000000000014
 20
24.08
 10
29.419999999999987
 20
24.08
 10
29.47999999999999
 20
24.08
 10
29.539999999999992
 20
24.06
 10
29.599999999999994
 20
24.06
 10
29.659999999999997
 20
24.06
 10
29.72
 20
24.06
 10
29.78
 20
24.04
 10
29.819999999999993
 20
24.04
 10
29.879999999999995
 20
24.04
 10
29.939999999999998
 20
24.04
 10
30.0
 20
24.04
 10
30.060000000000002
 20
24.02
 10
30.099999999999994
 20
24.02
 10
30.159999999999997
 20
24.02
 10
30.19999999999999
 20
24.02
 10
30.25999999999999
 20
24.02
 10
30.30000000000001
 20
24.0
 10
30.360000000000014
 20
24.0
 10
30.400000000000006
 20
24.0
 10
30.439999999999998
 20
24.0
 10
30.5
 20
24.0
 10
30.539999999999992
 20
23.98
 10
30.599999999999994
 20
23.98
 10
30.639999999999986
 20
23.98
 10
30.680000000000007
 20
23.98
 10
30.74000000000001
 20
23.98
 10
30.78
 20
23.96
 10
30.819999999999993
 20
23.96
 10
30.879999999999995
 20
23.96
 10
30.919999999999987
 20
23.96
 10
30.960000000000008
 20
23.96
 10
31.0
 20
23.939999999999998
 10
31.060000000000002
 20
23.939999999999998
 10
31.099999999999994
 20
23.939999999999998
 10
31.139999999999986
 20
23.939999999999998
 10
31.180000000000007
 20
23.939999999999998
 10
31.22
 20
23.919999999999998
 10
31.28
 20
23.919999999999998
 10
31.319999999999993
 20
23.919999999999998
 10
31.360000000000014
 20
23.919999999999998
 10
31.400000000000006
 20
23.9
 10
31.439999999999998
 20
23.9
 10
31.47999999999999
 20
23.9
 10
31.52000000000001
 20
23.9
 10
31.560000000000002
 20
23.9
 10
31.599999999999994
 20
23.88
 10
31.639999999999986
 20
23.88
 10
31.680000000000007
 20
23.88
 10
31.72
 20
23.88
 10
31.75999999999999
 20
23.88
 10
31.78
 20
23.86
 10
31.819999999999993
 20
23.86
 10
31.860000000000014
 20
23.86
 10
31.900000000000006
 20
23.86
 10
31.919999999999987
 20
23.86
 10
31.960000000000008
 20
23.86
 10
32.0
 20
23.84
 10
32.03999999999999
 20
23.84
 10
32.06
 20
23.84
 10
32.099999999999994
 20
23.84
 10
32.139999999999986
 20
23.82
 10
32.18000000000001
 20
23.82
 10
32.19999999999999
 20
23.82
 10
32.24000000000001
 20
23.82
 10
32.28
 20
23.82
 10
32.30000000000001
 20
23.8
 10
32.34
 20
23.8
 10
32.379999999999995
 20
23.8
 10
32.400000000000006
 20
23.8
 10
32.44
 20
23.8
 10
32.46000000000001
 20
23.78
 10
32.5
 20
23.78
 10
32.53999999999999
 20
23.78
 10
32.56
 20
23.78
 10
32.599999999999994
 20
23.78
 10
32.639999999999986
 20
23.759999999999998
 10
32.66
 20
23.759999999999998
 10
32.68000000000001
 20
23.759999999999998
 10
32.72
 20
23.759999999999998
 10
32.74000000000001
 20
23.74
 10
32.78
 20
23.74
 10
32.80000000000001
 20
23.74
 10
32.81999999999999
 20
23.74
 10
32.860000000000014
 20
23.74
 10
32.879999999999995
 20
23.72
 10
32.900000000000006
 20
23.72
 10
32.94
 20
23.72
 10
32.96000000000001
 20
23.72
 10
32.97999999999999
 20
23.72
 10
33.02000000000001
 20
23.7
 10
33.03999999999999
 20
23.7
 10
33.06
 20
23.7
 10
33.08000000000001
 20
23.7
 10
33.120000000000005
 20
23.7
 10
33.139999999999986
 20
23.68
 10
33.16
 20
23.68
 10
33.19999999999999
 20
23.68
 10
33.22
 20
23.68
 10
33.24000000000001
 20
23.66
 10
33.25999999999999
 20
23.66
 10
33.30000000000001
 20
23.66
 10
33.31999999999999
 20
23.66
 10
33.34
 20
23.66
 10
33.360000000000014
 20
23.64
 10
33.400000000000006
 20
23.64
 10
33.41999999999999
 20
23.64
 10
33.44
 20
23.64
 10
33.46000000000001
 20
23.62
 10
33.47999999999999
 20
23.62
 10
33.52000000000001
 20
23.62
 10
33.53999999999999
 20
23.62
 10
33.56
 20
23.599999999999998
 10
33.58000000000001
 20
23.599999999999998
 10
33.599999999999994
 20
23.599999999999998
 10
33.620000000000005
 20
23.599999999999998
 10
33.639999999999986
 20
23.599999999999998
 10
33.66
 20
23.58
 10
33.68000000000001
 20
23.58
 10
33.69999999999999
 20
23.58
 10
33.72
 20
23.58
 10
33.74000000000001
 20
23.56
 10
33.75999999999999
 20
23.56
 10
33.78
 20
23.56
 10
33.80000000000001
 20
23.56
 10
33.81999999999999
 20
23.54
 10
33.84
 20
23.54
 10
33.860000000000014
 20
23.54
 10
33.879999999999995
 20
23.54
 10
33.900000000000006
 20
23.54
 10
33.91999999999999
 20
23.52
 10
33.94
 20
23.52
 10
33.96000000000001
 20
23.52
 10
33.97999999999999
 20
23.52
 10
34.0
 20
23.5
 10
34.02000000000001
 20
23.5
 10
34.03999999999999
 20
23.5
 10
34.06
 20
23.5
 10
34.08000000000001
 20
23.48
 10
34.099999999999994
 20
23.48
 10
34.120000000000005
 20
23.48
 10
34.139999999999986
 20
23.46
 10
34.16
 20
23.46
 10
34.18000000000001
 20
23.46
 10
34.19999999999999
 20
23.46
 10
34.22
 20
23.439999999999998
 10
34.24000000000001
 20
23.439999999999998
 10
34.25999999999999
 20
23.439999999999998
 10
34.28
 20
23.419999999999998
 10
34.30000000000001
 20
23.419999999999998
 10
34.31999999999999
 20
23.419999999999998
 10
34.34
 20
23.4
 10
34.360000000000014
 20
23.4
 10
34.379999999999995
 20
23.4
 10
34.400000000000006
 20
23.38
 10
34.41999999999999
 20
23.38
 10
34.44
 20
23.38
 10
34.46000000000001
 20
23.38
 10
34.46000000000001
 20
23.36
 10
34.47999999999999
 20
23.36
 10
34.5
 20
23.36
 10
34.52000000000001
 20
23.36
 10
34.53999999999999
 20
23.34
 10
34.56
 20
23.34
 10
34.58000000000001
 20
23.32
 10
34.599999999999994
 20
23.32
 10
34.620000000000005
 20
23.32
 10
34.639999999999986
 20
23.3
 10
34.66
 20
23.3
 10
34.68000000000001
 20
23.3
 10
34.69999999999999
 20
23.28
 10
34.72
 20
23.28
 10
34.74000000000001
 20
23.28
 10
34.74000000000001
 20
23.259999999999998
 10
34.75999999999999
 20
23.259999999999998
 10
34.78
 20
23.259999999999998
 10
34.80000000000001
 20
23.24
 10
34.81999999999999
 20
23.24
 10
34.84
 20
23.22
 10
34.860000000000014
 20
23.22
 10
34.879999999999995
 20
23.22
 10
34.879999999999995
 20
23.2
 10
34.900000000000006
 20
23.2
 10
34.91999999999999
 20
23.2
 10
34.94
 20
23.18
 10
34.96000000000001
 20
23.18
 10
34.97999999999999
 20
23.16
 10
35.0
 20
23.16
 10
35.02000000000001
 20
23.14
 10
35.03999999999999
 20
23.14
 10
35.06
 20
23.14
 10
35.06
 20
23.12
 10
35.08000000000001
 20
23.12
 10
35.099999999999994
 20
23.099999999999998
 10
35.120000000000005
 20
23.099999999999998
 10
35.139999999999986
 20
23.099999999999998
 10
35.139999999999986
 20
23.08
 10
35.16
 20
23.08
 10
35.18000000000001
 20
23.08
 10
35.18000000000001
 20
23.06
 10
35.19999999999999
 20
23.06
 10
35.22
 20
23.06
 10
35.22
 20
23.04
 10
35.24000000000001
 20
23.04
 10
35.25999999999999
 20
23.02
 10
35.28
 20
23.02
 10
35.30000000000001
 20
23.0
 10
35.31999999999999
 20
23.0
 10
35.31999999999999
 20
22.98
 10
35.34
 20
22.98
 10
35.360000000000014
 20
22.98
 10
35.360000000000014
 20
22.96
 10
35.379999999999995
 20
22.96
 10
35.400000000000006
 20
22.939999999999998
 10
35.41999999999999
 20
22.939999999999998
 10
35.44
 20
22.919999999999998
 10
35.46000000000001
 20
22.919999999999998
 10
35.46000000000001
 20
22.9
 10
35.47999999999999
 20
22.9
 10
35.5
 20
22.88
 10
35.52000000000001
 20
22.86
 10
35.53999999999999
 20
22.86
 10
35.53999999999999
 20
22.84
 10
35.56
 20
22.84
 10
35.58000000000001
 20
22.84
 10
35.58000000000001
 20
22.82
 10
35.599999999999994
 20
22.82
 10
35.620000000000005
 20
22.8
 10
35.639999999999986
 20
22.8
 10
35.639999999999986
 20
22.78
 10
35.66
 20
22.78
 10
35.66
 20
22.759999999999998
 10
35.68000000000001
 20
22.759999999999998
 10
35.68000000000001
 20
22.74
 10
35.69999999999999
 20
22.74
 10
35.72
 20
22.72
 10
35.74000000000001
 20
22.7
 10
35.75999999999999
 20
22.7
 10
35.75999999999999
 20
22.68
 10
35.78
 20
22.68
 10
35.78
 20
22.66
 10
35.80000000000001
 20
22.66
 10
35.80000000000001
 20
22.64
 10
35.81999999999999
 20
22.64
 10
35.84
 20
22.62
 10
35.84
 20
22.599999999999998
 10
35.860000000000014
 20
22.599999999999998
 10
35.879999999999995
 20
22.58
 10
35.900000000000006
 20
22.56
 10
35.91999999999999
 20
22.56
 10
35.91999999999999
 20
22.54
 10
35.94
 20
22.52
 10
35.96000000000001
 20
22.52
 10
35.96000000000001
 20
22.5
 10
35.97999999999999
 20
22.48
 10
36.0
 20
22.46
 10
36.02000000000001
 20
22.439999999999998
 10
36.02000000000001
 20
22.419999999999998
 10
36.03999999999999
 20
22.419999999999998
 10
36.03999999999999
 20
22.4
 10
36.06
 20
22.4
 10
36.06
 20
22.38
 10
36.08000000000001
 20
22.38
 10
36.08000000000001
 20
22.36
 10
36.099999999999994
 20
22.36
 10
36.099999999999994
 20
22.34
 10
36.099999999999994
 20
22.32
 10
36.120000000000005
 20
22.32
 10
36.120000000000005
 20
22.3
 10
36.139999999999986
 20
22.3
 10
36.139999999999986
 20
22.28
 10
36.16
 20
22.28
 10
36.16
 20
22.259999999999998
 10
36.18000000000001
 20
22.24
 10
36.18000000000001
 20
22.22
 10
36.19999999999999
 20
22.22
 10
36.19999999999999
 20
22.2
 10
36.22
 20
22.18
 10
36.22
 20
22.16
 10
36.24000000000001
 20
22.16
 10
36.24000000000001
 20
22.14
 10
36.24000000000001
 20
22.12
 10
36.25999999999999
 20
22.12
 10
36.25999999999999
 20
22.099999999999998
 10
36.28
 20
22.099999999999998
 10
36.28
 20
22.08
 10
36.28
 20
22.06
 10
36.30000000000001
 20
22.06
 10
36.30000000000001
 20
22.04
 10
36.30000000000001
 20
22.02
 10
36.31999999999999
 20
22.02
 10
36.31999999999999
 20
22.0
 10
36.31999999999999
 20
21.98
 10
36.34
 20
21.98
 10
36.34
 20
21.96
 10
36.34
 20
21.939999999999998
 10
36.360000000000014
 20
21.939999999999998
 10
36.360000000000014
 20
21.919999999999998
 10
36.360000000000014
 20
21.9
 10
36.379999999999995
 20
21.9
 10
36.379999999999995
 20
21.88
 10
36.379999999999995
 20
21.86
 10
36.400000000000006
 20
21.86
 10
36.400000000000006
 20
21.84
 10
36.400000000000006
 20
21.82
 10
36.41999999999999
 20
21.82
 10
36.41999999999999
 20
21.8
 10
36.41999999999999
 20
21.78
 10
36.41999999999999
 20
21.759999999999998
 10
36.44
 20
21.759999999999998
 10
36.44
 20
21.74
 10
36.44
 20
21.72
 10
36.46000000000001
 20
21.7
 10
36.46000000000001
 20
21.68
 10
36.46000000000001
 20
21.66
 10
36.47999999999999
 20
21.64
 10
36.47999999999999
 20
21.62
 10
36.47999999999999
 20
21.599999999999998
 10
36.47999999999999
 20
21.58
 10
36.5
 20
21.58
 10
36.5
 20
21.56
 10
36.5
 20
21.54
 10
36.5
 20
21.52
 10
36.52000000000001
 20
21.5
 10
36.52000000000001
 20
21.48
 10
36.52000000000001
 20
21.46
 10
36.52000000000001
 20
21.439999999999998
 10
36.52000000000001
 20
21.419999999999998
 10
36.53999999999999
 20
21.419999999999998
 10
36.53999999999999
 20
21.4
 10
36.53999999999999
 20
21.38
 10
36.53999999999999
 20
21.36
 10
36.53999999999999
 20
21.34
 10
36.53999999999999
 20
21.32
 10
36.56
 20
21.32
 10
36.56
 20
21.3
 10
36.56
 20
21.28
 10
36.56
 20
21.259999999999998
 10
36.56
 20
21.24
 10
36.56
 20
21.22
 10
36.56
 20
21.2
 10
36.58000000000001
 20
21.18
 10
36.58000000000001
 20
21.16
 10
36.58000000000001
 20
21.14
 10
36.58000000000001
 20
21.12
 10
36.58000000000001
 20
21.099999999999998
 10
36.58000000000001
 20
21.08
 10
36.58000000000001
 20
21.06
 10
36.58000000000001
 20
21.04
 10
36.58000000000001
 20
21.02
 10
36.58000000000001
 20
21.0
 10
36.58000000000001
 20
20.98
 10
36.58000000000001
 20
20.96
 10
36.599999999999994
 20
20.939999999999998
 10
36.599999999999994
 20
20.919999999999998
 10
36.599999999999994
 20
20.9
 10
36.599999999999994
 20
20.88
 10
36.599999999999994
 20
20.86
 10
36.599999999999994
 20
20.84
 10
36.599999999999994
 20
20.82
 10
36.599999999999994
 20
20.8
 10
36.599999999999994
 20
20.78
 10
36.599999999999994
 20
20.759999999999998
 10
36.599999999999994
 20
20.74
 10
36.599999999999994
 20
20.72
 10
36.599999999999994
 20
20.7
 10
36.599999999999994
 20
20.68
 10
36.599999999999994
 20
20.66
 10
36.599999999999994
 20
20.64
 10
36.58000000000001
 20
20.62
 10
36.58000000000001
 20
20.599999999999998
 10
36.58000000000001
 20
20.58
 10
36.58000000000001
 20
20.56
 10
36.58000000000001
 20
20.54
 10
36.58000000000001
 20
20.52
 10
36.58000000000001
 20
20.5
 10
36.58000000000001
 20
20.48
 10
36.58000000000001
 20
20.439999999999998
 10
36.58000000000001
 20
20.419999999999998
 10
36.58000000000001
 20
20.4
 10
36.58000000000001
 20
20.38
 10
36.56
 20
20.34
 10
36.56
 20
20.32
 10
36.56
 20
20.3
 10
36.56
 20
20.28
 10
36.56
 20
20.24
 10
36.56
 20
20.22
 10
36.53999999999999
 20
20.2
 10
36.53999999999999
 20
20.16
 10
36.53999999999999
 20
20.14
 10
36.53999999999999
 20
20.12
 10
36.53999999999999
 20
20.099999999999998
 10
36.52000000000001
 20
20.06
 10
36.52000000000001
 20
20.04
 10
36.52000000000001
 20
20.02
 10
36.52000000000001
 20
19.98
 10
36.5
 20
19.96
 10
36.5
 20
19.939999999999998
 10
36.5
 20
19.9
 10
36.5
 20
19.88
 10
36.47999999999999
 20
19.84
 10
36.47999999999999
 20
19.82
 10
36.47999999999999
 20
19.8
 10
36.47999999999999
 20
19.759999999999998
 10
36.46000000000001
 20
19.74
 10
36.46000000000001
 20
19.7
 10
36.46000000000001
 20
19.68
 10
36.44
 20
19.66
 10
36.44
 20
19.62
 10
36.44
 20
19.599999999999998
 10
36.41999999999999
 20
19.58
 10
36.41999999999999
 20
19.54
 10
36.41999999999999
 20
19.52
 10
36.400000000000006
 20
19.5
 10
36.400000000000006
 20
19.46
 10
36.400000000000006
 20
19.439999999999998
 10
36.379999999999995
 20
19.419999999999998
 10
36.379999999999995
 20
19.38
 10
36.360000000000014
 20
19.36
 10
36.360000000000014
 20
19.32
 10
36.360000000000014
 20
19.3
 10
36.34
 20
19.28
 10
36.34
 20
19.24
 10
36.31999999999999
 20
19.22
 10
36.31999999999999
 20
19.18
 10
36.31999999999999
 20
19.16
 10
36.30000000000001
 20
19.12
 10
36.30000000000001
 20
19.099999999999998
 10
36.28
 20
19.08
 10
36.28
 20
19.04
 10
36.25999999999999
 20
19.02
 10
36.25999999999999
 20
18.98
 10
36.24000000000001
 20
18.96
 10
36.24000000000001
 20
18.919999999999998
 10
36.22
 20
18.9
 10
36.22
 20
18.86
 10
36.19999999999999
 20
18.84
 10
36.19999999999999
 20
18.8
 10
36.18000000000001
 20
18.78
 10
36.18000000000001
 20
18.759999999999998
 10
36.16
 20
18.74
 10
36.16
 20
18.7
 10
36.139999999999986
 20
18.68
 10
36.139999999999986
 20
18.66
 10
36.139999999999986
 20
18.62
 10
36.120000000000005
 20
18.599999999999998
 10
36.120000000000005
 20
18.58
 10
36.099999999999994
 20
18.56
 10
36.099999999999994
 20
18.52
 10
36.08000000000001
 20
18.5
 10
36.08000000000001
 20
18.48
 10
36.06
 20
18.439999999999998
 10
36.06
 20
18.419999999999998
 10
36.03999999999999
 20
18.4
 10
36.03999999999999
 20
18.36
 10
36.02000000000001
 20
18.34
 10
36.02000000000001
 20
18.32
 10
36.0
 20
18.28
 10
35.97999999999999
 20
18.259999999999998
 10
35.97999999999999
 20
18.24
 10
35.96000000000001
 20
18.2
 10
35.96000000000001
 20
18.18
 10
35.94
 20
18.16
 10
35.94
 20
18.12
 10
35.91999999999999
 20
18.099999999999998
 10
35.91999999999999
 20
18.08
 10
35.900000000000006
 20
18.04
 10
35.879999999999995
 20
18.02
 10
35.879999999999995
 20
17.98
 10
35.860000000000014
 20
17.96
 10
35.860000000000014
 20
17.939999999999998
 10
35.84
 20
17.919999999999998
 10
35.84
 20
17.9
 10
35.84
 20
17.88
 10
35.81999999999999
 20
17.86
 10
35.81999999999999
 20
17.84
 10
35.80000000000001
 20
17.82
 10
35.80000000000001
 20
17.8
 10
35.78
 20
17.78
 10
35.78
 20
17.759999999999998
 10
35.75999999999999
 20
17.74
 10
35.75999999999999
 20
17.72
 10
35.74000000000001
 20
17.7
 10
35.74000000000001
 20
17.68
 10
35.74000000000001
 20
17.66
 10
35.72
 20
17.64
 10
35.72
 20
17.62
 10
35.69999999999999
 20
17.599999999999998
 10
35.69999999999999
 20
17.58
 10
35.68000000000001
 20
17.56
 10
35.68000000000001
 20
17.54
 10
35.66
 20
17.52
 10
35.66
 20
17.5
 10
35.639999999999986
 20
17.48
 10
35.639999999999986
 20
17.46
 10
35.620000000000005
 20
17.439999999999998
 10
35.620000000000005
 20
17.419999999999998
 10
35.599999999999994
 20
17.4
 10
35.599999999999994
 20
17.38
 10
35.58000000000001
 20
17.34
 10
35.58000000000001
 20
17.32
 10
35.56
 20
17.3
 10
35.56
 20
17.28
 10
35.53999999999999
 20
17.259999999999998
 10
35.53999999999999
 20
17.24
 10
35.52000000000001
 20
17.22
 10
35.52000000000001
 20
17.2
 10
35.5
 20
17.18
 10
35.5
 20
17.16
 10
35.47999999999999
 20
17.14
 10
35.47999999999999
 20
17.12
 10
35.46000000000001
 20
17.099999999999998
 10
35.46000000000001
 20
17.08
 10
35.44
 20
17.06
 10
35.44
 20
17.04
 10
35.41999999999999
 20
17.02
 10
35.41999999999999
 20
17.0
 10
35.400000000000006
 20
16.98
  0
LWPOLYLINE
  5
31
330
17
100
AcDbEntity
  8
CORTE
100
AcDbPolyline
 90
16
 70
1
 10
12.900000000000006
 20
21.7
 10
12.900000000000006
 20
18.7
 10
7.400000000000006
 20
18.7
 10
7.400000000000006
 20
15.0
 10
5.920000000000002
 20
15.0
 10
5.920000000000002
 20
10.0
 10
7.400000000000006
 20
10.0
 10
7.400000000000006
 20
6.3
 10
12.900000000000006
 20
6.3
 10
12.900000000000006
 20
3.3
 10
27.69999999999999
 20
3.3
 10
27.69999999999999
 20
6.3
 10
30.400000000000006
 20
6.3
 10
30.400000000000006
 20
18.7
 10
24.900000000000006
 20
18.7
 10
24.900000000000006
 20
21.7
  0
CIRCLE
  5
32
330
17
100
AcDbEntity
  8
CORTE
100
AcDbCircle
 10
3.009991220368747
 20
20.991314018144575
 30
0.0
 40
1.4999508866060656
  0
CIRCLE
  5
33
330
17
100
AcDbEntity
  8
CORTE
100
AcDbCircle
 10
32.61000877963126
 20
20.991314018144568
 30
0.0
 40
1.4999000008333696
  0
CIRCLE
  5
34
330
17
100
AcDbEntity
  8
CORTE
100
AcDbCircle
 10
3.0086842105263174
 20
3.991315789473685
 30
0.0
 40
1.5000154645743005
  0
CIRCLE
  5
35
330
17
100
AcDbEntity
  8
CORTE
100
AcDbCircle
 10
32.60868421052633
 20
3.9913157894736857
 30
0.0
 40
1.5000033529104753
  0
ENDSEC
  0
SECTION
  2
OBJECTS
  0
DICTIONARY
  5
A
330
0
100
AcDbDictionary
281
1
  3
ACAD_COLOR
350
B
  3
ACAD_GROUP
350
C
  3
ACAD_LAYOUT
350
D
  3
ACAD_MATERIAL
350
E
  3
ACAD_MLEADERSTYLE
350
F
  3
ACAD_MLINESTYLE
350
10
  3
ACAD_PLOTSETTINGS
350
11
  3
ACAD_PLOTSTYLENAME
350
12
  3
ACAD_SCALELIST
350
14
  3
ACAD_TABLESTYLE
350
15
  3
ACAD_VISUALSTYLE
350
16
  3
EZDXF_META
350
2D
  0
DICTIONARY
  5
B
330
A
100
AcDbDictionary
281
1
  0
DICTIONARY
  5
C
330
A
100
AcDbDictionary
281
1
  0
DICTIONARY
  5
D
330
A
100
AcDbDictionary
281
1
  3
Model
350
1A
  3
Layout1
350
1E
  0
DICTIONARY
  5
E
330
A
100
AcDbDictionary
281
1
  3
ByBlock
350
1F
  3
ByLayer
350
20
  3
Global
350
21
  0
DICTIONARY
  5
F
330
A
100
AcDbDictionary
281
1
  3
Standard
350
2C
  0
DICTIONARY
  5
10
330
A
100
AcDbDictionary
281
1
  3
Standard
350
22
  0
DICTIONARY
  5
11
330
A
100
AcDbDictionary
281
1
  0
ACDBDICTIONARYWDFLT
  5
12
330
A
100
AcDbDictionary
281
1
  3
Normal
350
13
100
AcDbDictionaryWithDefault
340
13
  0
ACDBPLACEHOLDER
  5
13
330
12
  0
DICTIONARY
  5
14
330
A
100
AcDbDictionary
281
1
  0
DICTIONARY
  5
15
330
A
100
AcDbDictionary
281
1
  0
DICTIONARY
  5
16
330
A
100
AcDbDictionary
281
1
  0
LAYOUT
  5
1A
330
D
100
AcDbPlotSettings
  1

  4
A3
  6

 40
7.5
 41
20.0
 42
7.5
 43
20.0
 44
420.0
 45
297.0
 46
0.0
 47
0.0
 48
0.0
 49
0.0
140
0.0
141
0.0
142
1.0
143
1.0
 70
1024
 72
1
 73
0
 74
5
  7

 75
16
 76
0
 77
2
 78
300
147
1.0
148
0.0
149
0.0
100
AcDbLayout
  1
Model
 70
1
 71
0
 10
0.0
 20
0.0
 11
420.0
 21
297.0
 12
0.0
 22
0.0
 32
0.0
 14
1e+20
 24
1e+20
 34
1e+20
 15
-1e+20
 25
-1e+20
 35
-1e+20
146
0.0
 13
0.0
 23
0.0
 33
0.0
 16
1.0
 26
0.0
 36
0.0
 17
0.0
 27
1.0
 37
0.0
 76
1
330
17
  0
LAYOUT
  5
1E
330
D
100
AcDbPlotSettings
  1

  4
A3
  6

 40
7.5
 41
20.0
 42
7.5
 43
20.0
 44
420.0
 45
297.0
 46
0.0
 47
0.0
 48
0.0
 49
0.0
140
0.0
141
0.0
142
1.0
143
1.0
 70
0
 72
1
 73
0
 74
5
  7

 75
16
 76
0
 77
2
 78
300
147
1.0
148
0.0
149
0.0
100
AcDbLayout
  1
Layout1
 70
1
 71
1
 10
0.0
 20
0.0
 11
420.0
 21
297.0
 12
0.0
 22
0.0
 32
0.0
 14
1e+20
 24
1e+20
 34
1e+20
 15
-1e+20
 25
-1e+20
 35
-1e+20
146
0.0
 13
0.0
 23
0.0
 33
0.0
 16
1.0
 26
0.0
 36
0.0
 17
0.0
 27
1.0
 37
0.0
 76
1
330
1B
  0
MATERIAL
  5
1F
102
{ACAD_REACTORS
330
E
102
}
330
E
100
AcDbMaterial
  1
ByBlock
  2

 70
0
 40
1.0
 71
1
 41
1.0
 91
-1023410177
 42
1.0
 72
1
  3

 73
1
 74
1
 75
1
 44
0.5
 73
0
 45
1.0
 46
1.0
 77
1
  4

 78
1
 79
1
170
1
 48
1.0
171
1
  6

172
1
173
1
174
1
140
1.0
141
1.0
175
1
  7

176
1
177
1
178
1
143
1.0
179
1
  8

270
1
271
1
272
1
145
1.0
146
1.0
273
1
  9

274
1
275
1
276
1
 42
1.0
 72
1
  3

 73
1
 74
1
 75
1
 94
63
  0
MATERIAL
  5
20
102
{ACAD_REACTORS
330
E
102
}
330
E
100
AcDbMaterial
  1
ByLayer
  2

 70
0
 40
1.0
 71
1
 41
1.0
 91
-1023410177
 42
1.0
 72
1
  3

 73
1
 74
1
 75
1
 44
0.5
 73
0
 45
1.0
 46
1.0
 77
1
  4

 78
1
 79
1
170
1
 48
1.0
171
1
  6

172
1
173
1
174
1
140
1.0
141
1.0
175
1
  7

176
1
177
1
178
1
143
1.0
179
1
  8

270
1
271
1
272
1
145
1.0
146
1.0
273
1
  9

274
1
275
1
276
1
 42
1.0
 72
1
  3

 73
1
 74
1
 75
1
 94
63
  0
MATERIAL
  5
21
102
{ACAD_REACTORS
330
E
102
}
330
E
100
AcDbMaterial
  1
Global
  2

 70
0
 40
1.0
 71
1
 41
1.0
 91
-1023410177
 42
1.0
 72
1
  3

 73
1
 74
1
 75
1
 44
0.5
 73
0
 45
1.0
 46
1.0
 77
1
  4

 78
1
 79
1
170
1
 48
1.0
171
1
  6

172
1
173
1
174
1
140
1.0
141
1.0
175
1
  7

176
1
177
1
178
1
143
1.0
179
1
  8

270
1
271
1
272
1
145
1.0
146
1.0
273
1
  9

274
1
275
1
276
1
 42
1.0
 72
1
  3

 73
1
 74
1
 75
1
 94
63
  0
MLINESTYLE
  5
22
102
{ACAD_REACTORS
330
10
102
}
330
10
100
AcDbMlineStyle
  2
Standard
 70
0
  3

 62
256
 51
90.0
 52
90.0
 71
2
 49
0.5
 62
256
  6
BYLAYER
 49
-0.5
 62
256
  6
BYLAYER
  0
MLEADERSTYLE
  5
2C
102
{ACAD_REACTORS
330
F
102
}
330
F
100
AcDbMLeaderStyle
179
2
170
2
171
1
172
0
 90
2
 40
0.0
 41
0.0
173
1
 91
-1056964608
 92
-2
290
1
 42
2.0
291
1
 43
8.0
  3
Standard
 44
4.0
300

342
29
174
1
175
1
176
0
178
1
 93
-1056964608
 45
4.0
292
0
297
0
 46
4.0
 94
-1056964608
 47
1.0
 49
1.0
140
1.0
294
1
141
0.0
177
0
142
1.0
295
0
296
0
143
3.75
271
0
272
9
273
9
  0
DICTIONARY
  5
2D
330
A
100
AcDbDictionary
280
1
281
1
  3
CREATED_BY_EZDXF
350
2E
  3
WRITTEN_BY_EZDXF
350
38
  0
DICTIONARYVAR
  5
2E
330
2D
100
DictionaryVariables
280
0
  1
1.4.4 @ 2026-10-06T17:04:47.665569+00:00
  0
DICTIONARYVAR
  5
38
330
2D
100
DictionaryVariables
280
0
  1
1.4.4 @ 2026-10-06T17:04:47.676148+00:00
  0
ENDSEC
  0
EOF
