  0
SECTION
  2
HEADER
  9
$ACADVER
  1
AC1015
  9
$ACADMAINTVER
 70
6
  9
$DWGCODEPAGE
  3
ANSI_1252
  9
$INSBASE
 10
0.0
 20
0.0
 30
0.0
  9
$EXTMIN
 10
1e+20
 20
1e+20
 30
1e+20
  9
$EXTMAX
 10
-1e+20
 20
-1e+20
 30
-1e+20
  9
$LIMMIN
 10
0.0
 20
0.0
  9
$LIMMAX
 10
420.0
 20
297.0
  9
$ORTHOMODE
 70
0
  9
$REGENMODE
 70
1
  9
$FILLMODE
 70
1
  9
$QTEXTMODE
 70
0
  9
$MIRRTEXT
 70
1
  9
$LTSCALE
 40
1.0
  9
$ATTMODE
 70
1
  9
$TEXTSIZE
 40
2.5
  9
$TRACEWID
 40
1.0
  9
$TEXTSTYLE
  7
Standard
  9
$CLAYER
  8
0
  9
$CELTYPE
  6
ByLayer
  9
$CECOLOR
 62
256
  9
$CELTSCALE
 40
1.0
  9
$DISPSILH
 70
0
  9
$DIMSCALE
 40
1.0
  9
$DIMASZ
 40
2.5
  9
$DIMEXO
 40
0.625
  9
$DIMDLI
 40
3.75
  9
$DIMRND
 40
0.0
  9
$DIMDLE
 40
0.0
  9
$DIMEXE
 40
1.25
  9
$DIMTP
 40
0.0
  9
$DIMTM
 40
0.0
  9
$DIMTXT
 40
2.5
  9
$DIMCEN
 40
2.5
  9
$DIMTSZ
 40
0.0
  9
$DIMTOL
 70
0
  9
$DIMLIM
 70
0
  9
$DIMTIH
 70
0
  9
$DIMTOH
 70
0
  9
$DIMSE1
 70
0
  9
$DIMSE2
 70
0
  9
$DIMTAD
 70
1
  9
$DIMZIN
 70
8
  9
$DIMBLK
  1

  9
$DIMASO
 70
1
  9
$DIMSHO
 70
1
  9
$DIMPOST
  1

  9
$DIMAPOST
  1

  9
$DIMALT
 70
0
  9
$DIMALTD
 70
3
  9
$DIMALTF
 40
0.03937007874
  9
$DIMLFAC
 40
1.0
  9
$DIMTOFL
 70
1
  9
$DIMTVP
 40
0.0
  9
$DIMTIX
 70
0
  9
$DIMSOXD
 70
0
  9
$DIMSAH
 70
0
  9
$DIMBLK1
  1

  9
$DIMBLK2
  1

  9
$DIMSTYLE
  2
ISO-25
  9
$DIMCLRD
 70
0
  9
$DIMCLRE
 70
0
  9
$DIMCLRT
 70
0
  9
$DIMTFAC
 40
1.0
  9
$DIMGAP
 40
0.625
  9
$DIMJUST
 70
0
  9
$DIMSD1
 70
0
  9
$DIMSD2
 70
0
  9
$DIMTOLJ
 70
0
  9
$DIMTZIN
 70
8
  9
$DIMALTZ
 70
0
  9
$DIMALTTZ
 70
0
  9
$DIMUPT
 70
0
  9
$DIMDEC
 70
2
  9
$DIMTDEC
 70
2
  9
$DIMALTU
 70
2
  9
$DIMALTTD
 70
3
  9
$DIMTXSTY
  7
Standard
  9
$DIMAUNIT
 70
0
  9
$DIMADEC
 70
0
  9
$DIMALTRND
 40
0.0
  9
$DIMAZIN
 70
0
  9
$DIMDSEP
 70
44
  9
$DIMATFIT
 70
3
  9
$DIMFRAC
 70
0
  9
$DIMLDRBLK
  1

  9
$DIMLUNIT
 70
2
  9
$DIMLWD
 70
-2
  9
$DIMLWE
 70
-2
  9
$DIMTMOVE
 70
0
  9
$LUNITS
 70
2
  9
$LUPREC
 70
4
  9
$SKETCHINC
 40
1.0
  9
$FILLETRAD
 40
10.0
  9
$AUNITS
 70
0
  9
$AUPREC
 70
2
  9
$MENU
  1
.
  9
$ELEVATION
 40
0.0
  9
$PELEVATION
 40
0.0
  9
$THICKNESS
 40
0.0
  9
$LIMCHECK
 70
0
  9
$CHAMFERA
 40
0.0
  9
$CHAMFERB
 40
0.0
  9
$CHAMFERC
 40
0.0
  9
$CHAMFERD
 40
0.0
  9
$SKPOLY
 70
0
  9
$TDCREATE
 40
2461320.7116666664
  9
$TDUCREATE
 40
2458532.153996898
  9
$TDUPDATE
 40
2461320.7116666664
  9
$TDUUPDATE
 40
2458532.1544311
  9
$TDINDWG
 40
0.0
  9
$TDUSRTIMER
 40
0.0
  9
$USRTIMER
 70
1
  9
$ANGBASE
 50
0.0
  9
$ANGDIR
 70
0
  9
$PDMODE
 70
0
  9
$PDSIZE
 40
0.0
  9
$PLINEWID
 40
0.0
  9
$SPLFRAME
 70
0
  9
$SPLINETYPE
 70
6
  9
$SPLINESEGS
 70
8
  9
$HANDSEED
  5
38
  9
$SURFTAB1
 70
6
  9
$SURFTAB2
 70
6
  9
$SURFTYPE
 70
6
  9
$SURFU
 70
6
  9
$SURFV
 70
6
  9
$UCSBASE
  2

  9
$UCSNAME
  2

  9
$UCSORG
 10
0.0
 20
0.0
 30
0.0
  9
$UCSXDIR
 10
1.0
 20
0.0
 30
0.0
  9
$UCSYDIR
 10
0.0
 20
1.0
 30
0.0
  9
$UCSORTHOREF
  2

  9
$UCSORTHOVIEW
 70
0
  9
$UCSORGTOP
 10
0.0
 20
0.0
 30
0.0
  9
$UCSORGBOTTOM
 10
0.0
 20
0.0
 30
0.0
  9
$UCSORGLEFT
 10
0.0
 20
0.0
 30
0.0
  9
$UCSORGRIGHT
 10
0.0
 20
0.0
 30
0.0
  9
$UCSORGFRONT
 10
0.0
 20
0.0
 30
0.0
  9
$UCSORGBACK
 10
0.0
 20
0.0
 30
0.0
  9
$PUCSBASE
  2

  9
$PUCSNAME
  2

  9
$PUCSORG
 10
0.0
 20
0.0
 30
0.0
  9
$PUCSXDIR
 10
1.0
 20
0.0
 30
0.0
  9
$PUCSYDIR
 10
0.0
 20
1.0
 30
0.0
  9
$PUCSORTHOREF
  2

  9
$PUCSORTHOVIEW
 70
0
  9
$PUCSORGTOP
 10
0.0
 20
0.0
 30
0.0
  9
$PUCSORGBOTTOM
 10
0.0
 20
0.0
 30
0.0
  9
$PUCSORGLEFT
 10
0.0
 20
0.0
 30
0.0
  9
$PUCSORGRIGHT
 10
0.0
 20
0.0
 30
0.0
  9
$PUCSORGFRONT
 10
0.0
 20
0.0
 30
0.0
  9
$PUCSORGBACK
 10
0.0
 20
0.0
 30
0.0
  9
$USERI1
 70
0
  9
$USERI2
 70
0
  9
$USERI3
 70
0
  9
$USERI4
 70
0
  9
$USERI5
 70
0
  9
$USERR1
 40
0.0
  9
$USERR2
 40
0.0
  9
$USERR3
 40
0.0
  9
$USERR4
 40
0.0
  9
$USERR5
 40
0.0
  9
$WORLDVIEW
 70
1
  9
$SHADEDGE
 70
3
  9
$SHADEDIF
 70
70
  9
$TILEMODE
 70
1
  9
$MAXACTVP
 70
64
  9
$PINSBASE
 10
0.0
 20
0.0
 30
0.0
  9
$PLIMCHECK
 70
0
  9
$PEXTMIN
 10
1e+20
 20
1e+20
 30
1e+20
  9
$PEXTMAX
 10
-1e+20
 20
-1e+20
 30
-1e+20
  9
$PLIMMIN
 10
0.0
 20
0.0
  9
$PLIMMAX
 10
420.0
 20
297.0
  9
$UNITMODE
 70
0
  9
$VISRETAIN
 70
1
  9
$PLINEGEN
 70
0
  9
$PSLTSCALE
 70
1
  9
$TREEDEPTH
 70
3020
  9
$CMLSTYLE
  2
Standard
  9
$CMLJUST
 70
0
  9
$CMLSCALE
 40
20.0
  9
$PROXYGRAPHICS
 70
1
  9
$MEASUREMENT
 70
1
  9
$CELWEIGHT
370
-1
  9
$ENDCAPS
280
0
  9
$JOINSTYLE
280
0
  9
$LWDISPLAY
290
0
  9
$INSUNITS
 70
4
  9
$HYPERLINKBASE
  1

  9
$STYLESHEET
  1

  9
$XEDIT
290
1
  9
$CEPSNTYPE
380
0
  9
$PSTYLEMODE
290
1
  9
$FINGERPRINTGUID
  2
{5935F332-0199-4B78-A61D-F2BA693DA981}
  9
$VERSIONGUID
  2
{20A64F14-6E4D-4CBD-9094-1E4FD4F486E5}
  9
$EXTNAMES
290
1
  9
$PSVPSCALE
 40
0.0
  9
$OLESTARTUP
290
0
  0
ENDSEC
  0
SECTION
  2
CLASSES
  0
CLASS
  1
ACDBDICTIONARYWDFLT
  2
AcDbDictionaryWithDefault
  3
ObjectDBX Classes
 90
0
280
0
281
0
  0
CLASS
  1
SUN
  2
AcDbSun
  3
SCENEOE
 90
1153
280
0
281
0
  0
CLASS
  1
VISUALSTYLE
  2
AcDbVisualStyle
  3
ObjectDBX Classes
 90
4095
280
0
281
0
  0
CLASS
  1
MATERIAL
  2
AcDbMaterial
  3
ObjectDBX Classes
 90
1153
280
0
281
0
  0
CLASS
  1
SCALE
  2
AcDbScale
  3
ObjectDBX Classes
 90
1153
280
0
281
0
  0
CLASS
  1
TABLESTYLE
  2
AcDbTableStyle
  3
ObjectDBX Classes
 90
4095
280
0
281
0
  0
CLASS
  1
MLEADERSTYLE
  2
AcDbMLeaderStyle
  3
ACDB_MLEADERSTYLE_CLASS
 90
4095
280
0
281
0
  0
CLASS
  1
DICTIONARYVAR
  2
AcDbDictionaryVar
  3
ObjectDBX Classes
 90
0
280
0
281
0
  0
CLASS
  1
CELLSTYLEMAP
  2
AcDbCellStyleMap
  3
ObjectDBX Classes
 90
1152
280
0
281
0
  0
CLASS
  1
MENTALRAYRENDERSETTINGS
  2
AcDbMentalRayRenderSettings
  3
SCENEOE
 90
1024
280
0
281
0
  0
CLASS
  1
ACDBDETAILVIEWSTYLE
  2
AcDbDetailViewStyle
  3
ObjectDBX Classes
 90
1025
280
0
281
0
  0
CLASS
  1
ACDBSECTIONVIEWSTYLE
  2
AcDbSectionViewStyle
  3
ObjectDBX Classes
 90
1025
280
0
281
0
  0
CLASS
  1
RASTERVARIABLES
  2
AcDbRasterVariables
  3
ISM
 90
0
280
0
281
0
  0
CLASS
  1
ACDBPLACEHOLDER
  2
AcDbPlaceHolder
  3
ObjectDBX Classes
 90
0
280
0
281
0
  0
CLASS
  1
LAYOUT
  2
AcDbLayout
  3
ObjectDBX Classes
 90
0
280
0
281
0
  0
ENDSEC
  0
SECTION
  2
TABLES
  0
TABLE
  2
VPORT
  5
8
330
0
100
AcDbSymbolTable
 70
1
  0
VPORT
  5
23
330
8
100
AcDbSymbolTableRecord
100
AcDbViewportTableRecord
  2
*Active
 70
0
 10
0.0
 20
0.0
 11
1.0
 21
1.0
 12
0.0
 22
0.0
 13
0.0
 23
0.0
 14
0.5
 24
0.5
 15
0.5
 25
0.5
 16
0.0
 26
0.0
 36
1.0
 17
0.0
 27
0.0
 37
0.0
 40
1000.0
 41
1.34
 42
50.0
 43
0.0
 44
0.0
 50
0.0
 51
0.0
 71
0
 72
1000
 73
1
 74
3
 75
0
 76
0
 77
0
 78
0
281
0
 65
0
146
0.0
  0
ENDTAB
  0
TABLE
  2
LTYPE
  5
2
330
0
100
AcDbSymbolTable
 70
3
  0
LTYPE
  5
24
330
2
100
AcDbSymbolTableRecord
100
AcDbLinetypeTableRecord
  2
ByBlock
 70
0
  3

 72
65
 73
0
 40
0.0
  0
LTYPE
  5
25
330
2
100
AcDbSymbolTableRecord
100
AcDbLinetypeTableRecord
  2
ByLayer
 70
0
  3

 72
65
 73
0
 40
0.0
  0
LTYPE
  5
26
330
2
100
AcDbSymbolTableRecord
100
AcDbLinetypeTableRecord
  2
Continuous
 70
0
  3

 72
65
 73
0
 40
0.0
  0
ENDTAB
  0
TABLE
  2
LAYER
  5
1
330
0
100
AcDbSymbolTable
 70
3
  0
LAYER
  5
27
330
1
100
AcDbSymbolTableRecord
100
AcDbLayerTableRecord
  2
0
 70
0
 62
7
  6
Continuous
370
-3
390
13
  0
LAYER
  5
28
330
1
100
AcDbSymbolTableRecord
100
AcDbLayerTableRecord
  2
Defpoints
 70
0
 62
7
  6
Continuous
290
0
370
-3
390
13
  0
LAYER
  5
2F
330
1
100
AcDbSymbolTableRecord
100
AcDbLayerTableRecord
  2
CORTE
 70
0
 62
7
  6
Continuous
370
-3
390
13
  0
ENDTAB
  0
TABLE
  2
STYLE
  5
5
330
0
100
AcDbSymbolTable
 70
1
  0
STYLE
  5
29
330
5
100
AcDbSymbolTableRecord
100
AcDbTextStyleTableRecord
  2
Standard
 70
0
 40
0.0
 41
1.0
 50
0.0
 71
0
 42
2.5
  3
txt
  4

  0
ENDTAB
  0
TABLE
  2
VIEW
  5
7
330
0
100
AcDbSymbolTable
 70
0
  0
ENDTAB
  0
TABLE
  2
UCS
  5
6
330
0
100
AcDbSymbolTable
 70
0
  0
ENDTAB
  0
TABLE
  2
APPID
  5
3
330
0
100
AcDbSymbolTable
 70
3
  0
APPID
  5
2A
330
3
100
AcDbSymbolTableRecord
100
AcDbRegAppTableRecord
  2
ACAD
 70
0
  0
APPID
  5
35
330
3
100
AcDbSymbolTableRecord
100
AcDbRegAppTableRecord
  2
HATCHBACKGROUNDCOLOR
 70
0
  0
APPID
  5
36
330
3
100
AcDbSymbolTableRecord
100
AcDbRegAppTableRecord
  2
EZDXF
 70
0
  0
ENDTAB
  0
TABLE
  2
DIMSTYLE
  5
4
330
0
100
AcDbSymbolTable
 70
1
100
AcDbDimStyleTable
  0
DIMSTYLE
105
2B
330
4
100
AcDbSymbolTableRecord
100
AcDbDimStyleTableRecord
  2
Standard
 70
0
  3

  4

 40
1.0
 41
2.5
 42
0.625
 43
3.75
 44
1.25
 45
0.0
 46
0.0
 47
0.0
 48
0.0
140
2.5
141
2.5
142
0.0
143
0.03937007874
144
1.0
145
0.0
146
1.0
147
0.625
148
0.0
 71
0
 72
0
 73
0
 74
0
 75
0
 76
0
 77
1
 78
8
 79
3
170
0
171
3
172
1
173
0
174
0
175
0
176
0
177
0
178
0
179
2
271
2
272
2
273
2
274
3
275
0
276
0
277
2
278
44
279
0
280
0
281
0
282
0
283
0
284
8
285
0
286
0
288
0
289
3
371
-2
372
-2
  0
ENDTAB
  0
TABLE
  2
BLOCK_RECORD
  5
9
330
0
100
AcDbSymbolTable
 70
2
  0
BLOCK_RECORD
  5
17
330
9
100
AcDbSymbolTableRecord
100
AcDbBlockTableRecord
  2
*Model_Space
340
1A
  0
BLOCK_RECORD
  5
1B
330
9
100
AcDbSymbolTableRecord
100
AcDbBlockTableRecord
  2
*Paper_Space
340
1E
  0
ENDTAB
  0
ENDSEC
  0
SECTION
  2
BLOCKS
  0
BLOCK
  5
18
330
17
100
AcDbEntity
  8
0
100
AcDbBlockBegin
  2
*Model_Space
 70
0
 10
0.0
 20
0.0
 30
0.0
  3
*Model_Space
  1

  0
ENDBLK
  5
19
330
17
100
AcDbEntity
  8
0
100
AcDbBlockEnd
  0
BLOCK
  5
1C
330
1B
100
AcDbEntity
  8
0
100
AcDbBlockBegin
  2
*Paper_Space
 70
0
 10
0.0
 20
0.0
 30
0.0
  3
*Paper_Space
  1

  0
ENDBLK
  5
1D
330
1B
100
AcDbEntity
  8
0
100
AcDbBlockEnd
  0
ENDSEC
  0
SECTION
  2
ENTITIES
  0
LWPOLYLINE
  5
30
330
17
100
AcDbEntity
  8
CORTE
100
AcDbPolyline
 90
2886
 70
1
 10
0.0
 20
11.420000000000016
 10
0.13999999999998636
 20
12.800000000000011
 10
0.1599999999999966
 20
12.800000000000011
 10
0.1599999999999966
 20
12.820000000000022
 10
0.1799999999999784
 20
12.820000000000022
 10
0.19999999999998863
 20
12.840000000000003
 10
0.21999999999999886
 20
12.840000000000003
 10
0.21999999999999886
 20
12.860000000000014
 10
0.23999999999998067
 20
12.860000000000014
 10
0.2599999999999909
 20
12.860000000000014
 10
0.28000000000000114
 20
12.880000000000024
 10
0.29999999999998295
 20
12.880000000000024
 10
0.3199999999999932
 20
12.900000000000006
 10
0.339999999999975
 20
12.900000000000006
 10
0.3599999999999852
 20
12.920000000000016
 10
0.37999999999999545
 20
12.920000000000016
 10
0.39999999999997726
 20
12.940000000000026
 10
0.4199999999999875
 20
12.940000000000026
 10
0.4199999999999875
 20
12.960000000000008
 10
0.4399999999999977
 20
12.960000000000008
 10
0.45999999999997954
 20
12.960000000000008
 10
0.45999999999997954
 20
12.980000000000018
 10
0.47999999999998977
 20
12.980000000000018
 10
0.5
 20
12.980000000000018
 10
0.5199999999999818
 20
13.0
 10
0.539999999999992
 20
13.0
 10
0.539999999999992
 20
13.02000000000001
 10
0.5599999999999739
 20
13.02000000000001
 10
0.5799999999999841
 20
13.02000000000001
 10
0.5999999999999943
 20
13.04000000000002
 10
0.6199999999999761
 20
13.04000000000002
 10
0.6199999999999761
 20
13.060000000000002
 10
0.6399999999999864
 20
13.060000000000002
 10
0.6599999999999966
 20
13.060000000000002
 10
0.6799999999999784
 20
13.080000000000013
 10
0.6999999999999886
 20
13.080000000000013
 10
0.6999999999999886
 20
13.100000000000023
 10
0.7199999999999989
 20
13.100000000000023
 10
0.7399999999999807
 20
13.100000000000023
 10
0.7599999999999909
 20
13.120000000000005
 10
0.7800000000000011
 20
13.120000000000005
 10
0.799999999999983
 20
13.140000000000015
 10
0.8199999999999932
 20
13.140000000000015
 10
0.839999999999975
 20
13.140000000000015
 10
0.8599999999999852
 20
13.160000000000025
 10
0.8799999999999955
 20
13.160000000000025
 10
0.8799999999999955
 20
13.180000000000007
 10
0.8999999999999773
 20
13.180000000000007
 10
0.9199999999999875
 20
13.180000000000007
 10
0.9399999999999977
 20
13.200000000000017
 10
0.9599999999999795
 20
13.200000000000017
 10
0.9799999999999898
 20
13.219999999999999
 10
1.0
 20
13.219999999999999
 10
1.0199999999999818
 20
13.219999999999999
 10
1.039999999999992
 20
13.240000000000009
 10
1.0599999999999739
 20
13.240000000000009
 10
1.079999999999984
 20
13.26000000000002
 10
1.0999999999999943
 20
13.26000000000002
 10
1.1199999999999761
 20
13.280000000000001
 10
1.1399999999999864
 20
13.280000000000001
 10
1.1599999999999966
 20
13.280000000000001
 10
1.1799999999999784
 20
13.300000000000011
 10
1.1999999999999886
 20
13.300000000000011
 10
1.2199999999999989
 20
13.320000000000022
 10
1.2399999999999807
 20
13.320000000000022
 10
1.259999999999991
 20
13.340000000000003
 10
1.2800000000000011
 20
13.340000000000003
 10
1.299999999999983
 20
13.340000000000003
 10
1.3199999999999932
 20
13.360000000000014
 10
1.339999999999975
 20
13.360000000000014
 10
1.3599999999999852
 20
13.380000000000024
 10
1.3799999999999955
 20
13.380000000000024
 10
1.3999999999999773
 20
13.380000000000024
 10
1.4199999999999875
 20
13.400000000000006
 10
1.4399999999999977
 20
13.400000000000006
 10
1.4599999999999795
 20
13.400000000000006
 10
1.4799999999999898
 20
13.420000000000016
 10
1.5
 20
13.420000000000016
 10
1.5199999999999818
 20
13.420000000000016
 10
1.539999999999992
 20
13.440000000000026
 10
1.5599999999999739
 20
13.440000000000026
 10
1.579999999999984
 20
13.440000000000026
 10
1.5999999999999943
 20
13.460000000000008
 10
1.6199999999999761
 20
13.460000000000008
 10
1.6399999999999864
 20
13.460000000000008
 10
1.6399999999999864
 20
13.480000000000018
 10
1.6599999999999966
 20
13.480000000000018
 10
1.6799999999999784
 20
13.480000000000018
 10
1.6999999999999886
 20
13.480000000000018
 10
1.7199999999999989
 20
13.5
 10
1.7399999999999807
 20
13.5
 10
1.759999999999991
 20
13.5
 10
1.7800000000000011
 20
13.52000000000001
 10
1.799999999999983
 20
13.52000000000001
 10
1.8199999999999932
 20
13.52000000000001
 10
1.839999999999975
 20
13.54000000000002
 10
1.8599999999999852
 20
13.54000000000002
 10
1.8799999999999955
 20
13.54000000000002
 10
1.8999999999999773
 20
13.54000000000002
 10
1.9199999999999875
 20
13.560000000000002
 10
1.9399999999999977
 20
13.560000000000002
 10
1.9599999999999795
 20
13.560000000000002
 10
1.9799999999999898
 20
13.580000000000013
 10
2.0
 20
13.580000000000013
 10
2.019999999999982
 20
13.580000000000013
 10
2.039999999999992
 20
13.580000000000013
 10
2.059999999999974
 20
13.580000000000013
 10
2.079999999999984
 20
13.600000000000023
 10
2.0999999999999943
 20
13.600000000000023
 10
2.119999999999976
 20
13.600000000000023
 10
2.1399999999999864
 20
13.600000000000023
 10
2.1599999999999966
 20
13.620000000000005
 10
2.1799999999999784
 20
13.620000000000005
 10
2.1999999999999886
 20
13.620000000000005
 10
2.219999999999999
 20
13.620000000000005
 10
2.2399999999999807
 20
13.620000000000005
 10
2.259999999999991
 20
13.620000000000005
 10
2.259999999999991
 20
13.640000000000015
 10
2.280000000000001
 20
13.640000000000015
 10
2.299999999999983
 20
13.640000000000015
 10
2.319999999999993
 20
13.640000000000015
 10
2.339999999999975
 20
13.640000000000015
 10
2.359999999999985
 20
13.640000000000015
 10
2.3799999999999955
 20
13.640000000000015
 10
2.3999999999999773
 20
13.660000000000025
 10
2.4199999999999875
 20
13.660000000000025
 10
2.4399999999999977
 20
13.660000000000025
 10
2.4599999999999795
 20
13.660000000000025
 10
2.4799999999999898
 20
13.660000000000025
 10
2.5
 20
13.660000000000025
 10
2.519999999999982
 20
13.660000000000025
 10
2.539999999999992
 20
13.660000000000025
 10
2.559999999999974
 20
13.680000000000007
 10
2.579999999999984
 20
13.680000000000007
 10
2.5999999999999943
 20
13.680000000000007
 10
2.619999999999976
 20
13.680000000000007
 10
2.6399999999999864
 20
13.680000000000007
 10
2.6599999999999966
 20
13.680000000000007
 10
2.6799999999999784
 20
13.680000000000007
 10
2.6999999999999886
 20
13.680000000000007
 10
2.719999999999999
 20
13.680000000000007
 10
2.7399999999999807
 20
13.680000000000007
 10
2.759999999999991
 20
13.680000000000007
 10
2.780000000000001
 20
13.680000000000007
 10
2.799999999999983
 20
13.680000000000007
 10
2.819999999999993
 20
13.680000000000007
 10
2.839999999999975
 20
13.680000000000007
 10
2.859999999999985
 20
13.680000000000007
 10
2.8799999999999955
 20
13.680000000000007
 10
2.8999999999999773
 20
13.680000000000007
 10
2.9199999999999875
 20
13.680000000000007
 10
2.9399999999999977
 20
13.680000000000007
 10
2.9599999999999795
 20
13.680000000000007
 10
2.9799999999999898
 20
13.680000000000007
 10
3.0
 20
13.680000000000007
 10
3.019999999999982
 20
13.680000000000007
 10
3.039999999999992
 20
13.660000000000025
 10
3.059999999999974
 20
13.660000000000025
 10
3.079999999999984
 20
13.660000000000025
 10
3.0999999999999943
 20
13.660000000000025
 10
3.119999999999976
 20
13.660000000000025
 10
3.1399999999999864
 20
13.660000000000025
 10
3.1599999999999966
 20
13.660000000000025
 10
3.1799999999999784
 20
13.660000000000025
 10
3.1999999999999886
 20
13.660000000000025
 10
3.219999999999999
 20
13.640000000000015
 10
3.2399999999999807
 20
13.640000000000015
 10
3.259999999999991
 20
13.640000000000015
 10
3.280000000000001
 20
13.640000000000015
 10
3.299999999999983
 20
13.640000000000015
 10
3.319999999999993
 20
13.640000000000015
 10
3.339999999999975
 20
13.620000000000005
 10
3.359999999999985
 20
13.620000000000005
 10
3.3799999999999955
 20
13.620000000000005
 10
3.3999999999999773
 20
13.620000000000005
 10
3.4199999999999875
 20
13.620000000000005
 10
3.4399999999999977
 20
13.620000000000005
 10
3.4399999999999977
 20
13.600000000000023
 10
3.4599999999999795
 20
13.600000000000023
 10
3.4799999999999898
 20
13.600000000000023
 10
3.5
 20
13.600000000000023
 10
3.519999999999982
 20
13.600000000000023
 10
3.539999999999992
 20
13.600000000000023
 10
3.539999999999992
 20
13.580000000000013
 10
3.559999999999974
 20
13.580000000000013
 10
3.579999999999984
 20
13.580000000000013
 10
3.5999999999999943
 20
13.580000000000013
 10
3.619999999999976
 20
13.580000000000013
 10
3.6399999999999864
 20
13.580000000000013
 10
3.6399999999999864
 20
13.560000000000002
 10
3.6599999999999966
 20
13.560000000000002
 10
3.6799999999999784
 20
13.560000000000002
 10
3.6999999999999886
 20
13.560000000000002
 10
3.719999999999999
 20
13.560000000000002
 10
3.7399999999999807
 20
13.560000000000002
 10
3.759999999999991
 20
13.54000000000002
 10
3.780000000000001
 20
13.54000000000002
 10
3.799999999999983
 20
13.54000000000002
 10
3.819999999999993
 20
13.54000000000002
 10
3.839999999999975
 20
13.54000000000002
 10
3.859999999999985
 20
13.54000000000002
 10
3.8799999999999955
 20
13.54000000000002
 10
3.8799999999999955
 20
13.52000000000001
 10
3.8999999999999773
 20
13.52000000000001
 10
3.9199999999999875
 20
13.52000000000001
 10
3.9399999999999977
 20
13.52000000000001
 10
3.9599999999999795
 20
13.52000000000001
 10
3.9799999999999898
 20
13.52000000000001
 10
4.0
 20
13.52000000000001
 10
4.019999999999982
 20
13.52000000000001
 10
4.039999999999992
 20
13.52000000000001
 10
4.059999999999974
 20
13.52000000000001
 10
4.079999999999984
 20
13.52000000000001
 10
4.099999999999994
 20
13.52000000000001
 10
4.119999999999976
 20
13.52000000000001
 10
4.139999999999986
 20
13.52000000000001
 10
4.159999999999997
 20
13.52000000000001
 10
4.179999999999978
 20
13.52000000000001
 10
4.199999999999989
 20
13.52000000000001
 10
4.219999999999999
 20
13.52000000000001
 10
4.239999999999981
 20
13.52000000000001
 10
4.259999999999991
 20
13.52000000000001
 10
4.280000000000001
 20
13.52000000000001
 10
4.299999999999983
 20
13.52000000000001
 10
4.319999999999993
 20
13.52000000000001
 10
4.339999999999975
 20
13.52000000000001
 10
4.339999999999975
 20
13.54000000000002
 10
4.359999999999985
 20
13.54000000000002
 10
4.3799999999999955
 20
13.54000000000002
 10
4.399999999999977
 20
13.54000000000002
 10
4.4199999999999875
 20
13.54000000000002
 10
4.439999999999998
 20
13.54000000000002
 10
4.4599999999999795
 20
13.560000000000002
 10
4.47999999999999
 20
13.560000000000002
 10
4.5
 20
13.560000000000002
 10
4.519999999999982
 20
13.560000000000002
 10
4.539999999999992
 20
13.580000000000013
 10
4.559999999999974
 20
13.580000000000013
 10
4.579999999999984
 20
13.580000000000013
 10
4.599999999999994
 20
13.580000000000013
 10
4.599999999999994
 20
13.600000000000023
 10
4.619999999999976
 20
13.600000000000023
 10
4.639999999999986
 20
13.600000000000023
 10
4.659999999999997
 20
13.600000000000023
 10
4.659999999999997
 20
13.620000000000005
 10
4.679999999999978
 20
13.620000000000005
 10
4.699999999999989
 20
13.620000000000005
 10
4.719999999999999
 20
13.620000000000005
 10
4.719999999999999
 20
13.640000000000015
 10
4.739999999999981
 20
13.640000000000015
 10
4.759999999999991
 20
13.640000000000015
 10
4.759999999999991
 20
13.660000000000025
 10
4.780000000000001
 20
13.660000000000025
 10
4.799999999999983
 20
13.660000000000025
 10
4.819999999999993
 20
13.680000000000007
 10
4.839999999999975
 20
13.680000000000007
 10
4.859999999999985
 20
13.700000000000017
 10
4.8799999999999955
 20
13.700000000000017
 10
4.899999999999977
 20
13.700000000000017
 10
4.899999999999977
 20
13.719999999999999
 10
4.9199999999999875
 20
13.719999999999999
 10
4.939999999999998
 20
13.719999999999999
 10
4.939999999999998
 20
13.740000000000009
 10
4.9599999999999795
 20
13.740000000000009
 10
4.9599999999999795
 20
13.76000000000002
 10
4.97999999999999
 20
13.76000000000002
 10
5.0
 20
13.76000000000002
 10
5.0
 20
13.780000000000001
 10
5.019999999999982
 20
13.780000000000001
 10
5.039999999999992
 20
13.780000000000001
 10
5.039999999999992
 20
13.800000000000011
 10
5.059999999999974
 20
13.800000000000011
 10
5.079999999999984
 20
13.800000000000011
 10
5.079999999999984
 20
13.820000000000022
 10
5.280000000000001
 20
14.380000000000024
 10
5.539999999999992
 20
14.920000000000016
 10
5.799999999999983
 20
15.460000000000008
 10
6.119999999999976
 20
15.980000000000018
 10
6.119999999999976
 20
16.0
 10
6.099999999999994
 20
16.0
 10
6.099999999999994
 20
16.02000000000001
 10
6.099999999999994
 20
16.04000000000002
 10
6.099999999999994
 20
16.060000000000002
 10
6.099999999999994
 20
16.080000000000013
 10
6.099999999999994
 20
16.100000000000023
 10
6.079999999999984
 20
16.120000000000005
 10
6.079999999999984
 20
16.140000000000015
 10
6.079999999999984
 20
16.160000000000025
 10
6.079999999999984
 20
16.180000000000007
 10
6.079999999999984
 20
16.200000000000017
 10
6.059999999999974
 20
16.200000000000017
 10
6.059999999999974
 20
16.22
 10
6.059999999999974
 20
16.24000000000001
 10
6.059999999999974
 20
16.26000000000002
 10
6.059999999999974
 20
16.28
 10
6.039999999999992
 20
16.30000000000001
 10
6.039999999999992
 20
16.32000000000002
 10
6.039999999999992
 20
16.340000000000003
 10
6.039999999999992
 20
16.360000000000014
 10
6.019999999999982
 20
16.360000000000014
 10
6.019999999999982
 20
16.380000000000024
 10
6.019999999999982
 20
16.400000000000006
 10
6.019999999999982
 20
16.420000000000016
 10
6.0
 20
16.420000000000016
 10
6.0
 20
16.440000000000026
 10
6.0
 20
16.460000000000008
 10
5.97999999999999
 20
16.480000000000018
 10
5.97999999999999
 20
16.5
 10
5.97999999999999
 20
16.52000000000001
 10
5.9599999999999795
 20
16.52000000000001
 10
5.9599999999999795
 20
16.54000000000002
 10
5.9599999999999795
 20
16.560000000000002
 10
5.939999999999998
 20
16.580000000000013
 10
5.939999999999998
 20
16.600000000000023
 10
5.939999999999998
 20
16.620000000000005
 10
5.9199999999999875
 20
16.620000000000005
 10
5.9199999999999875
 20
16.640000000000015
 10
5.899999999999977
 20
16.660000000000025
 10
5.899999999999977
 20
16.680000000000007
 10
5.8799999999999955
 20
16.700000000000017
 10
5.8799999999999955
 20
16.72
 10
5.859999999999985
 20
16.72
 10
5.859999999999985
 20
16.74000000000001
 10
5.859999999999985
 20
16.76000000000002
 10
5.839999999999975
 20
16.76000000000002
 10
5.839999999999975
 20
16.78
 10
5.819999999999993
 20
16.78
 10
5.819999999999993
 20
16.80000000000001
 10
5.819999999999993
 20
16.82000000000002
 10
5.799999999999983
 20
16.82000000000002
 10
5.799999999999983
 20
16.840000000000003
 10
5.780000000000001
 20
16.840000000000003
 10
5.780000000000001
 20
16.860000000000014
 10
5.780000000000001
 20
16.880000000000024
 10
5.759999999999991
 20
16.880000000000024
 10
5.759999999999991
 20
16.900000000000006
 10
5.739999999999981
 20
16.900000000000006
 10
5.739999999999981
 20
16.920000000000016
 10
5.719999999999999
 20
16.920000000000016
 10
5.719999999999999
 20
16.940000000000026
 10
5.699999999999989
 20
16.940000000000026
 10
5.699999999999989
 20
16.960000000000008
 10
5.679999999999978
 20
16.980000000000018
 10
5.679999999999978
 20
17.0
 10
5.659999999999997
 20
17.0
 10
5.659999999999997
 20
17.02000000000001
 10
5.639999999999986
 20
17.02000000000001
 10
5.639999999999986
 20
17.04000000000002
 10
5.619999999999976
 20
17.04000000000002
 10
5.619999999999976
 20
17.060000000000002
 10
5.599999999999994
 20
17.060000000000002
 10
5.599999999999994
 20
17.080000000000013
 10
5.579999999999984
 20
17.080000000000013
 10
5.579999999999984
 20
17.100000000000023
 10
5.559999999999974
 20
17.100000000000023
 10
5.539999999999992
 20
17.120000000000005
 10
5.519999999999982
 20
17.140000000000015
 10
5.5
 20
17.160000000000025
 10
5.47999999999999
 20
17.160000000000025
 10
5.47999999999999
 20
17.180000000000007
 10
5.4599999999999795
 20
17.180000000000007
 10
5.4599999999999795
 20
17.200000000000017
 10
5.439999999999998
 20
17.200000000000017
 10
5.439999999999998
 20
17.22
 10
5.4199999999999875
 20
17.22
 10
5.4199999999999875
 20
17.24000000000001
 10
5.399999999999977
 20
17.24000000000001
 10
5.399999999999977
 20
17.26000000000002
 10
5.3799999999999955
 20
17.26000000000002
 10
5.359999999999985
 20
17.28
 10
5.339999999999975
 20
17.28
 10
5.339999999999975
 20
17.30000000000001
 10
5.319999999999993
 20
17.30000000000001
 10
5.319999999999993
 20
17.32000000000002
 10
5.299999999999983
 20
17.32000000000002
 10
5.299999999999983
 20
17.340000000000003
 10
5.280000000000001
 20
17.340000000000003
 10
5.259999999999991
 20
17.360000000000014
 10
5.239999999999981
 20
17.380000000000024
 10
5.219999999999999
 20
17.380000000000024
 10
5.219999999999999
 20
17.400000000000006
 10
5.199999999999989
 20
17.400000000000006
 10
5.199999999999989
 20
17.420000000000016
 10
5.179999999999978
 20
17.420000000000016
 10
5.179999999999978
 20
17.440000000000026
 10
5.159999999999997
 20
17.440000000000026
 10
5.159999999999997
 20
17.460000000000008
 10
5.139999999999986
 20
17.460000000000008
 10
5.119999999999976
 20
17.480000000000018
 10
5.099999999999994
 20
17.480000000000018
 10
5.099999999999994
 20
17.5
 10
5.079999999999984
 20
17.5
 10
5.079999999999984
 20
17.52000000000001
 10
5.059999999999974
 20
17.52000000000001
 10
5.059999999999974
 20
17.54000000000002
 10
5.039999999999992
 20
17.54000000000002
 10
5.039999999999992
 20
17.560000000000002
 10
5.019999999999982
 20
17.560000000000002
 10
5.019999999999982
 20
17.580000000000013
 10
5.0
 20
17.580000000000013
 10
5.0
 20
17.600000000000023
 10
4.97999999999999
 20
17.600000000000023
 10
4.97999999999999
 20
17.620000000000005
 10
4.9599999999999795
 20
17.620000000000005
 10
4.9599999999999795
 20
17.640000000000015
 10
4.939999999999998
 20
17.640000000000015
 10
4.939999999999998
 20
17.660000000000025
 10
4.9199999999999875
 20
17.660000000000025
 10
4.9199999999999875
 20
17.680000000000007
 10
4.899999999999977
 20
17.680000000000007
 10
4.899999999999977
 20
17.700000000000017
 10
4.8799999999999955
 20
17.700000000000017
 10
4.8799999999999955
 20
17.72
 10
4.859999999999985
 20
17.72
 10
4.859999999999985
 20
17.74000000000001
 10
4.839999999999975
 20
17.76000000000002
 10
4.819999999999993
 20
17.78
 10
4.799999999999983
 20
17.80000000000001
 10
4.780000000000001
 20
17.82000000000002
 10
4.780000000000001
 20
17.840000000000003
 10
4.759999999999991
 20
17.840000000000003
 10
4.759999999999991
 20
17.860000000000014
 10
4.739999999999981
 20
17.860000000000014
 10
4.739999999999981
 20
17.880000000000024
 10
4.719999999999999
 20
17.900000000000006
 10
4.719999999999999
 20
17.920000000000016
 10
4.699999999999989
 20
17.920000000000016
 10
4.699999999999989
 20
17.940000000000026
 10
4.679999999999978
 20
17.940000000000026
 10
4.679999999999978
 20
17.960000000000008
 10
4.659999999999997
 20
17.980000000000018
 10
4.659999999999997
 20
18.0
 10
4.639999999999986
 20
18.0
 10
4.639999999999986
 20
18.02000000000001
 10
4.619999999999976
 20
18.04000000000002
 10
4.599999999999994
 20
18.060000000000002
 10
4.599999999999994
 20
18.080000000000013
 10
4.579999999999984
 20
18.100000000000023
 10
4.579999999999984
 20
18.120000000000005
 10
4.559999999999974
 20
18.120000000000005
 10
4.559999999999974
 20
18.140000000000015
 10
4.539999999999992
 20
18.160000000000025
 10
4.539999999999992
 20
18.180000000000007
 10
4.519999999999982
 20
18.200000000000017
 10
4.5
 20
18.22
 10
4.5
 20
18.24000000000001
 10
4.47999999999999
 20
18.26000000000002
 10
4.47999999999999
 20
18.28
 10
4.4599999999999795
 20
18.30000000000001
 10
4.4599999999999795
 20
18.32000000000002
 10
4.439999999999998
 20
18.340000000000003
 10
4.439999999999998
 20
18.360000000000014
 10
4.4199999999999875
 20
18.380000000000024
 10
4.399999999999977
 20
18.400000000000006
 10
4.399999999999977
 20
18.420000000000016
 10
4.399999999999977
 20
18.440000000000026
 10
4.3799999999999955
 20
18.460000000000008
 10
4.359999999999985
 20
18.480000000000018
 10
4.359999999999985
 20
18.5
 10
4.359999999999985
 20
18.52000000000001
 10
4.339999999999975
 20
18.54000000000002
 10
4.339999999999975
 20
18.560000000000002
 10
4.319999999999993
 20
18.580000000000013
 10
4.319999999999993
 20
18.600000000000023
 10
4.299999999999983
 20
18.620000000000005
 10
4.299999999999983
 20
18.640000000000015
 10
4.299999999999983
 20
18.660000000000025
 10
4.280000000000001
 20
18.680000000000007
 10
4.280000000000001
 20
18.700000000000017
 10
4.259999999999991
 20
18.700000000000017
 10
4.259999999999991
 20
18.72
 10
4.259999999999991
 20
18.74000000000001
 10
4.239999999999981
 20
18.76000000000002
 10
4.239999999999981
 20
18.78
 10
4.239999999999981
 20
18.80000000000001
 10
4.219999999999999
 20
18.80000000000001
 10
4.219999999999999
 20
18.82000000000002
 10
4.219999999999999
 20
18.840000000000003
 10
4.199999999999989
 20
18.860000000000014
 10
4.199999999999989
 20
18.880000000000024
 10
4.199999999999989
 20
18.900000000000006
 10
4.179999999999978
 20
18.920000000000016
 10
4.179999999999978
 20
18.940000000000026
 10
4.159999999999997
 20
18.960000000000008
 10
4.159999999999997
 20
18.980000000000018
 10
4.159999999999997
 20
19.0
 10
4.159999999999997
 20
19.02000000000001
 10
4.139999999999986
 20
19.04000000000002
 10
4.139999999999986
 20
19.060000000000002
 10
4.139999999999986
 20
19.080000000000013
 10
4.119999999999976
 20
19.080000000000013
 10
4.119999999999976
 20
19.100000000000023
 10
4.119999999999976
 20
19.120000000000005
 10
4.099999999999994
 20
19.140000000000015
 10
4.099999999999994
 20
19.160000000000025
 10
4.099999999999994
 20
19.180000000000007
 10
4.079999999999984
 20
19.200000000000017
 10
4.079999999999984
 20
19.22
 10
4.079999999999984
 20
19.24000000000001
 10
4.059999999999974
 20
19.26000000000002
 10
4.059999999999974
 20
19.28
 10
4.059999999999974
 20
19.30000000000001
 10
4.059999999999974
 20
19.32000000000002
 10
4.039999999999992
 20
19.32000000000002
 10
4.039999999999992
 20
19.340000000000003
 10
4.039999999999992
 20
19.360000000000014
 10
4.039999999999992
 20
19.380000000000024
 10
4.019999999999982
 20
19.380000000000024
 10
4.019999999999982
 20
19.400000000000006
 10
4.019999999999982
 20
19.420000000000016
 10
4.019999999999982
 20
19.440000000000026
 10
4.019999999999982
 20
19.460000000000008
 10
4.0
 20
19.480000000000018
 10
4.0
 20
19.5
 10
4.0
 20
19.52000000000001
 10
3.9799999999999898
 20
19.54000000000002
 10
3.9799999999999898
 20
19.560000000000002
 10
3.9799999999999898
 20
19.580000000000013
 10
3.9599999999999795
 20
19.600000000000023
 10
3.9599999999999795
 20
19.620000000000005
 10
3.9599999999999795
 20
19.640000000000015
 10
3.9599999999999795
 20
19.660000000000025
 10
3.9599999999999795
 20
19.680000000000007
 10
3.9399999999999977
 20
19.700000000000017
 10
3.9399999999999977
 20
19.72
 10
3.9399999999999977
 20
19.74000000000001
 10
3.9199999999999875
 20
19.76000000000002
 10
3.9199999999999875
 20
19.78
 10
3.9199999999999875
 20
19.80000000000001
 10
3.9199999999999875
 20
19.82000000000002
 10
3.8999999999999773
 20
19.840000000000003
 10
3.8999999999999773
 20
19.860000000000014
 10
3.8999999999999773
 20
19.880000000000024
 10
3.8999999999999773
 20
19.900000000000006
 10
3.8999999999999773
 20
19.920000000000016
 10
3.8799999999999955
 20
19.920000000000016
 10
3.8799999999999955
 20
19.940000000000026
 10
3.8799999999999955
 20
19.960000000000008
 10
3.8799999999999955
 20
19.980000000000018
 10
3.8799999999999955
 20
20.0
 10
3.859999999999985
 20
20.0
 10
3.859999999999985
 20
20.02000000000001
 10
3.859999999999985
 20
20.04000000000002
 10
3.859999999999985
 20
20.060000000000002
 10
3.859999999999985
 20
20.080000000000013
 10
3.839999999999975
 20
20.100000000000023
 10
3.839999999999975
 20
20.120000000000005
 10
3.839999999999975
 20
20.140000000000015
 10
3.839999999999975
 20
20.160000000000025
 10
3.839999999999975
 20
20.180000000000007
 10
3.819999999999993
 20
20.180000000000007
 10
3.819999999999993
 20
20.200000000000017
 10
3.819999999999993
 20
20.22
 10
3.819999999999993
 20
20.24000000000001
 10
3.819999999999993
 20
20.26000000000002
 10
3.799999999999983
 20
20.28
 10
3.799999999999983
 20
20.30000000000001
 10
3.799999999999983
 20
20.32000000000002
 10
3.799999999999983
 20
20.340000000000003
 10
3.799999999999983
 20
20.360000000000014
 10
3.780000000000001
 20
20.380000000000024
 10
3.780000000000001
 20
20.400000000000006
 10
3.780000000000001
 20
20.420000000000016
 10
3.780000000000001
 20
20.440000000000026
 10
3.780000000000001
 20
20.460000000000008
 10
4.759999999999991
 20
21.420000000000016
 10
5.839999999999975
 20
22.30000000000001
 10
5.859999999999985
 20
22.30000000000001
 10
5.8799999999999955
 20
22.30000000000001
 10
5.899999999999977
 20
22.28
 10
5.9199999999999875
 20
22.28
 10
5.939999999999998
 20
22.28
 10
5.9599999999999795
 20
22.26000000000002
 10
5.97999999999999
 20
22.26000000000002
 10
6.0
 20
22.26000000000002
 10
6.019999999999982
 20
22.26000000000002
 10
6.019999999999982
 20
22.24000000000001
 10
6.039999999999992
 20
22.24000000000001
 10
6.059999999999974
 20
22.24000000000001
 10
6.079999999999984
 20
22.24000000000001
 10
6.079999999999984
 20
22.22
 10
6.099999999999994
 20
22.22
 10
6.119999999999976
 20
22.22
 10
6.139999999999986
 20
22.22
 10
6.159999999999997
 20
22.200000000000017
 10
6.179999999999978
 20
22.200000000000017
 10
6.199999999999989
 20
22.180000000000007
 10
6.219999999999999
 20
22.180000000000007
 10
6.239999999999981
 20
22.180000000000007
 10
6.259999999999991
 20
22.180000000000007
 10
6.259999999999991
 20
22.160000000000025
 10
6.280000000000001
 20
22.160000000000025
 10
6.299999999999983
 20
22.160000000000025
 10
6.319999999999993
 20
22.160000000000025
 10
6.319999999999993
 20
22.140000000000015
 10
6.339999999999975
 20
22.140000000000015
 10
6.359999999999985
 20
22.140000000000015
 10
6.3799999999999955
 20
22.120000000000005
 10
6.399999999999977
 20
22.120000000000005
 10
6.4199999999999875
 20
22.120000000000005
 10
6.439999999999998
 20
22.100000000000023
 10
6.4599999999999795
 20
22.100000000000023
 10
6.47999999999999
 20
22.100000000000023
 10
6.5
 20
22.080000000000013
 10
6.519999999999982
 20
22.080000000000013
 10
6.539999999999992
 20
22.080000000000013
 10
6.559999999999974
 20
22.060000000000002
 10
6.579999999999984
 20
22.060000000000002
 10
6.599999999999994
 20
22.04000000000002
 10
6.619999999999976
 20
22.04000000000002
 10
6.639999999999986
 20
22.04000000000002
 10
6.659999999999997
 20
22.02000000000001
 10
6.679999999999978
 20
22.02000000000001
 10
6.699999999999989
 20
22.0
 10
6.719999999999999
 20
22.0
 10
6.739999999999981
 20
22.0
 10
6.759999999999991
 20
21.980000000000018
 10
6.780000000000001
 20
21.980000000000018
 10
6.799999999999983
 20
21.980000000000018
 10
6.819999999999993
 20
21.960000000000008
 10
6.839999999999975
 20
21.960000000000008
 10
6.859999999999985
 20
21.940000000000026
 10
6.8799999999999955
 20
21.940000000000026
 10
6.899999999999977
 20
21.940000000000026
 10
6.899999999999977
 20
21.920000000000016
 10
6.9199999999999875
 20
21.920000000000016
 10
6.939999999999998
 20
21.920000000000016
 10
6.9599999999999795
 20
21.900000000000006
 10
6.97999999999999
 20
21.900000000000006
 10
7.0
 20
21.880000000000024
 10
7.019999999999982
 20
21.880000000000024
 10
7.039999999999992
 20
21.860000000000014
 10
7.059999999999974
 20
21.860000000000014
 10
7.079999999999984
 20
21.860000000000014
 10
7.099999999999994
 20
21.840000000000003
 10
7.119999999999976
 20
21.840000000000003
 10
7.139999999999986
 20
21.82000000000002
 10
7.159999999999997
 20
21.82000000000002
 10
7.179999999999978
 20
21.80000000000001
 10
7.199999999999989
 20
21.80000000000001
 10
7.219999999999999
 20
21.78
 10
7.239999999999981
 20
21.78
 10
7.259999999999991
 20
21.78
 10
7.280000000000001
 20
21.76000000000002
 10
7.299999999999983
 20
21.74000000000001
 10
7.319999999999993
 20
21.74000000000001
 10
7.339999999999975
 20
21.74000000000001
 10
7.359999999999985
 20
21.72
 10
7.3799999999999955
 20
21.72
 10
7.3799999999999955
 20
21.700000000000017
 10
7.399999999999977
 20
21.700000000000017
 10
7.4199999999999875
 20
21.680000000000007
 10
7.439999999999998
 20
21.680000000000007
 10
7.4599999999999795
 20
21.680000000000007
 10
7.4599999999999795
 20
21.660000000000025
 10
7.47999999999999
 20
21.660000000000025
 10
7.5
 20
21.640000000000015
 10
7.519999999999982
 20
21.640000000000015
 10
7.519999999999982
 20
21.620000000000005
 10
7.539999999999992
 20
21.620000000000005
 10
7.559999999999974
 20
21.620000000000005
 10
7.579999999999984
 20
21.600000000000023
 10
7.599999999999994
 20
21.600000000000023
 10
7.619999999999976
 20
21.580000000000013
 10
7.639999999999986
 20
21.580000000000013
 10
7.639999999999986
 20
21.560000000000002
 10
7.659999999999997
 20
21.560000000000002
 10
7.679999999999978
 20
21.54000000000002
 10
7.699999999999989
 20
21.54000000000002
 10
7.719999999999999
 20
21.52000000000001
 10
7.739999999999981
 20
21.5
 10
7.759999999999991
 20
21.5
 10
7.780000000000001
 20
21.480000000000018
 10
7.799999999999983
 20
21.460000000000008
 10
7.819999999999993
 20
21.460000000000008
 10
7.839999999999975
 20
21.440000000000026
 10
7.859999999999985
 20
21.420000000000016
 10
7.8799999999999955
 20
21.420000000000016
 10
7.899999999999977
 20
21.400000000000006
 10
7.9199999999999875
 20
21.380000000000024
 10
7.939999999999998
 20
21.380000000000024
 10
7.9599999999999795
 20
21.360000000000014
 10
7.97999999999999
 20
21.360000000000014
 10
7.97999999999999
 20
21.340000000000003
 10
8.0
 20
21.340000000000003
 10
8.019999999999982
 20
21.32000000000002
 10
8.039999999999992
 20
21.30000000000001
 10
8.059999999999974
 20
21.28
 10
8.079999999999984
 20
21.28
 10
8.079999999999984
 20
21.26000000000002
 10
8.099999999999994
 20
21.26000000000002
 10
8.119999999999976
 20
21.24000000000001
 10
8.139999999999986
 20
21.22
 10
8.159999999999997
 20
21.200000000000017
 10
8.179999999999978
 20
21.200000000000017
 10
8.179999999999978
 20
21.180000000000007
 10
8.199999999999989
 20
21.180000000000007
 10
8.199999999999989
 20
21.160000000000025
 10
8.219999999999999
 20
21.160000000000025
 10
8.219999999999999
 20
21.140000000000015
 10
8.23999999999998
 20
21.140000000000015
 10
8.23999999999998
 20
21.120000000000005
 10
8.259999999999991
 20
21.120000000000005
 10
8.280000000000001
 20
21.100000000000023
 10
8.299999999999983
 20
21.080000000000013
 10
8.319999999999993
 20
21.060000000000002
 10
8.339999999999975
 20
21.04000000000002
 10
8.359999999999985
 20
21.02000000000001
 10
8.359999999999985
 20
21.0
 10
8.379999999999995
 20
21.0
 10
8.399999999999977
 20
20.980000000000018
 10
8.399999999999977
 20
20.960000000000008
 10
8.419999999999987
 20
20.960000000000008
 10
8.419999999999987
 20
20.940000000000026
 10
8.439999999999998
 20
20.940000000000026
 10
8.439999999999998
 20
20.920000000000016
 10
8.45999999999998
 20
20.920000000000016
 10
8.45999999999998
 20
20.900000000000006
 10
8.47999999999999
 20
20.900000000000006
 10
8.47999999999999
 20
20.880000000000024
 10
8.5
 20
20.860000000000014
 10
8.519999999999982
 20
20.840000000000003
 10
8.519999999999982
 20
20.82000000000002
 10
8.539999999999992
 20
20.82000000000002
 10
8.539999999999992
 20
20.80000000000001
 10
8.559999999999974
 20
20.80000000000001
 10
8.559999999999974
 20
20.78
 10
8.579999999999984
 20
20.76000000000002
 10
8.599999999999994
 20
20.74000000000001
 10
8.599999999999994
 20
20.72
 10
8.619999999999976
 20
20.72
 10
8.619999999999976
 20
20.700000000000017
 10
8.639999999999986
 20
20.700000000000017
 10
8.639999999999986
 20
20.680000000000007
 10
8.659999999999997
 20
20.660000000000025
 10
8.659999999999997
 20
20.640000000000015
 10
8.679999999999978
 20
20.640000000000015
 10
8.679999999999978
 20
20.620000000000005
 10
8.699999999999989
 20
20.600000000000023
 10
8.699999999999989
 20
20.580000000000013
 10
8.719999999999999
 20
20.580000000000013
 10
8.719999999999999
 20
20.560000000000002
 10
8.73999999999998
 20
20.54000000000002
 10
8.73999999999998
 20
20.52000000000001
 10
8.759999999999991
 20
20.52000000000001
 10
8.759999999999991
 20
20.5
 10
8.780000000000001
 20
20.480000000000018
 10
8.780000000000001
 20
20.460000000000008
 10
8.799999999999983
 20
20.460000000000008
 10
8.799999999999983
 20
20.440000000000026
 10
8.819999999999993
 20
20.440000000000026
 10
8.819999999999993
 20
20.420000000000016
 10
8.819999999999993
 20
20.400000000000006
 10
8.839999999999975
 20
20.400000000000006
 10
8.839999999999975
 20
20.380000000000024
 10
8.859999999999985
 20
20.360000000000014
 10
8.859999999999985
 20
20.340000000000003
 10
8.879999999999995
 20
20.340000000000003
 10
8.879999999999995
 20
20.32000000000002
 10
8.899999999999977
 20
20.32000000000002
 10
8.899999999999977
 20
20.30000000000001
 10
8.899999999999977
 20
20.28
 10
8.919999999999987
 20
20.28
 10
8.919999999999987
 20
20.26000000000002
 10
8.939999999999998
 20
20.26000000000002
 10
8.939999999999998
 20
20.24000000000001
 10
8.95999999999998
 20
20.22
 10
8.95999999999998
 20
20.200000000000017
 10
8.97999999999999
 20
20.200000000000017
 10
8.97999999999999
 20
20.180000000000007
 10
9.0
 20
20.180000000000007
 10
9.0
 20
20.160000000000025
 10
9.019999999999982
 20
20.140000000000015
 10
9.019999999999982
 20
20.120000000000005
 10
9.039999999999992
 20
20.120000000000005
 10
9.039999999999992
 20
20.100000000000023
 10
9.059999999999974
 20
20.100000000000023
 10
9.059999999999974
 20
20.080000000000013
 10
9.079999999999984
 20
20.080000000000013
 10
9.079999999999984
 20
20.060000000000002
 10
9.099999999999994
 20
20.060000000000002
 10
9.099999999999994
 20
20.04000000000002
 10
9.119999999999976
 20
20.04000000000002
 10
9.119999999999976
 20
20.02000000000001
 10
9.139999999999986
 20
20.02000000000001
 10
9.139999999999986
 20
20.0
 10
9.159999999999997
 20
20.0
 10
9.159999999999997
 20
19.980000000000018
 10
9.179999999999978
 20
19.980000000000018
 10
9.179999999999978
 20
19.960000000000008
 10
9.199999999999989
 20
19.960000000000008
 10
9.199999999999989
 20
19.940000000000026
 10
9.219999999999999
 20
19.940000000000026
 10
9.219999999999999
 20
19.920000000000016
 10
9.23999999999998
 20
19.920000000000016
 10
9.23999999999998
 20
19.900000000000006
 10
9.259999999999991
 20
19.900000000000006
 10
9.259999999999991
 20
19.880000000000024
 10
9.280000000000001
 20
19.880000000000024
 10
9.299999999999983
 20
19.860000000000014
 10
9.319999999999993
 20
19.860000000000014
 10
9.319999999999993
 20
19.840000000000003
 10
9.339999999999975
 20
19.840000000000003
 10
9.339999999999975
 20
19.82000000000002
 10
9.359999999999985
 20
19.82000000000002
 10
9.379999999999995
 20
19.82000000000002
 10
9.379999999999995
 20
19.80000000000001
 10
9.399999999999977
 20
19.80000000000001
 10
9.399999999999977
 20
19.78
 10
9.419999999999987
 20
19.78
 10
9.439999999999998
 20
19.78
 10
9.439999999999998
 20
19.76000000000002
 10
9.45999999999998
 20
19.76000000000002
 10
9.45999999999998
 20
19.74000000000001
 10
9.47999999999999
 20
19.74000000000001
 10
9.5
 20
19.74000000000001
 10
9.5
 20
19.72
 10
9.519999999999982
 20
19.72
 10
9.539999999999992
 20
19.72
 10
9.539999999999992
 20
19.700000000000017
 10
9.559999999999974
 20
19.700000000000017
 10
9.579999999999984
 20
19.700000000000017
 10
9.579999999999984
 20
19.680000000000007
 10
9.599999999999994
 20
19.680000000000007
 10
9.619999999999976
 20
19.680000000000007
 10
9.619999999999976
 20
19.660000000000025
 10
9.639999999999986
 20
19.660000000000025
 10
9.659999999999997
 20
19.660000000000025
 10
9.679999999999978
 20
19.640000000000015
 10
9.699999999999989
 20
19.640000000000015
 10
9.719999999999999
 20
19.640000000000015
 10
9.719999999999999
 20
19.620000000000005
 10
9.73999999999998
 20
19.620000000000005
 10
9.759999999999991
 20
19.620000000000005
 10
9.780000000000001
 20
19.620000000000005
 10
9.780000000000001
 20
19.600000000000023
 10
9.799999999999983
 20
19.600000000000023
 10
9.819999999999993
 20
19.600000000000023
 10
9.839999999999975
 20
19.580000000000013
 10
9.859999999999985
 20
19.580000000000013
 10
9.879999999999995
 20
19.580000000000013
 10
9.899999999999977
 20
19.560000000000002
 10
9.919999999999987
 20
19.560000000000002
 10
9.939999999999998
 20
19.560000000000002
 10
9.95999999999998
 20
19.560000000000002
 10
9.95999999999998
 20
19.54000000000002
 10
9.97999999999999
 20
19.54000000000002
 10
10.0
 20
19.54000000000002
 10
10.019999999999982
 20
19.54000000000002
 10
10.039999999999992
 20
19.54000000000002
 10
10.039999999999992
 20
19.52000000000001
 10
10.579999999999984
 20
19.78
 10
11.139999999999986
 20
20.0
 10
11.719999999999999
 20
20.180000000000007
 10
12.299999999999983
 20
20.340000000000003
 10
12.319999999999993
 20
20.340000000000003
 10
12.319999999999993
 20
20.360000000000014
 10
12.319999999999993
 20
20.380000000000024
 10
12.339999999999975
 20
20.380000000000024
 10
12.339999999999975
 20
20.400000000000006
 10
12.359999999999985
 20
20.400000000000006
 10
12.359999999999985
 20
20.420000000000016
 10
12.379999999999995
 20
20.440000000000026
 10
12.379999999999995
 20
20.460000000000008
 10
12.399999999999977
 20
20.460000000000008
 10
12.399999999999977
 20
20.480000000000018
 10
12.419999999999987
 20
20.5
 10
12.419999999999987
 20
20.52000000000001
 10
12.439999999999998
 20
20.52000000000001
 10
12.439999999999998
 20
20.54000000000002
 10
12.439999999999998
 20
20.560000000000002
 10
12.45999999999998
 20
20.560000000000002
 10
12.45999999999998
 20
20.580000000000013
 10
12.47999999999999
 20
20.600000000000023
 10
12.47999999999999
 20
20.620000000000005
 10
12.5
 20
20.620000000000005
 10
12.5
 20
20.640000000000015
 10
12.5
 20
20.660000000000025
 10
12.519999999999982
 20
20.660000000000025
 10
12.519999999999982
 20
20.680000000000007
 10
12.519999999999982
 20
20.700000000000017
 10
12.539999999999992
 20
20.700000000000017
 10
12.539999999999992
 20
20.72
 10
12.539999999999992
 20
20.74000000000001
 10
12.559999999999974
 20
20.74000000000001
 10
12.559999999999974
 20
20.76000000000002
 10
12.559999999999974
 20
20.78
 10
12.579999999999984
 20
20.78
 10
12.579999999999984
 20
20.80000000000001
 10
12.579999999999984
 20
20.82000000000002
 10
12.579999999999984
 20
20.840000000000003
 10
12.599999999999994
 20
20.840000000000003
 10
12.599999999999994
 20
20.860000000000014
 10
12.599999999999994
 20
20.880000000000024
 10
12.619999999999976
 20
20.900000000000006
 10
12.619999999999976
 20
20.920000000000016
 10
12.619999999999976
 20
20.940000000000026
 10
12.639999999999986
 20
20.940000000000026
 10
12.639999999999986
 20
20.960000000000008
 10
12.639999999999986
 20
20.980000000000018
 10
12.639999999999986
 20
21.0
 10
12.659999999999997
 20
21.02000000000001
 10
12.659999999999997
 20
21.04000000000002
 10
12.659999999999997
 20
21.060000000000002
 10
12.659999999999997
 20
21.080000000000013
 10
12.659999999999997
 20
21.100000000000023
 10
12.679999999999978
 20
21.100000000000023
 10
12.679999999999978
 20
21.120000000000005
 10
12.679999999999978
 20
21.140000000000015
 10
12.679999999999978
 20
21.160000000000025
 10
12.679999999999978
 20
21.180000000000007
 10
12.679999999999978
 20
21.200000000000017
 10
12.699999999999989
 20
21.22
 10
12.699999999999989
 20
21.24000000000001
 10
12.699999999999989
 20
21.26000000000002
 10
12.699999999999989
 20
21.28
 10
12.699999999999989
 20
21.30000000000001
 10
12.699999999999989
 20
21.32000000000002
 10
12.699999999999989
 20
21.340000000000003
 10
12.699999999999989
 20
21.360000000000014
 10
12.699999999999989
 20
21.380000000000024
 10
12.699999999999989
 20
21.400000000000006
 10
12.699999999999989
 20
21.420000000000016
 10
12.699999999999989
 20
21.440000000000026
 10
12.699999999999989
 20
21.460000000000008
 10
12.699999999999989
 20
21.480000000000018
 10
12.699999999999989
 20
21.5
 10
12.699999999999989
 20
21.52000000000001
 10
12.699999999999989
 20
21.54000000000002
 10
12.699999999999989
 20
21.560000000000002
 10
12.699999999999989
 20
21.580000000000013
 10
12.699999999999989
 20
21.600000000000023
 10
12.699999999999989
 20
21.620000000000005
 10
12.699999999999989
 20
21.640000000000015
 10
12.699999999999989
 20
21.660000000000025
 10
12.699999999999989
 20
21.680000000000007
 10
12.699999999999989
 20
21.700000000000017
 10
12.699999999999989
 20
21.72
 10
12.679999999999978
 20
21.74000000000001
 10
12.679999999999978
 20
21.76000000000002
 10
12.679999999999978
 20
21.78
 10
12.679999999999978
 20
21.80000000000001
 10
12.679999999999978
 20
21.82000000000002
 10
12.679999999999978
 20
21.840000000000003
 10
12.679999999999978
 20
21.860000000000014
 10
12.679999999999978
 20
21.880000000000024
 10
12.679999999999978
 20
21.900000000000006
 10
12.679999999999978
 20
21.920000000000016
 10
12.679999999999978
 20
21.940000000000026
 10
12.659999999999997
 20
21.940000000000026
 10
12.659999999999997
 20
21.960000000000008
 10
12.659999999999997
 20
21.980000000000018
 10
12.659999999999997
 20
22.0
 10
12.659999999999997
 20
22.02000000000001
 10
12.659999999999997
 20
22.04000000000002
 10
12.659999999999997
 20
22.060000000000002
 10
12.659999999999997
 20
22.080000000000013
 10
12.659999999999997
 20
22.100000000000023
 10
12.659999999999997
 20
22.120000000000005
 10
12.659999999999997
 20
22.140000000000015
 10
12.659999999999997
 20
22.160000000000025
 10
12.659999999999997
 20
22.180000000000007
 10
12.659999999999997
 20
22.200000000000017
 10
12.659999999999997
 20
22.22
 10
12.659999999999997
 20
22.24000000000001
 10
12.659999999999997
 20
22.26000000000002
 10
12.659999999999997
 20
22.28
 10
12.659999999999997
 20
22.30000000000001
 10
12.659999999999997
 20
22.32000000000002
 10
12.659999999999997
 20
22.340000000000003
 10
12.659999999999997
 20
22.360000000000014
 10
12.659999999999997
 20
22.380000000000024
 10
12.659999999999997
 20
22.400000000000006
 10
12.659999999999997
 20
22.420000000000016
 10
12.659999999999997
 20
22.440000000000026
 10
12.659999999999997
 20
22.460000000000008
 10
12.659999999999997
 20
22.480000000000018
 10
12.659999999999997
 20
22.5
 10
12.659999999999997
 20
22.52000000000001
 10
12.659999999999997
 20
22.54000000000002
 10
12.659999999999997
 20
22.560000000000002
 10
12.659999999999997
 20
22.580000000000013
 10
12.659999999999997
 20
22.600000000000023
 10
12.659999999999997
 20
22.620000000000005
 10
12.679999999999978
 20
22.640000000000015
 10
12.679999999999978
 20
22.660000000000025
 10
12.679999999999978
 20
22.680000000000007
 10
12.679999999999978
 20
22.700000000000017
 10
12.679999999999978
 20
22.72
 10
12.679999999999978
 20
22.74000000000001
 10
12.679999999999978
 20
22.76000000000002
 10
12.679999999999978
 20
22.78
 10
12.699999999999989
 20
22.78
 10
12.699999999999989
 20
22.80000000000001
 10
12.699999999999989
 20
22.82000000000002
 10
12.699999999999989
 20
22.840000000000003
 10
12.699999999999989
 20
22.860000000000014
 10
12.699999999999989
 20
22.880000000000024
 10
12.719999999999999
 20
22.900000000000006
 10
12.719999999999999
 20
22.920000000000016
 10
12.719999999999999
 20
22.940000000000026
 10
12.719999999999999
 20
22.960000000000008
 10
12.73999999999998
 20
22.980000000000018
 10
12.73999999999998
 20
23.0
 10
12.73999999999998
 20
23.02000000000001
 10
12.73999999999998
 20
23.04000000000002
 10
12.759999999999991
 20
23.060000000000002
 10
12.759999999999991
 20
23.080000000000013
 10
12.759999999999991
 20
23.100000000000023
 10
12.759999999999991
 20
23.120000000000005
 10
12.780000000000001
 20
23.140000000000015
 10
12.780000000000001
 20
23.160000000000025
 10
12.780000000000001
 20
23.180000000000007
 10
12.799999999999983
 20
23.200000000000017
 10
12.799999999999983
 20
23.22
 10
12.799999999999983
 20
23.24000000000001
 10
12.819999999999993
 20
23.26000000000002
 10
12.819999999999993
 20
23.28
 10
12.819999999999993
 20
23.30000000000001
 10
12.839999999999975
 20
23.32000000000002
 10
12.839999999999975
 20
23.340000000000003
 10
12.839999999999975
 20
23.360000000000014
 10
12.859999999999985
 20
23.380000000000024
 10
12.859999999999985
 20
23.400000000000006
 10
12.859999999999985
 20
23.420000000000016
 10
12.879999999999995
 20
23.440000000000026
 10
12.879999999999995
 20
23.460000000000008
 10
12.879999999999995
 20
23.480000000000018
 10
12.899999999999977
 20
23.5
 10
12.899999999999977
 20
23.52000000000001
 10
12.919999999999987
 20
23.52000000000001
 10
12.919999999999987
 20
23.54000000000002
 10
12.919999999999987
 20
23.560000000000002
 10
12.939999999999998
 20
23.580000000000013
 10
12.939999999999998
 20
23.600000000000023
 10
12.939999999999998
 20
23.620000000000005
 10
12.95999999999998
 20
23.620000000000005
 10
12.95999999999998
 20
23.640000000000015
 10
12.95999999999998
 20
23.660000000000025
 10
12.97999999999999
 20
23.680000000000007
 10
12.97999999999999
 20
23.700000000000017
 10
12.97999999999999
 20
23.72
 10
13.0
 20
23.72
 10
13.0
 20
23.74000000000001
 10
13.019999999999982
 20
23.76000000000002
 10
13.019999999999982
 20
23.78
 10
13.019999999999982
 20
23.80000000000001
 10
13.039999999999992
 20
23.82000000000002
 10
13.039999999999992
 20
23.840000000000003
 10
13.059999999999974
 20
23.840000000000003
 10
13.059999999999974
 20
23.860000000000014
 10
13.059999999999974
 20
23.880000000000024
 10
13.079999999999984
 20
23.900000000000006
 10
13.079999999999984
 20
23.920000000000016
 10
13.099999999999994
 20
23.940000000000026
 10
13.099999999999994
 20
23.960000000000008
 10
13.119999999999976
 20
23.980000000000018
 10
13.119999999999976
 20
24.0
 10
13.139999999999986
 20
24.02000000000001
 10
13.139999999999986
 20
24.04000000000002
 10
13.159999999999997
 20
24.060000000000002
 10
13.159999999999997
 20
24.080000000000013
 10
13.179999999999978
 20
24.100000000000023
 10
13.179999999999978
 20
24.120000000000005
 10
13.199999999999989
 20
24.120000000000005
 10
13.199999999999989
 20
24.140000000000015
 10
13.199999999999989
 20
24.160000000000025
 10
13.219999999999999
 20
24.180000000000007
 10
13.219999999999999
 20
24.200000000000017
 10
13.23999999999998
 20
24.22
 10
13.23999999999998
 20
24.24000000000001
 10
13.259999999999991
 20
24.24000000000001
 10
13.259999999999991
 20
24.26000000000002
 10
13.280000000000001
 20
24.28
 10
13.280000000000001
 20
24.30000000000001
 10
13.299999999999983
 20
24.32000000000002
 10
13.299999999999983
 20
24.340000000000003
 10
13.319999999999993
 20
24.360000000000014
 10
13.319999999999993
 20
24.380000000000024
 10
13.339999999999975
 20
24.400000000000006
 10
13.339999999999975
 20
24.420000000000016
 10
13.359999999999985
 20
24.420000000000016
 10
13.359999999999985
 20
24.440000000000026
 10
13.379999999999995
 20
24.460000000000008
 10
13.379999999999995
 20
24.480000000000018
 10
13.399999999999977
 20
24.480000000000018
 10
13.399999999999977
 20
24.5
 10
13.399999999999977
 20
24.52000000000001
 10
13.419999999999987
 20
24.54000000000002
 10
13.419999999999987
 20
24.560000000000002
 10
13.439999999999998
 20
24.560000000000002
 10
13.439999999999998
 20
24.580000000000013
 10
13.45999999999998
 20
24.600000000000023
 10
13.47999999999999
 20
24.620000000000005
 10
13.47999999999999
 20
24.640000000000015
 10
13.47999999999999
 20
24.660000000000025
 10
13.5
 20
24.660000000000025
 10
13.5
 20
24.680000000000007
 10
13.519999999999982
 20
24.680000000000007
 10
13.519999999999982
 20
24.700000000000017
 10
13.539999999999992
 20
24.72
 10
13.539999999999992
 20
24.74000000000001
 10
13.559999999999974
 20
24.76000000000002
 10
13.559999999999974
 20
24.78
 10
13.579999999999984
 20
24.78
 10
13.579999999999984
 20
24.80000000000001
 10
13.599999999999994
 20
24.82000000000002
 10
13.599999999999994
 20
24.840000000000003
 10
13.619999999999976
 20
24.860000000000014
 10
13.619999999999976
 20
24.880000000000024
 10
13.639999999999986
 20
24.880000000000024
 10
13.639999999999986
 20
24.900000000000006
 10
13.659999999999997
 20
24.900000000000006
 10
13.659999999999997
 20
24.920000000000016
 10
13.659999999999997
 20
24.940000000000026
 10
13.679999999999978
 20
24.940000000000026
 10
13.679999999999978
 20
24.960000000000008
 10
13.699999999999989
 20
24.960000000000008
 10
13.699999999999989
 20
24.980000000000018
 10
13.699999999999989
 20
25.0
 10
13.719999999999999
 20
25.0
 10
13.719999999999999
 20
25.02000000000001
 10
13.73999999999998
 20
25.04000000000002
 10
13.73999999999998
 20
25.060000000000002
 10
13.759999999999991
 20
25.060000000000002
 10
13.759999999999991
 20
25.080000000000013
 10
13.780000000000001
 20
25.100000000000023
 10
13.780000000000001
 20
25.120000000000005
 10
13.799999999999983
 20
25.120000000000005
 10
13.799999999999983
 20
25.140000000000015
 10
15.199999999999989
 20
25.140000000000015
 10
16.579999999999984
 20
25.0
 10
16.579999999999984
 20
24.980000000000018
 10
16.599999999999994
 20
24.980000000000018
 10
16.599999999999994
 20
24.960000000000008
 10
16.599999999999994
 20
24.940000000000026
 10
16.619999999999976
 20
24.940000000000026
 10
16.619999999999976
 20
24.920000000000016
 10
16.619999999999976
 20
24.900000000000006
 10
16.639999999999986
 20
24.900000000000006
 10
16.639999999999986
 20
24.880000000000024
 10
16.639999999999986
 20
24.860000000000014
 10
16.659999999999997
 20
24.860000000000014
 10
16.659999999999997
 20
24.840000000000003
 10
16.659999999999997
 20
24.82000000000002
 10
16.67999999999998
 20
24.82000000000002
 10
16.67999999999998
 20
24.80000000000001
 10
16.69999999999999
 20
24.78
 10
16.69999999999999
 20
24.76000000000002
 10
16.72
 20
24.74000000000001
 10
16.72
 20
24.72
 10
16.73999999999998
 20
24.700000000000017
 10
16.73999999999998
 20
24.680000000000007
 10
16.75999999999999
 20
24.660000000000025
 10
16.75999999999999
 20
24.640000000000015
 10
16.78
 20
24.620000000000005
 10
16.78
 20
24.600000000000023
 10
16.78
 20
24.580000000000013
 10
16.799999999999983
 20
24.580000000000013
 10
16.799999999999983
 20
24.560000000000002
 10
16.819999999999993
 20
24.54000000000002
 10
16.819999999999993
 20
24.52000000000001
 10
16.819999999999993
 20
24.5
 10
16.839999999999975
 20
24.5
 10
16.839999999999975
 20
24.480000000000018
 10
16.839999999999975
 20
24.460000000000008
 10
16.859999999999985
 20
24.460000000000008
 10
16.859999999999985
 20
24.440000000000026
 10
16.859999999999985
 20
24.420000000000016
 10
16.879999999999995
 20
24.400000000000006
 10
16.899999999999977
 20
24.380000000000024
 10
16.899999999999977
 20
24.360000000000014
 10
16.899999999999977
 20
24.340000000000003
 10
16.919999999999987
 20
24.32000000000002
 10
16.919999999999987
 20
24.30000000000001
 10
16.939999999999998
 20
24.28
 10
16.939999999999998
 20
24.26000000000002
 10
16.95999999999998
 20
24.24000000000001
 10
16.95999999999998
 20
24.22
 10
16.97999999999999
 20
24.200000000000017
 10
16.97999999999999
 20
24.180000000000007
 10
16.97999999999999
 20
24.160000000000025
 10
17.0
 20
24.140000000000015
 10
17.0
 20
24.120000000000005
 10
17.019999999999982
 20
24.100000000000023
 10
17.019999999999982
 20
24.080000000000013
 10
17.019999999999982
 20
24.060000000000002
 10
17.039999999999992
 20
24.060000000000002
 10
17.039999999999992
 20
24.04000000000002
 10
17.039999999999992
 20
24.02000000000001
 10
17.059999999999974
 20
24.0
 10
17.059999999999974
 20
23.980000000000018
 10
17.079999999999984
 20
23.960000000000008
 10
17.079999999999984
 20
23.940000000000026
 10
17.099999999999994
 20
23.920000000000016
 10
17.099999999999994
 20
23.900000000000006
 10
17.099999999999994
 20
23.880000000000024
 10
17.119999999999976
 20
23.860000000000014
 10
17.119999999999976
 20
23.840000000000003
 10
17.119999999999976
 20
23.82000000000002
 10
17.139999999999986
 20
23.80000000000001
 10
17.139999999999986
 20
23.78
 10
17.139999999999986
 20
23.76000000000002
 10
17.159999999999997
 20
23.74000000000001
 10
17.159999999999997
 20
23.72
 10
17.17999999999998
 20
23.700000000000017
 10
17.17999999999998
 20
23.680000000000007
 10
17.17999999999998
 20
23.660000000000025
 10
17.19999999999999
 20
23.640000000000015
 10
17.19999999999999
 20
23.620000000000005
 10
17.19999999999999
 20
23.600000000000023
 10
17.22
 20
23.580000000000013
 10
17.22
 20
23.560000000000002
 10
17.22
 20
23.54000000000002
 10
17.23999999999998
 20
23.54000000000002
 10
17.23999999999998
 20
23.52000000000001
 10
17.23999999999998
 20
23.5
 10
17.23999999999998
 20
23.480000000000018
 10
17.25999999999999
 20
23.460000000000008
 10
17.25999999999999
 20
23.440000000000026
 10
17.25999999999999
 20
23.420000000000016
 10
17.28
 20
23.420000000000016
 10
17.28
 20
23.400000000000006
 10
17.28
 20
23.380000000000024
 10
17.28
 20
23.360000000000014
 10
17.299999999999983
 20
23.340000000000003
 10
17.299999999999983
 20
23.32000000000002
 10
17.299999999999983
 20
23.30000000000001
 10
17.299999999999983
 20
23.28
 10
17.319999999999993
 20
23.26000000000002
 10
17.319999999999993
 20
23.24000000000001
 10
17.319999999999993
 20
23.22
 10
17.339999999999975
 20
23.200000000000017
 10
17.339999999999975
 20
23.180000000000007
 10
17.339999999999975
 20
23.160000000000025
 10
17.339999999999975
 20
23.140000000000015
 10
17.359999999999985
 20
23.120000000000005
 10
17.359999999999985
 20
23.100000000000023
 10
17.359999999999985
 20
23.080000000000013
 10
17.359999999999985
 20
23.060000000000002
 10
17.379999999999995
 20
23.04000000000002
 10
17.379999999999995
 20
23.02000000000001
 10
17.379999999999995
 20
23.0
 10
17.379999999999995
 20
22.980000000000018
 10
17.379999999999995
 20
22.960000000000008
 10
17.399999999999977
 20
22.940000000000026
 10
17.399999999999977
 20
22.920000000000016
 10
17.399999999999977
 20
22.900000000000006
 10
17.399999999999977
 20
22.880000000000024
 10
17.399999999999977
 20
22.860000000000014
 10
17.399999999999977
 20
22.840000000000003
 10
17.419999999999987
 20
22.82000000000002
 10
17.419999999999987
 20
22.80000000000001
 10
17.419999999999987
 20
22.78
 10
17.419999999999987
 20
22.76000000000002
 10
17.419999999999987
 20
22.74000000000001
 10
17.419999999999987
 20
22.72
 10
17.419999999999987
 20
22.700000000000017
 10
17.439999999999998
 20
22.700000000000017
 10
17.439999999999998
 20
22.680000000000007
 10
17.439999999999998
 20
22.660000000000025
 10
17.439999999999998
 20
22.640000000000015
 10
17.439999999999998
 20
22.620000000000005
 10
17.439999999999998
 20
22.600000000000023
 10
17.439999999999998
 20
22.580000000000013
 10
17.439999999999998
 20
22.560000000000002
 10
17.439999999999998
 20
22.54000000000002
 10
17.439999999999998
 20
22.52000000000001
 10
17.439999999999998
 20
22.5
 10
17.439999999999998
 20
22.480000000000018
 10
17.439999999999998
 20
22.460000000000008
 10
17.45999999999998
 20
22.440000000000026
 10
17.45999999999998
 20
22.420000000000016
 10
17.45999999999998
 20
22.400000000000006
 10
17.45999999999998
 20
22.380000000000024
 10
17.45999999999998
 20
22.360000000000014
 10
17.45999999999998
 20
22.340000000000003
 10
17.45999999999998
 20
22.32000000000002
 10
17.45999999999998
 20
22.30000000000001
 10
17.45999999999998
 20
22.28
 10
17.45999999999998
 20
22.26000000000002
 10
17.45999999999998
 20
22.24000000000001
 10
17.439999999999998
 20
22.24000000000001
 10
17.439999999999998
 20
22.22
 10
17.439999999999998
 20
22.200000000000017
 10
17.439999999999998
 20
22.180000000000007
 10
17.439999999999998
 20
22.160000000000025
 10
17.439999999999998
 20
22.140000000000015
 10
17.439999999999998
 20
22.120000000000005
 10
17.439999999999998
 20
22.100000000000023
 10
17.439999999999998
 20
22.080000000000013
 10
17.439999999999998
 20
22.060000000000002
 10
17.439999999999998
 20
22.04000000000002
 10
17.439999999999998
 20
22.02000000000001
 10
17.439999999999998
 20
22.0
 10
17.419999999999987
 20
22.0
 10
17.419999999999987
 20
21.980000000000018
 10
17.419999999999987
 20
21.960000000000008
 10
17.419999999999987
 20
21.940000000000026
 10
17.419999999999987
 20
21.920000000000016
 10
17.419999999999987
 20
21.900000000000006
 10
17.419999999999987
 20
21.880000000000024
 10
17.419999999999987
 20
21.860000000000014
 10
17.399999999999977
 20
21.860000000000014
 10
17.399999999999977
 20
21.840000000000003
 10
17.399999999999977
 20
21.82000000000002
 10
17.399999999999977
 20
21.80000000000001
 10
17.399999999999977
 20
21.78
 10
17.399999999999977
 20
21.76000000000002
 10
17.379999999999995
 20
21.74000000000001
 10
17.379999999999995
 20
21.72
 10
17.379999999999995
 20
21.700000000000017
 10
17.379999999999995
 20
21.680000000000007
 10
17.379999999999995
 20
21.660000000000025
 10
17.359999999999985
 20
21.640000000000015
 10
17.359999999999985
 20
21.620000000000005
 10
17.359999999999985
 20
21.600000000000023
 10
17.359999999999985
 20
21.580000000000013
 10
17.359999999999985
 20
21.560000000000002
 10
17.359999999999985
 20
21.54000000000002
 10
17.339999999999975
 20
21.54000000000002
 10
17.339999999999975
 20
21.52000000000001
 10
17.339999999999975
 20
21.5
 10
17.339999999999975
 20
21.480000000000018
 10
17.339999999999975
 20
21.460000000000008
 10
17.339999999999975
 20
21.440000000000026
 10
17.319999999999993
 20
21.440000000000026
 10
17.319999999999993
 20
21.420000000000016
 10
17.319999999999993
 20
21.400000000000006
 10
17.319999999999993
 20
21.380000000000024
 10
17.319999999999993
 20
21.360000000000014
 10
17.319999999999993
 20
21.340000000000003
 10
17.319999999999993
 20
21.32000000000002
 10
17.299999999999983
 20
21.32000000000002
 10
17.299999999999983
 20
21.30000000000001
 10
17.299999999999983
 20
21.28
 10
17.299999999999983
 20
21.26000000000002
 10
17.299999999999983
 20
21.24000000000001
 10
17.299999999999983
 20
21.22
 10
17.299999999999983
 20
21.200000000000017
 10
17.299999999999983
 20
21.180000000000007
 10
17.299999999999983
 20
21.160000000000025
 10
17.299999999999983
 20
21.140000000000015
 10
17.28
 20
21.140000000000015
 10
17.28
 20
21.120000000000005
 10
17.28
 20
21.100000000000023
 10
17.28
 20
21.080000000000013
 10
17.28
 20
21.060000000000002
 10
17.28
 20
21.04000000000002
 10
17.28
 20
21.02000000000001
 10
17.28
 20
21.0
 10
17.28
 20
20.980000000000018
 10
17.28
 20
20.960000000000008
 10
17.28
 20
20.940000000000026
 10
17.28
 20
20.920000000000016
 10
17.299999999999983
 20
20.920000000000016
 10
17.299999999999983
 20
20.900000000000006
 10
17.299999999999983
 20
20.880000000000024
 10
17.299999999999983
 20
20.860000000000014
 10
17.299999999999983
 20
20.840000000000003
 10
17.299999999999983
 20
20.82000000000002
 10
17.299999999999983
 20
20.80000000000001
 10
17.299999999999983
 20
20.78
 10
17.299999999999983
 20
20.76000000000002
 10
17.319999999999993
 20
20.76000000000002
 10
17.319999999999993
 20
20.74000000000001
 10
17.319999999999993
 20
20.72
 10
17.319999999999993
 20
20.700000000000017
 10
17.319999999999993
 20
20.680000000000007
 10
17.319999999999993
 20
20.660000000000025
 10
17.339999999999975
 20
20.660000000000025
 10
17.339999999999975
 20
20.640000000000015
 10
17.339999999999975
 20
20.620000000000005
 10
17.339999999999975
 20
20.600000000000023
 10
17.339999999999975
 20
20.580000000000013
 10
17.359999999999985
 20
20.580000000000013
 10
17.359999999999985
 20
20.560000000000002
 10
17.359999999999985
 20
20.54000000000002
 10
17.359999999999985
 20
20.52000000000001
 10
17.379999999999995
 20
20.52000000000001
 10
17.379999999999995
 20
20.5
 10
17.379999999999995
 20
20.480000000000018
 10
17.379999999999995
 20
20.460000000000008
 10
17.399999999999977
 20
20.460000000000008
 10
17.399999999999977
 20
20.440000000000026
 10
17.399999999999977
 20
20.420000000000016
 10
17.419999999999987
 20
20.420000000000016
 10
17.419999999999987
 20
20.400000000000006
 10
17.419999999999987
 20
20.380000000000024
 10
17.419999999999987
 20
20.360000000000014
 10
17.439999999999998
 20
20.360000000000014
 10
17.439999999999998
 20
20.340000000000003
 10
17.439999999999998
 20
20.32000000000002
 10
17.45999999999998
 20
20.32000000000002
 10
17.45999999999998
 20
20.30000000000001
 10
17.45999999999998
 20
20.28
 10
17.47999999999999
 20
20.28
 10
17.47999999999999
 20
20.26000000000002
 10
17.47999999999999
 20
20.24000000000001
 10
17.5
 20
20.24000000000001
 10
17.5
 20
20.22
 10
17.5
 20
20.200000000000017
 10
17.519999999999982
 20
20.200000000000017
 10
17.519999999999982
 20
20.180000000000007
 10
17.519999999999982
 20
20.160000000000025
 10
17.539999999999992
 20
20.160000000000025
 10
17.539999999999992
 20
20.140000000000015
 10
17.539999999999992
 20
20.120000000000005
 10
17.559999999999974
 20
20.120000000000005
 10
17.559999999999974
 20
20.100000000000023
 10
17.579999999999984
 20
20.100000000000023
 10
17.579999999999984
 20
20.080000000000013
 10
17.579999999999984
 20
20.060000000000002
 10
18.159999999999997
 20
19.860000000000014
 10
18.69999999999999
 20
19.620000000000005
 10
19.23999999999998
 20
19.340000000000003
 10
19.75999999999999
 20
19.04000000000002
 10
19.78
 20
19.04000000000002
 10
19.799999999999983
 20
19.04000000000002
 10
19.819999999999993
 20
19.04000000000002
 10
19.839999999999975
 20
19.04000000000002
 10
19.859999999999985
 20
19.060000000000002
 10
19.879999999999995
 20
19.060000000000002
 10
19.899999999999977
 20
19.060000000000002
 10
19.919999999999987
 20
19.060000000000002
 10
19.939999999999998
 20
19.060000000000002
 10
19.95999999999998
 20
19.060000000000002
 10
19.95999999999998
 20
19.080000000000013
 10
19.97999999999999
 20
19.080000000000013
 10
20.0
 20
19.080000000000013
 10
20.019999999999982
 20
19.080000000000013
 10
20.039999999999992
 20
19.080000000000013
 10
20.039999999999992
 20
19.100000000000023
 10
20.059999999999974
 20
19.100000000000023
 10
20.079999999999984
 20
19.100000000000023
 10
20.099999999999994
 20
19.100000000000023
 10
20.119999999999976
 20
19.120000000000005
 10
20.139999999999986
 20
19.120000000000005
 10
20.159999999999997
 20
19.120000000000005
 10
20.17999999999998
 20
19.140000000000015
 10
20.19999999999999
 20
19.140000000000015
 10
20.22
 20
19.140000000000015
 10
20.22
 20
19.160000000000025
 10
20.23999999999998
 20
19.160000000000025
 10
20.25999999999999
 20
19.160000000000025
 10
20.28
 20
19.160000000000025
 10
20.28
 20
19.180000000000007
 10
20.299999999999983
 20
19.180000000000007
 10
20.319999999999993
 20
19.180000000000007
 10
20.339999999999975
 20
19.200000000000017
 10
20.359999999999985
 20
19.200000000000017
 10
20.379999999999995
 20
19.22
 10
20.399999999999977
 20
19.22
 10
20.419999999999987
 20
19.22
 10
20.419999999999987
 20
19.24000000000001
 10
20.439999999999998
 20
19.24000000000001
 10
20.45999999999998
 20
19.26000000000002
 10
20.47999999999999
 20
19.26000000000002
 10
20.5
 20
19.28
 10
20.519999999999982
 20
19.28
 10
20.519999999999982
 20
19.30000000000001
 10
20.539999999999992
 20
19.30000000000001
 10
20.559999999999974
 20
19.32000000000002
 10
20.579999999999984
 20
19.32000000000002
 10
20.579999999999984
 20
19.340000000000003
 10
20.599999999999994
 20
19.340000000000003
 10
20.619999999999976
 20
19.360000000000014
 10
20.639999999999986
 20
19.360000000000014
 10
20.639999999999986
 20
19.380000000000024
 10
20.659999999999997
 20
19.380000000000024
 10
20.659999999999997
 20
19.400000000000006
 10
20.67999999999998
 20
19.400000000000006
 10
20.67999999999998
 20
19.420000000000016
 10
20.69999999999999
 20
19.420000000000016
 10
20.72
 20
19.440000000000026
 10
20.73999999999998
 20
19.440000000000026
 10
20.73999999999998
 20
19.460000000000008
 10
20.75999999999999
 20
19.460000000000008
 10
20.75999999999999
 20
19.480000000000018
 10
20.78
 20
19.480000000000018
 10
20.78
 20
19.5
 10
20.799999999999983
 20
19.5
 10
20.799999999999983
 20
19.52000000000001
 10
20.819999999999993
 20
19.52000000000001
 10
20.819999999999993
 20
19.54000000000002
 10
20.839999999999975
 20
19.54000000000002
 10
20.839999999999975
 20
19.560000000000002
 10
20.859999999999985
 20
19.560000000000002
 10
20.859999999999985
 20
19.580000000000013
 10
20.879999999999995
 20
19.580000000000013
 10
20.879999999999995
 20
19.600000000000023
 10
20.899999999999977
 20
19.600000000000023
 10
20.899999999999977
 20
19.620000000000005
 10
20.919999999999987
 20
19.620000000000005
 10
20.919999999999987
 20
19.640000000000015
 10
20.939999999999998
 20
19.640000000000015
 10
20.939999999999998
 20
19.660000000000025
 10
20.95999999999998
 20
19.680000000000007
 10
20.97999999999999
 20
19.700000000000017
 10
20.97999999999999
 20
19.72
 10
21.0
 20
19.72
 10
21.0
 20
19.74000000000001
 10
21.019999999999982
 20
19.74000000000001
 10
21.019999999999982
 20
19.76000000000002
 10
21.039999999999992
 20
19.76000000000002
 10
21.039999999999992
 20
19.78
 10
21.059999999999974
 20
19.80000000000001
 10
21.079999999999984
 20
19.82000000000002
 10
21.079999999999984
 20
19.840000000000003
 10
21.099999999999994
 20
19.840000000000003
 10
21.099999999999994
 20
19.860000000000014
 10
21.119999999999976
 20
19.860000000000014
 10
21.119999999999976
 20
19.880000000000024
 10
21.139999999999986
 20
19.880000000000024
 10
21.139999999999986
 20
19.900000000000006
 10
21.159999999999997
 20
19.900000000000006
 10
21.159999999999997
 20
19.920000000000016
 10
21.17999999999998
 20
19.940000000000026
 10
21.19999999999999
 20
19.960000000000008
 10
21.19999999999999
 20
19.980000000000018
 10
21.22
 20
19.980000000000018
 10
21.22
 20
20.0
 10
21.23999999999998
 20
20.0
 10
21.23999999999998
 20
20.02000000000001
 10
21.25999999999999
 20
20.02000000000001
 10
21.25999999999999
 20
20.04000000000002
 10
21.28
 20
20.04000000000002
 10
21.28
 20
20.060000000000002
 10
21.299999999999983
 20
20.080000000000013
 10
21.319999999999993
 20
20.100000000000023
 10
21.339999999999975
 20
20.120000000000005
 10
21.339999999999975
 20
20.140000000000015
 10
21.359999999999985
 20
20.140000000000015
 10
21.359999999999985
 20
20.160000000000025
 10
21.379999999999995
 20
20.160000000000025
 10
21.379999999999995
 20
20.180000000000007
 10
21.399999999999977
 20
20.180000000000007
 10
21.399999999999977
 20
20.200000000000017
 10
21.419999999999987
 20
20.200000000000017
 10
21.439999999999998
 20
20.22
 10
21.439999999999998
 20
20.24000000000001
 10
21.45999999999998
 20
20.24000000000001
 10
21.45999999999998
 20
20.26000000000002
 10
21.47999999999999
 20
20.26000000000002
 10
21.5
 20
20.28
 10
21.519999999999982
 20
20.30000000000001
 10
21.539999999999992
 20
20.30000000000001
 10
21.539999999999992
 20
20.32000000000002
 10
21.559999999999974
 20
20.32000000000002
 10
21.559999999999974
 20
20.340000000000003
 10
21.579999999999984
 20
20.340000000000003
 10
21.579999999999984
 20
20.360000000000014
 10
21.599999999999994
 20
20.360000000000014
 10
21.599999999999994
 20
20.380000000000024
 10
21.619999999999976
 20
20.380000000000024
 10
21.639999999999986
 20
20.400000000000006
 10
21.659999999999997
 20
20.420000000000016
 10
21.67999999999998
 20
20.420000000000016
 10
21.67999999999998
 20
20.440000000000026
 10
21.69999999999999
 20
20.440000000000026
 10
21.69999999999999
 20
20.460000000000008
 10
21.72
 20
20.460000000000008
 10
21.73999999999998
 20
20.480000000000018
 10
21.75999999999999
 20
20.480000000000018
 10
21.75999999999999
 20
20.5
 10
21.78
 20
20.5
 10
21.799999999999983
 20
20.52000000000001
 10
21.819999999999993
 20
20.52000000000001
 10
21.839999999999975
 20
20.54000000000002
 10
21.859999999999985
 20
20.560000000000002
 10
21.879999999999995
 20
20.560000000000002
 10
21.879999999999995
 20
20.580000000000013
 10
21.899999999999977
 20
20.580000000000013
 10
21.919999999999987
 20
20.580000000000013
 10
21.919999999999987
 20
20.600000000000023
 10
21.939999999999998
 20
20.600000000000023
 10
21.95999999999998
 20
20.620000000000005
 10
21.97999999999999
 20
20.620000000000005
 10
22.0
 20
20.640000000000015
 10
22.019999999999982
 20
20.660000000000025
 10
22.039999999999992
 20
20.660000000000025
 10
22.059999999999974
 20
20.680000000000007
 10
22.079999999999984
 20
20.680000000000007
 10
22.099999999999994
 20
20.700000000000017
 10
22.119999999999976
 20
20.700000000000017
 10
22.119999999999976
 20
20.72
 10
22.139999999999986
 20
20.72
 10
22.159999999999997
 20
20.72
 10
22.17999999999998
 20
20.74000000000001
 10
22.19999999999999
 20
20.76000000000002
 10
22.22
 20
20.76000000000002
 10
22.23999999999998
 20
20.76000000000002
 10
22.25999999999999
 20
20.78
 10
22.28
 20
20.78
 10
22.28
 20
20.80000000000001
 10
22.299999999999983
 20
20.80000000000001
 10
22.319999999999993
 20
20.80000000000001
 10
22.339999999999975
 20
20.82000000000002
 10
22.359999999999985
 20
20.82000000000002
 10
22.379999999999995
 20
20.840000000000003
 10
22.399999999999977
 20
20.840000000000003
 10
22.419999999999987
 20
20.860000000000014
 10
22.439999999999998
 20
20.860000000000014
 10
22.45999999999998
 20
20.860000000000014
 10
22.47999999999999
 20
20.880000000000024
 10
22.5
 20
20.880000000000024
 10
22.519999999999982
 20
20.900000000000006
 10
22.539999999999992
 20
20.900000000000006
 10
22.559999999999974
 20
20.920000000000016
 10
22.579999999999984
 20
20.920000000000016
 10
22.599999999999994
 20
20.920000000000016
 10
22.619999999999976
 20
20.940000000000026
 10
22.639999999999986
 20
20.940000000000026
 10
22.659999999999997
 20
20.960000000000008
 10
22.67999999999998
 20
20.960000000000008
 10
22.69999999999999
 20
20.960000000000008
 10
22.72
 20
20.960000000000008
 10
22.73999999999998
 20
20.980000000000018
 10
22.75999999999999
 20
20.980000000000018
 10
22.78
 20
20.980000000000018
 10
22.78
 20
21.0
 10
22.799999999999983
 20
21.0
 10
22.819999999999993
 20
21.0
 10
22.839999999999975
 20
21.02000000000001
 10
22.859999999999985
 20
21.02000000000001
 10
22.879999999999995
 20
21.02000000000001
 10
22.899999999999977
 20
21.04000000000002
 10
22.919999999999987
 20
21.04000000000002
 10
22.939999999999998
 20
21.04000000000002
 10
22.95999999999998
 20
21.060000000000002
 10
22.97999999999999
 20
21.060000000000002
 10
23.0
 20
21.060000000000002
 10
23.019999999999982
 20
21.080000000000013
 10
23.039999999999992
 20
21.080000000000013
 10
23.059999999999974
 20
21.080000000000013
 10
23.079999999999984
 20
21.100000000000023
 10
23.099999999999994
 20
21.100000000000023
 10
23.119999999999976
 20
21.100000000000023
 10
23.139999999999986
 20
21.120000000000005
 10
23.159999999999997
 20
21.120000000000005
 10
23.17999999999998
 20
21.120000000000005
 10
23.19999999999999
 20
21.120000000000005
 10
23.22
 20
21.140000000000015
 10
23.23999999999998
 20
21.140000000000015
 10
23.25999999999999
 20
21.140000000000015
 10
23.28
 20
21.140000000000015
 10
23.299999999999983
 20
21.160000000000025
 10
23.319999999999993
 20
21.160000000000025
 10
23.339999999999975
 20
21.160000000000025
 10
23.359999999999985
 20
21.180000000000007
 10
23.379999999999995
 20
21.180000000000007
 10
23.399999999999977
 20
21.180000000000007
 10
23.419999999999987
 20
21.180000000000007
 10
23.419999999999987
 20
21.200000000000017
 10
23.439999999999998
 20
21.200000000000017
 10
23.45999999999998
 20
21.200000000000017
 10
23.47999999999999
 20
21.200000000000017
 10
23.5
 20
21.200000000000017
 10
23.519999999999982
 20
21.22
 10
23.539999999999992
 20
21.22
 10
23.559999999999974
 20
21.22
 10
23.579999999999984
 20
21.24000000000001
 10
23.599999999999994
 20
21.24000000000001
 10
23.619999999999976
 20
21.24000000000001
 10
23.639999999999986
 20
21.24000000000001
 10
23.659999999999997
 20
21.24000000000001
 10
23.67999999999998
 20
21.26000000000002
 10
23.69999999999999
 20
21.26000000000002
 10
23.72
 20
21.26000000000002
 10
23.73999999999998
 20
21.26000000000002
 10
23.73999999999998
 20
21.28
 10
23.75999999999999
 20
21.28
 10
23.78
 20
21.28
 10
23.799999999999983
 20
21.28
 10
23.819999999999993
 20
21.28
 10
23.839999999999975
 20
21.30000000000001
 10
23.859999999999985
 20
21.30000000000001
 10
23.879999999999995
 20
21.30000000000001
 10
23.899999999999977
 20
21.30000000000001
 10
23.919999999999987
 20
21.30000000000001
 10
23.939999999999998
 20
21.32000000000002
 10
23.95999999999998
 20
21.32000000000002
 10
23.97999999999999
 20
21.32000000000002
 10
24.0
 20
21.32000000000002
 10
24.019999999999982
 20
21.32000000000002
 10
24.019999999999982
 20
21.340000000000003
 10
24.039999999999992
 20
21.340000000000003
 10
24.059999999999974
 20
21.340000000000003
 10
24.079999999999984
 20
21.340000000000003
 10
24.099999999999994
 20
21.340000000000003
 10
24.119999999999976
 20
21.360000000000014
 10
24.139999999999986
 20
21.360000000000014
 10
24.159999999999997
 20
21.360000000000014
 10
24.17999999999998
 20
21.360000000000014
 10
24.19999999999999
 20
21.360000000000014
 10
24.22
 20
21.380000000000024
 10
25.19999999999999
 20
20.380000000000024
 10
26.079999999999984
 20
19.32000000000002
 10
26.079999999999984
 20
19.30000000000001
 10
26.079999999999984
 20
19.28
 10
26.059999999999974
 20
19.28
 10
26.059999999999974
 20
19.26000000000002
 10
26.059999999999974
 20
19.24000000000001
 10
26.059999999999974
 20
19.22
 10
26.039999999999992
 20
19.22
 10
26.039999999999992
 20
19.200000000000017
 10
26.039999999999992
 20
19.180000000000007
 10
26.039999999999992
 20
19.160000000000025
 10
26.019999999999982
 20
19.160000000000025
 10
26.019999999999982
 20
19.140000000000015
 10
26.019999999999982
 20
19.120000000000005
 10
26.019999999999982
 20
19.100000000000023
 10
26.0
 20
19.080000000000013
 10
26.0
 20
19.060000000000002
 10
26.0
 20
19.04000000000002
 10
25.97999999999999
 20
19.02000000000001
 10
25.97999999999999
 20
19.0
 10
25.97999999999999
 20
18.980000000000018
 10
25.95999999999998
 20
18.960000000000008
 10
25.95999999999998
 20
18.940000000000026
 10
25.95999999999998
 20
18.920000000000016
 10
25.939999999999998
 20
18.900000000000006
 10
25.939999999999998
 20
18.880000000000024
 10
25.939999999999998
 20
18.860000000000014
 10
25.919999999999987
 20
18.840000000000003
 10
25.919999999999987
 20
18.82000000000002
 10
25.919999999999987
 20
18.80000000000001
 10
25.899999999999977
 20
18.80000000000001
 10
25.899999999999977
 20
18.78
 10
25.899999999999977
 20
18.76000000000002
 10
25.899999999999977
 20
18.74000000000001
 10
25.879999999999995
 20
18.74000000000001
 10
25.879999999999995
 20
18.72
 10
25.879999999999995
 20
18.700000000000017
 10
25.859999999999985
 20
18.680000000000007
 10
25.859999999999985
 20
18.660000000000025
 10
25.859999999999985
 20
18.640000000000015
 10
25.859999999999985
 20
18.620000000000005
 10
25.839999999999975
 20
18.620000000000005
 10
25.839999999999975
 20
18.600000000000023
 10
25.839999999999975
 20
18.580000000000013
 10
25.819999999999993
 20
18.560000000000002
 10
25.819999999999993
 20
18.54000000000002
 10
25.819999999999993
 20
18.52000000000001
 10
25.799999999999983
 20
18.52000000000001
 10
25.799999999999983
 20
18.5
 10
25.799999999999983
 20
18.480000000000018
 10
25.78
 20
18.460000000000008
 10
25.78
 20
18.440000000000026
 10
25.78
 20
18.420000000000016
 10
25.75999999999999
 20
18.420000000000016
 10
25.75999999999999
 20
18.400000000000006
 10
25.75999999999999
 20
18.380000000000024
 10
25.73999999999998
 20
18.360000000000014
 10
25.73999999999998
 20
18.340000000000003
 10
25.73999999999998
 20
18.32000000000002
 10
25.72
 20
18.30000000000001
 10
25.72
 20
18.28
 10
25.72
 20
18.26000000000002
 10
25.69999999999999
 20
18.26000000000002
 10
25.69999999999999
 20
18.24000000000001
 10
25.69999999999999
 20
18.22
 10
25.67999999999998
 20
18.200000000000017
 10
25.67999999999998
 20
18.180000000000007
 10
25.659999999999997
 20
18.160000000000025
 10
25.659999999999997
 20
18.140000000000015
 10
25.639999999999986
 20
18.120000000000005
 10
25.639999999999986
 20
18.100000000000023
 10
25.639999999999986
 20
18.080000000000013
 10
25.619999999999976
 20
18.060000000000002
 10
25.619999999999976
 20
18.04000000000002
 10
25.599999999999994
 20
18.04000000000002
 10
25.599999999999994
 20
18.02000000000001
 10
25.599999999999994
 20
18.0
 10
25.579999999999984
 20
17.980000000000018
 10
25.579999999999984
 20
17.960000000000008
 10
25.559999999999974
 20
17.940000000000026
 10
25.559999999999974
 20
17.920000000000016
 10
25.559999999999974
 20
17.900000000000006
 10
25.539999999999992
 20
17.900000000000006
 10
25.539999999999992
 20
17.880000000000024
 10
25.519999999999982
 20
17.860000000000014
 10
25.519999999999982
 20
17.840000000000003
 10
25.519999999999982
 20
17.82000000000002
 10
25.5
 20
17.80000000000001
 10
25.47999999999999
 20
17.78
 10
25.47999999999999
 20
17.76000000000002
 10
25.45999999999998
 20
17.74000000000001
 10
25.45999999999998
 20
17.72
 10
25.439999999999998
 20
17.700000000000017
 10
25.439999999999998
 20
17.680000000000007
 10
25.419999999999987
 20
17.660000000000025
 10
25.419999999999987
 20
17.640000000000015
 10
25.399999999999977
 20
17.620000000000005
 10
25.399999999999977
 20
17.600000000000023
 10
25.379999999999995
 20
17.580000000000013
 10
25.379999999999995
 20
17.560000000000002
 10
25.359999999999985
 20
17.54000000000002
 10
25.339999999999975
 20
17.52000000000001
 10
25.339999999999975
 20
17.5
 10
25.319999999999993
 20
17.480000000000018
 10
25.319999999999993
 20
17.460000000000008
 10
25.299999999999983
 20
17.440000000000026
 10
25.28
 20
17.420000000000016
 10
25.28
 20
17.400000000000006
 10
25.25999999999999
 20
17.380000000000024
 10
25.23999999999998
 20
17.360000000000014
 10
25.23999999999998
 20
17.340000000000003
 10
25.22
 20
17.32000000000002
 10
25.22
 20
17.30000000000001
 10
25.19999999999999
 20
17.28
 10
25.19999999999999
 20
17.26000000000002
 10
25.17999999999998
 20
17.26000000000002
 10
25.17999999999998
 20
17.24000000000001
 10
25.159999999999997
 20
17.22
 10
25.139999999999986
 20
17.200000000000017
 10
25.139999999999986
 20
17.180000000000007
 10
25.119999999999976
 20
17.180000000000007
 10
25.119999999999976
 20
17.160000000000025
 10
25.099999999999994
 20
17.140000000000015
 10
25.079999999999984
 20
17.120000000000005
 10
25.079999999999984
 20
17.100000000000023
 10
25.059999999999974
 20
17.100000000000023
 10
25.059999999999974
 20
17.080000000000013
 10
25.039999999999992
 20
17.060000000000002
 10
25.019999999999982
 20
17.04000000000002
 10
25.0
 20
17.02000000000001
 10
25.0
 20
17.0
 10
24.97999999999999
 20
17.0
 10
24.97999999999999
 20
16.980000000000018
 10
24.95999999999998
 20
16.960000000000008
 10
24.939999999999998
 20
16.940000000000026
 10
24.919999999999987
 20
16.920000000000016
 10
24.899999999999977
 20
16.900000000000006
 10
24.899999999999977
 20
16.880000000000024
 10
24.879999999999995
 20
16.880000000000024
 10
24.879999999999995
 20
16.860000000000014
 10
24.859999999999985
 20
16.860000000000014
 10
24.839999999999975
 20
16.840000000000003
 10
24.819999999999993
 20
16.82000000000002
 10
24.819999999999993
 20
16.80000000000001
 10
24.799999999999983
 20
16.80000000000001
 10
24.78
 20
16.78
 10
24.78
 20
16.76000000000002
 10
24.75999999999999
 20
16.76000000000002
 10
24.73999999999998
 20
16.74000000000001
 10
24.72
 20
16.72
 10
24.69999999999999
 20
16.72
 10
24.69999999999999
 20
16.700000000000017
 10
24.67999999999998
 20
16.680000000000007
 10
24.659999999999997
 20
16.660000000000025
 10
24.639999999999986
 20
16.660000000000025
 10
24.639999999999986
 20
16.640000000000015
 10
24.619999999999976
 20
16.640000000000015
 10
24.619999999999976
 20
16.620000000000005
 10
24.599999999999994
 20
16.620000000000005
 10
24.579999999999984
 20
16.600000000000023
 10
24.559999999999974
 20
16.600000000000023
 10
24.559999999999974
 20
16.580000000000013
 10
24.539999999999992
 20
16.580000000000013
 10
24.539999999999992
 20
16.560000000000002
 10
24.519999999999982
 20
16.560000000000002
 10
24.519999999999982
 20
16.54000000000002
 10
24.5
 20
16.54000000000002
 10
24.47999999999999
 20
16.52000000000001
 10
24.45999999999998
 20
16.52000000000001
 10
24.45999999999998
 20
16.5
 10
24.439999999999998
 20
16.5
 10
24.419999999999987
 20
16.480000000000018
 10
24.399999999999977
 20
16.480000000000018
 10
24.399999999999977
 20
16.460000000000008
 10
24.379999999999995
 20
16.460000000000008
 10
24.359999999999985
 20
16.440000000000026
 10
24.339999999999975
 20
16.440000000000026
 10
24.339999999999975
 20
16.420000000000016
 10
24.319999999999993
 20
16.420000000000016
 10
24.319999999999993
 20
16.400000000000006
 10
24.299999999999983
 20
16.400000000000006
 10
24.28
 20
16.380000000000024
 10
24.25999999999999
 20
16.380000000000024
 10
24.25999999999999
 20
16.360000000000014
 10
24.23999999999998
 20
16.360000000000014
 10
24.22
 20
16.360000000000014
 10
24.22
 20
16.340000000000003
 10
24.19999999999999
 20
16.340000000000003
 10
24.19999999999999
 20
16.32000000000002
 10
24.17999999999998
 20
16.32000000000002
 10
24.159999999999997
 20
16.32000000000002
 10
24.159999999999997
 20
16.30000000000001
 10
24.139999999999986
 20
16.30000000000001
 10
24.139999999999986
 20
16.28
 10
24.119999999999976
 20
16.28
 10
24.099999999999994
 20
16.26000000000002
 10
24.079999999999984
 20
16.26000000000002
 10
24.079999999999984
 20
16.24000000000001
 10
24.059999999999974
 20
16.24000000000001
 10
24.039999999999992
 20
16.22
 10
24.019999999999982
 20
16.22
 10
24.019999999999982
 20
16.200000000000017
 10
24.0
 20
16.200000000000017
 10
24.0
 20
16.180000000000007
 10
23.97999999999999
 20
16.180000000000007
 10
23.95999999999998
 20
16.180000000000007
 10
23.95999999999998
 20
16.160000000000025
 10
23.939999999999998
 20
16.160000000000025
 10
23.939999999999998
 20
16.140000000000015
 10
23.919999999999987
 20
16.140000000000015
 10
23.919999999999987
 20
16.120000000000005
 10
23.899999999999977
 20
16.120000000000005
 10
23.899999999999977
 20
16.100000000000023
 10
23.879999999999995
 20
16.100000000000023
 10
23.859999999999985
 20
16.100000000000023
 10
23.859999999999985
 20
16.080000000000013
 10
23.839999999999975
 20
16.080000000000013
 10
23.839999999999975
 20
16.060000000000002
 10
23.819999999999993
 20
16.060000000000002
 10
23.819999999999993
 20
16.04000000000002
 10
23.799999999999983
 20
16.04000000000002
 10
23.799999999999983
 20
16.02000000000001
 10
23.78
 20
16.02000000000001
 10
23.78
 20
16.0
 10
23.75999999999999
 20
16.0
 10
23.75999999999999
 20
15.980000000000018
 10
23.73999999999998
 20
15.980000000000018
 10
23.73999999999998
 20
15.960000000000008
 10
23.72
 20
15.960000000000008
 10
23.72
 20
15.940000000000026
 10
23.69999999999999
 20
15.940000000000026
 10
23.69999999999999
 20
15.920000000000016
 10
23.67999999999998
 20
15.920000000000016
 10
23.67999999999998
 20
15.900000000000006
 10
23.659999999999997
 20
15.880000000000024
 10
23.659999999999997
 20
15.860000000000014
 10
23.639999999999986
 20
15.860000000000014
 10
23.639999999999986
 20
15.840000000000003
 10
23.619999999999976
 20
15.840000000000003
 10
23.619999999999976
 20
15.820000000000022
 10
23.599999999999994
 20
15.820000000000022
 10
23.599999999999994
 20
15.800000000000011
 10
23.599999999999994
 20
15.780000000000001
 10
23.579999999999984
 20
15.780000000000001
 10
23.579999999999984
 20
15.76000000000002
 10
23.559999999999974
 20
15.76000000000002
 10
23.559999999999974
 20
15.740000000000009
 10
23.559999999999974
 20
15.719999999999999
 10
23.539999999999992
 20
15.719999999999999
 10
23.539999999999992
 20
15.700000000000017
 10
23.519999999999982
 20
15.680000000000007
 10
23.519999999999982
 20
15.660000000000025
 10
23.5
 20
15.660000000000025
 10
23.5
 20
15.640000000000015
 10
23.5
 20
15.620000000000005
 10
23.47999999999999
 20
15.620000000000005
 10
23.47999999999999
 20
15.600000000000023
 10
23.47999999999999
 20
15.580000000000013
 10
23.45999999999998
 20
15.580000000000013
 10
23.45999999999998
 20
15.560000000000002
 10
23.45999999999998
 20
15.54000000000002
 10
23.439999999999998
 20
15.54000000000002
 10
23.439999999999998
 20
15.52000000000001
 10
23.439999999999998
 20
15.5
 10
23.419999999999987
 20
15.5
 10
23.419999999999987
 20
15.480000000000018
 10
23.419999999999987
 20
15.460000000000008
 10
23.399999999999977
 20
15.440000000000026
 10
23.399999999999977
 20
15.420000000000016
 10
23.399999999999977
 20
15.400000000000006
 10
23.379999999999995
 20
15.400000000000006
 10
23.379999999999995
 20
15.380000000000024
 10
23.379999999999995
 20
15.360000000000014
 10
23.379999999999995
 20
15.340000000000003
 10
23.359999999999985
 20
15.340000000000003
 10
23.359999999999985
 20
15.320000000000022
 10
23.359999999999985
 20
15.300000000000011
 10
23.359999999999985
 20
15.280000000000001
 10
23.339999999999975
 20
15.280000000000001
 10
23.339999999999975
 20
15.26000000000002
 10
23.339999999999975
 20
15.240000000000009
 10
23.339999999999975
 20
15.219999999999999
 10
23.319999999999993
 20
15.219999999999999
 10
23.319999999999993
 20
15.200000000000017
 10
23.319999999999993
 20
15.180000000000007
 10
23.319999999999993
 20
15.160000000000025
 10
23.319999999999993
 20
15.140000000000015
 10
23.299999999999983
 20
15.140000000000015
 10
23.299999999999983
 20
15.120000000000005
 10
23.299999999999983
 20
15.100000000000023
 10
23.45999999999998
 20
14.76000000000002
 10
23.619999999999976
 20
14.400000000000006
 10
23.75999999999999
 20
14.04000000000002
 10
23.879999999999995
 20
13.680000000000007
 10
29.75999999999999
 20
13.680000000000007
 10
30.359999999999985
 20
13.620000000000005
 10
30.919999999999987
 20
13.460000000000008
 10
31.439999999999998
 20
13.180000000000007
 10
31.879999999999995
 20
12.800000000000011
 10
32.23999999999998
 20
12.360000000000014
 10
32.51999999999998
 20
11.860000000000014
 10
32.69999999999999
 20
11.300000000000011
 10
32.75999999999999
 20
10.680000000000007
 10
32.69999999999999
 20
10.080000000000013
 10
32.51999999999998
 20
9.52000000000001
 10
32.23999999999998
 20
9.0
 10
31.879999999999995
 20
8.560000000000002
 10
31.439999999999998
 20
8.200000000000017
 10
30.919999999999987
 20
7.920000000000016
 10
30.359999999999985
 20
7.740000000000009
 10
29.75999999999999
 20
7.680000000000007
 10
23.879999999999995
 20
7.680000000000007
 10
23.45999999999998
 20
6.6200000000000045
 10
22.939999999999998
 20
5.6200000000000045
 10
22.319999999999993
 20
4.680000000000007
 10
21.579999999999984
 20
3.8400000000000034
 10
20.75999999999999
 20
3.0800000000000125
 10
19.859999999999985
 20
2.420000000000016
 10
18.879999999999995
 20
1.8400000000000034
 10
17.839999999999975
 20
1.4000000000000057
 10
16.73999999999998
 20
1.0600000000000023
 10
15.619999999999976
 20
0.8800000000000239
 10
14.5
 20
0.8000000000000114
 10
13.399999999999977
 20
0.8600000000000136
 10
12.280000000000001
 20
1.0400000000000205
 10
11.199999999999989
 20
1.3600000000000136
 10
10.159999999999997
 20
1.7800000000000011
 10
9.159999999999997
 20
2.3400000000000034
 10
9.139999999999986
 20
2.3400000000000034
 10
9.119999999999976
 20
2.3400000000000034
 10
9.099999999999994
 20
2.3400000000000034
 10
9.099999999999994
 20
2.3200000000000216
 10
9.079999999999984
 20
2.3200000000000216
 10
9.059999999999974
 20
2.3200000000000216
 10
9.039999999999992
 20
2.3200000000000216
 10
9.019999999999982
 20
2.3200000000000216
 10
9.0
 20
2.3200000000000216
 10
9.0
 20
2.3000000000000114
 10
8.97999999999999
 20
2.3000000000000114
 10
8.95999999999998
 20
2.3000000000000114
 10
8.939999999999998
 20
2.3000000000000114
 10
8.919999999999987
 20
2.3000000000000114
 10
8.899999999999977
 20
2.3000000000000114
 10
8.899999999999977
 20
2.280000000000001
 10
8.879999999999995
 20
2.280000000000001
 10
8.859999999999985
 20
2.280000000000001
 10
8.839999999999975
 20
2.280000000000001
 10
8.819999999999993
 20
2.2600000000000193
 10
8.799999999999983
 20
2.2600000000000193
 10
8.780000000000001
 20
2.2600000000000193
 10
8.759999999999991
 20
2.2600000000000193
 10
8.759999999999991
 20
2.240000000000009
 10
8.73999999999998
 20
2.240000000000009
 10
8.719999999999999
 20
2.240000000000009
 10
8.699999999999989
 20
2.219999999999999
 10
8.679999999999978
 20
2.219999999999999
 10
8.659999999999997
 20
2.219999999999999
 10
8.639999999999986
 20
2.200000000000017
 10
8.619999999999976
 20
2.200000000000017
 10
8.599999999999994
 20
2.200000000000017
 10
8.599999999999994
 20
2.180000000000007
 10
8.579999999999984
 20
2.180000000000007
 10
8.559999999999974
 20
2.180000000000007
 10
8.559999999999974
 20
2.160000000000025
 10
8.539999999999992
 20
2.160000000000025
 10
8.519999999999982
 20
2.160000000000025
 10
8.519999999999982
 20
2.140000000000015
 10
8.5
 20
2.140000000000015
 10
8.47999999999999
 20
2.140000000000015
 10
8.47999999999999
 20
2.1200000000000045
 10
8.45999999999998
 20
2.1200000000000045
 10
8.439999999999998
 20
2.1200000000000045
 10
8.439999999999998
 20
2.1000000000000227
 10
8.419999999999987
 20
2.1000000000000227
 10
8.399999999999977
 20
2.1000000000000227
 10
8.399999999999977
 20
2.0800000000000125
 10
8.379999999999995
 20
2.0800000000000125
 10
8.379999999999995
 20
2.0600000000000023
 10
8.359999999999985
 20
2.0600000000000023
 10
8.339999999999975
 20
2.0600000000000023
 10
8.339999999999975
 20
2.0400000000000205
 10
8.319999999999993
 20
2.0400000000000205
 10
8.319999999999993
 20
2.0200000000000102
 10
8.299999999999983
 20
2.0200000000000102
 10
8.280000000000001
 20
2.0200000000000102
 10
8.280000000000001
 20
2.0
 10
8.259999999999991
 20
2.0
 10
8.259999999999991
 20
1.9800000000000182
 10
8.23999999999998
 20
1.9800000000000182
 10
8.23999999999998
 20
1.960000000000008
 10
8.219999999999999
 20
1.960000000000008
 10
8.199999999999989
 20
1.9400000000000261
 10
8.179999999999978
 20
1.920000000000016
 10
8.159999999999997
 20
1.920000000000016
 10
8.159999999999997
 20
1.9000000000000057
 10
8.139999999999986
 20
1.9000000000000057
 10
8.139999999999986
 20
1.8800000000000239
 10
8.119999999999976
 20
1.8800000000000239
 10
8.119999999999976
 20
1.8600000000000136
 10
8.099999999999994
 20
1.8600000000000136
 10
8.099999999999994
 20
1.8400000000000034
 10
8.079999999999984
 20
1.8400000000000034
 10
8.079999999999984
 20
1.8200000000000216
 10
8.059999999999974
 20
1.8200000000000216
 10
8.059999999999974
 20
1.8000000000000114
 10
8.039999999999992
 20
1.8000000000000114
 10
8.039999999999992
 20
1.7800000000000011
 10
8.019999999999982
 20
1.7800000000000011
 10
8.019999999999982
 20
1.7600000000000193
 10
8.0
 20
1.7600000000000193
 10
8.0
 20
1.740000000000009
 10
7.97999999999999
 20
1.740000000000009
 10
7.97999999999999
 20
1.7199999999999989
 10
7.9599999999999795
 20
1.700000000000017
 10
7.9599999999999795
 20
1.6800000000000068
 10
7.939999999999998
 20
1.6800000000000068
 10
7.939999999999998
 20
1.660000000000025
 10
7.9199999999999875
 20
1.660000000000025
 10
7.9199999999999875
 20
1.6400000000000148
 10
7.899999999999977
 20
1.6400000000000148
 10
7.899999999999977
 20
1.6200000000000045
 10
7.8799999999999955
 20
1.6200000000000045
 10
7.8799999999999955
 20
1.6000000000000227
 10
7.859999999999985
 20
1.5800000000000125
 10
7.859999999999985
 20
1.5600000000000023
 10
7.839999999999975
 20
1.5600000000000023
 10
7.839999999999975
 20
1.5400000000000205
 10
7.819999999999993
 20
1.5400000000000205
 10
7.819999999999993
 20
1.5200000000000102
 10
7.799999999999983
 20
1.5200000000000102
 10
7.799999999999983
 20
1.5
 10
7.780000000000001
 20
1.5
 10
7.780000000000001
 20
1.4800000000000182
 10
7.759999999999991
 20
1.460000000000008
 10
7.759999999999991
 20
1.4400000000000261
 10
7.739999999999981
 20
1.4400000000000261
 10
7.739999999999981
 20
1.420000000000016
 10
7.719999999999999
 20
1.420000000000016
 10
7.719999999999999
 20
1.4000000000000057
 10
7.699999999999989
 20
1.4000000000000057
 10
7.699999999999989
 20
1.3800000000000239
 10
7.679999999999978
 20
1.3800000000000239
 10
7.679999999999978
 20
1.3600000000000136
 10
7.659999999999997
 20
1.3400000000000034
 10
7.639999999999986
 20
1.3200000000000216
 10
7.619999999999976
 20
1.3000000000000114
 10
7.619999999999976
 20
1.2800000000000011
 10
7.599999999999994
 20
1.2800000000000011
 10
7.599999999999994
 20
1.2600000000000193
 10
7.579999999999984
 20
1.2600000000000193
 10
7.579999999999984
 20
1.240000000000009
 10
7.559999999999974
 20
1.240000000000009
 10
7.559999999999974
 20
1.2199999999999989
 10
7.539999999999992
 20
1.2199999999999989
 10
7.539999999999992
 20
1.200000000000017
 10
7.519999999999982
 20
1.200000000000017
 10
7.519999999999982
 20
1.1800000000000068
 10
7.5
 20
1.1800000000000068
 10
7.5
 20
1.160000000000025
 10
7.47999999999999
 20
1.160000000000025
 10
7.47999999999999
 20
1.1400000000000148
 10
7.4599999999999795
 20
1.1400000000000148
 10
7.4599999999999795
 20
1.1200000000000045
 10
7.439999999999998
 20
1.1200000000000045
 10
7.439999999999998
 20
1.1000000000000227
 10
7.4199999999999875
 20
1.1000000000000227
 10
7.399999999999977
 20
1.0800000000000125
 10
7.3799999999999955
 20
1.0600000000000023
 10
7.359999999999985
 20
1.0600000000000023
 10
7.359999999999985
 20
1.0400000000000205
 10
7.339999999999975
 20
1.0200000000000102
 10
7.319999999999993
 20
1.0200000000000102
 10
7.319999999999993
 20
1.0
 10
7.299999999999983
 20
1.0
 10
7.299999999999983
 20
0.9800000000000182
 10
7.280000000000001
 20
0.9800000000000182
 10
7.280000000000001
 20
0.960000000000008
 10
7.259999999999991
 20
0.960000000000008
 10
7.239999999999981
 20
0.9400000000000261
 10
7.219999999999999
 20
0.9400000000000261
 10
7.199999999999989
 20
0.9200000000000159
 10
7.179999999999978
 20
0.9000000000000057
 10
7.159999999999997
 20
0.9000000000000057
 10
7.159999999999997
 20
0.8800000000000239
 10
7.139999999999986
 20
0.8800000000000239
 10
7.139999999999986
 20
0.8600000000000136
 10
7.119999999999976
 20
0.8600000000000136
 10
7.099999999999994
 20
0.8600000000000136
 10
7.099999999999994
 20
0.8400000000000034
 10
7.079999999999984
 20
0.8400000000000034
 10
7.079999999999984
 20
0.8200000000000216
 10
7.059999999999974
 20
0.8200000000000216
 10
7.039999999999992
 20
0.8000000000000114
 10
7.019999999999982
 20
0.8000000000000114
 10
7.0
 20
0.7800000000000011
 10
6.97999999999999
 20
0.7600000000000193
 10
6.9599999999999795
 20
0.7600000000000193
 10
6.939999999999998
 20
0.7400000000000091
 10
6.9199999999999875
 20
0.7400000000000091
 10
6.9199999999999875
 20
0.7199999999999989
 10
6.899999999999977
 20
0.7199999999999989
 10
6.8799999999999955
 20
0.7199999999999989
 10
6.859999999999985
 20
0.700000000000017
 10
6.839999999999975
 20
0.6800000000000068
 10
6.819999999999993
 20
0.6800000000000068
 10
6.799999999999983
 20
0.6800000000000068
 10
6.799999999999983
 20
0.660000000000025
 10
6.780000000000001
 20
0.660000000000025
 10
6.759999999999991
 20
0.6400000000000148
 10
6.739999999999981
 20
0.6400000000000148
 10
6.719999999999999
 20
0.6200000000000045
 10
6.699999999999989
 20
0.6200000000000045
 10
6.679999999999978
 20
0.6000000000000227
 10
6.659999999999997
 20
0.6000000000000227
 10
6.639999999999986
 20
0.5800000000000125
 10
6.619999999999976
 20
0.5800000000000125
 10
6.599999999999994
 20
0.5600000000000023
 10
6.579999999999984
 20
0.5600000000000023
 10
6.559999999999974
 20
0.5600000000000023
 10
6.539999999999992
 20
0.5400000000000205
 10
6.519999999999982
 20
0.5400000000000205
 10
6.5
 20
0.5200000000000102
 10
6.47999999999999
 20
0.5200000000000102
 10
6.4599999999999795
 20
0.5
 10
6.439999999999998
 20
0.5
 10
6.4199999999999875
 20
0.4800000000000182
 10
6.399999999999977
 20
0.4800000000000182
 10
6.3799999999999955
 20
0.4800000000000182
 10
6.3799999999999955
 20
0.46000000000000796
 10
6.359999999999985
 20
0.46000000000000796
 10
6.339999999999975
 20
0.46000000000000796
 10
6.319999999999993
 20
0.44000000000002615
 10
6.299999999999983
 20
0.44000000000002615
 10
6.280000000000001
 20
0.44000000000002615
 10
6.259999999999991
 20
0.44000000000002615
 10
6.259999999999991
 20
0.4200000000000159
 10
6.239999999999981
 20
0.4200000000000159
 10
6.219999999999999
 20
0.4200000000000159
 10
6.199999999999989
 20
0.4000000000000057
 10
6.179999999999978
 20
0.4000000000000057
 10
6.159999999999997
 20
0.4000000000000057
 10
6.139999999999986
 20
0.3800000000000239
 10
6.119999999999976
 20
0.3800000000000239
 10
6.099999999999994
 20
0.36000000000001364
 10
6.079999999999984
 20
0.36000000000001364
 10
6.059999999999974
 20
0.36000000000001364
 10
6.039999999999992
 20
0.3400000000000034
 10
6.019999999999982
 20
0.3400000000000034
 10
6.0
 20
0.3400000000000034
 10
5.97999999999999
 20
0.3200000000000216
 10
5.9599999999999795
 20
0.3200000000000216
 10
5.939999999999998
 20
0.3200000000000216
 10
5.9199999999999875
 20
0.30000000000001137
 10
5.899999999999977
 20
0.30000000000001137
 10
5.8799999999999955
 20
0.30000000000001137
 10
5.859999999999985
 20
0.30000000000001137
 10
5.859999999999985
 20
0.28000000000000114
 10
5.839999999999975
 20
0.28000000000000114
 10
5.819999999999993
 20
0.28000000000000114
 10
5.799999999999983
 20
0.28000000000000114
 10
5.780000000000001
 20
0.2600000000000193
 10
5.759999999999991
 20
0.2600000000000193
 10
5.739999999999981
 20
0.2600000000000193
 10
5.719999999999999
 20
0.2400000000000091
 10
5.699999999999989
 20
0.2400000000000091
 10
5.679999999999978
 20
0.2400000000000091
 10
5.659999999999997
 20
0.21999999999999886
 10
5.639999999999986
 20
0.21999999999999886
 10
5.619999999999976
 20
0.21999999999999886
 10
5.599999999999994
 20
0.21999999999999886
 10
5.579999999999984
 20
0.20000000000001705
 10
5.559999999999974
 20
0.20000000000001705
 10
5.539999999999992
 20
0.20000000000001705
 10
5.519999999999982
 20
0.20000000000001705
 10
5.5
 20
0.18000000000000682
 10
5.47999999999999
 20
0.18000000000000682
 10
5.4599999999999795
 20
0.18000000000000682
 10
5.439999999999998
 20
0.160000000000025
 10
5.4199999999999875
 20
0.160000000000025
 10
5.399999999999977
 20
0.160000000000025
 10
5.3799999999999955
 20
0.160000000000025
 10
5.359999999999985
 20
0.160000000000025
 10
5.339999999999975
 20
0.14000000000001478
 10
5.319999999999993
 20
0.14000000000001478
 10
5.299999999999983
 20
0.14000000000001478
 10
5.280000000000001
 20
0.14000000000001478
 10
5.259999999999991
 20
0.12000000000000455
 10
5.239999999999981
 20
0.12000000000000455
 10
5.219999999999999
 20
0.12000000000000455
 10
5.199999999999989
 20
0.12000000000000455
 10
5.199999999999989
 20
0.10000000000002274
 10
5.179999999999978
 20
0.10000000000002274
 10
5.159999999999997
 20
0.10000000000002274
 10
5.139999999999986
 20
0.10000000000002274
 10
5.119999999999976
 20
0.10000000000002274
 10
5.099999999999994
 20
0.0800000000000125
 10
5.079999999999984
 20
0.0800000000000125
 10
5.059999999999974
 20
0.0800000000000125
 10
5.039999999999992
 20
0.0800000000000125
 10
5.019999999999982
 20
0.0800000000000125
 10
5.019999999999982
 20
0.060000000000002274
 10
5.0
 20
0.060000000000002274
 10
4.97999999999999
 20
0.060000000000002274
 10
4.9599999999999795
 20
0.060000000000002274
 10
4.939999999999998
 20
0.060000000000002274
 10
4.9199999999999875
 20
0.060000000000002274
 10
4.9199999999999875
 20
0.040000000000020464
 10
4.899999999999977
 20
0.040000000000020464
 10
4.8799999999999955
 20
0.040000000000020464
 10
4.859999999999985
 20
0.040000000000020464
 10
4.839999999999975
 20
0.040000000000020464
 10
4.819999999999993
 20
0.020000000000010232
 10
4.799999999999983
 20
0.020000000000010232
 10
4.780000000000001
 20
0.020000000000010232
 10
4.759999999999991
 20
0.020000000000010232
 10
4.739999999999981
 20
0.020000000000010232
 10
4.739999999999981
 20
0.0
 10
4.719999999999999
 20
0.0
 10
4.699999999999989
 20
0.0
 10
3.719999999999999
 20
0.9800000000000182
 10
2.839999999999975
 20
2.0600000000000023
 10
2.839999999999975
 20
2.0800000000000125
 10
2.839999999999975
 20
2.1000000000000227
 10
2.859999999999985
 20
2.1000000000000227
 10
2.859999999999985
 20
2.1200000000000045
 10
2.859999999999985
 20
2.140000000000015
 10
2.859999999999985
 20
2.160000000000025
 10
2.8799999999999955
 20
2.160000000000025
 10
2.8799999999999955
 20
2.180000000000007
 10
2.8799999999999955
 20
2.200000000000017
 10
2.8799999999999955
 20
2.219999999999999
 10
2.8999999999999773
 20
2.219999999999999
 10
2.8999999999999773
 20
2.240000000000009
 10
2.8999999999999773
 20
2.2600000000000193
 10
2.8999999999999773
 20
2.280000000000001
 10
2.9199999999999875
 20
2.3000000000000114
 10
2.9199999999999875
 20
2.3200000000000216
 10
2.9199999999999875
 20
2.3400000000000034
 10
2.9399999999999977
 20
2.3600000000000136
 10
2.9399999999999977
 20
2.380000000000024
 10
2.9399999999999977
 20
2.4000000000000057
 10
2.9599999999999795
 20
2.420000000000016
 10
2.9599999999999795
 20
2.440000000000026
 10
2.9599999999999795
 20
2.460000000000008
 10
2.9799999999999898
 20
2.480000000000018
 10
2.9799999999999898
 20
2.5
 10
2.9799999999999898
 20
2.5200000000000102
 10
3.0
 20
2.5400000000000205
 10
3.0
 20
2.5600000000000023
 10
3.0
 20
2.5800000000000125
 10
3.019999999999982
 20
2.6000000000000227
 10
3.019999999999982
 20
2.6200000000000045
 10
3.019999999999982
 20
2.640000000000015
 10
3.039999999999992
 20
2.660000000000025
 10
3.039999999999992
 20
2.680000000000007
 10
3.039999999999992
 20
2.700000000000017
 10
3.059999999999974
 20
2.719999999999999
 10
3.059999999999974
 20
2.740000000000009
 10
3.079999999999984
 20
2.7600000000000193
 10
3.079999999999984
 20
2.780000000000001
 10
3.079999999999984
 20
2.8000000000000114
 10
3.0999999999999943
 20
2.8200000000000216
 10
3.0999999999999943
 20
2.8400000000000034
 10
3.119999999999976
 20
2.8600000000000136
 10
3.119999999999976
 20
2.880000000000024
 10
3.119999999999976
 20
2.9000000000000057
 10
3.119999999999976
 20
2.920000000000016
 10
3.1399999999999864
 20
2.920000000000016
 10
3.1399999999999864
 20
2.940000000000026
 10
3.1399999999999864
 20
2.960000000000008
 10
3.1599999999999966
 20
2.980000000000018
 10
3.1599999999999966
 20
3.0
 10
3.1799999999999784
 20
3.0200000000000102
 10
3.1799999999999784
 20
3.0400000000000205
 10
3.1799999999999784
 20
3.0600000000000023
 10
3.1999999999999886
 20
3.0800000000000125
 10
3.1999999999999886
 20
3.1000000000000227
 10
3.219999999999999
 20
3.1200000000000045
 10
3.219999999999999
 20
3.140000000000015
 10
3.2399999999999807
 20
3.160000000000025
 10
3.2399999999999807
 20
3.180000000000007
 10
3.2399999999999807
 20
3.200000000000017
 10
3.259999999999991
 20
3.219999999999999
 10
3.259999999999991
 20
3.240000000000009
 10
3.259999999999991
 20
3.2600000000000193
 10
3.280000000000001
 20
3.2600000000000193
 10
3.280000000000001
 20
3.280000000000001
 10
3.299999999999983
 20
3.3000000000000114
 10
3.299999999999983
 20
3.3200000000000216
 10
3.299999999999983
 20
3.3400000000000034
 10
3.319999999999993
 20
3.3600000000000136
 10
3.319999999999993
 20
3.380000000000024
 10
3.339999999999975
 20
3.4000000000000057
 10
3.339999999999975
 20
3.420000000000016
 10
3.359999999999985
 20
3.440000000000026
 10
3.359999999999985
 20
3.460000000000008
 10
3.3799999999999955
 20
3.480000000000018
 10
3.3799999999999955
 20
3.5
 10
3.3999999999999773
 20
3.5200000000000102
 10
3.3999999999999773
 20
3.5400000000000205
 10
3.4199999999999875
 20
3.5600000000000023
 10
3.4199999999999875
 20
3.5800000000000125
 10
3.4399999999999977
 20
3.6000000000000227
 10
3.4399999999999977
 20
3.6200000000000045
 10
3.4399999999999977
 20
3.640000000000015
 10
3.4599999999999795
 20
3.640000000000015
 10
3.4599999999999795
 20
3.660000000000025
 10
3.4799999999999898
 20
3.680000000000007
 10
3.4799999999999898
 20
3.700000000000017
 10
3.5
 20
3.719999999999999
 10
3.5
 20
3.740000000000009
 10
3.519999999999982
 20
3.7600000000000193
 10
3.519999999999982
 20
3.780000000000001
 10
3.539999999999992
 20
3.8000000000000114
 10
3.559999999999974
 20
3.8200000000000216
 10
3.559999999999974
 20
3.8400000000000034
 10
3.579999999999984
 20
3.8600000000000136
 10
3.579999999999984
 20
3.880000000000024
 10
3.5999999999999943
 20
3.9000000000000057
 10
3.619999999999976
 20
3.920000000000016
 10
3.619999999999976
 20
3.940000000000026
 10
3.6399999999999864
 20
3.960000000000008
 10
3.6399999999999864
 20
3.980000000000018
 10
3.6599999999999966
 20
4.0
 10
3.6599999999999966
 20
4.02000000000001
 10
3.6799999999999784
 20
4.0400000000000205
 10
3.6999999999999886
 20
4.060000000000002
 10
3.6999999999999886
 20
4.0800000000000125
 10
3.719999999999999
 20
4.100000000000023
 10
3.7399999999999807
 20
4.1200000000000045
 10
3.7399999999999807
 20
4.140000000000015
 10
3.759999999999991
 20
4.140000000000015
 10
3.759999999999991
 20
4.160000000000025
 10
3.780000000000001
 20
4.180000000000007
 10
3.799999999999983
 20
4.200000000000017
 10
3.799999999999983
 20
4.219999999999999
 10
3.819999999999993
 20
4.219999999999999
 10
3.819999999999993
 20
4.240000000000009
 10
3.839999999999975
 20
4.260000000000019
 10
3.839999999999975
 20
4.280000000000001
 10
3.859999999999985
 20
4.280000000000001
 10
3.859999999999985
 20
4.300000000000011
 10
3.8799999999999955
 20
4.300000000000011
 10
3.8799999999999955
 20
4.320000000000022
 10
3.8999999999999773
 20
4.340000000000003
 10
3.9199999999999875
 20
4.360000000000014
 10
3.9199999999999875
 20
4.380000000000024
 10
3.9399999999999977
 20
4.380000000000024
 10
3.9399999999999977
 20
4.400000000000006
 10
3.9599999999999795
 20
4.400000000000006
 10
3.9599999999999795
 20
4.420000000000016
 10
3.9799999999999898
 20
4.420000000000016
 10
3.9799999999999898
 20
4.440000000000026
 10
4.0
 20
4.440000000000026
 10
4.0
 20
4.460000000000008
 10
4.019999999999982
 20
4.480000000000018
 10
4.039999999999992
 20
4.5
 10
4.059999999999974
 20
4.52000000000001
 10
4.079999999999984
 20
4.5400000000000205
 10
4.079999999999984
 20
4.560000000000002
 10
4.099999999999994
 20
4.560000000000002
 10
4.119999999999976
 20
4.5800000000000125
 10
4.119999999999976
 20
4.600000000000023
 10
4.139999999999986
 20
4.600000000000023
 10
4.159999999999997
 20
4.6200000000000045
 10
4.179999999999978
 20
4.640000000000015
 10
4.199999999999989
 20
4.640000000000015
 10
4.199999999999989
 20
4.660000000000025
 10
4.219999999999999
 20
4.680000000000007
 10
4.239999999999981
 20
4.680000000000007
 10
4.239999999999981
 20
4.700000000000017
 10
4.259999999999991
 20
4.700000000000017
 10
4.259999999999991
 20
4.719999999999999
 10
4.280000000000001
 20
4.719999999999999
 10
4.280000000000001
 20
4.740000000000009
 10
4.299999999999983
 20
4.740000000000009
 10
4.319999999999993
 20
4.760000000000019
 10
4.339999999999975
 20
4.760000000000019
 10
4.339999999999975
 20
4.780000000000001
 10
4.359999999999985
 20
4.780000000000001
 10
4.359999999999985
 20
4.800000000000011
 10
4.3799999999999955
 20
4.800000000000011
 10
4.399999999999977
 20
4.820000000000022
 10
4.4199999999999875
 20
4.820000000000022
 10
4.4199999999999875
 20
4.840000000000003
 10
4.439999999999998
 20
4.840000000000003
 10
4.439999999999998
 20
4.860000000000014
 10
4.4599999999999795
 20
4.860000000000014
 10
4.47999999999999
 20
4.880000000000024
 10
4.5
 20
4.880000000000024
 10
4.5
 20
4.900000000000006
 10
4.519999999999982
 20
4.900000000000006
 10
4.519999999999982
 20
4.920000000000016
 10
4.539999999999992
 20
4.920000000000016
 10
4.559999999999974
 20
4.940000000000026
 10
4.579999999999984
 20
4.940000000000026
 10
4.579999999999984
 20
4.960000000000008
 10
4.599999999999994
 20
4.960000000000008
 10
4.619999999999976
 20
4.980000000000018
 10
4.639999999999986
 20
4.980000000000018
 10
4.639999999999986
 20
5.0
 10
4.659999999999997
 20
5.0
 10
4.679999999999978
 20
5.02000000000001
 10
4.699999999999989
 20
5.02000000000001
 10
4.699999999999989
 20
5.0400000000000205
 10
4.719999999999999
 20
5.0400000000000205
 10
4.739999999999981
 20
5.060000000000002
 10
4.759999999999991
 20
5.060000000000002
 10
4.759999999999991
 20
5.0800000000000125
 10
4.780000000000001
 20
5.0800000000000125
 10
4.799999999999983
 20
5.100000000000023
 10
4.819999999999993
 20
5.100000000000023
 10
4.819999999999993
 20
5.1200000000000045
 10
4.839999999999975
 20
5.1200000000000045
 10
4.859999999999985
 20
5.140000000000015
 10
4.8799999999999955
 20
5.140000000000015
 10
4.8799999999999955
 20
5.160000000000025
 10
4.899999999999977
 20
5.160000000000025
 10
4.899999999999977
 20
5.180000000000007
 10
4.9199999999999875
 20
5.180000000000007
 10
4.939999999999998
 20
5.180000000000007
 10
4.939999999999998
 20
5.200000000000017
 10
4.9599999999999795
 20
5.200000000000017
 10
4.9599999999999795
 20
5.219999999999999
 10
4.97999999999999
 20
5.219999999999999
 10
4.97999999999999
 20
5.240000000000009
 10
5.0
 20
5.240000000000009
 10
5.0
 20
5.260000000000019
 10
5.019999999999982
 20
5.260000000000019
 10
5.039999999999992
 20
5.260000000000019
 10
5.039999999999992
 20
5.280000000000001
 10
5.059999999999974
 20
5.280000000000001
 10
5.059999999999974
 20
5.300000000000011
 10
5.079999999999984
 20
5.300000000000011
 10
5.079999999999984
 20
5.320000000000022
 10
5.099999999999994
 20
5.320000000000022
 10
5.099999999999994
 20
5.340000000000003
 10
5.119999999999976
 20
5.340000000000003
 10
5.119999999999976
 20
5.360000000000014
 10
5.139999999999986
 20
5.360000000000014
 10
5.139999999999986
 20
5.380000000000024
 10
5.159999999999997
 20
5.380000000000024
 10
5.159999999999997
 20
5.400000000000006
 10
5.179999999999978
 20
5.400000000000006
 10
5.179999999999978
 20
5.420000000000016
 10
5.199999999999989
 20
5.420000000000016
 10
5.199999999999989
 20
5.440000000000026
 10
5.219999999999999
 20
5.440000000000026
 10
5.219999999999999
 20
5.460000000000008
 10
5.239999999999981
 20
5.460000000000008
 10
5.239999999999981
 20
5.480000000000018
 10
5.259999999999991
 20
5.480000000000018
 10
5.259999999999991
 20
5.5
 10
5.280000000000001
 20
5.52000000000001
 10
5.280000000000001
 20
5.5400000000000205
 10
5.299999999999983
 20
5.5400000000000205
 10
5.299999999999983
 20
5.560000000000002
 10
5.319999999999993
 20
5.560000000000002
 10
5.319999999999993
 20
5.5800000000000125
 10
5.319999999999993
 20
5.600000000000023
 10
5.339999999999975
 20
5.600000000000023
 10
5.339999999999975
 20
5.6200000000000045
 10
5.359999999999985
 20
5.6200000000000045
 10
5.359999999999985
 20
5.640000000000015
 10
5.359999999999985
 20
5.660000000000025
 10
5.3799999999999955
 20
5.660000000000025
 10
5.3799999999999955
 20
5.680000000000007
 10
5.399999999999977
 20
5.680000000000007
 10
5.399999999999977
 20
5.700000000000017
 10
5.399999999999977
 20
5.719999999999999
 10
5.4199999999999875
 20
5.719999999999999
 10
5.4199999999999875
 20
5.740000000000009
 10
5.4199999999999875
 20
5.760000000000019
 10
5.439999999999998
 20
5.760000000000019
 10
5.439999999999998
 20
5.780000000000001
 10
5.439999999999998
 20
5.800000000000011
 10
5.4599999999999795
 20
5.800000000000011
 10
5.4599999999999795
 20
5.820000000000022
 10
5.4599999999999795
 20
5.840000000000003
 10
5.47999999999999
 20
5.840000000000003
 10
5.47999999999999
 20
5.860000000000014
 10
5.47999999999999
 20
5.880000000000024
 10
5.5
 20
5.880000000000024
 10
5.5
 20
5.900000000000006
 10
5.5
 20
5.920000000000016
 10
5.5
 20
5.940000000000026
 10
5.519999999999982
 20
5.940000000000026
 10
5.519999999999982
 20
5.960000000000008
 10
5.519999999999982
 20
5.980000000000018
 10
5.539999999999992
 20
5.980000000000018
 10
5.539999999999992
 20
6.0
 10
5.539999999999992
 20
6.02000000000001
 10
5.539999999999992
 20
6.0400000000000205
 10
5.559999999999974
 20
6.0400000000000205
 10
5.559999999999974
 20
6.060000000000002
 10
5.559999999999974
 20
6.0800000000000125
 10
5.559999999999974
 20
6.100000000000023
 10
5.579999999999984
 20
6.100000000000023
 10
5.579999999999984
 20
6.1200000000000045
 10
5.579999999999984
 20
6.140000000000015
 10
5.579999999999984
 20
6.160000000000025
 10
5.599999999999994
 20
6.160000000000025
 10
5.599999999999994
 20
6.180000000000007
 10
5.599999999999994
 20
6.200000000000017
 10
5.599999999999994
 20
6.219999999999999
 10
5.599999999999994
 20
6.240000000000009
 10
5.619999999999976
 20
6.240000000000009
 10
5.619999999999976
 20
6.260000000000019
 10
5.359999999999985
 20
6.820000000000022
 10
5.139999999999986
 20
7.380000000000024
 10
4.9599999999999795
 20
7.940000000000026
 10
4.819999999999993
 20
8.52000000000001
 10
4.799999999999983
 20
8.54000000000002
 10
4.780000000000001
 20
8.54000000000002
 10
4.780000000000001
 20
8.560000000000002
 10
4.759999999999991
 20
8.560000000000002
 10
4.759999999999991
 20
8.580000000000013
 10
4.739999999999981
 20
8.580000000000013
 10
4.719999999999999
 20
8.580000000000013
 10
4.719999999999999
 20
8.600000000000023
 10
4.699999999999989
 20
8.600000000000023
 10
4.699999999999989
 20
8.620000000000005
 10
4.679999999999978
 20
8.620000000000005
 10
4.659999999999997
 20
8.620000000000005
 10
4.659999999999997
 20
8.640000000000015
 10
4.639999999999986
 20
8.640000000000015
 10
4.639999999999986
 20
8.660000000000025
 10
4.619999999999976
 20
8.660000000000025
 10
4.599999999999994
 20
8.660000000000025
 10
4.599999999999994
 20
8.680000000000007
 10
4.579999999999984
 20
8.680000000000007
 10
4.559999999999974
 20
8.700000000000017
 10
4.539999999999992
 20
8.700000000000017
 10
4.539999999999992
 20
8.719999999999999
 10
4.519999999999982
 20
8.719999999999999
 10
4.5
 20
8.719999999999999
 10
4.5
 20
8.740000000000009
 10
4.47999999999999
 20
8.740000000000009
 10
4.4599999999999795
 20
8.740000000000009
 10
4.4599999999999795
 20
8.76000000000002
 10
4.439999999999998
 20
8.76000000000002
 10
4.4199999999999875
 20
8.76000000000002
 10
4.4199999999999875
 20
8.780000000000001
 10
4.399999999999977
 20
8.780000000000001
 10
4.3799999999999955
 20
8.780000000000001
 10
4.3799999999999955
 20
8.800000000000011
 10
4.359999999999985
 20
8.800000000000011
 10
4.339999999999975
 20
8.800000000000011
 10
4.319999999999993
 20
8.820000000000022
 10
4.299999999999983
 20
8.820000000000022
 10
4.280000000000001
 20
8.820000000000022
 10
4.280000000000001
 20
8.840000000000003
 10
4.259999999999991
 20
8.840000000000003
 10
4.239999999999981
 20
8.840000000000003
 10
4.219999999999999
 20
8.840000000000003
 10
4.219999999999999
 20
8.860000000000014
 10
4.199999999999989
 20
8.860000000000014
 10
4.179999999999978
 20
8.860000000000014
 10
4.159999999999997
 20
8.860000000000014
 10
4.159999999999997
 20
8.880000000000024
 10
4.139999999999986
 20
8.880000000000024
 10
4.119999999999976
 20
8.880000000000024
 10
4.099999999999994
 20
8.880000000000024
 10
4.079999999999984
 20
8.880000000000024
 10
4.079999999999984
 20
8.900000000000006
 10
4.059999999999974
 20
8.900000000000006
 10
4.039999999999992
 20
8.900000000000006
 10
4.019999999999982
 20
8.900000000000006
 10
4.0
 20
8.900000000000006
 10
3.9799999999999898
 20
8.920000000000016
 10
3.9599999999999795
 20
8.920000000000016
 10
3.9399999999999977
 20
8.920000000000016
 10
3.9199999999999875
 20
8.920000000000016
 10
3.8999999999999773
 20
8.920000000000016
 10
3.8799999999999955
 20
8.920000000000016
 10
3.859999999999985
 20
8.920000000000016
 10
3.839999999999975
 20
8.920000000000016
 10
3.819999999999993
 20
8.920000000000016
 10
3.799999999999983
 20
8.940000000000026
 10
3.780000000000001
 20
8.940000000000026
 10
3.759999999999991
 20
8.940000000000026
 10
3.7399999999999807
 20
8.940000000000026
 10
3.719999999999999
 20
8.940000000000026
 10
3.6999999999999886
 20
8.940000000000026
 10
3.6799999999999784
 20
8.940000000000026
 10
3.6599999999999966
 20
8.940000000000026
 10
3.6399999999999864
 20
8.940000000000026
 10
3.619999999999976
 20
8.940000000000026
 10
3.5999999999999943
 20
8.940000000000026
 10
3.579999999999984
 20
8.940000000000026
 10
3.579999999999984
 20
8.920000000000016
 10
3.559999999999974
 20
8.920000000000016
 10
3.539999999999992
 20
8.920000000000016
 10
3.519999999999982
 20
8.920000000000016
 10
3.5
 20
8.920000000000016
 10
3.4799999999999898
 20
8.920000000000016
 10
3.4599999999999795
 20
8.920000000000016
 10
3.4399999999999977
 20
8.920000000000016
 10
3.4199999999999875
 20
8.920000000000016
 10
3.3999999999999773
 20
8.920000000000016
 10
3.3799999999999955
 20
8.920000000000016
 10
3.359999999999985
 20
8.920000000000016
 10
3.339999999999975
 20
8.920000000000016
 10
3.319999999999993
 20
8.900000000000006
 10
3.299999999999983
 20
8.900000000000006
 10
3.280000000000001
 20
8.900000000000006
 10
3.259999999999991
 20
8.900000000000006
 10
3.2399999999999807
 20
8.900000000000006
 10
3.219999999999999
 20
8.900000000000006
 10
3.1999999999999886
 20
8.900000000000006
 10
3.1799999999999784
 20
8.900000000000006
 10
3.1599999999999966
 20
8.900000000000006
 10
3.1399999999999864
 20
8.900000000000006
 10
3.119999999999976
 20
8.900000000000006
 10
3.0999999999999943
 20
8.880000000000024
 10
3.079999999999984
 20
8.880000000000024
 10
3.059999999999974
 20
8.880000000000024
 10
3.039999999999992
 20
8.880000000000024
 10
3.019999999999982
 20
8.880000000000024
 10
3.0
 20
8.880000000000024
 10
2.9799999999999898
 20
8.880000000000024
 10
2.9599999999999795
 20
8.880000000000024
 10
2.9399999999999977
 20
8.880000000000024
 10
2.9199999999999875
 20
8.880000000000024
 10
2.8999999999999773
 20
8.880000000000024
 10
2.8799999999999955
 20
8.880000000000024
 10
2.859999999999985
 20
8.880000000000024
 10
2.839999999999975
 20
8.880000000000024
 10
2.819999999999993
 20
8.880000000000024
 10
2.799999999999983
 20
8.880000000000024
 10
2.780000000000001
 20
8.880000000000024
 10
2.759999999999991
 20
8.880000000000024
 10
2.7399999999999807
 20
8.880000000000024
 10
2.719999999999999
 20
8.880000000000024
 10
2.6999999999999886
 20
8.880000000000024
 10
2.6799999999999784
 20
8.880000000000024
 10
2.6599999999999966
 20
8.880000000000024
 10
2.6399999999999864
 20
8.880000000000024
 10
2.619999999999976
 20
8.880000000000024
 10
2.5999999999999943
 20
8.880000000000024
 10
2.579999999999984
 20
8.880000000000024
 10
2.579999999999984
 20
8.900000000000006
 10
2.559999999999974
 20
8.900000000000006
 10
2.539999999999992
 20
8.900000000000006
 10
2.519999999999982
 20
8.900000000000006
 10
2.5
 20
8.900000000000006
 10
2.4799999999999898
 20
8.900000000000006
 10
2.4599999999999795
 20
8.900000000000006
 10
2.4399999999999977
 20
8.900000000000006
 10
2.4199999999999875
 20
8.900000000000006
 10
2.4199999999999875
 20
8.920000000000016
 10
2.3999999999999773
 20
8.920000000000016
 10
2.3799999999999955
 20
8.920000000000016
 10
2.359999999999985
 20
8.920000000000016
 10
2.339999999999975
 20
8.920000000000016
 10
2.319999999999993
 20
8.920000000000016
 10
2.299999999999983
 20
8.920000000000016
 10
2.299999999999983
 20
8.940000000000026
 10
2.280000000000001
 20
8.940000000000026
 10
2.259999999999991
 20
8.940000000000026
 10
2.2399999999999807
 20
8.940000000000026
 10
2.219999999999999
 20
8.940000000000026
 10
2.1999999999999886
 20
8.960000000000008
 10
2.1799999999999784
 20
8.960000000000008
 10
2.1599999999999966
 20
8.960000000000008
 10
2.1399999999999864
 20
8.960000000000008
 10
2.119999999999976
 20
8.960000000000008
 10
2.119999999999976
 20
8.980000000000018
 10
2.0999999999999943
 20
8.980000000000018
 10
2.079999999999984
 20
8.980000000000018
 10
2.059999999999974
 20
8.980000000000018
 10
2.039999999999992
 20
9.0
 10
2.019999999999982
 20
9.0
 10
2.0
 20
9.0
 10
1.9799999999999898
 20
9.02000000000001
 10
1.9599999999999795
 20
9.02000000000001
 10
1.9399999999999977
 20
9.02000000000001
 10
1.9199999999999875
 20
9.04000000000002
 10
1.8999999999999773
 20
9.04000000000002
 10
1.8799999999999955
 20
9.04000000000002
 10
1.8599999999999852
 20
9.04000000000002
 10
1.839999999999975
 20
9.060000000000002
 10
1.8199999999999932
 20
9.060000000000002
 10
1.799999999999983
 20
9.080000000000013
 10
1.7800000000000011
 20
9.080000000000013
 10
1.759999999999991
 20
9.080000000000013
 10
1.7399999999999807
 20
9.100000000000023
 10
1.7199999999999989
 20
9.100000000000023
 10
1.6999999999999886
 20
9.100000000000023
 10
1.6799999999999784
 20
9.120000000000005
 10
1.6599999999999966
 20
9.120000000000005
 10
1.6399999999999864
 20
9.140000000000015
 10
1.6199999999999761
 20
9.140000000000015
 10
1.5999999999999943
 20
9.140000000000015
 10
1.579999999999984
 20
9.160000000000025
 10
1.5599999999999739
 20
9.160000000000025
 10
1.539999999999992
 20
9.160000000000025
 10
1.539999999999992
 20
9.180000000000007
 10
1.5199999999999818
 20
9.180000000000007
 10
1.5
 20
9.180000000000007
 10
1.4799999999999898
 20
9.200000000000017
 10
1.4599999999999795
 20
9.200000000000017
 10
1.4399999999999977
 20
9.200000000000017
 10
1.4399999999999977
 20
9.219999999999999
 10
1.4199999999999875
 20
9.219999999999999
 10
1.3999999999999773
 20
9.240000000000009
 10
1.3799999999999955
 20
9.240000000000009
 10
1.3599999999999852
 20
9.240000000000009
 10
1.339999999999975
 20
9.26000000000002
 10
1.3199999999999932
 20
9.280000000000001
 10
1.299999999999983
 20
9.280000000000001
 10
1.2800000000000011
 20
9.280000000000001
 10
1.259999999999991
 20
9.300000000000011
 10
1.2399999999999807
 20
9.300000000000011
 10
1.2199999999999989
 20
9.320000000000022
 10
1.1999999999999886
 20
9.320000000000022
 10
1.1799999999999784
 20
9.340000000000003
 10
1.1599999999999966
 20
9.340000000000003
 10
1.1399999999999864
 20
9.360000000000014
 10
1.1199999999999761
 20
9.360000000000014
 10
1.0999999999999943
 20
9.380000000000024
 10
1.079999999999984
 20
9.380000000000024
 10
1.0599999999999739
 20
9.400000000000006
 10
1.039999999999992
 20
9.400000000000006
 10
1.039999999999992
 20
9.420000000000016
 10
1.0199999999999818
 20
9.420000000000016
 10
1.0
 20
9.420000000000016
 10
0.9799999999999898
 20
9.440000000000026
 10
0.9599999999999795
 20
9.460000000000008
 10
0.9399999999999977
 20
9.460000000000008
 10
0.9199999999999875
 20
9.480000000000018
 10
0.8999999999999773
 20
9.480000000000018
 10
0.8799999999999955
 20
9.5
 10
0.8599999999999852
 20
9.5
 10
0.839999999999975
 20
9.52000000000001
 10
0.8199999999999932
 20
9.52000000000001
 10
0.8199999999999932
 20
9.54000000000002
 10
0.799999999999983
 20
9.54000000000002
 10
0.7800000000000011
 20
9.54000000000002
 10
0.7599999999999909
 20
9.560000000000002
 10
0.7399999999999807
 20
9.580000000000013
 10
0.7199999999999989
 20
9.580000000000013
 10
0.6999999999999886
 20
9.600000000000023
 10
0.6799999999999784
 20
9.600000000000023
 10
0.6799999999999784
 20
9.620000000000005
 10
0.6599999999999966
 20
9.620000000000005
 10
0.6399999999999864
 20
9.620000000000005
 10
0.6199999999999761
 20
9.640000000000015
 10
0.5999999999999943
 20
9.660000000000025
 10
0.5799999999999841
 20
9.660000000000025
 10
0.5599999999999739
 20
9.680000000000007
 10
0.539999999999992
 20
9.680000000000007
 10
0.539999999999992
 20
9.700000000000017
 10
0.5199999999999818
 20
9.700000000000017
 10
0.5
 20
9.719999999999999
 10
0.47999999999998977
 20
9.719999999999999
 10
0.47999999999998977
 20
9.740000000000009
 10
0.45999999999997954
 20
9.740000000000009
 10
0.4399999999999977
 20
9.740000000000009
 10
0.4399999999999977
 20
9.76000000000002
 10
0.4199999999999875
 20
9.76000000000002
 10
0.39999999999997726
 20
9.780000000000001
 10
0.37999999999999545
 20
9.780000000000001
 10
0.37999999999999545
 20
9.800000000000011
 10
0.3599999999999852
 20
9.800000000000011
 10
0.339999999999975
 20
9.800000000000011
 10
0.339999999999975
 20
9.820000000000022
 10
0.3199999999999932
 20
9.820000000000022
 10
0.29999999999998295
 20
9.840000000000003
 10
0.28000000000000114
 20
9.860000000000014
 10
0.2599999999999909
 20
9.860000000000014
 10
0.23999999999998067
 20
9.880000000000024
 10
0.21999999999999886
 20
9.880000000000024
 10
0.21999999999999886
 20
9.900000000000006
 10
0.19999999999998863
 20
9.900000000000006
 10
0.1799999999999784
 20
9.900000000000006
 10
0.1799999999999784
 20
9.920000000000016
 10
0.1599999999999966
 20
9.920000000000016
 10
0.1599999999999966
 20
9.940000000000026
 10
0.13999999999998636
 20
9.940000000000026
 10
0.11999999999997613
 20
9.960000000000008
 10
0.09999999999999432
 20
9.960000000000008
 10
0.09999999999999432
 20
9.980000000000018
 10
0.07999999999998408
 20
9.980000000000018
 10
0.05999999999997385
 20
10.0
 10
0.03999999999999204
 20
10.0
 10
0.03999999999999204
 20
10.02000000000001
 10
0.01999999999998181
 20
10.02000000000001
 10
0.0
 20
10.04000000000002
  0
LWPOLYLINE
  5
31
330
17
100
AcDbEntity
  8
CORTE
100
AcDbPolyline
 90
26
 70
1
 10
24.659999999999997
 20
11.700000000000017
 10
24.45999999999998
 20
11.680000000000007
 10
24.25999999999999
 20
11.620000000000005
 10
23.939999999999998
 20
11.400000000000006
 10
23.72
 20
11.080000000000013
 10
23.659999999999997
 20
10.900000000000006
 10
23.639999999999986
 20
10.680000000000007
 10
23.659999999999997
 20
10.480000000000018
 10
23.72
 20
10.280000000000001
 10
23.939999999999998
 20
9.960000000000008
 10
24.25999999999999
 20
9.740000000000009
 10
24.45999999999998
 20
9.680000000000007
 10
24.659999999999997
 20
9.660000000000025
 10
29.75999999999999
 20
9.660000000000025
 10
29.95999999999998
 20
9.680000000000007
 10
30.159999999999997
 20
9.740000000000009
 10
30.47999999999999
 20
9.960000000000008
 10
30.69999999999999
 20
10.280000000000001
 10
30.75999999999999
 20
10.480000000000018
 10
30.78
 20
10.680000000000007
 10
30.75999999999999
 20
10.900000000000006
 10
30.69999999999999
 20
11.080000000000013
 10
30.47999999999999
 20
11.400000000000006
 10
30.159999999999997
 20
11.620000000000005
 10
29.95999999999998
 20
11.680000000000007
 10
29.75999999999999
 20
11.700000000000017
  0
CIRCLE
  5
32
330
17
100
AcDbEntity
  8
CORTE
100
AcDbCircle
 10
7.699883117992253
 20
11.032853604675296
 30
0.0
 40
1.3248565579487526
  0
CIRCLE
  5
33
330
17
100
AcDbEntity
  8
CORTE
100
AcDbCircle
 10
14.799999999999988
 20
17.400116157566043
 30
0.0
 40
1.3249015126301167
  0
CIRCLE
  5
34
330
17
100
AcDbEntity
  8
CORTE
100
AcDbCircle
 10
14.459492823777513
 20
10.685798316040648
 30
0.0
 40
3.621041189581416
  0
ENDSEC
  0
SECTION
  2
OBJECTS
  0
DICTIONARY
  5
A
330
0
100
AcDbDictionary
281
1
  3
ACAD_COLOR
350
B
  3
ACAD_GROUP
350
C
  3
ACAD_LAYOUT
350
D
  3
ACAD_MATERIAL
350
E
  3
ACAD_MLEADERSTYLE
350
F
  3
ACAD_MLINESTYLE
350
10
  3
ACAD_PLOTSETTINGS
350
11
  3
ACAD_PLOTSTYLENAME
350
12
  3
ACAD_SCALELIST
350
14
  3
ACAD_TABLESTYLE
350
15
  3
ACAD_VISUALSTYLE
350
16
  3
EZDXF_META
350
2D
  0
DICTIONARY
  5
B
330
A
100
AcDbDictionary
281
1
  0
DICTIONARY
  5
C
330
A
100
AcDbDictionary
281
1
  0
DICTIONARY
  5
D
330
A
100
AcDbDictionary
281
1
  3
Model
350
1A
  3
Layout1
350
1E
  0
DICTIONARY
  5
E
330
A
100
AcDbDictionary
281
1
  3
ByBlock
350
1F
  3
ByLayer
350
20
  3
Global
350
21
  0
DICTIONARY
  5
F
330
A
100
AcDbDictionary
281
1
  3
Standard
350
2C
  0
DICTIONARY
  5
10
330
A
100
AcDbDictionary
281
1
  3
Standard
350
22
  0
DICTIONARY
  5
11
330
A
100
AcDbDictionary
281
1
  0
ACDBDICTIONARYWDFLT
  5
12
330
A
100
AcDbDictionary
281
1
  3
Normal
350
13
100
AcDbDictionaryWithDefault
340
13
  0
ACDBPLACEHOLDER
  5
13
330
12
  0
DICTIONARY
  5
14
330
A
100
AcDbDictionary
281
1
  0
DICTIONARY
  5
15
330
A
100
AcDbDictionary
281
1
  0
DICTIONARY
  5
16
330
A
100
AcDbDictionary
281
1
  0
LAYOUT
  5
1A
330
D
100
AcDbPlotSettings
  1

  4
A3
  6

 40
7.5
 41
20.0
 42
7.5
 43
20.0
 44
420.0
 45
297.0
 46
0.0
 47
0.0
 48
0.0
 49
0.0
140
0.0
141
0.0
142
1.0
143
1.0
 70
1024
 72
1
 73
0
 74
5
  7

 75
16
 76
0
 77
2
 78
300
147
1.0
148
0.0
149
0.0
100
AcDbLayout
  1
Model
 70
1
 71
0
 10
0.0
 20
0.0
 11
420.0
 21
297.0
 12
0.0
 22
0.0
 32
0.0
 14
1e+20
 24
1e+20
 34
1e+20
 15
-1e+20
 25
-1e+20
 35
-1e+20
146
0.0
 13
0.0
 23
0.0
 33
0.0
 16
1.0
 26
0.0
 36
0.0
 17
0.0
 27
1.0
 37
0.0
 76
1
330
17
  0
LAYOUT
  5
1E
330
D
100
AcDbPlotSettings
  1

  4
A3
  6

 40
7.5
 41
20.0
 42
7.5
 43
20.0
 44
420.0
 45
297.0
 46
0.0
 47
0.0
 48
0.0
 49
0.0
140
0.0
141
0.0
142
1.0
143
1.0
 70
0
 72
1
 73
0
 74
5
  7

 75
16
 76
0
 77
2
 78
300
147
1.0
148
0.0
149
0.0
100
AcDbLayout
  1
Layout1
 70
1
 71
1
 10
0.0
 20
0.0
 11
420.0
 21
297.0
 12
0.0
 22
0.0
 32
0.0
 14
1e+20
 24
1e+20
 34
1e+20
 15
-1e+20
 25
-1e+20
 35
-1e+20
146
0.0
 13
0.0
 23
0.0
 33
0.0
 16
1.0
 26
0.0
 36
0.0
 17
0.0
 27
1.0
 37
0.0
 76
1
330
1B
  0
MATERIAL
  5
1F
102
{ACAD_REACTORS
330
E
102
}
330
E
100
AcDbMaterial
  1
ByBlock
  2

 70
0
 40
1.0
 71
1
 41
1.0
 91
-1023410177
 42
1.0
 72
1
  3

 73
1
 74
1
 75
1
 44
0.5
 73
0
 45
1.0
 46
1.0
 77
1
  4

 78
1
 79
1
170
1
 48
1.0
171
1
  6

172
1
173
1
174
1
140
1.0
141
1.0
175
1
  7

176
1
177
1
178
1
143
1.0
179
1
  8

270
1
271
1
272
1
145
1.0
146
1.0
273
1
  9

274
1
275
1
276
1
 42
1.0
 72
1
  3

 73
1
 74
1
 75
1
 94
63
  0
MATERIAL
  5
20
102
{ACAD_REACTORS
330
E
102
}
330
E
100
AcDbMaterial
  1
ByLayer
  2

 70
0
 40
1.0
 71
1
 41
1.0
 91
-1023410177
 42
1.0
 72
1
  3

 73
1
 74
1
 75
1
 44
0.5
 73
0
 45
1.0
 46
1.0
 77
1
  4

 78
1
 79
1
170
1
 48
1.0
171
1
  6

172
1
173
1
174
1
140
1.0
141
1.0
175
1
  7

176
1
177
1
178
1
143
1.0
179
1
  8

270
1
271
1
272
1
145
1.0
146
1.0
273
1
  9

274
1
275
1
276
1
 42
1.0
 72
1
  3

 73
1
 74
1
 75
1
 94
63
  0
MATERIAL
  5
21
102
{ACAD_REACTORS
330
E
102
}
330
E
100
AcDbMaterial
  1
Global
  2

 70
0
 40
1.0
 71
1
 41
1.0
 91
-1023410177
 42
1.0
 72
1
  3

 73
1
 74
1
 75
1
 44
0.5
 73
0
 45
1.0
 46
1.0
 77
1
  4

 78
1
 79
1
170
1
 48
1.0
171
1
  6

172
1
173
1
174
1
140
1.0
141
1.0
175
1
  7

176
1
177
1
178
1
143
1.0
179
1
  8

270
1
271
1
272
1
145
1.0
146
1.0
273
1
  9

274
1
275
1
276
1
 42
1.0
 72
1
  3

 73
1
 74
1
 75
1
 94
63
  0
MLINESTYLE
  5
22
102
{ACAD_REACTORS
330
10
102
}
330
10
100
AcDbMlineStyle
  2
Standard
 70
0
  3

 62
256
 51
90.0
 52
90.0
 71
2
 49
0.5
 62
256
  6
BYLAYER
 49
-0.5
 62
256
  6
BYLAYER
  0
MLEADERSTYLE
  5
2C
102
{ACAD_REACTORS
330
F
102
}
330
F
100
AcDbMLeaderStyle
179
2
170
2
171
1
172
0
 90
2
 40
0.0
 41
0.0
173
1
 91
-1056964608
 92
-2
290
1
 42
2.0
291
1
 43
8.0
  3
Standard
 44
4.0
300

342
29
174
1
175
1
176
0
178
1
 93
-1056964608
 45
4.0
292
0
297
0
 46
4.0
 94
-1056964608
 47
1.0
 49
1.0
140
1.0
294
1
141
0.0
177
0
142
1.0
295
0
296
0
143
3.75
271
0
272
9
273
9
  0
DICTIONARY
  5
2D
330
A
100
AcDbDictionary
280
1
281
1
  3
CREATED_BY_EZDXF
350
2E
  3
WRITTEN_BY_EZDXF
350
37
  0
DICTIONARYVAR
  5
2E
330
2D
100
DictionaryVariables
280
0
  1
1.4.4 @ 2026-10-06T17:04:48.002786+00:00
  0
DICTIONARYVAR
  5
37
330
2D
100
DictionaryVariables
280
0
  1
1.4.4 @ 2026-10-06T17:04:48.026277+00:00
  0
ENDSEC
  0
EOF
